<svg width="669" height="646" viewBox="0 0 669 646" fill="none" xmlns="http://www.w3.org/2000/svg">
<g clip-path="url(#clip0)">
<path d="M240.113 -16.2752C203.143 21.0945 180.121 67.5567 148.259 108.376C124.686 138.878 95.928 166.188 71.9626 196.561C24.1891 257.049 -4.64781 330.789 0.616704 404.464C5.88122 478.139 47.7616 550.88 117.575 591.216C160.438 616.011 211.158 627.779 261.603 635.421C431.442 661.215 614.247 641.354 759.374 559.102C784.283 544.979 808.13 529.051 835.16 518.346C904.581 490.811 994.627 497.195 1044.95 446.638C1075.25 416.2 1081.92 372.672 1080.9 332.078C1079.68 283.327 1068.06 232.125 1031.87 195.561C984.727 147.616 907.724 134.783 844 105.281C781.886 76.6814 731.795 31.7024 678.442 -8.47239C550.09 -105.169 365.44 -142.958 240.113 -16.2752Z" fill="#FAFAFA"/>
</g>
<defs>
<clipPath id="clip0">
<rect width="669" height="646" fill="white"/>
</clipPath>
</defs>
</svg>
