<svg width="681" height="350" viewBox="0 0 681 350" fill="none" xmlns="http://www.w3.org/2000/svg">
<g opacity="0.3">
<g opacity="0.7" clip-path="url(#clip0)">
<path d="M464.9 135.42V162.01L532.13 148.74V128.74C532.124 125.874 531.474 123.045 530.227 120.464C528.981 117.883 527.171 115.614 524.93 113.827C522.689 112.039 520.076 110.778 517.282 110.136C514.488 109.495 511.586 109.489 508.79 110.12L479.79 116.73C475.553 117.688 471.768 120.061 469.061 123.459C466.354 126.857 464.886 131.076 464.9 135.42Z" fill="#A500FF"/>
<path d="M523.55 150.46L517.39 175.3C517.39 175.3 502.61 202.92 477.15 192.78C451.69 182.64 470.53 155.12 470.53 155.12L523.55 150.46Z" fill="#A500FF"/>
<path d="M501.8 228.23L498.81 192.78L505.69 187.94L507.3 234.85L501.8 236.63V228.23Z" fill="#A500FF"/>
<path d="M501.8 228.23L498.81 192.78L505.69 187.94L507.3 234.85L501.8 236.63V228.23Z" fill="url(#paint0_linear)"/>
<path d="M464.9 135.42V162.01L532.13 148.74V128.74C532.124 125.874 531.474 123.045 530.227 120.464C528.981 117.883 527.171 115.614 524.93 113.827C522.689 112.039 520.076 110.778 517.282 110.136C514.488 109.495 511.586 109.489 508.79 110.12L479.79 116.73C475.553 117.688 471.768 120.061 469.061 123.459C466.354 126.857 464.886 131.076 464.9 135.42Z" fill="url(#paint1_linear)"/>
<path d="M523.55 150.46L517.39 175.3C517.39 175.3 502.61 202.92 477.15 192.78C451.69 182.64 470.53 155.12 470.53 155.12L523.55 150.46Z" fill="url(#paint2_linear)"/>
<path d="M304.87 151.81L295.92 164.88L282.88 156.67L276.06 162.1L295.22 176.66L311.06 170.59L304.87 151.81Z" fill="#A500FF"/>
<path opacity="0.25" d="M304.87 151.81L295.92 164.88L282.88 156.67L276.06 162.1L295.22 176.66L311.06 170.59L304.87 151.81Z" fill="url(#paint3_linear)"/>
<path d="M263.69 146.64C263.69 146.64 269.69 146.24 271.24 147.64C272.948 149.448 274.558 151.347 276.06 153.33L281.67 157.92L276.51 160.82L268.39 155.25L263.69 146.64Z" fill="url(#paint4_linear)"/>
<path d="M209.46 172.48C209.46 172.48 311.32 214.64 496.28 166.77C496.28 166.77 486.53 224.32 435.22 238.77C383.91 253.22 303.4 254.31 270.64 238.77C214.7 212.21 209.46 172.48 209.46 172.48Z" fill="#A500FF"/>
<path opacity="0.25" d="M209.46 172.48C209.46 172.48 311.32 214.64 496.28 166.77C496.28 166.77 486.53 224.32 435.22 238.77C383.91 253.22 303.4 254.31 270.64 238.77C214.7 212.21 209.46 172.48 209.46 172.48Z" fill="url(#paint5_linear)"/>
<path d="M209.46 172.48L200.25 167.54V155.12C200.25 155.12 210.56 179.26 284.46 179.26C309.04 179.26 328.64 181.6 352.97 179.26C431.62 171.69 505.69 151.81 505.69 151.81L504.08 163.44L496.28 166.77C496.28 166.77 288.27 221.28 209.46 172.48Z" fill="#A500FF"/>
<path opacity="0.25" d="M209.46 172.48L200.25 167.54V155.12C200.25 155.12 237.16 180.46 311.06 180.46C415.11 180.46 505.69 151.81 505.69 151.81L504.08 163.44L496.28 166.77C496.28 166.77 288.27 221.28 209.46 172.48Z" fill="url(#paint6_linear)"/>
<path d="M295.45 116.64C295.45 116.64 296.84 126.23 295.45 127.64C294.06 129.05 298.68 130.25 299.18 132.78C299.68 135.31 303.04 137.09 307.85 135.72C309.197 135.331 310.635 135.398 311.94 135.91C313.246 136.421 314.346 137.349 315.07 138.55C315.07 138.55 319.48 136.67 321.69 134.13C321.69 134.13 318.55 122.9 318.38 118.89C318.21 114.88 303.68 107.09 295.45 116.64Z" fill="url(#paint7_linear)"/>
<path d="M293.39 115.57C294.14 115.57 326.32 123.72 326.32 123.72C326.32 123.72 322.62 109.72 323.83 103.22C325.04 96.72 304.83 94.35 302.83 95.22C300.83 96.09 299.38 103.02 295.73 104.73C292.08 106.44 285.28 113.89 285.28 113.89L293.39 115.57Z" fill="#A500FF"/>
<path opacity="0.25" d="M326.33 123.72C326.33 123.72 294.15 115.57 293.4 115.57L285.26 113.86L285.45 113.65L288.38 114.27C289.13 114.27 321.31 122.42 321.31 122.42C321.31 122.42 317.61 108.42 318.82 101.92C319.32 99.24 316.17 97.27 312.16 95.92C318.16 97.1 324.54 99.47 323.84 103.22C322.63 109.71 326.33 123.72 326.33 123.72Z" fill="url(#paint8_linear)"/>
<path d="M285.26 113.86C285.26 113.86 281.9 115.25 295.66 118.29C295.66 118.29 294.96 116.36 295.92 116.13L285.26 113.86Z" fill="#A500FF"/>
<path d="M326.33 123.72C326.33 123.72 327.76 124.97 324.39 125.28C322.757 125.5 321.102 125.5 319.47 125.28L318.76 121.8L326.33 123.72Z" fill="#A500FF"/>
<path d="M285.26 113.86C285.26 113.86 281.9 115.25 295.66 118.29C295.66 118.29 294.96 116.36 295.92 116.13L285.26 113.86Z" fill="url(#paint9_linear)"/>
<path d="M326.33 123.72C326.33 123.72 327.76 124.97 324.39 125.28C322.757 125.5 321.102 125.5 319.47 125.28L318.76 121.8L326.33 123.72Z" fill="url(#paint10_linear)"/>
<path d="M311.06 119.87L311.38 123.94C311.38 123.94 312.61 120.73 314.38 121.8C316.15 122.87 312.73 127.55 312.73 127.55L317.31 130.01L318.41 129.38L320.15 130.01L320.79 129.38L321.34 128.32C321.34 128.32 319.43 124.63 319.64 123.72C319.766 123.181 319.843 122.633 319.87 122.08L311.06 119.87Z" fill="#232E30"/>
<path d="M321.69 134.08C321.69 134.08 307.06 140.63 305.69 144.15C304.32 147.67 303.27 180.37 303.27 180.37L353 179.26C353 179.26 347.93 140.58 321.69 134.08Z" fill="#A500FF"/>
<path d="M323.84 136.7L315.45 141.78C315.45 141.78 306.7 156.98 305.8 160.52C304.9 164.06 304.61 178.13 304.61 178.13L301.69 172.3C301.69 172.3 303.15 158.43 304.9 154.61C307.09 149.939 309.722 145.489 312.76 141.32C315.07 138.5 317.11 136.04 317.11 136.04L322.7 132.37L324.57 134.95L323.84 136.7Z" fill="#A500FF"/>
<path opacity="0.25" d="M323.84 136.7L315.45 141.78C315.45 141.78 306.7 156.98 305.8 160.52C304.9 164.06 304.61 178.13 304.61 178.13L301.69 172.3C301.69 172.3 303.15 158.43 304.9 154.61C307.09 149.939 309.722 145.489 312.76 141.32C315.07 138.5 317.11 136.04 317.11 136.04L322.7 132.37L324.57 134.95L323.84 136.7Z" fill="url(#paint11_linear)"/>
<path d="M323.06 141.78C323.06 141.78 312.17 156.31 311.57 163.12C310.97 169.93 300.31 172.73 300.31 172.73L280.63 160.87L273.52 169.93L284.46 179.26H318.39C318.39 179.26 332.01 164.88 332.56 160.52C333.11 156.16 334.67 144.21 323.06 141.78Z" fill="#A500FF"/>
<path opacity="0.25" d="M332.55 160.52C332 164.88 326.33 178.52 326.33 178.52L284.46 179.3L273.52 170.01L275.06 168.01L280.63 160.91L300.31 172.77C300.31 172.77 310.96 169.97 311.57 163.16C312.18 156.35 323.06 141.82 323.06 141.82C328.26 142.91 330.81 145.91 332 149.27C333.47 153.39 332.86 158.11 332.55 160.52Z" fill="url(#paint12_linear)"/>
<path d="M331.72 156.64C331.16 161 312.72 178.93 312.72 178.93L289.33 179.23L275.07 167.94L280.64 160.84L300.32 172.7C300.32 172.7 310.97 169.9 311.58 163.09C312.19 156.28 323.07 141.75 323.07 141.75C328.27 142.84 330.82 145.84 332.01 149.2C332.188 151.683 332.091 154.178 331.72 156.64Z" fill="#A500FF"/>
<path d="M279.33 161.64C279.33 161.64 274.41 156.21 273.52 152.98C272.63 149.75 267.28 149.16 266.94 148.74C266.6 148.32 259.94 148.23 259.94 148.23C259.94 148.23 259.17 148.65 259.01 150.78C258.85 152.91 260.28 157.71 262.66 160.57C265.04 163.43 269.96 163.68 270.21 163.68C270.46 163.68 274.68 168.45 274.68 168.45C274.68 168.45 280.61 164.9 279.33 161.64Z" fill="url(#paint13_linear)"/>
<path d="M264.47 148.33C264.47 148.33 256 125.28 213.3 115.01C170.6 104.74 143.94 116.11 143.94 116.11C143.94 116.11 181.94 107.64 220.08 118.76C253.51 128.5 261.47 148.27 261.47 148.27L264.47 148.33Z" fill="#A500FF"/>
<path d="M143.94 116.07L145.57 254.32H146.92L144.54 115.95C144.54 115.95 144.39 115.52 143.94 116.07Z" fill="#A500FF"/>
<path opacity="0.25" d="M336.36 178.48L337.78 178.6L305.18 179.26L305.11 179.11L336.36 178.48Z" fill="url(#paint14_linear)"/>
<path opacity="0.25" d="M353 179.26L345.59 178.64C345.05 174.9 341.41 154.8 325.11 139.14L318 135.35C319.5 134.245 321.074 133.242 322.71 132.35L324.58 134.93L332.4 139.14C350.45 156.48 353 179.26 353 179.26Z" fill="url(#paint15_linear)"/>
<path opacity="0.25" d="M345.65 179.26L337.78 178.6L343.68 178.48L345.56 178.64C345.63 179.01 345.65 179.26 345.65 179.26Z" fill="url(#paint16_linear)"/>
<path d="M489.91 185.06C489.91 185.06 489.17 187.48 487.91 190.88C485.17 198.18 479.91 210.01 474.11 212.28C474.11 212.28 345.98 253.04 247.21 224.99C247.21 224.99 229.21 212.26 221.53 200.81C220.221 198.958 219.209 196.913 218.53 194.75C218.53 194.75 307.19 220.89 440.39 198.96L489.91 185.06Z" fill="#A500FF"/>
<path opacity="0.25" d="M487.89 190.88C485.15 198.18 479.89 210.01 474.09 212.28C474.09 212.28 345.96 253.04 247.19 224.99C247.19 224.99 229.19 212.26 221.51 200.81C238.03 205.05 321.51 223.81 440.39 204.22L487.89 190.88Z" fill="url(#paint17_linear)"/>
<path d="M311.67 125.28C311.67 125.28 312.6 125.1 312.57 124.38C312.54 123.66 313.22 122.16 313.67 122.46C314.12 122.76 313.96 125.38 312.5 126.33C311.04 127.28 311.67 125.28 311.67 125.28Z" fill="url(#paint18_linear)"/>
<path d="M540.92 221.14C537.68 221.26 534.71 222.91 531.92 224.59C529.13 226.27 526.31 228.06 523.09 228.5C516.92 229.36 511.09 225.09 504.83 225.22C498.98 225.35 493.71 229.34 487.83 229.3C484.54 229.3 481.35 227.97 478.06 228.08C473.92 228.21 469.92 230.58 465.83 229.85C464.45 229.61 463.15 229.01 461.78 228.71C455.61 227.35 449.86 231.95 443.78 233.57C438.58 234.94 433.07 234.12 427.69 234.42C416.25 235.05 405.74 240.72 394.56 243.21C386.51 245.01 378.21 245.15 369.97 245.35C368.808 245.254 367.648 245.546 366.67 246.18C365.21 247.38 365.54 249.87 366.87 251.18C368.321 252.419 370.153 253.124 372.06 253.18C381.57 254.18 390.91 250.8 400.26 248.79C404.64 247.84 409.07 247.19 413.5 246.55L427.97 244.45C444.26 242.11 460.78 239.79 477.12 241.71C482.92 242.39 488.69 243.6 494.53 243.54C504.23 243.43 513.69 239.8 523.39 240.16C527.01 240.3 530.61 240.99 534.23 240.95C537.85 240.91 541.67 239.95 544.23 237.43C549.15 232.51 550.57 220.78 540.92 221.14Z" fill="#A500FF"/>
<path opacity="0.25" d="M544.25 237.39C541.68 239.95 537.86 240.86 534.25 240.91C530.64 240.96 527.03 240.26 523.41 240.12C516.12 239.85 508.96 241.84 501.73 242.88C499.353 243.246 496.954 243.453 494.55 243.5C488.71 243.56 482.94 242.35 477.14 241.67C460.8 239.75 444.28 242.07 427.99 244.41L413.52 246.51L412.91 246.6C408.69 247.21 404.48 247.85 400.31 248.75C390.96 250.75 381.62 254.14 372.11 253.14C370.856 253.048 369.627 252.751 368.47 252.26C367.898 251.991 367.374 251.63 366.92 251.19C365.59 249.87 365.26 247.38 366.72 246.19C367.698 245.556 368.858 245.264 370.02 245.36C378.26 245.16 386.56 245.02 394.61 243.22C404.14 241.1 413.18 236.67 422.72 235.02C424.373 234.723 426.043 234.526 427.72 234.43C428.72 234.37 429.72 234.36 430.72 234.36C434.205 234.509 437.696 234.422 441.17 234.1C442.066 233.982 442.955 233.808 443.83 233.58C449.95 231.96 455.7 227.36 461.83 228.72C463.2 229.02 464.5 229.62 465.88 229.86C469.97 230.59 473.97 228.22 478.11 228.09C481.4 227.98 484.59 229.29 487.88 229.31C489.044 229.307 490.205 229.173 491.34 228.91C493.849 228.229 496.322 227.421 498.75 226.49C500.707 225.762 502.764 225.337 504.85 225.23C511.08 225.1 516.94 229.37 523.11 228.51C526.33 228.07 529.17 226.28 531.94 224.6C534.71 222.92 537.68 221.27 540.94 221.15C550.57 220.78 549.15 232.51 544.25 237.39Z" fill="url(#paint19_linear)"/>
<path opacity="0.25" d="M501.87 242.74L501.72 242.88C499.343 243.246 496.944 243.453 494.54 243.5C488.7 243.56 482.93 242.35 477.13 241.67C460.79 239.75 444.27 242.07 427.98 244.41L413.51 246.51L412.9 246.6C403.79 247.16 394.68 248.46 385.64 249.76C380.81 250.46 375.99 251.15 371.17 251.86L368.46 252.26C367.888 251.991 367.364 251.63 366.91 251.19C365.58 249.87 365.25 247.38 366.71 246.19C367.688 245.556 368.848 245.264 370.01 245.36C378.25 245.16 386.55 245.02 394.6 243.22C404.13 241.1 413.17 236.67 422.71 235.02C422.983 235.099 423.26 235.162 423.54 235.21C425.94 235.64 428.32 235 430.71 234.36C432.356 233.861 434.054 233.549 435.77 233.43C437.586 233.448 439.395 233.673 441.16 234.1C442.596 234.421 444.059 234.608 445.53 234.66C451.38 234.66 456.66 230.66 462.53 230.58C468.75 230.44 474.62 234.71 480.79 233.86C484 233.42 486.79 231.63 489.61 229.95C490.19 229.6 490.79 229.24 491.39 228.95C493.562 227.58 496.031 226.75 498.59 226.53H498.8C508.18 226.29 506.74 237.89 501.87 242.74Z" fill="white"/>
<path d="M281.67 176.64L351.96 173.94L352.96 179.24L335.63 180.16L315 180.42H301L284.41 179.29L281.67 176.64Z" fill="url(#paint20_linear)"/>
</g>
<path d="M681 232.896C672.903 250.289 639.821 274.431 521.887 280.958C342.03 290.911 71.1038 284.713 0 236.928C2.73466 236.756 5.51537 236.692 8.29086 236.735C16.5655 236.849 25.5689 237.353 32.5805 235.799C36.6773 234.886 39.4625 233.378 43.5432 232.454C51.5264 230.644 61.9385 231.506 71.3143 232.051C121.043 234.954 173.331 227.168 221.732 232.113C228.679 232.828 235.447 233.815 242.621 234.143C250.604 234.535 258.701 234.143 266.684 233.764C311.927 231.631 358.742 230.145 402.544 234.62C428.016 237.217 456.467 241.697 479.315 236.985C484.529 235.907 488.95 234.416 493.889 233.208C504.074 230.729 516.252 229.493 528.17 228.302C553.56 225.801 581.963 222.382 608.73 223.096C629.069 223.663 650.023 228.427 668.888 231.036C672.887 231.597 676.984 232.21 681 232.896Z" fill="#A500FF"/>
<path opacity="0.25" d="M666 236.094C650.248 263.324 609.51 252.652 512.883 261.983C395.286 261.983 157.669 270.918 0 235.816C45.5173 237.533 92.6603 227.12 136.698 234.952C143.672 236.203 150.467 237.93 157.669 238.506C165.683 239.191 173.811 238.506 181.826 237.841C227.245 234.108 274.242 231.508 318.215 239.34C343.786 243.887 372.348 251.729 395.286 243.48C400.52 241.593 404.958 238.983 409.916 236.868C420.141 232.53 432.366 230.366 444.331 228.281C469.82 223.904 498.334 217.918 525.205 219.168C545.623 220.161 566.658 228.5 585.597 233.066C587.97 233.632 630.919 234.903 666 236.094Z" fill="url(#paint21_linear)"/>
</g>
<defs>
<linearGradient id="paint0_linear" x1="498.81" y1="212.28" x2="507.3" y2="212.28" gradientUnits="userSpaceOnUse">
<stop stop-opacity="0"/>
<stop offset="0.91" stop-opacity="0.8"/>
<stop offset="1"/>
</linearGradient>
<linearGradient id="paint1_linear" x1="28706.6" y1="-9648.68" x2="22169.5" y2="-6698.71" gradientUnits="userSpaceOnUse">
<stop stop-opacity="0"/>
<stop offset="0.91" stop-opacity="0.8"/>
<stop offset="1"/>
</linearGradient>
<linearGradient id="paint2_linear" x1="24746.7" y1="-5805.77" x2="23099" y2="-6014.87" gradientUnits="userSpaceOnUse">
<stop stop-opacity="0"/>
<stop offset="0.91" stop-opacity="0.8"/>
<stop offset="1"/>
</linearGradient>
<linearGradient id="paint3_linear" x1="6387.06" y1="4811.93" x2="6353.38" y2="4544.48" gradientUnits="userSpaceOnUse">
<stop stop-opacity="0"/>
<stop offset="0.91" stop-opacity="0.8"/>
<stop offset="1"/>
</linearGradient>
<linearGradient id="paint4_linear" x1="274.1" y1="149.61" x2="265.72" y2="165.38" gradientUnits="userSpaceOnUse">
<stop stop-color="#ECC4D7"/>
<stop offset="0.42" stop-color="#EFD4D1"/>
<stop offset="1" stop-color="#F2EAC9"/>
</linearGradient>
<linearGradient id="paint5_linear" x1="25756.9" y1="-8203.93" x2="108023" y2="-8203.93" gradientUnits="userSpaceOnUse">
<stop stop-opacity="0"/>
<stop offset="0.91" stop-opacity="0.8"/>
<stop offset="1"/>
</linearGradient>
<linearGradient id="paint6_linear" x1="71230.7" y1="-6055.66" x2="71232.8" y2="-4563.73" gradientUnits="userSpaceOnUse">
<stop stop-opacity="0"/>
<stop offset="0.91" stop-opacity="0.8"/>
<stop offset="1"/>
</linearGradient>
<linearGradient id="paint7_linear" x1="5400.08" y1="5003.58" x2="5131.45" y2="4906.5" gradientUnits="userSpaceOnUse">
<stop stop-color="#ECC4D7"/>
<stop offset="0.42" stop-color="#EFD4D1"/>
<stop offset="1" stop-color="#F2EAC9"/>
</linearGradient>
<linearGradient id="paint8_linear" x1="7056.86" y1="-5314.47" x2="8743.61" y2="-5314.47" gradientUnits="userSpaceOnUse">
<stop stop-opacity="0"/>
<stop offset="0.91" stop-opacity="0.8"/>
<stop offset="1"/>
</linearGradient>
<linearGradient id="paint9_linear" x1="2173.65" y1="-673.047" x2="2168.14" y2="-639.525" gradientUnits="userSpaceOnUse">
<stop stop-opacity="0"/>
<stop offset="0.91" stop-opacity="0.8"/>
<stop offset="1"/>
</linearGradient>
<linearGradient id="paint10_linear" x1="1911.61" y1="-499.978" x2="1911.61" y2="-475.338" gradientUnits="userSpaceOnUse">
<stop stop-opacity="0"/>
<stop offset="0.91" stop-opacity="0.8"/>
<stop offset="1"/>
</linearGradient>
<linearGradient id="paint11_linear" x1="4425.74" y1="-7772.69" x2="5088.86" y2="-7259.69" gradientUnits="userSpaceOnUse">
<stop stop-opacity="0"/>
<stop offset="0.91" stop-opacity="0.8"/>
<stop offset="1"/>
</linearGradient>
<linearGradient id="paint12_linear" x1="10437" y1="-6186.78" x2="11366.5" y2="-3548.52" gradientUnits="userSpaceOnUse">
<stop stop-opacity="0"/>
<stop offset="0.91" stop-opacity="0.8"/>
<stop offset="1"/>
</linearGradient>
<linearGradient id="paint13_linear" x1="3194.43" y1="3164.25" x2="3378.81" y2="3219.89" gradientUnits="userSpaceOnUse">
<stop stop-color="#ECC4D7"/>
<stop offset="0.42" stop-color="#EFD4D1"/>
<stop offset="1" stop-color="#F2EAC9"/>
</linearGradient>
<linearGradient id="paint14_linear" x1="6352.65" y1="310.409" x2="7419.98" y2="310.409" gradientUnits="userSpaceOnUse">
<stop stop-opacity="0"/>
<stop offset="0.91" stop-opacity="0.8"/>
<stop offset="1"/>
</linearGradient>
<linearGradient id="paint15_linear" x1="7234.39" y1="-6992.96" x2="8458.69" y2="-6992.96" gradientUnits="userSpaceOnUse">
<stop stop-opacity="0"/>
<stop offset="0.91" stop-opacity="0.8"/>
<stop offset="1"/>
</linearGradient>
<linearGradient id="paint16_linear" x1="2049.03" y1="28.9496" x2="2110.96" y2="28.9496" gradientUnits="userSpaceOnUse">
<stop stop-opacity="0"/>
<stop offset="0.91" stop-opacity="0.8"/>
<stop offset="1"/>
</linearGradient>
<linearGradient id="paint17_linear" x1="62141.9" y1="-4310.53" x2="62096" y2="-2499.94" gradientUnits="userSpaceOnUse">
<stop stop-opacity="0"/>
<stop offset="0.91" stop-opacity="0.8"/>
<stop offset="1"/>
</linearGradient>
<linearGradient id="paint18_linear" x1="769.335" y1="-580.864" x2="749.48" y2="-580.624" gradientUnits="userSpaceOnUse">
<stop stop-opacity="0"/>
<stop offset="0.91" stop-opacity="0.8"/>
<stop offset="1"/>
</linearGradient>
<linearGradient id="paint19_linear" x1="61288.1" y1="-2533.48" x2="61318.2" y2="-1755.81" gradientUnits="userSpaceOnUse">
<stop stop-opacity="0"/>
<stop offset="0.91" stop-opacity="0.8"/>
<stop offset="1"/>
</linearGradient>
<linearGradient id="paint20_linear" x1="14319.8" y1="-724.475" x2="14319.8" y2="-656.686" gradientUnits="userSpaceOnUse">
<stop stop-opacity="0"/>
<stop offset="0.91" stop-opacity="0.8"/>
<stop offset="1"/>
</linearGradient>
<linearGradient id="paint21_linear" x1="143977" y1="-8886.59" x2="144018" y2="6961.59" gradientUnits="userSpaceOnUse">
<stop stop-opacity="0"/>
<stop offset="0.91" stop-opacity="0.8"/>
<stop offset="1"/>
</linearGradient>
<clipPath id="clip0">
<rect width="428.72" height="349.98" fill="white" transform="translate(120)"/>
</clipPath>
</defs>
</svg>
