<svg width="256" height="256" viewBox="0 0 256 256" fill="none" xmlns="http://www.w3.org/2000/svg">
<circle cx="128" cy="128" r="128" fill="#0F8DFF"/>
<g clip-path="url(#clip0)">
<path d="M212.5 183L248.44 243H176.56L212.5 183Z" fill="#0F8DFF"/>
</g>
<g clip-path="url(#clip1)">
<path d="M124.795 59.7831L107.554 62.8232C105.172 63.2433 103.56 65.3785 103.951 67.5963C104.342 69.8142 106.587 71.2694 108.969 70.8494L126.211 67.8093C128.593 67.3892 130.204 65.254 129.813 63.0361C129.422 60.8183 127.178 59.3631 124.795 59.7831Z" fill="white"/>
<path d="M146.367 42.1868L82.1571 53.5086C73.307 55.0692 67.3747 63.5414 68.9352 72.3915L91.5789 200.81C93.1394 209.661 101.612 215.593 110.462 214.032L174.671 202.71C183.521 201.15 189.454 192.678 187.893 183.828L165.249 55.4087C163.689 46.5586 155.217 40.6263 146.367 42.1868ZM179.867 185.243C180.649 189.676 177.689 193.903 173.256 194.684L109.047 206.006C104.613 206.788 100.387 203.828 99.6051 199.395L76.9614 70.9762C76.1797 66.543 79.1391 62.3165 83.5723 61.5348L147.782 50.213C152.215 49.4313 156.442 52.3907 157.223 56.8239L179.867 185.243Z" fill="white"/>
<rect x="74.6927" y="101.574" width="75" height="47" transform="rotate(43 74.6927 101.574)" fill="#0F8DFF"/>
<rect x="132.639" y="108.724" width="75" height="47" transform="rotate(-43 132.639 108.724)" fill="#0F8DFF"/>
</g>
<path d="M195.313 100.519L119.602 176.224C113.995 181.832 104.901 181.832 99.289 176.224L60.2064 137.139C54.5978 131.531 54.5978 122.436 60.2064 116.827C65.8161 111.217 74.91 111.217 80.5172 116.825L109.448 145.757L174.999 80.2057C180.609 74.596 189.703 74.6002 195.311 80.2057C200.918 85.8143 200.918 94.9068 195.313 100.519Z" fill="white"/>
<path d="M195.313 100.519L119.602 176.224C113.995 181.832 104.901 181.832 99.289 176.224L60.2064 137.139C54.5978 131.531 54.5978 122.436 60.2064 116.827C65.8161 111.217 74.91 111.217 80.5172 116.825L109.448 145.757L174.999 80.2057C180.609 74.596 189.703 74.6002 195.311 80.2057C200.918 85.8143 200.918 94.9068 195.313 100.519Z" stroke="#0F8DFF"/>
<defs>
<clipPath id="clip0">
<rect width="83" height="65" fill="white" transform="translate(171 183)"/>
</clipPath>
<clipPath id="clip1">
<rect width="163" height="163" fill="white" transform="translate(34 62) rotate(-10)"/>
</clipPath>
</defs>
</svg>
