<svg width="28" height="28" viewBox="0 0 28 28" fill="none" xmlns="http://www.w3.org/2000/svg">
<path d="M17.1846 18.9106C16.4463 19.4848 15.3965 19.4355 14.7237 18.7629L9.24411 13.2832C8.5714 12.6106 8.52224 11.5441 9.0964 10.8222L2.15656 3.86597C-0.862247 7.34409 -0.698129 12.627 2.59958 15.9246L12.0823 25.4074C15.4443 28.7693 20.786 28.8027 24.1409 25.8504L17.1846 18.9106Z" fill="white"/>
<path d="M10.819 5.58862L7.34086 2.09409C6.42211 1.17534 4.79789 1.17534 3.86274 2.09409L3.28857 2.68472L10.2448 9.64097L10.819 9.06675C11.2948 8.59091 11.5409 7.98388 11.5409 7.32769C11.5409 6.67138 11.2948 6.04794 10.819 5.58862Z" fill="white"/>
<path d="M25.9128 20.6657L22.4183 17.1876C21.4995 16.2526 19.8753 16.2526 18.9401 17.1876L18.366 17.7619L25.3222 24.7181L25.9128 24.144C26.3723 23.6845 26.6183 23.0611 26.6183 22.4049C26.6183 21.7486 26.3723 21.1252 25.9128 20.6657Z" fill="white"/>
<path d="M14.0509 0C12.9696 0 12.9652 1.62969 14.0509 1.62969C20.8361 1.62969 26.3666 7.16013 26.3666 13.9453C26.3666 15.0266 27.9963 15.0311 27.9963 13.9453C27.9963 6.2557 21.7406 0 14.0509 0Z" fill="white"/>
<path d="M14.0509 3.28125C12.9696 3.28125 12.9652 4.91094 14.0509 4.91094C19.0265 4.91094 23.0853 8.96979 23.0853 13.9453C23.0853 15.0266 24.715 15.0311 24.715 13.9453C24.715 8.06531 19.9309 3.28125 14.0509 3.28125Z" fill="white"/>
<path d="M14.0509 6.5625C12.9696 6.5625 12.9652 8.19219 14.0509 8.19219C17.2169 8.19219 19.8041 10.7794 19.8041 13.9453C19.8041 15.0266 21.4338 15.0311 21.4338 13.9453C21.4338 9.87421 18.122 6.5625 14.0509 6.5625Z" fill="white"/>
<path d="M14.0509 9.84375C12.9696 9.84375 12.9652 11.4844 14.0509 11.4844C15.408 11.4844 16.5119 12.5883 16.5119 13.9453C16.5119 15.0266 18.1525 15.0311 18.1525 13.9453C18.1525 11.6838 16.3124 9.84375 14.0509 9.84375Z" fill="white"/>
</svg>
