<svg width="190" height="58" viewBox="0 0 190 58" fill="none" xmlns="http://www.w3.org/2000/svg">
<rect width="190" height="58" rx="29" fill="#2A94F4"/>
<path d="M68.323 31.928C68.3977 31.928 68.463 31.9583 68.519 32.019L69.058 32.6C68.6473 33.076 68.148 33.447 67.56 33.713C66.9767 33.979 66.2697 34.112 65.439 34.112C64.7203 34.112 64.067 33.9883 63.479 33.741C62.891 33.489 62.3893 33.139 61.974 32.691C61.5587 32.2383 61.2367 31.697 61.008 31.067C60.7793 30.437 60.665 29.744 60.665 28.988C60.665 28.232 60.784 27.539 61.022 26.909C61.26 26.279 61.5937 25.7377 62.023 25.285C62.457 24.8323 62.975 24.4823 63.577 24.235C64.179 23.983 64.844 23.857 65.572 23.857C66.286 23.857 66.916 23.9713 67.462 24.2C68.008 24.4287 68.4887 24.739 68.904 25.131L68.456 25.754C68.428 25.8007 68.3907 25.8403 68.344 25.873C68.302 25.901 68.2437 25.915 68.169 25.915C68.085 25.915 67.9823 25.8707 67.861 25.782C67.7397 25.6887 67.581 25.586 67.385 25.474C67.189 25.362 66.944 25.2617 66.65 25.173C66.356 25.0797 65.9943 25.033 65.565 25.033C65.047 25.033 64.5733 25.124 64.144 25.306C63.7147 25.4833 63.3437 25.7423 63.031 26.083C62.723 26.4237 62.4827 26.839 62.31 27.329C62.1373 27.819 62.051 28.372 62.051 28.988C62.051 29.6133 62.1397 30.171 62.317 30.661C62.499 31.151 62.744 31.5663 63.052 31.907C63.3647 32.243 63.731 32.4997 64.151 32.677C64.5757 32.8543 65.033 32.943 65.523 32.943C65.8217 32.943 66.09 32.9267 66.328 32.894C66.5707 32.8567 66.7923 32.8007 66.993 32.726C67.1983 32.6513 67.3873 32.558 67.56 32.446C67.7373 32.3293 67.9123 32.1917 68.085 32.033C68.1643 31.963 68.2437 31.928 68.323 31.928ZM79.7092 28.988C79.7092 29.7393 79.5902 30.43 79.3522 31.06C79.1142 31.6853 78.7782 32.2243 78.3442 32.677C77.9102 33.1297 77.3875 33.482 76.7762 33.734C76.1695 33.9813 75.4975 34.105 74.7602 34.105C74.0228 34.105 73.3508 33.9813 72.7442 33.734C72.1375 33.482 71.6172 33.1297 71.1832 32.677C70.7492 32.2243 70.4132 31.6853 70.1752 31.06C69.9372 30.43 69.8182 29.7393 69.8182 28.988C69.8182 28.2367 69.9372 27.5483 70.1752 26.923C70.4132 26.293 70.7492 25.7517 71.1832 25.299C71.6172 24.8417 72.1375 24.487 72.7442 24.235C73.3508 23.983 74.0228 23.857 74.7602 23.857C75.4975 23.857 76.1695 23.983 76.7762 24.235C77.3875 24.487 77.9102 24.8417 78.3442 25.299C78.7782 25.7517 79.1142 26.293 79.3522 26.923C79.5902 27.5483 79.7092 28.2367 79.7092 28.988ZM78.3162 28.988C78.3162 28.372 78.2322 27.819 78.0642 27.329C77.8962 26.839 77.6582 26.426 77.3502 26.09C77.0422 25.7493 76.6688 25.488 76.2302 25.306C75.7915 25.124 75.3015 25.033 74.7602 25.033C74.2235 25.033 73.7358 25.124 73.2972 25.306C72.8585 25.488 72.4828 25.7493 72.1702 26.09C71.8622 26.426 71.6242 26.839 71.4562 27.329C71.2882 27.819 71.2042 28.372 71.2042 28.988C71.2042 29.604 71.2882 30.157 71.4562 30.647C71.6242 31.1323 71.8622 31.5453 72.1702 31.886C72.4828 32.222 72.8585 32.481 73.2972 32.663C73.7358 32.8403 74.2235 32.929 74.7602 32.929C75.3015 32.929 75.7915 32.8403 76.2302 32.663C76.6688 32.481 77.0422 32.222 77.3502 31.886C77.6582 31.5453 77.8962 31.1323 78.0642 30.647C78.2322 30.157 78.3162 29.604 78.3162 28.988ZM89.7791 23.969V34H89.1001C88.9928 34 88.9018 33.9813 88.8271 33.944C88.7571 33.9067 88.6871 33.8437 88.6171 33.755L82.8141 26.195C82.8234 26.3117 82.8304 26.426 82.8351 26.538C82.8398 26.65 82.8421 26.755 82.8421 26.853V34H81.6521V23.969H82.3521C82.4128 23.969 82.4641 23.9737 82.5061 23.983C82.5481 23.9877 82.5854 23.9993 82.6181 24.018C82.6508 24.032 82.6834 24.0553 82.7161 24.088C82.7488 24.116 82.7838 24.1533 82.8211 24.2L88.6241 31.753C88.6148 31.6317 88.6054 31.515 88.5961 31.403C88.5914 31.2863 88.5891 31.1767 88.5891 31.074V23.969H89.7791ZM99.1265 25.11H95.8785V34H94.5275V25.11H91.2725V23.969H99.1265V25.11ZM104.958 30.276L103.383 26.195C103.336 26.0737 103.287 25.9337 103.236 25.775C103.184 25.6117 103.135 25.439 103.089 25.257C102.991 25.635 102.89 25.95 102.788 26.202L101.213 30.276H104.958ZM107.786 34H106.736C106.614 34 106.516 33.9697 106.442 33.909C106.367 33.8483 106.311 33.7713 106.274 33.678L105.336 31.256H100.835L99.8966 33.678C99.8686 33.762 99.8149 33.8367 99.7356 33.902C99.6563 33.9673 99.5583 34 99.4416 34H98.3916L102.403 23.969H103.775L107.786 34ZM115.887 31.928C115.962 31.928 116.027 31.9583 116.083 32.019L116.622 32.6C116.212 33.076 115.712 33.447 115.124 33.713C114.541 33.979 113.834 34.112 113.003 34.112C112.285 34.112 111.631 33.9883 111.043 33.741C110.455 33.489 109.954 33.139 109.538 32.691C109.123 32.2383 108.801 31.697 108.572 31.067C108.344 30.437 108.229 29.744 108.229 28.988C108.229 28.232 108.348 27.539 108.586 26.909C108.824 26.279 109.158 25.7377 109.587 25.285C110.021 24.8323 110.539 24.4823 111.141 24.235C111.743 23.983 112.408 23.857 113.136 23.857C113.85 23.857 114.48 23.9713 115.026 24.2C115.572 24.4287 116.053 24.739 116.468 25.131L116.02 25.754C115.992 25.8007 115.955 25.8403 115.908 25.873C115.866 25.901 115.808 25.915 115.733 25.915C115.649 25.915 115.547 25.8707 115.425 25.782C115.304 25.6887 115.145 25.586 114.949 25.474C114.753 25.362 114.508 25.2617 114.214 25.173C113.92 25.0797 113.559 25.033 113.129 25.033C112.611 25.033 112.138 25.124 111.708 25.306C111.279 25.4833 110.908 25.7423 110.595 26.083C110.287 26.4237 110.047 26.839 109.874 27.329C109.702 27.819 109.615 28.372 109.615 28.988C109.615 29.6133 109.704 30.171 109.881 30.661C110.063 31.151 110.308 31.5663 110.616 31.907C110.929 32.243 111.295 32.4997 111.715 32.677C112.14 32.8543 112.597 32.943 113.087 32.943C113.386 32.943 113.654 32.9267 113.892 32.894C114.135 32.8567 114.357 32.8007 114.557 32.726C114.763 32.6513 114.952 32.558 115.124 32.446C115.302 32.3293 115.477 32.1917 115.649 32.033C115.729 31.963 115.808 31.928 115.887 31.928ZM124.98 25.11H121.732V34H120.381V25.11H117.126V23.969H124.98V25.11ZM130.811 30.276L129.236 26.195C129.189 26.0737 129.14 25.9337 129.089 25.775C129.038 25.6117 128.989 25.439 128.942 25.257C128.844 25.635 128.744 25.95 128.641 26.202L127.066 30.276H130.811ZM133.639 34H132.589C132.468 34 132.37 33.9697 132.295 33.909C132.22 33.8483 132.164 33.7713 132.127 33.678L131.189 31.256H126.688L125.75 33.678C125.722 33.762 125.668 33.8367 125.589 33.902C125.51 33.9673 125.412 34 125.295 34H124.245L128.256 23.969H129.628L133.639 34ZM143.086 23.969V34H142.407C142.299 34 142.208 33.9813 142.134 33.944C142.064 33.9067 141.994 33.8437 141.924 33.755L136.121 26.195C136.13 26.3117 136.137 26.426 136.142 26.538C136.146 26.65 136.149 26.755 136.149 26.853V34H134.959V23.969H135.659C135.719 23.969 135.771 23.9737 135.813 23.983C135.855 23.9877 135.892 23.9993 135.925 24.018C135.957 24.032 135.99 24.0553 136.023 24.088C136.055 24.116 136.09 24.1533 136.128 24.2L141.931 31.753C141.921 31.6317 141.912 31.515 141.903 31.403C141.898 31.2863 141.896 31.1767 141.896 31.074V23.969H143.086ZM154.918 28.988C154.918 29.7393 154.799 30.43 154.561 31.06C154.323 31.6853 153.987 32.2243 153.553 32.677C153.119 33.1297 152.596 33.482 151.985 33.734C151.378 33.9813 150.706 34.105 149.969 34.105C149.232 34.105 148.56 33.9813 147.953 33.734C147.346 33.482 146.826 33.1297 146.392 32.677C145.958 32.2243 145.622 31.6853 145.384 31.06C145.146 30.43 145.027 29.7393 145.027 28.988C145.027 28.2367 145.146 27.5483 145.384 26.923C145.622 26.293 145.958 25.7517 146.392 25.299C146.826 24.8417 147.346 24.487 147.953 24.235C148.56 23.983 149.232 23.857 149.969 23.857C150.706 23.857 151.378 23.983 151.985 24.235C152.596 24.487 153.119 24.8417 153.553 25.299C153.987 25.7517 154.323 26.293 154.561 26.923C154.799 27.5483 154.918 28.2367 154.918 28.988ZM153.525 28.988C153.525 28.372 153.441 27.819 153.273 27.329C153.105 26.839 152.867 26.426 152.559 26.09C152.251 25.7493 151.878 25.488 151.439 25.306C151 25.124 150.51 25.033 149.969 25.033C149.432 25.033 148.945 25.124 148.506 25.306C148.067 25.488 147.692 25.7493 147.379 26.09C147.071 26.426 146.833 26.839 146.665 27.329C146.497 27.819 146.413 28.372 146.413 28.988C146.413 29.604 146.497 30.157 146.665 30.647C146.833 31.1323 147.071 31.5453 147.379 31.886C147.692 32.222 148.067 32.481 148.506 32.663C148.945 32.8403 149.432 32.929 149.969 32.929C150.51 32.929 151 32.8403 151.439 32.663C151.878 32.481 152.251 32.222 152.559 31.886C152.867 31.5453 153.105 31.1323 153.273 30.647C153.441 30.157 153.525 29.604 153.525 28.988ZM161.992 25.537C161.95 25.607 161.903 25.6607 161.852 25.698C161.805 25.7307 161.747 25.747 161.677 25.747C161.598 25.747 161.504 25.7073 161.397 25.628C161.29 25.5487 161.154 25.4623 160.991 25.369C160.832 25.271 160.639 25.1823 160.41 25.103C160.186 25.0237 159.913 24.984 159.591 24.984C159.288 24.984 159.019 25.026 158.786 25.11C158.557 25.1893 158.364 25.299 158.205 25.439C158.051 25.579 157.934 25.7447 157.855 25.936C157.776 26.1227 157.736 26.3257 157.736 26.545C157.736 26.825 157.804 27.0583 157.939 27.245C158.079 27.427 158.261 27.5833 158.485 27.714C158.714 27.8447 158.97 27.959 159.255 28.057C159.544 28.1503 159.838 28.2483 160.137 28.351C160.44 28.4537 160.734 28.5703 161.019 28.701C161.308 28.827 161.565 28.988 161.789 29.184C162.018 29.38 162.2 29.6203 162.335 29.905C162.475 30.1897 162.545 30.5397 162.545 30.955C162.545 31.3937 162.47 31.8067 162.321 32.194C162.172 32.5767 161.952 32.9103 161.663 33.195C161.378 33.4797 161.026 33.7037 160.606 33.867C160.191 34.0303 159.717 34.112 159.185 34.112C158.532 34.112 157.939 33.9953 157.407 33.762C156.875 33.524 156.42 33.2043 156.042 32.803L156.434 32.159C156.471 32.1077 156.516 32.0657 156.567 32.033C156.623 31.9957 156.684 31.977 156.749 31.977C156.81 31.977 156.877 32.0027 156.952 32.054C157.031 32.1007 157.12 32.1613 157.218 32.236C157.316 32.3107 157.428 32.3923 157.554 32.481C157.68 32.5697 157.822 32.6513 157.981 32.726C158.144 32.8007 158.329 32.8637 158.534 32.915C158.739 32.9617 158.97 32.985 159.227 32.985C159.549 32.985 159.836 32.9407 160.088 32.852C160.34 32.7633 160.552 32.6397 160.725 32.481C160.902 32.3177 161.038 32.124 161.131 31.9C161.224 31.676 161.271 31.4263 161.271 31.151C161.271 30.8477 161.201 30.6003 161.061 30.409C160.926 30.213 160.746 30.0497 160.522 29.919C160.298 29.7883 160.041 29.6787 159.752 29.59C159.463 29.4967 159.169 29.4033 158.87 29.31C158.571 29.212 158.277 29.1 157.988 28.974C157.699 28.848 157.442 28.6847 157.218 28.484C156.994 28.2833 156.812 28.0337 156.672 27.735C156.537 27.4317 156.469 27.0583 156.469 26.615C156.469 26.2603 156.537 25.9173 156.672 25.586C156.812 25.2547 157.013 24.9607 157.274 24.704C157.54 24.4473 157.864 24.242 158.247 24.088C158.634 23.934 159.078 23.857 159.577 23.857C160.137 23.857 160.646 23.9457 161.103 24.123C161.565 24.3003 161.971 24.557 162.321 24.893L161.992 25.537Z" fill="white"/>
<g clip-path="url(#clip0)">
<path d="M45.0002 13H43.3335H32.6668H31.0002C28.9775 13 27.3335 14.644 27.3335 16.6667V41.3333C27.3335 43.356 28.9775 45 31.0002 45H45.0002C47.0228 45 48.6668 43.356 48.6668 41.3333V16.6667C48.6668 14.644 47.0228 13 45.0002 13ZM46.0002 41C46.0002 41.736 45.4028 42.3333 44.6668 42.3333H31.3335C30.5975 42.3333 30.0002 41.736 30.0002 41V17C30.0002 16.264 30.5975 15.6667 31.3335 15.6667H32.0002C32.7362 15.6667 33.3335 16.264 33.3335 17C33.3335 17.736 33.9308 18.3333 34.6668 18.3333H41.3335C42.0695 18.3333 42.6668 17.736 42.6668 17C42.6668 16.264 43.2642 15.6667 44.0002 15.6667H44.6668C45.4028 15.6667 46.0002 16.264 46.0002 17V41Z" fill="white"/>
<path d="M32.3335 26.852C31.7815 26.852 31.3335 26.404 31.3335 25.852V23.3333C31.3335 22.7813 31.7815 22.3333 32.3335 22.3333H34.8522C35.4042 22.3333 35.8522 22.7813 35.8522 23.3333C35.8522 23.8853 35.4042 24.3333 34.8522 24.3333H33.3335V25.852C33.3335 26.404 32.8855 26.852 32.3335 26.852Z" fill="white"/>
<path d="M43.6667 35.6667H39.8894C39.3374 35.6667 38.8894 35.2187 38.8894 34.6667C38.8894 34.1147 39.3374 33.6667 39.8894 33.6667H42.6667V32.148C42.6667 31.596 43.1147 31.148 43.6667 31.148C44.2187 31.148 44.6667 31.596 44.6667 32.148V34.6667C44.6667 35.2187 44.2187 35.6667 43.6667 35.6667Z" fill="white"/>
<path d="M43.6667 29.0373H40.2227C39.6707 29.0373 39.2227 28.5893 39.2227 28.0373V23.3333C39.2227 22.7813 39.6707 22.3333 40.2227 22.3333H43.6667C44.2187 22.3333 44.6667 22.7813 44.6667 23.3333V28.0373C44.6667 28.5893 44.2187 29.0373 43.6667 29.0373ZM41.2227 27.0373H42.6667V24.3333H41.2227V27.0373Z" fill="white"/>
<path d="M37.0375 35.6667H32.3335C31.7815 35.6667 31.3335 35.2187 31.3335 34.6667V31.2227C31.3335 30.6707 31.7815 30.2227 32.3335 30.2227H37.0375C37.5895 30.2227 38.0375 30.6707 38.0375 31.2227V34.6667C38.0375 35.2187 37.5895 35.6667 37.0375 35.6667ZM33.3335 33.6667H36.0375V32.2227H33.3335V33.6667Z" fill="white"/>
<path d="M36.0722 29.3707H32.3335C31.7815 29.3707 31.3335 28.9227 31.3335 28.3707C31.3335 27.8187 31.7815 27.3707 32.3335 27.3707H36.0722C36.6242 27.3707 37.0722 27.8187 37.0722 28.3707C37.0722 28.9227 36.6242 29.3707 36.0722 29.3707Z" fill="white"/>
<path d="M39.8894 33.148C39.3374 33.148 38.8894 32.7 38.8894 32.148V30.888C38.8894 30.336 39.3374 29.888 39.8894 29.888C40.4414 29.888 40.8894 30.336 40.8894 30.888V32.148C40.8894 32.7 40.4414 33.148 39.8894 33.148Z" fill="white"/>
<path d="M37.3706 26.852C36.8186 26.852 36.3706 26.404 36.3706 25.852V23.3333C36.3706 22.7813 36.8186 22.3333 37.3706 22.3333C37.9226 22.3333 38.3706 22.7813 38.3706 23.3333V25.852C38.3706 26.404 37.9226 26.852 37.3706 26.852Z" fill="white"/>
</g>
<defs>
<clipPath id="clip0">
<rect width="32" height="32" fill="white" transform="translate(22 13)"/>
</clipPath>
</defs>
</svg>
