<svg width="118" height="32" viewBox="0 0 118 32" fill="none" xmlns="http://www.w3.org/2000/svg">
<path d="M48.9118 20.43H46.9378L44.1658 12.177H44.0398L43.7668 24H42.0238L42.4648 9.3H44.7748L47.8618 18.582H47.9878L51.0748 9.3H53.3848L53.8258 24H52.0828L51.8098 12.177H51.6838L48.9118 20.43ZM58.1221 24H56.2741L59.7601 9.3H62.8261L66.3121 24H64.4641L63.6031 20.283H58.9831L58.1221 24ZM63.2461 18.813L61.3561 10.644H61.2301L59.3191 18.813H63.2461ZM68.9339 9.3H72.4199C73.9459 9.3 75.0169 9.622 75.6329 10.266C76.2489 10.896 76.5569 11.995 76.5569 13.563C76.5569 15.131 76.0669 16.153 75.0869 16.629C75.7449 16.867 76.2209 17.245 76.5149 17.763C76.8229 18.267 76.9769 18.981 76.9769 19.905C76.9769 21.361 76.6409 22.411 75.9689 23.055C75.3109 23.685 74.1629 24 72.5249 24H68.9339V9.3ZM75.1499 20.304V19.485C75.1499 18.617 75.0379 18.085 74.8139 17.889C74.4359 17.581 74.0439 17.406 73.6379 17.364C73.2319 17.308 72.7979 17.28 72.3359 17.28H70.7399V22.509H72.5459C73.4839 22.509 74.1699 22.376 74.6039 22.11C74.9119 21.928 75.0869 21.578 75.1289 21.06C75.1429 20.892 75.1499 20.64 75.1499 20.304ZM74.7299 13.857V13.038C74.7299 12.03 74.5619 11.414 74.2259 11.19C73.8479 10.924 73.2389 10.791 72.3989 10.791H70.7399V16.083H72.1889C73.0989 16.083 73.7639 15.95 74.1839 15.684C74.4919 15.502 74.6669 15.138 74.7089 14.592C74.7229 14.438 74.7299 14.193 74.7299 13.857ZM80.4388 24V9.3H87.4318L87.2218 10.77H82.2448V15.894H86.8018V17.364H82.2448V22.53H87.6418V24H80.4388ZM90.3646 24V9.3H92.1706V22.53H96.9166V24H90.3646ZM99.224 24V9.3H101.03V22.53H105.776V24H99.224ZM108.776 24H106.928L110.414 9.3H113.48L116.966 24H115.118L114.257 20.283H109.637L108.776 24ZM113.9 18.813L112.01 10.644H111.884L109.973 18.813H113.9Z" fill="#30485F"/>
<g clip-path="url(#clip0)">
<path d="M31.7252 23.1913C31.7251 23.1912 31.725 23.1911 31.7249 23.1911C30.8133 22.2795 29.7821 21.5416 28.6481 20.9851C30.7793 18.644 31.6125 15.8312 31.6125 15.3819C31.6125 14.9406 31.3072 14.5705 30.8965 14.4708C29.3729 14.0654 27.7779 13.9449 26.2118 14.1097C26.2696 13.8176 26.3189 13.5229 26.3581 13.2256C26.596 11.4188 26.4775 9.61024 26.006 7.85005C25.8664 7.32918 25.3373 7.05855 24.8574 7.18712C23.0913 7.66012 21.4331 8.48587 19.9896 9.60018C19.0303 6.9488 17.5483 5.24874 16.6631 4.36349C16.4873 4.18768 16.2483 4.08887 15.9997 4.08887C15.7511 4.08887 15.5126 4.18768 15.3368 4.36349C14.4544 5.24587 12.9706 6.94612 12.0104 9.60012C10.5669 8.48581 8.90862 7.66005 7.14256 7.18705C6.64231 7.05318 6.1285 7.3498 5.99444 7.84987C5.66656 9.07305 5.23563 11.3138 5.78806 14.1097C4.22306 13.945 2.62913 14.0652 1.1065 14.4699C0.694 14.5684 0.387313 14.9397 0.387313 15.3824C0.387313 15.7232 1.11987 18.5332 3.35175 20.985C2.21762 21.5416 1.18644 22.2794 0.274812 23.1911C0.0988125 23.3669 0 23.6058 0 23.8544C0 24.1031 0.0988125 24.3415 0.274625 24.5173C2.46331 26.706 5.37331 27.9114 8.46856 27.9114C11.2609 27.9114 13.9026 26.9302 15.9998 25.1312C18.0971 26.9302 20.7386 27.9114 23.5311 27.9114C26.6173 27.9114 29.5194 26.713 31.7058 24.5364C31.8869 24.3655 32.0001 24.1231 32.0001 23.8544C32 23.5954 31.8949 23.3609 31.7252 23.1913ZM25.6682 16.0768C26.9247 15.8575 28.2176 15.8578 29.4742 16.0764C28.5885 18.5099 26.8929 20.5356 24.6234 21.8457C23.0899 22.7312 21.405 23.2262 19.6861 23.3154C22.4379 21.6891 23.9164 19.5566 24.6263 18.3269C25.0401 17.6103 25.3894 16.8556 25.6682 16.0768ZM2.5255 16.0763C3.782 15.8578 5.07488 15.8574 6.33125 16.0767C6.61006 16.8556 6.9595 17.6104 7.37319 18.3267C8.08294 19.5561 9.56156 21.6891 12.3134 23.3152C10.5946 23.2261 8.90938 22.7309 7.37594 21.8455C5.107 20.5358 3.41156 18.5102 2.5255 16.0763ZM8.4685 26.0364C6.2055 26.0364 4.06081 25.2679 2.33225 23.854C3.08919 23.2344 3.92663 22.7392 4.83431 22.3747C5.34094 22.7793 5.87862 23.1463 6.43844 23.4694C7.53506 24.1027 9.60494 25.0903 12.4406 25.1929C11.2074 25.7457 9.86044 26.0364 8.4685 26.0364ZM8.997 17.3893C8.33081 16.2356 6.86912 13.2404 7.59044 9.28993C9.00794 9.79805 10.3234 10.5732 11.455 11.5691C11.2609 12.5132 11.1628 13.4766 11.1628 14.4404C11.1628 15.9357 11.3946 18.672 13.0856 21.5915C10.8148 20.1944 9.59075 18.4177 8.997 17.3893ZM15.9998 22.4752C13.2811 19.2947 13.0378 15.8296 13.0378 14.4404C13.0378 13.0499 13.2816 9.58549 15.9998 6.40562C18.7179 9.58556 18.9617 13.0497 18.9617 14.4404C18.9617 15.8308 18.7179 19.2954 15.9998 22.4752ZM20.8367 14.4404C20.8367 13.4765 20.7386 12.5132 20.5445 11.5691C21.6763 10.573 22.9918 9.79787 24.4094 9.28974C25.1303 13.2403 23.6687 16.2354 23.0026 17.3892C22.4069 18.4209 21.1824 20.1957 18.9139 21.5914C20.6042 18.6732 20.8367 15.9365 20.8367 14.4404ZM23.531 26.0364C22.1391 26.0364 20.7921 25.7457 19.5589 25.1928C22.3992 25.0901 24.4707 24.0991 25.5609 23.4695C26.1208 23.1463 26.6585 22.7793 27.1651 22.3746C28.0728 22.7392 28.9102 23.2344 29.6672 23.8539C27.9387 25.2678 25.794 26.0364 23.531 26.0364Z" fill="#30485F"/>
</g>
<defs>
<clipPath id="clip0">
<rect width="32" height="32" fill="white"/>
</clipPath>
</defs>
</svg>
