<svg width="32" height="32" viewBox="0 0 32 32" fill="none" xmlns="http://www.w3.org/2000/svg">
<path d="M6.68335 6.52295H8.43992V8.27975H6.68335V6.52295Z" fill="white"/>
<path d="M13.7103 6.52295H15.4669V8.27975H13.7103V6.52295Z" fill="white"/>
<path d="M20.7368 6.52295H22.4936V8.27975H20.7368V6.52295Z" fill="white"/>
<path d="M27.8245 11.789V1.80907C27.8245 1.32385 27.431 0.930664 26.946 0.930664H2.23088C1.74568 0.930664 1.35248 1.32385 1.35248 1.80907V20.0196C1.35248 20.5048 1.74568 20.8982 2.23088 20.8982H19.9197V15.3036C19.9197 13.3658 21.4963 11.789 23.4338 11.789H27.8245ZM10.1968 16.1843C10.1968 16.6695 9.80352 17.0627 9.31842 17.0627H5.80505C5.31996 17.0627 4.92689 16.6695 4.92689 16.1843V12.6712C4.92689 12.186 5.31996 11.7926 5.80505 11.7926H9.31842C9.80352 11.7926 10.1968 12.186 10.1968 12.6712V16.1843ZM10.1968 9.15775C10.1968 9.64284 9.80352 10.036 9.31842 10.036H5.80505C5.31996 10.036 4.92689 9.64284 4.92689 9.15775V5.64462C4.92689 5.1594 5.31996 4.76598 5.80505 4.76598H9.31842C9.80352 4.76598 10.1968 5.1594 10.1968 5.64462V9.15775ZM17.2234 9.15775C17.2234 9.64284 16.8302 10.036 16.345 10.036H12.8317C12.3467 10.036 11.9535 9.64284 11.9535 9.15775V5.64462C11.9535 5.1594 12.3467 4.76598 12.8317 4.76598H16.345C16.8302 4.76598 17.2234 5.1594 17.2234 5.64462V9.15775ZM19.8582 10.036C19.3733 10.036 18.9802 9.64284 18.9802 9.15775V5.64462C18.9802 5.1594 19.3733 4.76598 19.8582 4.76598H23.3717C23.8569 4.76598 24.2501 5.1594 24.2501 5.64462V9.15775C24.2501 9.64284 23.8569 10.036 23.3717 10.036H19.8582Z" fill="white"/>
<path d="M6.68335 13.5498H8.43992V15.3065H6.68335V13.5498Z" fill="white"/>
<path d="M28.7017 13.5459H23.4339C22.4631 13.5459 21.6761 14.3332 21.6761 15.3039V29.1732C21.6761 30.1439 22.4631 30.931 23.4339 30.931H28.7017C29.6723 30.931 30.4595 30.1439 30.4595 29.1732V15.3039C30.4595 14.3332 29.6723 13.5459 28.7017 13.5459ZM24.3111 16.4706C24.7951 16.4706 25.1895 16.8651 25.1895 17.3491C25.1895 17.8328 24.7951 18.2274 24.3111 18.2274C23.8275 18.2274 23.4328 17.8328 23.4328 17.3491C23.4328 16.8651 23.8275 16.4706 24.3111 16.4706ZM23.4328 20.8623C23.4328 20.3786 23.8275 19.9839 24.3111 19.9839C24.7951 19.9839 25.1895 20.3786 25.1895 20.8623C25.1895 21.3462 24.7951 21.7406 24.3111 21.7406C23.8275 21.7408 23.4328 21.3462 23.4328 20.8623ZM27.4436 26.63H26.946V27.1279C26.946 27.613 26.5529 28.0062 26.0677 28.0062C25.5827 28.0062 25.1895 27.613 25.1895 27.1279V26.63H24.6916C24.2065 26.63 23.8135 26.237 23.8135 25.7518C23.8135 25.2667 24.2065 24.8734 24.6916 24.8734H25.1895V24.3756C25.1895 23.8906 25.5827 23.4975 26.0677 23.4975C26.5529 23.4975 26.946 23.8906 26.946 24.3756V24.8734H27.4436C27.9289 24.8734 28.3221 25.2667 28.3221 25.7518C28.3221 26.237 27.9289 26.63 27.4436 26.63ZM27.8181 21.7408C27.3347 21.7408 26.94 21.3462 26.94 20.8623C26.94 20.3786 27.3347 19.9842 27.8181 19.9842C28.3021 19.9842 28.6965 20.3786 28.6965 20.8623C28.6965 21.3462 28.3021 21.7408 27.8181 21.7408ZM27.8181 18.2274C27.3347 18.2274 26.94 17.8328 26.94 17.3491C26.94 16.8651 27.3347 16.4706 27.8181 16.4706C28.3021 16.4706 28.6965 16.8651 28.6965 17.3491C28.6965 17.8328 28.3021 18.2274 27.8181 18.2274Z" fill="white"/>
<path d="M16.345 22.6528H14.5884V24.4059H7.73979C7.2547 24.4059 6.86163 24.7992 6.86163 25.2842C6.86163 25.7692 7.2547 26.1626 7.73979 26.1626H19.9196V24.4059H16.345V22.6528Z" fill="white"/>
</svg>
