<svg width="206" height="40" viewBox="0 0 206 40" fill="none" xmlns="http://www.w3.org/2000/svg">
<g filter="url(#filter0_d)">
<path d="M36 16.0625C36 14.3218 35.1875 12.7583 33.9175 11.7263C34.7186 8.09547 32.143 4.42525 28.355 3.93063C27.9382 1.72563 25.9982 0 23.75 0C22.6956 0 21.7219 0.35 20.9375 0.94V9.06187C21.6626 8.41 22.56 7.94127 23.5638 7.73753C24.0706 7.6344 24.5656 7.96253 24.6688 8.47C24.7719 8.97753 24.4438 9.47187 23.9363 9.575C22.1988 9.92747 20.9375 11.4731 20.9375 13.25V20.3119C21.6626 19.66 22.56 19.1913 23.5638 18.9875C24.0706 18.8844 24.5656 19.2125 24.6688 19.72C24.7719 20.2275 24.4438 20.7219 23.9363 20.825C22.1988 21.1775 20.9375 22.7231 20.9375 24.5V31.06C21.7219 31.65 22.6956 32 23.75 32C26.0332 32 27.9406 30.3594 28.3544 28.1944C32.0765 27.7084 34.7052 24.1391 33.9288 20.3613C35.2369 19.28 36 17.7181 36 16.0625Z" fill="#B030EC"/>
<path d="M11.645 3.93063C7.86206 4.42463 5.28037 8.09107 6.0825 11.7263C4.78394 12.7815 4 14.3598 4 16.0625C4 17.7181 4.76313 19.28 6.07125 20.3613C5.29419 24.1423 7.92644 27.7087 11.6456 28.1944C12.0594 30.3594 13.9669 32 16.25 32C17.3044 32 18.2781 31.65 19.0625 31.06C19.0625 29.7216 19.0625 25.8354 19.0625 24.5C19.0625 22.7231 17.8013 21.1775 16.0637 20.825C15.5563 20.7219 15.2281 20.2275 15.3313 19.72C15.4344 19.2125 15.9287 18.8844 16.4363 18.9875C17.44 19.1913 18.3375 19.66 19.0625 20.3119V13.25C19.0625 11.4731 17.8013 9.92747 16.0637 9.575C15.5563 9.47187 15.2281 8.97747 15.3313 8.47C15.4344 7.96247 15.9287 7.6344 16.4363 7.73753C17.44 7.94127 18.3375 8.41 19.0625 9.06187C19.0625 7.45707 19.0625 2.58687 19.0625 0.94C18.2781 0.35 17.3044 0 16.25 0C14.0019 0 12.0619 1.72563 11.645 3.93063Z" fill="#B030EC"/>
<path d="M20.0002 26.6668C25.8912 26.6668 30.6668 21.8912 30.6668 16.0002C30.6668 10.1091 25.8912 5.3335 20.0002 5.3335C14.1091 5.3335 9.3335 10.1091 9.3335 16.0002C9.3335 21.8912 14.1091 26.6668 20.0002 26.6668Z" fill="#16153A"/>
<path d="M24.4748 11.9314L18.0542 18.352L15.5248 15.8225L14.6665 16.6809L18.0542 20.0686L25.3332 12.7897L24.4748 11.9314Z" fill="#B030EC"/>
<path d="M59.6587 21.6322H55.5769L51.3691 13.516H51.2982C51.398 14.7925 51.4479 15.767 51.4479 16.4394V21.6322H48.6899V10.1119H52.7559L56.948 18.1178H56.9953C56.9217 16.9569 56.885 16.0244 56.885 15.3205V10.1119H59.6587V21.6322ZM68.9884 21.6322H62.1487V10.1119H68.9884V12.6098H65.2613V14.4222H68.7126V16.9201H65.2613V19.0949H68.9884V21.6322ZM81.7854 15.8563C81.7854 17.7947 81.3099 19.2683 80.359 20.2769C79.4082 21.2855 78.0162 21.7899 76.1827 21.7899C74.3756 21.7899 72.9887 21.2829 72.0222 20.269C71.0608 19.2551 70.5802 17.779 70.5802 15.8405C70.5802 13.9232 71.0582 12.4601 72.0143 11.4515C72.9757 10.4376 74.3703 9.93066 76.1985 9.93066C78.0318 9.93066 79.4213 10.4323 80.3669 11.4357C81.3125 12.4391 81.7854 13.9126 81.7854 15.8563ZM73.8582 15.8563C73.8582 18.0837 74.633 19.1974 76.1827 19.1974C76.9707 19.1974 77.5538 18.9268 77.9321 18.3857C78.3155 17.8447 78.5073 17.0016 78.5073 15.8563C78.5073 14.7058 78.3129 13.8574 77.9242 13.3112C77.5407 12.7595 76.9655 12.4837 76.1985 12.4837C74.6383 12.4837 73.8582 13.6079 73.8582 15.8563ZM90.9342 21.6322L90.3667 19.4732H86.6236L86.0408 21.6322H82.6206L86.3788 10.0646H90.5317L94.3375 21.6322H90.9342ZM89.7203 16.9201L89.2236 15.029C89.1079 14.6087 88.9663 14.065 88.7986 13.3978C88.6355 12.7306 88.5279 12.2526 88.475 11.9636C88.4284 12.2315 88.3333 12.6728 88.1917 13.2875C88.0554 13.9021 87.7479 15.113 87.27 16.9201H89.7203ZM103.124 18.1336C103.124 18.848 102.943 19.4837 102.58 20.0405C102.217 20.5921 101.695 21.0229 101.012 21.3328C100.329 21.6375 99.5277 21.7899 98.6087 21.7899C97.8422 21.7899 97.1984 21.7373 96.6784 21.6322C96.1584 21.522 95.6169 21.3328 95.0548 21.0649V18.2912C95.6483 18.5959 96.266 18.8349 96.907 19.0082C97.5481 19.1763 98.1362 19.2604 98.6715 19.2604C99.1341 19.2604 99.473 19.1816 99.6881 19.024C99.9033 18.8612 100.012 18.6536 100.012 18.4015C100.012 18.2439 99.967 18.1074 99.8773 17.9918C99.793 17.8709 99.6541 17.7501 99.4595 17.6293C99.2704 17.5085 98.7611 17.2616 97.9309 16.8886C97.1796 16.5471 96.6148 16.2162 96.2373 15.8957C95.8644 15.5752 95.5855 15.2076 95.4017 14.7925C95.2233 14.3775 95.1337 13.8864 95.1337 13.319C95.1337 12.2578 95.5201 11.4305 96.292 10.8368C97.0639 10.2432 98.1255 9.94643 99.4757 9.94643C100.668 9.94643 101.884 10.2222 103.124 10.7738L102.171 13.1771C101.094 12.6834 100.163 12.4365 99.3806 12.4365C98.9763 12.4365 98.6822 12.5074 98.4984 12.6492C98.3146 12.7911 98.2223 12.9671 98.2223 13.1771C98.2223 13.4031 98.3379 13.6053 98.5693 13.7839C98.8059 13.9625 99.4416 14.2882 100.476 14.761C101.47 15.2076 102.157 15.6882 102.541 16.203C102.929 16.7126 103.124 17.3561 103.124 18.1336ZM112.438 18.1336C112.438 18.848 112.257 19.4837 111.894 20.0405C111.532 20.5921 111.009 21.0229 110.326 21.3328C109.643 21.6375 108.842 21.7899 107.923 21.7899C107.156 21.7899 106.513 21.7373 105.992 21.6322C105.472 21.522 104.931 21.3328 104.369 21.0649V18.2912C104.963 18.5959 105.579 18.8349 106.22 19.0082C106.861 19.1763 107.45 19.2604 107.986 19.2604C108.448 19.2604 108.787 19.1816 109.002 19.024C109.218 18.8612 109.325 18.6536 109.325 18.4015C109.325 18.2439 109.28 18.1074 109.192 17.9918C109.107 17.8709 108.968 17.7501 108.774 17.6293C108.585 17.5085 108.075 17.2616 107.245 16.8886C106.494 16.5471 105.929 16.2162 105.551 15.8957C105.178 15.5752 104.9 15.2076 104.716 14.7925C104.537 14.3775 104.448 13.8864 104.448 13.319C104.448 12.2578 104.833 11.4305 105.606 10.8368C106.378 10.2432 107.44 9.94643 108.79 9.94643C109.982 9.94643 111.198 10.2222 112.438 10.7738L111.484 13.1771C110.407 12.6834 109.478 12.4365 108.695 12.4365C108.291 12.4365 107.996 12.5074 107.813 12.6492C107.629 12.7911 107.537 12.9671 107.537 13.1771C107.537 13.4031 107.652 13.6053 107.884 13.7839C108.119 13.9625 108.755 14.2882 109.79 14.761C110.783 15.2076 111.472 15.6882 111.855 16.203C112.243 16.7126 112.438 17.3561 112.438 18.1336ZM114.219 21.6322V10.1119H117.347V21.6322H114.219ZM124.864 21.6322L122.508 13.3347H122.437C122.548 14.7479 122.603 15.8458 122.603 16.6285V21.6322H119.845V10.1119H123.99L126.393 18.2912H126.457L128.813 10.1119H132.965V21.6322H130.105V16.5812C130.105 16.3186 130.107 16.027 130.113 15.7066C130.123 15.3861 130.16 14.6008 130.223 13.3505H130.152L127.827 21.6322H124.864ZM135.447 21.6322V10.1119H138.575V21.6322H135.447ZM141.073 21.6322V10.1119H144.186V19.1186H148.622V21.6322H141.073ZM157.535 21.6322L156.967 19.4732H153.224L152.641 21.6322H149.221L152.98 10.0646H157.132L160.939 21.6322H157.535ZM156.321 16.9201L155.824 15.029C155.709 14.6087 155.567 14.065 155.399 13.3978C155.236 12.7306 155.128 12.2526 155.076 11.9636C155.029 12.2315 154.934 12.6728 154.792 13.2875C154.656 13.9021 154.348 15.113 153.87 16.9201H156.321ZM167.274 21.6322H164.161V12.6571H161.349V10.1119H170.079V12.6571H167.274V21.6322ZM171.726 21.6322V10.1119H174.854V21.6322H171.726ZM188.132 15.8563C188.132 17.7947 187.656 19.2683 186.706 20.2769C185.754 21.2855 184.363 21.7899 182.53 21.7899C180.722 21.7899 179.335 21.2829 178.369 20.269C177.408 19.2551 176.927 17.779 176.927 15.8405C176.927 13.9232 177.405 12.4601 178.361 11.4515C179.322 10.4376 180.717 9.93066 182.545 9.93066C184.378 9.93066 185.768 10.4323 186.714 11.4357C187.659 12.4391 188.132 13.9126 188.132 15.8563ZM180.205 15.8563C180.205 18.0837 180.979 19.1974 182.53 19.1974C183.318 19.1974 183.9 18.9268 184.279 18.3857C184.662 17.8447 184.853 17.0016 184.853 15.8563C184.853 14.7058 184.66 13.8574 184.271 13.3112C183.887 12.7595 183.312 12.4837 182.545 12.4837C180.985 12.4837 180.205 13.6079 180.205 15.8563ZM201.181 21.6322H197.099L192.891 13.516H192.82C192.92 14.7925 192.97 15.767 192.97 16.4394V21.6322H190.212V10.1119H194.278L198.47 18.1178H198.518C198.444 16.9569 198.408 16.0244 198.408 15.3205V10.1119H201.181V21.6322Z" fill="#B030EC"/>
</g>
<defs>
<filter id="filter0_d" x="0" y="0" width="205.181" height="40" filterUnits="userSpaceOnUse" color-interpolation-filters="sRGB">
<feFlood flood-opacity="0" result="BackgroundImageFix"/>
<feColorMatrix in="SourceAlpha" type="matrix" values="0 0 0 0 0 0 0 0 0 0 0 0 0 0 0 0 0 0 127 0"/>
<feOffset dy="4"/>
<feGaussianBlur stdDeviation="2"/>
<feColorMatrix type="matrix" values="0 0 0 0 0 0 0 0 0 0 0 0 0 0 0 0 0 0 0.25 0"/>
<feBlend mode="normal" in2="BackgroundImageFix" result="effect1_dropShadow"/>
<feBlend mode="normal" in="SourceGraphic" in2="effect1_dropShadow" result="shape"/>
</filter>
</defs>
</svg>
