<svg width="100" height="100" viewBox="0 0 100 100" fill="none" xmlns="http://www.w3.org/2000/svg">
<path d="M91.6667 13.3333H90V5C90 2.24333 87.7567 0 85 0H81.6667C78.91 0 76.6667 2.24333 76.6667 5V13.3333H23.3333V5C23.3333 2.24333 21.09 0 18.3333 0H15C12.2433 0 10 2.24333 10 5V13.3333H8.33333C3.73833 13.3333 0 17.0717 0 21.6667V91.6667C0 96.2617 3.73833 100 8.33333 100H91.6667C96.2617 100 100 96.2617 100 91.6667V21.6667C100 17.0717 96.2617 13.3333 91.6667 13.3333ZM80 15V5C80 4.08 80.7467 3.33333 81.6667 3.33333H85C85.92 3.33333 86.6667 4.08 86.6667 5V15V21.6667C86.6667 22.5867 85.92 23.3333 85 23.3333H81.6667C80.7467 23.3333 80 22.5867 80 21.6667V15ZM13.3333 15V5C13.3333 4.08 14.08 3.33333 15 3.33333H18.3333C19.2533 3.33333 20 4.08 20 5V15V21.6667C20 22.5867 19.2533 23.3333 18.3333 23.3333H15C14.08 23.3333 13.3333 22.5867 13.3333 21.6667V15ZM96.6667 91.6667C96.6667 94.4233 94.4233 96.6667 91.6667 96.6667H8.33333C5.57667 96.6667 3.33333 94.4233 3.33333 91.6667V43.3333H96.6667V91.6667ZM96.6667 40H3.33333V21.6667C3.33333 18.91 5.57667 16.6667 8.33333 16.6667H10V21.6667C10 24.4233 12.2433 26.6667 15 26.6667H18.3333C21.09 26.6667 23.3333 24.4233 23.3333 21.6667V16.6667H76.6667V21.6667C76.6667 24.4233 78.91 26.6667 81.6667 26.6667H85C87.7567 26.6667 90 24.4233 90 21.6667V16.6667H91.6667C94.4233 16.6667 96.6667 18.91 96.6667 21.6667V40Z" fill="#30485F"/>
<path d="M68.3333 21.6667H31.6667C30.745 21.6667 30 22.4117 30 23.3334V33.3334C30 34.2551 30.745 35.0001 31.6667 35.0001H68.3333C69.255 35.0001 70 34.2551 70 33.3334V23.3334C70 22.4117 69.255 21.6667 68.3333 21.6667ZM66.6667 31.6667H33.3333V25.0001H66.6667V31.6667Z" fill="#30485F"/>
<path d="M21.6667 48.3333H11.6667C10.745 48.3333 10 49.0783 10 49.9999V58.3333C10 59.2549 10.745 59.9999 11.6667 59.9999H21.6667C22.5883 59.9999 23.3333 59.2549 23.3333 58.3333V49.9999C23.3333 49.0783 22.5883 48.3333 21.6667 48.3333ZM20 56.6666H13.3333V51.6666H20V56.6666Z" fill="#30485F"/>
<path d="M43.3334 48.3333H33.3334C32.4117 48.3333 31.6667 49.0783 31.6667 49.9999V58.3333C31.6667 59.2549 32.4117 59.9999 33.3334 59.9999H43.3334C44.2551 59.9999 45.0001 59.2549 45.0001 58.3333V49.9999C45.0001 49.0783 44.2551 48.3333 43.3334 48.3333ZM41.6667 56.6666H35.0001V51.6666H41.6667V56.6666Z" fill="#30485F"/>
<path d="M66.6667 48.3333H56.6667C55.745 48.3333 55 49.0783 55 49.9999V58.3333C55 59.2549 55.745 59.9999 56.6667 59.9999H66.6667C67.5883 59.9999 68.3333 59.2549 68.3333 58.3333V49.9999C68.3333 49.0783 67.5883 48.3333 66.6667 48.3333ZM65 56.6666H58.3333V51.6666H65V56.6666Z" fill="#30485F"/>
<path d="M88.3334 48.3333H78.3334C77.4117 48.3333 76.6667 49.0783 76.6667 49.9999V58.3333C76.6667 59.2549 77.4117 59.9999 78.3334 59.9999H88.3334C89.2551 59.9999 90.0001 59.2549 90.0001 58.3333V49.9999C90.0001 49.0783 89.2551 48.3333 88.3334 48.3333ZM86.6667 56.6666H80.0001V51.6666H86.6667V56.6666Z" fill="#30485F"/>
<path d="M21.6667 65H11.6667C10.745 65 10 65.745 10 66.6667V75C10 75.9217 10.745 76.6667 11.6667 76.6667H21.6667C22.5883 76.6667 23.3333 75.9217 23.3333 75V66.6667C23.3333 65.745 22.5883 65 21.6667 65ZM20 73.3333H13.3333V68.3333H20V73.3333Z" fill="#30485F"/>
<path d="M43.3334 65H33.3334C32.4117 65 31.6667 65.745 31.6667 66.6667V75C31.6667 75.9217 32.4117 76.6667 33.3334 76.6667H43.3334C44.2551 76.6667 45.0001 75.9217 45.0001 75V66.6667C45.0001 65.745 44.2551 65 43.3334 65ZM41.6667 73.3333H35.0001V68.3333H41.6667V73.3333Z" fill="#30485F"/>
<path d="M66.6667 65H56.6667C55.745 65 55 65.745 55 66.6667V75C55 75.9217 55.745 76.6667 56.6667 76.6667H66.6667C67.5883 76.6667 68.3333 75.9217 68.3333 75V66.6667C68.3333 65.745 67.5883 65 66.6667 65ZM65 73.3333H58.3333V68.3333H65V73.3333Z" fill="#30485F"/>
<path d="M88.3334 65H78.3334C77.4117 65 76.6667 65.745 76.6667 66.6667V75C76.6667 75.9217 77.4117 76.6667 78.3334 76.6667H88.3334C89.2551 76.6667 90.0001 75.9217 90.0001 75V66.6667C90.0001 65.745 89.2551 65 88.3334 65ZM86.6667 73.3333H80.0001V68.3333H86.6667V73.3333Z" fill="#30485F"/>
<path d="M21.6667 81.6667H11.6667C10.745 81.6667 10 82.4117 10 83.3334V91.6668C10 92.5884 10.745 93.3334 11.6667 93.3334H21.6667C22.5883 93.3334 23.3333 92.5884 23.3333 91.6668V83.3334C23.3333 82.4117 22.5883 81.6667 21.6667 81.6667ZM20 90.0001H13.3333V85.0001H20V90.0001Z" fill="#30485F"/>
<path d="M43.3334 81.6667H33.3334C32.4117 81.6667 31.6667 82.4117 31.6667 83.3334V91.6668C31.6667 92.5884 32.4117 93.3334 33.3334 93.3334H43.3334C44.2551 93.3334 45.0001 92.5884 45.0001 91.6668V83.3334C45.0001 82.4117 44.2551 81.6667 43.3334 81.6667ZM41.6667 90.0001H35.0001V85.0001H41.6667V90.0001Z" fill="#30485F"/>
<path d="M67.0534 80.6001L59.8884 89.1984L56.1784 85.4884L53.8218 87.8451L58.8218 92.8451C59.1334 93.1601 59.5584 93.3334 60.0001 93.3334C60.0251 93.3334 60.0501 93.3334 60.0751 93.3318C60.5434 93.3101 60.9801 93.0934 61.2818 92.7351L69.6151 82.7351L67.0534 80.6001Z" fill="#30485F"/>
<path d="M87.0534 80.6001L79.8884 89.1984L76.1784 85.4884L73.8218 87.8451L78.8218 92.8451C79.1334 93.1601 79.5584 93.3334 80.0001 93.3334C80.0251 93.3334 80.0501 93.3334 80.0751 93.3318C80.5434 93.3101 80.9801 93.0934 81.2818 92.7351L89.6151 82.7351L87.0534 80.6001Z" fill="#30485F"/>
</svg>
