<svg width="100" height="100" viewBox="0 0 100 100" fill="none" xmlns="http://www.w3.org/2000/svg">
<g clip-path="url(#clip0)">
<path d="M29.3842 60.9383C30.8444 60.2016 32.5967 60.7518 33.3739 62.1908L38.8893 72.4037C39.3143 73.1907 40.2196 73.5879 41.0866 73.3692C41.9536 73.15 42.561 72.37 42.561 71.4756V56.5633C42.5608 55.4848 41.6864 54.6104 40.6077 54.6104C39.529 54.6104 38.6546 55.485 38.6546 56.5635V63.749L36.8108 60.335C35.0214 57.0219 30.986 55.7545 27.6247 57.451C24.7479 58.9024 23.2665 62.1035 24.0221 65.2358L27.5977 80.0563C28.4335 83.5208 29.9235 86.7364 32.0262 89.6139L39.0309 99.1993C39.4134 99.7228 40.0073 100 40.6095 100C41.0093 100 41.4128 99.8778 41.7602 99.6239C42.6311 98.9874 42.8214 97.7653 42.1848 96.8944L35.1801 87.3091C33.3829 84.8497 32.1094 82.1014 31.3952 79.1403L27.8196 64.3196C27.4913 62.959 28.1348 61.5688 29.3842 60.9383Z" fill="#30485F"/>
<path d="M73.4816 52.6133C72.329 52.6133 71.2441 52.9084 70.298 53.4266C69.3396 50.9301 66.9187 49.1525 64.0888 49.1525C62.8683 49.1525 61.7245 49.4846 60.7403 50.0607C59.6884 47.7721 57.3757 46.1779 54.6962 46.1779C53.7183 46.1779 52.7899 46.3918 51.953 46.7724V37.4343C51.953 33.7679 48.9702 30.7849 45.3036 30.7849C41.637 30.7849 38.6542 33.7677 38.6542 37.4343V40.8199C38.6542 41.8984 39.5286 42.773 40.6073 42.773C41.686 42.773 42.5604 41.8984 42.5604 40.8199V37.4345C42.5604 35.922 43.7911 34.6914 45.3036 34.6914C46.8161 34.6914 48.0468 35.922 48.0468 37.4345V64.9945C48.0468 66.0731 48.9212 66.9477 49.9999 66.9477C51.0786 66.9477 51.953 66.0731 51.953 64.9945V52.8271C51.953 51.3146 53.1835 50.084 54.6962 50.084C56.2089 50.084 57.4394 51.3146 57.4394 52.8271V64.9945C57.4394 66.0731 58.3138 66.9477 59.3925 66.9477C60.4712 66.9477 61.3456 66.0731 61.3456 64.9945V55.802C61.3456 54.2893 62.5761 53.0586 64.0888 53.0586C65.6015 53.0586 66.832 54.2893 66.832 55.802V64.9945C66.832 66.0731 67.7064 66.9477 68.7851 66.9477C69.8638 66.9477 70.7382 66.0731 70.7382 64.9945V59.2623C70.7382 57.7498 71.9689 56.5191 73.4814 56.5191C74.9939 56.5191 76.2246 57.7498 76.2246 59.2623V75.7426C76.2246 80.134 75.5581 84.4856 74.2441 88.6758L71.489 97.4614C71.1663 98.4907 71.739 99.5868 72.7683 99.9095C72.9628 99.9706 73.1595 99.9995 73.3533 99.9995C74.1841 99.9993 74.9546 99.4649 75.2163 98.6302L77.9714 89.8446C79.4042 85.2754 80.1308 80.5307 80.1308 75.7426V59.2623C80.131 55.5963 77.1482 52.6133 73.4816 52.6133Z" fill="#30485F"/>
<path d="M99.8363 10.3572C99.4465 9.15822 98.4291 8.30099 97.1813 8.11994L91.199 7.25255L88.5223 1.83223C87.9642 0.701954 86.8346 0 85.5742 0C85.574 0 85.5736 0 85.5734 0C84.3125 0.000195313 83.1828 0.702931 82.6252 1.83379L79.9513 7.25529L73.9695 8.12619C72.7218 8.30783 71.7048 9.16564 71.3158 10.3651C70.9265 11.5643 71.2459 12.8557 72.1488 13.7354L76.4787 17.9537L75.4584 23.912C75.2457 25.1547 75.7472 26.387 76.7674 27.1276C77.3435 27.5461 78.0175 27.7585 78.6961 27.7585C79.2189 27.7585 79.7445 27.6323 80.2301 27.377L85.5799 24.5625L90.9312 27.3743C92.0473 27.961 93.3742 27.8645 94.3939 27.1229C95.4137 26.3815 95.9147 25.1493 95.701 23.9065L94.6775 17.9489L99.0051 13.7283C99.9076 12.8479 100.226 11.5561 99.8363 10.3572ZM91.7178 15.3791C90.9426 16.1348 90.5895 17.2231 90.7729 18.2899L91.6393 23.3334L87.1092 20.9534C86.1508 20.4495 85.0066 20.45 84.0486 20.9539L79.5197 23.3366L80.3836 18.2922C80.566 17.2254 80.2123 16.1377 79.4369 15.3823L75.7713 11.8112L80.8357 11.074C81.9066 10.918 82.832 10.2453 83.3107 9.27443L85.5744 4.68497L87.8404 9.27306C88.3197 10.2438 89.2453 10.9158 90.3168 11.0715L95.3813 11.8061L91.7178 15.3791Z" fill="#30485F"/>
<path d="M64.2598 10.3572C63.8699 9.15822 62.8528 8.3008 61.6049 8.11994L55.6227 7.25255L52.9459 1.83223C52.3877 0.701954 51.2582 0 49.9977 0C49.9975 0 49.9971 0 49.9967 0C48.7359 0.000195313 47.6062 0.702931 47.0486 1.83379L44.3748 7.25529L38.393 8.12619C37.1453 8.30783 36.1283 9.16564 35.7392 10.3651C35.35 11.5643 35.6693 12.8557 36.5722 13.7354L40.9019 17.9535L39.8816 23.9118C39.6689 25.1545 40.1705 26.3868 41.1906 27.1274C41.7668 27.546 42.4408 27.7583 43.1193 27.7583C43.6422 27.7583 44.1678 27.6321 44.6533 27.3768L50.0033 24.5625L55.3547 27.3741C56.4707 27.9608 57.7977 27.8643 58.8174 27.1227C59.8371 26.3813 60.3381 25.1491 60.1244 23.9063L59.101 17.9487L63.4285 13.7282C64.3311 12.8479 64.6496 11.5563 64.2598 10.3572ZM56.1414 15.3791C55.3664 16.1346 55.0133 17.2227 55.1965 18.2899L56.0629 23.3334L51.5328 20.9534C50.5742 20.4496 49.4299 20.4498 48.4723 20.9539L43.9432 23.3366L44.807 18.2922C44.9894 17.2252 44.6357 16.1375 43.8603 15.3823L40.1949 11.8112L45.2592 11.074C46.3301 10.918 47.2555 10.2453 47.7344 9.27443L49.998 4.68477L52.2641 9.27306C52.7432 10.2436 53.6688 10.9158 54.7404 11.0715L59.8049 11.8061L56.1414 15.3791Z" fill="#30485F"/>
<path d="M28.6835 10.3572C28.2936 9.15822 27.2762 8.30099 26.0284 8.11994L20.0461 7.25255L17.3696 1.83223C16.8114 0.701954 15.6819 0 14.4213 0C14.4211 0 14.4207 0 14.4203 0C13.1596 0.000195313 12.0299 0.702931 11.4723 1.83379L8.79846 7.25529L2.81661 8.12619C1.56895 8.30783 0.552151 9.16564 0.162892 10.3649C-0.226366 11.5641 0.0925797 12.8555 0.995706 13.7354L5.3256 17.9537L4.30528 23.912C4.09259 25.1547 4.59415 26.387 5.61427 27.1278C6.19064 27.5461 6.86447 27.7586 7.54318 27.7585C8.06603 27.7585 8.59162 27.6323 9.07717 27.377L14.4272 24.5627L19.7786 27.3743C20.8948 27.9606 22.2215 27.8643 23.2413 27.1231C24.261 26.3815 24.7618 25.1489 24.5483 23.9063L23.5249 17.9487L27.8524 13.7282C28.7547 12.8479 29.0733 11.5563 28.6835 10.3572ZM20.5651 15.3789C19.7899 16.1344 19.4366 17.2227 19.62 18.2899L20.4864 23.3334L15.9565 20.9534C14.9981 20.4496 13.8537 20.4498 12.8959 20.9539L8.36662 23.3368L9.23029 18.2928C9.41311 17.226 9.05939 16.1381 8.28381 15.3825L4.61857 11.8112L9.68283 11.074C10.7537 10.918 11.6791 10.2453 12.1578 9.27443L14.4215 4.68477L16.6875 9.27306C17.1666 10.2436 18.0922 10.9158 19.1639 11.0715L24.2286 11.8061L20.5651 15.3789Z" fill="#30485F"/>
<path d="M41.9885 47.4866C41.6253 47.1231 41.1215 46.9143 40.6077 46.9143C40.094 46.9143 39.5901 47.1231 39.2268 47.4866C38.8635 47.8501 38.6545 48.3536 38.6545 48.8674C38.6545 49.3811 38.8635 49.885 39.2268 50.2481C39.5901 50.6114 40.094 50.8206 40.6077 50.8206C41.1213 50.8206 41.6253 50.6116 41.9885 50.2481C42.3518 49.885 42.5608 49.3811 42.5608 48.8674C42.5608 48.3534 42.3518 47.8497 41.9885 47.4866Z" fill="#30485F"/>
</g>
<defs>
<clipPath id="clip0">
<rect width="100" height="100" fill="white"/>
</clipPath>
</defs>
</svg>
