<svg width="119" height="32" viewBox="0 0 119 32" fill="none" xmlns="http://www.w3.org/2000/svg">
<path d="M70.2121 16.43C70.6801 16.574 71.0821 16.892 71.4181 17.384C71.7541 17.864 71.9221 18.416 71.9221 19.04C71.9221 20.372 71.4901 21.368 70.6261 22.028C69.7621 22.676 68.5021 23 66.8461 23H59.4301C59.2981 23 59.1841 22.952 59.0881 22.856C58.9921 22.76 58.9441 22.646 58.9441 22.514V10.886C58.9441 10.754 58.9921 10.64 59.0881 10.544C59.1841 10.448 59.2981 10.4 59.4301 10.4H66.6661C68.3701 10.4 69.6241 10.712 70.4281 11.336C71.2441 11.948 71.6521 12.878 71.6521 14.126V14.18C71.6521 14.756 71.4961 15.248 71.1841 15.656C70.8721 16.064 70.5481 16.322 70.2121 16.43ZM66.7741 14.288C66.7741 14.072 66.7081 13.886 66.5761 13.73C66.4561 13.574 66.2761 13.496 66.0361 13.496H63.6241V15.134H66.0361C66.2761 15.134 66.4561 15.05 66.5761 14.882C66.7081 14.702 66.7741 14.504 66.7741 14.288ZM66.2341 19.904C66.5101 19.904 66.7141 19.814 66.8461 19.634C66.9901 19.442 67.0621 19.232 67.0621 19.004V18.986C67.0621 18.758 66.9841 18.56 66.8281 18.392C66.6841 18.224 66.4861 18.14 66.2341 18.14H63.6241V19.904H66.2341ZM86.189 19.49C86.321 19.49 86.435 19.538 86.531 19.634C86.627 19.73 86.675 19.844 86.675 19.976V22.514C86.675 22.646 86.627 22.76 86.531 22.856C86.435 22.952 86.321 23 86.189 23H74.813C74.681 23 74.567 22.952 74.471 22.856C74.375 22.76 74.327 22.646 74.327 22.514V10.886C74.327 10.754 74.375 10.64 74.471 10.544C74.567 10.448 74.681 10.4 74.813 10.4H86.009C86.141 10.4 86.255 10.448 86.351 10.544C86.447 10.64 86.495 10.754 86.495 10.886V13.424C86.495 13.556 86.447 13.67 86.351 13.766C86.255 13.862 86.141 13.91 86.009 13.91H79.007V15.044H85.019C85.151 15.044 85.265 15.092 85.361 15.188C85.457 15.284 85.505 15.398 85.505 15.53V17.87C85.505 18.002 85.457 18.116 85.361 18.212C85.265 18.308 85.151 18.356 85.019 18.356H79.007V19.49H86.189ZM101.284 10.4C101.416 10.4 101.53 10.448 101.626 10.544C101.722 10.64 101.77 10.754 101.77 10.886V22.514C101.77 22.646 101.722 22.76 101.626 22.856C101.53 22.952 101.416 23 101.284 23H98.386C98.098 23 97.858 22.874 97.666 22.622L93.742 17.618V22.514C93.742 22.646 93.694 22.76 93.598 22.856C93.502 22.952 93.388 23 93.256 23H89.908C89.776 23 89.662 22.952 89.566 22.856C89.47 22.76 89.422 22.646 89.422 22.514V10.886C89.422 10.754 89.47 10.64 89.566 10.544C89.662 10.448 89.776 10.4 89.908 10.4H92.824C93.112 10.4 93.346 10.52 93.526 10.76L97.45 16.178V10.886C97.45 10.754 97.498 10.64 97.594 10.544C97.69 10.448 97.804 10.4 97.936 10.4H101.284ZM117.639 17.798C117.639 19.634 117.027 20.99 115.803 21.866C114.591 22.742 112.971 23.18 110.943 23.18C108.915 23.18 107.289 22.742 106.065 21.866C104.853 20.99 104.247 19.622 104.247 17.762V15.638C104.247 14.414 104.535 13.4 105.111 12.596C105.699 11.78 106.497 11.18 107.505 10.796C108.513 10.412 109.659 10.22 110.943 10.22C112.227 10.22 113.367 10.412 114.363 10.796C115.371 11.18 116.169 11.774 116.757 12.578C117.345 13.382 117.639 14.39 117.639 15.602V17.798ZM109.107 18.14C109.107 18.632 109.269 19.01 109.593 19.274C109.929 19.538 110.379 19.67 110.943 19.67C111.507 19.67 111.951 19.538 112.275 19.274C112.611 18.998 112.779 18.614 112.779 18.122V15.278C112.779 14.786 112.611 14.408 112.275 14.144C111.951 13.868 111.507 13.73 110.943 13.73C110.379 13.73 109.929 13.862 109.593 14.126C109.269 14.39 109.107 14.768 109.107 15.26V18.14Z" fill="#B030EC"/>
<circle cx="16" cy="16" r="12" stroke="#B030EC" stroke-width="8"/>
<circle cx="33" cy="16" r="12" stroke="#B030EC" stroke-width="8"/>
</svg>
