<svg width="100" height="100" viewBox="0 0 100 100" fill="none" xmlns="http://www.w3.org/2000/svg">
<path d="M92.6758 13.9648H87.5467C86.7375 13.9648 86.0818 14.6205 86.0818 15.4297C86.0818 16.2389 86.7375 16.8945 87.5467 16.8945H92.6758C95.0988 16.8945 97.0703 18.866 97.0703 21.2891V28.0273H2.92969V21.2891C2.92969 18.866 4.90098 16.8945 7.32422 16.8945H81.115C81.9242 16.8945 82.5799 16.2389 82.5799 15.4297C82.5799 14.6205 81.9242 13.9648 81.115 13.9648H7.32422C3.28555 13.9648 0 17.2504 0 21.2891V37.4377C0 38.2469 0.655859 38.9025 1.46484 38.9025C2.27383 38.9025 2.92969 38.2469 2.92969 37.4377V30.957H97.0703V68.7238C97.0703 69.533 97.726 70.1887 98.5352 70.1887C99.3443 70.1887 100 69.533 100 68.7238V21.2891C100 17.2504 96.7145 13.9648 92.6758 13.9648V13.9648Z" fill="#0F8DFF"/>
<path d="M98.5352 73.4362C97.726 73.4362 97.0703 74.0918 97.0703 74.901V78.7108C97.0703 81.1338 95.0988 83.1053 92.6758 83.1053H7.32422C4.90098 83.1053 2.92969 81.1338 2.92969 78.7108V43.7239C2.92969 42.9147 2.27383 42.259 1.46484 42.259C0.655859 42.259 0 42.9147 0 43.7239V78.7108C0 82.7495 3.28555 86.035 7.32422 86.035H92.6758C96.7145 86.035 100 82.7495 100 78.7108V74.901C100 74.092 99.3443 73.4362 98.5352 73.4362Z" fill="#0F8DFF"/>
<path d="M21.188 45.7922C20.6159 45.2203 19.6884 45.2203 19.1165 45.7922L10.3137 54.5949C10.0389 54.8697 9.88464 55.2422 9.88464 55.6309C9.88464 56.0195 10.0389 56.3918 10.3137 56.6668L19.0001 65.3531C19.286 65.6391 19.661 65.782 20.0358 65.782C20.4106 65.782 20.7856 65.6391 21.0716 65.3531C21.6436 64.7808 21.6436 63.8535 21.0716 63.2814L13.421 55.631L21.188 47.8641C21.7602 47.2918 21.7602 46.3645 21.188 45.7922V45.7922Z" fill="#0F8DFF"/>
<path d="M40.8875 65.3534C41.1734 65.6393 41.5484 65.7823 41.9232 65.7823C42.298 65.7823 42.673 65.6393 42.959 65.3534L51.6455 56.667C51.9201 56.3922 52.0744 56.0198 52.0744 55.6311C52.0744 55.2424 51.9201 54.8702 51.6455 54.5952L42.8426 45.7924C42.2705 45.2206 41.343 45.2206 40.7711 45.7924C40.199 46.3647 40.199 47.292 40.7711 47.8641L48.5383 55.6311L40.8877 63.2815C40.3154 63.8539 40.3154 64.7813 40.8875 65.3534V65.3534Z" fill="#0F8DFF"/>
<path d="M25.7793 70.7488C26.3702 70.7488 26.927 70.3886 27.1491 69.8032L37.558 42.3818C37.8452 41.6253 37.4647 40.7794 36.7084 40.4923C35.9522 40.205 35.1061 40.5857 34.8192 41.3419L24.4102 68.7638C24.1231 69.52 24.5035 70.3659 25.2598 70.653C25.4309 70.7181 25.6065 70.7488 25.7793 70.7488V70.7488Z" fill="#0F8DFF"/>
<path d="M6.44666 22.5332C6.44666 24.9563 8.41794 26.9277 10.8412 26.9277C13.2644 26.9277 15.2357 24.9563 15.2357 22.5332C15.2357 20.1102 13.2644 18.1387 10.8412 18.1387C8.41794 18.1387 6.44666 20.1102 6.44666 22.5332V22.5332ZM12.306 22.5332C12.306 23.341 11.649 23.998 10.8412 23.998C10.0334 23.998 9.37634 23.341 9.37634 22.5332C9.37634 21.7254 10.0334 21.0684 10.8412 21.0684C11.649 21.0684 12.306 21.7254 12.306 22.5332Z" fill="#0F8DFF"/>
<path d="M17.8059 22.5332C17.8059 24.9563 19.7772 26.9277 22.2004 26.9277C24.6237 26.9277 26.595 24.9563 26.595 22.5332C26.595 20.1102 24.6237 18.1387 22.2004 18.1387C19.7772 18.1387 17.8059 20.1102 17.8059 22.5332V22.5332ZM23.6653 22.5332C23.6653 23.341 23.0083 23.998 22.2004 23.998C21.3926 23.998 20.7356 23.341 20.7356 22.5332C20.7356 21.7254 21.3926 21.0684 22.2004 21.0684C23.0083 21.0684 23.6653 21.7254 23.6653 22.5332Z" fill="#0F8DFF"/>
<path d="M29.1649 22.5332C29.1649 24.9563 31.1362 26.9277 33.5594 26.9277C35.9827 26.9277 37.954 24.9563 37.954 22.5332C37.954 20.1102 35.9827 18.1387 33.5594 18.1387C31.1362 18.1387 29.1649 20.1102 29.1649 22.5332V22.5332ZM35.0243 22.5332C35.0243 23.341 34.3673 23.998 33.5594 23.998C32.7516 23.998 32.0946 23.341 32.0946 22.5332C32.0946 21.7254 32.7516 21.0684 33.5594 21.0684C34.3673 21.0684 35.0243 21.7254 35.0243 22.5332Z" fill="#0F8DFF"/>
<path d="M65.5273 47.3374H74.707C77.1301 47.3374 79.1016 45.3659 79.1016 42.9429C79.1016 40.5198 77.1301 38.5483 74.707 38.5483H65.5273C63.1043 38.5483 61.1328 40.5198 61.1328 42.9429C61.1328 45.3659 63.1043 47.3374 65.5273 47.3374ZM65.5273 41.478H74.707C75.5148 41.478 76.1719 42.1351 76.1719 42.9429C76.1719 43.7507 75.5148 44.4077 74.707 44.4077H65.5273C64.7195 44.4077 64.0625 43.7507 64.0625 42.9429C64.0625 42.1351 64.7195 41.478 65.5273 41.478Z" fill="#0F8DFF"/>
<path d="M65.5273 59.0562H89.7461C92.1691 59.0562 94.1406 57.0847 94.1406 54.6616C94.1406 52.2386 92.1691 50.2671 89.7461 50.2671H65.5273C63.1043 50.2671 61.1328 52.2386 61.1328 54.6616C61.1328 57.0847 63.1043 59.0562 65.5273 59.0562ZM65.5273 53.1968H89.7461C90.5539 53.1968 91.2109 53.8538 91.2109 54.6616C91.2109 55.4694 90.5539 56.1265 89.7461 56.1265H65.5273C64.7195 56.1265 64.0625 55.4694 64.0625 54.6616C64.0625 53.8538 64.7195 53.1968 65.5273 53.1968Z" fill="#0F8DFF"/>
<path d="M65.5273 70.7749H82.5518C84.9748 70.7749 86.9463 68.8034 86.9463 66.3804C86.9463 63.9573 84.9748 61.9858 82.5518 61.9858H65.5273C63.1043 61.9858 61.1328 63.9573 61.1328 66.3804C61.1328 68.8034 63.1043 70.7749 65.5273 70.7749ZM65.5273 64.9155H82.5518C83.3596 64.9155 84.0166 65.5726 84.0166 66.3804C84.0166 67.1882 83.3596 67.8452 82.5518 67.8452H65.5273C64.7195 67.8452 64.0625 67.1882 64.0625 66.3804C64.0625 65.5726 64.7195 64.9155 65.5273 64.9155Z" fill="#0F8DFF"/>
</svg>
