<svg width="32" height="32" viewBox="0 0 32 32" fill="none" xmlns="http://www.w3.org/2000/svg">
<g clip-path="url(#clip0)">
<path d="M12.009 14.1284C14.2168 11.3132 17.6461 9.50386 21.5065 9.50386C22.0813 9.50386 22.6496 9.54305 23.2113 9.62144V7.04785C21.4673 8.61552 16.9472 9.73248 11.6367 9.73248C6.35886 9.73248 1.85182 8.62858 0.0881958 7.06745V10.3791C0.970009 13.9913 11.8849 14.1349 12.009 14.1284Z" fill="white"/>
<path d="M0.0816052 12.9658L0.0750732 16.3298C0.499649 18.1979 4.43841 19.7134 9.53987 20.0464C9.73583 18.4592 10.2453 16.9634 11.003 15.6308C5.99301 15.5459 1.76685 14.4682 0.0816052 12.9658Z" fill="white"/>
<path d="M0.0751355 18.9429L0.0686035 22.1435C0.0881994 22.1239 0.107795 22.1043 0.127391 22.0913C0.251499 24.1554 4.66056 25.8471 10.3238 26.0887C9.75548 24.691 9.44848 23.169 9.44848 21.5687V21.5622C5.12433 21.2943 1.57748 20.2885 0.0751355 18.9429Z" fill="white"/>
<path d="M11.0749 27.6105C5.96695 27.5256 1.67546 26.3956 0.0686048 24.854L0.0620728 27.8719C0.0620728 30.1449 5.2419 31.9869 11.6367 31.9869C12.8582 31.9869 14.0339 31.9216 15.1378 31.7975C13.4656 30.7524 12.0678 29.3153 11.0749 27.6105Z" fill="white"/>
<path d="M11.6367 8.21717C18.0364 8.21717 23.2243 6.37769 23.2243 4.10859C23.2243 1.83948 18.0364 0 11.6367 0C5.23699 0 0.0490112 1.83948 0.0490112 4.10859C0.0490112 6.37769 5.23699 8.21717 11.6367 8.21717Z" fill="white"/>
<path d="M21.5064 11.1172C15.7386 11.1172 11.0618 15.7941 11.0618 21.5618C11.0618 27.3295 15.7386 31.9998 21.5064 31.9998C27.2741 31.9998 31.951 27.323 31.951 21.5553C31.951 15.7875 27.2741 11.1172 21.5064 11.1172ZM22.4601 27.1335V27.7933C22.4601 28.3223 22.0354 28.7469 21.5064 28.7469C20.9773 28.7469 20.5528 28.3223 20.5528 27.7933V27.1335C19.9976 26.9637 19.4814 26.6567 19.0765 26.2255C18.7173 25.8402 18.7369 25.2393 19.1157 24.8799C19.501 24.5207 20.0824 24.5599 20.4613 24.9191C20.8793 25.3177 21.5717 25.3634 21.6044 25.3634C22.3425 25.3111 22.9304 24.6906 22.9304 23.9394C22.9304 23.1555 22.2902 22.5089 21.5064 22.5089C19.6709 22.5089 18.1752 21.0131 18.1752 19.1775C18.1752 17.6687 19.181 16.395 20.5528 15.9835V15.3238C20.5528 14.7946 20.9773 14.3701 21.5064 14.3701C22.0354 14.3701 22.4601 14.7946 22.4601 15.3238V15.9835C23.0153 16.1533 23.5313 16.4603 23.9362 16.8914C24.2956 17.2769 24.276 17.8778 23.897 18.237C23.5117 18.5962 22.8781 18.6093 22.5516 18.1978C22.2053 17.7602 21.441 17.7537 21.4084 17.7537C20.6704 17.8059 20.0824 18.4265 20.0824 19.1775C20.0824 19.9614 20.7225 20.6081 21.5064 20.6081C23.3418 20.6081 24.8377 22.1039 24.8377 23.9394C24.8377 25.4483 23.8318 26.7221 22.4601 27.1335Z" fill="white"/>
</g>
<defs>
<clipPath id="clip0">
<rect width="32" height="32" fill="white"/>
</clipPath>
</defs>
</svg>
