<svg width="100" height="100" viewBox="0 0 100 100" fill="none" xmlns="http://www.w3.org/2000/svg">
<g clip-path="url(#clip0)">
<path d="M78.3333 56.6674C70.69 56.6674 63.9584 60.6463 60.1004 66.6412L53.963 63.294C52.5464 62.5207 51.6663 61.0389 51.6663 59.4256V53.9124C52.7829 52.4507 55.978 47.8941 57.5045 41.8492C59.0795 40.5859 59.9994 38.6959 59.9994 36.6676V30.001C59.9994 28.3959 59.3994 26.8411 58.3329 25.626V16.761C58.4262 15.8444 58.7928 10.3861 54.8462 5.88434C51.4229 1.97929 45.8681 0.000976562 38.3332 0.000976562C30.7998 0.000976562 25.2432 1.97929 21.8215 5.88434C17.8733 10.3861 18.2399 15.8442 18.3333 16.761V25.626C17.2667 26.8411 16.6667 28.3959 16.6667 30.001V36.6676C16.6667 38.6959 17.5884 40.5859 19.1616 41.8492C20.6884 47.8941 23.8848 52.4509 24.9999 53.9124V59.4256C24.9999 61.0389 24.1198 62.5205 22.7049 63.294L7.83511 71.4039C3.0033 74.0406 0 79.0972 0 84.6038V91.6671C0 92.587 0.746675 93.3336 1.66659 93.3336H62.7141C66.6594 97.4401 72.2029 100 78.3333 100C90.2799 100 99.9998 90.2803 99.9998 78.3337C99.9998 66.3871 90.2799 56.6674 78.3333 56.6674ZM3.33338 90.0005V84.6038C3.33338 80.3189 5.67008 76.3822 9.43178 74.3306L24.3016 66.219C26.7883 64.8623 28.3332 62.259 28.3332 59.4256V53.3341C28.3332 52.9458 28.1965 52.5657 27.9465 52.2657C27.9049 52.2175 23.8116 47.239 22.2631 40.489C22.1665 40.0658 21.9065 39.6974 21.5432 39.4623C20.5766 38.8373 19.9999 37.7939 19.9999 36.6674V30.0008C19.9999 29.0658 20.3966 28.1942 21.1182 27.5424C21.4682 27.2274 21.6665 26.7774 21.6665 26.3057V16.6677C21.6665 16.5944 21.6614 16.5228 21.6514 16.4493C21.6464 16.4026 21.0798 11.7861 24.3264 8.08277C27.0897 4.93103 31.8014 3.33455 38.333 3.33455C44.8413 3.33455 49.5446 4.92126 52.3112 8.04956C55.5546 11.7179 55.0196 16.4095 55.0145 16.4495C55.0046 16.5228 54.9995 16.5944 54.9995 16.6679V26.3061C54.9995 26.7778 55.1995 27.2278 55.5495 27.5428C56.2694 28.1944 56.6661 29.066 56.6661 30.0012V36.6678C56.6661 37.7945 56.0911 38.8377 55.1245 39.4627C54.7594 39.6976 54.5012 40.066 54.4046 40.4894C52.8546 47.2394 48.7612 52.2177 48.7196 52.2661C48.4714 52.5661 48.3329 52.9462 48.3329 53.3345V59.426C48.3329 62.2594 49.8796 64.8627 52.3663 66.2193L58.5182 69.5758C57.329 72.2554 56.6668 75.2189 56.6668 78.3343C56.6668 82.6265 57.9215 86.6311 60.0832 90.0009H3.33338V90.0005ZM78.3333 96.6672C72.9861 96.6672 68.1664 94.3653 64.8121 90.7008C64.7414 90.6018 64.66 90.5112 64.5697 90.4299C61.7272 87.1995 60.0002 82.9648 60.0002 78.3341C60.0002 68.2258 68.2252 60.0008 78.3335 60.0008C88.4419 60.0008 96.6668 68.2258 96.6668 78.3341C96.6666 88.4423 88.4417 96.6672 78.3333 96.6672Z" fill="#0F8DFF"/>
<path d="M88.3334 76.6667H80V68.3333C80 67.4134 79.2533 66.6667 78.3334 66.6667C77.4135 66.6667 76.6668 67.4134 76.6668 68.3333V76.6667H68.3335C67.4135 76.6667 66.6669 77.4134 66.6669 78.3333C66.6669 79.2532 67.4135 79.9999 68.3335 79.9999H76.6668V88.3332C76.6668 89.2531 77.4135 89.9998 78.3334 89.9998C79.2533 89.9998 80 89.2531 80 88.3332V79.9999H88.3334C89.2533 79.9999 90 79.2532 90 78.3333C90 77.4134 89.2535 76.6667 88.3334 76.6667Z" fill="#0F8DFF"/>
</g>
<defs>
<clipPath id="clip0">
<rect width="100" height="100" fill="white"/>
</clipPath>
</defs>
</svg>
