<svg width="32" height="32" viewBox="0 0 32 32" fill="none" xmlns="http://www.w3.org/2000/svg">
<path d="M4.9158 26.3099C6.63099 26.3099 8.02638 24.9146 8.02638 23.1994C8.02638 21.4842 6.63099 20.0889 4.9158 20.0889C3.20062 20.0889 1.8053 21.4842 1.8053 23.1994C1.8053 24.9146 3.20068 26.3099 4.9158 26.3099Z" fill="white"/>
<path d="M4.946 26.3097C2.23844 26.2935 -0.000437436 28.4779 6.41082e-08 31.227C6.25641e-05 31.6521 0.349875 31.9998 0.774875 31.9998H9.05888C9.48656 31.9998 9.83331 31.653 9.83331 31.2254C9.83331 28.5146 7.64863 26.3258 4.946 26.3097Z" fill="white"/>
<path d="M16.9048 26.1706C18.5488 25.6725 19.4777 23.9358 18.9794 22.2918C18.4813 20.6477 16.7446 19.7189 15.1006 20.217C13.4565 20.7151 12.5277 22.4518 13.0259 24.0958C13.5241 25.7399 15.2606 26.6687 16.9048 26.1706Z" fill="white"/>
<path d="M16.0294 26.3097C13.3218 26.2935 11.0829 28.4779 11.0834 31.227C11.0834 31.6519 11.4333 31.9998 11.8583 31.9998H20.1422C20.57 31.9998 20.9166 31.653 20.9166 31.2254C20.9166 28.5146 18.732 26.3258 16.0294 26.3097Z" fill="white"/>
<path d="M23.972 23.1994C23.972 24.9146 25.3673 26.3099 27.0825 26.3099C28.7977 26.3099 30.1931 24.9146 30.1931 23.1994C30.1931 21.4842 28.7977 20.0889 27.0825 20.0889C25.3673 20.0889 23.972 21.4842 23.972 23.1994Z" fill="white"/>
<path d="M27.1127 26.3097C24.4051 26.2935 22.1662 28.4779 22.1667 31.227C22.1667 31.6519 22.5166 31.9998 22.9415 31.9998H31.2256C31.6534 31.9998 32 31.653 32 31.2254C32 28.5146 29.8154 26.3258 27.1127 26.3097Z" fill="white"/>
<path d="M5.95832 18.2134C6.47607 18.2134 6.89581 17.7937 6.89581 17.276V15.2009H15.0626V17.276C15.0626 17.7937 15.4823 18.2134 16 18.2134C16.5178 18.2134 16.9375 17.7937 16.9375 17.276V15.2009H25.1042V17.276C25.1042 17.7937 25.5239 18.2134 26.0416 18.2134C26.5595 18.2134 26.9792 17.7937 26.9792 17.276V14.2634C26.9792 13.7457 26.5595 13.3259 26.0416 13.3259H16.9375V11.7832H15.0626V13.3259H5.95832C5.44057 13.3259 5.02081 13.7457 5.02081 14.2634V17.276C5.02081 17.7937 5.44057 18.2134 5.95832 18.2134Z" fill="white"/>
<path d="M7.96668 9.90831H24.0333C24.5511 9.90831 24.9708 9.48856 24.9708 8.97081V0.9375C24.9708 0.419749 24.5511 0 24.0333 0H7.96668C7.44892 0 7.02917 0.419749 7.02917 0.9375V8.97081C7.02917 9.48863 7.44892 9.90831 7.96668 9.90831ZM20.0167 4.01669C20.5341 4.01669 20.9541 4.43669 20.9541 4.95419C20.9541 5.47169 20.5341 5.89169 20.0167 5.89169C19.4992 5.89169 19.0792 5.47169 19.0792 4.95419C19.0792 4.43669 19.4992 4.01669 20.0167 4.01669ZM16 4.01669C16.5175 4.01669 16.9375 4.43669 16.9375 4.95419C16.9375 5.47169 16.5175 5.89169 16 5.89169C15.4825 5.89169 15.0625 5.47169 15.0625 4.95419C15.0625 4.43669 15.4825 4.01669 16 4.01669ZM11.9833 4.01669C12.5008 4.01669 12.9208 4.43669 12.9208 4.95419C12.9208 5.47169 12.5008 5.89169 11.9833 5.89169C11.4658 5.89169 11.0458 5.47169 11.0458 4.95419C11.0458 4.43669 11.4658 4.01669 11.9833 4.01669Z" fill="white"/>
</svg>
