<svg width="182" height="32" viewBox="0 0 182 32" fill="none" xmlns="http://www.w3.org/2000/svg">
<g clip-path="url(#clip0)">
<path d="M43.2 11.3557H47.0025C49.2155 11.3557 50.5558 12.6648 50.5558 14.5661V14.5972C50.5558 16.7479 48.8727 17.87 46.8155 17.87H45.2571V20.644H43.2V11.3557ZM46.8779 16.0311C47.9064 16.0311 48.4987 15.4076 48.4987 14.6284V14.5972C48.4987 13.6934 47.8753 13.1947 46.8467 13.1947H45.2571V16.0311H46.8779Z" fill="#30485F"/>
<path d="M55.0753 11.3557H59.3143C60.4987 11.3557 61.4026 11.6986 62.026 12.2908C62.5559 12.8207 62.8363 13.5376 62.8363 14.4103V14.4414C62.8363 15.9376 62.026 16.8726 60.8415 17.309L63.1169 20.6128H60.7169L58.7221 17.6518H57.1325V20.6128H55.1065V11.3557H55.0753ZM59.1896 15.8752C60.1871 15.8752 60.748 15.3453 60.748 14.5661V14.5349C60.748 13.6622 60.1247 13.1947 59.1584 13.1947H57.1325V15.844H59.1896V15.8752Z" fill="#30485F"/>
<path d="M67.2625 16.0311C67.2625 13.3818 69.3508 11.2 72.2183 11.2C75.0858 11.2 77.143 13.3194 77.143 15.9687V15.9999C77.143 18.6493 75.0547 20.7999 72.1872 20.7999C69.3197 20.7999 67.2625 18.6493 67.2625 16.0311ZM74.9924 16.0311C74.9924 14.4103 73.8391 13.1012 72.1872 13.1012C70.5352 13.1012 69.4131 14.4103 69.4131 15.9999V16.0311C69.4131 17.6207 70.5664 18.961 72.2183 18.961C73.8703 18.8987 74.9924 17.6207 74.9924 16.0311Z" fill="#30485F"/>
<path d="M92.0729 11.3557H99.0545V13.1635H94.0985V15.0336H98.4625V16.8414H94.0985V18.7739H99.1481V20.5817H92.0729V11.3557Z" fill="#30485F"/>
<path d="M103.543 16.0311C103.543 13.3818 105.538 11.2 108.374 11.2C110.119 11.2 111.179 11.7922 112.021 12.6337L110.712 14.1298C109.995 13.4753 109.278 13.0701 108.343 13.0701C106.785 13.0701 105.662 14.3791 105.662 15.9687V15.9999C105.662 17.5895 106.754 18.9298 108.343 18.9298C109.402 18.9298 110.058 18.4935 110.774 17.8389L112.083 19.148C111.117 20.1766 110.058 20.7999 108.281 20.7999C105.569 20.7999 103.543 18.6805 103.543 16.0311Z" fill="#30485F"/>
<path d="M118.909 13.2259H116.073V11.3557H123.771V13.2259H120.935V20.6128H118.909V13.2259Z" fill="#30485F"/>
<path d="M135.366 11.3557H139.668C140.727 11.3557 141.569 11.6362 142.099 12.1661C142.535 12.6024 142.722 13.1012 142.722 13.7557V13.7869C142.722 14.8466 142.162 15.4076 141.506 15.7817C142.566 16.1869 143.252 16.8103 143.252 18.057V18.0882C143.252 19.7713 141.881 20.644 139.792 20.644H135.366V11.3557ZM140.696 14.0986C140.696 13.4752 140.229 13.1324 139.356 13.1324H137.33V15.0959H139.2C140.135 15.0959 140.696 14.8155 140.696 14.0986ZM139.699 16.8103H137.33V18.8362H139.762C140.665 18.8362 141.195 18.5245 141.195 17.8388V17.8076C141.226 17.1843 140.758 16.8103 139.699 16.8103Z" fill="#30485F"/>
<path d="M147.958 11.3557H149.985V18.7739H154.598V20.644H147.927V11.3557H147.958Z" fill="#30485F"/>
<path d="M158.244 16.0311C158.244 13.3818 160.333 11.2 163.2 11.2C166.067 11.2 168.125 13.3194 168.125 15.9687V15.9999C168.125 18.6493 166.036 20.7999 163.169 20.7999C160.302 20.7999 158.244 18.6493 158.244 16.0311ZM165.943 16.0311C165.943 14.4103 164.79 13.1012 163.138 13.1012C161.486 13.1012 160.364 14.4103 160.364 15.9999V16.0311C160.364 17.6207 161.517 18.961 163.169 18.961C164.821 18.8987 165.943 17.6207 165.943 16.0311Z" fill="#30485F"/>
<path d="M172.519 16.0311C172.519 13.3818 174.514 11.2 177.35 11.2C179.096 11.2 180.156 11.7922 180.998 12.6337L179.688 14.1298C178.971 13.4753 178.254 13.0701 177.319 13.0701C175.761 13.0701 174.639 14.3791 174.639 15.9687V15.9999C174.639 17.5895 175.73 18.9298 177.319 18.9298C178.379 18.9298 179.034 18.4935 179.75 17.8389L181.06 19.148C180.094 20.1766 179.034 20.7999 177.257 20.7999C174.546 20.7999 172.519 18.6805 172.519 16.0311Z" fill="#30485F"/>
<path d="M86.3688 11.3558H84.8728H82.0984V13.1948H84.8416V17.3402C84.8416 18.4 84.3736 18.8675 83.5944 18.8675C82.9399 18.8675 82.4416 18.5247 81.9111 17.9325L80.6335 19.3662C81.2567 20.1143 82.2231 20.7689 83.6568 20.7689C84.6544 20.7689 85.496 20.4883 86.0568 19.8961C86.6184 19.335 86.9296 18.5247 86.9296 17.4026V11.3247H86.3688V11.3558Z" fill="#30485F"/>
<path d="M13.8615 18.2489V15.6498L22.8938 7.07837H6.48828V25.2166H24.903V7.07837L24.5344 8.11067L13.8615 18.2489Z" fill="#97A3AF"/>
<path d="M13.8616 1.82489H28.4239L30.3409 0H12.0367V1.82489V2.70968H13.8616V1.82489Z" fill="white"/>
<path d="M8.62659 5.88021H10.4515V5.05071H25.0321L26.9491 3.22583H8.62659V5.88021Z" fill="white"/>
<path d="M30.0645 1.82489L28.553 3.26267L26.6544 5.06913H26.6728L25.3087 6.37788L23.3917 8.2028H23.4102L14.599 16.6083L13.8802 17.2534V15.6866V11.4838H11.0783V20.811H13.8802H14.4885L23.6314 12.0922V24.4608H7.33641V8.16592H21.7511L23.6682 6.34102H5.51152V26.2857H25.4562V23.1705H28.5714V19.9447H30.1751V25.0322C30.1751 27.871 27.8526 30.1935 25.0138 30.1935H6.98618C4.14747 30.1935 1.82489 27.871 1.82489 25.0322V6.98618C1.82489 4.14746 4.14747 1.82489 6.98618 1.82489H10.4885V0H6.98618C3.13364 0 0 3.13364 0 6.98618V25.0138C0 28.8663 3.13364 32 6.98618 32H25.0138C28.8663 32 32 28.8663 32 25.0138V19.9262V4.12903V0L30.0645 1.82489ZM26.7466 21.3456H25.4378V10.3594L26.7466 9.1244V21.3456ZM30.1567 18.1198H28.553V7.3917L30.1567 5.88018V18.1198Z" fill="#30485F"/>
</g>
<defs>
<clipPath id="clip0">
<rect width="181.6" height="32" fill="white"/>
</clipPath>
</defs>
</svg>
