<svg width="100" height="100" viewBox="0 0 100 100" fill="none" xmlns="http://www.w3.org/2000/svg">
<path d="M61.6651 56.6774C61.9236 56.6774 62.1785 56.6172 62.4097 56.5016L72.4072 51.5028C73.2303 51.0911 73.5638 50.0899 73.152 49.2667C72.9908 48.9445 72.7294 48.6831 72.4072 48.5219L62.4097 43.5232C61.5866 43.1116 60.5856 43.4455 60.174 44.2686C60.0584 44.5 59.9982 44.7552 59.9982 45.0136V48.3461H53.3332V13.3549H59.9982V16.6874C59.9984 17.6078 60.7447 18.3538 61.6651 18.3536C61.9236 18.3536 62.1785 18.2934 62.4097 18.1779L72.4072 13.1791C73.2303 12.7673 73.5638 11.7661 73.152 10.943C72.9908 10.6208 72.7294 10.3594 72.4072 10.1982L62.4097 5.19943C61.5866 4.78786 60.5856 5.12174 60.174 5.94487C60.0584 6.17627 59.9982 6.43141 59.9982 6.68989V10.0224H51.667C50.747 10.0222 50.0009 10.7678 50.0007 11.6878C50.0007 11.688 50.0007 11.6884 50.0007 11.6886V48.3461H38.2526C37.3301 38.2678 28.4122 30.8455 18.3338 31.768C8.25553 32.6905 0.833216 41.6084 1.75569 51.6868C2.61944 61.1221 10.5333 68.3432 20.0082 68.3411C29.4786 68.3278 37.3828 61.109 38.2526 51.6786H50.0007V88.3361C50.0005 89.2561 50.7462 90.0022 51.6661 90.0024C51.6663 90.0024 51.6668 90.0024 51.667 90.0024H59.9982V93.3349C59.9984 94.2553 60.7447 95.0013 61.6651 95.0011C61.9236 95.0011 62.1785 94.9409 62.4097 94.8253L72.4072 89.8266C73.2303 89.4148 73.5638 88.4136 73.152 87.5905C72.9908 87.2683 72.7294 87.0069 72.4072 86.8457L62.4097 81.8469C61.5866 81.4354 60.5856 81.7692 60.174 82.5924C60.0584 82.8238 59.9982 83.0789 59.9982 83.3374V86.6699H53.3332V51.6786H59.9982V55.0111C59.9984 55.9315 60.7447 56.6776 61.6651 56.6774ZM63.3307 47.7098L67.9364 50.0124L63.3307 52.3149V47.7098ZM63.3307 9.38609L67.9364 11.6886L63.3307 13.9912V9.38609ZM20.0082 65.0086C11.7259 65.0086 5.01196 58.2945 5.01196 50.0124C5.02133 41.734 11.7299 35.0255 20.0082 35.0161C28.2905 35.0161 35.0045 41.7301 35.0045 50.0124C35.0045 58.2945 28.2903 65.0086 20.0082 65.0086ZM63.3307 86.0336L67.9364 88.3361L63.3307 90.6387V86.0336Z" fill="#30485F"/>
<path d="M93.1455 11.2672C95.6871 8.6045 95.5891 4.38556 92.9266 1.8439C90.2639 -0.697755 86.045 -0.599654 83.5033 2.06281C81.0448 4.63841 81.0448 8.69156 83.5033 11.267C80.3129 13.0244 78.33 16.3774 78.3269 20.0198V28.351C78.3267 29.271 79.0723 30.0171 79.9923 30.0173C79.9925 30.0173 79.9929 30.0173 79.9932 30.0173H96.6557C97.5756 30.0175 98.3217 29.2718 98.3219 28.3519C98.3219 28.3516 98.3219 28.3512 98.3219 28.351V20.0198C98.3188 16.3774 96.3359 13.0246 93.1455 11.2672ZM88.3244 3.35748C90.165 3.35748 91.6569 4.8494 91.6569 6.68998C91.6569 8.53056 90.165 10.0225 88.3244 10.0225C86.4849 10.0204 84.994 8.52952 84.9919 6.68998C84.9919 4.8494 86.4838 3.35748 88.3244 3.35748ZM94.9894 26.685H81.6594V20.02C81.6594 16.339 84.6435 13.355 88.3244 13.355C92.0054 13.355 94.9894 16.339 94.9894 20.02V26.685Z" fill="#30485F"/>
<path d="M93.1455 46.2584C95.6871 43.5957 95.5891 39.3768 92.9266 36.8351C90.2639 34.2935 86.045 34.3916 83.5033 37.054C81.0448 39.6296 81.0448 43.6828 83.5033 46.2582C80.3129 48.0157 78.33 51.3686 78.3269 55.011V63.3422C78.3267 64.2622 79.0723 65.0083 79.9923 65.0085C79.9925 65.0085 79.9929 65.0085 79.9932 65.0085H96.6557C97.5756 65.0087 98.3217 64.263 98.3219 63.3431C98.3219 63.3429 98.3219 63.3424 98.3219 63.3422V55.011C98.3188 51.3686 96.3359 48.0159 93.1455 46.2584ZM88.3244 38.3487C90.165 38.3487 91.6569 39.8406 91.6569 41.6812C91.6569 43.5218 90.165 45.0137 88.3244 45.0137C86.4849 45.0116 84.994 43.5207 84.9919 41.6812C84.9919 39.8406 86.4838 38.3487 88.3244 38.3487ZM94.9894 61.6762H81.6594V55.0112C81.6594 51.3302 84.6435 48.3462 88.3244 48.3462C92.0054 48.3462 94.9894 51.3302 94.9894 55.0112V61.6762Z" fill="#30485F"/>
<path d="M93.1455 81.2498C95.6871 78.5872 95.5891 74.3682 92.9266 71.8266C90.2639 69.2849 86.045 69.383 83.5033 72.0455C81.0448 74.6211 81.0448 78.6742 83.5033 81.2496C80.3129 83.0071 78.33 86.36 78.3269 90.0024V98.3337C78.3267 99.2537 79.0723 99.9997 79.9923 99.9999C79.9925 99.9999 79.9929 99.9999 79.9932 99.9999H96.6557C97.5756 100 98.3217 99.2545 98.3219 98.3345C98.3219 98.3343 98.3219 98.3339 98.3219 98.3337V90.0024C98.3188 86.36 96.3359 83.0073 93.1455 81.2498ZM88.3244 73.3401C90.165 73.3401 91.6569 74.8321 91.6569 76.6726C91.6569 78.5132 90.165 80.0051 88.3244 80.0051C86.4849 80.0031 84.994 78.5122 84.9919 76.6726C84.9919 74.8321 86.4838 73.3401 88.3244 73.3401ZM94.9894 96.6676H81.6594V90.0026C81.6594 86.3217 84.6435 83.3376 88.3244 83.3376C92.0054 83.3376 94.9894 86.3217 94.9894 90.0026V96.6676Z" fill="#30485F"/>
</svg>
