<svg width="95" height="32" viewBox="0 0 95 32" fill="none" xmlns="http://www.w3.org/2000/svg">
<path d="M94.2656 15.3611L75.3855 26.107V4.61523L94.2656 15.3611Z" fill="#B030EC"/>
<path d="M4.86337 24L4.11937 22.56L12.8074 10.824H4.86337V7.008H18.6634V9.84L11.1994 20.184H11.9434L18.7114 19.704V24H4.86337ZM21.3562 24L20.8762 22.56L21.3562 20.16V7.008H33.2362L34.4362 7.728L32.8522 11.088L30.6922 10.848H25.6762V13.488H32.1322V17.208H29.3002L25.6762 16.968V20.16H32.8522L35.7082 22.464L34.2922 24H21.3562ZM41.2397 24V10.848L36.4397 11.088V7.008H50.4797V11.088L45.5597 10.848V20.16L45.8237 22.56L45.5597 24H41.2397ZM57.3917 24V16.8L51.4397 8.448V7.008H56.4797L59.3597 12.432H59.8397L62.6957 7.008H67.7357V8.448L61.6157 16.944L61.7597 19.368V24H57.3917Z" fill="#B030EC"/>
</svg>
