<svg width="100" height="100" viewBox="0 0 100 100" fill="none" xmlns="http://www.w3.org/2000/svg">
<path d="M94.9764 96.6685V35.0342C94.9764 34.1143 94.2305 33.3684 93.3106 33.3684H76.6527C75.7327 33.3684 74.9869 34.1143 74.9869 35.0342V96.6685H71.6553V58.3553C71.6553 57.4354 70.9094 56.6895 69.9895 56.6895H53.3316C52.4117 56.6895 51.6658 57.4354 51.6658 58.3553V96.6685H48.3342V41.6974C48.3342 40.7774 47.5884 40.0316 46.6684 40.0316H30.0105C29.0906 40.0316 28.3447 40.7774 28.3447 41.6974V96.6685H25.0131V65.0185C25.0131 64.0985 24.2673 63.3527 23.3473 63.3527H6.68941C5.76948 63.3527 5.02362 64.0985 5.02362 65.0185V96.6685H0.0262451V100H99.9738V96.6685H94.9764ZM21.6815 96.6685H8.35521V66.6843H21.6815V96.6685ZM45.0026 96.6685H31.6763V43.3632H45.0026V96.6685ZM68.3237 96.6685H54.9974V60.0211H68.3237V96.6685ZM91.6448 96.6685H78.3185V36.7H91.6448V96.6685Z" fill="#30485F"/>
<path d="M10.4247 45.3137C11.7873 46.2145 13.3848 46.6949 15.0183 46.6946C19.6182 46.6944 23.3471 42.9654 23.3468 38.3653C23.3468 36.7324 22.8667 35.1353 21.9663 33.7731L33.7568 21.981C35.1082 22.8853 36.6967 23.3698 38.3227 23.3736C38.8131 23.3738 39.3024 23.3309 39.7853 23.2453C41.3701 22.9675 42.8393 22.2333 44.0131 21.1331L53.8962 28.7307C52.2467 33.0247 54.3903 37.843 58.6843 39.4926C62.9783 41.1421 67.7966 38.9985 69.4462 34.7045C70.4136 32.1862 70.1015 29.3554 68.6085 27.1083L80.3956 15.3211C84.243 17.8677 89.4263 16.813 91.9727 12.9657C94.5193 9.11834 93.4646 3.93502 89.6173 1.38864C85.7699 -1.15794 80.5866 -0.10328 78.0402 3.74407C76.1899 6.53948 76.1899 10.1703 78.0402 12.9657L66.2531 24.7528C62.9517 22.5706 58.5706 23.0127 55.7719 25.8106C55.7403 25.8423 55.7219 25.8789 55.6919 25.9089L45.9521 18.4228C47.823 14.2204 45.9329 9.2972 41.7305 7.42631C37.5282 5.55542 32.6049 7.44546 30.734 11.6478C29.5769 14.2471 29.8266 17.2574 31.3964 19.6303L19.6109 31.4175C15.7735 28.8807 10.6065 29.9351 8.06966 33.7725C5.53308 37.6098 6.58731 42.7769 10.4247 45.3137ZM84.9816 3.38406C87.7416 3.38406 89.9789 5.62142 89.9789 8.38143C89.9789 11.1414 87.7416 13.3788 84.9816 13.3788C82.2216 13.3788 79.9842 11.1414 79.9842 8.38143C79.9842 5.62142 82.2216 3.38406 84.9816 3.38406ZM58.125 28.17C59.0625 27.232 60.3343 26.7049 61.6605 26.7051C64.4205 26.7047 66.6581 28.9419 66.6585 31.7019C66.6587 33.0281 66.1317 34.2999 65.1936 35.2373C63.2155 37.1228 60.1055 37.1228 58.1273 35.2373C56.175 33.2863 56.1742 30.1221 58.125 28.17ZM34.2461 12.1784C34.2463 12.1782 34.2463 12.178 34.2465 12.1778C35.0041 11.0896 36.1651 10.3494 37.4715 10.1222C37.7616 10.0724 38.0552 10.0474 38.3494 10.0472C39.372 10.0483 40.3694 10.3641 41.2062 10.9517C43.4669 12.5351 44.0162 15.6512 42.4329 17.9118C40.8495 20.1725 37.7335 20.7216 35.4728 19.1385C33.2121 17.5552 32.6628 14.4391 34.2461 12.1784ZM11.4829 34.8332C11.4837 34.8323 11.4843 34.8317 11.4852 34.8309C13.4375 32.8796 16.6018 32.8802 18.5531 34.8325C20.5044 36.7849 20.5038 39.9492 18.5514 41.9005C16.5733 43.786 13.4633 43.786 11.4852 41.9005C9.53285 39.9494 9.53202 36.7853 11.4829 34.8332Z" fill="#30485F"/>
</svg>
