<svg width="182" height="32" viewBox="0 0 182 32" fill="none" xmlns="http://www.w3.org/2000/svg">
<g clip-path="url(#clip0)">
<path d="M43.2 11.356H47.0025C49.2155 11.356 50.5558 12.6651 50.5558 14.5664V14.5975C50.5558 16.7482 48.8727 17.8703 46.8155 17.8703H45.2571V20.6443H43.2V11.356ZM46.8779 16.0313C47.9064 16.0313 48.4987 15.4079 48.4987 14.6287V14.5975C48.4987 13.6936 47.8753 13.1949 46.8467 13.1949H45.2571V16.0313H46.8779Z" fill="#97A3AF"/>
<path d="M55.0753 11.356H59.3143C60.4987 11.356 61.4026 11.6988 62.026 12.291C62.5559 12.8209 62.8363 13.5378 62.8363 14.4105V14.4416C62.8363 15.9378 62.026 16.8728 60.8415 17.3092L63.1169 20.6131H60.7169L58.7221 17.652H57.1325V20.6131H55.1065V11.356H55.0753ZM59.1896 15.8754C60.1871 15.8754 60.748 15.3456 60.748 14.5664V14.5352C60.748 13.6624 60.1247 13.1949 59.1584 13.1949H57.1325V15.8443H59.1896V15.8754Z" fill="#97A3AF"/>
<path d="M67.2625 16.0309C67.2625 13.3815 69.3508 11.1997 72.2183 11.1997C75.0858 11.1997 77.143 13.3191 77.143 15.9685V15.9997C77.143 18.6491 75.0547 20.7997 72.1872 20.7997C69.3197 20.7997 67.2625 18.6491 67.2625 16.0309ZM74.9924 16.0309C74.9924 14.4101 73.8391 13.101 72.1872 13.101C70.5352 13.101 69.4131 14.4101 69.4131 15.9997V16.0309C69.4131 17.6205 70.5664 18.9607 72.2183 18.9607C73.8703 18.8984 74.9924 17.6205 74.9924 16.0309Z" fill="#97A3AF"/>
<path d="M92.0729 11.356H99.0545V13.1637H94.0985V15.0339H98.4625V16.8416H94.0985V18.7741H99.1481V20.582H92.0729V11.356Z" fill="#97A3AF"/>
<path d="M103.543 16.0309C103.543 13.3815 105.538 11.1997 108.374 11.1997C110.119 11.1997 111.179 11.7919 112.021 12.6335L110.712 14.1295C109.995 13.4751 109.278 13.0699 108.343 13.0699C106.785 13.0699 105.662 14.3789 105.662 15.9685V15.9997C105.662 17.5893 106.754 18.9295 108.343 18.9295C109.402 18.9295 110.058 18.4932 110.774 17.8387L112.083 19.1478C111.117 20.1763 110.058 20.7997 108.281 20.7997C105.569 20.7997 103.543 18.6803 103.543 16.0309Z" fill="#97A3AF"/>
<path d="M118.909 13.2261H116.073V11.356H123.771V13.2261H120.935V20.6131H118.909V13.2261Z" fill="#97A3AF"/>
<path d="M135.366 11.356H139.668C140.727 11.356 141.569 11.6364 142.099 12.1664C142.535 12.6027 142.722 13.1014 142.722 13.756V13.7872C142.722 14.8468 142.162 15.4079 141.506 15.782C142.566 16.1872 143.252 16.8105 143.252 18.0572V18.0884C143.252 19.7715 141.881 20.6443 139.792 20.6443H135.366V11.356ZM140.696 14.0988C140.696 13.4754 140.229 13.1326 139.356 13.1326H137.33V15.0962H139.2C140.135 15.0962 140.696 14.8157 140.696 14.0988ZM139.699 16.8105H137.33V18.8364H139.762C140.665 18.8364 141.195 18.5248 141.195 17.8391V17.8079C141.226 17.1845 140.758 16.8105 139.699 16.8105Z" fill="#97A3AF"/>
<path d="M147.958 11.356H149.985V18.7741H154.598V20.6443H147.927V11.356H147.958Z" fill="#97A3AF"/>
<path d="M158.244 16.0309C158.244 13.3815 160.333 11.1997 163.2 11.1997C166.067 11.1997 168.125 13.3191 168.125 15.9685V15.9997C168.125 18.6491 166.036 20.7997 163.169 20.7997C160.302 20.7997 158.244 18.6491 158.244 16.0309ZM165.943 16.0309C165.943 14.4101 164.79 13.101 163.138 13.101C161.486 13.101 160.364 14.4101 160.364 15.9997V16.0309C160.364 17.6205 161.517 18.9607 163.169 18.9607C164.821 18.8984 165.943 17.6205 165.943 16.0309Z" fill="#97A3AF"/>
<path d="M172.519 16.0309C172.519 13.3815 174.514 11.1997 177.35 11.1997C179.096 11.1997 180.156 11.7919 180.998 12.6335L179.688 14.1295C178.971 13.4751 178.254 13.0699 177.319 13.0699C175.761 13.0699 174.639 14.3789 174.639 15.9685V15.9997C174.639 17.5893 175.73 18.9295 177.319 18.9295C178.379 18.9295 179.034 18.4932 179.75 17.8387L181.06 19.1478C180.094 20.1763 179.034 20.7997 177.257 20.7997C174.546 20.7997 172.519 18.6803 172.519 16.0309Z" fill="#97A3AF"/>
<path d="M86.3688 11.3558H84.8728H82.0984V13.1948H84.8416V17.3402C84.8416 18.4 84.3736 18.8675 83.5944 18.8675C82.9399 18.8675 82.4416 18.5247 81.9111 17.9325L80.6335 19.3662C81.2567 20.1143 82.2231 20.7689 83.6568 20.7689C84.6544 20.7689 85.496 20.4883 86.0568 19.8961C86.6184 19.335 86.9296 18.5247 86.9296 17.4026V11.3247H86.3688V11.3558Z" fill="#97A3AF"/>
<path d="M13.8616 1.82489H28.4239L30.3409 0H12.0367V1.82489V2.70968H13.8616V1.82489Z" fill="#97A3AF"/>
<path d="M8.62659 5.87996H10.4515V5.05047H25.0321L26.9491 3.22559H8.62659V5.87996Z" fill="#97A3AF"/>
<path d="M30.0645 1.82489L28.553 3.26267L26.6544 5.06913H26.6728L25.3087 6.37788L23.3917 8.2028H23.4102L14.599 16.6083L13.8802 17.2534V15.6866V11.4838H11.0783V20.811H13.8802H14.4885L23.6314 12.0922V24.4608H7.33641V8.16592H21.7511L23.6682 6.34102H5.51152V26.2857H25.4562V23.1705H28.5714V19.9447H30.1751V25.0322C30.1751 27.871 27.8526 30.1935 25.0138 30.1935H6.98618C4.14747 30.1935 1.82489 27.871 1.82489 25.0322V6.98618C1.82489 4.14746 4.14747 1.82489 6.98618 1.82489H10.4885V0H6.98618C3.13364 0 0 3.13364 0 6.98618V25.0138C0 28.8663 3.13364 32 6.98618 32H25.0138C28.8663 32 32 28.8663 32 25.0138V19.9262V4.12903V0L30.0645 1.82489ZM26.7466 21.3456H25.4378V10.3594L26.7466 9.1244V21.3456ZM30.1567 18.1198H28.553V7.3917L30.1567 5.88018V18.1198Z" fill="#97A3AF"/>
</g>
<defs>
<clipPath id="clip0">
<rect width="181.6" height="32" fill="white"/>
</clipPath>
</defs>
</svg>
