<svg width="100" height="100" viewBox="0 0 100 100" fill="none" xmlns="http://www.w3.org/2000/svg">
<g clip-path="url(#clip0)">
<path d="M18.2846 34.5847H11.3085C10.4993 34.5847 9.84363 35.2406 9.84363 36.0496C9.84363 36.8585 10.4993 37.5144 11.3085 37.5144H18.2846C19.0938 37.5144 19.7495 36.8585 19.7495 36.0496C19.7495 35.2406 19.0938 34.5847 18.2846 34.5847Z" fill="#30485F"/>
<path d="M91.1313 6.05566H91.1309H47.9922H47.9918C43.1016 6.05566 39.123 10.0342 39.123 14.9244V14.9248V23.7279C39.123 24.5369 39.7787 25.1928 40.5879 25.1928C41.3971 25.1928 42.0527 24.5369 42.0527 23.7279V19.7891H97.0703V60.292C97.0703 63.7469 94.2596 66.5576 90.8047 66.5576H86.3125L86.3135 37.935C86.3135 35.6086 85.4119 33.4898 83.9414 31.9064C82.3209 30.1607 80.009 29.0656 77.4453 29.0656H8.86914C3.97871 29.0656 0 33.0443 0 37.9348V37.935V83.3018C0 88.3721 4.125 92.4971 9.19531 92.4971H71.5742C72.3834 92.4971 73.0391 91.8412 73.0391 91.0322C73.0391 90.2232 72.3834 89.5674 71.5742 89.5674H9.19531C5.74043 89.5674 2.92969 86.7566 2.92969 83.3018V42.7996H83.3828V83.3018C83.3828 83.3592 83.3801 83.416 83.3785 83.4732L75.5885 75.6832H77.448C79.9789 75.6832 82.0379 73.6242 82.0379 71.0934C82.0379 68.5625 79.9789 66.5035 77.448 66.5035H64.5135C64.508 66.5035 64.5023 66.5035 64.4969 66.5035C63.2879 66.5035 62.0893 67.0176 61.2057 67.9156C60.3551 68.7805 59.898 69.9133 59.9178 71.1068V84.0336C59.9178 86.5645 61.9768 88.6234 64.5076 88.6234C67.0385 88.6234 69.0975 86.5645 69.0975 84.0336V82.174L79.5631 92.6396C81.1855 94.2242 84.1049 94.5279 86.0541 92.6396C86.9209 91.7729 87.3984 90.6203 87.3984 89.3941C87.3984 88.168 86.9209 87.0156 86.0541 86.1486L85.9076 86.0021C86.1756 85.1318 86.3125 84.2275 86.3125 83.3016V69.4871H90.8047C95.875 69.4871 100 65.3621 100 60.2918V14.9248V14.9244C100 10.0342 96.0215 6.05566 91.1313 6.05566V6.05566ZM83.9912 90.5596C83.1814 91.3316 82.1061 91.0184 81.6256 90.5592L68.6686 77.6021C68.2494 77.183 67.6193 77.0576 67.0721 77.2846C66.5246 77.5113 66.1678 78.0455 66.1678 78.6379V84.0338C66.1678 84.9492 65.423 85.6939 64.5076 85.6939C63.5922 85.6939 62.8475 84.9492 62.8475 84.0338V71.0936C62.8475 71.0836 62.8473 71.0736 62.8471 71.0639C62.8365 70.5463 63.0844 70.1836 63.2941 69.9705C63.6203 69.6389 64.0807 69.4334 64.5027 69.4334H64.5076H77.4478C78.3633 69.4334 79.108 70.1781 79.108 71.0936C79.108 72.009 78.3633 72.7537 77.4478 72.7537H72.052C71.4596 72.7537 70.9252 73.1105 70.6986 73.658C70.4719 74.2055 70.5971 74.8354 71.016 75.2543L83.1467 87.385C84.0187 88.1805 85.0865 89.1945 83.9912 90.5596V90.5596ZM2.92969 39.8699V37.935C2.92969 37.8709 2.93242 37.8076 2.93457 37.7441C2.93574 37.7061 2.93555 37.6676 2.9375 37.6297C3.09687 34.4961 5.69629 31.9959 8.86895 31.9959H77.4447C79.082 31.9959 80.5666 32.6619 81.642 33.7371C82.717 34.8125 83.3828 36.2973 83.3828 37.9348V39.8701H2.92969V39.8699ZM42.0527 16.8594V14.9248C42.0527 11.6498 44.7172 8.98535 47.9922 8.98535H91.1309C94.4061 8.98535 97.0703 11.6498 97.0703 14.9248V16.8594H42.0527Z" fill="#30485F"/>
<path d="M57.4076 11.5742H50.4314C49.6222 11.5742 48.9666 12.2301 48.9666 13.0391C48.9666 13.8481 49.6222 14.5039 50.4314 14.5039H57.4076C58.2167 14.5039 58.8724 13.8481 58.8724 13.0391C58.8724 12.2301 58.2165 11.5742 57.4076 11.5742V11.5742Z" fill="#30485F"/>
<path d="M40.6583 52.3427C37.288 48.8005 32.353 46.5143 27.1077 46.5304C21.8884 46.5304 17.1618 48.677 13.762 52.1329C3.81962 62.3874 8.48388 78.5433 20.8661 82.92C27.2491 85.3567 35.5247 83.4638 40.2077 78.6335C43.6798 75.2317 45.838 70.4938 45.838 65.2606C45.7923 60.3075 44.0669 56.046 40.6583 52.3427ZM16.5462 77.0007C16.3173 73.0177 16.6747 69.4505 17.613 66.3124C18.8038 68.0214 20.1636 69.5237 21.6349 70.8425C20.2101 73.1823 18.9433 75.5977 17.8493 78.0526C17.3968 77.7243 16.9608 77.3743 16.5462 77.0007ZM20.3851 79.5556C21.4077 77.2239 22.5983 74.928 23.9362 72.6997C25.4852 73.8276 27.1114 74.7909 28.7591 75.6116C26.6229 77.4097 24.1524 78.9364 21.3128 79.9556C20.9989 79.8313 20.689 79.6991 20.3851 79.5556V79.5556ZM24.6116 69.5665C22.4835 67.8649 20.3114 65.395 18.9333 62.9231C20.3808 59.9731 22.4638 57.4997 25.1811 55.5225C29.2075 52.5931 33.4538 51.6905 34.8001 51.4661C35.6581 51.9464 36.4677 52.503 37.2177 53.1292C35.9899 54.0905 34.0866 55.6825 31.8573 57.8995C31.2837 58.47 31.2813 59.3975 31.8518 59.9712C32.3077 60.3942 33.1624 60.6393 33.9233 59.9768C36.2243 57.6884 38.1755 56.0901 39.3011 55.2229C39.7364 55.7509 40.1352 56.3093 40.5001 56.8911C39.8229 59.1124 37.0518 67.214 31.0272 73.4839C28.6095 72.3802 26.4704 71.0723 24.6116 69.5665V69.5665ZM29.9774 49.7261C28.064 50.4138 25.8007 51.4682 23.5679 53.0737C20.8976 54.9936 18.8974 57.2436 17.4153 59.6567C16.4462 57.0153 16.2288 54.8413 16.1823 53.8626C19.0224 51.1391 22.8716 49.4602 27.1077 49.4602C28.088 49.4602 29.046 49.5544 29.9774 49.7261ZM13.6333 57.0188C13.9657 58.6975 14.5759 60.7989 15.6901 63.0602C14.2819 66.4899 13.7032 70.0798 13.5794 73.4151C12.1382 71.0331 11.3073 68.2423 11.3073 65.2606C11.3073 62.2425 12.1591 59.42 13.6333 57.0188V57.0188ZM26.0419 81.0212C28.0302 79.9251 29.9208 78.554 31.695 76.9249C33.1235 77.497 34.5417 77.9761 35.9124 78.3739C33.3946 80.0698 30.3649 81.0612 27.1077 81.0612C26.7491 81.061 26.3946 81.0448 26.0419 81.0212V81.0212ZM38.62 76.0663C36.9712 75.6634 35.4089 75.1952 33.9325 74.663C35.7235 72.6788 37.3712 70.4077 38.8499 67.8679C40.3995 65.2063 41.5087 62.702 42.255 60.7727C42.6776 62.1964 42.9081 63.7018 42.9081 65.2608C42.9081 69.4374 41.2761 73.2382 38.62 76.0663Z" fill="#30485F"/>
<path d="M27.8276 62.3765C26.8766 62.3765 26.1057 63.1474 26.1057 64.0983C26.1057 65.0493 26.8766 65.8202 27.8276 65.8202C28.7786 65.8202 29.5495 65.0493 29.5495 64.0983C29.5495 63.1474 28.7786 62.3765 27.8276 62.3765Z" fill="#30485F"/>
<path d="M76.0761 34.6887C75.2802 34.6887 74.6349 35.334 74.6349 36.1299C74.6349 36.9258 75.28 37.5711 76.0761 37.5711C76.872 37.5711 77.5173 36.9258 77.5173 36.1299C77.5171 35.334 76.872 34.6887 76.0761 34.6887Z" fill="#30485F"/>
<path d="M71.5331 34.6887C70.7372 34.6887 70.0919 35.334 70.0919 36.1299C70.0919 36.9258 70.7372 37.5711 71.5331 37.5711C72.329 37.5711 72.9743 36.9258 72.9743 36.1299C72.9743 35.334 72.329 34.6887 71.5331 34.6887Z" fill="#30485F"/>
<path d="M90.6121 14.4806C91.4081 14.4806 92.0533 13.8353 92.0533 13.0394C92.0533 12.2434 91.4081 11.5981 90.6121 11.5981C89.8162 11.5981 89.1709 12.2434 89.1709 13.0394C89.1709 13.8353 89.8162 14.4806 90.6121 14.4806Z" fill="#30485F"/>
<path d="M75.1227 60.1357V58.0121C75.1227 55.7615 73.2917 53.9307 71.0413 53.9307H55.6751C53.4247 53.9307 51.5936 55.7617 51.5936 58.0121V60.1357C51.5936 62.3863 53.4247 64.2172 55.6751 64.2172H71.0413C73.2917 64.2174 75.1227 62.3863 75.1227 60.1357ZM54.5231 60.1357V58.0121C54.5231 57.377 55.0399 56.8604 55.6749 56.8604H71.0411C71.6762 56.8604 72.1928 57.3771 72.1928 58.0121V60.1357C72.1928 60.7709 71.6761 61.2875 71.0411 61.2875H55.6749C55.0399 61.2877 54.5231 60.7709 54.5231 60.1357Z" fill="#30485F"/>
</g>
<defs>
<clipPath id="clip0">
<rect width="100" height="100" fill="white"/>
</clipPath>
</defs>
</svg>
