<svg width="60" height="44" viewBox="0 0 60 44" fill="none" xmlns="http://www.w3.org/2000/svg">
<rect x="50.9995" y="27.4375" width="0.999795" height="1.99962" fill="#C4C4C4"/>
<rect x="50.9995" y="30.438" width="0.999795" height="1.99962" fill="#C4C4C4"/>
<rect x="52" y="30.438" width="0.999809" height="1.99959" transform="rotate(-90 52 30.438)" fill="#C4C4C4"/>
<rect x="49" y="30.438" width="0.999809" height="1.99959" transform="rotate(-90 49 30.438)" fill="#C4C4C4"/>
<rect x="58.1145" y="38.25" width="0.628571" height="1.25" fill="#C4C4C4"/>
<rect x="58.1145" y="40.1255" width="0.628571" height="1.25" fill="#C4C4C4"/>
<rect x="58.7429" y="40.1255" width="0.625" height="1.25714" transform="rotate(-90 58.7429 40.1255)" fill="#C4C4C4"/>
<rect x="56.8572" y="40.1255" width="0.625" height="1.25714" transform="rotate(-90 56.8572 40.1255)" fill="#C4C4C4"/>
<rect x="9.85718" y="15.5" width="0.999991" height="2" fill="#C4C4C4"/>
<rect x="9.85718" y="18.5" width="0.999991" height="2" fill="#C4C4C4"/>
<rect x="10.8572" y="18.5" width="1" height="1.99998" transform="rotate(-90 10.8572 18.5)" fill="#C4C4C4"/>
<rect x="7.85718" y="18.5" width="1" height="1.99998" transform="rotate(-90 7.85718 18.5)" fill="#C4C4C4"/>
<rect x="9.54297" y="40.1875" width="0.628571" height="1.25" fill="#C4C4C4"/>
<rect x="9.54297" y="42.063" width="0.628571" height="1.25" fill="#C4C4C4"/>
<rect x="10.1714" y="42.063" width="0.625" height="1.25714" transform="rotate(-90 10.1714 42.063)" fill="#C4C4C4"/>
<rect x="8.28564" y="42.063" width="0.625" height="1.25714" transform="rotate(-90 8.28564 42.063)" fill="#C4C4C4"/>
<rect x="16.0286" y="1.4375" width="0.942857" height="1.875" fill="#C4C4C4"/>
<rect x="16.0286" y="4.24951" width="0.942857" height="1.875" fill="#C4C4C4"/>
<rect x="16.9714" y="4.24951" width="0.9375" height="1.88571" transform="rotate(-90 16.9714 4.24951)" fill="#C4C4C4"/>
<rect x="14.1428" y="4.24951" width="0.9375" height="1.88571" transform="rotate(-90 14.1428 4.24951)" fill="#C4C4C4"/>
<rect x="1.25732" y="26.4375" width="0.628571" height="1.25" fill="#C4C4C4"/>
<rect x="1.25732" y="28.313" width="0.628571" height="1.25" fill="#C4C4C4"/>
<rect x="1.88574" y="28.313" width="0.625" height="1.25714" transform="rotate(-90 1.88574 28.313)" fill="#C4C4C4"/>
<rect y="28.313" width="0.625" height="1.25714" transform="rotate(-90 0 28.313)" fill="#C4C4C4"/>
<rect x="38.9714" width="0.628571" height="1.25" fill="#C4C4C4"/>
<rect x="38.9714" y="1.87549" width="0.628571" height="1.25" fill="#C4C4C4"/>
<rect x="39.5999" y="1.87549" width="0.625" height="1.25714" transform="rotate(-90 39.5999 1.87549)" fill="#C4C4C4"/>
<rect x="37.7144" y="1.87549" width="0.625" height="1.25714" transform="rotate(-90 37.7144 1.87549)" fill="#C4C4C4"/>
<rect x="52.2573" y="6.4375" width="0.628571" height="1.25" fill="#C4C4C4"/>
<rect x="52.2573" y="8.31299" width="0.628571" height="1.25" fill="#C4C4C4"/>
<rect x="52.8857" y="8.31299" width="0.625" height="1.25714" transform="rotate(-90 52.8857 8.31299)" fill="#C4C4C4"/>
<rect x="51" y="8.31299" width="0.625" height="1.25714" transform="rotate(-90 51 8.31299)" fill="#C4C4C4"/>
<rect x="57.2573" y="18.4375" width="0.628571" height="1.25" fill="#C4C4C4"/>
<rect x="57.2573" y="20.313" width="0.628571" height="1.25" fill="#C4C4C4"/>
<rect x="57.8857" y="20.313" width="0.625" height="1.25714" transform="rotate(-90 57.8857 20.313)" fill="#C4C4C4"/>
<rect x="56" y="20.313" width="0.625" height="1.25714" transform="rotate(-90 56 20.313)" fill="#C4C4C4"/>
<rect x="13.8857" y="29.4375" width="0.942857" height="1.875" fill="#C4C4C4"/>
<rect x="13.8857" y="32.2495" width="0.942857" height="1.875" fill="#C4C4C4"/>
<rect x="14.8286" y="32.2495" width="0.9375" height="1.88571" transform="rotate(-90 14.8286 32.2495)" fill="#C4C4C4"/>
<rect x="12" y="32.2495" width="0.9375" height="1.88571" transform="rotate(-90 12 32.2495)" fill="#C4C4C4"/>
<path d="M36.1465 20.1465L30.293 26H28V25H27.987C28.951 24.2785 29.65 23.2215 29.899 22H30C31.103 22 32 21.103 32 20C32 19.497 31.8075 19.0425 31.5 18.691V17C31.5 13.416 28.584 10.5 25 10.5C21.416 10.5 18.5 13.416 18.5 17V18.691C18.1925 19.0425 18 19.497 18 20C18 21.103 18.897 22 20 22H20.101C20.35 23.2215 21.049 24.2785 22.013 25H22V26H19.5C16.743 26 14.5 28.243 14.5 31V37C14.5 37.2765 14.7235 37.5 15 37.5H35C35.2765 37.5 35.5 37.2765 35.5 37V31C35.5 28.616 33.8215 26.6195 31.585 26.122L36.707 21H45.5V20H36.5C36.367 20 36.24 20.0525 36.1465 20.1465ZM22.2655 27L24.2115 29.335L22.292 30.2945L21.1935 27H22.2655ZM24.91 32.5H25.0905L25.8905 36.5H24.11L24.91 32.5ZM25.191 31.5H24.809L24.271 30.4235L25 30.059L25.729 30.4235L25.191 31.5ZM25.7885 29.335L27.7345 27H28.8065L27.708 30.295L25.7885 29.335ZM30 21V19C30.5515 19 31 19.4485 31 20C31 20.5515 30.5515 21 30 21ZM19 20C19 19.4485 19.4485 19 20 19V21C19.4485 21 19 20.5515 19 20ZM20 18C19.8265 18 19.661 18.029 19.5 18.071V17C19.5 13.9675 21.9675 11.5 25 11.5C28.0325 11.5 30.5 13.9675 30.5 17V18.071C30.339 18.029 30.1735 18 30 18C30 17.7235 29.7765 17.5 29.5 17.5C28.7175 17.5 27.9695 17.126 27.5 16.4995L26.9 15.6995C26.7115 15.4485 26.2885 15.4485 26.1 15.6995L25.5 16.5C25.0305 17.126 24.2825 17.5 23.5 17.5H20.5C20.2235 17.5 20 17.7235 20 18ZM21 21V18.5H23.5C24.5955 18.5 25.6425 17.9765 26.3 17.1L26.5 16.833L26.7 17.0995C27.2565 17.8415 28.0915 18.331 29 18.4635V21C29 23.2055 27.2055 25 25 25C22.7945 25 21 23.2055 21 21ZM25 26C25.711 26 26.387 25.8485 27 25.5795V26.319L25 28.719L23 26.319V25.5795C23.613 25.8485 24.289 26 25 26ZM15.5 31C15.5 28.7945 17.2945 27 19.5 27H20.14L21.526 31.158C21.5715 31.295 21.675 31.406 21.8085 31.4615C21.87 31.4875 21.935 31.5 22 31.5C22.0765 31.5 22.1535 31.4825 22.2235 31.4475L23.376 30.871L23.9755 32.0705L23.09 36.5H18.5V33.5H17.5V36.5H15.5V31ZM34.5 31V36.5H32.5V33.5H31.5V36.5H26.91L26.024 32.0705L26.6235 30.871L27.776 31.4475C27.8465 31.4825 27.9235 31.5 28 31.5C28.065 31.5 28.13 31.4875 28.1915 31.462C28.3255 31.4065 28.429 31.2955 28.474 31.1585L29.86 27H30.5C32.7055 27 34.5 28.7945 34.5 31Z" fill="white"/>
<path d="M44.5 18V11C44.5 10.7235 44.2765 10.5 44 10.5H42C41.7235 10.5 41.5 10.7235 41.5 11V18H40.5V14C40.5 13.7235 40.2765 13.5 40 13.5H38C37.7235 13.5 37.5 13.7235 37.5 14V18H36.5V15.5C36.5 15.2235 36.2765 15 36 15H34C33.7235 15 33.5 15.2235 33.5 15.5V18H32.5V19H45.5V18H44.5ZM42.5 11.5H43.5V18H42.5V11.5ZM38.5 14.5H39.5V18H38.5V14.5ZM34.5 16H35.5V18H34.5V16Z" fill="white"/>
<path d="M37.2072 9.5H40.0002C40.1332 9.5 40.2602 9.4475 40.3537 9.3535L41.5002 8.207V9.5H42.5002V7C42.5002 6.7235 42.2767 6.5 42.0002 6.5H39.5002V7.5H40.7932L39.7932 8.5H37.0002C36.8672 8.5 36.7402 8.5525 36.6467 8.6465L33.6467 11.6465L34.3537 12.3535L37.2072 9.5Z" fill="white"/>
</svg>
