<svg width="100" height="100" viewBox="0 0 100 100" fill="none" xmlns="http://www.w3.org/2000/svg">
<path d="M92.6758 13.9648H87.5467C86.7375 13.9648 86.0818 14.6205 86.0818 15.4297C86.0818 16.2389 86.7375 16.8945 87.5467 16.8945H92.6758C95.0988 16.8945 97.0703 18.866 97.0703 21.2891V28.0273H2.92969V21.2891C2.92969 18.866 4.90098 16.8945 7.32422 16.8945H81.115C81.9242 16.8945 82.5799 16.2389 82.5799 15.4297C82.5799 14.6205 81.9242 13.9648 81.115 13.9648H7.32422C3.28555 13.9648 0 17.2504 0 21.2891V37.4377C0 38.2469 0.655859 38.9025 1.46484 38.9025C2.27383 38.9025 2.92969 38.2469 2.92969 37.4377V30.957H97.0703V68.7238C97.0703 69.533 97.726 70.1887 98.5352 70.1887C99.3443 70.1887 100 69.533 100 68.7238V21.2891C100 17.2504 96.7145 13.9648 92.6758 13.9648Z" fill="#34306A"/>
<path d="M98.5352 73.4359C97.726 73.4359 97.0703 74.0916 97.0703 74.9008V78.7105C97.0703 81.1336 95.0988 83.1051 92.6758 83.1051H7.32422C4.90098 83.1051 2.92969 81.1336 2.92969 78.7105V43.7236C2.92969 42.9145 2.27383 42.2588 1.46484 42.2588C0.655859 42.2588 0 42.9145 0 43.7236V78.7105C0 82.7492 3.28555 86.0348 7.32422 86.0348H92.6758C96.7145 86.0348 100 82.7492 100 78.7105V74.9008C100 74.0918 99.3443 73.4359 98.5352 73.4359Z" fill="#34306A"/>
<path d="M21.1881 45.7922C20.616 45.2203 19.6885 45.2203 19.1166 45.7922L10.3139 54.5949C10.0391 54.8697 9.88477 55.2422 9.88477 55.6309C9.88477 56.0195 10.0391 56.3918 10.3139 56.6668L19.0002 65.3531C19.2861 65.6391 19.6611 65.782 20.0359 65.782C20.4107 65.782 20.7857 65.6391 21.0717 65.3531C21.6438 64.7808 21.6438 63.8535 21.0717 63.2814L13.4211 55.631L21.1881 47.8641C21.7604 47.2918 21.7604 46.3645 21.1881 45.7922Z" fill="#34306A"/>
<path d="M40.8873 65.3531C41.1732 65.6391 41.5482 65.782 41.923 65.782C42.2978 65.782 42.6728 65.6391 42.9587 65.3531L51.6453 56.6668C51.9199 56.392 52.0742 56.0195 52.0742 55.6309C52.0742 55.2422 51.9199 54.8699 51.6453 54.5949L42.8423 45.7922C42.2703 45.2203 41.3427 45.2203 40.7708 45.7922C40.1988 46.3645 40.1988 47.2918 40.7708 47.8639L48.538 55.6309L40.8875 63.2812C40.3152 63.8537 40.3152 64.781 40.8873 65.3531Z" fill="#34306A"/>
<path d="M25.7793 70.7488C26.3702 70.7488 26.927 70.3886 27.1491 69.8032L37.558 42.3818C37.8452 41.6253 37.4647 40.7794 36.7084 40.4923C35.9522 40.205 35.1061 40.5857 34.8192 41.3419L24.4102 68.7638C24.1231 69.52 24.5035 70.3659 25.2598 70.653C25.4309 70.7181 25.6065 70.7488 25.7793 70.7488Z" fill="#34306A"/>
<path d="M6.44678 22.5332C6.44678 24.9563 8.41807 26.9277 10.8413 26.9277C13.2645 26.9277 15.2358 24.9563 15.2358 22.5332C15.2358 20.1102 13.2645 18.1387 10.8413 18.1387C8.41807 18.1387 6.44678 20.1102 6.44678 22.5332ZM12.3061 22.5332C12.3061 23.341 11.6491 23.998 10.8413 23.998C10.0335 23.998 9.37646 23.341 9.37646 22.5332C9.37646 21.7254 10.0335 21.0684 10.8413 21.0684C11.6491 21.0684 12.3061 21.7254 12.3061 22.5332Z" fill="#34306A"/>
<path d="M17.8057 22.5332C17.8057 24.9563 19.777 26.9277 22.2002 26.9277C24.6234 26.9277 26.5947 24.9563 26.5947 22.5332C26.5947 20.1102 24.6234 18.1387 22.2002 18.1387C19.777 18.1387 17.8057 20.1102 17.8057 22.5332ZM23.665 22.5332C23.665 23.341 23.008 23.998 22.2002 23.998C21.3924 23.998 20.7354 23.341 20.7354 22.5332C20.7354 21.7254 21.3924 21.0684 22.2002 21.0684C23.008 21.0684 23.665 21.7254 23.665 22.5332Z" fill="#34306A"/>
<path d="M29.165 22.5332C29.165 24.9563 31.1363 26.9277 33.5596 26.9277C35.9828 26.9277 37.9541 24.9563 37.9541 22.5332C37.9541 20.1102 35.9828 18.1387 33.5596 18.1387C31.1363 18.1387 29.165 20.1102 29.165 22.5332ZM35.0244 22.5332C35.0244 23.341 34.3674 23.998 33.5596 23.998C32.7518 23.998 32.0947 23.341 32.0947 22.5332C32.0947 21.7254 32.7518 21.0684 33.5596 21.0684C34.3674 21.0684 35.0244 21.7254 35.0244 22.5332Z" fill="#34306A"/>
<path d="M65.5273 47.3374H74.707C77.1301 47.3374 79.1016 45.3659 79.1016 42.9429C79.1016 40.5198 77.1301 38.5483 74.707 38.5483H65.5273C63.1043 38.5483 61.1328 40.5198 61.1328 42.9429C61.1328 45.3659 63.1043 47.3374 65.5273 47.3374ZM65.5273 41.478H74.707C75.5148 41.478 76.1719 42.1351 76.1719 42.9429C76.1719 43.7507 75.5148 44.4077 74.707 44.4077H65.5273C64.7195 44.4077 64.0625 43.7507 64.0625 42.9429C64.0625 42.1351 64.7195 41.478 65.5273 41.478Z" fill="#34306A"/>
<path d="M65.5273 59.0562H89.7461C92.1691 59.0562 94.1406 57.0847 94.1406 54.6616C94.1406 52.2386 92.1691 50.2671 89.7461 50.2671H65.5273C63.1043 50.2671 61.1328 52.2386 61.1328 54.6616C61.1328 57.0847 63.1043 59.0562 65.5273 59.0562ZM65.5273 53.1968H89.7461C90.5539 53.1968 91.2109 53.8538 91.2109 54.6616C91.2109 55.4694 90.5539 56.1265 89.7461 56.1265H65.5273C64.7195 56.1265 64.0625 55.4694 64.0625 54.6616C64.0625 53.8538 64.7195 53.1968 65.5273 53.1968Z" fill="#34306A"/>
<path d="M65.5273 70.7749H82.5518C84.9748 70.7749 86.9463 68.8034 86.9463 66.3804C86.9463 63.9573 84.9748 61.9858 82.5518 61.9858H65.5273C63.1043 61.9858 61.1328 63.9573 61.1328 66.3804C61.1328 68.8034 63.1043 70.7749 65.5273 70.7749ZM65.5273 64.9155H82.5518C83.3596 64.9155 84.0166 65.5726 84.0166 66.3804C84.0166 67.1882 83.3596 67.8452 82.5518 67.8452H65.5273C64.7195 67.8452 64.0625 67.1882 64.0625 66.3804C64.0625 65.5726 64.7195 64.9155 65.5273 64.9155Z" fill="#34306A"/>
</svg>
