<svg width="24" height="24" viewBox="0 0 24 24" fill="none" xmlns="http://www.w3.org/2000/svg">
<path d="M20.6098 3.0257C18.4213 1.00857 15.6991 0 12.4482 0C9.0308 0 6.11771 1.14565 3.71379 3.44186C1.30987 5.73807 0.105469 8.59241 0.105469 12.0098C0.105469 15.2852 1.25112 18.1004 3.53754 20.4602C5.83374 22.8201 8.9182 24 12.8007 24C15.141 24 17.4372 23.5202 19.6893 22.5557C20.4237 22.2423 20.7811 21.4002 20.4825 20.661C20.174 19.8972 19.3025 19.5447 18.5437 19.8678C16.5853 20.7099 14.6661 21.131 12.7958 21.131C9.81906 21.131 7.51306 20.2252 5.87781 18.4088C4.24745 16.5973 3.42983 14.4676 3.42983 12.0245C3.42983 9.37087 4.3062 7.15789 6.05406 5.38066C7.79702 3.60832 9.94635 2.71726 12.4922 2.71726C14.8374 2.71726 16.8203 3.44676 18.4359 4.90575C20.0516 6.36475 20.8594 8.20073 20.8594 10.4137C20.8594 11.9266 20.4874 13.1897 19.7481 14.1934C19.0088 15.202 18.2401 15.7013 17.4421 15.7013C17.0112 15.7013 16.7958 15.4712 16.7958 15.0061C16.7958 14.6291 16.8252 14.1885 16.879 13.6793L17.7897 6.23256H14.6563L14.4555 6.96206C13.6575 6.31089 12.7811 5.98286 11.8313 5.98286C10.3233 5.98286 9.03081 6.58507 7.95859 7.78458C6.88148 8.98409 6.34782 10.5312 6.34782 12.4211C6.34782 14.2668 6.82273 15.7601 7.77744 16.8911C8.73215 18.0269 9.87781 18.59 11.2193 18.59C12.4188 18.59 13.4421 18.0857 14.294 17.082C14.9353 18.0465 15.8803 18.5263 17.1287 18.5263C18.9647 18.5263 20.551 17.7283 21.8876 16.1273C23.2242 14.5312 23.8949 12.6022 23.8949 10.3452C23.8949 7.48592 22.8031 5.04284 20.6098 3.0257ZM13.3931 14.2913C12.8399 15.0355 12.1789 15.4125 11.4102 15.4125C10.8864 15.4125 10.4653 15.1383 10.1471 14.59C9.82395 14.0416 9.66238 13.3611 9.66238 12.5435C9.66238 11.5349 9.8876 10.7222 10.338 10.1053C10.7885 9.48837 11.3466 9.17503 12.0124 9.17503C12.5902 9.17503 13.1042 9.40514 13.5547 9.87026C14.0051 10.3354 14.2303 10.9523 14.2303 11.7258C14.2254 12.6903 13.9463 13.5422 13.3931 14.2913Z" fill="white"/>
</svg>
