<svg width="100" height="100" viewBox="0 0 100 100" fill="none" xmlns="http://www.w3.org/2000/svg">
<g clip-path="url(#clip0)">
<path d="M99.8816 91.9035L92.6145 74.9471C91.9076 73.2979 90.6436 72.0086 89.0982 71.2535C90.4035 69.9301 91.2109 68.1145 91.2109 66.1133V19.2383C91.2109 15.1996 87.9254 11.9141 83.8867 11.9141H70.5729V1.66016C70.5729 0.850977 69.917 0.195312 69.108 0.195312H30.892C30.083 0.195312 29.4271 0.850977 29.4271 1.66016V11.9141H16.1133C12.0746 11.9141 8.78906 15.1996 8.78906 19.2383V66.1133C8.78906 68.1145 9.59648 69.9301 10.9018 71.2533C9.35645 72.0084 8.09219 73.2979 7.38555 74.9469L0.118359 91.9035C0.0404297 92.0857 0 92.282 0 92.4805C0 96.5191 3.28555 99.8047 7.32422 99.8047H92.6758C96.7145 99.8047 100 96.5191 100 92.4805C100 92.282 99.9596 92.0857 99.8816 91.9035V91.9035ZM55.8555 3.125H67.6434V11.9141H55.8555C56.7772 10.6891 57.3242 9.16719 57.3242 7.51953C57.3242 5.87188 56.7772 4.35 55.8555 3.125ZM61.5318 14.8438C60.9271 16.5486 59.299 17.7734 57.3893 17.7734H42.6105C40.701 17.7734 39.0727 16.5486 38.468 14.8438H61.5318ZM50 3.125C52.4232 3.125 54.3945 5.09648 54.3945 7.51953C54.3945 9.94258 52.4232 11.9141 50 11.9141C47.5768 11.9141 45.6055 9.94258 45.6055 7.51953C45.6055 5.09648 47.5768 3.125 50 3.125ZM32.3568 3.125H44.1447C43.223 4.35 42.676 5.87188 42.676 7.51953C42.676 9.16719 43.223 10.6891 44.1447 11.9141H32.3568V3.125ZM11.7188 19.2383C11.7188 16.8152 13.69 14.8438 16.1133 14.8438H35.4338C35.6543 15.9256 36.1141 16.9213 36.7553 17.7734H16.1133C15.3043 17.7734 14.6484 18.4291 14.6484 19.2383V39.7461C14.6484 40.5553 15.3043 41.2109 16.1133 41.2109C16.9223 41.2109 17.5781 40.5553 17.5781 39.7461V20.7031H82.4219V64.6484H17.5781V45.6055C17.5781 44.7963 16.9223 44.1406 16.1133 44.1406C15.3043 44.1406 14.6484 44.7963 14.6484 45.6055V66.1133C14.6484 66.9225 15.3043 67.5781 16.1133 67.5781H83.8867C84.6957 67.5781 85.3516 66.9225 85.3516 66.1133V19.2383C85.3516 18.4291 84.6957 17.7734 83.8867 17.7734H63.2447C63.8857 16.9213 64.3457 15.9256 64.5662 14.8438H83.8867C86.31 14.8438 88.2812 16.8152 88.2812 19.2383V66.1133C88.2812 68.5363 86.31 70.5078 83.8867 70.5078H16.1133C13.69 70.5078 11.7188 68.5363 11.7188 66.1133V19.2383ZM10.0783 76.101C10.7719 74.483 12.3574 73.4375 14.1176 73.4375H85.8826C87.6428 73.4375 89.2283 74.483 89.9219 76.101L96.3137 91.0156H3.68633L10.0783 76.101ZM92.6758 96.875H7.32422C5.41484 96.875 3.7877 95.65 3.18301 93.9453H96.8172C96.2123 95.65 94.5852 96.875 92.6758 96.875Z" fill="#30485F"/>
<path d="M50 8.98438C50.809 8.98438 51.4648 8.32854 51.4648 7.51953C51.4648 6.71052 50.809 6.05469 50 6.05469C49.191 6.05469 48.5352 6.71052 48.5352 7.51953C48.5352 8.32854 49.191 8.98438 50 8.98438Z" fill="#30485F"/>
<path d="M87.2287 77.2551C86.9979 76.7164 86.4682 76.3672 85.8822 76.3672L14.1174 76.3674C13.5314 76.3674 13.0018 76.7166 12.7709 77.2553L10.2598 83.1145C10.0658 83.567 10.1123 84.0869 10.3832 84.4979C10.6541 84.9088 11.1141 85.1562 11.6064 85.1562H88.3936C88.8859 85.1562 89.3455 84.9088 89.6164 84.4979C89.8873 84.0869 89.9338 83.567 89.7398 83.1145L87.2287 77.2551ZM13.8279 82.2266L15.0834 79.2971L84.9164 79.2969L86.1721 82.2266H13.8279Z" fill="#30485F"/>
<path d="M33.8217 61.7188H66.1785C66.9875 61.7188 67.6433 61.0631 67.6433 60.2539V54.3945C67.6433 50.3559 64.3578 47.0703 60.3191 47.0703H39.681C35.6424 47.0703 32.3568 50.3559 32.3568 54.3945V60.2539C32.3568 61.0631 33.0125 61.7188 33.8217 61.7188ZM35.2865 54.3945C35.2865 51.9715 37.2578 50 39.681 50H60.3191C62.7424 50 64.7137 51.9715 64.7137 54.3945V58.7891H61.7838V54.3945C61.7838 53.5854 61.1279 52.9297 60.3189 52.9297C59.5099 52.9297 58.8541 53.5854 58.8541 54.3945V58.7891H41.1459V54.3945C41.1459 53.5854 40.49 52.9297 39.681 52.9297C38.872 52.9297 38.2162 53.5854 38.2162 54.3945V58.7891H35.2865V54.3945Z" fill="#30485F"/>
<path d="M49.9358 44.1406C55.5899 44.1406 60.1897 39.5406 60.1897 33.8867C60.1897 28.2328 55.5899 23.6328 49.9358 23.6328C44.2817 23.6328 39.6819 28.2328 39.6819 33.8867C39.6819 39.5406 44.2817 44.1406 49.9358 44.1406ZM49.9358 26.5625C53.9745 26.5625 57.26 29.848 57.26 33.8867C57.26 37.9254 53.9745 41.2109 49.9358 41.2109C45.8971 41.2109 42.6116 37.9254 42.6116 33.8867C42.6116 29.848 45.8971 26.5625 49.9358 26.5625Z" fill="#30485F"/>
</g>
<defs>
<clipPath id="clip0">
<rect width="100" height="100" fill="white"/>
</clipPath>
</defs>
</svg>
