<svg width="100" height="100" viewBox="0 0 100 100" fill="none" xmlns="http://www.w3.org/2000/svg">
<g clip-path="url(#clip0)">
<path d="M96.8752 40.4293H90.8754C90.7779 40.4293 90.6924 40.3662 90.6715 40.2791C89.6496 35.9889 87.9551 31.901 85.635 28.1291C85.5834 28.0455 85.5936 27.9412 85.6592 27.8758L89.9133 23.6217C90.5035 23.0312 90.8285 22.2467 90.8285 21.4121C90.8285 20.5773 90.5035 19.7926 89.9133 19.2025L80.7973 10.0867C80.2072 9.49629 79.4225 9.17129 78.5877 9.17129C77.7531 9.17129 76.9686 9.49629 76.3781 10.0865L72.124 14.3406C72.0584 14.4063 71.9539 14.4164 71.8707 14.3648C68.0988 12.0447 64.0109 10.3502 59.7207 9.32832C59.6338 9.30762 59.5705 9.22187 59.5705 9.12461V3.1248C59.5707 1.40176 58.1689 0 56.4459 0H43.5539C41.8311 0 40.4291 1.40176 40.4291 3.1248V9.12461C40.4291 9.22207 40.366 9.30762 40.2789 9.32832C35.9887 10.3504 31.9008 12.0447 28.1289 14.3648C28.0455 14.4166 27.9408 14.4064 27.8756 14.3406L23.6215 10.0865C23.0311 9.49629 22.2465 9.17129 21.4119 9.17129C20.5771 9.17129 19.7924 9.49629 19.2023 10.0865L10.0869 19.2027C9.49648 19.7928 9.17148 20.5775 9.17148 21.4123C9.17148 22.2469 9.49648 23.0314 10.0867 23.6219L14.3408 27.876C14.4064 27.9414 14.4166 28.0457 14.365 28.1293C12.0449 31.9012 10.3504 35.9891 9.32852 40.2793C9.30781 40.3662 9.22207 40.4295 9.12461 40.4295H3.1248C1.40176 40.4293 0 41.8311 0 43.5541V56.4461C0 58.1689 1.40176 59.5709 3.1248 59.5709H9.12461C9.22207 59.5709 9.30762 59.634 9.32852 59.7211C10.3504 64.0113 12.0449 68.0992 14.365 71.8711C14.4166 71.9547 14.4064 72.059 14.3408 72.1244L10.0867 76.3787C9.49648 76.9689 9.17148 77.7537 9.17148 78.5883C9.17148 79.423 9.49648 80.2078 10.0867 80.7979L19.2027 89.9137C19.7928 90.5039 20.5775 90.8291 21.4123 90.8291C22.2469 90.8291 23.0314 90.5041 23.6219 89.9139L27.876 85.6598C27.9412 85.5938 28.0459 85.5836 28.1293 85.6356C31.901 87.9555 35.9889 89.6502 40.2797 90.6723C40.3664 90.693 40.4295 90.7787 40.4295 90.876V96.8758C40.4295 98.5986 41.8312 100.001 43.5543 100.001H56.4463C58.1691 100.001 59.5711 98.5988 59.5711 96.8758V90.876C59.5711 90.7787 59.6342 90.6932 59.7213 90.6723C64.0117 89.6502 68.0994 87.9555 71.8713 85.6356C71.9545 85.5838 72.0592 85.5939 72.1246 85.6598L76.3787 89.9139C76.9691 90.5039 77.7537 90.8291 78.5883 90.8291C79.423 90.8291 80.2078 90.5041 80.7977 89.9139L82.948 87.7635C83.5189 87.1928 83.5189 86.2672 82.9482 85.6965C82.3773 85.1258 81.4518 85.1256 80.8812 85.6963L78.7305 87.8469C78.6818 87.8955 78.6262 87.9059 78.5881 87.9059C78.55 87.9059 78.4945 87.8955 78.4457 87.8467L74.1916 83.5926C73.1646 82.5658 71.5805 82.382 70.3395 83.1455C66.8324 85.3029 63.0318 86.8785 59.0439 87.8287C57.6332 88.1645 56.6477 89.4176 56.6477 90.876V96.8758C56.6477 96.9869 56.5572 97.0773 56.4461 97.0773H43.5541C43.443 97.0773 43.3525 96.9869 43.3525 96.8758V90.876C43.3525 89.4176 42.3672 88.1645 40.9566 87.8287C36.9684 86.8785 33.1678 85.3029 29.6607 83.1455C28.4193 82.3824 26.8355 82.5658 25.8086 83.5926L21.5545 87.8467C21.5059 87.8955 21.4502 87.9059 21.4121 87.9059C21.374 87.9059 21.3186 87.8955 21.2697 87.8467L12.1535 78.7307C12.1049 78.682 12.0945 78.6264 12.0945 78.5883C12.0945 78.5502 12.1049 78.4947 12.1537 78.4459L16.4078 74.1918C17.4344 73.165 17.6182 71.5811 16.8549 70.3397C14.6973 66.8324 13.1219 63.0318 12.1719 59.0437C11.8357 57.6332 10.5826 56.6479 9.12441 56.6479H3.1248C3.01367 56.6479 2.92324 56.5574 2.92324 56.4463V43.5543C2.92324 43.4432 3.01367 43.3527 3.1248 43.3527H9.12461C10.5828 43.3527 11.8359 42.3676 12.1721 40.9568C13.1221 36.9688 14.6975 33.1682 16.8551 29.6609C17.6184 28.4195 17.4346 26.8355 16.408 25.8088L12.1539 21.5547C12.1051 21.5061 12.0947 21.4504 12.0947 21.4123C12.0947 21.3742 12.1051 21.3188 12.1539 21.2699L21.2699 12.1537C21.3186 12.1051 21.3742 12.0947 21.4123 12.0947C21.4504 12.0947 21.5059 12.1051 21.5547 12.1539L25.8088 16.408C26.8357 17.4344 28.4195 17.6184 29.6609 16.8551C33.1682 14.6975 36.9688 13.1221 40.9568 12.1721C42.3674 11.8359 43.3527 10.5828 43.3527 9.12461V3.1248C43.3527 3.01367 43.4432 2.92324 43.5543 2.92324H56.4463C56.5574 2.92324 56.6479 3.01367 56.6479 3.1248V9.12461C56.6479 10.5828 57.633 11.8359 59.0437 12.1721C63.0318 13.1221 66.8324 14.6975 70.3397 16.8551C71.5811 17.6182 73.1648 17.4348 74.1918 16.408L78.4459 12.1539C78.4945 12.1051 78.5502 12.0947 78.5883 12.0947C78.6264 12.0947 78.6818 12.1051 78.7307 12.1539L87.8469 21.2699C87.8955 21.3186 87.9059 21.3742 87.9059 21.4123C87.9059 21.4504 87.8955 21.5059 87.8467 21.5547L83.5926 25.8088C82.566 26.8355 82.3822 28.4195 83.1455 29.6609C85.3031 33.1682 86.8785 36.9688 87.8285 40.9568C88.1646 42.3674 89.4178 43.3527 90.876 43.3527H96.8758C96.9869 43.3527 97.0773 43.4432 97.0773 43.5543V56.4463C97.0773 56.5574 96.9869 56.6479 96.8758 56.6479H90.876C89.4178 56.6479 88.1646 57.633 87.8285 59.0437C86.8785 63.0318 85.3031 66.8324 83.1455 70.3397C82.3822 71.5811 82.566 73.165 83.5926 74.1918L87.8467 78.4459C87.8955 78.4945 87.9059 78.5502 87.9059 78.5883C87.9059 78.6264 87.8955 78.6818 87.8467 78.7307L85.6717 80.9057C85.101 81.4766 85.101 82.402 85.6717 82.9729C86.2424 83.5432 87.1678 83.5436 87.7389 82.9729L89.9137 80.7979C90.5041 80.2078 90.8291 79.423 90.8291 78.5883C90.8291 77.7537 90.5041 76.9691 89.9139 76.3787L85.6598 72.1244C85.5941 72.059 85.584 71.9547 85.6356 71.8711C87.9557 68.0992 89.6502 64.0113 90.6721 59.7211C90.6928 59.6342 90.7785 59.5709 90.876 59.5709H96.8758C98.5986 59.5709 100.001 58.1691 100.001 56.4461V43.5541C100 41.8311 98.5982 40.4293 96.8752 40.4293Z" fill="#B030EC"/>
<path d="M20.6553 44.1469C19.8568 44.027 19.1139 44.5805 18.9957 45.3789C18.7709 46.8986 18.6572 48.4533 18.6572 50.0002C18.6572 67.2828 32.7176 81.3432 50.0002 81.3432C67.2828 81.3432 81.3432 67.2828 81.3432 50.0002C81.3432 32.7176 67.2828 18.6572 50.0002 18.6572C43.6021 18.6572 37.4482 20.5727 32.2035 24.1965C27.0812 27.7357 23.1615 32.6527 20.8664 38.4201L20.8072 38.5701C20.5109 39.3209 20.8793 40.1699 21.6303 40.4662C22.3809 40.7623 23.2301 40.3941 23.5264 39.6432L23.584 39.4973C25.6637 34.2711 29.2189 29.8119 33.865 26.6016C38.6191 23.3166 44.1984 21.5805 50.0002 21.5805C65.6709 21.5805 78.4199 34.3295 78.4199 50.0002C78.4199 65.6709 65.6709 78.4199 50.0002 78.4199C34.3295 78.4199 21.5805 65.6709 21.5805 50.0002C21.5805 48.5959 21.6838 47.185 21.8875 45.8062C22.0055 45.0078 21.4539 44.2648 20.6553 44.1469Z" fill="#B030EC"/>
<path d="M45.8476 65.1735C45.9078 65.1735 45.9679 65.1728 46.0277 65.171C47.7146 65.1226 49.3379 64.3841 50.4816 63.145L66.8547 45.411C67.9974 44.1733 68.59 42.5648 68.523 40.8815C68.4558 39.1983 67.7375 37.6419 66.4996 36.4991C63.9447 34.1401 59.9465 34.2997 57.5875 36.8546L45.591 49.8476L42.1619 46.5331C39.6611 44.1165 35.6605 44.1851 33.2439 46.6855C30.8273 49.1858 30.8955 53.186 33.3959 55.603L41.4648 63.4017C42.647 64.5442 44.2035 65.1735 45.8476 65.1735ZM35.3457 48.7167C36.0086 48.031 36.8935 47.6862 37.7793 47.6862C38.6263 47.6862 39.4746 48.0017 40.1304 48.6351L44.6349 52.9886C44.9178 53.2618 45.3011 53.4085 45.6922 53.3987C46.0855 53.3876 46.4576 53.2183 46.7246 52.9292L59.7353 38.8374C61.0012 37.4665 63.1461 37.3815 64.5166 38.6466C65.1805 39.2597 65.566 40.0946 65.6019 40.998C65.6379 41.9011 65.3201 42.764 64.7068 43.428L48.3332 61.1624C47.7199 61.8271 46.8488 62.2232 45.9433 62.2491C45.0281 62.2753 44.1533 61.9351 43.4959 61.2999L35.4271 53.5013C34.0859 52.2044 34.0494 50.0581 35.3457 48.7167Z" fill="#B030EC"/>
</g>
<defs>
<clipPath id="clip0">
<rect width="100" height="100" fill="white"/>
</clipPath>
</defs>
</svg>
