<svg width="198" height="32" viewBox="0 0 198 32" fill="none" xmlns="http://www.w3.org/2000/svg">
<path d="M32 16.0625C32 14.3218 31.1875 12.7583 29.9175 11.7263C30.7186 8.09547 28.143 4.42525 24.355 3.93063C23.9382 1.72563 21.9982 0 19.75 0C18.6956 0 17.7219 0.35 16.9375 0.94V9.06187C17.6626 8.41 18.56 7.94127 19.5638 7.73753C20.0706 7.6344 20.5656 7.96253 20.6688 8.47C20.7719 8.97753 20.4438 9.47187 19.9363 9.575C18.1988 9.92747 16.9375 11.4731 16.9375 13.25V20.3119C17.6626 19.66 18.56 19.1913 19.5638 18.9875C20.0706 18.8844 20.5656 19.2125 20.6688 19.72C20.7719 20.2275 20.4438 20.7219 19.9363 20.825C18.1988 21.1775 16.9375 22.7231 16.9375 24.5V31.06C17.7219 31.65 18.6956 32 19.75 32C22.0332 32 23.9406 30.3594 24.3544 28.1944C28.0765 27.7084 30.7052 24.1391 29.9288 20.3613C31.2369 19.28 32 17.7181 32 16.0625Z" fill="#30485F"/>
<path d="M7.645 3.93063C3.86206 4.42463 1.28037 8.09107 2.0825 11.7263C0.78394 12.7815 0 14.3598 0 16.0625C0 17.7181 0.763127 19.28 2.07125 20.3613C1.29419 24.1423 3.92644 27.7087 7.6456 28.1944C8.0594 30.3594 9.96687 32 12.25 32C13.3044 32 14.2781 31.65 15.0625 31.06C15.0625 29.7216 15.0625 25.8354 15.0625 24.5C15.0625 22.7231 13.8013 21.1775 12.0637 20.825C11.5563 20.7219 11.2281 20.2275 11.3313 19.72C11.4344 19.2125 11.9287 18.8844 12.4363 18.9875C13.44 19.1913 14.3375 19.66 15.0625 20.3119V13.25C15.0625 11.4731 13.8013 9.92747 12.0637 9.575C11.5563 9.47187 11.2281 8.97747 11.3313 8.47C11.4344 7.96247 11.9287 7.6344 12.4363 7.73753C13.44 7.94127 14.3375 8.41 15.0625 9.06187C15.0625 7.45707 15.0625 2.58687 15.0625 0.94C14.2781 0.35 13.3044 0 12.25 0C10.0019 0 8.06187 1.72563 7.645 3.93063Z" fill="#E0DBDB"/>
<path d="M15.9999 26.6668C21.891 26.6668 26.6666 21.8912 26.6666 16.0002C26.6666 10.1091 21.891 5.3335 15.9999 5.3335C10.1089 5.3335 5.33325 10.1091 5.33325 16.0002C5.33325 21.8912 10.1089 26.6668 15.9999 26.6668Z" fill="white"/>
<path d="M20.4751 11.9314L14.0545 18.352L11.5251 15.8225L10.6667 16.6809L14.0545 20.0686L21.3334 12.7897L20.4751 11.9314Z" fill="#30485F"/>
<path d="M55.6586 21.6322H51.5768L47.369 13.516H47.2981C47.3979 14.7925 47.4478 15.767 47.4478 16.4394V21.6322H44.6898V10.1119H48.7558L52.9479 18.1178H52.9952C52.9216 16.9569 52.8848 16.0244 52.8848 15.3205V10.1119H55.6586V21.6322ZM64.9883 21.6322H58.1486V10.1119H64.9883V12.6098H61.2611V14.4222H64.7125V16.9201H61.2611V19.0949H64.9883V21.6322ZM77.7852 15.8563C77.7852 17.7947 77.3098 19.2683 76.3589 20.2769C75.4081 21.2855 74.016 21.7899 72.1826 21.7899C70.3755 21.7899 68.9886 21.2829 68.022 20.269C67.0607 19.2551 66.58 17.779 66.58 15.8405C66.58 13.9232 67.0581 12.4601 68.0142 11.4515C68.9755 10.4376 70.3702 9.93066 72.1984 9.93066C74.0317 9.93066 75.4212 10.4323 76.3668 11.4357C77.3124 12.4391 77.7852 13.9126 77.7852 15.8563ZM69.8581 15.8563C69.8581 18.0837 70.6329 19.1974 72.1826 19.1974C72.9706 19.1974 73.5537 18.9268 73.9319 18.3857C74.3154 17.8447 74.5072 17.0016 74.5072 15.8563C74.5072 14.7058 74.3128 13.8574 73.924 13.3112C73.5406 12.7595 72.9654 12.4837 72.1984 12.4837C70.6382 12.4837 69.8581 13.6079 69.8581 15.8563ZM86.9341 21.6322L86.3666 19.4732H82.6235L82.0407 21.6322H78.6205L82.3787 10.0646H86.5315L90.3374 21.6322H86.9341ZM85.7202 16.9201L85.2235 15.029C85.1078 14.6087 84.9662 14.065 84.7985 13.3978C84.6353 12.7306 84.5277 12.2526 84.4749 11.9636C84.4282 12.2315 84.3332 12.6728 84.1915 13.2875C84.0553 13.9021 83.7477 15.113 83.2699 16.9201H85.7202ZM99.1236 18.1336C99.1236 18.848 98.9425 19.4837 98.5803 20.0405C98.2172 20.5921 97.6945 21.0229 97.0122 21.3328C96.3291 21.6375 95.5275 21.7899 94.6086 21.7899C93.842 21.7899 93.1983 21.7373 92.6783 21.6322C92.1583 21.522 91.6168 21.3328 91.0546 21.0649V18.2912C91.6482 18.5959 92.2659 18.8349 92.9069 19.0082C93.548 19.1763 94.1361 19.2604 94.6713 19.2604C95.134 19.2604 95.4729 19.1816 95.688 19.024C95.9032 18.8612 96.0117 18.6536 96.0117 18.4015C96.0117 18.2439 95.9669 18.1074 95.8772 17.9918C95.7929 17.8709 95.654 17.7501 95.4594 17.6293C95.2702 17.5085 94.761 17.2616 93.9308 16.8886C93.1795 16.5471 92.6146 16.2162 92.2372 15.8957C91.8642 15.5752 91.5854 15.2076 91.4016 14.7925C91.2232 14.3775 91.1335 13.8864 91.1335 13.319C91.1335 12.2578 91.52 11.4305 92.2919 10.8368C93.0638 10.2432 94.1253 9.94643 95.4755 9.94643C96.668 9.94643 97.8837 10.2222 99.1236 10.7738L98.1706 13.1771C97.0938 12.6834 96.1632 12.4365 95.3805 12.4365C94.9762 12.4365 94.6821 12.5074 94.4983 12.6492C94.3145 12.7911 94.2222 12.9671 94.2222 13.1771C94.2222 13.4031 94.3378 13.6053 94.5691 13.7839C94.8058 13.9625 95.4415 14.2882 96.4761 14.761C97.4695 15.2076 98.1571 15.6882 98.5409 16.203C98.9291 16.7126 99.1236 17.3561 99.1236 18.1336ZM108.438 18.1336C108.438 18.848 108.257 19.4837 107.894 20.0405C107.531 20.5921 107.009 21.0229 106.326 21.3328C105.643 21.6375 104.842 21.7899 103.923 21.7899C103.155 21.7899 102.513 21.7373 101.992 21.6322C101.472 21.522 100.931 21.3328 100.369 21.0649V18.2912C100.962 18.5959 101.579 18.8349 102.22 19.0082C102.861 19.1763 103.449 19.2604 103.986 19.2604C104.448 19.2604 104.787 19.1816 105.002 19.024C105.217 18.8612 105.325 18.6536 105.325 18.4015C105.325 18.2439 105.28 18.1074 105.191 17.9918C105.107 17.8709 104.968 17.7501 104.774 17.6293C104.585 17.5085 104.075 17.2616 103.245 16.8886C102.494 16.5471 101.929 16.2162 101.551 15.8957C101.178 15.5752 100.9 15.2076 100.716 14.7925C100.537 14.3775 100.448 13.8864 100.448 13.319C100.448 12.2578 100.833 11.4305 101.606 10.8368C102.378 10.2432 103.44 9.94643 104.79 9.94643C105.982 9.94643 107.198 10.2222 108.438 10.7738L107.484 13.1771C106.407 12.6834 105.477 12.4365 104.695 12.4365C104.29 12.4365 103.996 12.5074 103.813 12.6492C103.629 12.7911 103.536 12.9671 103.536 13.1771C103.536 13.4031 103.652 13.6053 103.883 13.7839C104.119 13.9625 104.755 14.2882 105.79 14.761C106.783 15.2076 107.471 15.6882 107.855 16.203C108.243 16.7126 108.438 17.3561 108.438 18.1336ZM110.218 21.6322V10.1119H113.347V21.6322H110.218ZM120.864 21.6322L118.508 13.3347H118.437C118.547 14.7479 118.603 15.8458 118.603 16.6285V21.6322H115.845V10.1119H119.99L122.393 18.2912H122.456L124.813 10.1119H128.964V21.6322H126.104V16.5812C126.104 16.3186 126.107 16.027 126.113 15.7066C126.122 15.3861 126.16 14.6008 126.223 13.3505H126.152L123.827 21.6322H120.864ZM131.447 21.6322V10.1119H134.575V21.6322H131.447ZM137.073 21.6322V10.1119H140.186V19.1186H144.622V21.6322H137.073ZM153.534 21.6322L152.967 19.4732H149.224L148.641 21.6322H145.221L148.98 10.0646H153.132L156.939 21.6322H153.534ZM152.321 16.9201L151.824 15.029C151.709 14.6087 151.567 14.065 151.399 13.3978C151.236 12.7306 151.128 12.2526 151.076 11.9636C151.029 12.2315 150.934 12.6728 150.792 13.2875C150.656 13.9021 150.348 15.113 149.87 16.9201H152.321ZM163.274 21.6322H160.161V12.6571H157.348V10.1119H166.079V12.6571H163.274V21.6322ZM167.726 21.6322V10.1119H170.854V21.6322H167.726ZM184.132 15.8563C184.132 17.7947 183.656 19.2683 182.706 20.2769C181.754 21.2855 180.363 21.7899 178.529 21.7899C176.722 21.7899 175.335 21.2829 174.369 20.269C173.407 19.2551 172.927 17.779 172.927 15.8405C172.927 13.9232 173.405 12.4601 174.36 11.4515C175.322 10.4376 176.717 9.93066 178.545 9.93066C180.378 9.93066 181.768 10.4323 182.714 11.4357C183.659 12.4391 184.132 13.9126 184.132 15.8563ZM176.205 15.8563C176.205 18.0837 176.979 19.1974 178.529 19.1974C179.317 19.1974 179.9 18.9268 180.279 18.3857C180.662 17.8447 180.853 17.0016 180.853 15.8563C180.853 14.7058 180.66 13.8574 180.271 13.3112C179.887 12.7595 179.312 12.4837 178.545 12.4837C176.985 12.4837 176.205 13.6079 176.205 15.8563ZM197.18 21.6322H193.099L188.891 13.516H188.82C188.92 14.7925 188.97 15.767 188.97 16.4394V21.6322H186.212V10.1119H190.278L194.47 18.1178H194.518C194.444 16.9569 194.407 16.0244 194.407 15.3205V10.1119H197.18V21.6322Z" fill="#30485F"/>
</svg>
