<svg width="182" height="32" viewBox="0 0 182 32" fill="none" xmlns="http://www.w3.org/2000/svg">
<g clip-path="url(#clip0)">
<path d="M43.2002 11.3557H47.0027C49.2158 11.3557 50.556 12.6648 50.556 14.5661V14.5972C50.556 16.7479 48.8729 17.87 46.8158 17.87H45.2573V20.644H43.2002V11.3557ZM46.8781 16.0311C47.9067 16.0311 48.4989 15.4076 48.4989 14.6284V14.5972C48.4989 13.6934 47.8755 13.1947 46.8469 13.1947H45.2573V16.0311H46.8781Z" fill="#B030EC"/>
<path d="M55.0752 11.3557H59.3141C60.4986 11.3557 61.4025 11.6986 62.0259 12.2908C62.5557 12.8207 62.8362 13.5376 62.8362 14.4103V14.4414C62.8362 15.9376 62.0259 16.8726 60.8414 17.309L63.1168 20.6128H60.7168L58.722 17.6518H57.1324V20.6128H55.1064V11.3557H55.0752ZM59.1895 15.8752C60.1869 15.8752 60.7479 15.3453 60.7479 14.5661V14.5349C60.7479 13.6622 60.1245 13.1947 59.1583 13.1947H57.1324V15.844H59.1895V15.8752Z" fill="#B030EC"/>
<path d="M67.2627 16.0311C67.2627 13.3818 69.351 11.2 72.2186 11.2C75.0861 11.2 77.1433 13.3194 77.1433 15.9687V15.9999C77.1433 18.6493 75.055 20.7999 72.1874 20.7999C69.3199 20.7999 67.2627 18.6493 67.2627 16.0311ZM74.9926 16.0311C74.9926 14.4103 73.8394 13.1012 72.1874 13.1012C70.5354 13.1012 69.4133 14.4103 69.4133 15.9999V16.0311C69.4133 17.6207 70.5666 18.961 72.2186 18.961C73.8706 18.8987 74.9926 17.6207 74.9926 16.0311Z" fill="#B030EC"/>
<path d="M92.0728 11.3557H99.0544V13.1635H94.0984V15.0336H98.4624V16.8414H94.0984V18.7739H99.148V20.5817H92.0728V11.3557Z" fill="#B030EC"/>
<path d="M103.543 16.0311C103.543 13.3818 105.538 11.2 108.375 11.2C110.119 11.2 111.179 11.7922 112.021 12.6337L110.712 14.1298C109.995 13.4753 109.279 13.0701 108.343 13.0701C106.785 13.0701 105.663 14.3791 105.663 15.9687V15.9999C105.663 17.5895 106.754 18.9298 108.343 18.9298C109.403 18.9298 110.058 18.4935 110.775 17.8389L112.083 19.148C111.117 20.1766 110.058 20.7999 108.281 20.7999C105.569 20.7999 103.543 18.6805 103.543 16.0311Z" fill="#B030EC"/>
<path d="M118.909 13.2259H116.073V11.3557H123.771V13.2259H120.935V20.6128H118.909V13.2259Z" fill="#B030EC"/>
<path d="M135.366 11.3557H139.668C140.727 11.3557 141.569 11.6362 142.099 12.1661C142.535 12.6024 142.722 13.1012 142.722 13.7557V13.7869C142.722 14.8466 142.161 15.4076 141.506 15.7817C142.566 16.1869 143.252 16.8103 143.252 18.057V18.0882C143.252 19.7713 141.881 20.644 139.792 20.644H135.366V11.3557ZM140.696 14.0986C140.696 13.4752 140.229 13.1324 139.356 13.1324H137.33V15.0959H139.2C140.135 15.0959 140.696 14.8155 140.696 14.0986ZM139.699 16.8103H137.33V18.8362H139.761C140.665 18.8362 141.195 18.5245 141.195 17.8388V17.8076C141.226 17.1843 140.758 16.8103 139.699 16.8103Z" fill="#B030EC"/>
<path d="M147.958 11.3557H149.985V18.7739H154.598V20.644H147.927V11.3557H147.958Z" fill="#B030EC"/>
<path d="M158.244 16.0311C158.244 13.3818 160.333 11.2 163.2 11.2C166.067 11.2 168.125 13.3194 168.125 15.9687V15.9999C168.125 18.6493 166.036 20.7999 163.169 20.7999C160.302 20.7999 158.244 18.6493 158.244 16.0311ZM165.943 16.0311C165.943 14.4103 164.79 13.1012 163.138 13.1012C161.486 13.1012 160.364 14.4103 160.364 15.9999V16.0311C160.364 17.6207 161.517 18.961 163.169 18.961C164.821 18.8987 165.943 17.6207 165.943 16.0311Z" fill="#B030EC"/>
<path d="M172.52 16.0311C172.52 13.3818 174.515 11.2 177.351 11.2C179.096 11.2 180.156 11.7922 180.998 12.6337L179.688 14.1298C178.971 13.4753 178.255 13.0701 177.319 13.0701C175.761 13.0701 174.64 14.3791 174.64 15.9687V15.9999C174.64 17.5895 175.73 18.9298 177.319 18.9298C178.379 18.9298 179.034 18.4935 179.751 17.8389L181.06 19.148C180.094 20.1766 179.034 20.7999 177.257 20.7999C174.546 20.7999 172.52 18.6805 172.52 16.0311Z" fill="#B030EC"/>
<path d="M86.369 11.3558H84.873H82.0986V13.1948H84.8418V17.3402C84.8418 18.4 84.3738 18.8675 83.5946 18.8675C82.9402 18.8675 82.4418 18.5247 81.9114 17.9325L80.6338 19.3662C81.257 20.1143 82.2234 20.7689 83.657 20.7689C84.6546 20.7689 85.4962 20.4883 86.057 19.8961C86.6186 19.335 86.9298 18.5247 86.9298 17.4026V11.3247H86.369V11.3558Z" fill="#B030EC"/>
<path d="M13.8615 1.82489H28.4237L30.3408 0H12.0366V1.82489V2.70968H13.8615V1.82489Z" fill="#B030EC"/>
<path d="M8.62646 5.88021H10.4513V5.05071H25.032L26.949 3.22583H8.62646V5.88021Z" fill="#B030EC"/>
<path d="M30.0645 1.82489L28.553 3.26267L26.6544 5.06913H26.6728L25.3087 6.37788L23.3917 8.2028H23.4102L14.599 16.6083L13.8802 17.2534V15.6866V11.4838H11.0783V20.811H13.8802H14.4885L23.6314 12.0922V24.4608H7.33641V8.16592H21.7511L23.6682 6.34102H5.51152V26.2857H25.4562V23.1705H28.5714V19.9447H30.1751V25.0322C30.1751 27.871 27.8526 30.1935 25.0138 30.1935H6.98618C4.14747 30.1935 1.82489 27.871 1.82489 25.0322V6.98618C1.82489 4.14746 4.14747 1.82489 6.98618 1.82489H10.4885V0H6.98618C3.13364 0 0 3.13364 0 6.98618V25.0138C0 28.8663 3.13364 32 6.98618 32H25.0138C28.8663 32 32 28.8663 32 25.0138V19.9262V4.12903V0L30.0645 1.82489ZM26.7466 21.3456H25.4378V10.3594L26.7466 9.1244V21.3456ZM30.1567 18.1198H28.553V7.3917L30.1567 5.88018V18.1198Z" fill="#B030EC"/>
</g>
<defs>
<clipPath id="clip0">
<rect width="181.6" height="32" fill="white"/>
</clipPath>
</defs>
</svg>
