<svg width="60" height="44" viewBox="0 0 60 44" fill="none" xmlns="http://www.w3.org/2000/svg">
<g clip-path="url(#clip0)">
<path d="M33.9714 9.25267C33.6899 8.12255 32.6601 7.30029 31.4726 7.30029C30.8349 7.30029 30.2163 7.5415 29.7456 7.96704C29.2746 7.5415 28.6562 7.30029 28.0183 7.30029C26.831 7.30029 25.801 8.12255 25.5195 9.25267C24.3101 9.8325 23.5422 11.0412 23.5422 12.4008C23.5422 13.3188 23.9021 14.1933 24.5391 14.8437C24.4971 15.0354 24.4758 15.2316 24.4758 15.4299C24.4758 16.9055 25.6526 18.1113 27.1169 18.1581C27.3982 18.8263 28.0559 19.2787 28.8088 19.2787L28.8234 19.2785C29.1767 19.2758 29.4995 19.1398 29.7453 18.9189C29.9902 19.1398 30.312 19.2758 30.6633 19.2785L30.6821 19.2787C31.4352 19.2787 32.093 18.8263 32.3742 18.1581C33.8385 18.1113 35.0153 16.9055 35.0153 15.4299C35.0153 15.2316 34.9941 15.0354 34.9521 14.8437C35.5888 14.1933 35.9486 13.3188 35.9486 12.4008C35.9486 11.0412 35.1808 9.8325 33.9714 9.25267ZM28.8161 18.341C28.8147 18.341 28.8103 18.3412 28.8088 18.3412C28.5188 18.3412 28.2585 18.2038 28.0932 17.9865C28.4099 17.861 28.7033 17.674 28.9597 17.4318C29.1477 17.2541 29.1562 16.9575 28.9785 16.7692C28.8005 16.581 28.5039 16.5727 28.3156 16.7504C28.0544 16.9973 27.7373 17.1564 27.3977 17.2116C27.333 17.2184 27.2685 17.2221 27.2055 17.2221C26.2173 17.2221 25.4133 16.4182 25.4133 15.4296C25.4133 15.2329 25.4451 15.0395 25.5076 14.8549C25.7136 14.321 26.1701 13.9091 26.7026 13.7614C26.7927 14.0549 26.9345 14.3273 27.123 14.5612C27.2158 14.676 27.3513 14.7358 27.4883 14.7358C27.5915 14.7358 27.6955 14.7019 27.7822 14.632C27.9839 14.4694 28.0153 14.1745 27.853 13.9729C27.6428 13.7119 27.5268 13.3667 27.5268 13.0005C27.5268 12.6867 27.6106 12.3906 27.7693 12.1445C27.9094 11.927 27.8466 11.6369 27.6289 11.4966C27.4113 11.3567 27.1211 11.4194 26.9809 11.6369C26.7558 11.9865 26.624 12.3933 26.5954 12.8222C25.937 12.9636 25.3577 13.352 24.9663 13.8991C24.6533 13.4672 24.4797 12.9445 24.4797 12.4008C24.4797 11.3413 25.1172 10.407 26.1033 10.0202C26.2612 9.95848 26.3733 9.81615 26.3965 9.64818C26.5078 8.84398 27.2051 8.23779 28.0183 8.23779C28.4738 8.23779 28.8969 8.4204 29.2097 8.75219C29.2529 8.79784 29.2768 8.85863 29.2768 8.92284V9.73143C28.6787 9.75194 28.1042 9.98363 27.653 10.397C27.4621 10.572 27.4494 10.8684 27.6242 11.0593C27.7168 11.1604 27.843 11.2114 27.9699 11.2114C28.083 11.2114 28.1965 11.1709 28.2866 11.0884C28.5627 10.8352 28.9121 10.6904 29.2766 10.6701V17.8688C29.2766 18.1271 29.07 18.339 28.8161 18.341ZM34.5246 13.8991C34.1332 13.352 33.5539 12.9636 32.8954 12.8222C32.8669 12.3933 32.735 11.9865 32.5099 11.6369C32.3698 11.4194 32.0798 11.3567 31.862 11.4966C31.6442 11.6369 31.5815 11.927 31.7216 12.1445C31.8801 12.3906 31.964 12.6867 31.964 13.0005C31.964 13.3667 31.8481 13.7119 31.6379 13.9729C31.4753 14.1745 31.507 14.4694 31.7087 14.632C31.7953 14.7019 31.8994 14.7358 32.0026 14.7358C32.1393 14.7358 32.2751 14.676 32.3679 14.5612C32.5563 14.3273 32.6982 14.0549 32.7883 13.7614C33.3207 13.9091 33.7773 14.321 33.9831 14.8552C34.0456 15.0397 34.0776 15.2329 34.0776 15.4296C34.0776 16.4182 33.2734 17.2221 32.2851 17.2221C32.2223 17.2221 32.1577 17.2184 32.093 17.2116C31.7536 17.1564 31.4362 16.9973 31.175 16.7504C30.9868 16.5727 30.6901 16.581 30.5124 16.7692C30.3344 16.9575 30.343 17.2541 30.5312 17.4321C30.7873 17.674 31.0808 17.861 31.3974 17.9865C31.2321 18.2038 30.9719 18.3412 30.6818 18.3412L30.6748 18.341C30.4206 18.339 30.2141 18.1271 30.2141 17.8688V10.6699C30.5786 10.6902 30.9279 10.8352 31.2043 11.0881C31.2941 11.1706 31.4077 11.2114 31.5207 11.2114C31.6476 11.2114 31.7741 11.1604 31.8664 11.0593C32.0414 10.8684 32.0285 10.572 31.8376 10.397C31.3864 9.98363 30.8122 9.75169 30.2141 9.73119V8.92284C30.2141 8.85863 30.2377 8.79809 30.281 8.75219C30.5937 8.4204 31.0168 8.23779 31.4724 8.23779C32.2858 8.23779 32.9828 8.84423 33.0942 9.64818C33.1174 9.81615 33.2294 9.95848 33.3874 10.0205C34.3735 10.407 35.0109 11.3413 35.0109 12.4008C35.0111 12.9445 34.8376 13.4672 34.5246 13.8991Z" fill="white"/>
<path d="M39.313 22.0552C39.2705 21.9837 39.2085 21.9229 39.1357 21.8824L35.6646 19.9593C35.9324 19.525 36.2224 19.1014 36.5349 18.6912C37.6731 17.1973 38.2747 15.4122 38.2747 13.5294C38.2747 11.65 37.6748 9.86681 36.5396 8.37341C36.3831 8.16711 36.0889 8.12707 35.8828 8.28356C35.6765 8.4403 35.6365 8.73449 35.7932 8.94054C36.8035 10.2696 37.3374 11.8565 37.3374 13.5294C37.3374 15.2054 36.802 16.7938 35.7893 18.1231C34.1887 20.2237 33.1275 22.6553 32.7132 25.1653H26.7791C26.3682 22.6304 25.3177 20.2137 23.7347 18.1661C22.6517 16.7654 22.0921 15.0147 22.159 13.2364C22.3058 9.33214 25.4769 6.12977 29.378 5.94642C31.2129 5.85926 33.0137 6.43616 34.4475 7.56921C34.6507 7.72961 34.9456 7.69494 35.106 7.49206C35.2666 7.28894 35.232 6.99402 35.0288 6.83362C33.4175 5.56044 31.3951 4.91347 29.334 5.0099C27.2073 5.11 25.2035 6.00623 23.691 7.53357C22.1791 9.06066 21.3021 11.0736 21.2223 13.2013C21.1471 15.1986 21.776 17.1656 22.993 18.7396C23.2953 19.1307 23.5765 19.5362 23.8368 19.9537L20.3553 21.8826C20.2831 21.9226 20.2196 21.9837 20.1781 22.0555L18.0253 25.7246C17.8759 25.9793 17.8363 26.2766 17.9144 26.5618C17.9923 26.8467 18.1776 27.0825 18.4362 27.2258L20.1136 28.1553V31.4558C20.1136 31.6262 20.2062 31.7832 20.3553 31.8659L29.5184 36.9423C29.658 37.0195 29.8333 37.0197 29.9727 36.9423L35.7129 33.7622C35.9392 33.6367 36.0213 33.3515 35.8958 33.125C35.7703 32.8986 35.4849 32.8166 35.2586 32.9421L30.2144 35.7368V29.0942L31.5096 31.3017C31.7127 31.6482 32.0718 31.8408 32.4439 31.8408C32.6231 31.8408 32.805 31.7961 32.9742 31.7026L38.4399 28.6746V31.1794L37.1572 31.8901C36.9309 32.0156 36.8489 32.3007 36.9744 32.5273C37.0601 32.6816 37.22 32.7688 37.3848 32.7688C37.4617 32.7688 37.5398 32.75 37.6116 32.7102L39.1357 31.8657C39.2849 31.7832 39.3774 31.6259 39.3774 31.4555V28.155L41.0549 27.2256C41.3135 27.0825 41.4988 26.8467 41.5766 26.5615C41.6548 26.2766 41.6152 25.9793 41.4658 25.7244L39.313 22.0552ZM29.7454 26.8333L28.4273 26.1028H31.0638L29.7454 26.8333ZM37.9414 22.2925L33.7754 24.6004C34.0645 23.2798 34.5445 21.9895 35.1968 20.772L37.9414 22.2925ZM24.3067 20.7652C24.9557 21.9727 25.4329 23.2661 25.7198 24.6028L21.5497 22.2925L24.3067 20.7652ZM21.0511 28.6746L21.9295 29.1611C22.0016 29.2012 22.0794 29.22 22.1564 29.22C22.3211 29.22 22.4813 29.1328 22.5668 28.9783C22.6922 28.7519 22.6102 28.4665 22.3839 28.3411L18.8903 26.4055C18.8424 26.3789 18.8248 26.3369 18.8185 26.3142C18.8121 26.2915 18.806 26.2463 18.8336 26.199L20.7552 22.9243L29.098 27.5464L27.1729 30.8274C27.1314 30.8979 27.0428 30.9223 26.9713 30.8825L24.1747 29.3332C23.9483 29.208 23.6629 29.2898 23.5374 29.5161C23.4122 29.7427 23.494 30.0278 23.7203 30.1533L26.5169 31.7026C26.6859 31.7964 26.8677 31.8408 27.0469 31.8408C27.419 31.8408 27.7781 31.6482 27.9815 31.302L29.2767 29.0945V35.7365L21.0511 31.1794V28.6746ZM40.6723 26.3142C40.6662 26.3369 40.6487 26.3789 40.6006 26.4055L32.5198 30.8825C32.448 30.9223 32.3594 30.8979 32.3182 30.8274L30.3929 27.5464L38.7358 22.9243L40.6572 26.199C40.685 26.2463 40.6787 26.2915 40.6723 26.3142Z" fill="white"/>
<path d="M20.0073 18.584H20.0095C20.2686 18.5828 20.4773 18.3718 20.4761 18.113L20.4756 17.9963C20.4741 17.738 20.2644 17.5298 20.0068 17.5298C20.0059 17.5298 20.0051 17.5298 20.0044 17.5298C19.7456 17.531 19.5366 17.7419 19.5378 18.001L19.5386 18.1177C19.5398 18.3757 19.7493 18.584 20.0073 18.584Z" fill="white"/>
<path d="M19.5425 19.8376C19.5437 20.0959 19.7534 20.3042 20.0112 20.3042H20.0134C20.2725 20.303 20.4812 20.092 20.48 19.833L20.4795 19.7163C20.478 19.4583 20.2686 19.25 20.0108 19.25C20.01 19.25 20.009 19.25 20.0083 19.25C19.7495 19.2512 19.5405 19.4622 19.542 19.7209L19.5425 19.8376Z" fill="white"/>
<path d="M20.8108 19.3843H20.8135L20.9299 19.3838C21.189 19.3823 21.3977 19.1714 21.3965 18.9126C21.395 18.6545 21.1856 18.4463 20.9277 18.4463C20.9268 18.4463 20.926 18.4463 20.9253 18.4463L20.8086 18.4468C20.5496 18.4482 20.3408 18.6592 20.342 18.918C20.3435 19.176 20.553 19.3843 20.8108 19.3843Z" fill="white"/>
<path d="M19.0901 19.3882H19.0928L19.2095 19.3877C19.4683 19.3862 19.677 19.1753 19.6758 18.9165C19.6743 18.6584 19.4649 18.4502 19.207 18.4502C19.2063 18.4502 19.2053 18.4502 19.2046 18.4502L19.0879 18.4507C18.8289 18.4521 18.6201 18.6631 18.6216 18.9219C18.6228 19.1799 18.8325 19.3882 19.0901 19.3882Z" fill="white"/>
<path d="M40.2131 14.9424L40.2136 15.0591C40.2151 15.3171 40.4246 15.5254 40.6824 15.5254H40.6848C40.9436 15.5242 41.1526 15.3132 41.1514 15.0544L41.1506 14.9377C41.1494 14.6797 40.9397 14.4712 40.6819 14.4712C40.6812 14.4712 40.6804 14.4712 40.6797 14.4712C40.4207 14.4727 40.2119 14.6836 40.2131 14.9424Z" fill="white"/>
<path d="M40.6865 17.2463H40.689C40.9478 17.2449 41.1565 17.0339 41.1553 16.7751L41.1545 16.6584C41.1533 16.4001 40.9436 16.1919 40.686 16.1919C40.6851 16.1919 40.6843 16.1919 40.6833 16.1919C40.4246 16.1934 40.2158 16.4043 40.217 16.6633L40.2178 16.7798C40.219 17.0381 40.4287 17.2463 40.6865 17.2463Z" fill="white"/>
<path d="M41.603 15.3877C41.6023 15.3877 41.6016 15.3877 41.6006 15.3877L41.4839 15.3882C41.2251 15.3896 41.0164 15.6003 41.0173 15.8591C41.0188 16.1174 41.2283 16.3259 41.4861 16.3259H41.4883L41.605 16.3252C41.864 16.324 42.0727 16.113 42.0715 15.8542C42.0705 15.5962 41.8608 15.3877 41.603 15.3877Z" fill="white"/>
<path d="M39.7656 16.3296H39.7681L39.8845 16.3291C40.1435 16.3279 40.3523 16.1169 40.3513 15.8582C40.3498 15.6001 40.1404 15.3916 39.8826 15.3916C39.8818 15.3916 39.8811 15.3916 39.8804 15.3916L39.7637 15.3921C39.5046 15.3933 39.2959 15.6042 39.2969 15.863C39.2981 16.1213 39.5078 16.3296 39.7656 16.3296Z" fill="white"/>
<path d="M20.8093 7.43604H20.8118C21.0706 7.43457 21.2793 7.22363 21.2781 6.96484L21.2774 6.84814C21.2761 6.59009 21.0664 6.38184 20.8088 6.38184C20.8079 6.38184 20.8071 6.38184 20.8062 6.38184C20.5474 6.38306 20.3386 6.59399 20.3398 6.85303L20.3406 6.96973C20.3418 7.22778 20.5515 7.43604 20.8093 7.43604Z" fill="white"/>
<path d="M21.2813 8.56885C21.28 8.31079 21.0703 8.10254 20.8128 8.10254C20.8118 8.10254 20.811 8.10254 20.8101 8.10254C20.5513 8.10376 20.3425 8.3147 20.3438 8.57373L20.3445 8.69043C20.3457 8.94849 20.5554 9.15674 20.8132 9.15674H20.8157C21.0745 9.15527 21.2832 8.94434 21.282 8.68555L21.2813 8.56885Z" fill="white"/>
<path d="M21.6128 8.23608H21.6155L21.7322 8.23535C21.991 8.23413 22.1997 8.02319 22.1985 7.76416C22.197 7.5061 21.9876 7.29785 21.7297 7.29785C21.729 7.29785 21.728 7.29785 21.7273 7.29785L21.6106 7.29858C21.3516 7.2998 21.1428 7.51074 21.1443 7.76978C21.1455 8.02783 21.3552 8.23608 21.6128 8.23608Z" fill="white"/>
<path d="M19.8921 8.23999H19.8945L20.0112 8.2395C20.2703 8.23804 20.479 8.0271 20.4775 7.76807C20.4763 7.51001 20.2666 7.30176 20.009 7.30176C20.0081 7.30176 20.0073 7.30176 20.0064 7.30176L19.8897 7.30249C19.6309 7.30371 19.4221 7.51489 19.4233 7.77368C19.4248 8.03174 19.6343 8.23999 19.8921 8.23999Z" fill="white"/>
<path d="M38.9038 17.6348C38.645 17.636 38.4363 17.8469 38.4375 18.106L38.4382 18.2227C38.4395 18.4807 38.6492 18.689 38.907 18.689H38.9094C39.1682 18.6875 39.3769 18.4766 39.3757 18.2178L39.3752 18.1011C39.3738 17.842 39.1609 17.635 38.9038 17.6348Z" fill="white"/>
<path d="M38.9109 20.4097H38.9133C39.1724 20.4082 39.3811 20.1973 39.3796 19.9385L39.3792 19.8218C39.3777 19.5637 39.1682 19.3555 38.9104 19.3555C38.9094 19.3555 38.9087 19.3555 38.908 19.3555C38.6489 19.3567 38.4402 19.5676 38.4417 19.8267L38.4421 19.9434C38.4434 20.2014 38.6531 20.4097 38.9109 20.4097Z" fill="white"/>
<path d="M39.7102 19.4895H39.7129L39.8296 19.4888C40.0884 19.4875 40.2971 19.2766 40.2959 19.0176C40.2944 18.7595 40.085 18.5513 39.8272 18.5513C39.8264 18.5513 39.8254 18.5513 39.8247 18.5513L39.708 18.552C39.449 18.5532 39.2402 18.7642 39.2417 19.0232C39.2429 19.2812 39.4526 19.4895 39.7102 19.4895Z" fill="white"/>
<path d="M38.1043 18.5552L37.9876 18.5559C37.7285 18.5571 37.5198 18.7683 37.5212 19.0271C37.5225 19.2852 37.7322 19.4934 37.99 19.4934H37.9924L38.1091 19.4927C38.3679 19.4915 38.5767 19.2805 38.5754 19.0215C38.5742 18.7627 38.366 18.5547 38.1043 18.5552Z" fill="white"/>
<path d="M38.9226 10.3887C38.982 10.594 39.1692 10.7273 39.3728 10.7273C39.4158 10.7273 39.4595 10.7215 39.503 10.7088L39.9817 10.5706C40.2305 10.4988 40.3738 10.2388 40.3021 9.99028C40.2303 9.7415 39.9703 9.59794 39.7217 9.66996L39.243 9.80815C38.9942 9.87992 38.8506 10.1399 38.9226 10.3887Z" fill="white"/>
<path d="M38.8352 9.64184C38.9582 9.64184 39.081 9.59375 39.1731 9.49804L39.5185 9.13891C39.698 8.95239 39.6924 8.65576 39.5058 8.47607C39.3191 8.29663 39.0224 8.30249 38.843 8.48901L38.4975 8.84814C38.3178 9.03467 38.3237 9.3313 38.5102 9.51098C38.601 9.59839 38.7182 9.64184 38.8352 9.64184Z" fill="white"/>
<path d="M40.0931 11.1281L39.6092 11.0085C39.3583 10.9462 39.1039 11.0998 39.0416 11.351C38.9796 11.6025 39.1329 11.8564 39.3841 11.9186L39.868 12.0383C39.9056 12.0475 39.9437 12.0522 39.9808 12.0522C40.1913 12.0522 40.3827 11.9094 40.4357 11.6957C40.4977 11.4445 40.3443 11.1904 40.0931 11.1281Z" fill="white"/>
<path d="M19.2333 14.8017C19.2414 14.8017 19.2497 14.8017 19.258 14.8009L19.7558 14.775C20.0143 14.7614 20.2131 14.5409 20.1994 14.2824C20.186 14.0238 19.9655 13.8229 19.7067 13.8388L19.2092 13.8649C18.9506 13.8783 18.7519 14.0988 18.7656 14.3576C18.7785 14.6078 18.9855 14.8017 19.2333 14.8017Z" fill="white"/>
<path d="M19.2276 13.2963L19.6715 13.5226C19.7398 13.5573 19.8123 13.5739 19.8839 13.5739C20.0545 13.5739 20.2191 13.4801 20.3021 13.3178C20.4195 13.087 20.3277 12.8048 20.0972 12.6871L19.6532 12.4608C19.4224 12.3434 19.1402 12.4349 19.0225 12.6657C18.9051 12.8964 18.9969 13.1788 19.2276 13.2963Z" fill="white"/>
<path d="M20.2643 15.879C20.4816 15.7381 20.5433 15.4478 20.4022 15.2305C20.2614 15.0135 19.9708 14.9517 19.7538 15.0928L19.3358 15.3641C19.1188 15.5049 19.057 15.7955 19.1979 16.0125C19.2877 16.1507 19.4381 16.2261 19.5914 16.2261C19.6788 16.2261 19.7675 16.2015 19.8463 16.1505L20.2643 15.879Z" fill="white"/>
</g>
<rect x="50.9995" y="27.4375" width="0.999795" height="1.99962" fill="#C4C4C4"/>
<rect x="50.9995" y="30.438" width="0.999795" height="1.99962" fill="#C4C4C4"/>
<rect x="52" y="30.438" width="0.999809" height="1.99959" transform="rotate(-90 52 30.438)" fill="#C4C4C4"/>
<rect x="49" y="30.438" width="0.999809" height="1.99959" transform="rotate(-90 49 30.438)" fill="#C4C4C4"/>
<rect x="58.1145" y="38.25" width="0.628571" height="1.25" fill="#C4C4C4"/>
<rect x="58.1145" y="40.1255" width="0.628571" height="1.25" fill="#C4C4C4"/>
<rect x="58.7429" y="40.1255" width="0.625" height="1.25714" transform="rotate(-90 58.7429 40.1255)" fill="#C4C4C4"/>
<rect x="56.8572" y="40.1255" width="0.625" height="1.25714" transform="rotate(-90 56.8572 40.1255)" fill="#C4C4C4"/>
<rect x="9.85718" y="15.5" width="0.999991" height="2" fill="#C4C4C4"/>
<rect x="9.85718" y="18.5" width="0.999991" height="2" fill="#C4C4C4"/>
<rect x="10.8572" y="18.5" width="1" height="1.99998" transform="rotate(-90 10.8572 18.5)" fill="#C4C4C4"/>
<rect x="7.85718" y="18.5" width="1" height="1.99998" transform="rotate(-90 7.85718 18.5)" fill="#C4C4C4"/>
<rect x="9.54297" y="40.1875" width="0.628571" height="1.25" fill="#C4C4C4"/>
<rect x="9.54297" y="42.063" width="0.628571" height="1.25" fill="#C4C4C4"/>
<rect x="10.1714" y="42.063" width="0.625" height="1.25714" transform="rotate(-90 10.1714 42.063)" fill="#C4C4C4"/>
<rect x="8.28564" y="42.063" width="0.625" height="1.25714" transform="rotate(-90 8.28564 42.063)" fill="#C4C4C4"/>
<rect x="16.0286" y="1.4375" width="0.942857" height="1.875" fill="#C4C4C4"/>
<rect x="16.0286" y="4.24951" width="0.942857" height="1.875" fill="#C4C4C4"/>
<rect x="16.9714" y="4.24951" width="0.9375" height="1.88571" transform="rotate(-90 16.9714 4.24951)" fill="#C4C4C4"/>
<rect x="14.1428" y="4.24951" width="0.9375" height="1.88571" transform="rotate(-90 14.1428 4.24951)" fill="#C4C4C4"/>
<rect x="1.25732" y="26.4375" width="0.628571" height="1.25" fill="#C4C4C4"/>
<rect x="1.25732" y="28.313" width="0.628571" height="1.25" fill="#C4C4C4"/>
<rect x="1.88574" y="28.313" width="0.625" height="1.25714" transform="rotate(-90 1.88574 28.313)" fill="#C4C4C4"/>
<rect y="28.313" width="0.625" height="1.25714" transform="rotate(-90 0 28.313)" fill="#C4C4C4"/>
<rect x="38.9714" width="0.628571" height="1.25" fill="#C4C4C4"/>
<rect x="38.9714" y="1.87549" width="0.628571" height="1.25" fill="#C4C4C4"/>
<rect x="39.5999" y="1.87549" width="0.625" height="1.25714" transform="rotate(-90 39.5999 1.87549)" fill="#C4C4C4"/>
<rect x="37.7144" y="1.87549" width="0.625" height="1.25714" transform="rotate(-90 37.7144 1.87549)" fill="#C4C4C4"/>
<rect x="52.2573" y="6.4375" width="0.628571" height="1.25" fill="#C4C4C4"/>
<rect x="52.2573" y="8.31299" width="0.628571" height="1.25" fill="#C4C4C4"/>
<rect x="52.8857" y="8.31299" width="0.625" height="1.25714" transform="rotate(-90 52.8857 8.31299)" fill="#C4C4C4"/>
<rect x="51" y="8.31299" width="0.625" height="1.25714" transform="rotate(-90 51 8.31299)" fill="#C4C4C4"/>
<rect x="57.2573" y="18.4375" width="0.628571" height="1.25" fill="#C4C4C4"/>
<rect x="57.2573" y="20.313" width="0.628571" height="1.25" fill="#C4C4C4"/>
<rect x="57.8857" y="20.313" width="0.625" height="1.25714" transform="rotate(-90 57.8857 20.313)" fill="#C4C4C4"/>
<rect x="56" y="20.313" width="0.625" height="1.25714" transform="rotate(-90 56 20.313)" fill="#C4C4C4"/>
<rect x="13.8857" y="29.4375" width="0.942857" height="1.875" fill="#C4C4C4"/>
<rect x="13.8857" y="32.2495" width="0.942857" height="1.875" fill="#C4C4C4"/>
<rect x="14.8286" y="32.2495" width="0.9375" height="1.88571" transform="rotate(-90 14.8286 32.2495)" fill="#C4C4C4"/>
<rect x="12" y="32.2495" width="0.9375" height="1.88571" transform="rotate(-90 12 32.2495)" fill="#C4C4C4"/>
<defs>
<clipPath id="clip0">
<rect width="32" height="32" fill="white" transform="translate(14 5)"/>
</clipPath>
</defs>
</svg>
