<svg width="100" height="100" viewBox="0 0 100 100" fill="none" xmlns="http://www.w3.org/2000/svg">
<g clip-path="url(#clip0)">
<path d="M96.8752 40.4293H90.8754C90.7779 40.4293 90.6924 40.3662 90.6715 40.2791C89.6496 35.9889 87.9551 31.901 85.635 28.1291C85.5834 28.0455 85.5936 27.9412 85.6592 27.8758L89.9133 23.6217C90.5035 23.0313 90.8285 22.2467 90.8285 21.4121C90.8285 20.5773 90.5035 19.7926 89.9133 19.2025L80.7973 10.0867C80.2072 9.49629 79.4225 9.17129 78.5877 9.17129C77.7531 9.17129 76.9686 9.49629 76.3781 10.0865L72.124 14.3406C72.0584 14.4063 71.9539 14.4164 71.8707 14.3648C68.0988 12.0447 64.0109 10.3502 59.7207 9.32832C59.6338 9.30762 59.5705 9.22187 59.5705 9.12461V3.1248C59.5707 1.40176 58.1689 0 56.4459 0H43.5539C41.8311 0 40.4291 1.40176 40.4291 3.1248V9.12461C40.4291 9.22207 40.366 9.30762 40.2789 9.32832C35.9887 10.3504 31.9008 12.0447 28.1289 14.3648C28.0455 14.4166 27.9408 14.4064 27.8756 14.3406L23.6215 10.0865C23.0311 9.49629 22.2465 9.17129 21.4119 9.17129C20.5771 9.17129 19.7924 9.49629 19.2023 10.0865L10.0869 19.2027C9.49648 19.7928 9.17148 20.5775 9.17148 21.4123C9.17148 22.2469 9.49648 23.0314 10.0867 23.6219L14.3408 27.876C14.4064 27.9414 14.4166 28.0457 14.365 28.1293C12.0449 31.9012 10.3504 35.9891 9.32852 40.2793C9.30781 40.3662 9.22207 40.4295 9.12461 40.4295H3.1248C1.40176 40.4293 0 41.8311 0 43.5541V56.4461C0 58.1689 1.40176 59.5709 3.1248 59.5709H9.12461C9.22207 59.5709 9.30762 59.634 9.32852 59.7211C10.3504 64.0113 12.0449 68.0992 14.365 71.8711C14.4166 71.9547 14.4064 72.059 14.3408 72.1244L10.0867 76.3787C9.49648 76.9689 9.17148 77.7537 9.17148 78.5883C9.17148 79.423 9.49648 80.2078 10.0867 80.7979L19.2027 89.9137C19.7928 90.5039 20.5775 90.8291 21.4123 90.8291C22.2469 90.8291 23.0314 90.5041 23.6219 89.9139L27.876 85.6598C27.9412 85.5938 28.0459 85.5836 28.1293 85.6355C31.901 87.9555 35.9889 89.6502 40.2797 90.6723C40.3664 90.693 40.4295 90.7787 40.4295 90.876V96.8758C40.4295 98.5986 41.8313 100.001 43.5543 100.001H56.4463C58.1691 100.001 59.5711 98.5988 59.5711 96.8758V90.876C59.5711 90.7787 59.6342 90.6932 59.7213 90.6723C64.0117 89.6502 68.0994 87.9555 71.8713 85.6355C71.9545 85.5838 72.0592 85.5939 72.1246 85.6598L76.3787 89.9139C76.9691 90.5039 77.7537 90.8291 78.5883 90.8291C79.423 90.8291 80.2078 90.5041 80.7977 89.9139L82.948 87.7635C83.5189 87.1928 83.5189 86.2672 82.9482 85.6965C82.3773 85.1258 81.4518 85.1256 80.8812 85.6963L78.7305 87.8469C78.6818 87.8955 78.6262 87.9059 78.5881 87.9059C78.55 87.9059 78.4945 87.8955 78.4457 87.8467L74.1916 83.5926C73.1646 82.5658 71.5805 82.382 70.3395 83.1455C66.8324 85.3029 63.0318 86.8785 59.0439 87.8287C57.6332 88.1645 56.6477 89.4176 56.6477 90.876V96.8758C56.6477 96.9869 56.5572 97.0773 56.4461 97.0773H43.5541C43.443 97.0773 43.3525 96.9869 43.3525 96.8758V90.876C43.3525 89.4176 42.3672 88.1645 40.9566 87.8287C36.9684 86.8785 33.1678 85.3029 29.6607 83.1455C28.4193 82.3824 26.8355 82.5658 25.8086 83.5926L21.5545 87.8467C21.5059 87.8955 21.4502 87.9059 21.4121 87.9059C21.374 87.9059 21.3186 87.8955 21.2697 87.8467L12.1535 78.7307C12.1049 78.682 12.0945 78.6264 12.0945 78.5883C12.0945 78.5502 12.1049 78.4947 12.1537 78.4459L16.4078 74.1918C17.4344 73.165 17.6182 71.5811 16.8549 70.3396C14.6973 66.8324 13.1219 63.0318 12.1719 59.0437C11.8357 57.6332 10.5826 56.6478 9.12441 56.6478H3.1248C3.01367 56.6478 2.92324 56.5574 2.92324 56.4463V43.5543C2.92324 43.4432 3.01367 43.3527 3.1248 43.3527H9.12461C10.5828 43.3527 11.8359 42.3676 12.1721 40.9568C13.1221 36.9688 14.6975 33.1682 16.8551 29.6609C17.6184 28.4195 17.4346 26.8355 16.408 25.8088L12.1539 21.5547C12.1051 21.5061 12.0947 21.4504 12.0947 21.4123C12.0947 21.3742 12.1051 21.3188 12.1539 21.2699L21.2699 12.1537C21.3186 12.1051 21.3742 12.0947 21.4123 12.0947C21.4504 12.0947 21.5059 12.1051 21.5547 12.1539L25.8088 16.408C26.8357 17.4344 28.4195 17.6184 29.6609 16.8551C33.1682 14.6975 36.9688 13.1221 40.9568 12.1721C42.3674 11.8359 43.3527 10.5828 43.3527 9.12461V3.1248C43.3527 3.01367 43.4432 2.92324 43.5543 2.92324H56.4463C56.5574 2.92324 56.6478 3.01367 56.6478 3.1248V9.12461C56.6478 10.5828 57.633 11.8359 59.0437 12.1721C63.0318 13.1221 66.8324 14.6975 70.3396 16.8551C71.5811 17.6182 73.1648 17.4348 74.1918 16.408L78.4459 12.1539C78.4945 12.1051 78.5502 12.0947 78.5883 12.0947C78.6264 12.0947 78.6818 12.1051 78.7307 12.1539L87.8469 21.2699C87.8955 21.3186 87.9059 21.3742 87.9059 21.4123C87.9059 21.4504 87.8955 21.5059 87.8467 21.5547L83.5926 25.8088C82.566 26.8355 82.3822 28.4195 83.1455 29.6609C85.3031 33.1682 86.8785 36.9688 87.8285 40.9568C88.1646 42.3674 89.4178 43.3527 90.876 43.3527H96.8758C96.9869 43.3527 97.0773 43.4432 97.0773 43.5543V56.4463C97.0773 56.5574 96.9869 56.6478 96.8758 56.6478H90.876C89.4178 56.6478 88.1646 57.633 87.8285 59.0437C86.8785 63.0318 85.3031 66.8324 83.1455 70.3396C82.3822 71.5811 82.566 73.165 83.5926 74.1918L87.8467 78.4459C87.8955 78.4945 87.9059 78.5502 87.9059 78.5883C87.9059 78.6264 87.8955 78.6818 87.8467 78.7307L85.6717 80.9057C85.101 81.4766 85.101 82.402 85.6717 82.9729C86.2424 83.5432 87.1678 83.5436 87.7389 82.9729L89.9137 80.7979C90.5041 80.2078 90.8291 79.423 90.8291 78.5883C90.8291 77.7537 90.5041 76.9691 89.9139 76.3787L85.6598 72.1244C85.5941 72.059 85.584 71.9547 85.6355 71.8711C87.9557 68.0992 89.6502 64.0113 90.6721 59.7211C90.6928 59.6342 90.7785 59.5709 90.876 59.5709H96.8758C98.5986 59.5709 100.001 58.1691 100.001 56.4461V43.5541C100 41.8311 98.5982 40.4293 96.8752 40.4293V40.4293Z" fill="#0F8DFF"/>
<path d="M20.6552 44.1466C19.8567 44.0267 19.1137 44.5802 18.9956 45.3787C18.7708 46.8984 18.6571 48.4531 18.6571 49.9999C18.6571 67.2826 32.7175 81.3429 50.0001 81.3429C67.2827 81.3429 81.343 67.2826 81.343 49.9999C81.343 32.7173 67.2827 18.657 50.0001 18.657C43.602 18.657 37.4481 20.5724 32.2034 24.1962C27.0811 27.7355 23.1614 32.6525 20.8663 38.4199L20.8071 38.5699C20.5108 39.3207 20.8792 40.1697 21.6302 40.466C22.3807 40.7621 23.23 40.3939 23.5262 39.6429L23.5839 39.497C25.6635 34.2708 29.2188 29.8117 33.8649 26.6013C38.619 23.3164 44.1983 21.5802 50.0001 21.5802C65.6708 21.5802 78.4198 34.3292 78.4198 49.9999C78.4198 65.6707 65.6708 78.4197 50.0001 78.4197C34.3294 78.4197 21.5803 65.6707 21.5803 49.9999C21.5803 48.5957 21.6837 47.1847 21.8874 45.806C22.0053 45.0076 21.4538 44.2646 20.6552 44.1466V44.1466Z" fill="#0F8DFF"/>
<path d="M45.8475 65.1738C45.9077 65.1738 45.9678 65.173 46.0276 65.1712C47.7145 65.1228 49.3377 64.3843 50.4815 63.1453L66.8545 45.4113C67.9973 44.1736 68.5899 42.565 68.5229 40.8818C68.4557 39.1986 67.7374 37.6421 66.4995 36.4994C63.9446 34.1404 59.9463 34.3 57.5874 36.8548L45.5909 49.8478L42.1618 46.5334C39.661 44.1168 35.6604 44.1853 33.2438 46.6857C30.8272 49.1861 30.8954 53.1863 33.3957 55.6033L41.4647 63.4019C42.6469 64.5445 44.2034 65.1738 45.8475 65.1738V65.1738ZM35.3456 48.7169C36.0084 48.0312 36.8934 47.6865 37.7791 47.6865C38.6262 47.6865 39.4745 48.0019 40.1303 48.6353L44.6348 52.9888C44.9176 53.2621 45.301 53.4087 45.692 53.399C46.0854 53.3879 46.4575 53.2185 46.7245 52.9294L59.7352 38.8377C61.001 37.4668 63.146 37.3818 64.5165 38.6468C65.1803 39.2599 65.5659 40.0949 65.6018 40.9982C65.6377 41.9013 65.32 42.7642 64.7067 43.4283L48.3331 61.1627C47.7198 61.8273 46.8487 62.2234 45.9432 62.2494C45.028 62.2755 44.1532 61.9353 43.4958 61.3002L35.427 53.5015C34.0858 52.2046 34.0493 50.0584 35.3456 48.7169V48.7169Z" fill="#0F8DFF"/>
</g>
<defs>
<clipPath id="clip0">
<rect width="100" height="100" fill="white"/>
</clipPath>
</defs>
</svg>
