<svg width="601" height="332" viewBox="0 0 601 332" fill="none" xmlns="http://www.w3.org/2000/svg">
<path d="M57 47.5H440C444.142 47.5 447.5 50.8579 447.5 55V302.5H49.5V55C49.5 50.8579 52.8579 47.5 57 47.5Z" fill="white" stroke="black" stroke-width="15"/>
<path d="M95.3271 166.592H91.2139V178H89.5352V166.592H85.4307V165.203H95.3271V166.592ZM101.998 177.06C101.365 177.804 100.437 178.176 99.2119 178.176C98.1982 178.176 97.4248 177.883 96.8916 177.297C96.3643 176.705 96.0977 175.832 96.0918 174.678V168.49H97.7178V174.634C97.7178 176.075 98.3037 176.796 99.4756 176.796C100.718 176.796 101.544 176.333 101.954 175.407V168.49H103.58V178H102.033L101.998 177.06ZM116.061 175.478C116.061 175.038 115.894 174.698 115.56 174.458C115.231 174.212 114.654 174.001 113.828 173.825C113.008 173.649 112.354 173.438 111.868 173.192C111.388 172.946 111.03 172.653 110.796 172.313C110.567 171.974 110.453 171.569 110.453 171.101C110.453 170.321 110.781 169.662 111.438 169.123C112.1 168.584 112.943 168.314 113.969 168.314C115.047 168.314 115.92 168.593 116.588 169.149C117.262 169.706 117.599 170.418 117.599 171.285H115.964C115.964 170.84 115.773 170.456 115.393 170.134C115.018 169.812 114.543 169.65 113.969 169.65C113.377 169.65 112.914 169.779 112.58 170.037C112.246 170.295 112.079 170.632 112.079 171.048C112.079 171.44 112.234 171.736 112.545 171.936C112.855 172.135 113.415 172.325 114.224 172.507C115.038 172.688 115.697 172.905 116.201 173.157C116.705 173.409 117.077 173.714 117.317 174.071C117.563 174.423 117.687 174.854 117.687 175.363C117.687 176.213 117.347 176.896 116.667 177.411C115.987 177.921 115.105 178.176 114.021 178.176C113.26 178.176 112.586 178.041 112 177.771C111.414 177.502 110.954 177.127 110.62 176.646C110.292 176.16 110.128 175.636 110.128 175.073H111.754C111.783 175.618 112 176.052 112.404 176.374C112.814 176.69 113.354 176.849 114.021 176.849C114.637 176.849 115.129 176.726 115.498 176.479C115.873 176.228 116.061 175.894 116.061 175.478ZM121.571 178H119.945V168.49H121.571V178ZM119.813 165.968C119.813 165.704 119.893 165.481 120.051 165.3C120.215 165.118 120.455 165.027 120.771 165.027C121.088 165.027 121.328 165.118 121.492 165.3C121.656 165.481 121.738 165.704 121.738 165.968C121.738 166.231 121.656 166.451 121.492 166.627C121.328 166.803 121.088 166.891 120.771 166.891C120.455 166.891 120.215 166.803 120.051 166.627C119.893 166.451 119.813 166.231 119.813 165.968ZM126.388 166.188V168.49H128.163V169.747H126.388V175.645C126.388 176.025 126.467 176.312 126.625 176.506C126.783 176.693 127.053 176.787 127.434 176.787C127.621 176.787 127.879 176.752 128.207 176.682V178C127.779 178.117 127.363 178.176 126.959 178.176C126.232 178.176 125.685 177.956 125.315 177.517C124.946 177.077 124.762 176.453 124.762 175.645V169.747H123.03V168.49H124.762V166.188H126.388ZM131.837 178H130.211V168.49H131.837V178ZM130.079 165.968C130.079 165.704 130.158 165.481 130.316 165.3C130.48 165.118 130.721 165.027 131.037 165.027C131.354 165.027 131.594 165.118 131.758 165.3C131.922 165.481 132.004 165.704 132.004 165.968C132.004 166.231 131.922 166.451 131.758 166.627C131.594 166.803 131.354 166.891 131.037 166.891C130.721 166.891 130.48 166.803 130.316 166.627C130.158 166.451 130.079 166.231 130.079 165.968ZM134.017 173.157C134.017 172.226 134.198 171.388 134.562 170.644C134.931 169.899 135.44 169.325 136.091 168.921C136.747 168.517 137.494 168.314 138.332 168.314C139.627 168.314 140.673 168.763 141.47 169.659C142.272 170.556 142.674 171.748 142.674 173.236V173.351C142.674 174.276 142.495 175.108 142.138 175.847C141.786 176.579 141.279 177.15 140.617 177.561C139.961 177.971 139.205 178.176 138.35 178.176C137.061 178.176 136.015 177.728 135.212 176.831C134.415 175.935 134.017 174.748 134.017 173.271V173.157ZM135.651 173.351C135.651 174.405 135.895 175.252 136.381 175.891C136.873 176.529 137.529 176.849 138.35 176.849C139.176 176.849 139.832 176.526 140.318 175.882C140.805 175.231 141.048 174.323 141.048 173.157C141.048 172.114 140.799 171.271 140.301 170.626C139.809 169.976 139.152 169.65 138.332 169.65C137.529 169.65 136.882 169.97 136.39 170.608C135.897 171.247 135.651 172.161 135.651 173.351ZM157.598 175.759L159.426 168.49H161.052L158.283 178H156.965L154.653 170.793L152.403 178H151.085L148.325 168.49H149.942L151.814 175.609L154.029 168.49H155.339L157.598 175.759ZM166.659 178.176C165.37 178.176 164.321 177.754 163.513 176.91C162.704 176.061 162.3 174.927 162.3 173.509V173.21C162.3 172.267 162.479 171.426 162.836 170.688C163.199 169.943 163.703 169.363 164.348 168.947C164.998 168.525 165.701 168.314 166.457 168.314C167.693 168.314 168.654 168.722 169.34 169.536C170.025 170.351 170.368 171.517 170.368 173.034V173.711H163.926C163.949 174.648 164.222 175.407 164.743 175.987C165.271 176.562 165.938 176.849 166.747 176.849C167.321 176.849 167.808 176.731 168.206 176.497C168.604 176.263 168.953 175.952 169.252 175.565L170.245 176.339C169.448 177.563 168.253 178.176 166.659 178.176ZM166.457 169.65C165.801 169.65 165.25 169.891 164.805 170.371C164.359 170.846 164.084 171.514 163.979 172.375H168.742V172.252C168.695 171.426 168.473 170.787 168.074 170.336C167.676 169.879 167.137 169.65 166.457 169.65ZM180.309 173.351C180.309 174.804 179.975 175.973 179.307 176.857C178.639 177.736 177.742 178.176 176.617 178.176C175.416 178.176 174.487 177.751 173.831 176.901L173.752 178H172.258V164.5H173.884V169.536C174.54 168.722 175.445 168.314 176.6 168.314C177.754 168.314 178.659 168.751 179.315 169.624C179.978 170.497 180.309 171.692 180.309 173.21V173.351ZM178.683 173.166C178.683 172.059 178.469 171.203 178.041 170.6C177.613 169.996 176.998 169.694 176.195 169.694C175.123 169.694 174.353 170.192 173.884 171.188V175.302C174.382 176.298 175.158 176.796 176.213 176.796C176.992 176.796 177.599 176.494 178.032 175.891C178.466 175.287 178.683 174.379 178.683 173.166Z" fill="#C4C4C4"/>
<path d="M0 315C0 312.239 2.23858 310 5 310H491C493.761 310 496 312.239 496 315V318H0V315Z" fill="#E5E5E5"/>
<path d="M0 318H496V322C496 327.523 491.523 332 486 332H9.99999C4.47714 332 0 327.523 0 322V318Z" fill="#C4C4C4"/>
<path d="M430.884 61.3664C431.372 61.8545 431.372 62.646 430.884 63.1341C430.396 63.6223 429.604 63.6223 429.116 63.1341C428.628 62.646 428.628 61.8545 429.116 61.3664C429.604 60.8782 430.396 60.8782 430.884 61.3664Z" fill="#97A3AF"/>
<path d="M430.884 65.1164C431.372 65.6045 431.372 66.396 430.884 66.8841C430.396 67.3723 429.604 67.3723 429.116 66.8841C428.628 66.396 428.628 65.6045 429.116 65.1164C429.604 64.6282 430.396 64.6282 430.884 65.1164" fill="#97A3AF"/>
<path d="M430.884 68.8661C431.372 69.3543 431.372 70.1457 430.884 70.6339C430.396 71.122 429.604 71.122 429.116 70.6339C428.628 70.1457 428.628 69.3543 429.116 68.8661C429.604 68.378 430.396 68.378 430.884 68.8661" fill="#97A3AF"/>
<rect x="81" y="61" width="339" height="10" fill="#F5F5F5"/>
<g clip-path="url(#clip0)">
<path d="M75 65.2858H67.8571L70.3572 62.7858L69.2857 61.7144L65 66.0001L69.2857 70.2858L70.3571 69.2143L67.8571 66.7143H75V65.2858Z" fill="#97A3AF"/>
</g>
<g filter="url(#filter0_d)">
<path d="M601 150C601 232.843 533.843 300 451 300C368.157 300 301 232.843 301 150C301 67.1573 368.157 0 451 0C533.843 0 601 67.1573 601 150Z" fill="white"/>
<path d="M596 150C596 230.081 531.081 295 451 295C370.919 295 306 230.081 306 150C306 69.9187 370.919 5 451 5C531.081 5 596 69.9187 596 150Z" stroke="#2A94F4" stroke-opacity="0.3" stroke-width="10"/>
<circle cx="490.848" cy="235.848" r="23.8477" fill="#0F8DFF"/>
<path d="M506.591 246.095L513.287 257.274H499.895L506.591 246.095Z" fill="#0F8DFF"/>
<g clip-path="url(#clip1)">
<path d="M490.251 223.138L487.038 223.704C486.594 223.782 486.294 224.18 486.367 224.593C486.44 225.007 486.858 225.278 487.302 225.199L490.514 224.633C490.958 224.555 491.258 224.157 491.185 223.744C491.113 223.331 490.694 223.059 490.251 223.138Z" fill="white"/>
<path d="M494.27 219.859L482.307 221.969C480.658 222.259 479.553 223.838 479.843 225.487L484.062 249.413C484.353 251.061 485.931 252.167 487.58 251.876L499.543 249.767C501.192 249.476 502.297 247.897 502.006 246.249L497.788 222.323C497.497 220.674 495.918 219.569 494.27 219.859ZM500.511 246.512C500.657 247.338 500.105 248.126 499.279 248.271L487.316 250.381C486.49 250.526 485.703 249.975 485.557 249.149L481.339 225.223C481.193 224.397 481.744 223.61 482.57 223.464L494.533 221.355C495.359 221.209 496.147 221.76 496.292 222.586L500.511 246.512Z" fill="white"/>
<rect x="480.916" y="230.924" width="13.9733" height="8.75659" transform="rotate(43 480.916 230.924)" fill="#0F8DFF"/>
<rect x="491.712" y="232.256" width="13.9733" height="8.75659" transform="rotate(-43 491.712 232.256)" fill="#0F8DFF"/>
</g>
<path d="M503.39 230.728L489.284 244.832C488.239 245.877 486.545 245.877 485.499 244.832L478.218 237.55C477.173 236.506 477.173 234.811 478.218 233.766C479.263 232.721 480.957 232.721 482.002 233.766L487.392 239.156L499.605 226.943C500.65 225.898 502.344 225.899 503.389 226.943C504.434 227.988 504.434 229.682 503.39 230.728Z" fill="white"/>
<path d="M503.39 230.728L489.284 244.832C488.239 245.877 486.545 245.877 485.499 244.832L478.218 237.55C477.173 236.506 477.173 234.811 478.218 233.766C479.263 232.721 480.957 232.721 482.002 233.766L487.392 239.156L499.605 226.943C500.65 225.898 502.344 225.899 503.389 226.943C504.434 227.988 504.434 229.682 503.39 230.728Z" stroke="#0F8DFF"/>
<g filter="url(#filter1_d)">
<path d="M483 226L505.517 206.5H460.483L483 226Z" fill="white"/>
<rect x="348" y="69" width="196" height="139" rx="15" fill="white"/>
<rect x="366.5" y="126.5" width="159" height="25" rx="2.5" fill="white" stroke="#C2C2C2"/>
<path d="M383.488 140.539L384.637 134.469H386.389L384.496 143H382.727L381.338 137.293L379.949 143H378.18L376.287 134.469H378.039L379.193 140.527L380.6 134.469H382.088L383.488 140.539ZM388.885 137.352C389.334 136.812 389.898 136.543 390.578 136.543C391.953 136.543 392.65 137.342 392.67 138.939V143H390.977V138.986C390.977 138.623 390.898 138.355 390.742 138.184C390.586 138.008 390.326 137.92 389.963 137.92C389.467 137.92 389.107 138.111 388.885 138.494V143H387.191V134H388.885V137.352ZM397.621 143C397.543 142.848 397.486 142.658 397.451 142.432C397.041 142.889 396.508 143.117 395.852 143.117C395.23 143.117 394.715 142.938 394.305 142.578C393.898 142.219 393.695 141.766 393.695 141.219C393.695 140.547 393.943 140.031 394.439 139.672C394.939 139.312 395.66 139.131 396.602 139.127H397.381V138.764C397.381 138.471 397.305 138.236 397.152 138.061C397.004 137.885 396.768 137.797 396.443 137.797C396.158 137.797 395.934 137.865 395.77 138.002C395.609 138.139 395.529 138.326 395.529 138.564H393.836C393.836 138.197 393.949 137.857 394.176 137.545C394.402 137.232 394.723 136.988 395.137 136.812C395.551 136.633 396.016 136.543 396.531 136.543C397.312 136.543 397.932 136.74 398.389 137.135C398.85 137.525 399.08 138.076 399.08 138.787V141.535C399.084 142.137 399.168 142.592 399.332 142.9V143H397.621ZM396.221 141.822C396.471 141.822 396.701 141.768 396.912 141.658C397.123 141.545 397.279 141.395 397.381 141.207V140.117H396.748C395.9 140.117 395.449 140.41 395.395 140.996L395.389 141.096C395.389 141.307 395.463 141.48 395.611 141.617C395.76 141.754 395.963 141.822 396.221 141.822ZM402.408 135.102V136.66H403.492V137.902H402.408V141.066C402.408 141.301 402.453 141.469 402.543 141.57C402.633 141.672 402.805 141.723 403.059 141.723C403.246 141.723 403.412 141.709 403.557 141.682V142.965C403.225 143.066 402.883 143.117 402.531 143.117C401.344 143.117 400.738 142.518 400.715 141.318V137.902H399.789V136.66H400.715V135.102H402.408ZM407.869 141.248C407.869 141.041 407.766 140.879 407.559 140.762C407.355 140.641 407.027 140.533 406.574 140.439C405.066 140.123 404.312 139.482 404.312 138.518C404.312 137.955 404.545 137.486 405.01 137.111C405.479 136.732 406.09 136.543 406.844 136.543C407.648 136.543 408.291 136.732 408.771 137.111C409.256 137.49 409.498 137.982 409.498 138.588H407.805C407.805 138.346 407.727 138.146 407.57 137.99C407.414 137.83 407.17 137.75 406.838 137.75C406.553 137.75 406.332 137.814 406.176 137.943C406.02 138.072 405.941 138.236 405.941 138.436C405.941 138.623 406.029 138.775 406.205 138.893C406.385 139.006 406.686 139.105 407.107 139.191C407.529 139.273 407.885 139.367 408.174 139.473C409.068 139.801 409.516 140.369 409.516 141.178C409.516 141.756 409.268 142.225 408.771 142.584C408.275 142.939 407.635 143.117 406.85 143.117C406.318 143.117 405.846 143.023 405.432 142.836C405.021 142.645 404.699 142.385 404.465 142.057C404.23 141.725 404.113 141.367 404.113 140.984H405.719C405.734 141.285 405.846 141.516 406.053 141.676C406.26 141.836 406.537 141.916 406.885 141.916C407.209 141.916 407.453 141.855 407.617 141.734C407.785 141.609 407.869 141.447 407.869 141.248ZM414.285 143C414.207 142.848 414.15 142.658 414.115 142.432C413.705 142.889 413.172 143.117 412.516 143.117C411.895 143.117 411.379 142.938 410.969 142.578C410.562 142.219 410.359 141.766 410.359 141.219C410.359 140.547 410.607 140.031 411.104 139.672C411.604 139.312 412.324 139.131 413.266 139.127H414.045V138.764C414.045 138.471 413.969 138.236 413.816 138.061C413.668 137.885 413.432 137.797 413.107 137.797C412.822 137.797 412.598 137.865 412.434 138.002C412.273 138.139 412.193 138.326 412.193 138.564H410.5C410.5 138.197 410.613 137.857 410.84 137.545C411.066 137.232 411.387 136.988 411.801 136.812C412.215 136.633 412.68 136.543 413.195 136.543C413.977 136.543 414.596 136.74 415.053 137.135C415.514 137.525 415.744 138.076 415.744 138.787V141.535C415.748 142.137 415.832 142.592 415.996 142.9V143H414.285ZM412.885 141.822C413.135 141.822 413.365 141.768 413.576 141.658C413.787 141.545 413.943 141.395 414.045 141.207V140.117H413.412C412.564 140.117 412.113 140.41 412.059 140.996L412.053 141.096C412.053 141.307 412.127 141.48 412.275 141.617C412.424 141.754 412.627 141.822 412.885 141.822ZM422.752 139.889C422.752 140.865 422.529 141.648 422.084 142.238C421.643 142.824 421.045 143.117 420.291 143.117C419.65 143.117 419.133 142.895 418.738 142.449V145.438H417.045V136.66H418.615L418.674 137.281C419.084 136.789 419.619 136.543 420.279 136.543C421.061 136.543 421.668 136.832 422.102 137.41C422.535 137.988 422.752 138.785 422.752 139.801V139.889ZM421.059 139.766C421.059 139.176 420.953 138.721 420.742 138.4C420.535 138.08 420.232 137.92 419.834 137.92C419.303 137.92 418.938 138.123 418.738 138.529V141.125C418.945 141.543 419.314 141.752 419.846 141.752C420.654 141.752 421.059 141.09 421.059 139.766ZM429.514 139.889C429.514 140.865 429.291 141.648 428.846 142.238C428.404 142.824 427.807 143.117 427.053 143.117C426.412 143.117 425.895 142.895 425.5 142.449V145.438H423.807V136.66H425.377L425.436 137.281C425.846 136.789 426.381 136.543 427.041 136.543C427.822 136.543 428.43 136.832 428.863 137.41C429.297 137.988 429.514 138.785 429.514 139.801V139.889ZM427.82 139.766C427.82 139.176 427.715 138.721 427.504 138.4C427.297 138.08 426.994 137.92 426.596 137.92C426.064 137.92 425.699 138.123 425.5 138.529V141.125C425.707 141.543 426.076 141.752 426.607 141.752C427.416 141.752 427.82 141.09 427.82 139.766Z" fill="#30485F"/>
<path d="M516.762 136.567L516.281 136.085C516.114 135.927 515.92 135.848 515.697 135.848C515.47 135.848 515.278 135.927 515.119 136.085L512 139.205L508.881 136.085C508.722 135.927 508.53 135.848 508.303 135.848C508.08 135.848 507.886 135.927 507.719 136.085L507.244 136.567C507.081 136.729 507 136.924 507 137.151C507 137.382 507.081 137.575 507.244 137.729L511.422 141.907C511.576 142.07 511.769 142.151 512 142.151C512.227 142.151 512.422 142.07 512.584 141.907L516.762 137.729C516.921 137.57 517 137.378 517 137.151C517 136.928 516.921 136.734 516.762 136.567Z" fill="#C4C4C4"/>
<rect x="366.5" y="163.5" width="159" height="25" rx="2.5" fill="white" stroke="#C2C2C2"/>
<path d="M379.465 175.225H381.58V176.754H379.465V179.145H377.854V176.754H375.732V175.225H377.854V172.934H379.465V175.225ZM384.252 174.984H385.154C385.584 174.984 385.902 174.877 386.109 174.662C386.316 174.447 386.42 174.162 386.42 173.807C386.42 173.463 386.316 173.195 386.109 173.004C385.906 172.812 385.625 172.717 385.266 172.717C384.941 172.717 384.67 172.807 384.451 172.986C384.232 173.162 384.123 173.393 384.123 173.678H382.43C382.43 173.232 382.549 172.834 382.787 172.482C383.029 172.127 383.365 171.85 383.795 171.65C384.229 171.451 384.705 171.352 385.225 171.352C386.127 171.352 386.834 171.568 387.346 172.002C387.857 172.432 388.113 173.025 388.113 173.783C388.113 174.174 387.994 174.533 387.756 174.861C387.518 175.189 387.205 175.441 386.818 175.617C387.299 175.789 387.656 176.047 387.891 176.391C388.129 176.734 388.248 177.141 388.248 177.609C388.248 178.367 387.971 178.975 387.416 179.432C386.865 179.889 386.135 180.117 385.225 180.117C384.373 180.117 383.676 179.893 383.133 179.443C382.594 178.994 382.324 178.4 382.324 177.662H384.018C384.018 177.982 384.137 178.244 384.375 178.447C384.617 178.65 384.914 178.752 385.266 178.752C385.668 178.752 385.982 178.646 386.209 178.436C386.439 178.221 386.555 177.938 386.555 177.586C386.555 176.734 386.086 176.309 385.148 176.309H384.252V174.984ZM394.43 176.789H395.396V178.154H394.43V180H392.736V178.154H389.238L389.162 177.088L392.719 171.469H394.43V176.789ZM390.85 176.789H392.736V173.777L392.625 173.971L390.85 176.789ZM402.533 174.41L404.133 171.469H406.154L403.67 175.699L406.219 180H404.174L402.533 177.012L400.893 180H398.848L401.396 175.699L398.912 171.469H400.934L402.533 174.41ZM410.162 174.41L411.762 171.469H413.783L411.299 175.699L413.848 180H411.803L410.162 177.012L408.521 180H406.477L409.025 175.699L406.541 171.469H408.562L410.162 174.41ZM417.791 174.41L419.391 171.469H421.412L418.928 175.699L421.477 180H419.432L417.791 177.012L416.15 180H414.105L416.654 175.699L414.17 171.469H416.191L417.791 174.41ZM431.396 174.41L432.996 171.469H435.018L432.533 175.699L435.082 180H433.037L431.396 177.012L429.756 180H427.711L430.26 175.699L427.775 171.469H429.797L431.396 174.41ZM439.025 174.41L440.625 171.469H442.646L440.162 175.699L442.711 180H440.666L439.025 177.012L437.385 180H435.34L437.889 175.699L435.404 171.469H437.426L439.025 174.41ZM449.643 174.41L451.242 171.469H453.264L450.779 175.699L453.328 180H451.283L449.643 177.012L448.002 180H445.957L448.506 175.699L446.021 171.469H448.043L449.643 174.41ZM457.271 174.41L458.871 171.469H460.893L458.408 175.699L460.957 180H458.912L457.271 177.012L455.631 180H453.586L456.135 175.699L453.65 171.469H455.672L457.271 174.41ZM464.9 174.41L466.5 171.469H468.521L466.037 175.699L468.586 180H466.541L464.9 177.012L463.26 180H461.215L463.764 175.699L461.279 171.469H463.301L464.9 174.41ZM472.529 174.41L474.129 171.469H476.15L473.666 175.699L476.215 180H474.17L472.529 177.012L470.889 180H468.844L471.393 175.699L468.908 171.469H470.93L472.529 174.41ZM480.158 174.41L481.758 171.469H483.779L481.295 175.699L483.844 180H481.799L480.158 177.012L478.518 180H476.473L479.021 175.699L476.537 171.469H478.559L480.158 174.41ZM487.787 174.41L489.387 171.469H491.408L488.924 175.699L491.473 180H489.428L487.787 177.012L486.146 180H484.102L486.65 175.699L484.166 171.469H486.188L487.787 174.41Z" fill="#30485F"/>
</g>
<path d="M397.139 97V89.8906H399.146C399.764 89.8906 400.311 90.0273 400.786 90.3008C401.261 90.5742 401.628 90.9632 401.885 91.4678C402.145 91.9723 402.277 92.5518 402.28 93.2061V93.6602C402.28 94.3307 402.15 94.9183 401.89 95.4229C401.632 95.9274 401.263 96.3148 400.781 96.585C400.303 96.8551 399.744 96.9935 399.106 97H397.139ZM398.076 90.6621V96.2334H399.062C399.785 96.2334 400.347 96.0088 400.747 95.5596C401.151 95.1104 401.353 94.4707 401.353 93.6406V93.2256C401.353 92.4183 401.162 91.7917 400.781 91.3457C400.404 90.8965 399.867 90.6686 399.17 90.6621H398.076ZM405.752 97.0977C405.036 97.0977 404.453 96.8633 404.004 96.3945C403.555 95.9225 403.33 95.2926 403.33 94.5049V94.3389C403.33 93.8148 403.429 93.3477 403.628 92.9375C403.83 92.5241 404.11 92.2018 404.468 91.9707C404.829 91.7363 405.22 91.6191 405.64 91.6191C406.326 91.6191 406.86 91.8454 407.241 92.2979C407.622 92.7503 407.812 93.3981 407.812 94.2412V94.6172H404.233C404.246 95.138 404.398 95.5596 404.688 95.8818C404.98 96.2008 405.352 96.3604 405.801 96.3604C406.12 96.3604 406.39 96.2952 406.611 96.165C406.833 96.0348 407.026 95.8623 407.192 95.6475L407.744 96.0771C407.301 96.7575 406.637 97.0977 405.752 97.0977ZM405.64 92.3613C405.275 92.3613 404.969 92.4948 404.722 92.7617C404.474 93.0254 404.321 93.3965 404.263 93.875H406.909V93.8066C406.883 93.3477 406.759 92.9928 406.538 92.7422C406.317 92.4883 406.017 92.3613 405.64 92.3613ZM409.795 91.7168V97.6104C409.795 98.626 409.334 99.1338 408.413 99.1338C408.215 99.1338 408.031 99.1045 407.861 99.0459V98.3232C407.965 98.3493 408.102 98.3623 408.271 98.3623C408.473 98.3623 408.626 98.307 408.73 98.1963C408.838 98.0889 408.892 97.9001 408.892 97.6299V91.7168H409.795ZM408.799 90.3154C408.799 90.1722 408.843 90.0501 408.931 89.9492C409.022 89.8451 409.154 89.793 409.326 89.793C409.502 89.793 409.635 89.8434 409.727 89.9443C409.818 90.0452 409.863 90.1689 409.863 90.3154C409.863 90.4619 409.818 90.584 409.727 90.6816C409.635 90.7793 409.502 90.8281 409.326 90.8281C409.15 90.8281 409.019 90.7793 408.931 90.6816C408.843 90.584 408.799 90.4619 408.799 90.3154ZM414.517 97C414.465 96.8958 414.422 96.7103 414.39 96.4434C413.97 96.8796 413.468 97.0977 412.886 97.0977C412.365 97.0977 411.937 96.9512 411.602 96.6582C411.27 96.362 411.104 95.9876 411.104 95.5352C411.104 94.985 411.312 94.5586 411.729 94.2559C412.148 93.9499 412.738 93.7969 413.496 93.7969H414.375V93.3818C414.375 93.0661 414.281 92.8154 414.092 92.6299C413.903 92.4411 413.625 92.3467 413.257 92.3467C412.935 92.3467 412.664 92.4281 412.446 92.5908C412.228 92.7536 412.119 92.9505 412.119 93.1816H411.211C411.211 92.918 411.304 92.6641 411.489 92.4199C411.678 92.1725 411.932 91.9772 412.251 91.834C412.573 91.6908 412.926 91.6191 413.311 91.6191C413.919 91.6191 414.396 91.7721 414.741 92.0781C415.086 92.3809 415.265 92.7992 415.278 93.333V95.7646C415.278 96.2497 415.34 96.6354 415.464 96.9219V97H414.517ZM413.018 96.3115C413.301 96.3115 413.569 96.2383 413.823 96.0918C414.077 95.9453 414.261 95.7549 414.375 95.5205V94.4365H413.667C412.56 94.4365 412.007 94.7604 412.007 95.4082C412.007 95.6914 412.101 95.9128 412.29 96.0723C412.479 96.2318 412.721 96.3115 413.018 96.3115ZM417.549 91.7168L417.578 92.3809C417.982 91.873 418.509 91.6191 419.16 91.6191C420.277 91.6191 420.84 92.249 420.85 93.5088V97H419.946V93.5039C419.943 93.123 419.855 92.8415 419.683 92.6592C419.513 92.4769 419.248 92.3857 418.887 92.3857C418.594 92.3857 418.337 92.4639 418.115 92.6201C417.894 92.7764 417.721 92.9814 417.598 93.2354V97H416.694V91.7168H417.549ZM421.973 94.3096C421.973 93.792 422.074 93.3265 422.275 92.9131C422.48 92.4997 422.764 92.1807 423.125 91.9561C423.49 91.7314 423.905 91.6191 424.37 91.6191C425.09 91.6191 425.671 91.8682 426.113 92.3662C426.559 92.8643 426.782 93.5267 426.782 94.3535V94.417C426.782 94.9313 426.683 95.3936 426.484 95.8037C426.289 96.2106 426.007 96.528 425.64 96.7559C425.275 96.9837 424.855 97.0977 424.38 97.0977C423.664 97.0977 423.083 96.8486 422.637 96.3506C422.194 95.8525 421.973 95.1934 421.973 94.373V94.3096ZM422.881 94.417C422.881 95.0029 423.016 95.4733 423.286 95.8281C423.56 96.1829 423.924 96.3604 424.38 96.3604C424.839 96.3604 425.203 96.1813 425.474 95.8232C425.744 95.4619 425.879 94.9574 425.879 94.3096C425.879 93.7301 425.741 93.2614 425.464 92.9033C425.19 92.542 424.826 92.3613 424.37 92.3613C423.924 92.3613 423.564 92.5387 423.291 92.8936C423.018 93.2484 422.881 93.7562 422.881 94.417ZM430.991 95.5986C430.991 95.3545 430.898 95.1657 430.713 95.0322C430.531 94.8955 430.21 94.7783 429.751 94.6807C429.295 94.583 428.932 94.4658 428.662 94.3291C428.395 94.1924 428.197 94.0296 428.066 93.8408C427.939 93.652 427.876 93.4274 427.876 93.167C427.876 92.734 428.058 92.3678 428.423 92.0684C428.791 91.7689 429.259 91.6191 429.829 91.6191C430.428 91.6191 430.913 91.7738 431.284 92.083C431.659 92.3923 431.846 92.7878 431.846 93.2695H430.938C430.938 93.0221 430.832 92.8089 430.62 92.6299C430.412 92.4508 430.148 92.3613 429.829 92.3613C429.5 92.3613 429.243 92.4329 429.058 92.5762C428.872 92.7194 428.779 92.9066 428.779 93.1377C428.779 93.3558 428.866 93.5202 429.038 93.6309C429.211 93.7415 429.521 93.8473 429.971 93.9482C430.423 94.0492 430.789 94.1696 431.069 94.3096C431.349 94.4495 431.556 94.6188 431.689 94.8174C431.826 95.0127 431.895 95.252 431.895 95.5352C431.895 96.0072 431.706 96.3864 431.328 96.6729C430.951 96.9561 430.461 97.0977 429.858 97.0977C429.435 97.0977 429.061 97.0228 428.735 96.873C428.41 96.7233 428.154 96.515 427.969 96.248C427.786 95.9779 427.695 95.6865 427.695 95.374H428.599C428.615 95.6768 428.735 95.9176 428.96 96.0967C429.188 96.2725 429.487 96.3604 429.858 96.3604C430.2 96.3604 430.474 96.292 430.679 96.1553C430.887 96.0153 430.991 95.8298 430.991 95.5986ZM436.777 90.4375V91.7168H437.764V92.415H436.777V95.6914C436.777 95.903 436.821 96.0625 436.909 96.1699C436.997 96.2741 437.147 96.3262 437.358 96.3262C437.463 96.3262 437.606 96.3066 437.788 96.2676V97C437.55 97.0651 437.319 97.0977 437.095 97.0977C436.691 97.0977 436.387 96.9756 436.182 96.7314C435.977 96.4873 435.874 96.1406 435.874 95.6914V92.415H434.912V91.7168H435.874V90.4375H436.777ZM442.085 96.4775C441.733 96.891 441.217 97.0977 440.537 97.0977C439.974 97.0977 439.544 96.9349 439.248 96.6094C438.955 96.2806 438.807 95.7956 438.804 95.1543V91.7168H439.707V95.1299C439.707 95.9307 440.033 96.3311 440.684 96.3311C441.374 96.3311 441.833 96.0739 442.061 95.5596V91.7168H442.964V97H442.104L442.085 96.4775ZM448.94 96.3604C449.263 96.3604 449.544 96.2627 449.785 96.0674C450.026 95.8721 450.16 95.6279 450.186 95.335H451.04C451.024 95.6377 450.92 95.9258 450.728 96.1992C450.535 96.4727 450.278 96.6908 449.956 96.8535C449.637 97.0163 449.299 97.0977 448.94 97.0977C448.221 97.0977 447.648 96.8584 447.222 96.3799C446.799 95.8981 446.587 95.2406 446.587 94.4072V94.2559C446.587 93.7415 446.681 93.2842 446.87 92.8838C447.059 92.4834 447.329 92.1725 447.681 91.9512C448.035 91.7298 448.454 91.6191 448.936 91.6191C449.528 91.6191 450.02 91.7965 450.41 92.1514C450.804 92.5062 451.014 92.9668 451.04 93.5332H450.186C450.16 93.1914 450.029 92.9115 449.795 92.6934C449.564 92.472 449.277 92.3613 448.936 92.3613C448.477 92.3613 448.12 92.5273 447.866 92.8594C447.616 93.1882 447.49 93.665 447.49 94.29V94.4609C447.49 95.0697 447.616 95.5384 447.866 95.8672C448.117 96.196 448.475 96.3604 448.94 96.3604ZM451.816 94.3096C451.816 93.792 451.917 93.3265 452.119 92.9131C452.324 92.4997 452.607 92.1807 452.969 91.9561C453.333 91.7314 453.748 91.6191 454.214 91.6191C454.933 91.6191 455.514 91.8682 455.957 92.3662C456.403 92.8643 456.626 93.5267 456.626 94.3535V94.417C456.626 94.9313 456.527 95.3936 456.328 95.8037C456.133 96.2106 455.851 96.528 455.483 96.7559C455.119 96.9837 454.699 97.0977 454.224 97.0977C453.507 97.0977 452.926 96.8486 452.48 96.3506C452.038 95.8525 451.816 95.1934 451.816 94.373V94.3096ZM452.725 94.417C452.725 95.0029 452.86 95.4733 453.13 95.8281C453.403 96.1829 453.768 96.3604 454.224 96.3604C454.683 96.3604 455.047 96.1813 455.317 95.8232C455.588 95.4619 455.723 94.9574 455.723 94.3096C455.723 93.7301 455.584 93.2614 455.308 92.9033C455.034 92.542 454.67 92.3613 454.214 92.3613C453.768 92.3613 453.408 92.5387 453.135 92.8936C452.861 93.2484 452.725 93.7562 452.725 94.417ZM458.613 91.7168L458.643 92.3809C459.046 91.873 459.574 91.6191 460.225 91.6191C461.341 91.6191 461.904 92.249 461.914 93.5088V97H461.011V93.5039C461.007 93.123 460.92 92.8415 460.747 92.6592C460.578 92.4769 460.312 92.3857 459.951 92.3857C459.658 92.3857 459.401 92.4639 459.18 92.6201C458.958 92.7764 458.786 92.9814 458.662 93.2354V97H457.759V91.7168H458.613ZM464.502 90.4375V91.7168H465.488V92.415H464.502V95.6914C464.502 95.903 464.546 96.0625 464.634 96.1699C464.722 96.2741 464.871 96.3262 465.083 96.3262C465.187 96.3262 465.33 96.3066 465.513 96.2676V97C465.275 97.0651 465.044 97.0977 464.819 97.0977C464.416 97.0977 464.111 96.9756 463.906 96.7314C463.701 96.4873 463.599 96.1406 463.599 95.6914V92.415H462.637V91.7168H463.599V90.4375H464.502ZM469.81 97C469.757 96.8958 469.715 96.7103 469.683 96.4434C469.263 96.8796 468.761 97.0977 468.179 97.0977C467.658 97.0977 467.23 96.9512 466.895 96.6582C466.562 96.362 466.396 95.9876 466.396 95.5352C466.396 94.985 466.605 94.5586 467.021 94.2559C467.441 93.9499 468.031 93.7969 468.789 93.7969H469.668V93.3818C469.668 93.0661 469.574 92.8154 469.385 92.6299C469.196 92.4411 468.918 92.3467 468.55 92.3467C468.228 92.3467 467.957 92.4281 467.739 92.5908C467.521 92.7536 467.412 92.9505 467.412 93.1816H466.504C466.504 92.918 466.597 92.6641 466.782 92.4199C466.971 92.1725 467.225 91.9772 467.544 91.834C467.866 91.6908 468.219 91.6191 468.604 91.6191C469.212 91.6191 469.689 91.7721 470.034 92.0781C470.379 92.3809 470.558 92.7992 470.571 93.333V95.7646C470.571 96.2497 470.633 96.6354 470.757 96.9219V97H469.81ZM468.311 96.3115C468.594 96.3115 468.862 96.2383 469.116 96.0918C469.37 95.9453 469.554 95.7549 469.668 95.5205V94.4365H468.96C467.853 94.4365 467.3 94.7604 467.3 95.4082C467.3 95.6914 467.394 95.9128 467.583 96.0723C467.772 96.2318 468.014 96.3115 468.311 96.3115ZM474.106 96.3604C474.429 96.3604 474.71 96.2627 474.951 96.0674C475.192 95.8721 475.326 95.6279 475.352 95.335H476.206C476.19 95.6377 476.086 95.9258 475.894 96.1992C475.701 96.4727 475.444 96.6908 475.122 96.8535C474.803 97.0163 474.465 97.0977 474.106 97.0977C473.387 97.0977 472.814 96.8584 472.388 96.3799C471.965 95.8981 471.753 95.2406 471.753 94.4072V94.2559C471.753 93.7415 471.847 93.2842 472.036 92.8838C472.225 92.4834 472.495 92.1725 472.847 91.9512C473.201 91.7298 473.62 91.6191 474.102 91.6191C474.694 91.6191 475.186 91.7965 475.576 92.1514C475.97 92.5062 476.18 92.9668 476.206 93.5332H475.352C475.326 93.1914 475.195 92.9115 474.961 92.6934C474.73 92.472 474.443 92.3613 474.102 92.3613C473.643 92.3613 473.286 92.5273 473.032 92.8594C472.782 93.1882 472.656 93.665 472.656 94.29V94.4609C472.656 95.0697 472.782 95.5384 473.032 95.8672C473.283 96.196 473.641 96.3604 474.106 96.3604ZM478.447 90.4375V91.7168H479.434V92.415H478.447V95.6914C478.447 95.903 478.491 96.0625 478.579 96.1699C478.667 96.2741 478.817 96.3262 479.028 96.3262C479.132 96.3262 479.276 96.3066 479.458 96.2676V97C479.22 97.0651 478.989 97.0977 478.765 97.0977C478.361 97.0977 478.057 96.9756 477.852 96.7314C477.646 96.4873 477.544 96.1406 477.544 95.6914V92.415H476.582V91.7168H477.544V90.4375H478.447ZM480.156 94.3096C480.156 93.792 480.257 93.3265 480.459 92.9131C480.664 92.4997 480.947 92.1807 481.309 91.9561C481.673 91.7314 482.088 91.6191 482.554 91.6191C483.273 91.6191 483.854 91.8682 484.297 92.3662C484.743 92.8643 484.966 93.5267 484.966 94.3535V94.417C484.966 94.9313 484.867 95.3936 484.668 95.8037C484.473 96.2106 484.191 96.528 483.823 96.7559C483.459 96.9837 483.039 97.0977 482.563 97.0977C481.847 97.0977 481.266 96.8486 480.82 96.3506C480.378 95.8525 480.156 95.1934 480.156 94.373V94.3096ZM481.064 94.417C481.064 95.0029 481.2 95.4733 481.47 95.8281C481.743 96.1829 482.108 96.3604 482.563 96.3604C483.022 96.3604 483.387 96.1813 483.657 95.8232C483.927 95.4619 484.062 94.9574 484.062 94.3096C484.062 93.7301 483.924 93.2614 483.647 92.9033C483.374 92.542 483.009 92.3613 482.554 92.3613C482.108 92.3613 481.748 92.5387 481.475 92.8936C481.201 93.2484 481.064 93.7562 481.064 94.417ZM490.308 95.6768L491.538 91.7168H492.505L490.381 97.8154C490.052 98.6943 489.53 99.1338 488.813 99.1338L488.643 99.1191L488.306 99.0557V98.3232L488.55 98.3428C488.856 98.3428 489.093 98.2809 489.263 98.1572C489.435 98.0335 489.577 97.8073 489.688 97.4785L489.888 96.9414L488.003 91.7168H488.989L490.308 95.6768ZM497.021 90.4375V91.7168H498.008V92.415H497.021V95.6914C497.021 95.903 497.065 96.0625 497.153 96.1699C497.241 96.2741 497.391 96.3262 497.603 96.3262C497.707 96.3262 497.85 96.3066 498.032 96.2676V97C497.795 97.0651 497.563 97.0977 497.339 97.0977C496.935 97.0977 496.631 96.9756 496.426 96.7314C496.221 96.4873 496.118 96.1406 496.118 95.6914V92.415H495.156V91.7168H496.118V90.4375H497.021ZM501.26 97.0977C500.544 97.0977 499.961 96.8633 499.512 96.3945C499.062 95.9225 498.838 95.2926 498.838 94.5049V94.3389C498.838 93.8148 498.937 93.3477 499.136 92.9375C499.338 92.5241 499.618 92.2018 499.976 91.9707C500.337 91.7363 500.728 91.6191 501.147 91.6191C501.834 91.6191 502.368 91.8454 502.749 92.2979C503.13 92.7503 503.32 93.3981 503.32 94.2412V94.6172H499.741C499.754 95.138 499.906 95.5596 500.195 95.8818C500.488 96.2008 500.859 96.3604 501.309 96.3604C501.628 96.3604 501.898 96.2952 502.119 96.165C502.34 96.0348 502.534 95.8623 502.7 95.6475L503.252 96.0771C502.809 96.7575 502.145 97.0977 501.26 97.0977ZM501.147 92.3613C500.783 92.3613 500.477 92.4948 500.229 92.7617C499.982 93.0254 499.829 93.3965 499.771 93.875H502.417V93.8066C502.391 93.3477 502.267 92.9928 502.046 92.7422C501.825 92.4883 501.525 92.3613 501.147 92.3613ZM386.191 106.527C386.055 106.505 385.907 106.493 385.747 106.493C385.155 106.493 384.753 106.745 384.541 107.25V111H383.638V105.717H384.517L384.531 106.327C384.827 105.855 385.247 105.619 385.791 105.619C385.967 105.619 386.1 105.642 386.191 105.688V106.527ZM389.121 111.098C388.405 111.098 387.822 110.863 387.373 110.395C386.924 109.923 386.699 109.293 386.699 108.505V108.339C386.699 107.815 386.799 107.348 386.997 106.938C387.199 106.524 387.479 106.202 387.837 105.971C388.198 105.736 388.589 105.619 389.009 105.619C389.696 105.619 390.229 105.845 390.61 106.298C390.991 106.75 391.182 107.398 391.182 108.241V108.617H387.603C387.616 109.138 387.767 109.56 388.057 109.882C388.35 110.201 388.721 110.36 389.17 110.36C389.489 110.36 389.759 110.295 389.98 110.165C390.202 110.035 390.396 109.862 390.562 109.647L391.113 110.077C390.671 110.757 390.007 111.098 389.121 111.098ZM389.009 106.361C388.644 106.361 388.338 106.495 388.091 106.762C387.843 107.025 387.69 107.396 387.632 107.875H390.278V107.807C390.252 107.348 390.129 106.993 389.907 106.742C389.686 106.488 389.386 106.361 389.009 106.361ZM395.308 109.599C395.308 109.354 395.215 109.166 395.029 109.032C394.847 108.896 394.526 108.778 394.067 108.681C393.612 108.583 393.249 108.466 392.979 108.329C392.712 108.192 392.513 108.03 392.383 107.841C392.256 107.652 392.192 107.427 392.192 107.167C392.192 106.734 392.375 106.368 392.739 106.068C393.107 105.769 393.576 105.619 394.146 105.619C394.744 105.619 395.229 105.774 395.601 106.083C395.975 106.392 396.162 106.788 396.162 107.27H395.254C395.254 107.022 395.148 106.809 394.937 106.63C394.728 106.451 394.465 106.361 394.146 106.361C393.817 106.361 393.56 106.433 393.374 106.576C393.188 106.719 393.096 106.907 393.096 107.138C393.096 107.356 393.182 107.52 393.354 107.631C393.527 107.742 393.838 107.847 394.287 107.948C394.74 108.049 395.106 108.17 395.386 108.31C395.666 108.45 395.872 108.619 396.006 108.817C396.143 109.013 396.211 109.252 396.211 109.535C396.211 110.007 396.022 110.386 395.645 110.673C395.267 110.956 394.777 111.098 394.175 111.098C393.752 111.098 393.377 111.023 393.052 110.873C392.726 110.723 392.471 110.515 392.285 110.248C392.103 109.978 392.012 109.687 392.012 109.374H392.915C392.931 109.677 393.052 109.918 393.276 110.097C393.504 110.272 393.804 110.36 394.175 110.36C394.517 110.36 394.79 110.292 394.995 110.155C395.203 110.015 395.308 109.83 395.308 109.599ZM401.851 108.417C401.851 109.221 401.667 109.869 401.299 110.36C400.931 110.852 400.433 111.098 399.805 111.098C399.163 111.098 398.659 110.894 398.291 110.487V113.031H397.388V105.717H398.213L398.257 106.303C398.625 105.847 399.136 105.619 399.79 105.619C400.425 105.619 400.926 105.858 401.294 106.337C401.665 106.815 401.851 107.481 401.851 108.334V108.417ZM400.947 108.314C400.947 107.719 400.82 107.248 400.566 106.903C400.312 106.558 399.964 106.386 399.521 106.386C398.975 106.386 398.564 106.628 398.291 107.113V109.638C398.561 110.119 398.975 110.36 399.531 110.36C399.964 110.36 400.308 110.189 400.562 109.848C400.819 109.503 400.947 108.992 400.947 108.314ZM402.764 108.31C402.764 107.792 402.865 107.326 403.066 106.913C403.271 106.5 403.555 106.181 403.916 105.956C404.281 105.731 404.696 105.619 405.161 105.619C405.881 105.619 406.462 105.868 406.904 106.366C407.35 106.864 407.573 107.527 407.573 108.354V108.417C407.573 108.931 407.474 109.394 407.275 109.804C407.08 110.211 406.799 110.528 406.431 110.756C406.066 110.984 405.646 111.098 405.171 111.098C404.455 111.098 403.874 110.849 403.428 110.351C402.985 109.853 402.764 109.193 402.764 108.373V108.31ZM403.672 108.417C403.672 109.003 403.807 109.473 404.077 109.828C404.351 110.183 404.715 110.36 405.171 110.36C405.63 110.36 405.994 110.181 406.265 109.823C406.535 109.462 406.67 108.957 406.67 108.31C406.67 107.73 406.532 107.261 406.255 106.903C405.981 106.542 405.617 106.361 405.161 106.361C404.715 106.361 404.355 106.539 404.082 106.894C403.809 107.248 403.672 107.756 403.672 108.417ZM409.561 105.717L409.59 106.381C409.993 105.873 410.521 105.619 411.172 105.619C412.288 105.619 412.852 106.249 412.861 107.509V111H411.958V107.504C411.955 107.123 411.867 106.841 411.694 106.659C411.525 106.477 411.26 106.386 410.898 106.386C410.605 106.386 410.348 106.464 410.127 106.62C409.906 106.776 409.733 106.981 409.609 107.235V111H408.706V105.717H409.561ZM414.004 108.314C414.004 107.504 414.196 106.853 414.58 106.361C414.964 105.867 415.467 105.619 416.089 105.619C416.707 105.619 417.197 105.831 417.559 106.254V103.5H418.462V111H417.632L417.588 110.434C417.227 110.876 416.724 111.098 416.079 111.098C415.467 111.098 414.967 110.847 414.58 110.346C414.196 109.844 414.004 109.19 414.004 108.383V108.314ZM414.907 108.417C414.907 109.016 415.031 109.485 415.278 109.823C415.526 110.162 415.868 110.331 416.304 110.331C416.877 110.331 417.295 110.074 417.559 109.56V107.133C417.288 106.635 416.873 106.386 416.313 106.386C415.871 106.386 415.526 106.557 415.278 106.898C415.031 107.24 414.907 107.746 414.907 108.417ZM422.061 111.098C421.344 111.098 420.762 110.863 420.312 110.395C419.863 109.923 419.639 109.293 419.639 108.505V108.339C419.639 107.815 419.738 107.348 419.937 106.938C420.138 106.524 420.418 106.202 420.776 105.971C421.138 105.736 421.528 105.619 421.948 105.619C422.635 105.619 423.169 105.845 423.55 106.298C423.931 106.75 424.121 107.398 424.121 108.241V108.617H420.542C420.555 109.138 420.706 109.56 420.996 109.882C421.289 110.201 421.66 110.36 422.109 110.36C422.428 110.36 422.699 110.295 422.92 110.165C423.141 110.035 423.335 109.862 423.501 109.647L424.053 110.077C423.61 110.757 422.946 111.098 422.061 111.098ZM421.948 106.361C421.584 106.361 421.278 106.495 421.03 106.762C420.783 107.025 420.63 107.396 420.571 107.875H423.218V107.807C423.192 107.348 423.068 106.993 422.847 106.742C422.625 106.488 422.326 106.361 421.948 106.361ZM427.725 106.527C427.588 106.505 427.44 106.493 427.28 106.493C426.688 106.493 426.286 106.745 426.074 107.25V111H425.171V105.717H426.05L426.064 106.327C426.361 105.855 426.781 105.619 427.324 105.619C427.5 105.619 427.633 105.642 427.725 105.688V106.527ZM430.654 111.098C429.938 111.098 429.355 110.863 428.906 110.395C428.457 109.923 428.232 109.293 428.232 108.505V108.339C428.232 107.815 428.332 107.348 428.53 106.938C428.732 106.524 429.012 106.202 429.37 105.971C429.731 105.736 430.122 105.619 430.542 105.619C431.229 105.619 431.763 105.845 432.144 106.298C432.524 106.75 432.715 107.398 432.715 108.241V108.617H429.136C429.149 109.138 429.3 109.56 429.59 109.882C429.883 110.201 430.254 110.36 430.703 110.36C431.022 110.36 431.292 110.295 431.514 110.165C431.735 110.035 431.929 109.862 432.095 109.647L432.646 110.077C432.204 110.757 431.54 111.098 430.654 111.098ZM430.542 106.361C430.177 106.361 429.871 106.495 429.624 106.762C429.377 107.025 429.224 107.396 429.165 107.875H431.812V107.807C431.785 107.348 431.662 106.993 431.44 106.742C431.219 106.488 430.92 106.361 430.542 106.361ZM434.614 105.717L434.639 106.303C435.026 105.847 435.549 105.619 436.206 105.619C436.945 105.619 437.448 105.902 437.715 106.469C437.891 106.215 438.118 106.01 438.398 105.854C438.682 105.697 439.015 105.619 439.399 105.619C440.558 105.619 441.147 106.233 441.167 107.46V111H440.264V107.514C440.264 107.136 440.177 106.854 440.005 106.669C439.832 106.48 439.543 106.386 439.136 106.386C438.8 106.386 438.522 106.487 438.301 106.688C438.079 106.887 437.951 107.156 437.915 107.494V111H437.007V107.538C437.007 106.77 436.631 106.386 435.879 106.386C435.286 106.386 434.881 106.638 434.663 107.143V111H433.76V105.717H434.614ZM442.295 108.31C442.295 107.792 442.396 107.326 442.598 106.913C442.803 106.5 443.086 106.181 443.447 105.956C443.812 105.731 444.227 105.619 444.692 105.619C445.412 105.619 445.993 105.868 446.436 106.366C446.882 106.864 447.104 107.527 447.104 108.354V108.417C447.104 108.931 447.005 109.394 446.807 109.804C446.611 110.211 446.33 110.528 445.962 110.756C445.597 110.984 445.177 111.098 444.702 111.098C443.986 111.098 443.405 110.849 442.959 110.351C442.516 109.853 442.295 109.193 442.295 108.373V108.31ZM443.203 108.417C443.203 109.003 443.338 109.473 443.608 109.828C443.882 110.183 444.246 110.36 444.702 110.36C445.161 110.36 445.526 110.181 445.796 109.823C446.066 109.462 446.201 108.957 446.201 108.31C446.201 107.73 446.063 107.261 445.786 106.903C445.513 106.542 445.148 106.361 444.692 106.361C444.246 106.361 443.887 106.539 443.613 106.894C443.34 107.248 443.203 107.756 443.203 108.417ZM451.313 109.599C451.313 109.354 451.221 109.166 451.035 109.032C450.853 108.896 450.532 108.778 450.073 108.681C449.618 108.583 449.255 108.466 448.984 108.329C448.717 108.192 448.519 108.03 448.389 107.841C448.262 107.652 448.198 107.427 448.198 107.167C448.198 106.734 448.381 106.368 448.745 106.068C449.113 105.769 449.582 105.619 450.151 105.619C450.75 105.619 451.235 105.774 451.606 106.083C451.981 106.392 452.168 106.788 452.168 107.27H451.26C451.26 107.022 451.154 106.809 450.942 106.63C450.734 106.451 450.47 106.361 450.151 106.361C449.823 106.361 449.565 106.433 449.38 106.576C449.194 106.719 449.102 106.907 449.102 107.138C449.102 107.356 449.188 107.52 449.36 107.631C449.533 107.742 449.844 107.847 450.293 107.948C450.745 108.049 451.112 108.17 451.392 108.31C451.672 108.45 451.878 108.619 452.012 108.817C452.148 109.013 452.217 109.252 452.217 109.535C452.217 110.007 452.028 110.386 451.65 110.673C451.273 110.956 450.783 111.098 450.181 111.098C449.757 111.098 449.383 111.023 449.058 110.873C448.732 110.723 448.477 110.515 448.291 110.248C448.109 109.978 448.018 109.687 448.018 109.374H448.921C448.937 109.677 449.058 109.918 449.282 110.097C449.51 110.272 449.81 110.36 450.181 110.36C450.522 110.36 450.796 110.292 451.001 110.155C451.209 110.015 451.313 109.83 451.313 109.599ZM459.136 111C459.084 110.896 459.041 110.71 459.009 110.443C458.589 110.88 458.088 111.098 457.505 111.098C456.984 111.098 456.556 110.951 456.221 110.658C455.889 110.362 455.723 109.988 455.723 109.535C455.723 108.985 455.931 108.559 456.348 108.256C456.768 107.95 457.357 107.797 458.115 107.797H458.994V107.382C458.994 107.066 458.9 106.815 458.711 106.63C458.522 106.441 458.244 106.347 457.876 106.347C457.554 106.347 457.284 106.428 457.065 106.591C456.847 106.754 456.738 106.951 456.738 107.182H455.83C455.83 106.918 455.923 106.664 456.108 106.42C456.297 106.173 456.551 105.977 456.87 105.834C457.192 105.691 457.546 105.619 457.93 105.619C458.538 105.619 459.015 105.772 459.36 106.078C459.705 106.381 459.884 106.799 459.897 107.333V109.765C459.897 110.25 459.959 110.635 460.083 110.922V111H459.136ZM457.637 110.312C457.92 110.312 458.188 110.238 458.442 110.092C458.696 109.945 458.88 109.755 458.994 109.521V108.437H458.286C457.179 108.437 456.626 108.76 456.626 109.408C456.626 109.691 456.72 109.913 456.909 110.072C457.098 110.232 457.34 110.312 457.637 110.312ZM464.775 111H463.872V103.5H464.775V111ZM469.487 111C469.435 110.896 469.393 110.71 469.36 110.443C468.94 110.88 468.439 111.098 467.856 111.098C467.336 111.098 466.908 110.951 466.572 110.658C466.24 110.362 466.074 109.988 466.074 109.535C466.074 108.985 466.283 108.559 466.699 108.256C467.119 107.95 467.708 107.797 468.467 107.797H469.346V107.382C469.346 107.066 469.251 106.815 469.062 106.63C468.874 106.441 468.595 106.347 468.228 106.347C467.905 106.347 467.635 106.428 467.417 106.591C467.199 106.754 467.09 106.951 467.09 107.182H466.182C466.182 106.918 466.274 106.664 466.46 106.42C466.649 106.173 466.903 105.977 467.222 105.834C467.544 105.691 467.897 105.619 468.281 105.619C468.89 105.619 469.367 105.772 469.712 106.078C470.057 106.381 470.236 106.799 470.249 107.333V109.765C470.249 110.25 470.311 110.635 470.435 110.922V111H469.487ZM467.988 110.312C468.271 110.312 468.54 110.238 468.794 110.092C469.048 109.945 469.232 109.755 469.346 109.521V108.437H468.638C467.531 108.437 466.978 108.76 466.978 109.408C466.978 109.691 467.072 109.913 467.261 110.072C467.45 110.232 467.692 110.312 467.988 110.312ZM478.618 108.417C478.618 109.224 478.433 109.874 478.062 110.365C477.69 110.854 477.192 111.098 476.567 111.098C475.9 111.098 475.384 110.862 475.02 110.39L474.976 111H474.146V103.5H475.049V106.298C475.413 105.845 475.916 105.619 476.558 105.619C477.199 105.619 477.702 105.862 478.066 106.347C478.434 106.832 478.618 107.496 478.618 108.339V108.417ZM477.715 108.314C477.715 107.699 477.596 107.224 477.358 106.889C477.121 106.553 476.779 106.386 476.333 106.386C475.737 106.386 475.309 106.662 475.049 107.216V109.501C475.326 110.054 475.757 110.331 476.343 110.331C476.776 110.331 477.113 110.163 477.354 109.828C477.594 109.493 477.715 108.988 477.715 108.314ZM482.314 106.527C482.178 106.505 482.03 106.493 481.87 106.493C481.278 106.493 480.876 106.745 480.664 107.25V111H479.761V105.717H480.64L480.654 106.327C480.951 105.855 481.37 105.619 481.914 105.619C482.09 105.619 482.223 105.642 482.314 105.688V106.527ZM485.244 111.098C484.528 111.098 483.945 110.863 483.496 110.395C483.047 109.923 482.822 109.293 482.822 108.505V108.339C482.822 107.815 482.922 107.348 483.12 106.938C483.322 106.524 483.602 106.202 483.96 105.971C484.321 105.736 484.712 105.619 485.132 105.619C485.819 105.619 486.353 105.845 486.733 106.298C487.114 106.75 487.305 107.398 487.305 108.241V108.617H483.726C483.739 109.138 483.89 109.56 484.18 109.882C484.473 110.201 484.844 110.36 485.293 110.36C485.612 110.36 485.882 110.295 486.104 110.165C486.325 110.035 486.519 109.862 486.685 109.647L487.236 110.077C486.794 110.757 486.13 111.098 485.244 111.098ZM485.132 106.361C484.767 106.361 484.461 106.495 484.214 106.762C483.966 107.025 483.813 107.396 483.755 107.875H486.401V107.807C486.375 107.348 486.252 106.993 486.03 106.742C485.809 106.488 485.509 106.361 485.132 106.361ZM490.029 109.774L491.338 105.717H492.261L490.366 111H489.678L487.764 105.717H488.687L490.029 109.774ZM495.254 111.098C494.538 111.098 493.955 110.863 493.506 110.395C493.057 109.923 492.832 109.293 492.832 108.505V108.339C492.832 107.815 492.931 107.348 493.13 106.938C493.332 106.524 493.612 106.202 493.97 105.971C494.331 105.736 494.722 105.619 495.142 105.619C495.828 105.619 496.362 105.845 496.743 106.298C497.124 106.75 497.314 107.398 497.314 108.241V108.617H493.735C493.748 109.138 493.9 109.56 494.189 109.882C494.482 110.201 494.854 110.36 495.303 110.36C495.622 110.36 495.892 110.295 496.113 110.165C496.335 110.035 496.528 109.862 496.694 109.647L497.246 110.077C496.803 110.757 496.139 111.098 495.254 111.098ZM495.142 106.361C494.777 106.361 494.471 106.495 494.224 106.762C493.976 107.025 493.823 107.396 493.765 107.875H496.411V107.807C496.385 107.348 496.261 106.993 496.04 106.742C495.819 106.488 495.519 106.361 495.142 106.361ZM498.145 108.314C498.145 107.504 498.337 106.853 498.721 106.361C499.105 105.867 499.608 105.619 500.229 105.619C500.848 105.619 501.338 105.831 501.699 106.254V103.5H502.603V111H501.772L501.729 110.434C501.367 110.876 500.864 111.098 500.22 111.098C499.608 111.098 499.108 110.847 498.721 110.346C498.337 109.844 498.145 109.19 498.145 108.383V108.314ZM499.048 108.417C499.048 109.016 499.172 109.485 499.419 109.823C499.666 110.162 500.008 110.331 500.444 110.331C501.017 110.331 501.436 110.074 501.699 109.56V107.133C501.429 106.635 501.014 106.386 500.454 106.386C500.011 106.386 499.666 106.557 499.419 106.898C499.172 107.24 499.048 107.746 499.048 108.417ZM507.271 111C507.218 110.896 507.176 110.71 507.144 110.443C506.724 110.88 506.222 111.098 505.64 111.098C505.119 111.098 504.691 110.951 504.355 110.658C504.023 110.362 503.857 109.988 503.857 109.535C503.857 108.985 504.066 108.559 504.482 108.256C504.902 107.95 505.492 107.797 506.25 107.797H507.129V107.382C507.129 107.066 507.035 106.815 506.846 106.63C506.657 106.441 506.379 106.347 506.011 106.347C505.688 106.347 505.418 106.428 505.2 106.591C504.982 106.754 504.873 106.951 504.873 107.182H503.965C503.965 106.918 504.058 106.664 504.243 106.42C504.432 106.173 504.686 105.977 505.005 105.834C505.327 105.691 505.68 105.619 506.064 105.619C506.673 105.619 507.15 105.772 507.495 106.078C507.84 106.381 508.019 106.799 508.032 107.333V109.765C508.032 110.25 508.094 110.635 508.218 110.922V111H507.271ZM505.771 110.312C506.055 110.312 506.323 110.238 506.577 110.092C506.831 109.945 507.015 109.755 507.129 109.521V108.437H506.421C505.314 108.437 504.761 108.76 504.761 109.408C504.761 109.691 504.855 109.913 505.044 110.072C505.233 110.232 505.475 110.312 505.771 110.312ZM509.229 108.314C509.229 107.504 509.421 106.853 509.805 106.361C510.189 105.867 510.692 105.619 511.313 105.619C511.932 105.619 512.422 105.831 512.783 106.254V103.5H513.687V111H512.856L512.812 110.434C512.451 110.876 511.948 111.098 511.304 111.098C510.692 111.098 510.192 110.847 509.805 110.346C509.421 109.844 509.229 109.19 509.229 108.383V108.314ZM510.132 108.417C510.132 109.016 510.256 109.485 510.503 109.823C510.75 110.162 511.092 110.331 511.528 110.331C512.101 110.331 512.52 110.074 512.783 109.56V107.133C512.513 106.635 512.098 106.386 511.538 106.386C511.095 106.386 510.75 106.557 510.503 106.898C510.256 107.24 510.132 107.746 510.132 108.417ZM515.112 110.526C515.112 110.37 515.158 110.24 515.249 110.136C515.343 110.032 515.483 109.979 515.669 109.979C515.854 109.979 515.994 110.032 516.089 110.136C516.187 110.24 516.235 110.37 516.235 110.526C516.235 110.676 516.187 110.801 516.089 110.902C515.994 111.003 515.854 111.054 515.669 111.054C515.483 111.054 515.343 111.003 515.249 110.902C515.158 110.801 515.112 110.676 515.112 110.526Z" fill="#97A3AF"/>
</g>
<defs>
<filter id="filter0_d" x="301" y="0" width="300" height="304" filterUnits="userSpaceOnUse" color-interpolation-filters="sRGB">
<feFlood flood-opacity="0" result="BackgroundImageFix"/>
<feColorMatrix in="SourceAlpha" type="matrix" values="0 0 0 0 0 0 0 0 0 0 0 0 0 0 0 0 0 0 127 0"/>
<feOffset dy="4"/>
<feColorMatrix type="matrix" values="0 0 0 0 0 0 0 0 0 0 0 0 0 0 0 0 0 0 0.15 0"/>
<feBlend mode="normal" in2="BackgroundImageFix" result="effect1_dropShadow"/>
<feBlend mode="normal" in="SourceGraphic" in2="effect1_dropShadow" result="shape"/>
</filter>
<filter id="filter1_d" x="338" y="63" width="216" height="177" filterUnits="userSpaceOnUse" color-interpolation-filters="sRGB">
<feFlood flood-opacity="0" result="BackgroundImageFix"/>
<feColorMatrix in="SourceAlpha" type="matrix" values="0 0 0 0 0 0 0 0 0 0 0 0 0 0 0 0 0 0 127 0"/>
<feOffset dy="4"/>
<feGaussianBlur stdDeviation="5"/>
<feColorMatrix type="matrix" values="0 0 0 0 0 0 0 0 0 0 0 0 0 0 0 0 0 0 0.25 0"/>
<feBlend mode="normal" in2="BackgroundImageFix" result="effect1_dropShadow"/>
<feBlend mode="normal" in="SourceGraphic" in2="effect1_dropShadow" result="shape"/>
</filter>
<clipPath id="clip0">
<rect width="10" height="10" fill="white" transform="translate(65 61)"/>
</clipPath>
<clipPath id="clip1">
<rect width="30.3686" height="30.3686" fill="white" transform="translate(473.334 223.551) rotate(-10)"/>
</clipPath>
</defs>
</svg>
