<svg width="562" height="364" viewBox="0 0 562 364" fill="none" xmlns="http://www.w3.org/2000/svg">
<path d="M49.5 87C49.5 82.8579 52.8579 79.5 57 79.5H440C444.142 79.5 447.5 82.8579 447.5 87V334.5H49.5V87Z" fill="white" stroke="black" stroke-width="15"/>
<path d="M95.3271 198.592H91.2139V210H89.5352V198.592H85.4307V197.203H95.3271V198.592ZM101.998 209.06C101.365 209.804 100.437 210.176 99.2119 210.176C98.1982 210.176 97.4248 209.883 96.8916 209.297C96.3643 208.705 96.0977 207.832 96.0918 206.678V200.49H97.7178V206.634C97.7178 208.075 98.3037 208.796 99.4756 208.796C100.718 208.796 101.544 208.333 101.954 207.407V200.49H103.58V210H102.033L101.998 209.06ZM116.061 207.478C116.061 207.038 115.894 206.698 115.56 206.458C115.231 206.212 114.654 206.001 113.828 205.825C113.008 205.649 112.354 205.438 111.868 205.192C111.388 204.946 111.03 204.653 110.796 204.313C110.567 203.974 110.453 203.569 110.453 203.101C110.453 202.321 110.781 201.662 111.438 201.123C112.1 200.584 112.943 200.314 113.969 200.314C115.047 200.314 115.92 200.593 116.588 201.149C117.262 201.706 117.599 202.418 117.599 203.285H115.964C115.964 202.84 115.773 202.456 115.393 202.134C115.018 201.812 114.543 201.65 113.969 201.65C113.377 201.65 112.914 201.779 112.58 202.037C112.246 202.295 112.079 202.632 112.079 203.048C112.079 203.44 112.234 203.736 112.545 203.936C112.855 204.135 113.415 204.325 114.224 204.507C115.038 204.688 115.697 204.905 116.201 205.157C116.705 205.409 117.077 205.714 117.317 206.071C117.563 206.423 117.687 206.854 117.687 207.363C117.687 208.213 117.347 208.896 116.667 209.411C115.987 209.921 115.105 210.176 114.021 210.176C113.26 210.176 112.586 210.041 112 209.771C111.414 209.502 110.954 209.127 110.62 208.646C110.292 208.16 110.128 207.636 110.128 207.073H111.754C111.783 207.618 112 208.052 112.404 208.374C112.814 208.69 113.354 208.849 114.021 208.849C114.637 208.849 115.129 208.726 115.498 208.479C115.873 208.228 116.061 207.894 116.061 207.478ZM121.571 210H119.945V200.49H121.571V210ZM119.813 197.968C119.813 197.704 119.893 197.481 120.051 197.3C120.215 197.118 120.455 197.027 120.771 197.027C121.088 197.027 121.328 197.118 121.492 197.3C121.656 197.481 121.738 197.704 121.738 197.968C121.738 198.231 121.656 198.451 121.492 198.627C121.328 198.803 121.088 198.891 120.771 198.891C120.455 198.891 120.215 198.803 120.051 198.627C119.893 198.451 119.813 198.231 119.813 197.968ZM126.388 198.188V200.49H128.163V201.747H126.388V207.645C126.388 208.025 126.467 208.312 126.625 208.506C126.783 208.693 127.053 208.787 127.434 208.787C127.621 208.787 127.879 208.752 128.207 208.682V210C127.779 210.117 127.363 210.176 126.959 210.176C126.232 210.176 125.685 209.956 125.315 209.517C124.946 209.077 124.762 208.453 124.762 207.645V201.747H123.03V200.49H124.762V198.188H126.388ZM131.837 210H130.211V200.49H131.837V210ZM130.079 197.968C130.079 197.704 130.158 197.481 130.316 197.3C130.48 197.118 130.721 197.027 131.037 197.027C131.354 197.027 131.594 197.118 131.758 197.3C131.922 197.481 132.004 197.704 132.004 197.968C132.004 198.231 131.922 198.451 131.758 198.627C131.594 198.803 131.354 198.891 131.037 198.891C130.721 198.891 130.48 198.803 130.316 198.627C130.158 198.451 130.079 198.231 130.079 197.968ZM134.017 205.157C134.017 204.226 134.198 203.388 134.562 202.644C134.931 201.899 135.44 201.325 136.091 200.921C136.747 200.517 137.494 200.314 138.332 200.314C139.627 200.314 140.673 200.763 141.47 201.659C142.272 202.556 142.674 203.748 142.674 205.236V205.351C142.674 206.276 142.495 207.108 142.138 207.847C141.786 208.579 141.279 209.15 140.617 209.561C139.961 209.971 139.205 210.176 138.35 210.176C137.061 210.176 136.015 209.728 135.212 208.831C134.415 207.935 134.017 206.748 134.017 205.271V205.157ZM135.651 205.351C135.651 206.405 135.895 207.252 136.381 207.891C136.873 208.529 137.529 208.849 138.35 208.849C139.176 208.849 139.832 208.526 140.318 207.882C140.805 207.231 141.048 206.323 141.048 205.157C141.048 204.114 140.799 203.271 140.301 202.626C139.809 201.976 139.152 201.65 138.332 201.65C137.529 201.65 136.882 201.97 136.39 202.608C135.897 203.247 135.651 204.161 135.651 205.351ZM157.598 207.759L159.426 200.49H161.052L158.283 210H156.965L154.653 202.793L152.403 210H151.085L148.325 200.49H149.942L151.814 207.609L154.029 200.49H155.339L157.598 207.759ZM166.659 210.176C165.37 210.176 164.321 209.754 163.513 208.91C162.704 208.061 162.3 206.927 162.3 205.509V205.21C162.3 204.267 162.479 203.426 162.836 202.688C163.199 201.943 163.703 201.363 164.348 200.947C164.998 200.525 165.701 200.314 166.457 200.314C167.693 200.314 168.654 200.722 169.34 201.536C170.025 202.351 170.368 203.517 170.368 205.034V205.711H163.926C163.949 206.648 164.222 207.407 164.743 207.987C165.271 208.562 165.938 208.849 166.747 208.849C167.321 208.849 167.808 208.731 168.206 208.497C168.604 208.263 168.953 207.952 169.252 207.565L170.245 208.339C169.448 209.563 168.253 210.176 166.659 210.176ZM166.457 201.65C165.801 201.65 165.25 201.891 164.805 202.371C164.359 202.846 164.084 203.514 163.979 204.375H168.742V204.252C168.695 203.426 168.473 202.787 168.074 202.336C167.676 201.879 167.137 201.65 166.457 201.65ZM180.309 205.351C180.309 206.804 179.975 207.973 179.307 208.857C178.639 209.736 177.742 210.176 176.617 210.176C175.416 210.176 174.487 209.751 173.831 208.901L173.752 210H172.258V196.5H173.884V201.536C174.54 200.722 175.445 200.314 176.6 200.314C177.754 200.314 178.659 200.751 179.315 201.624C179.978 202.497 180.309 203.692 180.309 205.21V205.351ZM178.683 205.166C178.683 204.059 178.469 203.203 178.041 202.6C177.613 201.996 176.998 201.694 176.195 201.694C175.123 201.694 174.353 202.192 173.884 203.188V207.302C174.382 208.298 175.158 208.796 176.213 208.796C176.992 208.796 177.599 208.494 178.032 207.891C178.466 207.287 178.683 206.379 178.683 205.166Z" fill="#C4C4C4"/>
<path d="M0 347C0 344.239 2.23858 342 5 342H491C493.761 342 496 344.239 496 347V350H0V347Z" fill="#E5E5E5"/>
<path d="M0 350H496V354C496 359.523 491.523 364 486 364H9.99999C4.47714 364 0 359.523 0 354V350Z" fill="#C4C4C4"/>
<path d="M430.884 93.3661C431.372 93.8543 431.372 94.6457 430.884 95.1339C430.396 95.622 429.604 95.622 429.116 95.1339C428.628 94.6457 428.628 93.8543 429.116 93.3661C429.604 92.878 430.396 92.878 430.884 93.3661Z" fill="#97A3AF"/>
<path d="M430.884 97.1161C431.372 97.6043 431.372 98.3957 430.884 98.8839C430.396 99.372 429.604 99.372 429.116 98.8839C428.628 98.3957 428.628 97.6043 429.116 97.1161C429.604 96.628 430.396 96.628 430.884 97.1161Z" fill="#97A3AF"/>
<path d="M430.884 100.866C431.372 101.354 431.372 102.146 430.884 102.634C430.396 103.122 429.604 103.122 429.116 102.634C428.628 102.146 428.628 101.354 429.116 100.866C429.604 100.378 430.396 100.378 430.884 100.866Z" fill="#97A3AF"/>
<rect x="81" y="93" width="339" height="10" fill="#F5F5F5"/>
<g clip-path="url(#clip0)">
<path d="M75 97.2858H67.8571L70.3572 94.7858L69.2857 93.7144L65 98.0001L69.2857 102.286L70.3571 101.214L67.8571 98.7143H75V97.2858Z" fill="#97A3AF"/>
</g>
<g filter="url(#filter0_d)">
<circle cx="420" cy="311" r="11" fill="#2A94F4"/>
<path d="M484.927 252.122L424.255 311.543L401.723 235.122L484.927 252.122Z" fill="#F5F5F5"/>
<circle cx="412" cy="150" r="150" fill="white"/>
<circle cx="412" cy="150" r="145" stroke="#2A94F4" stroke-opacity="0.3" stroke-width="10"/>
<circle cx="461.848" cy="230.848" r="23.8477" fill="#0F8DFF"/>
<path d="M477.592 241.095L484.288 252.274H470.896L477.592 241.095Z" fill="#0F8DFF"/>
<g clip-path="url(#clip1)">
<path d="M461.251 218.138L458.038 218.704C457.595 218.782 457.294 219.18 457.367 219.593C457.44 220.007 457.858 220.278 458.302 220.199L461.514 219.633C461.958 219.555 462.258 219.157 462.186 218.744C462.113 218.331 461.695 218.059 461.251 218.138Z" fill="white"/>
<path d="M465.27 214.859L453.307 216.969C451.658 217.259 450.553 218.838 450.843 220.487L455.062 244.413C455.353 246.061 456.931 247.167 458.58 246.876L470.543 244.767C472.192 244.476 473.297 242.897 473.006 241.249L468.788 217.323C468.497 215.674 466.918 214.569 465.27 214.859ZM471.511 241.512C471.657 242.338 471.105 243.126 470.279 243.271L458.316 245.381C457.49 245.526 456.703 244.975 456.557 244.149L452.339 220.223C452.193 219.397 452.744 218.61 453.57 218.464L465.533 216.355C466.359 216.209 467.147 216.76 467.292 217.586L471.511 241.512Z" fill="white"/>
<rect x="451.916" y="225.924" width="13.9733" height="8.75659" transform="rotate(43 451.916 225.924)" fill="#0F8DFF"/>
<rect x="462.712" y="227.256" width="13.9733" height="8.75659" transform="rotate(-43 462.712 227.256)" fill="#0F8DFF"/>
</g>
<path d="M474.39 225.728L460.284 239.832C459.239 240.877 457.545 240.877 456.499 239.832L449.218 232.55C448.173 231.506 448.173 229.811 449.218 228.766C450.263 227.721 451.957 227.721 453.002 228.766L458.392 234.156L470.605 221.943C471.65 220.898 473.344 220.899 474.389 221.943C475.434 222.988 475.434 224.682 474.39 225.728Z" fill="white"/>
<path d="M474.39 225.728L460.284 239.832C459.239 240.877 457.545 240.877 456.499 239.832L449.218 232.55C448.173 231.506 448.173 229.811 449.218 228.766C450.263 227.721 451.957 227.721 453.002 228.766L458.392 234.156L470.605 221.943C471.65 220.898 473.344 220.899 474.389 221.943C475.434 222.988 475.434 224.682 474.39 225.728Z" stroke="#0F8DFF"/>
<g filter="url(#filter1_d)">
<path d="M449 222L471.517 202.5H426.483L449 222Z" fill="white"/>
<rect x="314" y="65" width="196" height="139" rx="15" fill="white"/>
<rect x="332.5" y="122.5" width="159" height="25" rx="2.5" fill="white" stroke="#C2C2C2"/>
<path d="M349.488 136.539L350.637 130.469H352.389L350.496 139H348.727L347.338 133.293L345.949 139H344.18L342.287 130.469H344.039L345.193 136.527L346.6 130.469H348.088L349.488 136.539ZM354.885 133.352C355.334 132.812 355.898 132.543 356.578 132.543C357.953 132.543 358.65 133.342 358.67 134.939V139H356.977V134.986C356.977 134.623 356.898 134.355 356.742 134.184C356.586 134.008 356.326 133.92 355.963 133.92C355.467 133.92 355.107 134.111 354.885 134.494V139H353.191V130H354.885V133.352ZM363.621 139C363.543 138.848 363.486 138.658 363.451 138.432C363.041 138.889 362.508 139.117 361.852 139.117C361.23 139.117 360.715 138.938 360.305 138.578C359.898 138.219 359.695 137.766 359.695 137.219C359.695 136.547 359.943 136.031 360.439 135.672C360.939 135.312 361.66 135.131 362.602 135.127H363.381V134.764C363.381 134.471 363.305 134.236 363.152 134.061C363.004 133.885 362.768 133.797 362.443 133.797C362.158 133.797 361.934 133.865 361.77 134.002C361.609 134.139 361.529 134.326 361.529 134.564H359.836C359.836 134.197 359.949 133.857 360.176 133.545C360.402 133.232 360.723 132.988 361.137 132.812C361.551 132.633 362.016 132.543 362.531 132.543C363.312 132.543 363.932 132.74 364.389 133.135C364.85 133.525 365.08 134.076 365.08 134.787V137.535C365.084 138.137 365.168 138.592 365.332 138.9V139H363.621ZM362.221 137.822C362.471 137.822 362.701 137.768 362.912 137.658C363.123 137.545 363.279 137.395 363.381 137.207V136.117H362.748C361.9 136.117 361.449 136.41 361.395 136.996L361.389 137.096C361.389 137.307 361.463 137.48 361.611 137.617C361.76 137.754 361.963 137.822 362.221 137.822ZM368.408 131.102V132.66H369.492V133.902H368.408V137.066C368.408 137.301 368.453 137.469 368.543 137.57C368.633 137.672 368.805 137.723 369.059 137.723C369.246 137.723 369.412 137.709 369.557 137.682V138.965C369.225 139.066 368.883 139.117 368.531 139.117C367.344 139.117 366.738 138.518 366.715 137.318V133.902H365.789V132.66H366.715V131.102H368.408ZM373.869 137.248C373.869 137.041 373.766 136.879 373.559 136.762C373.355 136.641 373.027 136.533 372.574 136.439C371.066 136.123 370.312 135.482 370.312 134.518C370.312 133.955 370.545 133.486 371.01 133.111C371.479 132.732 372.09 132.543 372.844 132.543C373.648 132.543 374.291 132.732 374.771 133.111C375.256 133.49 375.498 133.982 375.498 134.588H373.805C373.805 134.346 373.727 134.146 373.57 133.99C373.414 133.83 373.17 133.75 372.838 133.75C372.553 133.75 372.332 133.814 372.176 133.943C372.02 134.072 371.941 134.236 371.941 134.436C371.941 134.623 372.029 134.775 372.205 134.893C372.385 135.006 372.686 135.105 373.107 135.191C373.529 135.273 373.885 135.367 374.174 135.473C375.068 135.801 375.516 136.369 375.516 137.178C375.516 137.756 375.268 138.225 374.771 138.584C374.275 138.939 373.635 139.117 372.85 139.117C372.318 139.117 371.846 139.023 371.432 138.836C371.021 138.645 370.699 138.385 370.465 138.057C370.23 137.725 370.113 137.367 370.113 136.984H371.719C371.734 137.285 371.846 137.516 372.053 137.676C372.26 137.836 372.537 137.916 372.885 137.916C373.209 137.916 373.453 137.855 373.617 137.734C373.785 137.609 373.869 137.447 373.869 137.248ZM380.285 139C380.207 138.848 380.15 138.658 380.115 138.432C379.705 138.889 379.172 139.117 378.516 139.117C377.895 139.117 377.379 138.938 376.969 138.578C376.562 138.219 376.359 137.766 376.359 137.219C376.359 136.547 376.607 136.031 377.104 135.672C377.604 135.312 378.324 135.131 379.266 135.127H380.045V134.764C380.045 134.471 379.969 134.236 379.816 134.061C379.668 133.885 379.432 133.797 379.107 133.797C378.822 133.797 378.598 133.865 378.434 134.002C378.273 134.139 378.193 134.326 378.193 134.564H376.5C376.5 134.197 376.613 133.857 376.84 133.545C377.066 133.232 377.387 132.988 377.801 132.812C378.215 132.633 378.68 132.543 379.195 132.543C379.977 132.543 380.596 132.74 381.053 133.135C381.514 133.525 381.744 134.076 381.744 134.787V137.535C381.748 138.137 381.832 138.592 381.996 138.9V139H380.285ZM378.885 137.822C379.135 137.822 379.365 137.768 379.576 137.658C379.787 137.545 379.943 137.395 380.045 137.207V136.117H379.412C378.564 136.117 378.113 136.41 378.059 136.996L378.053 137.096C378.053 137.307 378.127 137.48 378.275 137.617C378.424 137.754 378.627 137.822 378.885 137.822ZM388.752 135.889C388.752 136.865 388.529 137.648 388.084 138.238C387.643 138.824 387.045 139.117 386.291 139.117C385.65 139.117 385.133 138.895 384.738 138.449V141.438H383.045V132.66H384.615L384.674 133.281C385.084 132.789 385.619 132.543 386.279 132.543C387.061 132.543 387.668 132.832 388.102 133.41C388.535 133.988 388.752 134.785 388.752 135.801V135.889ZM387.059 135.766C387.059 135.176 386.953 134.721 386.742 134.4C386.535 134.08 386.232 133.92 385.834 133.92C385.303 133.92 384.938 134.123 384.738 134.529V137.125C384.945 137.543 385.314 137.752 385.846 137.752C386.654 137.752 387.059 137.09 387.059 135.766ZM395.514 135.889C395.514 136.865 395.291 137.648 394.846 138.238C394.404 138.824 393.807 139.117 393.053 139.117C392.412 139.117 391.895 138.895 391.5 138.449V141.438H389.807V132.66H391.377L391.436 133.281C391.846 132.789 392.381 132.543 393.041 132.543C393.822 132.543 394.43 132.832 394.863 133.41C395.297 133.988 395.514 134.785 395.514 135.801V135.889ZM393.82 135.766C393.82 135.176 393.715 134.721 393.504 134.4C393.297 134.08 392.994 133.92 392.596 133.92C392.064 133.92 391.699 134.123 391.5 134.529V137.125C391.707 137.543 392.076 137.752 392.607 137.752C393.416 137.752 393.82 137.09 393.82 135.766Z" fill="#30485F"/>
<path d="M482.762 132.567L482.281 132.085C482.114 131.927 481.92 131.848 481.697 131.848C481.47 131.848 481.278 131.927 481.119 132.085L478 135.205L474.881 132.085C474.722 131.927 474.53 131.848 474.303 131.848C474.08 131.848 473.886 131.927 473.719 132.085L473.244 132.567C473.081 132.729 473 132.924 473 133.151C473 133.382 473.081 133.574 473.244 133.728L477.422 137.907C477.576 138.069 477.769 138.151 478 138.151C478.227 138.151 478.422 138.069 478.584 137.907L482.762 133.728C482.921 133.57 483 133.377 483 133.151C483 132.928 482.921 132.733 482.762 132.567Z" fill="#C4C4C4"/>
<rect x="332.5" y="159.5" width="159" height="25" rx="2.5" fill="white" stroke="#C2C2C2"/>
<path d="M345.465 171.225H347.58V172.754H345.465V175.145H343.854V172.754H341.732V171.225H343.854V168.934H345.465V171.225ZM350.252 170.984H351.154C351.584 170.984 351.902 170.877 352.109 170.662C352.316 170.447 352.42 170.162 352.42 169.807C352.42 169.463 352.316 169.195 352.109 169.004C351.906 168.812 351.625 168.717 351.266 168.717C350.941 168.717 350.67 168.807 350.451 168.986C350.232 169.162 350.123 169.393 350.123 169.678H348.43C348.43 169.232 348.549 168.834 348.787 168.482C349.029 168.127 349.365 167.85 349.795 167.65C350.229 167.451 350.705 167.352 351.225 167.352C352.127 167.352 352.834 167.568 353.346 168.002C353.857 168.432 354.113 169.025 354.113 169.783C354.113 170.174 353.994 170.533 353.756 170.861C353.518 171.189 353.205 171.441 352.818 171.617C353.299 171.789 353.656 172.047 353.891 172.391C354.129 172.734 354.248 173.141 354.248 173.609C354.248 174.367 353.971 174.975 353.416 175.432C352.865 175.889 352.135 176.117 351.225 176.117C350.373 176.117 349.676 175.893 349.133 175.443C348.594 174.994 348.324 174.4 348.324 173.662H350.018C350.018 173.982 350.137 174.244 350.375 174.447C350.617 174.65 350.914 174.752 351.266 174.752C351.668 174.752 351.982 174.646 352.209 174.436C352.439 174.221 352.555 173.938 352.555 173.586C352.555 172.734 352.086 172.309 351.148 172.309H350.252V170.984ZM360.43 172.789H361.396V174.154H360.43V176H358.736V174.154H355.238L355.162 173.088L358.719 167.469H360.43V172.789ZM356.85 172.789H358.736V169.777L358.625 169.971L356.85 172.789ZM368.533 170.41L370.133 167.469H372.154L369.67 171.699L372.219 176H370.174L368.533 173.012L366.893 176H364.848L367.396 171.699L364.912 167.469H366.934L368.533 170.41ZM376.162 170.41L377.762 167.469H379.783L377.299 171.699L379.848 176H377.803L376.162 173.012L374.521 176H372.477L375.025 171.699L372.541 167.469H374.562L376.162 170.41ZM383.791 170.41L385.391 167.469H387.412L384.928 171.699L387.477 176H385.432L383.791 173.012L382.15 176H380.105L382.654 171.699L380.17 167.469H382.191L383.791 170.41ZM397.396 170.41L398.996 167.469H401.018L398.533 171.699L401.082 176H399.037L397.396 173.012L395.756 176H393.711L396.26 171.699L393.775 167.469H395.797L397.396 170.41ZM405.025 170.41L406.625 167.469H408.646L406.162 171.699L408.711 176H406.666L405.025 173.012L403.385 176H401.34L403.889 171.699L401.404 167.469H403.426L405.025 170.41ZM415.643 170.41L417.242 167.469H419.264L416.779 171.699L419.328 176H417.283L415.643 173.012L414.002 176H411.957L414.506 171.699L412.021 167.469H414.043L415.643 170.41ZM423.271 170.41L424.871 167.469H426.893L424.408 171.699L426.957 176H424.912L423.271 173.012L421.631 176H419.586L422.135 171.699L419.65 167.469H421.672L423.271 170.41ZM430.9 170.41L432.5 167.469H434.521L432.037 171.699L434.586 176H432.541L430.9 173.012L429.26 176H427.215L429.764 171.699L427.279 167.469H429.301L430.9 170.41ZM438.529 170.41L440.129 167.469H442.15L439.666 171.699L442.215 176H440.17L438.529 173.012L436.889 176H434.844L437.393 171.699L434.908 167.469H436.93L438.529 170.41ZM446.158 170.41L447.758 167.469H449.779L447.295 171.699L449.844 176H447.799L446.158 173.012L444.518 176H442.473L445.021 171.699L442.537 167.469H444.559L446.158 170.41ZM453.787 170.41L455.387 167.469H457.408L454.924 171.699L457.473 176H455.428L453.787 173.012L452.146 176H450.102L452.65 171.699L450.166 167.469H452.188L453.787 170.41Z" fill="#30485F"/>
</g>
<path d="M363.139 93V85.8906H365.146C365.764 85.8906 366.311 86.0273 366.786 86.3008C367.261 86.5742 367.628 86.9632 367.885 87.4678C368.145 87.9723 368.277 88.5518 368.28 89.2061V89.6602C368.28 90.3307 368.15 90.9183 367.89 91.4229C367.632 91.9274 367.263 92.3148 366.781 92.585C366.303 92.8551 365.744 92.9935 365.106 93H363.139ZM364.076 86.6621V92.2334H365.062C365.785 92.2334 366.347 92.0088 366.747 91.5596C367.151 91.1104 367.353 90.4707 367.353 89.6406V89.2256C367.353 88.4183 367.162 87.7917 366.781 87.3457C366.404 86.8965 365.867 86.6686 365.17 86.6621H364.076ZM371.752 93.0977C371.036 93.0977 370.453 92.8633 370.004 92.3945C369.555 91.9225 369.33 91.2926 369.33 90.5049V90.3389C369.33 89.8148 369.429 89.3477 369.628 88.9375C369.83 88.5241 370.11 88.2018 370.468 87.9707C370.829 87.7363 371.22 87.6191 371.64 87.6191C372.326 87.6191 372.86 87.8454 373.241 88.2979C373.622 88.7503 373.812 89.3981 373.812 90.2412V90.6172H370.233C370.246 91.138 370.398 91.5596 370.688 91.8818C370.98 92.2008 371.352 92.3604 371.801 92.3604C372.12 92.3604 372.39 92.2952 372.611 92.165C372.833 92.0348 373.026 91.8623 373.192 91.6475L373.744 92.0771C373.301 92.7575 372.637 93.0977 371.752 93.0977ZM371.64 88.3613C371.275 88.3613 370.969 88.4948 370.722 88.7617C370.474 89.0254 370.321 89.3965 370.263 89.875H372.909V89.8066C372.883 89.3477 372.759 88.9928 372.538 88.7422C372.317 88.4883 372.017 88.3613 371.64 88.3613ZM375.795 87.7168V93.6104C375.795 94.626 375.334 95.1338 374.413 95.1338C374.215 95.1338 374.031 95.1045 373.861 95.0459V94.3232C373.965 94.3493 374.102 94.3623 374.271 94.3623C374.473 94.3623 374.626 94.307 374.73 94.1963C374.838 94.0889 374.892 93.9001 374.892 93.6299V87.7168H375.795ZM374.799 86.3154C374.799 86.1722 374.843 86.0501 374.931 85.9492C375.022 85.8451 375.154 85.793 375.326 85.793C375.502 85.793 375.635 85.8434 375.727 85.9443C375.818 86.0452 375.863 86.1689 375.863 86.3154C375.863 86.4619 375.818 86.584 375.727 86.6816C375.635 86.7793 375.502 86.8281 375.326 86.8281C375.15 86.8281 375.019 86.7793 374.931 86.6816C374.843 86.584 374.799 86.4619 374.799 86.3154ZM380.517 93C380.465 92.8958 380.422 92.7103 380.39 92.4434C379.97 92.8796 379.468 93.0977 378.886 93.0977C378.365 93.0977 377.937 92.9512 377.602 92.6582C377.27 92.362 377.104 91.9876 377.104 91.5352C377.104 90.985 377.312 90.5586 377.729 90.2559C378.148 89.9499 378.738 89.7969 379.496 89.7969H380.375V89.3818C380.375 89.0661 380.281 88.8154 380.092 88.6299C379.903 88.4411 379.625 88.3467 379.257 88.3467C378.935 88.3467 378.664 88.4281 378.446 88.5908C378.228 88.7536 378.119 88.9505 378.119 89.1816H377.211C377.211 88.918 377.304 88.6641 377.489 88.4199C377.678 88.1725 377.932 87.9772 378.251 87.834C378.573 87.6908 378.926 87.6191 379.311 87.6191C379.919 87.6191 380.396 87.7721 380.741 88.0781C381.086 88.3809 381.265 88.7992 381.278 89.333V91.7646C381.278 92.2497 381.34 92.6354 381.464 92.9219V93H380.517ZM379.018 92.3115C379.301 92.3115 379.569 92.2383 379.823 92.0918C380.077 91.9453 380.261 91.7549 380.375 91.5205V90.4365H379.667C378.56 90.4365 378.007 90.7604 378.007 91.4082C378.007 91.6914 378.101 91.9128 378.29 92.0723C378.479 92.2318 378.721 92.3115 379.018 92.3115ZM383.549 87.7168L383.578 88.3809C383.982 87.873 384.509 87.6191 385.16 87.6191C386.277 87.6191 386.84 88.249 386.85 89.5088V93H385.946V89.5039C385.943 89.123 385.855 88.8415 385.683 88.6592C385.513 88.4769 385.248 88.3857 384.887 88.3857C384.594 88.3857 384.337 88.4639 384.115 88.6201C383.894 88.7764 383.721 88.9814 383.598 89.2354V93H382.694V87.7168H383.549ZM387.973 90.3096C387.973 89.792 388.074 89.3265 388.275 88.9131C388.48 88.4997 388.764 88.1807 389.125 87.9561C389.49 87.7314 389.905 87.6191 390.37 87.6191C391.09 87.6191 391.671 87.8682 392.113 88.3662C392.559 88.8643 392.782 89.5267 392.782 90.3535V90.417C392.782 90.9313 392.683 91.3936 392.484 91.8037C392.289 92.2106 392.007 92.528 391.64 92.7559C391.275 92.9837 390.855 93.0977 390.38 93.0977C389.664 93.0977 389.083 92.8486 388.637 92.3506C388.194 91.8525 387.973 91.1934 387.973 90.373V90.3096ZM388.881 90.417C388.881 91.0029 389.016 91.4733 389.286 91.8281C389.56 92.1829 389.924 92.3604 390.38 92.3604C390.839 92.3604 391.203 92.1813 391.474 91.8232C391.744 91.4619 391.879 90.9574 391.879 90.3096C391.879 89.7301 391.741 89.2614 391.464 88.9033C391.19 88.542 390.826 88.3613 390.37 88.3613C389.924 88.3613 389.564 88.5387 389.291 88.8936C389.018 89.2484 388.881 89.7562 388.881 90.417ZM396.991 91.5986C396.991 91.3545 396.898 91.1657 396.713 91.0322C396.531 90.8955 396.21 90.7783 395.751 90.6807C395.295 90.583 394.932 90.4658 394.662 90.3291C394.395 90.1924 394.197 90.0296 394.066 89.8408C393.939 89.652 393.876 89.4274 393.876 89.167C393.876 88.734 394.058 88.3678 394.423 88.0684C394.791 87.7689 395.259 87.6191 395.829 87.6191C396.428 87.6191 396.913 87.7738 397.284 88.083C397.659 88.3923 397.846 88.7878 397.846 89.2695H396.938C396.938 89.0221 396.832 88.8089 396.62 88.6299C396.412 88.4508 396.148 88.3613 395.829 88.3613C395.5 88.3613 395.243 88.4329 395.058 88.5762C394.872 88.7194 394.779 88.9066 394.779 89.1377C394.779 89.3558 394.866 89.5202 395.038 89.6309C395.211 89.7415 395.521 89.8473 395.971 89.9482C396.423 90.0492 396.789 90.1696 397.069 90.3096C397.349 90.4495 397.556 90.6188 397.689 90.8174C397.826 91.0127 397.895 91.252 397.895 91.5352C397.895 92.0072 397.706 92.3864 397.328 92.6729C396.951 92.9561 396.461 93.0977 395.858 93.0977C395.435 93.0977 395.061 93.0228 394.735 92.873C394.41 92.7233 394.154 92.515 393.969 92.248C393.786 91.9779 393.695 91.6865 393.695 91.374H394.599C394.615 91.6768 394.735 91.9176 394.96 92.0967C395.188 92.2725 395.487 92.3604 395.858 92.3604C396.2 92.3604 396.474 92.292 396.679 92.1553C396.887 92.0153 396.991 91.8298 396.991 91.5986ZM402.777 86.4375V87.7168H403.764V88.415H402.777V91.6914C402.777 91.903 402.821 92.0625 402.909 92.1699C402.997 92.2741 403.147 92.3262 403.358 92.3262C403.463 92.3262 403.606 92.3066 403.788 92.2676V93C403.55 93.0651 403.319 93.0977 403.095 93.0977C402.691 93.0977 402.387 92.9756 402.182 92.7314C401.977 92.4873 401.874 92.1406 401.874 91.6914V88.415H400.912V87.7168H401.874V86.4375H402.777ZM408.085 92.4775C407.733 92.891 407.217 93.0977 406.537 93.0977C405.974 93.0977 405.544 92.9349 405.248 92.6094C404.955 92.2806 404.807 91.7956 404.804 91.1543V87.7168H405.707V91.1299C405.707 91.9307 406.033 92.3311 406.684 92.3311C407.374 92.3311 407.833 92.0739 408.061 91.5596V87.7168H408.964V93H408.104L408.085 92.4775ZM414.94 92.3604C415.263 92.3604 415.544 92.2627 415.785 92.0674C416.026 91.8721 416.16 91.6279 416.186 91.335H417.04C417.024 91.6377 416.92 91.9258 416.728 92.1992C416.535 92.4727 416.278 92.6908 415.956 92.8535C415.637 93.0163 415.299 93.0977 414.94 93.0977C414.221 93.0977 413.648 92.8584 413.222 92.3799C412.799 91.8981 412.587 91.2406 412.587 90.4072V90.2559C412.587 89.7415 412.681 89.2842 412.87 88.8838C413.059 88.4834 413.329 88.1725 413.681 87.9512C414.035 87.7298 414.454 87.6191 414.936 87.6191C415.528 87.6191 416.02 87.7965 416.41 88.1514C416.804 88.5062 417.014 88.9668 417.04 89.5332H416.186C416.16 89.1914 416.029 88.9115 415.795 88.6934C415.564 88.472 415.277 88.3613 414.936 88.3613C414.477 88.3613 414.12 88.5273 413.866 88.8594C413.616 89.1882 413.49 89.665 413.49 90.29V90.4609C413.49 91.0697 413.616 91.5384 413.866 91.8672C414.117 92.196 414.475 92.3604 414.94 92.3604ZM417.816 90.3096C417.816 89.792 417.917 89.3265 418.119 88.9131C418.324 88.4997 418.607 88.1807 418.969 87.9561C419.333 87.7314 419.748 87.6191 420.214 87.6191C420.933 87.6191 421.514 87.8682 421.957 88.3662C422.403 88.8643 422.626 89.5267 422.626 90.3535V90.417C422.626 90.9313 422.527 91.3936 422.328 91.8037C422.133 92.2106 421.851 92.528 421.483 92.7559C421.119 92.9837 420.699 93.0977 420.224 93.0977C419.507 93.0977 418.926 92.8486 418.48 92.3506C418.038 91.8525 417.816 91.1934 417.816 90.373V90.3096ZM418.725 90.417C418.725 91.0029 418.86 91.4733 419.13 91.8281C419.403 92.1829 419.768 92.3604 420.224 92.3604C420.683 92.3604 421.047 92.1813 421.317 91.8232C421.588 91.4619 421.723 90.9574 421.723 90.3096C421.723 89.7301 421.584 89.2614 421.308 88.9033C421.034 88.542 420.67 88.3613 420.214 88.3613C419.768 88.3613 419.408 88.5387 419.135 88.8936C418.861 89.2484 418.725 89.7562 418.725 90.417ZM424.613 87.7168L424.643 88.3809C425.046 87.873 425.574 87.6191 426.225 87.6191C427.341 87.6191 427.904 88.249 427.914 89.5088V93H427.011V89.5039C427.007 89.123 426.92 88.8415 426.747 88.6592C426.578 88.4769 426.312 88.3857 425.951 88.3857C425.658 88.3857 425.401 88.4639 425.18 88.6201C424.958 88.7764 424.786 88.9814 424.662 89.2354V93H423.759V87.7168H424.613ZM430.502 86.4375V87.7168H431.488V88.415H430.502V91.6914C430.502 91.903 430.546 92.0625 430.634 92.1699C430.722 92.2741 430.871 92.3262 431.083 92.3262C431.187 92.3262 431.33 92.3066 431.513 92.2676V93C431.275 93.0651 431.044 93.0977 430.819 93.0977C430.416 93.0977 430.111 92.9756 429.906 92.7314C429.701 92.4873 429.599 92.1406 429.599 91.6914V88.415H428.637V87.7168H429.599V86.4375H430.502ZM435.81 93C435.757 92.8958 435.715 92.7103 435.683 92.4434C435.263 92.8796 434.761 93.0977 434.179 93.0977C433.658 93.0977 433.23 92.9512 432.895 92.6582C432.562 92.362 432.396 91.9876 432.396 91.5352C432.396 90.985 432.605 90.5586 433.021 90.2559C433.441 89.9499 434.031 89.7969 434.789 89.7969H435.668V89.3818C435.668 89.0661 435.574 88.8154 435.385 88.6299C435.196 88.4411 434.918 88.3467 434.55 88.3467C434.228 88.3467 433.957 88.4281 433.739 88.5908C433.521 88.7536 433.412 88.9505 433.412 89.1816H432.504C432.504 88.918 432.597 88.6641 432.782 88.4199C432.971 88.1725 433.225 87.9772 433.544 87.834C433.866 87.6908 434.219 87.6191 434.604 87.6191C435.212 87.6191 435.689 87.7721 436.034 88.0781C436.379 88.3809 436.558 88.7992 436.571 89.333V91.7646C436.571 92.2497 436.633 92.6354 436.757 92.9219V93H435.81ZM434.311 92.3115C434.594 92.3115 434.862 92.2383 435.116 92.0918C435.37 91.9453 435.554 91.7549 435.668 91.5205V90.4365H434.96C433.853 90.4365 433.3 90.7604 433.3 91.4082C433.3 91.6914 433.394 91.9128 433.583 92.0723C433.772 92.2318 434.014 92.3115 434.311 92.3115ZM440.106 92.3604C440.429 92.3604 440.71 92.2627 440.951 92.0674C441.192 91.8721 441.326 91.6279 441.352 91.335H442.206C442.19 91.6377 442.086 91.9258 441.894 92.1992C441.701 92.4727 441.444 92.6908 441.122 92.8535C440.803 93.0163 440.465 93.0977 440.106 93.0977C439.387 93.0977 438.814 92.8584 438.388 92.3799C437.965 91.8981 437.753 91.2406 437.753 90.4072V90.2559C437.753 89.7415 437.847 89.2842 438.036 88.8838C438.225 88.4834 438.495 88.1725 438.847 87.9512C439.201 87.7298 439.62 87.6191 440.102 87.6191C440.694 87.6191 441.186 87.7965 441.576 88.1514C441.97 88.5062 442.18 88.9668 442.206 89.5332H441.352C441.326 89.1914 441.195 88.9115 440.961 88.6934C440.73 88.472 440.443 88.3613 440.102 88.3613C439.643 88.3613 439.286 88.5273 439.032 88.8594C438.782 89.1882 438.656 89.665 438.656 90.29V90.4609C438.656 91.0697 438.782 91.5384 439.032 91.8672C439.283 92.196 439.641 92.3604 440.106 92.3604ZM444.447 86.4375V87.7168H445.434V88.415H444.447V91.6914C444.447 91.903 444.491 92.0625 444.579 92.1699C444.667 92.2741 444.817 92.3262 445.028 92.3262C445.132 92.3262 445.276 92.3066 445.458 92.2676V93C445.22 93.0651 444.989 93.0977 444.765 93.0977C444.361 93.0977 444.057 92.9756 443.852 92.7314C443.646 92.4873 443.544 92.1406 443.544 91.6914V88.415H442.582V87.7168H443.544V86.4375H444.447ZM446.156 90.3096C446.156 89.792 446.257 89.3265 446.459 88.9131C446.664 88.4997 446.947 88.1807 447.309 87.9561C447.673 87.7314 448.088 87.6191 448.554 87.6191C449.273 87.6191 449.854 87.8682 450.297 88.3662C450.743 88.8643 450.966 89.5267 450.966 90.3535V90.417C450.966 90.9313 450.867 91.3936 450.668 91.8037C450.473 92.2106 450.191 92.528 449.823 92.7559C449.459 92.9837 449.039 93.0977 448.563 93.0977C447.847 93.0977 447.266 92.8486 446.82 92.3506C446.378 91.8525 446.156 91.1934 446.156 90.373V90.3096ZM447.064 90.417C447.064 91.0029 447.2 91.4733 447.47 91.8281C447.743 92.1829 448.108 92.3604 448.563 92.3604C449.022 92.3604 449.387 92.1813 449.657 91.8232C449.927 91.4619 450.062 90.9574 450.062 90.3096C450.062 89.7301 449.924 89.2614 449.647 88.9033C449.374 88.542 449.009 88.3613 448.554 88.3613C448.108 88.3613 447.748 88.5387 447.475 88.8936C447.201 89.2484 447.064 89.7562 447.064 90.417ZM456.308 91.6768L457.538 87.7168H458.505L456.381 93.8154C456.052 94.6943 455.53 95.1338 454.813 95.1338L454.643 95.1191L454.306 95.0557V94.3232L454.55 94.3428C454.856 94.3428 455.093 94.2809 455.263 94.1572C455.435 94.0335 455.577 93.8073 455.688 93.4785L455.888 92.9414L454.003 87.7168H454.989L456.308 91.6768ZM463.021 86.4375V87.7168H464.008V88.415H463.021V91.6914C463.021 91.903 463.065 92.0625 463.153 92.1699C463.241 92.2741 463.391 92.3262 463.603 92.3262C463.707 92.3262 463.85 92.3066 464.032 92.2676V93C463.795 93.0651 463.563 93.0977 463.339 93.0977C462.935 93.0977 462.631 92.9756 462.426 92.7314C462.221 92.4873 462.118 92.1406 462.118 91.6914V88.415H461.156V87.7168H462.118V86.4375H463.021ZM467.26 93.0977C466.544 93.0977 465.961 92.8633 465.512 92.3945C465.062 91.9225 464.838 91.2926 464.838 90.5049V90.3389C464.838 89.8148 464.937 89.3477 465.136 88.9375C465.338 88.5241 465.618 88.2018 465.976 87.9707C466.337 87.7363 466.728 87.6191 467.147 87.6191C467.834 87.6191 468.368 87.8454 468.749 88.2979C469.13 88.7503 469.32 89.3981 469.32 90.2412V90.6172H465.741C465.754 91.138 465.906 91.5596 466.195 91.8818C466.488 92.2008 466.859 92.3604 467.309 92.3604C467.628 92.3604 467.898 92.2952 468.119 92.165C468.34 92.0348 468.534 91.8623 468.7 91.6475L469.252 92.0771C468.809 92.7575 468.145 93.0977 467.26 93.0977ZM467.147 88.3613C466.783 88.3613 466.477 88.4948 466.229 88.7617C465.982 89.0254 465.829 89.3965 465.771 89.875H468.417V89.8066C468.391 89.3477 468.267 88.9928 468.046 88.7422C467.825 88.4883 467.525 88.3613 467.147 88.3613ZM352.191 102.527C352.055 102.505 351.907 102.493 351.747 102.493C351.155 102.493 350.753 102.745 350.541 103.25V107H349.638V101.717H350.517L350.531 102.327C350.827 101.855 351.247 101.619 351.791 101.619C351.967 101.619 352.1 101.642 352.191 101.688V102.527ZM355.121 107.098C354.405 107.098 353.822 106.863 353.373 106.395C352.924 105.923 352.699 105.293 352.699 104.505V104.339C352.699 103.815 352.799 103.348 352.997 102.938C353.199 102.524 353.479 102.202 353.837 101.971C354.198 101.736 354.589 101.619 355.009 101.619C355.696 101.619 356.229 101.845 356.61 102.298C356.991 102.75 357.182 103.398 357.182 104.241V104.617H353.603C353.616 105.138 353.767 105.56 354.057 105.882C354.35 106.201 354.721 106.36 355.17 106.36C355.489 106.36 355.759 106.295 355.98 106.165C356.202 106.035 356.396 105.862 356.562 105.647L357.113 106.077C356.671 106.757 356.007 107.098 355.121 107.098ZM355.009 102.361C354.644 102.361 354.338 102.495 354.091 102.762C353.843 103.025 353.69 103.396 353.632 103.875H356.278V103.807C356.252 103.348 356.129 102.993 355.907 102.742C355.686 102.488 355.386 102.361 355.009 102.361ZM361.308 105.599C361.308 105.354 361.215 105.166 361.029 105.032C360.847 104.896 360.526 104.778 360.067 104.681C359.612 104.583 359.249 104.466 358.979 104.329C358.712 104.192 358.513 104.03 358.383 103.841C358.256 103.652 358.192 103.427 358.192 103.167C358.192 102.734 358.375 102.368 358.739 102.068C359.107 101.769 359.576 101.619 360.146 101.619C360.744 101.619 361.229 101.774 361.601 102.083C361.975 102.392 362.162 102.788 362.162 103.27H361.254C361.254 103.022 361.148 102.809 360.937 102.63C360.728 102.451 360.465 102.361 360.146 102.361C359.817 102.361 359.56 102.433 359.374 102.576C359.188 102.719 359.096 102.907 359.096 103.138C359.096 103.356 359.182 103.52 359.354 103.631C359.527 103.742 359.838 103.847 360.287 103.948C360.74 104.049 361.106 104.17 361.386 104.31C361.666 104.45 361.872 104.619 362.006 104.817C362.143 105.013 362.211 105.252 362.211 105.535C362.211 106.007 362.022 106.386 361.645 106.673C361.267 106.956 360.777 107.098 360.175 107.098C359.752 107.098 359.377 107.023 359.052 106.873C358.726 106.723 358.471 106.515 358.285 106.248C358.103 105.978 358.012 105.687 358.012 105.374H358.915C358.931 105.677 359.052 105.918 359.276 106.097C359.504 106.272 359.804 106.36 360.175 106.36C360.517 106.36 360.79 106.292 360.995 106.155C361.203 106.015 361.308 105.83 361.308 105.599ZM367.851 104.417C367.851 105.221 367.667 105.869 367.299 106.36C366.931 106.852 366.433 107.098 365.805 107.098C365.163 107.098 364.659 106.894 364.291 106.487V109.031H363.388V101.717H364.213L364.257 102.303C364.625 101.847 365.136 101.619 365.79 101.619C366.425 101.619 366.926 101.858 367.294 102.337C367.665 102.815 367.851 103.481 367.851 104.334V104.417ZM366.947 104.314C366.947 103.719 366.82 103.248 366.566 102.903C366.312 102.558 365.964 102.386 365.521 102.386C364.975 102.386 364.564 102.628 364.291 103.113V105.638C364.561 106.119 364.975 106.36 365.531 106.36C365.964 106.36 366.308 106.189 366.562 105.848C366.819 105.503 366.947 104.992 366.947 104.314ZM368.764 104.31C368.764 103.792 368.865 103.326 369.066 102.913C369.271 102.5 369.555 102.181 369.916 101.956C370.281 101.731 370.696 101.619 371.161 101.619C371.881 101.619 372.462 101.868 372.904 102.366C373.35 102.864 373.573 103.527 373.573 104.354V104.417C373.573 104.931 373.474 105.394 373.275 105.804C373.08 106.211 372.799 106.528 372.431 106.756C372.066 106.984 371.646 107.098 371.171 107.098C370.455 107.098 369.874 106.849 369.428 106.351C368.985 105.853 368.764 105.193 368.764 104.373V104.31ZM369.672 104.417C369.672 105.003 369.807 105.473 370.077 105.828C370.351 106.183 370.715 106.36 371.171 106.36C371.63 106.36 371.994 106.181 372.265 105.823C372.535 105.462 372.67 104.957 372.67 104.31C372.67 103.73 372.532 103.261 372.255 102.903C371.981 102.542 371.617 102.361 371.161 102.361C370.715 102.361 370.355 102.539 370.082 102.894C369.809 103.248 369.672 103.756 369.672 104.417ZM375.561 101.717L375.59 102.381C375.993 101.873 376.521 101.619 377.172 101.619C378.288 101.619 378.852 102.249 378.861 103.509V107H377.958V103.504C377.955 103.123 377.867 102.841 377.694 102.659C377.525 102.477 377.26 102.386 376.898 102.386C376.605 102.386 376.348 102.464 376.127 102.62C375.906 102.776 375.733 102.981 375.609 103.235V107H374.706V101.717H375.561ZM380.004 104.314C380.004 103.504 380.196 102.853 380.58 102.361C380.964 101.867 381.467 101.619 382.089 101.619C382.707 101.619 383.197 101.831 383.559 102.254V99.5H384.462V107H383.632L383.588 106.434C383.227 106.876 382.724 107.098 382.079 107.098C381.467 107.098 380.967 106.847 380.58 106.346C380.196 105.844 380.004 105.19 380.004 104.383V104.314ZM380.907 104.417C380.907 105.016 381.031 105.485 381.278 105.823C381.526 106.162 381.868 106.331 382.304 106.331C382.877 106.331 383.295 106.074 383.559 105.56V103.133C383.288 102.635 382.873 102.386 382.313 102.386C381.871 102.386 381.526 102.557 381.278 102.898C381.031 103.24 380.907 103.746 380.907 104.417ZM388.061 107.098C387.344 107.098 386.762 106.863 386.312 106.395C385.863 105.923 385.639 105.293 385.639 104.505V104.339C385.639 103.815 385.738 103.348 385.937 102.938C386.138 102.524 386.418 102.202 386.776 101.971C387.138 101.736 387.528 101.619 387.948 101.619C388.635 101.619 389.169 101.845 389.55 102.298C389.931 102.75 390.121 103.398 390.121 104.241V104.617H386.542C386.555 105.138 386.706 105.56 386.996 105.882C387.289 106.201 387.66 106.36 388.109 106.36C388.428 106.36 388.699 106.295 388.92 106.165C389.141 106.035 389.335 105.862 389.501 105.647L390.053 106.077C389.61 106.757 388.946 107.098 388.061 107.098ZM387.948 102.361C387.584 102.361 387.278 102.495 387.03 102.762C386.783 103.025 386.63 103.396 386.571 103.875H389.218V103.807C389.192 103.348 389.068 102.993 388.847 102.742C388.625 102.488 388.326 102.361 387.948 102.361ZM393.725 102.527C393.588 102.505 393.44 102.493 393.28 102.493C392.688 102.493 392.286 102.745 392.074 103.25V107H391.171V101.717H392.05L392.064 102.327C392.361 101.855 392.781 101.619 393.324 101.619C393.5 101.619 393.633 101.642 393.725 101.688V102.527ZM396.654 107.098C395.938 107.098 395.355 106.863 394.906 106.395C394.457 105.923 394.232 105.293 394.232 104.505V104.339C394.232 103.815 394.332 103.348 394.53 102.938C394.732 102.524 395.012 102.202 395.37 101.971C395.731 101.736 396.122 101.619 396.542 101.619C397.229 101.619 397.763 101.845 398.144 102.298C398.524 102.75 398.715 103.398 398.715 104.241V104.617H395.136C395.149 105.138 395.3 105.56 395.59 105.882C395.883 106.201 396.254 106.36 396.703 106.36C397.022 106.36 397.292 106.295 397.514 106.165C397.735 106.035 397.929 105.862 398.095 105.647L398.646 106.077C398.204 106.757 397.54 107.098 396.654 107.098ZM396.542 102.361C396.177 102.361 395.871 102.495 395.624 102.762C395.377 103.025 395.224 103.396 395.165 103.875H397.812V103.807C397.785 103.348 397.662 102.993 397.44 102.742C397.219 102.488 396.92 102.361 396.542 102.361ZM400.614 101.717L400.639 102.303C401.026 101.847 401.549 101.619 402.206 101.619C402.945 101.619 403.448 101.902 403.715 102.469C403.891 102.215 404.118 102.01 404.398 101.854C404.682 101.697 405.015 101.619 405.399 101.619C406.558 101.619 407.147 102.233 407.167 103.46V107H406.264V103.514C406.264 103.136 406.177 102.854 406.005 102.669C405.832 102.48 405.543 102.386 405.136 102.386C404.8 102.386 404.522 102.487 404.301 102.688C404.079 102.887 403.951 103.156 403.915 103.494V107H403.007V103.538C403.007 102.77 402.631 102.386 401.879 102.386C401.286 102.386 400.881 102.638 400.663 103.143V107H399.76V101.717H400.614ZM408.295 104.31C408.295 103.792 408.396 103.326 408.598 102.913C408.803 102.5 409.086 102.181 409.447 101.956C409.812 101.731 410.227 101.619 410.692 101.619C411.412 101.619 411.993 101.868 412.436 102.366C412.882 102.864 413.104 103.527 413.104 104.354V104.417C413.104 104.931 413.005 105.394 412.807 105.804C412.611 106.211 412.33 106.528 411.962 106.756C411.597 106.984 411.177 107.098 410.702 107.098C409.986 107.098 409.405 106.849 408.959 106.351C408.516 105.853 408.295 105.193 408.295 104.373V104.31ZM409.203 104.417C409.203 105.003 409.338 105.473 409.608 105.828C409.882 106.183 410.246 106.36 410.702 106.36C411.161 106.36 411.526 106.181 411.796 105.823C412.066 105.462 412.201 104.957 412.201 104.31C412.201 103.73 412.063 103.261 411.786 102.903C411.513 102.542 411.148 102.361 410.692 102.361C410.246 102.361 409.887 102.539 409.613 102.894C409.34 103.248 409.203 103.756 409.203 104.417ZM417.313 105.599C417.313 105.354 417.221 105.166 417.035 105.032C416.853 104.896 416.532 104.778 416.073 104.681C415.618 104.583 415.255 104.466 414.984 104.329C414.717 104.192 414.519 104.03 414.389 103.841C414.262 103.652 414.198 103.427 414.198 103.167C414.198 102.734 414.381 102.368 414.745 102.068C415.113 101.769 415.582 101.619 416.151 101.619C416.75 101.619 417.235 101.774 417.606 102.083C417.981 102.392 418.168 102.788 418.168 103.27H417.26C417.26 103.022 417.154 102.809 416.942 102.63C416.734 102.451 416.47 102.361 416.151 102.361C415.823 102.361 415.565 102.433 415.38 102.576C415.194 102.719 415.102 102.907 415.102 103.138C415.102 103.356 415.188 103.52 415.36 103.631C415.533 103.742 415.844 103.847 416.293 103.948C416.745 104.049 417.112 104.17 417.392 104.31C417.672 104.45 417.878 104.619 418.012 104.817C418.148 105.013 418.217 105.252 418.217 105.535C418.217 106.007 418.028 106.386 417.65 106.673C417.273 106.956 416.783 107.098 416.181 107.098C415.757 107.098 415.383 107.023 415.058 106.873C414.732 106.723 414.477 106.515 414.291 106.248C414.109 105.978 414.018 105.687 414.018 105.374H414.921C414.937 105.677 415.058 105.918 415.282 106.097C415.51 106.272 415.81 106.36 416.181 106.36C416.522 106.36 416.796 106.292 417.001 106.155C417.209 106.015 417.313 105.83 417.313 105.599ZM425.136 107C425.084 106.896 425.041 106.71 425.009 106.443C424.589 106.88 424.088 107.098 423.505 107.098C422.984 107.098 422.556 106.951 422.221 106.658C421.889 106.362 421.723 105.988 421.723 105.535C421.723 104.985 421.931 104.559 422.348 104.256C422.768 103.95 423.357 103.797 424.115 103.797H424.994V103.382C424.994 103.066 424.9 102.815 424.711 102.63C424.522 102.441 424.244 102.347 423.876 102.347C423.554 102.347 423.284 102.428 423.065 102.591C422.847 102.754 422.738 102.951 422.738 103.182H421.83C421.83 102.918 421.923 102.664 422.108 102.42C422.297 102.173 422.551 101.977 422.87 101.834C423.192 101.691 423.546 101.619 423.93 101.619C424.538 101.619 425.015 101.772 425.36 102.078C425.705 102.381 425.884 102.799 425.897 103.333V105.765C425.897 106.25 425.959 106.635 426.083 106.922V107H425.136ZM423.637 106.312C423.92 106.312 424.188 106.238 424.442 106.092C424.696 105.945 424.88 105.755 424.994 105.521V104.437H424.286C423.179 104.437 422.626 104.76 422.626 105.408C422.626 105.691 422.72 105.913 422.909 106.072C423.098 106.232 423.34 106.312 423.637 106.312ZM430.775 107H429.872V99.5H430.775V107ZM435.487 107C435.435 106.896 435.393 106.71 435.36 106.443C434.94 106.88 434.439 107.098 433.856 107.098C433.336 107.098 432.908 106.951 432.572 106.658C432.24 106.362 432.074 105.988 432.074 105.535C432.074 104.985 432.283 104.559 432.699 104.256C433.119 103.95 433.708 103.797 434.467 103.797H435.346V103.382C435.346 103.066 435.251 102.815 435.062 102.63C434.874 102.441 434.595 102.347 434.228 102.347C433.905 102.347 433.635 102.428 433.417 102.591C433.199 102.754 433.09 102.951 433.09 103.182H432.182C432.182 102.918 432.274 102.664 432.46 102.42C432.649 102.173 432.903 101.977 433.222 101.834C433.544 101.691 433.897 101.619 434.281 101.619C434.89 101.619 435.367 101.772 435.712 102.078C436.057 102.381 436.236 102.799 436.249 103.333V105.765C436.249 106.25 436.311 106.635 436.435 106.922V107H435.487ZM433.988 106.312C434.271 106.312 434.54 106.238 434.794 106.092C435.048 105.945 435.232 105.755 435.346 105.521V104.437H434.638C433.531 104.437 432.978 104.76 432.978 105.408C432.978 105.691 433.072 105.913 433.261 106.072C433.45 106.232 433.692 106.312 433.988 106.312ZM444.618 104.417C444.618 105.224 444.433 105.874 444.062 106.365C443.69 106.854 443.192 107.098 442.567 107.098C441.9 107.098 441.384 106.862 441.02 106.39L440.976 107H440.146V99.5H441.049V102.298C441.413 101.845 441.916 101.619 442.558 101.619C443.199 101.619 443.702 101.862 444.066 102.347C444.434 102.832 444.618 103.496 444.618 104.339V104.417ZM443.715 104.314C443.715 103.699 443.596 103.224 443.358 102.889C443.121 102.553 442.779 102.386 442.333 102.386C441.737 102.386 441.309 102.662 441.049 103.216V105.501C441.326 106.054 441.757 106.331 442.343 106.331C442.776 106.331 443.113 106.163 443.354 105.828C443.594 105.493 443.715 104.988 443.715 104.314ZM448.314 102.527C448.178 102.505 448.03 102.493 447.87 102.493C447.278 102.493 446.876 102.745 446.664 103.25V107H445.761V101.717H446.64L446.654 102.327C446.951 101.855 447.37 101.619 447.914 101.619C448.09 101.619 448.223 101.642 448.314 101.688V102.527ZM451.244 107.098C450.528 107.098 449.945 106.863 449.496 106.395C449.047 105.923 448.822 105.293 448.822 104.505V104.339C448.822 103.815 448.922 103.348 449.12 102.938C449.322 102.524 449.602 102.202 449.96 101.971C450.321 101.736 450.712 101.619 451.132 101.619C451.819 101.619 452.353 101.845 452.733 102.298C453.114 102.75 453.305 103.398 453.305 104.241V104.617H449.726C449.739 105.138 449.89 105.56 450.18 105.882C450.473 106.201 450.844 106.36 451.293 106.36C451.612 106.36 451.882 106.295 452.104 106.165C452.325 106.035 452.519 105.862 452.685 105.647L453.236 106.077C452.794 106.757 452.13 107.098 451.244 107.098ZM451.132 102.361C450.767 102.361 450.461 102.495 450.214 102.762C449.966 103.025 449.813 103.396 449.755 103.875H452.401V103.807C452.375 103.348 452.252 102.993 452.03 102.742C451.809 102.488 451.509 102.361 451.132 102.361ZM456.029 105.774L457.338 101.717H458.261L456.366 107H455.678L453.764 101.717H454.687L456.029 105.774ZM461.254 107.098C460.538 107.098 459.955 106.863 459.506 106.395C459.057 105.923 458.832 105.293 458.832 104.505V104.339C458.832 103.815 458.931 103.348 459.13 102.938C459.332 102.524 459.612 102.202 459.97 101.971C460.331 101.736 460.722 101.619 461.142 101.619C461.828 101.619 462.362 101.845 462.743 102.298C463.124 102.75 463.314 103.398 463.314 104.241V104.617H459.735C459.748 105.138 459.9 105.56 460.189 105.882C460.482 106.201 460.854 106.36 461.303 106.36C461.622 106.36 461.892 106.295 462.113 106.165C462.335 106.035 462.528 105.862 462.694 105.647L463.246 106.077C462.803 106.757 462.139 107.098 461.254 107.098ZM461.142 102.361C460.777 102.361 460.471 102.495 460.224 102.762C459.976 103.025 459.823 103.396 459.765 103.875H462.411V103.807C462.385 103.348 462.261 102.993 462.04 102.742C461.819 102.488 461.519 102.361 461.142 102.361ZM464.145 104.314C464.145 103.504 464.337 102.853 464.721 102.361C465.105 101.867 465.608 101.619 466.229 101.619C466.848 101.619 467.338 101.831 467.699 102.254V99.5H468.603V107H467.772L467.729 106.434C467.367 106.876 466.864 107.098 466.22 107.098C465.608 107.098 465.108 106.847 464.721 106.346C464.337 105.844 464.145 105.19 464.145 104.383V104.314ZM465.048 104.417C465.048 105.016 465.172 105.485 465.419 105.823C465.666 106.162 466.008 106.331 466.444 106.331C467.017 106.331 467.436 106.074 467.699 105.56V103.133C467.429 102.635 467.014 102.386 466.454 102.386C466.011 102.386 465.666 102.557 465.419 102.898C465.172 103.24 465.048 103.746 465.048 104.417ZM473.271 107C473.218 106.896 473.176 106.71 473.144 106.443C472.724 106.88 472.222 107.098 471.64 107.098C471.119 107.098 470.691 106.951 470.355 106.658C470.023 106.362 469.857 105.988 469.857 105.535C469.857 104.985 470.066 104.559 470.482 104.256C470.902 103.95 471.492 103.797 472.25 103.797H473.129V103.382C473.129 103.066 473.035 102.815 472.846 102.63C472.657 102.441 472.379 102.347 472.011 102.347C471.688 102.347 471.418 102.428 471.2 102.591C470.982 102.754 470.873 102.951 470.873 103.182H469.965C469.965 102.918 470.058 102.664 470.243 102.42C470.432 102.173 470.686 101.977 471.005 101.834C471.327 101.691 471.68 101.619 472.064 101.619C472.673 101.619 473.15 101.772 473.495 102.078C473.84 102.381 474.019 102.799 474.032 103.333V105.765C474.032 106.25 474.094 106.635 474.218 106.922V107H473.271ZM471.771 106.312C472.055 106.312 472.323 106.238 472.577 106.092C472.831 105.945 473.015 105.755 473.129 105.521V104.437H472.421C471.314 104.437 470.761 104.76 470.761 105.408C470.761 105.691 470.855 105.913 471.044 106.072C471.233 106.232 471.475 106.312 471.771 106.312ZM475.229 104.314C475.229 103.504 475.421 102.853 475.805 102.361C476.189 101.867 476.692 101.619 477.313 101.619C477.932 101.619 478.422 101.831 478.783 102.254V99.5H479.687V107H478.856L478.812 106.434C478.451 106.876 477.948 107.098 477.304 107.098C476.692 107.098 476.192 106.847 475.805 106.346C475.421 105.844 475.229 105.19 475.229 104.383V104.314ZM476.132 104.417C476.132 105.016 476.256 105.485 476.503 105.823C476.75 106.162 477.092 106.331 477.528 106.331C478.101 106.331 478.52 106.074 478.783 105.56V103.133C478.513 102.635 478.098 102.386 477.538 102.386C477.095 102.386 476.75 102.557 476.503 102.898C476.256 103.24 476.132 103.746 476.132 104.417ZM481.112 106.526C481.112 106.37 481.158 106.24 481.249 106.136C481.343 106.032 481.483 105.979 481.669 105.979C481.854 105.979 481.994 106.032 482.089 106.136C482.187 106.24 482.235 106.37 482.235 106.526C482.235 106.676 482.187 106.801 482.089 106.902C481.994 107.003 481.854 107.054 481.669 107.054C481.483 107.054 481.343 107.003 481.249 106.902C481.158 106.801 481.112 106.676 481.112 106.526Z" fill="#97A3AF"/>
</g>
<defs>
<filter id="filter0_d" x="262" y="0" width="300" height="326" filterUnits="userSpaceOnUse" color-interpolation-filters="sRGB">
<feFlood flood-opacity="0" result="BackgroundImageFix"/>
<feColorMatrix in="SourceAlpha" type="matrix" values="0 0 0 0 0 0 0 0 0 0 0 0 0 0 0 0 0 0 127 0"/>
<feOffset dy="4"/>
<feColorMatrix type="matrix" values="0 0 0 0 0 0 0 0 0 0 0 0 0 0 0 0 0 0 0.15 0"/>
<feBlend mode="normal" in2="BackgroundImageFix" result="effect1_dropShadow"/>
<feBlend mode="normal" in="SourceGraphic" in2="effect1_dropShadow" result="shape"/>
</filter>
<filter id="filter1_d" x="304" y="59" width="216" height="177" filterUnits="userSpaceOnUse" color-interpolation-filters="sRGB">
<feFlood flood-opacity="0" result="BackgroundImageFix"/>
<feColorMatrix in="SourceAlpha" type="matrix" values="0 0 0 0 0 0 0 0 0 0 0 0 0 0 0 0 0 0 127 0"/>
<feOffset dy="4"/>
<feGaussianBlur stdDeviation="5"/>
<feColorMatrix type="matrix" values="0 0 0 0 0 0 0 0 0 0 0 0 0 0 0 0 0 0 0.25 0"/>
<feBlend mode="normal" in2="BackgroundImageFix" result="effect1_dropShadow"/>
<feBlend mode="normal" in="SourceGraphic" in2="effect1_dropShadow" result="shape"/>
</filter>
<clipPath id="clip0">
<rect width="10" height="10" fill="white" transform="translate(65 93)"/>
</clipPath>
<clipPath id="clip1">
<rect width="30.3686" height="30.3686" fill="white" transform="translate(444.334 218.551) rotate(-10)"/>
</clipPath>
</defs>
</svg>
