<svg width="840" height="230" viewBox="0 0 840 230" fill="none" xmlns="http://www.w3.org/2000/svg">
<path d="M334 85.9813C462.5 32.6148 839 28.7061 839 28.7061V145.953H79C79 145.953 205.5 139.348 334 85.9813Z" fill="#FF0099"/>
<line x1="58" y1="146.936" x2="838.999" y2="146.936" stroke="#CCD0D4"/>
<line x1="75.5" y1="229.98" x2="75.5" y2="5.25703" stroke="#CCD0D4"/>
<line x1="247.5" y1="230" x2="247.5" y2="35.5261" stroke="#CCD0D4"/>
<line x1="415.5" y1="229.98" x2="415.5" y2="5.25703" stroke="#CCD0D4"/>
<path d="M162.956 170.724H160.98V163.109L158.622 163.84V162.234L162.744 160.757H162.956V170.724ZM142.711 183.259H140.143L139.654 184.724H138.097L140.743 177.615H142.101L144.762 184.724H143.204L142.711 183.259ZM140.538 182.073H142.315L141.422 179.412L140.538 182.073ZM146.891 182.219V184.724H145.426V177.615H148.199C148.733 177.615 149.202 177.712 149.605 177.908C150.012 178.103 150.325 178.381 150.543 178.743C150.761 179.101 150.87 179.509 150.87 179.968C150.87 180.665 150.631 181.215 150.152 181.619C149.677 182.019 149.018 182.219 148.175 182.219H146.891ZM146.891 181.033H148.199C148.587 181.033 148.881 180.942 149.083 180.759C149.288 180.577 149.391 180.317 149.391 179.978C149.391 179.63 149.288 179.348 149.083 179.133C148.878 178.918 148.595 178.808 148.233 178.801H146.891V181.033ZM154.513 182.122H153.346V184.724H151.881V177.615H154.522C155.362 177.615 156.01 177.802 156.466 178.176C156.922 178.551 157.149 179.08 157.149 179.763C157.149 180.248 157.044 180.653 156.832 180.979C156.624 181.301 156.306 181.558 155.88 181.75L157.418 184.656V184.724H155.846L154.513 182.122ZM153.346 180.935H154.527C154.895 180.935 155.18 180.842 155.382 180.657C155.584 180.468 155.685 180.209 155.685 179.88C155.685 179.545 155.589 179.281 155.396 179.089C155.208 178.897 154.916 178.801 154.522 178.801H153.346V180.935ZM162.545 181.643H159.732V183.547H163.033V184.724H158.268V177.615H163.023V178.801H159.732V180.496H162.545V181.643ZM169.674 184.724H168.209L165.357 180.046V184.724H163.893V177.615H165.357L168.214 182.302V177.615H169.674V184.724ZM170.953 184.724V177.615H173.141C173.766 177.615 174.324 177.756 174.815 178.04C175.31 178.319 175.696 178.72 175.973 179.241C176.249 179.758 176.388 180.347 176.388 181.008V181.335C176.388 181.996 176.251 182.584 175.978 183.098C175.707 183.612 175.325 184.011 174.83 184.294C174.335 184.578 173.777 184.721 173.155 184.724H170.953ZM172.418 178.801V183.547H173.126C173.699 183.547 174.137 183.36 174.439 182.986C174.742 182.611 174.897 182.076 174.903 181.379V181.003C174.903 180.281 174.754 179.734 174.454 179.363C174.155 178.988 173.717 178.801 173.141 178.801H172.418ZM181.734 181.643H178.922V183.547H182.223V184.724H177.457V177.615H182.213V178.801H178.922V180.496H181.734V181.643ZM116.222 196.356C116.166 197.121 115.883 197.723 115.372 198.163C114.864 198.602 114.194 198.822 113.36 198.822C112.449 198.822 111.731 198.516 111.207 197.904C110.686 197.289 110.426 196.445 110.426 195.375V194.94C110.426 194.256 110.546 193.654 110.787 193.133C111.028 192.612 111.371 192.214 111.817 191.937C112.267 191.657 112.787 191.517 113.38 191.517C114.2 191.517 114.861 191.737 115.362 192.176C115.864 192.616 116.153 193.233 116.231 194.027H114.767C114.731 193.568 114.602 193.236 114.381 193.031C114.163 192.822 113.829 192.718 113.38 192.718C112.892 192.718 112.525 192.894 112.281 193.246C112.04 193.594 111.917 194.136 111.91 194.872V195.409C111.91 196.177 112.026 196.738 112.257 197.093C112.491 197.448 112.859 197.625 113.36 197.625C113.813 197.625 114.15 197.523 114.371 197.318C114.596 197.11 114.724 196.789 114.757 196.356H116.222ZM123.023 195.331C123.023 196.03 122.9 196.644 122.652 197.171C122.405 197.699 122.05 198.106 121.588 198.392C121.129 198.679 120.602 198.822 120.006 198.822C119.417 198.822 118.891 198.68 118.429 198.397C117.966 198.114 117.608 197.71 117.354 197.186C117.101 196.659 116.972 196.053 116.969 195.37V195.018C116.969 194.318 117.094 193.703 117.345 193.172C117.599 192.639 117.955 192.23 118.414 191.947C118.876 191.66 119.404 191.517 119.996 191.517C120.589 191.517 121.114 191.66 121.573 191.947C122.035 192.23 122.392 192.639 122.643 193.172C122.896 193.703 123.023 194.317 123.023 195.013V195.331ZM121.539 195.008C121.539 194.263 121.406 193.696 121.139 193.309C120.872 192.922 120.491 192.728 119.996 192.728C119.505 192.728 119.125 192.92 118.858 193.304C118.591 193.685 118.456 194.245 118.453 194.984V195.331C118.453 196.056 118.587 196.62 118.854 197.02C119.12 197.42 119.505 197.621 120.006 197.621C120.497 197.621 120.875 197.429 121.139 197.044C121.402 196.657 121.536 196.094 121.539 195.355V195.008ZM129.869 198.724H128.404L125.553 194.046V198.724H124.088V191.615H125.553L128.409 196.302V191.615H129.869V198.724ZM134.835 196.859C134.835 196.582 134.737 196.371 134.542 196.224C134.347 196.074 133.995 195.918 133.487 195.755C132.979 195.589 132.577 195.427 132.281 195.267C131.474 194.831 131.07 194.243 131.07 193.504C131.07 193.12 131.178 192.778 131.393 192.479C131.611 192.176 131.922 191.94 132.325 191.771C132.732 191.602 133.188 191.517 133.692 191.517C134.2 191.517 134.653 191.61 135.05 191.795C135.447 191.978 135.755 192.236 135.973 192.572C136.194 192.907 136.305 193.288 136.305 193.714H134.84C134.84 193.389 134.737 193.137 134.532 192.958C134.327 192.775 134.039 192.684 133.668 192.684C133.31 192.684 133.032 192.761 132.833 192.914C132.634 193.063 132.535 193.262 132.535 193.509C132.535 193.74 132.651 193.934 132.882 194.09C133.116 194.247 133.46 194.393 133.912 194.53C134.745 194.78 135.353 195.091 135.733 195.462C136.114 195.833 136.305 196.296 136.305 196.849C136.305 197.464 136.072 197.948 135.606 198.299C135.141 198.648 134.514 198.822 133.727 198.822C133.18 198.822 132.682 198.722 132.232 198.524C131.783 198.322 131.44 198.047 131.202 197.699C130.968 197.35 130.851 196.947 130.851 196.488H132.32C132.32 197.272 132.789 197.665 133.727 197.665C134.075 197.665 134.347 197.595 134.542 197.455C134.737 197.311 134.835 197.113 134.835 196.859ZM142.882 196.356C142.826 197.121 142.543 197.723 142.032 198.163C141.524 198.602 140.854 198.822 140.021 198.822C139.109 198.822 138.391 198.516 137.867 197.904C137.346 197.289 137.086 196.445 137.086 195.375V194.94C137.086 194.256 137.206 193.654 137.447 193.133C137.688 192.612 138.032 192.214 138.478 191.937C138.927 191.657 139.448 191.517 140.04 191.517C140.86 191.517 141.521 191.737 142.022 192.176C142.524 192.616 142.813 193.233 142.892 194.027H141.427C141.391 193.568 141.262 193.236 141.041 193.031C140.823 192.822 140.489 192.718 140.04 192.718C139.552 192.718 139.186 192.894 138.941 193.246C138.701 193.594 138.577 194.136 138.57 194.872V195.409C138.57 196.177 138.686 196.738 138.917 197.093C139.151 197.448 139.519 197.625 140.021 197.625C140.473 197.625 140.81 197.523 141.031 197.318C141.256 197.11 141.384 196.789 141.417 196.356H142.882ZM145.401 198.724H143.937V191.615H145.401V198.724ZM151.041 195.643H148.229V197.547H151.529V198.724H146.764V191.615H151.52V192.801H148.229V194.496H151.041V195.643ZM158.17 198.724H156.705L153.854 194.046V198.724H152.389V191.615H153.854L156.71 196.302V191.615H158.17V198.724ZM164.654 192.801H162.477V198.724H161.012V192.801H158.863V191.615H164.654V192.801ZM169.771 195.643H166.959V197.547H170.26V198.724H165.494V191.615H170.25V192.801H166.959V194.496H169.771V195.643ZM173.033 191.615L174.859 196.771L176.676 191.615H178.6V198.724H177.13V196.781L177.276 193.426L175.357 198.724H174.352L172.438 193.431L172.584 196.781V198.724H171.119V191.615H173.033ZM184.156 195.643H181.344V197.547H184.645V198.724H179.879V191.615H184.635V192.801H181.344V194.496H184.156V195.643ZM191.285 198.724H189.82L186.969 194.046V198.724H185.504V191.615H186.969L189.825 196.302V191.615H191.285V198.724ZM197.77 192.801H195.592V198.724H194.127V192.801H191.979V191.615H197.77V192.801ZM202.887 195.643H200.074V197.547H203.375V198.724H198.609V191.615H203.365V192.801H200.074V194.496H202.887V195.643ZM212.564 195.331C212.564 196.03 212.441 196.644 212.193 197.171C211.946 197.699 211.591 198.106 211.129 198.392C210.67 198.679 210.143 198.822 209.547 198.822C208.958 198.822 208.432 198.68 207.97 198.397C207.507 198.114 207.149 197.71 206.896 197.186C206.642 196.659 206.513 196.053 206.51 195.37V195.018C206.51 194.318 206.635 193.703 206.886 193.172C207.14 192.639 207.496 192.23 207.955 191.947C208.417 191.66 208.945 191.517 209.537 191.517C210.13 191.517 210.655 191.66 211.114 191.947C211.576 192.23 211.933 192.639 212.184 193.172C212.438 193.703 212.564 194.317 212.564 195.013V195.331ZM211.08 195.008C211.08 194.263 210.947 193.696 210.68 193.309C210.413 192.922 210.032 192.728 209.537 192.728C209.046 192.728 208.666 192.92 208.399 193.304C208.132 193.685 207.997 194.245 207.994 194.984V195.331C207.994 196.056 208.128 196.62 208.395 197.02C208.661 197.42 209.046 197.621 209.547 197.621C210.038 197.621 210.416 197.429 210.68 197.044C210.943 196.657 211.077 196.094 211.08 195.355V195.008ZM111.905 212.724H110.44V205.615H111.905V212.724ZM119.049 212.724H117.584L114.732 208.046V212.724H113.268V205.615H114.732L117.589 210.302V205.615H119.049V212.724ZM125.909 210.356C125.854 211.121 125.571 211.723 125.06 212.163C124.552 212.602 123.881 212.822 123.048 212.822C122.136 212.822 121.419 212.516 120.895 211.904C120.374 211.289 120.113 210.445 120.113 209.375V208.94C120.113 208.256 120.234 207.654 120.475 207.133C120.715 206.612 121.059 206.214 121.505 205.937C121.954 205.657 122.475 205.517 123.067 205.517C123.888 205.517 124.549 205.737 125.05 206.176C125.551 206.616 125.841 207.233 125.919 208.027H124.454C124.418 207.568 124.29 207.236 124.068 207.031C123.85 206.822 123.517 206.718 123.067 206.718C122.579 206.718 122.213 206.894 121.969 207.246C121.728 207.594 121.604 208.136 121.598 208.872V209.409C121.598 210.177 121.713 210.738 121.944 211.093C122.179 211.448 122.547 211.625 123.048 211.625C123.5 211.625 123.837 211.523 124.059 211.318C124.283 211.11 124.412 210.789 124.444 210.356H125.909ZM132.711 209.331C132.711 210.03 132.587 210.644 132.34 211.171C132.092 211.699 131.738 212.106 131.275 212.392C130.816 212.679 130.289 212.822 129.693 212.822C129.104 212.822 128.578 212.68 128.116 212.397C127.654 212.114 127.296 211.71 127.042 211.186C126.788 210.659 126.66 210.053 126.656 209.37V209.018C126.656 208.318 126.782 207.703 127.032 207.172C127.286 206.639 127.643 206.23 128.102 205.947C128.564 205.66 129.091 205.517 129.684 205.517C130.276 205.517 130.802 205.66 131.261 205.947C131.723 206.23 132.079 206.639 132.33 207.172C132.584 207.703 132.711 208.317 132.711 209.013V209.331ZM131.227 209.008C131.227 208.263 131.093 207.696 130.826 207.309C130.559 206.922 130.178 206.728 129.684 206.728C129.192 206.728 128.813 206.92 128.546 207.304C128.279 207.685 128.144 208.245 128.141 208.984V209.331C128.141 210.056 128.274 210.62 128.541 211.02C128.808 211.42 129.192 211.621 129.693 211.621C130.185 211.621 130.562 211.429 130.826 211.044C131.09 210.657 131.223 210.094 131.227 209.355V209.008ZM139.557 212.724H138.092L135.24 208.046V212.724H133.775V205.615H135.24L138.097 210.302V205.615H139.557V212.724ZM144.522 210.859C144.522 210.582 144.425 210.371 144.229 210.224C144.034 210.074 143.683 209.918 143.175 209.755C142.667 209.589 142.265 209.427 141.969 209.267C141.161 208.831 140.758 208.243 140.758 207.504C140.758 207.12 140.865 206.778 141.08 206.479C141.298 206.176 141.609 205.94 142.013 205.771C142.42 205.602 142.875 205.517 143.38 205.517C143.888 205.517 144.34 205.61 144.737 205.795C145.134 205.978 145.442 206.236 145.66 206.572C145.882 206.907 145.992 207.288 145.992 207.714H144.527C144.527 207.389 144.425 207.137 144.22 206.958C144.015 206.775 143.727 206.684 143.355 206.684C142.997 206.684 142.719 206.761 142.521 206.914C142.322 207.063 142.223 207.262 142.223 207.509C142.223 207.74 142.338 207.934 142.569 208.09C142.804 208.247 143.147 208.393 143.6 208.53C144.433 208.78 145.04 209.091 145.421 209.462C145.802 209.833 145.992 210.296 145.992 210.849C145.992 211.464 145.759 211.948 145.294 212.299C144.828 212.648 144.202 212.822 143.414 212.822C142.867 212.822 142.369 212.722 141.92 212.524C141.471 212.322 141.127 212.047 140.89 211.699C140.655 211.35 140.538 210.947 140.538 210.488H142.008C142.008 211.272 142.477 211.665 143.414 211.665C143.762 211.665 144.034 211.595 144.229 211.455C144.425 211.311 144.522 211.113 144.522 210.859ZM152.569 210.356C152.514 211.121 152.231 211.723 151.72 212.163C151.212 212.602 150.541 212.822 149.708 212.822C148.797 212.822 148.079 212.516 147.555 211.904C147.034 211.289 146.773 210.445 146.773 209.375V208.94C146.773 208.256 146.894 207.654 147.135 207.133C147.376 206.612 147.719 206.214 148.165 205.937C148.614 205.657 149.135 205.517 149.728 205.517C150.548 205.517 151.209 205.737 151.71 206.176C152.211 206.616 152.501 207.233 152.579 208.027H151.114C151.078 207.568 150.95 207.236 150.729 207.031C150.51 206.822 150.177 206.718 149.728 206.718C149.239 206.718 148.873 206.894 148.629 207.246C148.388 207.594 148.264 208.136 148.258 208.872V209.409C148.258 210.177 148.373 210.738 148.604 211.093C148.839 211.448 149.207 211.625 149.708 211.625C150.16 211.625 150.497 211.523 150.719 211.318C150.943 211.11 151.072 210.789 151.104 210.356H152.569ZM155.089 212.724H153.624V205.615H155.089V212.724ZM160.729 209.643H157.916V211.547H161.217V212.724H156.451V205.615H161.207V206.801H157.916V208.496H160.729V209.643ZM167.857 212.724H166.393L163.541 208.046V212.724H162.076V205.615H163.541L166.397 210.302V205.615H167.857V212.724ZM174.342 206.801H172.164V212.724H170.699V206.801H168.551V205.615H174.342V206.801ZM179.459 209.643H176.646V211.547H179.947V212.724H175.182V205.615H179.938V206.801H176.646V208.496H179.459V209.643ZM182.721 205.615L184.547 210.771L186.363 205.615H188.287V212.724H186.817V210.781L186.964 207.426L185.045 212.724H184.039L182.125 207.431L182.271 210.781V212.724H180.807V205.615H182.721ZM193.844 209.643H191.031V211.547H194.332V212.724H189.566V205.615H194.322V206.801H191.031V208.496H193.844V209.643ZM200.973 212.724H199.508L196.656 208.046V212.724H195.191V205.615H196.656L199.513 210.302V205.615H200.973V212.724ZM207.457 206.801H205.279V212.724H203.814V206.801H201.666V205.615H207.457V206.801ZM212.574 209.643H209.762V211.547H213.062V212.724H208.297V205.615H213.053V206.801H209.762V208.496H212.574V209.643Z" fill="#60347B"/>
<path d="M334.979 170.724H328.157V169.371L331.377 165.939C331.819 165.456 332.145 165.034 332.354 164.674C332.569 164.314 332.676 163.972 332.676 163.649C332.676 163.207 332.564 162.861 332.341 162.61C332.118 162.355 331.799 162.227 331.384 162.227C330.937 162.227 330.584 162.382 330.324 162.692C330.069 162.997 329.941 163.401 329.941 163.902H327.959C327.959 163.296 328.103 162.742 328.39 162.241C328.681 161.739 329.091 161.347 329.62 161.065C330.149 160.778 330.748 160.634 331.418 160.634C332.443 160.634 333.239 160.88 333.804 161.373C334.373 161.865 334.658 162.56 334.658 163.458C334.658 163.95 334.531 164.451 334.275 164.961C334.02 165.472 333.583 166.067 332.963 166.746L330.7 169.131H334.979V170.724ZM315.04 183.259H312.472L311.983 184.724H310.426L313.072 177.615H314.43L317.091 184.724H315.533L315.04 183.259ZM312.867 182.073H314.645L313.751 179.412L312.867 182.073ZM321.441 182.859C321.441 182.582 321.344 182.371 321.148 182.224C320.953 182.074 320.602 181.918 320.094 181.755C319.586 181.589 319.184 181.427 318.888 181.267C318.08 180.831 317.677 180.243 317.677 179.504C317.677 179.12 317.784 178.778 317.999 178.479C318.217 178.176 318.528 177.94 318.932 177.771C319.339 177.602 319.794 177.517 320.299 177.517C320.807 177.517 321.259 177.61 321.656 177.795C322.053 177.978 322.361 178.236 322.579 178.572C322.8 178.907 322.911 179.288 322.911 179.714H321.446C321.446 179.389 321.344 179.137 321.139 178.958C320.934 178.775 320.646 178.684 320.274 178.684C319.916 178.684 319.638 178.761 319.439 178.914C319.241 179.063 319.142 179.262 319.142 179.509C319.142 179.74 319.257 179.934 319.488 180.09C319.723 180.247 320.066 180.393 320.519 180.53C321.352 180.78 321.959 181.091 322.34 181.462C322.721 181.833 322.911 182.296 322.911 182.849C322.911 183.464 322.678 183.948 322.213 184.299C321.747 184.648 321.121 184.822 320.333 184.822C319.786 184.822 319.288 184.722 318.839 184.524C318.39 184.322 318.046 184.047 317.809 183.699C317.574 183.35 317.457 182.947 317.457 182.488H318.927C318.927 183.272 319.396 183.665 320.333 183.665C320.681 183.665 320.953 183.595 321.148 183.455C321.344 183.311 321.441 183.113 321.441 182.859ZM325.465 184.724H324V177.615H325.465V184.724ZM328.741 177.615L330.567 182.771L332.384 177.615H334.308V184.724H332.838V182.781L332.984 179.426L331.065 184.724H330.06L328.146 179.431L328.292 182.781V184.724H326.827V177.615H328.741ZM337.145 184.724H335.68V177.615H337.145V184.724ZM339.972 183.547H343.082V184.724H338.507V177.615H339.972V183.547ZM348.038 183.259H345.47L344.981 184.724H343.424L346.07 177.615H347.428L350.089 184.724H348.531L348.038 183.259ZM345.865 182.073H347.643L346.749 179.412L345.865 182.073ZM286.222 196.356C286.166 197.121 285.883 197.723 285.372 198.163C284.864 198.602 284.194 198.822 283.36 198.822C282.449 198.822 281.731 198.516 281.207 197.904C280.686 197.289 280.426 196.445 280.426 195.375V194.94C280.426 194.256 280.546 193.654 280.787 193.133C281.028 192.612 281.371 192.214 281.817 191.937C282.267 191.657 282.787 191.517 283.38 191.517C284.2 191.517 284.861 191.737 285.362 192.176C285.864 192.616 286.153 193.233 286.231 194.027H284.767C284.731 193.568 284.602 193.236 284.381 193.031C284.163 192.822 283.829 192.718 283.38 192.718C282.892 192.718 282.525 192.894 282.281 193.246C282.04 193.594 281.917 194.136 281.91 194.872V195.409C281.91 196.177 282.026 196.738 282.257 197.093C282.491 197.448 282.859 197.625 283.36 197.625C283.813 197.625 284.15 197.523 284.371 197.318C284.596 197.11 284.724 196.789 284.757 196.356H286.222ZM293.023 195.331C293.023 196.03 292.9 196.644 292.652 197.171C292.405 197.699 292.05 198.106 291.588 198.392C291.129 198.679 290.602 198.822 290.006 198.822C289.417 198.822 288.891 198.68 288.429 198.397C287.966 198.114 287.608 197.71 287.354 197.186C287.101 196.659 286.972 196.053 286.969 195.37V195.018C286.969 194.318 287.094 193.703 287.345 193.172C287.599 192.639 287.955 192.23 288.414 191.947C288.876 191.66 289.404 191.517 289.996 191.517C290.589 191.517 291.114 191.66 291.573 191.947C292.035 192.23 292.392 192.639 292.643 193.172C292.896 193.703 293.023 194.317 293.023 195.013V195.331ZM291.539 195.008C291.539 194.263 291.406 193.696 291.139 193.309C290.872 192.922 290.491 192.728 289.996 192.728C289.505 192.728 289.125 192.92 288.858 193.304C288.591 193.685 288.456 194.245 288.453 194.984V195.331C288.453 196.056 288.587 196.62 288.854 197.02C289.12 197.42 289.505 197.621 290.006 197.621C290.497 197.621 290.875 197.429 291.139 197.044C291.402 196.657 291.536 196.094 291.539 195.355V195.008ZM299.869 198.724H298.404L295.553 194.046V198.724H294.088V191.615H295.553L298.409 196.302V191.615H299.869V198.724ZM304.835 196.859C304.835 196.582 304.737 196.371 304.542 196.224C304.347 196.074 303.995 195.918 303.487 195.755C302.979 195.589 302.577 195.427 302.281 195.267C301.474 194.831 301.07 194.243 301.07 193.504C301.07 193.12 301.178 192.778 301.393 192.479C301.611 192.176 301.922 191.94 302.325 191.771C302.732 191.602 303.188 191.517 303.692 191.517C304.2 191.517 304.653 191.61 305.05 191.795C305.447 191.978 305.755 192.236 305.973 192.572C306.194 192.907 306.305 193.288 306.305 193.714H304.84C304.84 193.389 304.737 193.137 304.532 192.958C304.327 192.775 304.039 192.684 303.668 192.684C303.31 192.684 303.032 192.761 302.833 192.914C302.634 193.063 302.535 193.262 302.535 193.509C302.535 193.74 302.651 193.934 302.882 194.09C303.116 194.247 303.46 194.393 303.912 194.53C304.745 194.78 305.353 195.091 305.733 195.462C306.114 195.833 306.305 196.296 306.305 196.849C306.305 197.464 306.072 197.948 305.606 198.299C305.141 198.648 304.514 198.822 303.727 198.822C303.18 198.822 302.682 198.722 302.232 198.524C301.783 198.322 301.44 198.047 301.202 197.699C300.968 197.35 300.851 196.947 300.851 196.488H302.32C302.32 197.272 302.789 197.665 303.727 197.665C304.075 197.665 304.347 197.595 304.542 197.455C304.737 197.311 304.835 197.113 304.835 196.859ZM312.882 196.356C312.826 197.121 312.543 197.723 312.032 198.163C311.524 198.602 310.854 198.822 310.021 198.822C309.109 198.822 308.391 198.516 307.867 197.904C307.346 197.289 307.086 196.445 307.086 195.375V194.94C307.086 194.256 307.206 193.654 307.447 193.133C307.688 192.612 308.032 192.214 308.478 191.937C308.927 191.657 309.448 191.517 310.04 191.517C310.86 191.517 311.521 191.737 312.022 192.176C312.524 192.616 312.813 193.233 312.892 194.027H311.427C311.391 193.568 311.262 193.236 311.041 193.031C310.823 192.822 310.489 192.718 310.04 192.718C309.552 192.718 309.186 192.894 308.941 193.246C308.701 193.594 308.577 194.136 308.57 194.872V195.409C308.57 196.177 308.686 196.738 308.917 197.093C309.151 197.448 309.519 197.625 310.021 197.625C310.473 197.625 310.81 197.523 311.031 197.318C311.256 197.11 311.384 196.789 311.417 196.356H312.882ZM315.401 198.724H313.937V191.615H315.401V198.724ZM321.041 195.643H318.229V197.547H321.529V198.724H316.764V191.615H321.52V192.801H318.229V194.496H321.041V195.643ZM328.17 198.724H326.705L323.854 194.046V198.724H322.389V191.615H323.854L326.71 196.302V191.615H328.17V198.724ZM334.654 192.801H332.477V198.724H331.012V192.801H328.863V191.615H334.654V192.801ZM339.771 195.643H336.959V197.547H340.26V198.724H335.494V191.615H340.25V192.801H336.959V194.496H339.771V195.643ZM343.033 191.615L344.859 196.771L346.676 191.615H348.6V198.724H347.13V196.781L347.276 193.426L345.357 198.724H344.352L342.438 193.431L342.584 196.781V198.724H341.119V191.615H343.033ZM354.156 195.643H351.344V197.547H354.645V198.724H349.879V191.615H354.635V192.801H351.344V194.496H354.156V195.643ZM361.285 198.724H359.82L356.969 194.046V198.724H355.504V191.615H356.969L359.825 196.302V191.615H361.285V198.724ZM367.77 192.801H365.592V198.724H364.127V192.801H361.979V191.615H367.77V192.801ZM372.887 195.643H370.074V197.547H373.375V198.724H368.609V191.615H373.365V192.801H370.074V194.496H372.887V195.643ZM382.564 195.331C382.564 196.03 382.441 196.644 382.193 197.171C381.946 197.699 381.591 198.106 381.129 198.392C380.67 198.679 380.143 198.822 379.547 198.822C378.958 198.822 378.432 198.68 377.97 198.397C377.507 198.114 377.149 197.71 376.896 197.186C376.642 196.659 376.513 196.053 376.51 195.37V195.018C376.51 194.318 376.635 193.703 376.886 193.172C377.14 192.639 377.496 192.23 377.955 191.947C378.417 191.66 378.945 191.517 379.537 191.517C380.13 191.517 380.655 191.66 381.114 191.947C381.576 192.23 381.933 192.639 382.184 193.172C382.438 193.703 382.564 194.317 382.564 195.013V195.331ZM381.08 195.008C381.08 194.263 380.947 193.696 380.68 193.309C380.413 192.922 380.032 192.728 379.537 192.728C379.046 192.728 378.666 192.92 378.399 193.304C378.132 193.685 377.997 194.245 377.994 194.984V195.331C377.994 196.056 378.128 196.62 378.395 197.02C378.661 197.42 379.046 197.621 379.547 197.621C380.038 197.621 380.416 197.429 380.68 197.044C380.943 196.657 381.077 196.094 381.08 195.355V195.008ZM281.905 212.724H280.44V205.615H281.905V212.724ZM289.049 212.724H287.584L284.732 208.046V212.724H283.268V205.615H284.732L287.589 210.302V205.615H289.049V212.724ZM295.909 210.356C295.854 211.121 295.571 211.723 295.06 212.163C294.552 212.602 293.881 212.822 293.048 212.822C292.136 212.822 291.419 212.516 290.895 211.904C290.374 211.289 290.113 210.445 290.113 209.375V208.94C290.113 208.256 290.234 207.654 290.475 207.133C290.715 206.612 291.059 206.214 291.505 205.937C291.954 205.657 292.475 205.517 293.067 205.517C293.888 205.517 294.549 205.737 295.05 206.176C295.551 206.616 295.841 207.233 295.919 208.027H294.454C294.418 207.568 294.29 207.236 294.068 207.031C293.85 206.822 293.517 206.718 293.067 206.718C292.579 206.718 292.213 206.894 291.969 207.246C291.728 207.594 291.604 208.136 291.598 208.872V209.409C291.598 210.177 291.713 210.738 291.944 211.093C292.179 211.448 292.547 211.625 293.048 211.625C293.5 211.625 293.837 211.523 294.059 211.318C294.283 211.11 294.412 210.789 294.444 210.356H295.909ZM302.711 209.331C302.711 210.03 302.587 210.644 302.34 211.171C302.092 211.699 301.738 212.106 301.275 212.392C300.816 212.679 300.289 212.822 299.693 212.822C299.104 212.822 298.578 212.68 298.116 212.397C297.654 212.114 297.296 211.71 297.042 211.186C296.788 210.659 296.66 210.053 296.656 209.37V209.018C296.656 208.318 296.782 207.703 297.032 207.172C297.286 206.639 297.643 206.23 298.102 205.947C298.564 205.66 299.091 205.517 299.684 205.517C300.276 205.517 300.802 205.66 301.261 205.947C301.723 206.23 302.079 206.639 302.33 207.172C302.584 207.703 302.711 208.317 302.711 209.013V209.331ZM301.227 209.008C301.227 208.263 301.093 207.696 300.826 207.309C300.559 206.922 300.178 206.728 299.684 206.728C299.192 206.728 298.813 206.92 298.546 207.304C298.279 207.685 298.144 208.245 298.141 208.984V209.331C298.141 210.056 298.274 210.62 298.541 211.02C298.808 211.42 299.192 211.621 299.693 211.621C300.185 211.621 300.562 211.429 300.826 211.044C301.09 210.657 301.223 210.094 301.227 209.355V209.008ZM309.557 212.724H308.092L305.24 208.046V212.724H303.775V205.615H305.24L308.097 210.302V205.615H309.557V212.724ZM314.522 210.859C314.522 210.582 314.425 210.371 314.229 210.224C314.034 210.074 313.683 209.918 313.175 209.755C312.667 209.589 312.265 209.427 311.969 209.267C311.161 208.831 310.758 208.243 310.758 207.504C310.758 207.12 310.865 206.778 311.08 206.479C311.298 206.176 311.609 205.94 312.013 205.771C312.42 205.602 312.875 205.517 313.38 205.517C313.888 205.517 314.34 205.61 314.737 205.795C315.134 205.978 315.442 206.236 315.66 206.572C315.882 206.907 315.992 207.288 315.992 207.714H314.527C314.527 207.389 314.425 207.137 314.22 206.958C314.015 206.775 313.727 206.684 313.355 206.684C312.997 206.684 312.719 206.761 312.521 206.914C312.322 207.063 312.223 207.262 312.223 207.509C312.223 207.74 312.338 207.934 312.569 208.09C312.804 208.247 313.147 208.393 313.6 208.53C314.433 208.78 315.04 209.091 315.421 209.462C315.802 209.833 315.992 210.296 315.992 210.849C315.992 211.464 315.759 211.948 315.294 212.299C314.828 212.648 314.202 212.822 313.414 212.822C312.867 212.822 312.369 212.722 311.92 212.524C311.471 212.322 311.127 212.047 310.89 211.699C310.655 211.35 310.538 210.947 310.538 210.488H312.008C312.008 211.272 312.477 211.665 313.414 211.665C313.762 211.665 314.034 211.595 314.229 211.455C314.425 211.311 314.522 211.113 314.522 210.859ZM322.569 210.356C322.514 211.121 322.231 211.723 321.72 212.163C321.212 212.602 320.541 212.822 319.708 212.822C318.797 212.822 318.079 212.516 317.555 211.904C317.034 211.289 316.773 210.445 316.773 209.375V208.94C316.773 208.256 316.894 207.654 317.135 207.133C317.376 206.612 317.719 206.214 318.165 205.937C318.614 205.657 319.135 205.517 319.728 205.517C320.548 205.517 321.209 205.737 321.71 206.176C322.211 206.616 322.501 207.233 322.579 208.027H321.114C321.078 207.568 320.95 207.236 320.729 207.031C320.51 206.822 320.177 206.718 319.728 206.718C319.239 206.718 318.873 206.894 318.629 207.246C318.388 207.594 318.264 208.136 318.258 208.872V209.409C318.258 210.177 318.373 210.738 318.604 211.093C318.839 211.448 319.207 211.625 319.708 211.625C320.16 211.625 320.497 211.523 320.719 211.318C320.943 211.11 321.072 210.789 321.104 210.356H322.569ZM325.089 212.724H323.624V205.615H325.089V212.724ZM330.729 209.643H327.916V211.547H331.217V212.724H326.451V205.615H331.207V206.801H327.916V208.496H330.729V209.643ZM337.857 212.724H336.393L333.541 208.046V212.724H332.076V205.615H333.541L336.397 210.302V205.615H337.857V212.724ZM344.342 206.801H342.164V212.724H340.699V206.801H338.551V205.615H344.342V206.801ZM349.459 209.643H346.646V211.547H349.947V212.724H345.182V205.615H349.938V206.801H346.646V208.496H349.459V209.643ZM352.721 205.615L354.547 210.771L356.363 205.615H358.287V212.724H356.817V210.781L356.964 207.426L355.045 212.724H354.039L352.125 207.431L352.271 210.781V212.724H350.807V205.615H352.721ZM363.844 209.643H361.031V211.547H364.332V212.724H359.566V205.615H364.322V206.801H361.031V208.496H363.844V209.643ZM370.973 212.724H369.508L366.656 208.046V212.724H365.191V205.615H366.656L369.513 210.302V205.615H370.973V212.724ZM377.457 206.801H375.279V212.724H373.814V206.801H371.666V205.615H377.457V206.801ZM382.574 209.643H379.762V211.547H383.062V212.724H378.297V205.615H383.053V206.801H379.762V208.496H382.574V209.643Z" fill="#60347B"/>
<path d="M617.924 164.873H618.977C619.478 164.873 619.849 164.747 620.091 164.497C620.332 164.246 620.453 163.913 620.453 163.499C620.453 163.097 620.332 162.785 620.091 162.562C619.854 162.339 619.526 162.227 619.106 162.227C618.728 162.227 618.411 162.332 618.156 162.542C617.901 162.747 617.773 163.015 617.773 163.348H615.798C615.798 162.829 615.937 162.364 616.215 161.954C616.497 161.539 616.889 161.215 617.391 160.983C617.896 160.75 618.452 160.634 619.059 160.634C620.111 160.634 620.936 160.887 621.533 161.393C622.13 161.894 622.429 162.587 622.429 163.471C622.429 163.927 622.29 164.346 622.012 164.729C621.734 165.112 621.369 165.406 620.918 165.611C621.479 165.811 621.896 166.112 622.169 166.513C622.447 166.914 622.586 167.388 622.586 167.935C622.586 168.819 622.262 169.528 621.615 170.061C620.973 170.594 620.12 170.861 619.059 170.861C618.065 170.861 617.252 170.599 616.618 170.075C615.989 169.551 615.675 168.858 615.675 167.997H617.65C617.65 168.37 617.789 168.676 618.067 168.913C618.35 169.15 618.696 169.268 619.106 169.268C619.576 169.268 619.943 169.145 620.207 168.899C620.476 168.648 620.61 168.318 620.61 167.908C620.61 166.914 620.063 166.417 618.97 166.417H617.924V164.873ZM557.426 183.259H554.857L554.369 184.724H552.812L555.458 177.615H556.815L559.477 184.724H557.919L557.426 183.259ZM555.253 182.073H557.03L556.137 179.412L555.253 182.073ZM561.605 182.219V184.724H560.141V177.615H562.914C563.448 177.615 563.917 177.712 564.32 177.908C564.727 178.103 565.04 178.381 565.258 178.743C565.476 179.101 565.585 179.509 565.585 179.968C565.585 180.665 565.346 181.215 564.867 181.619C564.392 182.019 563.733 182.219 562.89 182.219H561.605ZM561.605 181.033H562.914C563.301 181.033 563.596 180.942 563.798 180.759C564.003 180.577 564.105 180.317 564.105 179.978C564.105 179.63 564.003 179.348 563.798 179.133C563.593 178.918 563.31 178.808 562.948 178.801H561.605V181.033ZM568.061 183.547H571.171V184.724H566.596V177.615H568.061V183.547ZM573.573 184.724H572.108V177.615H573.573V184.724ZM580.517 182.356C580.461 183.121 580.178 183.723 579.667 184.163C579.159 184.602 578.489 184.822 577.655 184.822C576.744 184.822 576.026 184.516 575.502 183.904C574.981 183.289 574.721 182.445 574.721 181.375V180.94C574.721 180.256 574.841 179.654 575.082 179.133C575.323 178.612 575.666 178.214 576.112 177.937C576.562 177.657 577.082 177.517 577.675 177.517C578.495 177.517 579.156 177.737 579.657 178.176C580.159 178.616 580.448 179.233 580.526 180.027H579.062C579.026 179.568 578.897 179.236 578.676 179.031C578.458 178.822 578.124 178.718 577.675 178.718C577.187 178.718 576.82 178.894 576.576 179.246C576.335 179.594 576.212 180.136 576.205 180.872V181.409C576.205 182.177 576.321 182.738 576.552 183.093C576.786 183.448 577.154 183.625 577.655 183.625C578.108 183.625 578.445 183.523 578.666 183.318C578.891 183.11 579.019 182.789 579.052 182.356H580.517ZM585.492 183.259H582.924L582.436 184.724H580.878L583.524 177.615H584.882L587.543 184.724H585.985L585.492 183.259ZM583.319 182.073H585.097L584.203 179.412L583.319 182.073ZM594.711 183.259H592.143L591.654 184.724H590.097L592.743 177.615H594.101L596.762 184.724H595.204L594.711 183.259ZM592.538 182.073H594.315L593.422 179.412L592.538 182.073ZM602.719 177.615V182.297C602.719 183.075 602.475 183.691 601.986 184.143C601.501 184.596 600.837 184.822 599.994 184.822C599.164 184.822 598.505 184.602 598.017 184.163C597.528 183.723 597.279 183.119 597.27 182.351V177.615H598.734V182.307C598.734 182.773 598.845 183.113 599.066 183.328C599.291 183.539 599.6 183.645 599.994 183.645C600.818 183.645 601.236 183.212 601.249 182.346V177.615H602.719ZM609.271 178.801H607.094V184.724H605.629V178.801H603.48V177.615H609.271V178.801ZM615.814 181.331C615.814 182.03 615.691 182.644 615.443 183.171C615.196 183.699 614.841 184.106 614.379 184.392C613.92 184.679 613.393 184.822 612.797 184.822C612.208 184.822 611.682 184.68 611.22 184.397C610.757 184.114 610.399 183.71 610.146 183.186C609.892 182.659 609.763 182.053 609.76 181.37V181.018C609.76 180.318 609.885 179.703 610.136 179.172C610.39 178.639 610.746 178.23 611.205 177.947C611.667 177.66 612.195 177.517 612.787 177.517C613.38 177.517 613.905 177.66 614.364 177.947C614.826 178.23 615.183 178.639 615.434 179.172C615.688 179.703 615.814 180.317 615.814 181.013V181.331ZM614.33 181.008C614.33 180.263 614.197 179.696 613.93 179.309C613.663 178.922 613.282 178.728 612.787 178.728C612.296 178.728 611.916 178.92 611.649 179.304C611.382 179.685 611.247 180.245 611.244 180.984V181.331C611.244 182.056 611.378 182.62 611.645 183.02C611.911 183.42 612.296 183.621 612.797 183.621C613.288 183.621 613.666 183.429 613.93 183.044C614.193 182.657 614.327 182.094 614.33 181.355V181.008ZM618.793 177.615L620.619 182.771L622.436 177.615H624.359V184.724H622.89V182.781L623.036 179.426L621.117 184.724H620.111L618.197 179.431L618.344 182.781V184.724H616.879V177.615H618.793ZM629.74 183.259H627.172L626.684 184.724H625.126L627.772 177.615H629.13L631.791 184.724H630.233L629.74 183.259ZM627.567 182.073H629.345L628.451 179.412L627.567 182.073ZM637.221 178.801H635.043V184.724H633.578V178.801H631.43V177.615H637.221V178.801ZM639.618 184.724H638.153V177.615H639.618V184.724ZM646.562 182.356C646.506 183.121 646.223 183.723 645.712 184.163C645.204 184.602 644.534 184.822 643.7 184.822C642.789 184.822 642.071 184.516 641.547 183.904C641.026 183.289 640.766 182.445 640.766 181.375V180.94C640.766 180.256 640.886 179.654 641.127 179.133C641.368 178.612 641.711 178.214 642.157 177.937C642.606 177.657 643.127 177.517 643.72 177.517C644.54 177.517 645.201 177.737 645.702 178.176C646.203 178.616 646.493 179.233 646.571 180.027H645.106C645.071 179.568 644.942 179.236 644.721 179.031C644.503 178.822 644.169 178.718 643.72 178.718C643.231 178.718 642.865 178.894 642.621 179.246C642.38 179.594 642.257 180.136 642.25 180.872V181.409C642.25 182.177 642.366 182.738 642.597 183.093C642.831 183.448 643.199 183.625 643.7 183.625C644.153 183.625 644.49 183.523 644.711 183.318C644.936 183.11 645.064 182.789 645.097 182.356H646.562ZM651.537 183.259H648.969L648.48 184.724H646.923L649.569 177.615H650.927L653.588 184.724H652.03L651.537 183.259ZM649.364 182.073H651.142L650.248 179.412L649.364 182.073ZM656.166 177.615L657.992 182.771L659.809 177.615H661.732V184.724H660.263V182.781L660.409 179.426L658.49 184.724H657.484L655.57 179.431L655.717 182.781V184.724H654.252V177.615H656.166ZM667.289 181.643H664.477V183.547H667.777V184.724H663.012V177.615H667.768V178.801H664.477V180.496H667.289V181.643ZM674.418 184.724H672.953L670.102 180.046V184.724H668.637V177.615H670.102L672.958 182.302V177.615H674.418V184.724ZM680.902 178.801H678.725V184.724H677.26V178.801H675.111V177.615H680.902V178.801ZM686.02 181.643H683.207V183.547H686.508V184.724H681.742V177.615H686.498V178.801H683.207V180.496H686.02V181.643ZM589.281 197.547H592.392V198.724H587.816V191.615H589.281V197.547ZM598.764 195.331C598.764 196.03 598.64 196.644 598.393 197.171C598.145 197.699 597.79 198.106 597.328 198.392C596.869 198.679 596.342 198.822 595.746 198.822C595.157 198.822 594.631 198.68 594.169 198.397C593.707 198.114 593.349 197.71 593.095 197.186C592.841 196.659 592.712 196.053 592.709 195.37V195.018C592.709 194.318 592.834 193.703 593.085 193.172C593.339 192.639 593.695 192.23 594.154 191.947C594.617 191.66 595.144 191.517 595.736 191.517C596.329 191.517 596.854 191.66 597.313 191.947C597.776 192.23 598.132 192.639 598.383 193.172C598.637 193.703 598.764 194.317 598.764 195.013V195.331ZM597.279 195.008C597.279 194.263 597.146 193.696 596.879 193.309C596.612 192.922 596.231 192.728 595.736 192.728C595.245 192.728 594.866 192.92 594.599 193.304C594.332 193.685 594.197 194.245 594.193 194.984V195.331C594.193 196.056 594.327 196.62 594.594 197.02C594.861 197.42 595.245 197.621 595.746 197.621C596.238 197.621 596.615 197.429 596.879 197.044C597.143 196.657 597.276 196.094 597.279 195.355V195.008ZM606.332 197.259H603.764L603.275 198.724H601.718L604.364 191.615H605.722L608.383 198.724H606.825L606.332 197.259ZM604.159 196.073H605.937L605.043 193.412L604.159 196.073ZM612.733 196.859C612.733 196.582 612.636 196.371 612.44 196.224C612.245 196.074 611.894 195.918 611.386 195.755C610.878 195.589 610.476 195.427 610.18 195.267C609.372 194.831 608.969 194.243 608.969 193.504C608.969 193.12 609.076 192.778 609.291 192.479C609.509 192.176 609.82 191.94 610.224 191.771C610.631 191.602 611.086 191.517 611.591 191.517C612.099 191.517 612.551 191.61 612.948 191.795C613.345 191.978 613.653 192.236 613.871 192.572C614.092 192.907 614.203 193.288 614.203 193.714H612.738C612.738 193.389 612.636 193.137 612.431 192.958C612.226 192.775 611.938 192.684 611.566 192.684C611.208 192.684 610.93 192.761 610.731 192.914C610.533 193.063 610.434 193.262 610.434 193.509C610.434 193.74 610.549 193.934 610.78 194.09C611.015 194.247 611.358 194.393 611.811 194.53C612.644 194.78 613.251 195.091 613.632 195.462C614.013 195.833 614.203 196.296 614.203 196.849C614.203 197.464 613.97 197.948 613.505 198.299C613.039 198.648 612.413 198.822 611.625 198.822C611.078 198.822 610.58 198.722 610.131 198.524C609.682 198.322 609.338 198.047 609.101 197.699C608.866 197.35 608.749 196.947 608.749 196.488H610.219C610.219 197.272 610.688 197.665 611.625 197.665C611.973 197.665 612.245 197.595 612.44 197.455C612.636 197.311 612.733 197.113 612.733 196.859ZM616.757 198.724H615.292V191.615H616.757V198.724ZM620.033 191.615L621.859 196.771L623.676 191.615H625.6V198.724H624.13V196.781L624.276 193.426L622.357 198.724H621.352L619.438 193.431L619.584 196.781V198.724H618.119V191.615H620.033ZM628.437 198.724H626.972V191.615H628.437V198.724ZM631.264 197.547H634.374V198.724H629.799V191.615H631.264V197.547ZM639.33 197.259H636.762L636.273 198.724H634.716L637.362 191.615H638.72L641.381 198.724H639.823L639.33 197.259ZM637.157 196.073H638.935L638.041 193.412L637.157 196.073ZM642.045 198.724V191.615H644.232C644.857 191.615 645.416 191.756 645.907 192.04C646.402 192.319 646.788 192.72 647.064 193.241C647.341 193.758 647.479 194.347 647.479 195.008V195.335C647.479 195.996 647.343 196.584 647.069 197.098C646.799 197.612 646.417 198.011 645.922 198.294C645.427 198.578 644.869 198.721 644.247 198.724H642.045ZM643.51 192.801V197.547H644.218C644.791 197.547 645.229 197.36 645.531 196.986C645.834 196.611 645.989 196.076 645.995 195.379V195.003C645.995 194.281 645.845 193.734 645.546 193.363C645.246 192.988 644.809 192.801 644.232 192.801H643.51ZM654.389 195.331C654.389 196.03 654.265 196.644 654.018 197.171C653.77 197.699 653.415 198.106 652.953 198.392C652.494 198.679 651.967 198.822 651.371 198.822C650.782 198.822 650.256 198.68 649.794 198.397C649.332 198.114 648.974 197.71 648.72 197.186C648.466 196.659 648.337 196.053 648.334 195.37V195.018C648.334 194.318 648.459 193.703 648.71 193.172C648.964 192.639 649.32 192.23 649.779 191.947C650.242 191.66 650.769 191.517 651.361 191.517C651.954 191.517 652.479 191.66 652.938 191.947C653.401 192.23 653.757 192.639 654.008 193.172C654.262 193.703 654.389 194.317 654.389 195.013V195.331ZM652.904 195.008C652.904 194.263 652.771 193.696 652.504 193.309C652.237 192.922 651.856 192.728 651.361 192.728C650.87 192.728 650.491 192.92 650.224 193.304C649.957 193.685 649.822 194.245 649.818 194.984V195.331C649.818 196.056 649.952 196.62 650.219 197.02C650.486 197.42 650.87 197.621 651.371 197.621C651.863 197.621 652.24 197.429 652.504 197.044C652.768 196.657 652.901 196.094 652.904 195.355V195.008Z" fill="#60347B"/>
<path d="M210.875 18.2061H207.279L206.596 20.2568H204.415L208.12 10.3037H210.021L213.746 20.2568H211.565L210.875 18.2061ZM207.833 16.5449H210.321L209.07 12.8193L207.833 16.5449ZM219.837 17.6455C219.837 17.2581 219.7 16.9619 219.427 16.7568C219.153 16.5472 218.661 16.3285 217.95 16.1006C217.239 15.8682 216.676 15.6403 216.262 15.417C215.132 14.8063 214.566 13.9837 214.566 12.9492C214.566 12.4115 214.717 11.9329 215.018 11.5137C215.323 11.0898 215.758 10.7594 216.323 10.5225C216.893 10.2855 217.531 10.167 218.237 10.167C218.948 10.167 219.582 10.2969 220.138 10.5566C220.694 10.8118 221.124 11.1742 221.43 11.6436C221.74 12.113 221.895 12.6462 221.895 13.2432H219.844C219.844 12.7874 219.7 12.4342 219.413 12.1836C219.126 11.9284 218.723 11.8008 218.203 11.8008C217.702 11.8008 217.312 11.9079 217.034 12.1221C216.756 12.3317 216.617 12.6097 216.617 12.9561C216.617 13.2796 216.779 13.5508 217.103 13.7695C217.431 13.9883 217.911 14.1934 218.545 14.3848C219.712 14.7357 220.562 15.1709 221.095 15.6904C221.628 16.21 221.895 16.8571 221.895 17.6318C221.895 18.4932 221.569 19.1699 220.917 19.6621C220.265 20.1497 219.388 20.3936 218.285 20.3936C217.52 20.3936 216.822 20.2546 216.193 19.9766C215.564 19.694 215.084 19.3089 214.751 18.8213C214.423 18.3337 214.259 17.7686 214.259 17.126H216.316C216.316 18.2243 216.973 18.7734 218.285 18.7734C218.773 18.7734 219.153 18.6755 219.427 18.4795C219.7 18.279 219.837 18.001 219.837 17.6455ZM225.47 20.2568H223.419V10.3037H225.47V20.2568ZM230.057 10.3037L232.613 17.5225L235.156 10.3037H237.85V20.2568H235.792V17.5361L235.997 12.8398L233.311 20.2568H231.902L229.223 12.8467L229.428 17.5361V20.2568H227.377V10.3037H230.057ZM241.821 20.2568H239.771V10.3037H241.821V20.2568ZM245.779 18.6094H250.134V20.2568H243.729V10.3037H245.779V18.6094ZM257.072 18.2061H253.477L252.793 20.2568H250.612L254.317 10.3037H256.218L259.943 20.2568H257.763L257.072 18.2061ZM254.03 16.5449H256.519L255.268 12.8193L254.03 16.5449ZM268.536 16.9414C268.459 18.0124 268.062 18.8555 267.347 19.4707C266.636 20.0859 265.697 20.3936 264.53 20.3936C263.254 20.3936 262.249 19.9652 261.516 19.1084C260.786 18.2471 260.422 17.0667 260.422 15.5674V14.959C260.422 14.002 260.59 13.1589 260.928 12.4297C261.265 11.7005 261.746 11.1423 262.37 10.7549C262.999 10.363 263.728 10.167 264.558 10.167C265.706 10.167 266.631 10.4746 267.333 11.0898C268.035 11.7051 268.44 12.5687 268.55 13.6807H266.499C266.449 13.0381 266.269 12.5732 265.959 12.2861C265.654 11.9945 265.187 11.8486 264.558 11.8486C263.874 11.8486 263.361 12.0947 263.02 12.5869C262.682 13.0745 262.509 13.8333 262.5 14.8633V15.6152C262.5 16.6908 262.662 17.4769 262.985 17.9736C263.313 18.4704 263.828 18.7188 264.53 18.7188C265.164 18.7188 265.635 18.5752 265.945 18.2881C266.26 17.9964 266.44 17.5475 266.485 16.9414H268.536ZM272.063 20.2568H270.013V10.3037H272.063V20.2568ZM282.146 15.5059C282.146 16.4857 281.973 17.3447 281.627 18.083C281.281 18.8213 280.784 19.391 280.137 19.792C279.494 20.193 278.756 20.3936 277.922 20.3936C277.097 20.3936 276.361 20.1953 275.714 19.7988C275.067 19.4023 274.565 18.8372 274.21 18.1035C273.854 17.3652 273.674 16.5176 273.67 15.5605V15.0684C273.67 14.0885 273.845 13.2272 274.196 12.4844C274.552 11.737 275.051 11.165 275.693 10.7686C276.34 10.3675 277.079 10.167 277.908 10.167C278.738 10.167 279.474 10.3675 280.116 10.7686C280.763 11.165 281.262 11.737 281.613 12.4844C281.969 13.2272 282.146 14.0863 282.146 15.0615V15.5059ZM280.068 15.0547C280.068 14.0111 279.882 13.2181 279.508 12.6758C279.134 12.1335 278.601 11.8623 277.908 11.8623C277.22 11.8623 276.689 12.1312 276.315 12.6689C275.942 13.2021 275.753 13.986 275.748 15.0205V15.5059C275.748 16.5221 275.935 17.3105 276.309 17.8711C276.682 18.4316 277.22 18.7119 277.922 18.7119C278.61 18.7119 279.139 18.443 279.508 17.9053C279.877 17.363 280.064 16.5745 280.068 15.54V15.0547ZM291.73 20.2568H289.68L285.688 13.708V20.2568H283.637V10.3037H285.688L289.687 16.8662V10.3037H291.73V20.2568Z" fill="#60347B"/>
<path d="M10.293 131.734C11.1953 131.84 11.8926 132.174 12.3848 132.736C12.873 133.295 13.1172 134.039 13.1172 134.969C13.1172 135.977 12.7559 136.785 12.0332 137.395C11.3105 138 10.3438 138.303 9.13281 138.303H8.3125C7.51953 138.303 6.82227 138.162 6.2207 137.881C5.61914 137.596 5.1582 137.193 4.83789 136.674C4.51367 136.154 4.35156 135.553 4.35156 134.869C4.35156 133.963 4.60547 133.236 5.11328 132.689C5.61719 132.143 6.31641 131.824 7.21094 131.734L7.21094 132.865C6.53125 132.963 6.03906 133.176 5.73438 133.504C5.42969 133.828 5.27734 134.283 5.27734 134.869C5.27734 135.588 5.54297 136.152 6.07422 136.562C6.60547 136.969 7.36133 137.172 8.3418 137.172H9.16797C10.0938 137.172 10.8301 136.979 11.377 136.592C11.9238 136.205 12.1973 135.664 12.1973 134.969C12.1973 134.344 12.0566 133.865 11.7754 133.533C11.4902 133.197 10.9961 132.975 10.293 132.865V131.734ZM13 128.986V130.111H4.46875V128.986H13ZM10.293 120.648C11.1953 120.754 11.8926 121.088 12.3848 121.65C12.873 122.209 13.1172 122.953 13.1172 123.883C13.1172 124.891 12.7559 125.699 12.0332 126.309C11.3105 126.914 10.3438 127.217 9.13281 127.217H8.3125C7.51953 127.217 6.82227 127.076 6.2207 126.795C5.61914 126.51 5.1582 126.107 4.83789 125.588C4.51367 125.068 4.35156 124.467 4.35156 123.783C4.35156 122.877 4.60547 122.15 5.11328 121.604C5.61719 121.057 6.31641 120.738 7.21094 120.648V121.779C6.53125 121.877 6.03906 122.09 5.73438 122.418C5.42969 122.742 5.27734 123.197 5.27734 123.783C5.27734 124.502 5.54297 125.066 6.07422 125.477C6.60547 125.883 7.36133 126.086 8.3418 126.086H9.16797C10.0938 126.086 10.8301 125.893 11.377 125.506C11.9238 125.119 12.1973 124.578 12.1973 123.883C12.1973 123.258 12.0566 122.779 11.7754 122.447C11.4902 122.111 10.9961 121.889 10.293 121.779V120.648ZM12.0801 117.977V113.934H13V119.107H4.46875V117.977H12.0801ZM9.00977 106.475C9.8457 106.475 10.5762 106.615 11.2012 106.896C11.8223 107.178 12.2969 107.576 12.625 108.092C12.9531 108.607 13.1172 109.209 13.1172 109.896C13.1172 110.568 12.9531 111.164 12.625 111.684C12.293 112.203 11.8223 112.607 11.2129 112.896C10.5996 113.182 9.89063 113.328 9.08594 113.336H8.4707C7.65039 113.336 6.92578 113.193 6.29688 112.908C5.66797 112.623 5.1875 112.221 4.85547 111.701C4.51953 111.178 4.35156 110.58 4.35156 109.908C4.35156 109.225 4.51758 108.623 4.84961 108.104C5.17773 107.58 5.65625 107.178 6.28516 106.896C6.91016 106.615 7.63867 106.475 8.4707 106.475H9.00977ZM8.45898 107.594C7.44727 107.594 6.67188 107.797 6.13281 108.203C5.58984 108.609 5.31836 109.178 5.31836 109.908C5.31836 110.619 5.58984 111.18 6.13281 111.59C6.67188 111.996 7.42188 112.205 8.38281 112.217H9.00977C9.99023 112.217 10.7617 112.012 11.3242 111.602C11.8828 111.188 12.1621 110.619 12.1621 109.896C12.1621 109.17 11.8984 108.607 11.3711 108.209C10.8398 107.811 10.0801 107.605 9.0918 107.594H8.45898ZM13 101.811H4.46875V99.4023C4.46875 98.6602 4.63281 98.0039 4.96094 97.4336C5.28906 96.8633 5.75586 96.4238 6.36133 96.1152C6.9668 95.8027 7.66211 95.6445 8.44727 95.6406H8.99219C9.79688 95.6406 10.502 95.7969 11.1074 96.1094C11.7129 96.418 12.1777 96.8613 12.502 97.4395C12.8262 98.0137 12.9922 98.6836 13 99.4492V101.811ZM5.39453 100.686H12.0801V99.502C12.0801 98.6348 11.8105 97.9609 11.2715 97.4805C10.7324 96.9961 9.96484 96.7539 8.96875 96.7539H8.4707C7.50195 96.7539 6.75 96.9824 6.21484 97.4395C5.67578 97.8926 5.40234 98.5371 5.39453 99.373V100.686ZM9.05664 89.1133V92.8105H12.0801V88.5156H13V93.9355H4.46875L4.46875 88.5742H5.39453L5.39453 92.8105H8.13672V89.1133H9.05664ZM10.293 77.8633C11.1953 77.9688 11.8926 78.3027 12.3848 78.8652C12.873 79.4238 13.1172 80.168 13.1172 81.0977C13.1172 82.1055 12.7559 82.9141 12.0332 83.5234C11.3105 84.1289 10.3438 84.4316 9.13281 84.4316H8.3125C7.51953 84.4316 6.82227 84.291 6.2207 84.0098C5.61914 83.7246 5.1582 83.3223 4.83789 82.8027C4.51367 82.2832 4.35156 81.6816 4.35156 80.998C4.35156 80.0918 4.60547 79.3652 5.11328 78.8184C5.61719 78.2715 6.31641 77.9531 7.21094 77.8633V78.9941C6.53125 79.0918 6.03906 79.3047 5.73438 79.6328C5.42969 79.957 5.27734 80.4121 5.27734 80.998C5.27734 81.7168 5.54297 82.2812 6.07422 82.6914C6.60547 83.0977 7.36133 83.3008 8.3418 83.3008H9.16797C10.0938 83.3008 10.8301 83.1074 11.377 82.7207C11.9238 82.334 12.1973 81.793 12.1973 81.0977C12.1973 80.4727 12.0566 79.9941 11.7754 79.6621C11.4902 79.3262 10.9961 79.1035 10.293 78.9941V77.8633ZM9.05664 71.5V75.1973H12.0801V70.9023H13V76.3223H4.46875L4.46875 70.9609H5.39453V75.1973H8.13672V71.5H9.05664ZM9.54883 66.373L9.54883 68.377H13V69.5078H4.46875V66.6836C4.46875 65.7227 4.6875 64.9844 5.125 64.4688C5.5625 63.9492 6.19922 63.6895 7.03516 63.6895C7.56641 63.6895 8.0293 63.834 8.42383 64.123C8.81836 64.4082 9.11328 64.8066 9.30859 65.3184L12.9297 63.3145H13V64.5215L9.54883 66.373ZM8.62891 68.377L8.62891 66.6484C8.62891 66.0898 8.48438 65.6465 8.19531 65.3184C7.90625 64.9863 7.51953 64.8203 7.03516 64.8203C6.50781 64.8203 6.10352 64.9785 5.82227 65.2949C5.54102 65.6074 5.39844 66.0605 5.39453 66.6543V68.377H8.62891ZM9.05664 57.2852V60.9824H12.0801V56.6875H13V62.1074H4.46875L4.46875 56.7461H5.39453V60.9824H8.13672V57.2852H9.05664ZM13 55.2871H4.46875V52.498C4.46875 51.5723 4.66016 50.877 5.04297 50.4121C5.42578 49.9434 5.99219 49.709 6.74219 49.709C7.14063 49.709 7.49414 49.8223 7.80273 50.0488C8.10742 50.2754 8.34375 50.584 8.51172 50.9746C8.64063 50.5137 8.88672 50.1504 9.25 49.8848C9.60938 49.6152 10.0391 49.4805 10.5391 49.4805C11.3047 49.4805 11.9063 49.7285 12.3438 50.2246C12.7813 50.7207 13 51.4219 13 52.3281V55.2871ZM9.00977 54.1621H12.0801V52.3047C12.0801 51.7812 11.9453 51.3691 11.6758 51.0684C11.4023 50.7637 11.0273 50.6113 10.5508 50.6113C9.52344 50.6113 9.00977 51.1699 9.00977 52.2871V54.1621ZM8.10742 54.1621V52.4629C8.10742 51.9707 7.98438 51.5781 7.73828 51.2852C7.49219 50.9883 7.1582 50.8398 6.73633 50.8398C6.26758 50.8398 5.92773 50.9766 5.7168 51.25C5.50195 51.5234 5.39453 51.9395 5.39453 52.498V54.1621H8.10742ZM9.54883 44.6816V46.6855H13V47.8164H4.46875L4.46875 44.9922C4.46875 44.0312 4.6875 43.293 5.125 42.7773C5.5625 42.2578 6.19922 41.998 7.03516 41.998C7.56641 41.998 8.0293 42.1426 8.42383 42.4316C8.81836 42.7168 9.11328 43.1152 9.30859 43.627L12.9297 41.623H13V42.8301L9.54883 44.6816ZM8.62891 46.6855V44.957C8.62891 44.3984 8.48438 43.9551 8.19531 43.627C7.90625 43.2949 7.51953 43.1289 7.03516 43.1289C6.50781 43.1289 6.10352 43.2871 5.82227 43.6035C5.54102 43.916 5.39844 44.3691 5.39453 44.9629V46.6855H8.62891ZM9.00977 33.8535C9.8457 33.8535 10.5762 33.9941 11.2012 34.2754C11.8223 34.5566 12.2969 34.9551 12.625 35.4707C12.9531 35.9863 13.1172 36.5879 13.1172 37.2754C13.1172 37.9473 12.9531 38.543 12.625 39.0625C12.293 39.582 11.8223 39.9863 11.2129 40.2754C10.5996 40.5605 9.89063 40.707 9.08594 40.7148H8.4707C7.65039 40.7148 6.92578 40.5723 6.29688 40.2871C5.66797 40.002 5.1875 39.5996 4.85547 39.0801C4.51953 38.5566 4.35156 37.959 4.35156 37.2871C4.35156 36.6035 4.51758 36.002 4.84961 35.4824C5.17773 34.959 5.65625 34.5566 6.28516 34.2754C6.91016 33.9941 7.63867 33.8535 8.4707 33.8535H9.00977ZM8.45898 34.9727C7.44727 34.9727 6.67188 35.1758 6.13281 35.582C5.58984 35.9883 5.31836 36.5566 5.31836 37.2871C5.31836 37.998 5.58984 38.5586 6.13281 38.9688C6.67188 39.375 7.42188 39.584 8.38281 39.5957H9.00977C9.99023 39.5957 10.7617 39.3906 11.3242 38.9805C11.8828 38.5664 12.1621 37.998 12.1621 37.2754C12.1621 36.5488 11.8984 35.9863 11.3711 35.5879C10.8398 35.1895 10.0801 34.9844 9.0918 34.9727H8.45898ZM27.293 131.734C28.1953 131.84 28.8926 132.174 29.3848 132.736C29.873 133.295 30.1172 134.039 30.1172 134.969C30.1172 135.977 29.7559 136.785 29.0332 137.395C28.3105 138 27.3438 138.303 26.1328 138.303H25.3125C24.5195 138.303 23.8223 138.162 23.2207 137.881C22.6191 137.596 22.1582 137.193 21.8379 136.674C21.5137 136.154 21.3516 135.553 21.3516 134.869C21.3516 133.963 21.6055 133.236 22.1133 132.689C22.6172 132.143 23.3164 131.824 24.2109 131.734V132.865C23.5312 132.963 23.0391 133.176 22.7344 133.504C22.4297 133.828 22.2773 134.283 22.2773 134.869C22.2773 135.588 22.543 136.152 23.0742 136.562C23.6055 136.969 24.3613 137.172 25.3418 137.172H26.168C27.0938 137.172 27.8301 136.979 28.377 136.592C28.9238 136.205 29.1973 135.664 29.1973 134.969C29.1973 134.344 29.0566 133.865 28.7754 133.533C28.4902 133.197 27.9961 132.975 27.293 132.865V131.734ZM26.0098 123.631C26.8457 123.631 27.5762 123.771 28.2012 124.053C28.8223 124.334 29.2969 124.732 29.625 125.248C29.9531 125.764 30.1172 126.365 30.1172 127.053C30.1172 127.725 29.9531 128.32 29.625 128.84C29.293 129.359 28.8223 129.764 28.2129 130.053C27.5996 130.338 26.8906 130.484 26.0859 130.492H25.4707C24.6504 130.492 23.9258 130.35 23.2969 130.064C22.668 129.779 22.1875 129.377 21.8555 128.857C21.5195 128.334 21.3516 127.736 21.3516 127.064C21.3516 126.381 21.5176 125.779 21.8496 125.26C22.1777 124.736 22.6562 124.334 23.2852 124.053C23.9102 123.771 24.6387 123.631 25.4707 123.631H26.0098ZM25.459 124.75C24.4473 124.75 23.6719 124.953 23.1328 125.359C22.5898 125.766 22.3184 126.334 22.3184 127.064C22.3184 127.775 22.5898 128.336 23.1328 128.746C23.6719 129.152 24.4219 129.361 25.3828 129.373H26.0098C26.9902 129.373 27.7617 129.168 28.3242 128.758C28.8828 128.344 29.1621 127.775 29.1621 127.053C29.1621 126.326 28.8984 125.764 28.3711 125.365C27.8398 124.967 27.0801 124.762 26.0918 124.75H25.459ZM30 115.387V116.518L23.4258 120.812H30V121.943H21.4688V120.812L28.0723 116.506H21.4688V115.387H30ZM26.2324 108.684L26.2324 112.264H30V113.389H21.4688L21.4688 108.104H22.3945L22.3945 112.264H25.3125L25.3125 108.684H26.2324ZM26.0098 100.193C26.8457 100.193 27.5762 100.334 28.2012 100.615C28.8223 100.896 29.2969 101.295 29.625 101.811C29.9531 102.326 30.1172 102.928 30.1172 103.615C30.1172 104.287 29.9531 104.883 29.625 105.402C29.293 105.922 28.8223 106.326 28.2129 106.615C27.5996 106.9 26.8906 107.047 26.0859 107.055H25.4707C24.6504 107.055 23.9258 106.912 23.2969 106.627C22.668 106.342 22.1875 105.939 21.8555 105.42C21.5195 104.896 21.3516 104.299 21.3516 103.627C21.3516 102.943 21.5176 102.342 21.8496 101.822C22.1777 101.299 22.6563 100.896 23.2852 100.615C23.9102 100.334 24.6387 100.193 25.4707 100.193H26.0098ZM25.459 101.312C24.4473 101.312 23.6719 101.516 23.1328 101.922C22.5898 102.328 22.3184 102.896 22.3184 103.627C22.3184 104.338 22.5898 104.898 23.1328 105.309C23.6719 105.715 24.4219 105.924 25.3828 105.936H26.0098C26.9902 105.936 27.7617 105.73 28.3242 105.32C28.8828 104.906 29.1621 104.338 29.1621 103.615C29.1621 102.889 28.8984 102.326 28.3711 101.928C27.8398 101.529 27.0801 101.324 26.0918 101.312H25.459ZM26.5488 95.377V97.3809H30V98.5117H21.4688V95.6875C21.4688 94.7266 21.6875 93.9883 22.125 93.4727C22.5625 92.9531 23.1992 92.6934 24.0352 92.6934C24.5664 92.6934 25.0293 92.8379 25.4238 93.127C25.8184 93.4121 26.1133 93.8105 26.3086 94.3223L29.9297 92.3184H30V93.5254L26.5488 95.377ZM25.6289 97.3809V95.6523C25.6289 95.0938 25.4844 94.6504 25.1953 94.3223C24.9063 93.9902 24.5195 93.8242 24.0352 93.8242C23.5078 93.8242 23.1035 93.9824 22.8223 94.2988C22.541 94.6113 22.3984 95.0645 22.3945 95.6582V97.3809H25.6289ZM22.3945 85.6855V88.4277H30V89.5469H22.3945V92.2832H21.4688V85.6855H22.3945ZM27.7734 80.1777V83.752L30 84.5547V85.7148L21.4688 82.457V81.4727L30 78.209V79.3633L27.7734 80.1777ZM26.8477 83.4121V80.5117L22.8574 81.9648L26.8477 83.4121ZM30 77.0605H21.4688V74.2715C21.4688 73.3457 21.6602 72.6504 22.043 72.1855C22.4258 71.7168 22.9922 71.4824 23.7422 71.4824C24.1406 71.4824 24.4941 71.5957 24.8027 71.8223C25.1074 72.0488 25.3438 72.3574 25.5117 72.748C25.6406 72.2871 25.8867 71.9238 26.25 71.6582C26.6094 71.3887 27.0391 71.2539 27.5391 71.2539C28.3047 71.2539 28.9063 71.502 29.3438 71.998C29.7813 72.4941 30 73.1953 30 74.1016V77.0605ZM26.0098 75.9355H29.0801V74.0781C29.0801 73.5547 28.9453 73.1426 28.6758 72.8418C28.4023 72.5371 28.0273 72.3848 27.5508 72.3848C26.5234 72.3848 26.0098 72.9434 26.0098 74.0605V75.9355ZM25.1074 75.9355V74.2363C25.1074 73.7441 24.9844 73.3516 24.7383 73.0586C24.4922 72.7617 24.1582 72.6133 23.7363 72.6133C23.2676 72.6133 22.9277 72.75 22.7168 73.0234C22.502 73.2969 22.3945 73.7129 22.3945 74.2715V75.9355H25.1074ZM29.0801 68.4531V64.4102H30V69.584H21.4688V68.4531H29.0801ZM26.0566 58.3047V62.002H29.0801V57.707H30V63.127H21.4688V57.7656H22.3945V62.002H25.1367V58.3047H26.0566Z" fill="#60347B"/>
<path d="M62.832 37.603L63.3242 33.2671H68.1055V34.6792H64.7129L64.502 36.5132C64.9043 36.2983 65.332 36.1909 65.7852 36.1909C66.5977 36.1909 67.2344 36.4429 67.6953 36.9468C68.1562 37.4507 68.3867 38.1558 68.3867 39.062C68.3867 39.6128 68.2695 40.1069 68.0352 40.5444C67.8047 40.978 67.4727 41.3159 67.0391 41.5581C66.6055 41.7964 66.0938 41.9155 65.5039 41.9155C64.9883 41.9155 64.5098 41.812 64.0684 41.605C63.627 41.394 63.2773 41.0991 63.0195 40.7202C62.7656 40.3413 62.6309 39.9097 62.6152 39.4253H64.291C64.3262 39.7808 64.4492 40.0581 64.6602 40.2573C64.875 40.4526 65.1543 40.5503 65.498 40.5503C65.8809 40.5503 66.1758 40.4136 66.3828 40.1401C66.5898 39.8628 66.6934 39.4722 66.6934 38.9683C66.6934 38.4839 66.5742 38.1128 66.3359 37.855C66.0977 37.5972 65.7598 37.4683 65.3223 37.4683C64.9199 37.4683 64.5938 37.5737 64.3438 37.7847L64.1797 37.937L62.832 37.603ZM67.5898 63.5874H68.5566V64.9526H67.5898V66.7983H65.8965V64.9526H62.3984L62.3223 63.8862L65.8789 58.2671H67.5898V63.5874ZM64.0098 63.5874H65.8965V60.5757L65.7852 60.769L64.0098 63.5874ZM64.3027 86.7827H65.2051C65.6348 86.7827 65.9531 86.6753 66.1602 86.4604C66.3672 86.2456 66.4707 85.9604 66.4707 85.605C66.4707 85.2612 66.3672 84.9937 66.1602 84.8022C65.957 84.6108 65.6758 84.5151 65.3164 84.5151C64.9922 84.5151 64.7207 84.605 64.502 84.7847C64.2832 84.9604 64.1738 85.1909 64.1738 85.4761H62.4805C62.4805 85.0308 62.5996 84.6323 62.8379 84.2808C63.0801 83.9253 63.416 83.6479 63.8457 83.4487C64.2793 83.2495 64.7559 83.1499 65.2754 83.1499C66.1777 83.1499 66.8848 83.3667 67.3965 83.8003C67.9082 84.23 68.1641 84.8237 68.1641 85.5815C68.1641 85.9722 68.0449 86.3315 67.8066 86.6597C67.5684 86.9878 67.2559 87.2397 66.8691 87.4155C67.3496 87.5874 67.707 87.8452 67.9414 88.189C68.1797 88.5327 68.2988 88.939 68.2988 89.4077C68.2988 90.1655 68.0215 90.7729 67.4668 91.23C66.916 91.687 66.1855 91.9155 65.2754 91.9155C64.4238 91.9155 63.7266 91.6909 63.1836 91.2417C62.6445 90.7925 62.375 90.1987 62.375 89.4604H64.0684C64.0684 89.7808 64.1875 90.0425 64.4258 90.2456C64.668 90.4487 64.9648 90.5503 65.3164 90.5503C65.7188 90.5503 66.0332 90.4448 66.2598 90.2339C66.4902 90.019 66.6055 89.7358 66.6055 89.3843C66.6055 88.5327 66.1367 88.1069 65.1992 88.1069H64.3027V86.7827ZM68.4277 116.798H62.5801V115.638L65.3398 112.697C65.7188 112.283 65.998 111.921 66.1777 111.613C66.3613 111.304 66.4531 111.011 66.4531 110.734C66.4531 110.355 66.3574 110.058 66.166 109.843C65.9746 109.625 65.7012 109.515 65.3457 109.515C64.9629 109.515 64.6602 109.648 64.4375 109.914C64.2188 110.175 64.1094 110.521 64.1094 110.951H62.4102C62.4102 110.431 62.5332 109.957 62.7793 109.527C63.0293 109.097 63.3809 108.761 63.834 108.519C64.2871 108.273 64.8008 108.15 65.375 108.15C66.2539 108.15 66.9355 108.361 67.4199 108.783C67.9082 109.205 68.1523 109.8 68.1523 110.57C68.1523 110.992 68.043 111.421 67.8242 111.859C67.6055 112.296 67.2305 112.806 66.6992 113.388L64.7598 115.433H68.4277V116.798ZM66.6934 141.798H65V135.271L62.9785 135.898V134.521L66.5117 133.255H66.6934V141.798Z" fill="#60347B"/>
<path d="M582.6 72.6338C582.522 73.7048 582.126 74.5479 581.41 75.1631C580.699 75.7783 579.76 76.0859 578.594 76.0859C577.318 76.0859 576.313 75.6576 575.579 74.8008C574.85 73.9395 574.485 72.7591 574.485 71.2598V70.6514C574.485 69.6943 574.654 68.8512 574.991 68.1221C575.328 67.3929 575.809 66.8346 576.434 66.4473C577.062 66.0553 577.792 65.8594 578.621 65.8594C579.77 65.8594 580.695 66.167 581.396 66.7822C582.098 67.3975 582.504 68.2611 582.613 69.373H580.562C580.512 68.7305 580.332 68.2656 580.022 67.9785C579.717 67.6868 579.25 67.541 578.621 67.541C577.938 67.541 577.425 67.7871 577.083 68.2793C576.746 68.7669 576.573 69.5257 576.563 70.5557V71.3076C576.563 72.3831 576.725 73.1693 577.049 73.666C577.377 74.1628 577.892 74.4111 578.594 74.4111C579.227 74.4111 579.699 74.2676 580.009 73.9805C580.323 73.6888 580.503 73.2399 580.549 72.6338H582.6ZM589.935 71.6357H585.997V74.3018H590.618V75.9492H583.946V65.9961H590.604V67.6572H585.997V70.0293H589.935V71.6357ZM595.506 72.3057H593.872V75.9492H591.821V65.9961H595.52C596.695 65.9961 597.602 66.2581 598.24 66.7822C598.878 67.3063 599.197 68.0469 599.197 69.0039C599.197 69.6829 599.049 70.2503 598.753 70.7061C598.461 71.1572 598.017 71.5173 597.42 71.7861L599.573 75.8535V75.9492H597.372L595.506 72.3057ZM593.872 70.6445H595.526C596.041 70.6445 596.44 70.5146 596.723 70.2549C597.005 69.9906 597.146 69.6283 597.146 69.168C597.146 68.6986 597.012 68.3294 596.743 68.0605C596.479 67.7917 596.071 67.6572 595.52 67.6572H593.872V70.6445ZM606.751 71.6357H602.813V74.3018H607.435V75.9492H600.763V65.9961H607.421V67.6572H602.813V70.0293H606.751V71.6357ZM608.638 75.9492V65.9961H612.124C613.332 65.9961 614.248 66.2285 614.872 66.6934C615.496 67.1536 615.809 67.8304 615.809 68.7236C615.809 69.2113 615.683 69.6419 615.433 70.0156C615.182 70.3848 614.833 70.6559 614.387 70.8291C614.897 70.9567 615.298 71.2142 615.59 71.6016C615.886 71.9889 616.034 72.4629 616.034 73.0234C616.034 73.9805 615.729 74.7051 615.118 75.1973C614.507 75.6895 613.637 75.9401 612.507 75.9492H608.638ZM610.688 71.6152V74.3018H612.445C612.928 74.3018 613.304 74.1878 613.573 73.96C613.847 73.7275 613.983 73.4085 613.983 73.0029C613.983 72.0915 613.512 71.6289 612.568 71.6152H610.688ZM610.688 70.166H612.206C613.241 70.1478 613.758 69.7354 613.758 68.9287C613.758 68.4775 613.626 68.154 613.361 67.958C613.102 67.7575 612.689 67.6572 612.124 67.6572H610.688V70.166ZM621.264 72.3057H619.63V75.9492H617.579V65.9961H621.277C622.453 65.9961 623.36 66.2581 623.998 66.7822C624.636 67.3063 624.955 68.0469 624.955 69.0039C624.955 69.6829 624.807 70.2503 624.511 70.7061C624.219 71.1572 623.775 71.5173 623.178 71.7861L625.331 75.8535V75.9492H623.13L621.264 72.3057ZM619.63 70.6445H621.284C621.799 70.6445 622.198 70.5146 622.48 70.2549C622.763 69.9906 622.904 69.6283 622.904 69.168C622.904 68.6986 622.77 68.3294 622.501 68.0605C622.237 67.7917 621.829 67.6572 621.277 67.6572H619.63V70.6445ZM634.696 71.1982C634.696 72.1781 634.523 73.0371 634.177 73.7754C633.83 74.5137 633.334 75.0833 632.687 75.4844C632.044 75.8854 631.306 76.0859 630.472 76.0859C629.647 76.0859 628.911 75.8877 628.264 75.4912C627.617 75.0947 627.115 74.5296 626.76 73.7959C626.404 73.0576 626.224 72.21 626.22 71.2529V70.7607C626.22 69.7809 626.395 68.9196 626.746 68.1768C627.102 67.4294 627.601 66.8574 628.243 66.4609C628.89 66.0599 629.629 65.8594 630.458 65.8594C631.287 65.8594 632.023 66.0599 632.666 66.4609C633.313 66.8574 633.812 67.4294 634.163 68.1768C634.519 68.9196 634.696 69.7786 634.696 70.7539V71.1982ZM632.618 70.7471C632.618 69.7035 632.431 68.9105 632.058 68.3682C631.684 67.8258 631.151 67.5547 630.458 67.5547C629.77 67.5547 629.239 67.8236 628.865 68.3613C628.492 68.8945 628.302 69.6784 628.298 70.7129V71.1982C628.298 72.2145 628.485 73.0029 628.858 73.5635C629.232 74.124 629.77 74.4043 630.472 74.4043C631.16 74.4043 631.688 74.1354 632.058 73.5977C632.427 73.0553 632.614 72.2669 632.618 71.2324V70.7471ZM647.486 72.6338C647.409 73.7048 647.012 74.5479 646.297 75.1631C645.586 75.7783 644.647 76.0859 643.48 76.0859C642.204 76.0859 641.2 75.6576 640.466 74.8008C639.737 73.9395 639.372 72.7591 639.372 71.2598V70.6514C639.372 69.6943 639.541 68.8512 639.878 68.1221C640.215 67.3929 640.696 66.8346 641.32 66.4473C641.949 66.0553 642.678 65.8594 643.508 65.8594C644.656 65.8594 645.581 66.167 646.283 66.7822C646.985 67.3975 647.391 68.2611 647.5 69.373H645.449C645.399 68.7305 645.219 68.2656 644.909 67.9785C644.604 67.6868 644.137 67.541 643.508 67.541C642.824 67.541 642.312 67.7871 641.97 68.2793C641.632 68.7669 641.459 69.5257 641.45 70.5557V71.3076C641.45 72.3831 641.612 73.1693 641.936 73.666C642.264 74.1628 642.779 74.4111 643.48 74.4111C644.114 74.4111 644.586 74.2676 644.896 73.9805C645.21 73.6888 645.39 73.2399 645.436 72.6338H647.486ZM657.009 71.1982C657.009 72.1781 656.836 73.0371 656.489 73.7754C656.143 74.5137 655.646 75.0833 654.999 75.4844C654.356 75.8854 653.618 76.0859 652.784 76.0859C651.959 76.0859 651.223 75.8877 650.576 75.4912C649.929 75.0947 649.428 74.5296 649.072 73.7959C648.717 73.0576 648.537 72.21 648.532 71.2529V70.7607C648.532 69.7809 648.708 68.9196 649.059 68.1768C649.414 67.4294 649.913 66.8574 650.556 66.4609C651.203 66.0599 651.941 65.8594 652.771 65.8594C653.6 65.8594 654.336 66.0599 654.979 66.4609C655.626 66.8574 656.125 67.4294 656.476 68.1768C656.831 68.9196 657.009 69.7786 657.009 70.7539V71.1982ZM654.931 70.7471C654.931 69.7035 654.744 68.9105 654.37 68.3682C653.996 67.8258 653.463 67.5547 652.771 67.5547C652.082 67.5547 651.551 67.8236 651.178 68.3613C650.804 68.8945 650.615 69.6784 650.61 70.7129V71.1982C650.61 72.2145 650.797 73.0029 651.171 73.5635C651.545 74.124 652.082 74.4043 652.784 74.4043C653.472 74.4043 654.001 74.1354 654.37 73.5977C654.739 73.0553 654.926 72.2669 654.931 71.2324V70.7471ZM666.593 75.9492H664.542L660.55 69.4004V75.9492H658.499V65.9961H660.55L664.549 72.5586V65.9961H666.593V75.9492ZM674.372 71.8818H670.435V75.9492H668.384V65.9961H674.864V67.6572H670.435V70.2275H674.372V71.8818ZM684.229 71.1982C684.229 72.1781 684.056 73.0371 683.71 73.7754C683.364 74.5137 682.867 75.0833 682.22 75.4844C681.577 75.8854 680.839 76.0859 680.005 76.0859C679.18 76.0859 678.444 75.8877 677.797 75.4912C677.15 75.0947 676.648 74.5296 676.293 73.7959C675.938 73.0576 675.757 72.21 675.753 71.2529V70.7607C675.753 69.7809 675.928 68.9196 676.279 68.1768C676.635 67.4294 677.134 66.8574 677.776 66.4609C678.424 66.0599 679.162 65.8594 679.991 65.8594C680.821 65.8594 681.557 66.0599 682.199 66.4609C682.846 66.8574 683.345 67.4294 683.696 68.1768C684.052 68.9196 684.229 69.7786 684.229 70.7539V71.1982ZM682.151 70.7471C682.151 69.7035 681.965 68.9105 681.591 68.3682C681.217 67.8258 680.684 67.5547 679.991 67.5547C679.303 67.5547 678.772 67.8236 678.398 68.3613C678.025 68.8945 677.836 69.6784 677.831 70.7129V71.1982C677.831 72.2145 678.018 73.0029 678.392 73.5635C678.765 74.124 679.303 74.4043 680.005 74.4043C680.693 74.4043 681.222 74.1354 681.591 73.5977C681.96 73.0553 682.147 72.2669 682.151 71.2324V70.7471ZM689.404 72.3057H687.771V75.9492H685.72V65.9961H689.418C690.594 65.9961 691.501 66.2581 692.139 66.7822C692.777 67.3063 693.096 68.0469 693.096 69.0039C693.096 69.6829 692.948 70.2503 692.651 70.7061C692.36 71.1572 691.915 71.5173 691.318 71.7861L693.472 75.8535V75.9492H691.271L689.404 72.3057ZM687.771 70.6445H689.425C689.94 70.6445 690.339 70.5146 690.621 70.2549C690.904 69.9906 691.045 69.6283 691.045 69.168C691.045 68.6986 690.91 68.3294 690.642 68.0605C690.377 67.7917 689.969 67.6572 689.418 67.6572H687.771V70.6445ZM701.812 67.6572H698.763V75.9492H696.712V67.6572H693.704V65.9961H701.812V67.6572ZM707.786 73.8984H704.19L703.507 75.9492H701.326L705.031 65.9961H706.932L710.657 75.9492H708.477L707.786 73.8984ZM704.744 72.2373H707.232L705.981 68.5117L704.744 72.2373ZM711.587 75.9492V65.9961H715.073C716.281 65.9961 717.197 66.2285 717.821 66.6934C718.446 67.1536 718.758 67.8304 718.758 68.7236C718.758 69.2113 718.632 69.6419 718.382 70.0156C718.131 70.3848 717.783 70.6559 717.336 70.8291C717.846 70.9567 718.247 71.2142 718.539 71.6016C718.835 71.9889 718.983 72.4629 718.983 73.0234C718.983 73.9805 718.678 74.7051 718.067 75.1973C717.457 75.6895 716.586 75.9401 715.456 75.9492H711.587ZM713.638 71.6152V74.3018H715.395C715.878 74.3018 716.254 74.1878 716.522 73.96C716.796 73.7275 716.933 73.4085 716.933 73.0029C716.933 72.0915 716.461 71.6289 715.518 71.6152H713.638ZM713.638 70.166H715.155C716.19 70.1478 716.707 69.7354 716.707 68.9287C716.707 68.4775 716.575 68.154 716.311 67.958C716.051 67.7575 715.638 67.6572 715.073 67.6572H713.638V70.166ZM722.579 74.3018H726.934V75.9492H720.528V65.9961H722.579V74.3018ZM734.104 71.6357H730.167V74.3018H734.788V75.9492H728.116V65.9961H734.774V67.6572H730.167V70.0293H734.104V71.6357Z" fill="white"/>
<path d="M79.7784 146.029C81.3558 -70.4098 386.411 100.608 839 142.045" stroke="#60347B" stroke-width="2"/>
<path d="M120.232 71.5264L117.704 71.9811L117.495 73.5071L115.962 73.7828L117.25 66.3279L118.586 66.0876L122.522 72.6029L120.989 72.8786L120.232 71.5264ZM117.874 70.7451L119.623 70.4304L118.251 67.9735L117.874 70.7451ZM124.399 71.0696L127.46 70.519L127.678 71.6754L123.175 72.4853L121.859 65.4989L123.301 65.2396L124.399 71.0696ZM131.69 64.9361L129.547 65.3216L130.643 71.142L129.202 71.4013L128.105 65.5809L125.99 65.9613L125.771 64.7953L131.47 63.77L131.69 64.9361ZM136.716 68.5615L134.188 69.0162L133.978 70.5421L132.445 70.8179L133.734 63.3629L135.07 63.1226L139.005 69.6379L137.472 69.9137L136.716 68.5615ZM134.357 67.7801L136.107 67.4655L134.734 65.0085L134.357 67.7801ZM147.164 65.7643C147.251 66.5258 147.084 67.1677 146.662 67.6901C146.244 68.2118 145.625 68.5465 144.805 68.694C143.907 68.8553 143.144 68.6817 142.515 68.1731C141.889 67.6607 141.476 66.8783 141.278 65.8258L141.198 65.3988C141.071 64.727 141.078 64.1139 141.219 63.5594C141.359 63.005 141.623 62.5523 142.011 62.2014C142.401 61.8468 142.888 61.617 143.471 61.5122C144.279 61.3669 144.97 61.4659 145.544 61.809C146.119 62.1521 146.518 62.707 146.742 63.4737L145.301 63.733C145.18 63.2883 144.992 62.9848 144.737 62.8224C144.483 62.6563 144.136 62.613 143.694 62.6926C143.213 62.779 142.885 63.0166 142.71 63.4053C142.537 63.7902 142.516 64.3447 142.646 65.0688L142.745 65.5967C142.887 66.3516 143.105 66.883 143.398 67.1907C143.695 67.4979 144.09 67.6071 144.583 67.5184C145.028 67.4383 145.341 67.2779 145.521 67.0371C145.703 66.7927 145.77 66.4548 145.722 66.0236L147.164 65.7643ZM152.228 65.7711L149.701 66.2258L149.491 67.7517L147.958 68.0275L149.246 60.5725L150.582 60.3322L154.518 66.8476L152.985 67.1233L152.228 65.7711ZM149.87 64.9898L151.619 64.6751L150.247 62.2182L149.87 64.9898ZM157.28 63.7065L156.131 63.9131L156.613 66.4707L155.172 66.73L153.855 59.7436L156.455 59.2759C157.282 59.1272 157.954 59.1965 158.472 59.4837C158.989 59.7709 159.312 60.2504 159.438 60.9221C159.528 61.3988 159.499 61.8158 159.351 62.1731C159.206 62.5267 158.941 62.8356 158.557 63.0998L160.609 65.6826L160.621 65.7497L159.074 66.0281L157.28 63.7065ZM155.912 62.7471L157.075 62.5379C157.437 62.4728 157.7 62.3312 157.864 62.1132C158.028 61.8919 158.079 61.6197 158.018 61.2966C157.956 60.9671 157.813 60.725 157.588 60.5703C157.367 60.415 157.062 60.3722 156.675 60.4419L155.517 60.6502L155.912 62.7471ZM166.827 63.7206C166.626 64.0776 166.305 64.3851 165.863 64.6431C165.421 64.898 164.911 65.0772 164.335 65.181C163.729 65.2899 163.173 65.2544 162.665 65.0745C162.16 64.8908 161.735 64.5703 161.391 64.1131C161.05 63.6552 160.812 63.0878 160.678 62.4107L160.588 61.9357C160.457 61.2383 160.46 60.6143 160.598 60.0636C160.739 59.5091 161.005 59.0578 161.396 58.7095C161.79 58.3575 162.285 58.1279 162.881 58.0207C163.711 57.8715 164.397 57.9531 164.94 58.2657C165.482 58.575 165.867 59.0993 166.096 59.8387L164.692 60.0911C164.553 59.7028 164.355 59.4357 164.099 59.29C163.846 59.1436 163.528 59.105 163.143 59.1742C162.653 59.2623 162.315 59.5134 162.128 59.9274C161.941 60.3414 161.914 60.9117 162.048 61.6385L162.132 62.0847C162.27 62.8173 162.513 63.3456 162.863 63.6697C163.212 63.9939 163.656 64.1075 164.194 64.0107C164.735 63.9133 165.1 63.7287 165.287 63.4569L165.06 62.2525L163.748 62.4885L163.548 61.4281L166.302 60.9328L166.827 63.7206ZM171.845 62.2425L169.317 62.6972L169.108 64.2232L167.575 64.4989L168.863 57.044L170.199 56.8037L174.135 63.319L172.602 63.5947L171.845 62.2425ZM169.487 61.4612L171.236 61.1465L169.864 58.6896L169.487 61.4612ZM182.294 59.4453C182.381 60.2069 182.214 60.8488 181.792 61.3711C181.374 61.8929 180.754 62.2275 179.934 62.3751C179.037 62.5364 178.274 62.3628 177.645 61.8542C177.018 61.3418 176.606 60.5594 176.408 59.5069L176.327 59.0799C176.201 58.4081 176.208 57.795 176.348 57.2405C176.489 56.686 176.753 56.2334 177.141 55.8825C177.531 55.5279 178.018 55.2981 178.601 55.1932C179.408 55.048 180.099 55.1469 180.674 55.49C181.249 55.8332 181.648 56.3881 181.872 57.1548L180.43 57.4141C180.31 56.9694 180.122 56.6659 179.866 56.5035C179.613 56.3374 179.265 56.2941 178.823 56.3736C178.343 56.4601 178.015 56.6976 177.84 57.0863C177.667 57.4713 177.646 58.0258 177.775 58.7499L177.875 59.2777C178.017 60.0327 178.235 60.564 178.528 60.8718C178.824 61.179 179.219 61.2882 179.713 61.1994C180.158 61.1193 180.47 60.9589 180.65 60.7182C180.833 60.4737 180.9 60.1359 180.852 59.7046L182.294 59.4453ZM187.318 57.8172L184.55 58.3151L184.903 60.1865L188.151 59.6022L188.369 60.7586L183.679 61.6022L182.362 54.6158L187.043 53.7739L187.263 54.9399L184.024 55.5225L184.338 57.1875L187.106 56.6896L187.318 57.8172ZM191.323 57.583L190.175 57.7896L190.657 60.3471L189.215 60.6064L187.899 53.62L190.498 53.1523C191.325 53.0037 191.997 53.0729 192.515 53.3601C193.033 53.6473 193.355 54.1268 193.482 54.7986C193.572 55.2752 193.542 55.6922 193.395 56.0495C193.249 56.4031 192.984 56.712 192.6 56.9763L194.652 59.559L194.665 59.6262L193.117 59.9045L191.323 57.583ZM189.955 56.6236L191.118 56.4144C191.48 56.3492 191.743 56.2077 191.908 55.9896C192.071 55.7683 192.123 55.4961 192.062 55.173C192 54.8436 191.856 54.6014 191.632 54.4467C191.41 54.2914 191.106 54.2486 190.718 54.3183L189.56 54.5267L189.955 56.6236ZM199.14 55.6907L196.372 56.1887L196.725 58.06L199.973 57.4757L200.191 58.6321L195.501 59.4758L194.184 52.4893L198.865 51.6474L199.085 52.8134L195.846 53.396L196.16 55.061L198.928 54.5631L199.14 55.6907ZM201.037 58.4799L199.721 51.4935L202.171 51.0527C203.021 50.8999 203.695 50.9472 204.196 51.1946C204.695 51.4387 205.004 51.8743 205.123 52.5013C205.187 52.8436 205.156 53.1617 205.029 53.4557C204.902 53.7465 204.692 53.9809 204.401 54.159C204.777 54.184 205.093 54.314 205.349 54.5491C205.609 54.7835 205.776 55.0975 205.85 55.4909C205.976 56.1627 205.858 56.7099 205.493 57.1326C205.129 57.5554 204.55 57.8414 203.757 57.9907L201.037 58.4799ZM201.905 55.1784L202.261 57.0642L203.496 56.8421C203.835 56.781 204.085 56.6534 204.244 56.4595C204.405 56.2618 204.459 56.0206 204.405 55.7359C204.285 55.0961 203.892 54.831 203.227 54.9407L201.905 55.1784ZM201.714 54.1612L202.781 53.9693C203.506 53.8257 203.815 53.4708 203.708 52.9046C203.648 52.5879 203.513 52.3775 203.301 52.2733C203.092 52.1654 202.788 52.1472 202.391 52.2187L201.382 52.4002L201.714 54.1612ZM209.431 54.3258L208.283 54.5324L208.765 57.09L207.323 57.3493L206.006 50.3628L208.606 49.8952C209.433 49.7465 210.105 49.8158 210.623 50.103C211.141 50.3902 211.463 50.8696 211.59 51.5414C211.679 52.0181 211.65 52.435 211.502 52.7924C211.357 53.146 211.092 53.4549 210.708 53.7191L212.76 56.3018L212.772 56.369L211.225 56.6474L209.431 54.3258ZM208.063 53.3664L209.226 53.1572C209.588 53.0921 209.851 52.9505 210.015 52.7324C210.179 52.5112 210.23 52.239 210.17 51.9159C210.107 51.5864 209.964 51.3443 209.74 51.1896C209.518 51.0343 209.214 50.9915 208.826 51.0612L207.668 51.2695L208.063 53.3664ZM217.288 54.0685L214.76 54.5232L214.551 56.0492L213.018 56.3249L214.306 48.87L215.642 48.6297L219.577 55.145L218.044 55.4208L217.288 54.0685ZM214.929 53.2872L216.679 52.9726L215.307 50.5156L214.929 53.2872ZM221.455 53.6117L224.516 53.0611L224.734 54.2175L220.231 55.0274L218.915 48.041L220.356 47.7817L221.455 53.6117Z" fill="#60347B"/>
<path d="M482.893 99.2076L481.747 98.9875L481.234 101.539L479.795 101.263L481.198 94.2929L483.792 94.7911C484.617 94.9496 485.216 95.2553 485.59 95.7082C485.963 96.1612 486.083 96.7227 485.948 97.3929C485.852 97.8684 485.668 98.2457 485.396 98.525C485.128 98.8016 484.766 98.9938 484.309 99.1017L485.247 102.24L485.233 102.307L483.689 102.01L482.893 99.2076ZM481.981 97.8243L483.142 98.0471C483.503 98.1165 483.801 98.0793 484.036 97.9355C484.271 97.7885 484.421 97.5538 484.486 97.2315C484.552 96.9028 484.51 96.6262 484.359 96.4016C484.212 96.1778 483.945 96.0287 483.558 95.9544L482.402 95.7324L481.981 97.8243ZM490.876 100.254L488.114 99.7231L487.738 101.59L490.98 102.213L490.747 103.366L486.067 102.467L487.47 95.4976L492.14 96.3947L491.906 97.5579L488.674 96.9371L488.34 98.5981L491.102 99.1287L490.876 100.254ZM491.591 103.528L492.994 96.5586L495.142 96.9712C495.756 97.0891 496.276 97.3332 496.703 97.7036C497.134 98.0714 497.433 98.5367 497.602 99.0995C497.772 99.6591 497.792 100.263 497.661 100.911L497.597 101.231C497.467 101.879 497.216 102.429 496.846 102.882C496.48 103.335 496.025 103.654 495.484 103.838C494.942 104.023 494.365 104.058 493.754 103.944L491.591 103.528ZM494.198 97.9981L493.262 102.651L493.957 102.785C494.52 102.893 494.987 102.792 495.358 102.482C495.729 102.172 495.987 101.676 496.13 100.994L496.205 100.626C496.347 99.9174 496.308 99.353 496.087 98.9327C495.867 98.5092 495.474 98.2431 494.908 98.1344L494.198 97.9981ZM504.665 98.8004L503.742 103.391C503.588 104.154 503.227 104.711 502.658 105.062C502.093 105.414 501.396 105.511 500.568 105.352C499.753 105.195 499.149 104.856 498.756 104.333C498.363 103.81 498.238 103.171 498.38 102.416L499.314 97.7725L500.752 98.0488L499.827 102.649C499.735 103.105 499.777 103.46 499.952 103.712C500.13 103.962 500.413 104.124 500.8 104.198C501.609 104.354 502.105 104.008 502.289 103.162L503.222 98.5232L504.665 98.8004ZM510.39 104.728C510.185 105.467 509.788 106.004 509.2 106.339C508.614 106.674 507.912 106.763 507.094 106.605C506.199 106.434 505.554 105.998 505.161 105.299C504.77 104.598 504.681 103.722 504.892 102.672L504.978 102.246C505.113 101.576 505.35 101.008 505.689 100.543C506.028 100.078 506.444 99.752 506.937 99.5649C507.433 99.3752 507.972 99.3362 508.554 99.4479C509.36 99.6027 509.965 99.9427 510.371 100.468C510.777 100.993 510.939 101.653 510.859 102.446L509.421 102.17C509.476 101.713 509.415 101.363 509.239 101.121C509.065 100.875 508.758 100.71 508.317 100.626C507.838 100.533 507.443 100.637 507.134 100.935C506.829 101.231 506.601 101.739 506.449 102.459L506.343 102.986C506.192 103.739 506.194 104.311 506.351 104.703C506.512 105.095 506.838 105.338 507.33 105.433C507.774 105.518 508.126 105.481 508.383 105.322C508.645 105.16 508.835 104.87 508.952 104.451L510.39 104.728ZM516.816 105.962C516.611 106.701 516.214 107.238 515.625 107.573C515.04 107.908 514.338 107.997 513.52 107.84C512.625 107.668 511.98 107.232 511.586 106.534C511.196 105.832 511.106 104.956 511.318 103.907L511.403 103.481C511.538 102.81 511.775 102.243 512.115 101.778C512.454 101.312 512.87 100.986 513.362 100.799C513.859 100.609 514.398 100.57 514.98 100.682C515.785 100.837 516.391 101.177 516.796 101.702C517.202 102.228 517.365 102.887 517.285 103.68L515.846 103.404C515.902 102.947 515.841 102.598 515.664 102.355C515.491 102.109 515.184 101.944 514.743 101.86C514.263 101.768 513.869 101.871 513.56 102.169C513.255 102.465 513.026 102.973 512.875 103.693L512.769 104.22C512.617 104.973 512.62 105.545 512.777 105.937C512.937 106.329 513.263 106.572 513.756 106.667C514.2 106.752 514.551 106.715 514.809 106.556C515.071 106.394 515.26 106.104 515.377 105.686L516.816 105.962ZM518.823 108.759L517.385 108.483L518.787 101.513L520.225 101.789L518.823 108.759ZM526.565 106.791C526.427 107.477 526.185 108.055 525.838 108.525C525.491 108.995 525.062 109.327 524.552 109.521C524.044 109.715 523.498 109.756 522.913 109.644C522.335 109.533 521.846 109.295 521.448 108.93C521.05 108.565 520.778 108.102 520.632 107.54C520.487 106.975 520.48 106.357 520.612 105.687L520.681 105.342C520.819 104.656 521.063 104.076 521.414 103.604C521.769 103.128 522.2 102.795 522.706 102.604C523.217 102.41 523.763 102.369 524.345 102.481C524.926 102.593 525.414 102.832 525.809 103.2C526.207 103.564 526.476 104.032 526.617 104.603C526.762 105.171 526.765 105.796 526.628 106.479L526.565 106.791ZM525.171 106.195C525.318 105.464 525.299 104.883 525.113 104.453C524.927 104.023 524.592 103.761 524.106 103.668C523.623 103.575 523.213 103.692 522.875 104.018C522.538 104.341 522.294 104.865 522.145 105.589L522.077 105.928C521.934 106.64 521.954 107.217 522.137 107.66C522.32 108.103 522.658 108.372 523.15 108.466C523.633 108.559 524.042 108.442 524.376 108.115C524.712 107.785 524.954 107.258 525.103 106.534L525.171 106.195ZM532.619 111.409L531.18 111.132L529.303 106.009L528.38 110.594L526.941 110.318L528.344 103.348L529.782 103.625L531.663 108.759L532.587 104.164L534.021 104.439L532.619 111.409ZM536.321 112.12L537.723 105.15L539.871 105.563C540.485 105.681 541.005 105.925 541.432 106.295C541.863 106.663 542.163 107.128 542.332 107.691C542.501 108.25 542.521 108.854 542.391 109.502L542.326 109.823C542.196 110.471 541.946 111.021 541.576 111.473C541.209 111.927 540.755 112.245 540.213 112.43C539.671 112.614 539.095 112.649 538.483 112.535L536.321 112.12ZM538.928 106.59L537.991 111.242L538.687 111.376C539.249 111.484 539.716 111.383 540.087 111.073C540.458 110.763 540.716 110.268 540.86 109.586L540.934 109.217C541.076 108.509 541.037 107.944 540.816 107.524C540.596 107.101 540.203 106.835 539.637 106.726L538.928 106.59ZM547.516 111.133L544.754 110.602L544.378 112.469L547.62 113.092L547.388 114.245L542.708 113.347L544.11 106.377L548.781 107.274L548.547 108.437L545.315 107.816L544.98 109.477L547.742 110.008L547.516 111.133ZM556.625 113.608C556.42 114.348 556.023 114.885 555.435 115.219C554.849 115.554 554.147 115.643 553.329 115.486C552.434 115.314 551.789 114.879 551.395 114.18C551.005 113.479 550.916 112.603 551.127 111.553L551.213 111.127C551.348 110.457 551.585 109.889 551.924 109.424C552.263 108.959 552.679 108.633 553.172 108.445C553.668 108.256 554.207 108.217 554.789 108.329C555.595 108.483 556.2 108.823 556.606 109.349C557.011 109.874 557.174 110.533 557.094 111.327L555.656 111.051C555.711 110.594 555.65 110.244 555.473 110.001C555.3 109.756 554.993 109.591 554.552 109.506C554.073 109.414 553.678 109.517 553.369 109.816C553.064 110.112 552.836 110.62 552.684 111.34L552.578 111.866C552.427 112.62 552.429 113.192 552.586 113.583C552.746 113.975 553.073 114.219 553.565 114.313C554.009 114.399 554.36 114.362 554.618 114.202C554.88 114.04 555.069 113.75 555.187 113.332L556.625 113.608ZM561.333 115.432L558.811 114.948L558.043 116.292L556.513 115.998L560.514 109.528L561.847 109.784L563.058 117.255L561.529 116.962L561.333 115.432ZM559.434 113.859L561.179 114.195L560.826 111.417L559.434 113.859ZM566.809 115.326L565.663 115.106L565.149 117.657L563.711 117.381L565.113 110.411L567.707 110.909C568.532 111.068 569.131 111.373 569.505 111.826C569.879 112.279 569.998 112.841 569.863 113.511C569.767 113.986 569.584 114.364 569.312 114.643C569.043 114.92 568.681 115.112 568.224 115.22L569.162 118.358L569.148 118.425L567.604 118.129L566.809 115.326ZM565.897 113.942L567.057 114.165C567.418 114.235 567.716 114.197 567.951 114.054C568.186 113.907 568.337 113.672 568.401 113.35C568.468 113.021 568.425 112.744 568.275 112.52C568.127 112.296 567.86 112.147 567.473 112.072L566.317 111.85L565.897 113.942ZM575.684 118.766C575.363 119.025 574.948 119.196 574.44 119.278C573.933 119.356 573.392 119.34 572.817 119.229C572.212 119.113 571.708 118.88 571.304 118.531C570.903 118.179 570.628 117.728 570.48 117.179C570.334 116.631 570.327 116.018 570.456 115.34L570.552 114.866C570.692 114.171 570.929 113.591 571.265 113.129C571.604 112.664 572.021 112.339 572.516 112.156C573.015 111.97 573.562 111.934 574.157 112.049C574.985 112.208 575.592 112.53 575.979 113.015C576.367 113.497 576.528 114.123 576.463 114.893L575.063 114.624C575.079 114.213 574.996 113.894 574.812 113.666C574.632 113.439 574.35 113.289 573.967 113.215C573.478 113.121 573.068 113.233 572.739 113.551C572.409 113.869 572.17 114.39 572.021 115.114L571.931 115.559C571.784 116.29 571.812 116.868 572.015 117.295C572.218 117.722 572.588 117.987 573.125 118.09C573.666 118.194 574.074 118.153 574.35 117.968L574.592 116.766L573.283 116.515L573.496 115.457L576.244 115.984L575.684 118.766ZM580.907 119.192L578.385 118.708L577.617 120.052L576.087 119.758L580.088 113.287L581.421 113.543L582.632 121.015L581.103 120.721L580.907 119.192ZM579.007 117.619L580.753 117.954L580.4 115.177L579.007 117.619ZM510.616 119.027C510.411 119.766 510.014 120.303 509.426 120.637C508.84 120.972 508.138 121.061 507.32 120.904C506.425 120.732 505.78 120.297 505.386 119.598C504.996 118.897 504.907 118.021 505.118 116.971L505.204 116.545C505.339 115.875 505.576 115.307 505.915 114.842C506.254 114.377 506.67 114.051 507.163 113.864C507.659 113.674 508.198 113.635 508.78 113.747C509.586 113.901 510.191 114.241 510.597 114.767C511.002 115.292 511.165 115.952 511.085 116.745L509.647 116.469C509.702 116.012 509.641 115.662 509.464 115.419C509.291 115.174 508.984 115.009 508.543 114.924C508.064 114.832 507.669 114.935 507.36 115.234C507.055 115.53 506.827 116.038 506.675 116.758L506.569 117.285C506.418 118.038 506.42 118.61 506.577 119.001C506.737 119.394 507.064 119.637 507.556 119.731C508 119.817 508.351 119.78 508.609 119.62C508.871 119.459 509.06 119.169 509.178 118.75L510.616 119.027ZM515.902 119.316L513.14 118.785L512.765 120.652L516.006 121.275L515.774 122.429L511.094 121.53L512.496 114.56L517.167 115.457L516.933 116.62L513.701 115.999L513.366 117.66L516.129 118.191L515.902 119.316ZM519.716 120.536L518.57 120.316L518.056 122.867L516.618 122.591L518.02 115.621L520.614 116.119C521.439 116.278 522.038 116.583 522.412 117.036C522.786 117.489 522.905 118.051 522.77 118.721C522.675 119.196 522.491 119.574 522.219 119.853C521.951 120.13 521.588 120.322 521.132 120.43L522.069 123.568L522.056 123.635L520.512 123.339L519.716 120.536ZM518.804 119.152L519.964 119.375C520.326 119.445 520.624 119.407 520.858 119.264C521.094 119.117 521.244 118.882 521.309 118.56C521.375 118.231 521.333 117.954 521.182 117.73C521.034 117.506 520.767 117.357 520.38 117.282L519.225 117.06L518.804 119.152ZM527.698 121.582L524.936 121.051L524.561 122.918L527.802 123.541L527.57 124.694L522.89 123.795L524.292 116.826L528.963 117.723L528.729 118.886L525.497 118.265L525.163 119.926L527.925 120.457L527.698 121.582ZM528.414 124.856L529.816 117.887L532.262 118.356C533.109 118.519 533.719 118.805 534.091 119.215C534.464 119.621 534.588 120.137 534.462 120.763C534.393 121.104 534.245 121.389 534.016 121.617C533.789 121.842 533.506 121.985 533.168 122.046C533.508 122.204 533.753 122.438 533.903 122.749C534.056 123.06 534.094 123.412 534.015 123.804C533.88 124.474 533.563 124.941 533.066 125.203C532.568 125.465 531.922 125.524 531.128 125.378L528.414 124.856ZM530.463 122.098L530.085 123.979L531.317 124.216C531.656 124.281 531.936 124.252 532.156 124.128C532.381 124.002 532.522 123.798 532.579 123.513C532.707 122.875 532.442 122.488 531.782 122.351L530.463 122.098ZM530.667 121.083L531.732 121.287C532.46 121.414 532.881 121.195 532.995 120.63C533.058 120.314 533.011 120.07 532.853 119.897C532.699 119.722 532.424 119.596 532.028 119.52L531.021 119.326L530.667 121.083ZM537.784 124.006L536.638 123.786L536.125 126.337L534.686 126.061L536.088 119.091L538.683 119.59C539.507 119.748 540.107 120.054 540.48 120.507C540.854 120.96 540.973 121.521 540.839 122.191C540.743 122.667 540.559 123.044 540.287 123.323C540.019 123.6 539.657 123.792 539.2 123.9L540.137 127.039L540.124 127.106L538.58 126.809L537.784 124.006ZM536.872 122.623L538.032 122.846C538.394 122.915 538.692 122.878 538.926 122.734C539.162 122.587 539.312 122.352 539.377 122.03C539.443 121.701 539.401 121.425 539.25 121.2C539.102 120.976 538.835 120.827 538.449 120.753L537.293 120.531L536.872 122.623ZM545.189 126.587L542.666 126.102L541.898 127.446L540.368 127.153L544.37 120.682L545.703 120.938L546.914 128.41L545.384 128.116L545.189 126.587ZM543.289 125.014L545.034 125.349L544.682 122.572L543.289 125.014ZM549.237 127.658L552.291 128.244L552.059 129.398L547.566 128.535L548.968 121.565L550.407 121.842L549.237 127.658Z" fill="#60347B"/>
</svg>
