<svg width="213" height="200" viewBox="0 0 213 200" fill="none" xmlns="http://www.w3.org/2000/svg">
<g clip-path="url(#clip0)">
<path opacity="0.24" d="M212.215 139.587C211.445 155.543 197.79 168.092 183.245 174.701C168.701 181.311 152.576 183.875 138.069 190.567C133.29 192.769 128.71 195.411 123.742 197.152C119.241 198.671 114.555 199.571 109.811 199.827C105.644 200.072 101.464 200.047 97.2999 199.753L96.1187 199.671C92.3488 199.396 88.5913 199 84.8462 198.481H84.8091C80.3273 197.847 75.866 197.016 71.4582 196.012H71.4294C59.5474 193.289 48.0041 189.258 37.011 183.99C27.3823 179.298 18.2092 173.724 9.60952 167.339C2.02042 161.77 0.789864 158.046 0.209569 148.485C-0.502424 136.55 0.345383 124.113 6.24299 113.458C11.1446 104.605 19.1494 97.6827 23.4625 88.5297C24.2401 86.8757 24.9002 85.169 25.438 83.4223C26.2074 80.8988 26.8056 78.3262 27.2283 75.722C28.8457 66.0998 28.7757 55.9673 31.7554 46.6044C35.6899 34.2577 44.8552 24.0264 55.7738 17.067C66.6924 10.1076 79.2819 6.18956 92.0073 3.73256C102.062 1.84205 112.24 0.682541 122.462 0.263142C124.888 0.153394 127.311 0.0765695 129.731 0.0326702C133.574 -0.0846133 137.422 0.0184447 141.254 0.341338C145.033 0.650928 148.756 1.44914 152.329 2.71602C163.248 6.75339 171.553 16.2315 176.171 26.9155C180.788 37.5996 182.068 49.4318 182.175 61.0747C182.249 69.5981 181.764 78.3601 184.612 86.3896C187.641 94.8923 194.077 101.617 199.675 108.741C206.692 117.66 212.746 128.241 212.215 139.587Z" fill="#A500FF"/>
<path d="M157.535 166.047C157.346 165.689 157.144 165.347 156.939 165.026C155.611 162.885 154.966 160.39 155.091 157.873C155.177 156.112 155.634 154.28 155.017 152.626C154.247 150.568 151.951 149.387 149.749 149.305C147.547 149.222 145.419 150.021 143.386 150.873C136.238 153.874 129.453 157.676 123.162 162.207C120.886 163.853 118.635 165.611 116.919 167.825C114.038 171.529 112.865 176.657 114.882 180.995C115.651 182.641 116.754 184.258 118.413 185.011C119.549 185.452 120.763 185.655 121.981 185.608C133.859 185.803 145.457 181.993 154.906 174.792C156.066 173.899 157.708 172.706 158.293 171.307C159.001 169.557 158.391 167.652 157.535 166.047Z" fill="#A500FF"/>
<path opacity="0.58" d="M157.535 166.047C157.346 165.689 157.144 165.347 156.939 165.026C155.611 162.885 154.966 160.39 155.091 157.873C155.177 156.112 155.634 154.28 155.017 152.626C154.247 150.568 151.951 149.387 149.749 149.305C147.547 149.222 145.419 150.021 143.386 150.873C136.238 153.874 129.453 157.676 123.162 162.207C120.886 163.853 118.635 165.611 116.919 167.825C114.038 171.529 112.865 176.657 114.882 180.995C115.651 182.641 116.754 184.258 118.413 185.011C119.549 185.452 120.763 185.655 121.981 185.608C133.859 185.803 145.457 181.993 154.906 174.792C156.066 173.899 157.708 172.706 158.293 171.307C159.001 169.557 158.391 167.652 157.535 166.047Z" fill="url(#paint0_linear)"/>
<path d="M158.836 117.882C161.777 120.171 164.606 122.596 167.322 125.159C168.772 126.596 170.294 127.959 171.882 129.241C172.961 130.064 174.109 130.805 175.208 131.604C176.15 132.287 177.056 133.015 177.936 133.777C179.875 135.443 181.723 137.295 182.875 139.576C184.027 141.856 184.414 144.642 183.385 146.984C183.154 147.558 182.79 148.07 182.324 148.477C181.208 149.387 179.595 149.301 178.179 149.025C171.006 147.708 164.672 143.675 158.544 139.711C156.795 138.584 154.976 137.386 153.967 135.567C153.353 134.326 152.975 132.982 152.852 131.604C152.247 127.166 152.313 122.662 153.05 118.245C153.28 116.858 153.404 115.364 155.046 115.701C156.441 115.989 157.729 117.022 158.836 117.882Z" fill="#A500FF"/>
<path d="M132.723 114.631C132.296 117.069 131.372 119.394 130.007 121.459C128.643 123.525 126.868 125.287 124.792 126.636C123.463 127.459 122.586 128.636 121.611 129.665C120.858 130.529 119.9 131.19 118.825 131.587C112.565 133.665 104.321 138.917 98.0615 140.995C89.4188 143.876 86.398 144.518 77.3067 145.065C76.2178 145.14 75.1245 145.009 74.0842 144.679C72.9072 144.267 71.9894 143.522 71.903 142.308C71.7548 140.049 74.6151 139.016 76.8417 138.579C96.2589 134.67 106.219 117.808 124.278 109.676C130.315 106.947 133.974 107.552 132.723 114.631Z" fill="#A500FF"/>
<path opacity="0.58" d="M124.554 120.24L121.619 129.665C120.866 130.529 119.908 131.19 118.833 131.587C112.573 133.665 104.33 138.917 98.0701 140.995C89.4274 143.876 86.4065 144.518 77.3153 145.065C76.2263 145.14 75.133 145.009 74.0928 144.678C74.0928 144.51 74.1298 144.333 74.1586 144.156C74.1586 144.156 92.6169 142.386 106.416 131.957C120.216 121.528 124.554 120.24 124.554 120.24Z" fill="url(#paint1_linear)"/>
<path d="M131.085 108.19C129.793 108.009 128.422 107.951 127.245 108.507C125.303 109.416 124.43 111.647 123.735 113.676L111.018 150.79C109.915 154.008 108.803 157.47 109.709 160.745C110.067 162.042 110.795 163.301 111.972 163.943C112.561 164.231 113.187 164.436 113.833 164.552C121.702 166.33 129.614 167.907 137.571 169.281C139.44 169.606 141.473 169.894 143.144 169.001C144.588 168.232 145.465 166.73 146.23 165.297C153.497 151.52 157.114 136.112 156.737 120.541C156.774 119.315 156.585 118.092 156.178 116.935C154.836 113.7 150.856 112.647 147.412 111.997C144.572 111.47 141.6 111.173 138.802 110.486C136.168 109.861 133.822 108.531 131.085 108.19Z" fill="#A500FF"/>
<path d="M64.3507 138.085C62.4329 138.04 60.3874 138.147 58.8029 139.23C57.2185 140.312 56.383 142.699 57.5683 144.218C58.5931 145.547 60.5315 145.633 62.2065 145.6L68.5198 145.489C70.0796 145.461 71.6929 145.419 73.1045 144.749C74.1664 144.242 75.1952 143.222 75.401 142.02C75.6521 140.575 74.331 140.205 73.158 139.703C70.3841 138.53 67.3469 138.155 64.3507 138.085Z" fill="#FDBAAC"/>
<path d="M159.816 92.9996C159.326 95.3455 158.289 97.5268 157.256 99.7039C155.862 102.642 154.468 105.58 153.074 108.515C152.103 110.573 151.136 112.598 149.984 114.541C149.154 115.971 148.189 117.319 147.103 118.566C146.107 119.677 144.925 120.702 143.489 121.125C142.656 121.366 141.775 121.391 140.93 121.198C140.084 121.005 139.301 120.6 138.655 120.021C138.009 119.443 137.52 118.71 137.235 117.891C136.949 117.072 136.877 116.194 137.024 115.339C137.34 113.553 138.6 111.952 138.505 110.141C138.498 109.813 138.421 109.49 138.279 109.194C137.987 108.746 137.616 108.354 137.184 108.038C136.346 107.28 135.698 106.337 135.291 105.283C134.885 104.23 134.731 103.095 134.842 101.972C135.018 100.765 135.377 99.5919 135.908 98.4939C136.863 96.3168 138.02 94.2343 139.127 92.1272C139.892 90.6538 141.407 88.5795 141.304 86.8633C141.242 85.8345 140.283 84.8796 140.752 83.8425C141.452 82.2909 144.288 81.9658 145.716 81.6695C147.74 81.2076 149.83 81.11 151.889 81.3814C154.803 81.8259 157.651 83.4063 159.079 85.9908C160.223 88.0939 160.314 90.6497 159.816 92.9996Z" fill="#FDBAAC"/>
<path d="M145.131 79.6979C143.213 79.6485 141.225 79.632 139.452 80.3687C138.629 80.7103 137.805 81.2865 137.608 82.1466C137.491 82.7651 137.601 83.4048 137.917 83.9493C138.663 85.2705 139.866 86.2742 141.3 86.7725C142.725 87.2569 144.212 87.5341 145.716 87.5957C145.706 88.0573 145.809 88.5142 146.016 88.9272C146.222 89.3402 146.526 89.6968 146.901 89.9662C147.656 90.498 148.534 90.8281 149.452 90.9251C150.597 91.0857 151.963 91.1597 152.564 92.1598C152.794 92.6086 152.906 93.1086 152.889 93.6126C152.967 96.1917 152.367 98.7462 151.148 101.021C152.23 101.136 153.185 99.786 154.202 100.16C154.901 100.432 155.025 101.457 154.613 102.07C154.371 102.357 154.071 102.59 153.733 102.754C153.395 102.918 153.026 103.009 152.65 103.021C152.363 103.022 152.081 103.093 151.827 103.227C151.632 103.387 151.481 103.593 151.387 103.827C150.55 105.537 149.96 107.356 149.634 109.231C149.507 109.701 149.536 110.199 149.716 110.651C150.127 111.429 151.259 111.495 152.058 111.124C153.206 110.585 153.938 109.478 154.597 108.375C156.967 104.445 161.363 103.083 161.877 98.5225C162.128 96.2795 161.025 91.7771 160.832 89.5341C160.536 86.0235 157.803 83.8916 154.988 81.9944C152.091 80.023 148.514 79.7843 145.131 79.6979Z" fill="#FC682D"/>
<path d="M158.589 96.3415C157.824 96.3826 157.182 96.9053 156.601 97.4115C155.825 98.0947 155.059 98.7943 154.305 99.5105C153.476 100.235 152.763 101.081 152.189 102.021C151.705 102.903 151.458 103.896 151.473 104.902C151.461 105.147 151.517 105.39 151.634 105.606C151.785 105.788 151.994 105.911 152.226 105.956C152.458 106 152.698 105.962 152.906 105.848C153.315 105.609 153.661 105.274 153.914 104.873C153.174 106.05 152.922 107.468 153.21 108.828C153.508 110.172 154.092 111.435 154.922 112.532C155.489 113.399 156.217 114.149 157.066 114.742C157.225 114.863 157.418 114.93 157.618 114.931C157.78 114.908 157.933 114.842 158.062 114.742C159.767 113.621 161.097 112.016 161.882 110.133C162.009 109.87 162.074 109.581 162.071 109.289C162.036 109.046 161.964 108.81 161.857 108.589C161.273 107.156 161.072 105.596 161.273 104.062C161.474 102.511 162.293 100.72 161.647 99.1894C161.141 98 160.067 96.255 158.589 96.3415Z" fill="#FDBAAC"/>
<path d="M187.34 147.239C184.937 149.383 178.233 151.379 173.327 145.658L173.154 145.452C167.191 138.407 163.841 129.476 159.606 121.245C158.404 118.915 157.198 116.355 157.667 113.771C158 112.291 158.829 110.969 160.017 110.026C160.99 109.171 162.222 108.67 163.515 108.602C165.795 108.556 167.656 111.252 169.039 112.795C170.928 114.919 172.648 117.174 174.348 119.45C177.677 123.907 180.933 128.505 185.077 132.237C187.155 134.106 189.567 135.917 190.378 138.596C191.308 141.699 189.74 145.09 187.34 147.239Z" fill="#A500FF"/>
<path opacity="0.58" d="M146.958 143.493C148.506 139.135 149.889 134.702 151.897 130.542C152.046 130.14 152.316 129.795 152.671 129.554C153.333 129.192 154.136 129.612 154.766 130.023C161.384 134.388 167.436 139.555 172.784 145.407C171.549 146.769 169.335 145.905 167.763 144.967L155.49 137.633C154.864 142.069 152.778 150.988 150.317 156.462C148.963 159.474 146.786 165.047 144.674 167.574C143.501 168.985 141.464 170.302 136.246 168.936C134.41 168.454 136.884 166.442 137.62 164.964C138.328 163.553 139.052 162.149 139.736 160.725C142.452 155.115 144.863 149.363 146.958 143.493Z" fill="url(#paint2_linear)"/>
<path opacity="0.58" d="M182.702 146.242L173.154 145.452C167.191 138.406 163.841 129.476 159.606 121.244C158.404 118.915 157.198 116.355 157.667 113.771C158 112.29 158.829 110.969 160.017 110.025C160.091 111.12 160.807 114.795 166.014 124.841C170.397 133.295 177.677 142.604 177.677 142.604L182.702 146.242Z" fill="url(#paint3_linear)"/>
<path d="M210.898 144.53H0.477539V149.345H210.898V144.53Z" fill="#A500FF"/>
<path opacity="0.58" d="M210.791 144.638H0.370605V146.938H210.791V144.638Z" fill="url(#paint4_linear)"/>
<path d="M140.678 117.43C140.403 117.654 140.081 117.814 139.736 117.899C139.408 118.006 139.06 118.032 138.72 117.974C138.38 117.917 138.059 117.777 137.785 117.569C137.511 117.36 137.292 117.087 137.146 116.775C137.001 116.462 136.933 116.119 136.95 115.775C136.95 115.631 136.983 115.483 137.007 115.339C137.324 113.553 138.584 111.952 138.489 110.141C138.482 109.813 138.405 109.49 138.263 109.194C140.187 110.198 142.392 110.528 144.526 110.133C147.901 109.404 141.563 116.549 140.678 117.43Z" fill="#FDBAAC"/>
<path d="M149.218 161.289C149.156 164.898 147.893 168.409 146.535 171.775C145.65 173.969 144.67 176.233 142.876 177.78C139.995 180.274 135.822 180.336 132.019 180.274C126.669 180.183 121.319 180.044 116.043 179.698C110.355 179.319 104.671 181.007 98.9876 181.007C94.5963 181.077 89.3531 180.262 86.7232 184.925C85.077 187.83 85.8425 194.312 84.8301 198.481H84.793C80.3125 197.845 75.8622 197.022 71.4421 196.012H71.4133C70.6272 192.25 70.5902 187.369 70.4132 184.715C70.1718 180.961 70.0058 177.202 69.9153 173.438C69.8659 171.549 69.8576 169.586 70.6355 167.861C72.4504 163.873 77.5291 162.816 81.8833 162.334C92.1722 161.17 103.091 158.84 113.429 158.803C125.364 158.766 137.324 159.495 149.206 160.252C149.247 160.589 149.247 160.943 149.218 161.289Z" fill="#3F3D56"/>
<path opacity="0.58" d="M149.218 161.289C149.156 164.898 147.893 168.409 146.535 171.776C145.65 173.969 144.67 176.233 142.876 177.78C139.995 180.274 135.822 180.336 132.019 180.274C126.669 180.184 121.319 180.044 116.043 179.698C110.355 179.319 104.671 181.007 98.9876 181.007C94.5963 181.077 89.3531 180.262 86.7232 184.925C85.077 187.871 85.859 194.366 84.793 198.473C80.3125 197.837 75.8622 197.014 71.4421 196.004C70.5696 192.378 70.5902 187.476 70.4132 184.703C70.1718 180.949 70.0058 177.19 69.9153 173.426C69.8659 171.537 69.8576 169.574 70.6355 167.849C72.4504 163.861 77.5291 162.804 81.8833 162.322C92.1722 161.157 103.091 158.828 113.429 158.791C125.364 158.754 137.324 159.482 149.206 160.24C149.247 160.589 149.247 160.943 149.218 161.289Z" fill="url(#paint5_linear)"/>
<path d="M143.193 177.138C140.538 179.332 137.147 180.43 133.789 181.229C127.607 182.707 121.256 183.363 114.903 183.18C113.483 183.138 111.82 183.18 110.98 184.316C110.655 184.838 110.449 185.425 110.375 186.036C109.685 189.827 109.452 193.688 109.68 197.535C109.68 197.658 109.738 198.613 109.795 199.827C105.626 200.072 101.446 200.047 97.2797 199.753L96.1026 199.671C95.8104 194.427 95.4647 188.102 95.2795 184.937C95.0902 181.566 94.9091 178.134 95.6911 174.846C96.473 171.557 98.3003 168.364 101.276 166.763C102.803 165.94 104.531 165.577 106.215 165.228C112.478 163.935 114.54 162.203 120.841 161.091L131.756 159.083C135.41 159.972 148.477 157.601 149.206 161.289C149.893 164.676 145.856 174.944 143.193 177.138Z" fill="#3F3D56"/>
<path d="M123.808 181.126C121.536 181.159 119.281 180.982 117.001 180.908C115.589 180.858 114.12 180.858 112.82 181.365C111.519 181.871 110.35 182.99 110.161 184.394C109.959 186.085 111.28 187.666 112.853 188.324C114.425 188.983 116.19 188.946 117.894 188.892L126.068 188.629C131.784 188.448 137.653 188.217 142.921 186.007C146.695 184.418 149.975 181.871 153.107 179.233C154.584 177.998 156.062 176.693 157.128 175.076C158.194 173.459 158.807 171.463 158.395 169.569C158.116 168.269 157.14 166.96 155.807 166.915C153.235 166.833 151.798 170.561 150.489 172.232C148.819 174.364 145.584 175.335 143.156 176.389C137.048 179.039 130.513 181.04 123.808 181.126Z" fill="#A500FF"/>
<path d="M109.659 37.2583L109.28 37.4517C109.352 37.3546 109.429 37.2612 109.511 37.1719C109.56 37.2007 109.61 37.2254 109.659 37.2583Z" fill="white"/>
<path d="M109.659 37.2583L109.28 37.4517C109.352 37.3546 109.429 37.2612 109.511 37.1719C109.56 37.2007 109.61 37.2254 109.659 37.2583Z" fill="white"/>
<path opacity="0.68" d="M127.846 43.5634C128.842 41.2435 129.108 38.6751 128.608 36.2002C128.108 33.7254 126.866 31.4616 125.047 29.7104C127.504 27.9915 129.465 25.6556 130.732 22.9379C132 20.2201 132.528 17.2165 132.265 14.2295C132.003 11.2424 130.957 8.37728 129.235 5.92263C127.513 3.46798 125.174 1.51043 122.455 0.24707C112.232 0.66647 102.054 1.82598 91.9994 3.71649C79.2865 6.18583 66.6764 10.0915 55.7578 17.0509C44.8392 24.0103 35.682 34.2663 31.7476 46.6048C28.7761 55.9471 28.8667 66.1002 27.2204 75.7224C26.7978 78.3265 26.1996 80.8991 25.4302 83.4226C26.7734 86.2444 28.7586 88.7125 31.2267 90.6295C33.6949 92.5465 36.5775 93.8591 39.6439 94.4623C42.7103 95.0655 45.8753 94.9425 48.8857 94.1032C51.896 93.2639 54.6681 91.7316 56.9801 89.6289C57.6399 93.8177 59.6123 97.6889 62.6132 100.685C65.614 103.681 69.4884 105.647 73.6782 106.3C77.8681 106.953 82.1571 106.26 85.9274 104.319C89.6977 102.378 92.7547 99.2911 94.6581 95.5018C98.1542 98.7871 102.714 100.708 107.507 100.914C112.3 101.12 117.008 99.5974 120.773 96.6241C124.538 93.6509 127.11 89.4243 128.021 84.7141C128.931 80.0038 128.12 75.1232 125.735 70.9607C128.141 70.3308 130.346 69.0949 132.14 67.3709C133.933 65.6468 135.254 63.4921 135.978 61.1122C136.192 60.415 136.35 59.7022 136.452 58.9803C136.914 55.8217 136.321 52.5988 134.765 49.8114C133.209 47.024 130.777 44.8278 127.846 43.5634V43.5634ZM106.964 30.657C107.017 30.6858 107.075 30.7146 107.124 30.7475L106.713 30.9615C106.789 30.8543 106.873 30.7526 106.964 30.657V30.657Z" fill="white"/>
<path opacity="0.68" d="M116.084 19.4089C116.158 19.306 116.24 19.2031 116.326 19.1043C116.383 19.1312 116.438 19.1614 116.491 19.1949L116.084 19.4089ZM145.975 45.3369C145.975 42.5018 145.145 39.7286 143.588 37.3592C142.031 34.9898 139.815 33.1277 137.213 32.0025C138.21 29.6859 138.477 27.1208 137.98 24.6483C137.483 22.1759 136.245 19.9134 134.431 18.1619C136.679 16.5868 138.514 14.4922 139.779 12.056C141.045 9.61985 141.703 6.91416 141.699 4.16895C141.698 2.87691 141.553 1.58898 141.267 0.329131C137.434 0.00623772 133.587 -0.0968203 129.743 0.0204631C127.32 0.0643625 124.898 0.141187 122.475 0.250935C112.253 0.670334 102.074 1.82984 92.0198 3.72036C79.3068 6.1897 66.6967 10.0954 55.7781 17.0548C44.8595 24.0142 35.6818 34.2661 31.7473 46.6045C28.7759 55.9469 28.8664 66.1 27.2202 75.7222C35.6612 79.9406 47.617 83.2866 52.8808 83.2866C57.863 83.2943 62.6673 81.4354 66.3469 78.0763C67.0042 82.2668 68.9754 86.1403 71.9762 89.1382C74.9771 92.1361 78.8525 94.1035 83.0436 94.7568C87.2347 95.4101 91.5251 94.7154 95.2959 92.773C99.0668 90.8306 102.123 87.7408 104.025 83.9492C107.403 87.1149 111.774 89.0124 116.394 89.3186C121.013 89.6249 125.596 88.3211 129.363 85.629C133.13 82.9369 135.847 79.0229 137.053 74.553C138.259 70.083 137.879 65.3333 135.978 61.1119C135.715 60.5296 135.422 59.9609 135.102 59.4081C135.558 59.2938 136.009 59.1565 136.451 58.9965C139.247 57.972 141.66 56.1128 143.363 53.671C145.067 51.2291 145.979 48.3225 145.975 45.3452V45.3369Z" fill="#FAFAFA"/>
<path d="M109.659 37.2583L109.28 37.4517C109.352 37.3546 109.429 37.2612 109.511 37.1719C109.56 37.2007 109.61 37.2254 109.659 37.2583Z" fill="white"/>
<path d="M47.5592 103.766H36.3154V144.427H47.5592V103.766Z" fill="#A500FF"/>
<path d="M22.7344 118.318H11.4907V144.428H22.7344V118.318Z" fill="#A500FF"/>
<path d="M35.2623 103.766H24.0186V144.427H35.2623V103.766Z" fill="#A500FF"/>
<path opacity="0.58" d="M47.5592 103.766H36.3154V144.427H47.5592V103.766Z" fill="url(#paint6_linear)"/>
<path opacity="0.58" d="M22.7344 118.318H11.4907V144.428H22.7344V118.318Z" fill="url(#paint7_linear)"/>
<path opacity="0.58" d="M35.2623 103.766H24.0186V144.427H35.2623V103.766Z" fill="url(#paint8_linear)"/>
<path opacity="0.58" d="M47.5268 120.294H36.2954V131.949H47.5268V120.294Z" fill="url(#paint9_linear)"/>
<path opacity="0.58" d="M35.2413 120.294H24.0552V131.949H35.2413V120.294Z" fill="url(#paint10_linear)"/>
<path opacity="0.58" d="M22.6641 120.343H11.478V131.999H22.6641V120.343Z" fill="url(#paint11_linear)"/>
<path d="M52.6749 137.151H6.46533V144.646H52.6749V137.151Z" fill="#A500FF"/>
<path opacity="0.68" d="M131.353 90.1101C132.732 90.1101 133.851 88.9916 133.851 87.6119C133.851 86.2322 132.732 85.1138 131.353 85.1138C129.973 85.1138 128.854 86.2322 128.854 87.6119C128.854 88.9916 129.973 90.1101 131.353 90.1101Z" fill="white"/>
<path opacity="0.68" d="M135.373 92.2461C136.169 92.2461 136.814 91.6012 136.814 90.8057C136.814 90.0101 136.169 89.3652 135.373 89.3652C134.578 89.3652 133.933 90.0101 133.933 90.8057C133.933 91.6012 134.578 92.2461 135.373 92.2461Z" fill="white"/>
<path d="M97.8279 49.0714C97.6177 51.6815 96.5095 54.1382 94.6921 56.0233C93.0598 57.6328 91.8987 59.658 91.3343 61.8797C91.1768 62.5599 91.0909 63.2615 90.9691 64.0276H80.9459C80.8743 63.5193 80.8242 63.0109 80.7239 62.5169C80.3019 60.3688 79.2819 58.3835 77.7814 56.7894C76.4549 55.4386 75.4108 53.8371 74.71 52.0784C74.1145 50.4235 73.8894 48.6581 74.0506 46.9067C74.2118 45.1553 74.7553 43.4606 75.6429 41.9422C76.5305 40.4238 77.7404 39.1186 79.1874 38.1188C80.6343 37.119 82.2831 36.4489 84.0173 36.1558C84.3395 36.1056 84.6545 36.0698 84.9623 36.0412C86.7044 35.8962 88.4571 36.1351 90.0967 36.7412C91.7363 37.3473 93.223 38.3058 94.4519 39.549C95.6808 40.7922 96.622 42.2899 97.209 43.9365C97.796 45.583 98.0146 47.3384 97.8494 49.0786L97.8279 49.0714Z" fill="white"/>
<path d="M96.8664 49.0713C96.6616 51.6813 95.5556 54.139 93.7377 56.0231C92.1034 57.6322 90.9399 59.6573 90.3728 61.8796C90.2153 62.5597 90.1365 63.2613 90.0076 64.0274H81.9532C81.8816 63.5191 81.8315 63.0108 81.7313 62.5168C81.3092 60.3686 80.2892 58.3833 78.7887 56.7892C77.4623 55.4384 76.4181 53.8369 75.7173 52.0783C75.1218 50.4233 74.8967 48.6579 75.0579 46.9065C75.2191 45.1551 75.7627 43.4604 76.6502 41.942C77.5378 40.4236 78.7477 39.1184 80.1947 38.1186C81.6417 37.1188 83.2904 36.4487 85.0246 36.1556C85.3468 36.1055 85.6618 36.0697 85.9697 36.041C87.546 36.1704 89.081 36.6116 90.4854 37.3391C91.8898 38.0665 93.1357 39.0657 94.1508 40.2786C95.1659 41.4916 95.93 42.894 96.3986 44.4047C96.8672 45.9153 97.0311 47.504 96.8807 49.0784L96.8664 49.0713Z" fill="url(#paint12_linear)"/>
<path d="M91.1984 64.0059H81.261C80.5414 64.0059 79.958 64.5892 79.958 65.3089V65.316C79.958 66.0357 80.5414 66.6191 81.261 66.6191H91.1984C91.918 66.6191 92.5014 66.0357 92.5014 65.316V65.3089C92.5014 64.5892 91.918 64.0059 91.1984 64.0059Z" fill="#A500FF"/>
<path d="M90.4393 66.1968H81.5615C80.917 66.1968 80.3945 66.7193 80.3945 67.3638C80.3945 68.0083 80.917 68.5308 81.5615 68.5308H90.4393C91.0838 68.5308 91.6063 68.0083 91.6063 67.3638C91.6063 66.7193 91.0838 66.1968 90.4393 66.1968Z" fill="#A500FF"/>
<path d="M89.8599 68.1084H82.1491C81.5916 68.1084 81.1396 68.5604 81.1396 69.1179V69.125C81.1396 69.6826 81.5916 70.1345 82.1491 70.1345H89.8599C90.4174 70.1345 90.8694 69.6826 90.8694 69.125V69.1179C90.8694 68.5604 90.4174 68.1084 89.8599 68.1084Z" fill="#A500FF"/>
<path d="M91.1984 64.0059H81.261C80.5414 64.0059 79.958 64.5892 79.958 65.3089V65.316C79.958 66.0357 80.5414 66.6191 81.261 66.6191H91.1984C91.918 66.6191 92.5014 66.0357 92.5014 65.316V65.3089C92.5014 64.5892 91.918 64.0059 91.1984 64.0059Z" fill="url(#paint13_linear)"/>
<path d="M90.4393 66.1968H81.5615C80.917 66.1968 80.3945 66.7193 80.3945 67.3638C80.3945 68.0083 80.917 68.5308 81.5615 68.5308H90.4393C91.0838 68.5308 91.6063 68.0083 91.6063 67.3638C91.6063 66.7193 91.0838 66.1968 90.4393 66.1968Z" fill="url(#paint14_linear)"/>
<path d="M89.8599 68.1084H82.1491C81.5916 68.1084 81.1396 68.5604 81.1396 69.1179V69.125C81.1396 69.6826 81.5916 70.1345 82.1491 70.1345H89.8599C90.4174 70.1345 90.8694 69.6826 90.8694 69.125V69.1179C90.8694 68.5604 90.4174 68.1084 89.8599 68.1084Z" fill="url(#paint15_linear)"/>
<path d="M83.4733 63.9704C83.3964 62.139 83.1568 60.3181 82.7574 58.5292C82.4514 57.0441 82.2291 55.543 82.0915 54.033C81.934 51.7491 82.3851 50.1526 83.4733 49.1502C83.6615 48.9503 83.916 48.8256 84.1893 48.7994C84.3364 48.7981 84.4824 48.8259 84.6188 48.8812C84.7552 48.9365 84.8793 49.0182 84.984 49.1216C85.0198 49.0786 85.0484 49.0357 85.0842 48.9999C85.2686 48.7663 85.5175 48.592 85.8002 48.4987C85.9435 48.4571 86.0939 48.4458 86.2418 48.4655C86.3897 48.4852 86.5319 48.5355 86.6593 48.6133C86.8437 48.7211 87.0025 48.8676 87.1247 49.0428C87.2749 48.9466 87.4428 48.8813 87.6186 48.8505C87.7944 48.8198 87.9745 48.8243 88.1485 48.8639C88.8 49.0285 89.251 49.6442 89.4443 50.6394C89.9097 53.0307 89.4014 55.4434 88.9074 57.7989C88.3888 59.7644 88.1644 61.7959 88.2415 63.8272L87.5256 63.8916C87.4394 61.7907 87.6686 59.6886 88.2057 57.6557C88.7069 55.2859 89.1794 53.0521 88.7427 50.8041C88.6639 50.4031 88.4635 49.7087 87.9767 49.587C87.802 49.5553 87.6218 49.5939 87.4755 49.6944C87.5258 49.82 87.5665 49.9492 87.5972 50.081C87.7677 50.7841 87.8518 51.5053 87.8478 52.2288C87.8543 52.3423 87.8366 52.4559 87.7959 52.5621C87.7551 52.6682 87.6923 52.7645 87.6115 52.8445C87.538 52.9107 87.4482 52.9562 87.3514 52.9764C87.2545 52.9965 87.154 52.9905 87.0602 52.9591C86.9003 52.8891 86.7596 52.7816 86.65 52.6458C86.5403 52.51 86.4649 52.3498 86.4302 52.1787C86.2063 51.5121 86.1642 50.7979 86.3085 50.1096C86.3687 49.9008 86.4656 49.7044 86.5949 49.5297C86.5194 49.4074 86.4164 49.3045 86.2942 49.229C86.2512 49.2013 86.2027 49.1831 86.1521 49.1757C86.1014 49.1683 86.0498 49.1718 86.0006 49.186C85.8539 49.2407 85.7267 49.3379 85.6355 49.4653C85.5782 49.5297 85.5353 49.5941 85.4851 49.6586C86.0751 50.4593 86.3317 51.4576 86.2011 52.4436C86.1295 52.9376 85.8359 53.4101 85.3205 53.4101C85.1427 53.3909 84.9743 53.3204 84.8357 53.2073C84.6972 53.0942 84.5945 52.9433 84.5401 52.7729C84.3255 52.2942 84.2187 51.7741 84.2274 51.2495C84.2361 50.725 84.3599 50.2087 84.5902 49.7373H84.5544C84.3826 49.5726 84.2752 49.5368 84.2322 49.544C84.1336 49.5722 84.0445 49.6266 83.9745 49.7015C83.0652 50.5392 82.6786 51.9925 82.8218 53.9972C82.9597 55.4779 83.1772 56.9501 83.4733 58.4074C83.878 60.239 84.1177 62.1031 84.1893 63.9775L83.4733 63.9704ZM85.1057 50.3674C84.8756 51.0467 84.9088 51.7876 85.1988 52.4436C85.2334 52.5288 85.2873 52.6047 85.3563 52.6655C85.44 52.5696 85.4903 52.4489 85.4995 52.3219C85.5743 51.6536 85.4338 50.9789 85.0985 50.396L85.1057 50.3674ZM86.9457 50.4389C86.8952 50.9579 86.9513 51.4817 87.1103 51.9782V51.9782C87.1 51.4704 87.0425 50.9647 86.9385 50.4676L86.9457 50.4389Z" fill="#A500FF"/>
</g>
<defs>
<linearGradient id="paint0_linear" x1="154.082" y1="154.268" x2="120.055" y2="186.048" gradientUnits="userSpaceOnUse">
<stop offset="0.01"/>
<stop offset="0.13" stop-opacity="0.69"/>
<stop offset="1" stop-opacity="0"/>
</linearGradient>
<linearGradient id="paint1_linear" x1="13436.7" y1="9261.68" x2="12973" y2="7554.92" gradientUnits="userSpaceOnUse">
<stop offset="0.01"/>
<stop offset="0.13" stop-opacity="0.69"/>
<stop offset="1" stop-opacity="0"/>
</linearGradient>
<linearGradient id="paint2_linear" x1="15958" y1="19292.8" x2="11276.1" y2="11290.2" gradientUnits="userSpaceOnUse">
<stop offset="0.01"/>
<stop offset="0.13" stop-opacity="0.69"/>
<stop offset="1" stop-opacity="0"/>
</linearGradient>
<linearGradient id="paint3_linear" x1="9828.44" y1="12433.9" x2="11410" y2="11900.1" gradientUnits="userSpaceOnUse">
<stop offset="0.01"/>
<stop offset="0.13" stop-opacity="0.69"/>
<stop offset="1" stop-opacity="0"/>
</linearGradient>
<linearGradient id="paint4_linear" x1="54360.4" y1="903.334" x2="54360.3" y2="1075.58" gradientUnits="userSpaceOnUse">
<stop offset="0.01"/>
<stop offset="0.13" stop-opacity="0.69"/>
<stop offset="1" stop-opacity="0"/>
</linearGradient>
<linearGradient id="paint5_linear" x1="22217.4" y1="17929.9" x2="13862.1" y2="8890.39" gradientUnits="userSpaceOnUse">
<stop offset="0.01"/>
<stop offset="0.13" stop-opacity="0.69"/>
<stop offset="1" stop-opacity="0"/>
</linearGradient>
<linearGradient id="paint6_linear" x1="875.659" y1="12380" x2="2075.7" y2="12375.2" gradientUnits="userSpaceOnUse">
<stop offset="0.01"/>
<stop offset="0.13" stop-opacity="0.69"/>
<stop offset="1" stop-opacity="0"/>
</linearGradient>
<linearGradient id="paint7_linear" x1="60.9631" y1="8428.08" x2="1718.47" y2="8446.05" gradientUnits="userSpaceOnUse">
<stop offset="0.01"/>
<stop offset="0.13" stop-opacity="0.69"/>
<stop offset="1" stop-opacity="0"/>
</linearGradient>
<linearGradient id="paint8_linear" x1="544.828" y1="12361.7" x2="2083.99" y2="12362.7" gradientUnits="userSpaceOnUse">
<stop offset="0.01"/>
<stop offset="0.13" stop-opacity="0.69"/>
<stop offset="1" stop-opacity="0"/>
</linearGradient>
<linearGradient id="paint9_linear" x1="1178.3" y1="3376.66" x2="1184.35" y2="4375.75" gradientUnits="userSpaceOnUse">
<stop offset="0.01"/>
<stop offset="0.13" stop-opacity="0.69"/>
<stop offset="1" stop-opacity="0"/>
</linearGradient>
<linearGradient id="paint10_linear" x1="828.112" y1="3376.78" x2="834.306" y2="4375.63" gradientUnits="userSpaceOnUse">
<stop offset="0.01"/>
<stop offset="0.13" stop-opacity="0.69"/>
<stop offset="1" stop-opacity="0"/>
</linearGradient>
<linearGradient id="paint11_linear" x1="473.688" y1="3378.23" x2="479.882" y2="4377.2" gradientUnits="userSpaceOnUse">
<stop offset="0.01"/>
<stop offset="0.13" stop-opacity="0.69"/>
<stop offset="1" stop-opacity="0"/>
</linearGradient>
<linearGradient id="paint12_linear" x1="120.707" y1="73.2345" x2="66.9541" y2="38.017" gradientUnits="userSpaceOnUse">
<stop offset="0.01"/>
<stop offset="0.13" stop-opacity="0.69"/>
<stop offset="0.25" stop-opacity="0.32"/>
<stop offset="1" stop-opacity="0"/>
</linearGradient>
<linearGradient id="paint13_linear" x1="3123.74" y1="252.287" x2="3123.71" y2="288.245" gradientUnits="userSpaceOnUse">
<stop offset="0.01"/>
<stop offset="0.13" stop-opacity="0.69"/>
<stop offset="0.25" stop-opacity="0.32"/>
<stop offset="1" stop-opacity="0"/>
</linearGradient>
<linearGradient id="paint14_linear" x1="2801.82" y1="242.203" x2="2801.39" y2="275" gradientUnits="userSpaceOnUse">
<stop offset="0.01"/>
<stop offset="0.13" stop-opacity="0.69"/>
<stop offset="0.25" stop-opacity="0.32"/>
<stop offset="1" stop-opacity="0"/>
</linearGradient>
<linearGradient id="paint15_linear" x1="2440.99" y1="228.598" x2="2440.79" y2="251.37" gradientUnits="userSpaceOnUse">
<stop offset="0.01"/>
<stop offset="0.13" stop-opacity="0.69"/>
<stop offset="0.25" stop-opacity="0.32"/>
<stop offset="1" stop-opacity="0"/>
</linearGradient>
<clipPath id="clip0">
<rect width="212.236" height="200" fill="white"/>
</clipPath>
</defs>
</svg>
