<svg width="363" height="260" viewBox="0 0 363 260" fill="none" xmlns="http://www.w3.org/2000/svg">
<path d="M80.6299 28.2482C68.2156 41.3251 60.4846 57.5838 49.7853 71.8679C41.8697 82.5415 32.2126 92.0981 24.1651 102.727C8.12272 123.893 -1.56074 149.697 0.207089 175.479C1.97491 201.26 16.0384 226.714 39.4818 240.829C53.8751 249.506 70.9069 253.624 87.8463 256.298C144.878 265.324 206.264 258.374 254.998 229.591C263.362 224.649 271.37 219.076 280.447 215.33C303.758 205.694 333.996 207.928 350.896 190.237C361.068 179.586 363.31 164.354 362.967 150.149C362.558 133.089 358.653 115.172 346.503 102.377C330.672 85.5992 304.814 81.1086 283.415 70.7847C262.558 60.7768 245.737 45.0372 227.821 30.9787C184.72 -2.85868 122.715 -16.0822 80.6299 28.2482Z" fill="#EDCBFF"/>
<path d="M68.5043 155.191C62.2739 153.24 57.1649 149.778 53.2397 144.366C50.6852 140.842 49.5637 137.129 49.3768 132.976C49.2522 130.081 48.8784 127.312 48.0684 124.417C46.3239 118.187 47.57 111.831 48.7537 105.601C49.0653 103.839 49.0653 102.58 47.9438 101.007C44.8286 96.7276 44.7039 91.6931 46.3239 86.9733C53.4266 66.5207 66.1368 52.3612 88.4418 49.2146C89.5633 49.0258 90.3733 48.7112 91.1832 47.7672C95.42 42.6698 101.027 39.4603 106.884 36.7543C107.632 36.4396 108.317 36.3767 109.065 36.4396C113.301 36.8802 117.351 35.9991 121.276 34.3629C128.005 31.594 134.61 28.4474 141.899 27.2517C149.937 27.2517 157.974 27.2517 166.011 27.2517C167.693 28.2586 169.563 27.881 171.307 27.944C187.756 28.3215 202.833 33.8595 217.911 39.6491C223.207 41.6629 228.752 42.9215 233.799 45.6276C233.176 46.2569 232.366 46.0052 231.68 46.0052C227.194 46.0052 222.771 46.0052 218.285 46.0052C218.596 45.25 218.534 44.8095 217.662 44.4948C207.568 40.719 197.6 36.3138 186.946 34.4258C174.422 32.1603 161.712 31.7198 149.002 31.8457C142.148 31.9086 135.606 33.0414 129.314 35.9991C124.018 38.5164 118.597 40.719 112.678 41.2224C110.872 41.3483 108.94 40.5931 107.258 41.5371C102.398 44.4319 97.1022 46.8233 93.987 51.9836C93.3016 53.1164 92.4293 53.5569 91.1209 53.6198C86.9465 53.8086 82.8967 54.8784 78.9092 56.2629C68.7536 59.85 61.6508 67.0241 56.4795 76.275C53.9873 80.7431 50.9967 84.9595 50.3114 90.1827C49.8129 93.8957 49.8752 97.4198 53.4266 99.8741C54.8596 100.818 54.735 102.14 54.4235 103.713C53.2397 109.251 51.6198 114.789 51.9313 120.578C52.0559 122.215 52.4297 123.599 53.6135 124.606C54.735 125.55 54.7973 126.62 54.6104 128.004C53.4266 138.325 57.4764 145.499 66.8844 149.716C74.1118 152.925 81.7752 153.303 89.501 153.24C90.1864 153.24 90.6225 152.988 90.8717 152.359C92.5539 147.765 95.1084 143.611 98.0991 139.647C96.6037 139.143 95.233 138.891 94.0493 138.325C91.9932 137.318 90.311 137.759 88.5041 138.954C85.3889 141.094 82.0868 142.856 78.66 144.429C75.9186 145.688 72.1803 144.429 71.0588 141.912C70.8096 141.409 70.4981 140.842 70.9965 140.276C71.4327 139.709 72.0557 139.772 72.6164 140.024C73.2395 140.276 73.8625 140.591 74.361 141.031C75.9186 142.416 77.5385 142.101 79.283 141.409C82.1491 140.339 83.8936 137.822 86.1989 136.059C87.6319 134.99 87.1334 134.423 85.825 133.857C81.526 132.158 77.0401 131.717 72.5541 132.032C70.685 132.158 68.6289 132.095 67.7567 134.486C67.5698 134.99 66.8844 135.304 66.2614 135.053C65.4514 134.738 65.1399 134.172 65.0776 133.291C64.8907 130.962 66.5729 128.885 69.1897 128.256C71.9311 127.627 74.6725 128.067 77.3516 128.634C78.7846 128.885 79.283 128.571 79.2207 127.06C79.2207 124.795 79.8438 122.718 81.1522 120.704C83.769 116.614 84.7659 112.712 80.4045 107.363C79.9061 106.734 79.47 105.978 80.2176 105.349C80.9653 104.72 81.9621 104.657 82.6475 105.538C85.5135 109.188 87.1957 113.216 86.012 117.998C85.5758 119.697 85.0151 121.397 84.392 123.033C82.6475 127.753 83.1459 129.452 87.7565 131.591C91.3079 133.228 95.1084 134.423 98.7221 135.997C100.217 136.626 101.339 136.5 102.523 135.304C104.828 133.102 107.32 131.151 110.248 129.766C112.803 128.508 115.233 126.997 117.85 125.55C112.803 122.466 108.442 119.005 105.389 114.097C103.146 110.447 99.8436 109.44 95.9807 109.691C94.8592 109.754 93.8 109.817 93.4885 108.622C93.1147 107.3 94.1739 106.671 95.2331 106.293C96.6038 105.79 98.0368 105.978 99.4698 106.167C104.205 106.734 107.507 109.503 110.186 113.216C112.99 117.117 116.541 120.138 120.653 122.466C121.837 123.159 123.083 123.662 124.454 123.159C132.99 120.264 141.899 119.257 150.747 118.187C152.491 117.998 152.616 117.18 152.366 115.859C151.806 112.586 150.248 109.88 147.881 107.552C147.008 106.734 146.385 105.79 147.257 104.657C148.067 103.65 149.127 103.839 150.248 104.405C153.799 106.23 155.606 109.188 156.105 113.216C156.79 118.691 155.918 117.872 161.089 116.866C170.684 114.978 175.232 110.069 176.79 100.315C177.974 92.7 176.478 85.4 174.048 78.1629C173.176 75.5827 173.862 74.45 176.541 74.3241C180.279 74.1353 182.833 72.3733 184.391 68.975C185.575 66.5207 186.136 63.8776 186.26 61.1715C186.323 60.1017 186.26 58.969 186.883 57.9621C190.31 52.3612 194.983 48.3965 201.463 46.8862C204.889 46.0681 208.316 46.5715 211.743 46.5086C209.438 48.0819 207.132 49.5922 204.827 51.1655C203.892 51.2914 203.02 51.3543 202.086 51.5431C196.291 52.8017 191.307 58.4655 190.435 64.0034C189.375 70.6112 187.07 76.4638 179.843 78.5405C178.41 78.9181 179.22 79.8621 179.407 80.5543C180.528 85.1483 181.4 89.7422 181.525 94.525C181.65 100.189 180.653 105.538 178.036 110.887C185.824 110.698 193.238 111.328 200.466 113.216C201.712 113.53 202.086 112.649 202.646 111.957C204.765 109.566 206.821 107.111 208.939 104.72C209.811 103.713 210.808 103.209 211.93 104.279C213.114 105.412 212.49 106.419 211.681 107.363C209.998 109.188 208.254 111.076 206.447 112.775C205.076 114.097 205.139 114.663 206.945 115.355C213.923 118.061 219.842 122.341 224.889 127.878C226.821 130.018 227.007 130.144 228.627 127.69C231.68 123.159 232.677 117.935 233.176 112.649C233.3 111.391 233.176 109.817 234.858 109.754C236.54 109.628 236.602 111.265 236.914 112.46C236.976 112.838 237.039 113.278 237.039 113.719C236.789 120.201 234.796 126.116 230.808 131.277C229.998 132.347 228.503 133.039 229.562 134.927C230.559 136.815 232.116 136.185 233.487 136.185C234.11 136.185 234.796 135.997 235.419 135.808C241.088 134.234 245.2 130.836 248.69 126.053C251.431 122.278 251.306 118.565 249.873 114.663C248.939 112.083 249.126 111.265 251.867 110.321C254.048 109.566 256.291 109.062 258.471 109.125C261.213 109.188 261.711 107.992 261.462 105.664C261.337 104.342 261.587 102.769 263.518 102.832C265.2 102.895 265.325 104.216 265.325 105.601C265.387 109.125 265.387 109.125 269.063 109.377C269.624 109.44 270.247 109.44 270.808 109.503C275.917 110.321 276.041 110.321 275.73 105.034C275.481 99.7483 274.546 94.7138 269.375 91.819C268.876 91.5043 268.44 91.0638 268.315 90.4345C267.63 87.3509 265.948 84.7077 264.39 82.0017C266.197 82.0017 268.066 82.0017 269.873 82.0017C271.368 86.344 274.11 89.7422 277.412 92.8888C279.468 94.8396 279.904 97.7974 280.34 100.503C280.839 103.524 280.901 106.545 280.652 109.628C280.59 110.635 280.714 111.328 281.649 111.957C290.309 117.872 293.424 126.683 293.86 136.752C294.172 144.555 292.427 152.107 290.994 159.784C289.374 168.343 285.138 175.14 279.094 180.992C275.294 184.642 270.995 187.726 266.633 190.684C264.39 192.257 261.649 192.634 258.97 192.634C256.914 192.634 256.166 193.075 256.228 195.466C256.478 201.571 254.92 207.297 250.746 211.828C245.387 217.744 238.472 221.205 230.683 222.967C226.011 224.037 221.275 224.541 216.54 224.729C216.042 222.527 215.481 220.261 214.983 218.059C228.877 214.031 237.973 204.654 244.266 191.691C242.272 191.25 240.465 190.935 238.721 190.495C237.412 190.18 236.789 190.558 236.229 191.816C234.546 195.592 231.867 198.613 228.627 201.067C221.649 206.291 213.487 208.367 205.076 209.5C202.023 208.871 198.97 208.745 195.917 208.745C189.064 208.808 182.273 208.745 175.419 208.682C174.858 207.36 174.298 206.102 173.675 204.78C173.425 204.151 173.176 203.584 172.304 203.584C169.563 203.647 166.821 203.584 164.08 203.584C165.7 205.472 167.195 206.857 168.316 208.619C166.011 208.493 163.644 209.185 161.401 208.178C158.472 205.284 155.108 202.955 151.743 200.69C147.943 198.172 145.451 194.711 144.578 190.18C144.267 188.67 143.831 188.229 142.148 188.607C138.223 189.488 134.236 189.425 130.186 189.236C131.931 187.726 133.737 186.153 135.482 184.642C139.282 184.705 142.958 183.824 146.572 183.006C165.014 179.041 183.519 175.832 202.459 176.713C210.185 177.091 217.662 178.664 224.951 181.37C235.792 185.46 246.945 188.292 258.721 187.915C261.898 187.789 264.577 186.845 266.882 184.579C267.443 184.076 267.755 183.635 267.63 182.88C267.132 178.286 265.574 174.259 261.026 172.308C258.721 171.301 258.098 169.728 258.222 167.336C258.534 162.176 257.038 157.456 254.297 152.799C253.798 153.743 253.425 154.372 253.051 155.002C252.365 156.197 251.493 157.204 250.247 157.834C249.126 158.4 247.88 158.463 247.007 157.456C246.073 156.386 246.447 155.253 247.381 154.309C248.004 153.68 248.627 152.988 249.188 152.233C250.746 150.345 251.119 147.513 249.811 146.254C247.817 144.241 245.823 142.164 243.767 140.213C242.895 139.395 242.272 138.199 240.59 138.703C238.97 139.206 238.596 140.276 238.285 141.786C236.602 150.156 228.503 156.386 221.089 155.191C219.905 155.002 218.098 154.876 218.223 153.366C218.347 151.792 220.092 152.422 221.151 152.359C227.007 151.918 231.618 149.653 234.11 143.989C235.543 140.779 235.481 140.716 232.116 140.779C229.749 140.779 227.194 140.779 226.011 138.199C224.017 133.857 220.902 130.522 217.537 127.375C213.799 123.914 209.5 121.208 204.453 119.383C204.827 120.956 205.201 122.278 205.45 123.536C205.575 124.291 205.45 125.109 204.453 125.298C203.581 125.487 203.332 124.732 203.082 124.166C202.833 123.536 202.584 122.907 202.273 122.278C200.777 118.879 198.472 116.677 194.547 116.425C191.868 116.236 189.251 115.544 186.572 115.481C180.59 115.355 174.36 113.782 169.251 118.691C168.877 119.068 168.192 119.194 167.693 119.446C163.394 121.271 158.846 121.837 154.298 122.278C152.553 122.403 151.619 123.096 150.747 124.48C149.563 126.368 148.441 128.445 146.385 129.641C145.451 130.207 144.454 130.396 143.581 129.515C142.647 128.634 143.083 127.69 143.644 126.809C144.329 125.802 145.201 124.858 145.264 123.284C132.74 124.669 120.965 127.564 110.248 134.549C102.46 139.647 97.3514 146.569 94.3608 155.316C86.3858 155.316 78.4108 155.379 70.4358 155.379C69.9373 155.568 69.1897 155.316 68.5043 155.191ZM289.374 142.29C288.44 142.353 288.128 143.045 287.63 143.422C285.761 144.933 283.642 145.94 281.275 146.254C279.966 146.443 278.409 146.254 277.91 144.681C277.474 143.234 278.533 142.227 279.717 142.101C283.705 141.723 285.636 138.64 287.879 135.997C288.814 134.864 289.063 133.605 288.814 132.221C288.066 128.004 286.695 124.04 284.079 120.641C282.459 118.565 280.839 116.173 278.284 115.607C271.119 114.097 263.83 112.838 256.415 113.971C254.982 114.159 254.733 114.663 254.982 116.173C255.917 120.893 255.107 125.361 252.365 129.452C251.119 131.277 249.811 132.976 247.88 134.109C245.699 135.43 246.135 136.5 247.817 137.759C248.939 138.577 250.06 139.521 250.995 140.528C257.724 147.891 262.521 156.26 263.02 166.581C263.144 169.224 264.453 169.791 266.633 168.28C268.191 167.147 269.624 165.763 270.683 164.19C272.054 162.176 273.362 160.099 274.671 158.022C275.294 157.078 275.917 157.078 276.789 157.708C277.537 158.274 277.723 158.589 277.038 159.659C274.608 163.623 272.116 167.525 268.565 170.546C268.004 171.049 267.568 171.364 268.253 172.119C270.309 174.51 271.306 177.405 271.867 180.363C286.259 171.616 287.443 156.827 289.374 142.29ZM189.5 207.738C200.653 207.927 211.494 206.291 221.712 201.634C226.696 199.368 230.746 195.907 233.736 191.25C234.546 189.991 234.484 189.362 232.926 188.984C230.683 188.418 228.44 187.663 226.198 186.971C225.45 186.719 224.827 186.404 224.204 187.222C222.833 188.984 220.839 189.928 219.095 191.187C212.989 195.592 206.135 198.047 198.783 199.242C192.304 200.312 185.824 200.312 179.282 199.683C177.849 199.557 177.288 199.872 177.475 201.445C177.974 205.598 180.154 207.675 184.266 207.801C185.949 207.801 187.756 207.738 189.5 207.738ZM221.836 185.46C217.537 183.761 213.363 182.817 209.064 182.188C208.191 182.062 207.631 182.377 207.07 182.943C204.64 185.146 201.836 186.53 198.846 187.663C192.117 190.18 185.139 191.376 178.098 192.131C176.167 192.32 176.291 193.39 176.354 194.711C176.416 196.033 176.291 197.291 178.223 197.228C180.715 197.166 183.27 197.354 185.762 197.291C198.783 196.977 211.369 195.089 221.836 185.46ZM221.774 219.254C222.085 219.443 222.272 219.758 222.459 219.758C229.624 218.877 236.665 217.366 242.646 212.961C248.814 208.43 252.428 202.515 251.867 194.522C251.805 193.956 251.867 193.201 251.556 192.823C250.496 191.565 246.447 192.383 245.761 193.956C240.652 205.158 233.425 214.346 221.774 219.254ZM165.637 198.991C166.946 198.991 168.316 199.116 169.625 198.928C170.435 198.802 172.055 199.368 171.868 197.732C171.743 196.222 172.678 194.208 170.622 193.264C167.32 191.753 165.513 188.859 163.768 185.901C163.207 184.894 162.771 184.642 161.65 184.894C157.912 185.712 154.111 186.404 150.373 187.097C149.127 187.348 148.69 187.852 149.002 189.173C149.937 193.138 152.055 196.033 155.731 197.732C158.908 199.179 162.273 198.865 165.637 198.991ZM204.079 181.622C192.117 180.866 180.902 181.936 169.687 183.572C168.441 183.761 168.441 184.328 168.94 185.272C170.248 187.915 172.242 189.488 175.232 189.362C178.721 189.236 182.21 189.11 185.699 188.481C191.992 187.348 198.285 185.964 204.079 181.622Z" fill="#60347B"/>
<path d="M218.16 46.0052C215.917 46.194 213.736 46.3828 211.493 46.5716C208.067 46.6345 204.64 46.1311 201.213 46.9492C194.733 48.4595 190.061 52.4242 186.634 58.025C186.011 59.0319 186.073 60.1018 186.011 61.2345C185.886 63.9406 185.325 66.5837 184.142 69.038C182.584 72.3733 179.967 74.1983 176.291 74.3871C173.612 74.513 172.927 75.6457 173.799 78.2259C176.229 85.4 177.724 92.7 176.54 100.378C174.983 110.132 170.435 115.041 160.84 116.928C155.668 117.935 156.541 118.816 155.855 113.278C155.357 109.251 153.612 106.293 149.999 104.468C148.939 103.902 147.818 103.713 147.008 104.72C146.136 105.79 146.759 106.734 147.631 107.615C149.999 109.88 151.556 112.586 152.117 115.922C152.366 117.243 152.179 118.061 150.497 118.25C141.65 119.257 132.74 120.327 124.205 123.222C122.834 123.725 121.588 123.222 120.404 122.529C116.229 120.201 112.74 117.117 109.937 113.278C107.258 109.566 103.955 106.734 99.2203 106.23C97.7873 106.041 96.3543 105.853 94.9836 106.356C93.9244 106.734 92.8652 107.426 93.2391 108.685C93.5506 109.817 94.6098 109.817 95.7313 109.754C99.5942 109.503 102.896 110.447 105.139 114.16C108.13 119.068 112.554 122.529 117.6 125.613C115.046 127.06 112.554 128.508 109.999 129.829C107.133 131.277 104.579 133.165 102.273 135.367C101.089 136.5 99.968 136.689 98.4727 136.06C94.859 134.549 91.0584 133.353 87.507 131.654C82.8965 129.515 82.3981 127.816 84.1426 123.096C84.7656 121.46 85.3264 119.76 85.7625 118.061C86.9463 113.278 85.2641 109.251 82.3981 105.601C81.7127 104.72 80.7158 104.783 79.9682 105.412C79.2205 106.041 79.6566 106.797 80.1551 107.426C84.5164 112.775 83.5195 116.677 80.9027 120.767C79.5943 122.781 78.9713 124.858 78.9713 127.123C78.9713 128.697 78.5352 129.011 77.1022 128.697C74.4231 128.193 71.6816 127.69 68.9402 128.319C66.3857 128.885 64.7035 130.962 64.8281 133.353C64.8904 134.235 65.202 134.801 66.0119 135.116C66.6973 135.367 67.3203 135.053 67.5072 134.549C68.3795 132.221 70.4979 132.221 72.3047 132.095C76.8529 131.78 81.3389 132.221 85.5756 133.92C86.884 134.423 87.3824 134.99 85.9494 136.122C83.6441 137.885 81.8996 140.402 79.0336 141.472C77.2891 142.164 75.6691 142.478 74.1115 141.094C73.6131 140.653 72.99 140.339 72.367 140.087C71.8063 139.898 71.2455 139.772 70.7471 140.339C70.2486 140.905 70.5602 141.472 70.8094 141.975C71.9309 144.492 75.6692 145.751 78.4106 144.492C81.8373 142.919 85.1395 141.157 88.2547 139.017C90.0615 137.759 91.7438 137.381 93.7998 138.388C94.9836 138.954 96.3543 139.206 97.8496 139.71C94.859 143.737 92.3045 147.828 90.6223 152.422C90.373 153.051 89.9369 153.303 89.2516 153.303C81.5258 153.366 73.8623 152.988 66.635 149.778C57.227 145.562 53.1772 138.451 54.3609 128.067C54.4856 126.683 54.4856 125.676 53.3641 124.669C52.1803 123.662 51.8065 122.278 51.6818 120.641C51.3703 114.852 52.9279 109.314 54.174 103.776C54.4856 102.203 54.6102 100.881 53.1772 99.9371C49.6258 97.5457 49.5012 93.9587 50.0619 90.2457C50.8096 85.0225 53.7379 80.7432 56.2301 76.338C61.4014 67.0871 68.5041 59.913 78.6598 56.3259C82.585 54.9414 86.6348 53.8716 90.8715 53.6828C92.1799 53.6199 93.0522 53.1794 93.7375 52.0466C96.915 46.8863 102.149 44.4949 107.008 41.6C108.691 40.5932 110.622 41.4113 112.429 41.2854C118.41 40.8449 123.831 38.5794 129.064 36.0621C135.357 33.1044 141.899 31.9716 148.753 31.9087C161.463 31.7828 174.173 32.2233 186.696 34.4888C197.35 36.3768 207.257 40.7819 217.412 44.5578C218.409 44.8725 218.534 45.313 218.16 46.0052ZM134.236 77.7854C130.746 74.9535 126.572 73.9466 121.775 74.7647C119.781 75.0794 118.971 74.7647 118.597 72.5621C117.725 67.15 114.983 64.5699 109.937 63.9406C108.878 63.8147 107.569 63.563 107.258 65.0104C106.946 66.5837 108.317 66.8354 109.314 66.8983C113.737 67.15 114.734 70.3595 115.544 73.8837C115.856 75.3311 115.42 76.0233 114.049 76.4638C111.307 77.4078 108.317 78.1 106.074 79.925C104.08 81.5613 102.46 81.1207 100.653 79.8621C98.2234 78.2259 96.4166 76.0863 94.6721 73.7578C94.049 72.8768 93.3014 71.744 92.0553 72.688C90.9338 73.569 91.6191 74.7018 92.2422 75.6457C92.7406 76.338 93.3014 76.9673 93.8621 77.5966C95.9805 79.8621 98.4727 81.75 101.214 83.2604C102.522 83.9526 102.585 84.6449 101.837 85.7776C99.0334 90.1199 95.9182 93.8328 89.9992 92.8259C88.94 92.6371 87.8186 93.2035 87.6316 94.588C87.507 95.8466 88.317 96.413 89.3762 96.6647C93.7998 97.7975 97.6627 96.7906 100.903 93.5811C102.273 92.1966 103.706 90.7492 104.392 88.9871C106.51 83.7638 110.996 81.6871 115.669 79.7363C120.404 77.7225 125.139 77.9742 129.75 80.0509C132.366 81.1837 134.049 83.0716 134.422 86.1552C134.796 89.7423 135.482 93.3294 135.855 96.9164C136.042 98.6785 136.79 100.063 138.472 100.063C140.404 100.063 139.843 98.175 139.968 96.9164C139.968 96.8535 139.968 96.7276 139.968 96.6647C139.345 88.169 138.721 79.6733 138.036 71.1776C137.849 68.5345 137.912 65.9544 138.908 63.4371C139.718 61.4233 141.089 60.2276 143.394 61.0457C143.768 61.1716 144.204 61.2975 144.64 61.2975C145.637 61.2975 146.572 61.0457 146.821 59.9759C147.008 59.0949 146.323 58.4026 145.575 57.9621C142.273 56.0742 137.102 57.2699 134.983 60.5423C131.93 55.1931 127.008 55.3819 121.899 55.9483C120.84 56.0742 119.905 56.5776 119.905 57.8363C119.905 59.0949 120.965 59.5354 121.962 59.6613C123.021 59.85 124.142 59.7242 125.201 59.7871C129.75 59.9759 134.049 62.9966 134.236 66.3949C134.36 70.0449 134.236 73.7578 134.236 77.7854ZM183.02 41.4742C185.076 41.5371 186.758 42.4182 188.254 43.9285C189.126 44.8095 190.31 44.8095 191.182 43.8656C192.054 42.8587 191.618 41.8518 190.684 40.9707C186.447 36.9432 179.406 36.188 175.045 39.9009C172.864 41.7259 171.307 41.3483 169.313 40.0897C165.076 37.3837 160.466 35.8104 155.419 35.4957C153.986 35.4328 152.615 35.4957 152.553 37.3837C152.553 39.0199 153.55 39.4604 155.045 39.4604C158.721 39.5233 162.086 40.6561 165.45 42.0406C167.07 42.7328 168.628 43.9914 169.126 45.6906C170.248 49.9699 171.431 54.5638 169.562 58.7802C166.821 65.0104 162.833 70.5483 158.347 75.7087C157.475 76.7156 156.728 77.5966 157.911 78.6664C159.157 79.8621 160.217 79.1699 161.089 78.0371C162.148 76.6526 163.083 75.0794 164.266 73.7578C170.123 67.0871 174.36 59.7871 173.55 50.3475C172.989 43.7397 177.911 42.1664 183.02 41.4742ZM109.75 51.1026C103.955 51.5431 98.8465 53.9345 95.8559 59.7242C95.2951 60.794 94.5475 61.3604 93.426 61.675C88.2547 62.9337 83.9557 65.7656 80.0928 69.2897C78.4729 70.7371 77.6006 72.8768 77.1645 75.0794C77.0399 75.7716 77.1022 76.4638 77.7875 76.8414C78.5352 77.219 79.0336 76.7156 79.4697 76.1492C80.7158 74.6388 81.9619 73.0026 83.3326 71.5552C87.0709 67.6535 90.9961 64.1294 97.0397 65.4509C98.6596 65.8285 99.2203 64.444 98.9088 63.2483C98.4727 61.675 99.2826 60.8569 100.155 59.9759C103.395 56.7035 106.884 53.9345 111.744 53.6828C112.616 53.6199 113.301 53.3682 113.239 52.4242C113.239 51.4802 112.491 51.1656 111.681 51.1026C111.183 51.1026 110.684 51.1026 109.75 51.1026ZM165.45 91.1268C166.509 91.1268 167.382 90.875 167.755 89.8682C168.192 88.7354 167.631 87.8544 166.634 87.3509C164.578 86.344 162.397 85.9035 160.092 86.5957C158.098 87.1621 156.541 89.6794 155.045 89.4276C153.363 89.113 152.927 86.0294 151.12 84.8337C149.874 84.0156 148.503 82.694 147.133 84.2044C146.011 85.463 147.382 86.6587 148.13 87.7285C149.812 90.0569 152.055 92.0078 152.491 95.2802C152.74 96.9794 154.36 96.7276 155.481 95.7837C156.167 95.2173 156.541 94.2733 157.039 93.5181C158.971 90.3716 160.84 89.6794 164.391 90.875C164.703 90.938 165.076 91.0009 165.45 91.1268ZM68.6287 83.5121C62.149 83.575 58.9092 87.288 59.9684 93.4552C60.2799 95.1544 60.5914 96.6647 59.6568 98.238C59.1584 99.119 59.7191 100.063 60.4668 100.692C60.9652 101.133 61.9621 101.636 62.2113 101.007C62.8967 98.9931 64.5789 97.6087 65.4512 95.6578C65.7004 95.0914 65.1397 94.588 64.7658 94.1475C62.0867 90.938 62.959 88.3578 67.0088 87.4138C67.7565 87.225 68.5041 87.225 69.2518 87.1621C70.6225 87.0363 72.4916 87.288 72.4293 85.2742C72.367 83.3233 70.4979 83.638 69.0649 83.575C68.9402 83.4492 68.8156 83.4492 68.6287 83.5121ZM125.077 105.727C125.887 100.252 124.329 95.1544 120.466 90.6863C119.532 89.6164 118.722 88.2949 117.289 89.4276C115.918 90.4975 116.977 91.6932 117.787 92.7C120.653 96.413 122.086 100.629 121.899 105.412C121.837 107.489 121.899 109.628 121.962 111.705C122.024 112.775 122.585 113.467 123.706 113.467C124.828 113.467 125.014 112.523 125.077 111.705C125.077 109.817 125.077 107.992 125.077 105.727ZM72.0555 101.888C71.8063 101.951 71.3078 102.077 70.8717 102.266C62.7721 105.097 58.8469 112.838 61.4014 121.082C61.8375 122.403 62.0244 124.669 63.9559 124.04C65.825 123.41 64.5789 121.585 64.2051 120.264C62.5852 114.348 64.0182 110.132 69.0025 106.608C70.2486 105.727 71.6193 105.097 72.9277 104.405C73.5508 104.028 74.0492 103.65 73.8 102.832C73.6754 102.077 73.0524 101.825 72.0555 101.888Z" fill="#8C43AA"/>
<path d="M135.606 184.831C139.282 180.174 139.968 174.825 138.846 169.161C137.475 161.987 129.687 155.568 122.273 155.568C113.052 155.568 103.831 155.505 94.6099 155.505C97.6005 146.758 102.709 139.835 110.498 134.738C121.214 127.753 132.99 124.858 145.513 123.473C145.45 125.047 144.578 125.991 143.893 126.998C143.332 127.942 142.896 128.823 143.831 129.704C144.703 130.522 145.7 130.333 146.634 129.829C148.69 128.634 149.75 126.557 150.996 124.669C151.868 123.285 152.865 122.592 154.547 122.467C159.095 122.089 163.706 121.523 167.942 119.635C168.503 119.383 169.126 119.257 169.5 118.879C174.547 113.971 180.84 115.544 186.821 115.67C189.5 115.733 192.117 116.488 194.796 116.614C198.721 116.866 201.026 119.068 202.522 122.467C202.771 123.096 203.02 123.725 203.332 124.354C203.581 124.984 203.83 125.676 204.702 125.487C205.637 125.298 205.824 124.48 205.699 123.725C205.45 122.404 205.076 121.145 204.702 119.572C209.749 121.397 213.986 124.04 217.786 127.564C221.151 130.71 224.266 134.046 226.26 138.388C227.443 140.968 229.936 140.968 232.366 140.968C235.792 140.968 235.792 140.968 234.359 144.178C231.867 149.904 227.257 152.17 221.4 152.548C220.341 152.61 218.596 151.981 218.472 153.554C218.409 155.065 220.154 155.191 221.338 155.379C228.752 156.575 236.851 150.345 238.534 141.975C238.845 140.402 239.219 139.395 240.839 138.892C242.459 138.388 243.144 139.584 244.016 140.402C246.073 142.353 248.066 144.367 250.06 146.443C251.306 147.702 250.995 150.534 249.437 152.422C248.876 153.114 248.253 153.806 247.63 154.498C246.696 155.442 246.322 156.575 247.256 157.645C248.129 158.715 249.312 158.652 250.496 158.023C251.742 157.393 252.552 156.323 253.3 155.191C253.674 154.561 253.985 153.869 254.546 152.988C257.287 157.645 258.783 162.365 258.471 167.525C258.347 169.917 258.97 171.49 261.275 172.497C265.823 174.448 267.318 178.475 267.879 183.069C267.941 183.824 267.63 184.265 267.132 184.768C264.826 186.971 262.147 187.978 258.97 188.104C247.256 188.481 236.104 185.649 225.2 181.559C217.911 178.853 210.434 177.279 202.708 176.902C183.768 176.021 165.263 179.167 146.821 183.195C143.083 184.013 139.407 184.894 135.606 184.831ZM173.924 141.409C173.238 141.409 172.055 141.472 170.871 141.409C170.061 141.346 169.126 141.849 168.566 140.905C168.005 139.835 168.877 139.206 169.438 138.514C171.743 135.304 173.612 131.969 173.425 127.816C173.363 126.62 173.675 124.984 171.992 124.795C170.435 124.606 169.936 126.117 169.625 127.312C168.939 129.641 168.005 131.906 166.946 134.109C166.073 135.934 164.827 137.57 162.958 138.01C160.653 138.577 160.528 139.71 161.4 141.409C162.086 142.73 161.65 143.423 160.466 143.926C159.843 144.178 159.282 144.618 158.659 144.807C152.304 147.135 145.949 148.205 139.718 144.367C137.912 143.234 136.292 143.8 135.544 145.814C135.17 146.821 134.672 147.387 133.8 147.765C130.061 149.275 126.634 149.716 123.395 146.38C121.401 144.367 119.158 142.542 116.292 141.786C114.61 141.346 112.554 140.905 111.931 142.793C111.308 144.744 113.301 145.562 114.797 146.317C114.859 146.38 114.983 146.38 115.046 146.38C118.348 147.135 121.463 148.772 123.893 150.974C126.946 153.869 129.999 153.743 133.488 152.61C133.986 152.485 134.485 152.422 134.983 152.296C139.158 151.226 139.968 151.855 140.217 156.323C140.217 156.575 140.092 156.827 140.155 157.079C140.341 158.211 141.027 158.967 142.148 159.029C143.457 159.092 143.768 157.96 143.831 156.953C143.893 155.757 143.457 154.624 142.958 153.554C142.024 151.541 142.398 150.848 144.765 150.848C151.619 150.723 158.534 150.723 164.64 146.758C165.637 146.129 166.572 146.38 166.883 147.702C167.257 149.086 167.631 150.471 167.942 151.855C168.254 153.24 169.189 153.617 170.372 153.429C171.556 153.303 171.805 152.296 171.618 151.289C171.432 150.156 171.245 148.898 170.746 147.891C169.687 145.625 170.559 145.248 172.678 145.373C179.282 145.814 185.824 146.884 192.117 148.772C198.347 150.597 203.207 148.646 207.755 144.618C208.378 144.052 208.814 143.548 208.752 142.73C208.69 142.038 208.503 141.346 207.817 141.031C206.758 140.528 205.886 141.094 205.076 141.723C201.836 144.241 198.472 145.688 194.173 144.304C187.693 142.353 181.151 141.283 173.924 141.409ZM201.774 164.127C205.263 164.19 208.627 165.385 211.618 167.525C212.864 168.406 213.986 169.413 214.235 171.049C214.422 172.245 214.983 173.252 216.353 173.126C217.537 173.063 218.534 172.245 218.596 171.112C218.845 168.154 220.901 167.462 223.207 166.896C228.004 165.7 234.92 169.35 235.792 173.629C235.979 174.51 235.855 175.643 237.101 175.769C238.409 175.895 238.97 174.888 239.468 173.881C240.091 172.623 239.78 171.427 239.094 170.294C237.848 168.154 236.104 166.392 234.11 165.008C232.552 163.938 232.989 163.309 234.11 162.428C234.484 162.113 234.858 161.735 235.294 161.547C236.478 160.917 236.976 159.973 236.789 158.652C236.665 157.897 236.415 157.33 235.668 157.142C234.235 156.89 233.549 157.897 232.926 158.904C231.556 161.043 229.499 162.176 227.132 162.554C224.017 162.994 220.59 161.735 217.724 163.246C213.923 165.197 212.116 161.106 209.126 160.854C208.877 160.854 208.627 160.666 208.441 160.603C207.07 160.351 206.883 159.596 207.444 158.4C207.693 157.897 207.88 157.33 208.004 156.764C208.191 155.82 208.441 154.75 207.381 154.31C206.26 153.869 205.512 154.75 205.138 155.757C204.889 156.323 204.702 156.827 204.515 157.393C204.017 158.967 203.145 159.785 201.275 159.848C198.721 159.973 196.166 160.603 193.612 161.043C191.556 161.421 189.5 161.861 187.506 162.302C185.512 162.679 184.204 161.358 182.771 160.477C181.525 159.722 182.709 158.841 182.771 158.023C182.833 156.386 181.899 155.757 180.466 155.568C178.347 155.317 176.852 156.386 175.419 157.834C171.805 161.61 167.569 164.127 162.21 164.064C160.715 164.064 159.407 164.001 159.594 161.798C159.781 159.785 158.223 159.155 156.728 159.91C152.366 162.113 147.569 163.12 143.332 165.511C142.211 166.141 141.214 166.896 140.528 167.966C139.345 169.665 140.03 171.112 142.086 171.301C144.08 171.49 145.637 170.672 147.195 169.602C149.625 167.966 152.242 166.896 155.17 167.21C157.164 167.399 159.158 167.84 161.151 167.903C165.824 167.966 170.808 168.28 174.671 165.385C177.413 163.372 179.531 163.623 181.961 165.071C184.827 166.77 187.755 166.833 190.871 166.078C194.297 165.26 197.849 164.316 201.774 164.127Z" fill="#AC3FE0"/>
<path d="M250.621 82.1277C255.231 82.1277 259.842 82.1277 264.452 82.1277C266.01 84.8337 267.755 87.4139 268.378 90.5605C268.502 91.1898 268.876 91.6303 269.437 91.9449C274.608 94.8398 275.543 99.8743 275.792 105.16C276.041 110.447 275.979 110.447 270.87 109.629C270.309 109.566 269.686 109.503 269.125 109.503C265.449 109.251 265.449 109.314 265.387 105.727C265.387 104.405 265.262 103.021 263.58 102.958C261.649 102.895 261.462 104.405 261.524 105.79C261.711 108.118 261.213 109.314 258.533 109.251C256.353 109.188 254.048 109.692 251.929 110.447C249.25 111.391 249.001 112.209 249.935 114.789C251.368 118.691 251.493 122.467 248.752 126.179C245.325 130.962 241.15 134.423 235.481 135.934C234.858 136.123 234.172 136.311 233.549 136.311C232.116 136.248 230.621 136.878 229.624 135.053C228.627 133.165 230.123 132.473 230.87 131.403C234.858 126.242 236.851 120.327 237.101 113.845C237.101 113.404 237.101 113.027 236.976 112.586C236.727 111.391 236.602 109.817 234.92 109.88C233.238 110.006 233.362 111.579 233.238 112.775C232.739 118.124 231.742 123.285 228.69 127.816C227.07 130.27 226.883 130.144 224.951 128.004C219.967 122.404 213.986 118.187 207.008 115.481C205.138 114.789 205.076 114.223 206.509 112.901C208.316 111.202 210.06 109.314 211.743 107.489C212.615 106.545 213.176 105.538 211.992 104.405C210.87 103.335 209.874 103.839 209.001 104.846C206.883 107.237 204.827 109.691 202.708 112.083C202.148 112.712 201.774 113.656 200.528 113.341C193.3 111.454 185.949 110.824 178.098 111.013C180.715 105.664 181.712 100.315 181.587 94.651C181.463 89.8682 180.653 85.2743 179.469 80.6803C179.282 79.9881 178.472 79.0441 179.905 78.6665C187.132 76.5898 189.438 70.6743 190.497 64.1294C191.307 58.4656 196.291 52.8019 201.836 51.6691C202.708 51.4803 203.643 51.4174 204.578 51.2915C204.453 52.7389 203.332 53.6829 202.708 54.8156C199.905 60.3536 199.718 65.9544 201.961 71.6812C202.272 72.5622 202.646 73.3803 202.522 74.3872C201.275 76.5269 200.092 78.7294 200.466 81.3096C201.026 85.7148 198.846 88.5467 195.357 90.4975C193.737 91.3786 193.924 92.4484 194.733 93.5812C195.668 94.9656 197.662 94.8398 199.033 93.2665C199.78 92.3855 200.341 91.3156 201.089 90.3717C203.207 87.6656 205.886 85.9036 209.313 86.7217C212.428 87.4139 214.048 89.9941 215.045 92.8889C215.792 95.1544 216.104 97.4829 216.042 99.8743C215.979 101.322 216.478 102.454 218.035 102.58C219.531 102.706 220.278 101.573 220.528 100.252C220.715 99.1191 220.715 97.8605 220.341 96.7277C219.905 95.1544 220.278 94.0217 221.836 93.2036C223.83 92.1967 225.263 90.4975 226.26 88.4837C226.509 87.9803 226.696 87.4139 227.381 87.2881C229.188 86.9734 232.989 88.6096 233.985 90.1829C235.668 92.826 237.412 95.4062 238.409 98.3639C238.845 99.7484 239.468 100.755 241.088 100.189C242.646 99.6855 243.02 98.3639 242.646 96.9165C242.272 95.4691 241.774 94.0217 241.213 92.5743C238.658 85.7148 232.989 82.0648 225.761 82.4424C223.954 82.5682 222.334 83.1346 222.085 85.2113C221.836 87.1622 220.652 88.4208 219.095 88.8613C217.662 89.2389 217.039 87.351 216.291 86.3441C213.986 83.3234 211.182 81.2467 207.319 80.995C204.702 80.8062 204.64 80.7432 205.512 77.9113C208.441 78.9182 210.746 81.1208 213.923 81.5613C215.107 81.7501 216.229 81.9389 217.35 81.9389C226.135 81.9389 234.92 81.9389 243.705 81.9389C246.135 85.2113 249.312 87.8544 251.618 91.2527C252.178 92.0708 252.988 92.8889 254.11 92.1967C255.231 91.5044 255.107 90.4975 254.733 89.3018C253.985 86.6587 252.178 84.4562 250.621 82.1277Z" fill="#8C43AA"/>
<path d="M289.374 142.29C287.443 156.827 286.259 171.616 271.991 180.552C271.431 177.594 270.372 174.699 268.378 172.308C267.692 171.553 268.191 171.175 268.689 170.735C272.241 167.651 274.733 163.812 277.163 159.847C277.848 158.778 277.661 158.526 276.914 157.897C276.104 157.267 275.418 157.267 274.795 158.211C273.487 160.288 272.178 162.365 270.808 164.379C269.686 165.952 268.316 167.336 266.758 168.469C264.64 169.979 263.269 169.413 263.144 166.77C262.646 156.449 257.848 148.079 251.119 140.716C250.185 139.647 249.063 138.766 247.942 137.947C246.26 136.689 245.761 135.556 248.004 134.297C249.873 133.165 251.244 131.466 252.49 129.641C255.232 125.55 255.979 121.082 255.107 116.362C254.795 114.915 255.107 114.411 256.54 114.16C263.954 113.027 271.244 114.285 278.409 115.796C280.963 116.362 282.646 118.754 284.203 120.83C286.82 124.229 288.191 128.193 288.938 132.41C289.188 133.794 288.938 135.053 288.004 136.185C285.761 138.891 283.829 141.912 279.842 142.29C278.72 142.416 277.599 143.422 278.035 144.87C278.533 146.443 280.091 146.632 281.4 146.443C283.767 146.129 285.885 145.122 287.755 143.611C288.128 143.045 288.44 142.353 289.374 142.29ZM270.87 121.334C270.87 118.879 269.873 117.243 268.502 117.621C266.322 118.187 266.82 119.886 267.069 121.522C267.381 123.599 265.886 125.613 263.393 126.62C262.334 127.06 261.15 127.249 260.154 127.879C258.409 128.885 258.534 130.459 260.341 131.277C261.649 131.843 262.833 132.598 263.705 133.794C264.764 135.241 265.823 136.626 266.945 138.01C267.568 138.829 268.378 139.395 269.312 138.891C270.309 138.325 270.496 137.381 270.122 136.248C269.499 134.235 268.44 132.535 266.883 131.214C265.699 130.207 265.512 129.641 267.007 128.634C269.499 126.935 270.932 124.48 270.87 121.334ZM267.568 146.884C267.381 146.947 266.945 147.01 266.571 147.135C263.082 148.709 261.649 154.435 263.954 157.456C264.515 158.148 265.2 158.337 265.948 158.085C266.696 157.771 266.883 157.079 266.633 156.386C265.512 153.491 265.886 151.163 268.876 149.59C269.437 149.275 269.935 148.709 269.686 147.891C269.375 147.01 268.627 146.884 267.568 146.884Z" fill="#8C43AA"/>
<path d="M189.5 207.738C187.756 207.738 186.011 207.801 184.266 207.738C180.217 207.612 178.036 205.535 177.475 201.382C177.288 199.872 177.849 199.494 179.282 199.62C185.762 200.312 192.304 200.249 198.783 199.179C206.135 197.984 212.989 195.529 219.095 191.124C220.839 189.865 222.895 188.921 224.204 187.159C224.827 186.341 225.512 186.719 226.197 186.908C228.44 187.6 230.621 188.355 232.926 188.921C234.484 189.299 234.546 189.928 233.736 191.187C230.746 195.844 226.634 199.305 221.712 201.571C211.431 206.29 200.653 207.927 189.5 207.738Z" fill="#A500FF"/>
<path d="M221.836 185.46C211.369 195.089 198.784 196.977 185.7 197.228C183.207 197.291 180.653 197.103 178.161 197.166C176.229 197.228 176.354 195.97 176.292 194.648C176.229 193.327 176.105 192.257 178.036 192.068C185.077 191.313 192.055 190.054 198.784 187.6C201.774 186.467 204.64 185.083 207.008 182.88C207.569 182.377 208.129 181.999 209.002 182.125C213.363 182.817 217.537 183.761 221.836 185.46Z" fill="#A500FF"/>
<path d="M215.107 218.185C212.74 214.22 209.437 211.388 205.201 209.563C213.612 208.367 221.774 206.354 228.752 201.13C231.992 198.676 234.733 195.718 236.353 191.879C236.914 190.684 237.537 190.243 238.845 190.558C240.59 190.998 242.397 191.313 244.39 191.753C238.035 204.717 229.001 214.157 215.107 218.185Z" fill="#A500FF"/>
<path d="M221.774 219.254C233.425 214.283 240.652 205.158 245.699 193.956C246.384 192.383 250.434 191.565 251.493 192.823C251.805 193.201 251.742 193.956 251.805 194.522C252.366 202.515 248.69 208.43 242.584 212.961C236.602 217.366 229.562 218.877 222.397 219.758C222.272 219.758 222.023 219.506 221.774 219.254Z" fill="#A500FF"/>
<path d="M165.637 198.991C162.335 198.802 158.971 199.179 155.793 197.732C152.055 196.033 149.937 193.138 149.064 189.173C148.753 187.852 149.251 187.348 150.435 187.097C154.236 186.404 157.974 185.712 161.712 184.894C162.834 184.642 163.27 184.957 163.831 185.901C165.575 188.859 167.382 191.754 170.684 193.264C172.74 194.208 171.806 196.222 171.93 197.732C172.117 199.368 170.497 198.802 169.687 198.928C168.317 199.179 166.946 198.991 165.637 198.991Z" fill="#A500FF"/>
<path d="M204.079 181.622C198.285 185.964 191.992 187.348 185.699 188.481C182.273 189.11 178.721 189.236 175.232 189.362C172.179 189.488 170.248 187.915 168.939 185.272C168.441 184.328 168.441 183.698 169.687 183.573C180.902 181.936 192.117 180.866 204.079 181.622Z" fill="#A500FF"/>
<path d="M175.544 208.808C173.176 208.808 170.808 208.808 168.441 208.808C167.319 207.046 165.824 205.598 164.204 203.773C166.946 203.773 169.687 203.773 172.428 203.773C173.301 203.773 173.55 204.34 173.799 204.969C174.36 206.165 174.921 207.486 175.544 208.808Z" fill="#A500FF"/>
<path d="M205.637 77.9741C204.702 80.7431 204.827 80.8689 207.444 81.0577C211.307 81.3094 214.11 83.3862 216.416 86.4068C217.163 87.4137 217.786 89.3017 219.219 88.9241C220.715 88.4836 221.961 87.2249 222.21 85.2741C222.459 83.2603 224.017 82.631 225.886 82.5051C233.113 82.0646 238.783 85.7775 241.337 92.637C241.836 94.0844 242.397 95.4689 242.77 96.9793C243.144 98.4267 242.833 99.7482 241.213 100.252C239.655 100.755 239.032 99.8112 238.534 98.4267C237.537 95.4689 235.792 92.8258 234.11 90.2456C233.051 88.6724 229.25 87.0362 227.506 87.3508C226.758 87.4767 226.633 88.0431 226.384 88.5465C225.387 90.5603 223.954 92.1965 221.961 93.2663C220.403 94.0844 220.029 95.2172 220.465 96.7905C220.777 97.9232 220.839 99.1189 220.652 100.315C220.403 101.699 219.655 102.769 218.16 102.643C216.602 102.517 216.166 101.384 216.166 99.937C216.229 97.5456 215.917 95.2172 215.169 92.9517C214.173 90.0568 212.553 87.4767 209.437 86.7844C205.948 85.9663 203.269 87.7284 201.213 90.4344C200.466 91.3784 199.905 92.4482 199.157 93.3293C197.786 94.9025 195.855 95.0284 194.858 93.6439C194.048 92.4482 193.861 91.4413 195.481 90.5603C199.033 88.6094 201.151 85.7775 200.59 81.3724C200.279 78.7922 201.462 76.5896 202.646 74.45C204.266 74.9534 205.076 76.4008 205.637 77.9741Z" fill="#60347B"/>
<path d="M250.621 82.1276C252.179 84.519 253.985 86.7215 254.92 89.4905C255.294 90.6233 255.418 91.6302 254.297 92.3853C253.113 93.1405 252.303 92.2595 251.805 91.4414C249.5 88.0431 246.322 85.4 243.892 82.1276C246.135 82.0646 248.378 82.1276 250.621 82.1276Z" fill="#60347B"/>
<path d="M134.236 77.7853C134.236 73.6948 134.36 70.0448 134.173 66.3318C133.986 62.9336 129.75 59.9758 125.139 59.7241C124.08 59.6612 122.958 59.787 121.899 59.5982C120.902 59.4094 119.843 59.0318 119.843 57.7732C119.843 56.5146 120.778 56.0112 121.837 55.8853C126.884 55.3189 131.806 55.1301 134.921 60.4793C137.039 57.2068 142.211 56.0112 145.513 57.8991C146.26 58.3396 146.946 59.0318 146.759 59.9129C146.51 60.9827 145.575 61.2344 144.578 61.2344C144.142 61.2344 143.768 61.1086 143.332 60.9827C140.964 60.1646 139.656 61.2974 138.846 63.3741C137.849 65.8284 137.787 68.4715 137.974 71.1146C138.659 79.6103 139.22 88.106 139.905 96.6017C139.905 96.6646 139.905 96.7905 139.905 96.8534C139.781 98.112 140.404 100 138.41 100C136.79 100 135.98 98.6155 135.793 96.8534C135.419 93.2663 134.734 89.6793 134.36 86.0922C134.049 83.0086 132.304 81.1836 129.687 79.9879C125.014 77.9112 120.342 77.6594 115.606 79.6732C110.996 81.6241 106.448 83.7008 104.329 88.9241C103.644 90.6862 102.211 92.1965 100.84 93.5181C97.6004 96.7275 93.7375 97.7344 89.3138 96.6017C88.2547 96.35 87.4447 95.7206 87.5693 94.525C87.6939 93.1405 88.8777 92.5741 89.9369 92.7629C95.8558 93.7069 98.9711 90.0569 101.775 85.7146C102.522 84.5189 102.46 83.8896 101.152 83.1974C98.4726 81.687 95.9804 79.7991 93.7998 77.5336C93.239 76.9043 92.6783 76.2749 92.1799 75.5827C91.5568 74.6387 90.8715 73.5689 91.9929 72.625C93.239 71.6181 93.9867 72.8137 94.6097 73.6948C96.292 76.0232 98.1611 78.1629 100.591 79.7991C102.398 80.9948 104.018 81.4353 106.012 79.862C108.317 78.037 111.245 77.3448 113.986 76.4008C115.357 75.8974 115.793 75.2051 115.482 73.8206C114.672 70.2965 113.613 67.087 109.251 66.8353C108.192 66.7724 106.821 66.5206 107.195 64.9474C107.507 63.4999 108.815 63.7517 109.874 63.8775C114.921 64.5698 117.662 67.087 118.535 72.4991C118.909 74.6387 119.719 75.0163 121.712 74.7017C126.51 73.9465 130.746 75.0163 134.236 77.7853Z" fill="#60347B"/>
<path d="M183.02 41.4742C177.911 42.1665 172.989 43.7397 173.55 50.4734C174.36 59.913 170.123 67.213 164.267 73.8837C163.083 75.2053 162.211 76.7156 161.089 78.163C160.217 79.2958 159.158 79.988 157.912 78.7923C156.728 77.6596 157.475 76.8415 158.348 75.8346C162.834 70.6742 166.821 65.1363 169.563 58.9061C171.432 54.6268 170.248 50.0958 169.126 45.8165C168.69 44.1173 167.133 42.8587 165.45 42.1665C162.148 40.719 158.722 39.5863 155.046 39.5863C153.55 39.5863 152.491 39.1458 152.553 37.5096C152.616 35.6216 153.986 35.4958 155.419 35.6216C160.466 35.9363 165.077 37.5096 169.313 40.2156C171.307 41.4742 172.802 41.8518 175.045 40.0268C179.407 36.3768 186.447 37.069 190.684 41.0966C191.618 41.9777 192.055 42.9846 191.182 43.9915C190.372 44.9354 189.189 44.9354 188.254 44.0544C186.759 42.4182 185.076 41.5371 183.02 41.4742Z" fill="#60347B"/>
<path d="M109.75 51.1025C110.685 51.1025 111.183 51.1025 111.682 51.1025C112.492 51.1655 113.177 51.4801 113.239 52.4241C113.239 53.3681 112.554 53.6827 111.744 53.6827C106.884 53.9344 103.395 56.7034 100.155 59.9758C99.2831 60.8569 98.4731 61.675 98.9092 63.2482C99.2208 64.4439 98.66 65.7655 97.0401 65.4508C90.9966 64.1293 87.0714 67.6534 83.3331 71.5551C81.9624 73.0025 80.7163 74.5758 79.4702 76.1491C79.0341 76.7155 78.5356 77.2189 77.788 76.8413C77.1026 76.4637 77.0403 75.7715 77.1649 75.0793C77.6634 72.8767 78.4733 70.8 80.0932 69.2896C83.9561 65.7655 88.3174 62.9336 93.4264 61.675C94.5479 61.4232 95.2956 60.8569 95.8563 59.7241C98.8469 53.9344 103.956 51.606 109.75 51.1025Z" fill="#60347B"/>
<path d="M165.451 91.1267C165.139 91.0638 164.703 90.9379 164.329 90.812C160.778 89.6163 158.909 90.3086 156.977 93.4551C156.479 94.2103 156.105 95.1543 155.42 95.7207C154.36 96.6017 152.678 96.9163 152.429 95.2172C151.993 92.0077 149.812 90.0569 148.068 87.6655C147.32 86.5957 145.887 85.4 147.071 84.1413C148.379 82.631 149.812 83.9526 151.058 84.7707C152.865 85.9663 153.301 89.05 154.983 89.3646C156.479 89.6163 158.036 87.162 160.03 86.5327C162.335 85.8405 164.516 86.281 166.572 87.2879C167.569 87.7284 168.13 88.6095 167.694 89.8051C167.382 90.812 166.51 91.1267 165.451 91.1267Z" fill="#60347B"/>
<path d="M68.6291 83.4492C68.8161 83.4492 68.9407 83.4492 69.1276 83.4492C70.4983 83.5751 72.3674 83.1975 72.492 85.1484C72.5543 87.1622 70.6852 86.9104 69.3145 87.0363C68.5668 87.0992 67.8192 87.0992 67.0715 87.288C63.0217 88.232 62.1495 90.8122 64.8286 94.0216C65.2024 94.5251 65.7631 94.9656 65.5139 95.532C64.6416 97.4199 63.0217 98.8044 62.2741 100.881C62.0872 101.51 61.0903 101.007 60.5295 100.566C59.7819 99.9372 59.1588 99.0561 59.7196 98.1121C60.6541 96.4759 60.2803 94.9656 60.0311 93.3294C58.8473 87.2251 62.1495 83.5751 68.6291 83.4492Z" fill="#60347B"/>
<path d="M125.077 105.727C125.077 107.992 125.139 109.817 125.077 111.642C125.077 112.46 124.89 113.404 123.706 113.404C122.585 113.404 122.024 112.712 121.962 111.642C121.9 109.566 121.775 107.426 121.9 105.349C122.087 100.566 120.654 96.413 117.788 92.6371C117.04 91.6302 115.918 90.4345 117.289 89.3647C118.722 88.232 119.532 89.5535 120.467 90.6233C124.33 95.1544 125.887 100.315 125.077 105.727Z" fill="#60347B"/>
<path d="M72.0556 101.888C73.0525 101.825 73.6755 102.077 73.8624 102.832C74.1117 103.65 73.6132 104.091 72.9902 104.405C71.6818 105.097 70.2488 105.727 69.065 106.608C64.0806 110.069 62.6476 114.348 64.2675 120.264C64.6413 121.522 65.8251 123.41 64.0183 124.04C62.0245 124.669 61.8376 122.403 61.4638 121.082C58.9093 112.838 62.7722 105.097 70.9341 102.266C71.3079 102.077 71.8064 101.951 72.0556 101.888Z" fill="#60347B"/>
<path d="M173.924 141.409C181.151 141.283 187.693 142.353 194.11 144.429C198.409 145.814 201.774 144.366 205.014 141.849C205.824 141.22 206.696 140.59 207.755 141.157C208.44 141.471 208.627 142.101 208.69 142.856C208.752 143.737 208.316 144.24 207.693 144.744C203.145 148.709 198.223 150.659 192.054 148.897C185.699 147.072 179.22 145.94 172.615 145.499C170.497 145.373 169.625 145.751 170.684 148.016C171.182 149.086 171.369 150.282 171.556 151.415C171.743 152.421 171.432 153.365 170.31 153.554C169.126 153.68 168.192 153.365 167.88 151.981C167.569 150.596 167.195 149.212 166.821 147.828C166.509 146.506 165.575 146.254 164.578 146.884C158.472 150.848 151.556 150.848 144.703 150.974C142.335 151.037 141.961 151.666 142.896 153.68C143.394 154.75 143.831 155.883 143.768 157.078C143.706 158.148 143.394 159.218 142.086 159.155C140.965 159.092 140.279 158.337 140.092 157.204C140.03 156.953 140.155 156.701 140.155 156.449C139.905 152.044 139.095 151.415 134.921 152.421C134.423 152.547 133.924 152.61 133.426 152.736C129.937 153.869 126.884 153.932 123.831 151.1C121.463 148.834 118.348 147.261 114.983 146.506C114.921 146.506 114.797 146.443 114.734 146.443C113.239 145.688 111.183 144.87 111.868 142.919C112.491 141.031 114.547 141.471 116.23 141.912C119.096 142.667 121.339 144.492 123.332 146.506C126.572 149.778 129.999 149.338 133.737 147.89C134.609 147.513 135.17 146.946 135.482 145.94C136.229 143.926 137.849 143.359 139.656 144.492C145.887 148.331 152.242 147.261 158.597 144.933C159.22 144.681 159.781 144.303 160.404 144.052C161.587 143.548 162.024 142.856 161.338 141.534C160.466 139.835 160.59 138.64 162.896 138.136C164.765 137.696 166.011 136.059 166.883 134.234C167.88 132.032 168.877 129.766 169.562 127.438C169.936 126.242 170.435 124.732 171.93 124.921C173.674 125.109 173.301 126.746 173.363 127.941C173.55 132.095 171.681 135.43 169.375 138.64C168.877 139.395 167.942 140.024 168.503 141.031C169.002 141.975 169.999 141.471 170.808 141.534C172.055 141.409 173.238 141.409 173.924 141.409Z" fill="#60347B"/>
<path d="M201.774 164.127C197.849 164.316 194.297 165.197 190.746 166.078C187.631 166.896 184.703 166.833 181.837 165.071C179.407 163.623 177.288 163.372 174.547 165.385C170.622 168.28 165.7 167.903 161.027 167.903C159.033 167.903 157.039 167.399 155.046 167.21C152.055 166.896 149.438 167.966 147.071 169.602C145.513 170.672 143.893 171.553 141.962 171.301C139.905 171.049 139.22 169.665 140.404 167.966C141.152 166.896 142.148 166.141 143.208 165.511C147.444 163.12 152.242 162.113 156.603 159.91C158.098 159.155 159.594 159.785 159.469 161.798C159.282 164.001 160.591 164.064 162.086 164.064C167.506 164.127 171.681 161.61 175.295 157.834C176.665 156.386 178.223 155.253 180.341 155.568C181.712 155.757 182.709 156.386 182.647 158.022C182.584 158.841 181.4 159.722 182.647 160.477C184.142 161.358 185.45 162.679 187.382 162.302C189.438 161.861 191.431 161.421 193.488 161.043C196.042 160.603 198.596 159.973 201.151 159.847C203.02 159.722 203.892 158.966 204.391 157.393C204.578 156.827 204.827 156.26 205.014 155.757C205.45 154.75 206.135 153.869 207.257 154.31C208.316 154.75 208.129 155.82 207.88 156.764C207.755 157.33 207.568 157.897 207.319 158.4C206.758 159.596 207.008 160.351 208.316 160.603C208.565 160.666 208.814 160.791 209.001 160.854C211.992 161.043 213.737 165.197 217.599 163.246C220.465 161.735 223.892 162.994 227.007 162.553C229.375 162.239 231.431 161.106 232.802 158.903C233.425 157.897 234.172 156.89 235.543 157.141C236.291 157.267 236.54 157.897 236.665 158.652C236.852 159.973 236.353 160.917 235.169 161.547C234.733 161.798 234.359 162.113 233.986 162.428C232.864 163.309 232.428 163.938 233.986 165.008C235.979 166.392 237.662 168.154 238.97 170.294C239.655 171.427 239.967 172.622 239.344 173.881C238.845 174.888 238.285 175.958 236.976 175.769C235.73 175.643 235.855 174.51 235.668 173.629C234.733 169.35 227.88 165.637 223.082 166.896C220.839 167.462 218.721 168.154 218.472 171.112C218.347 172.245 217.413 173.063 216.229 173.126C214.92 173.189 214.36 172.182 214.11 171.049C213.861 169.413 212.677 168.343 211.494 167.525C208.565 165.385 205.263 164.253 201.774 164.127Z" fill="#60347B"/>
<path d="M270.87 121.334C270.932 124.48 269.499 126.872 266.945 128.508C265.45 129.452 265.637 130.081 266.82 131.088C268.378 132.409 269.437 134.109 270.06 136.122C270.434 137.255 270.247 138.199 269.25 138.765C268.316 139.269 267.506 138.703 266.883 137.884C265.823 136.5 264.702 135.115 263.643 133.668C262.771 132.472 261.587 131.78 260.278 131.151C258.472 130.333 258.347 128.822 260.091 127.753C261.088 127.186 262.272 126.934 263.331 126.494C265.823 125.487 267.319 123.473 267.007 121.397C266.758 119.76 266.26 118.061 268.44 117.495C269.936 117.306 270.87 118.879 270.87 121.334Z" fill="#60347B"/>
<path d="M267.568 146.884C268.565 146.884 269.312 147.01 269.624 147.891C269.873 148.646 269.437 149.275 268.814 149.59C265.823 151.163 265.512 153.492 266.571 156.386C266.82 157.079 266.633 157.771 265.886 158.085C265.138 158.4 264.453 158.211 263.892 157.456C261.587 154.435 263.02 148.709 266.509 147.136C267.007 147.01 267.381 146.947 267.568 146.884Z" fill="#60347B"/>
<rect x="198" y="46" width="130" height="37" rx="18.5" fill="#473F47"/>
<path d="M246.124 70H243.431L239.083 62.4395H239.021C239.108 63.7747 239.151 64.7272 239.151 65.2969V70H237.258V60.0059H239.931L244.271 67.4912H244.319C244.251 66.1924 244.217 65.2741 244.217 64.7363V60.0059H246.124V70ZM254.402 70H248.646V60.0059H254.402V61.7422H250.766V63.9365H254.149V65.6729H250.766V68.25H254.402V70ZM265.565 64.9893C265.565 66.6436 265.155 67.915 264.335 68.8037C263.515 69.6924 262.339 70.1367 260.808 70.1367C259.276 70.1367 258.101 69.6924 257.28 68.8037C256.46 67.915 256.05 66.639 256.05 64.9756C256.05 63.3122 256.46 62.043 257.28 61.168C258.105 60.2884 259.285 59.8486 260.821 59.8486C262.357 59.8486 263.531 60.2907 264.342 61.1748C265.158 62.0589 265.565 63.3304 265.565 64.9893ZM258.271 64.9893C258.271 66.1058 258.483 66.9466 258.907 67.5117C259.331 68.0768 259.965 68.3594 260.808 68.3594C262.498 68.3594 263.344 67.236 263.344 64.9893C263.344 62.738 262.503 61.6123 260.821 61.6123C259.978 61.6123 259.342 61.8971 258.914 62.4668C258.486 63.0319 258.271 63.8727 258.271 64.9893ZM271.882 61.626C271.084 61.626 270.467 61.9268 270.029 62.5283C269.592 63.1253 269.373 63.9593 269.373 65.0303C269.373 67.2588 270.209 68.373 271.882 68.373C272.584 68.373 273.434 68.1976 274.432 67.8467V69.624C273.611 69.9658 272.695 70.1367 271.684 70.1367C270.23 70.1367 269.118 69.6969 268.348 68.8174C267.577 67.9333 267.192 66.6663 267.192 65.0166C267.192 63.9775 267.382 63.0684 267.76 62.2891C268.138 61.5052 268.68 60.9059 269.387 60.4912C270.098 60.0719 270.929 59.8623 271.882 59.8623C272.853 59.8623 273.828 60.097 274.808 60.5664L274.124 62.2891C273.75 62.1113 273.374 61.9564 272.996 61.8242C272.618 61.6921 272.246 61.626 271.882 61.626ZM285.636 64.9893C285.636 66.6436 285.226 67.915 284.405 68.8037C283.585 69.6924 282.409 70.1367 280.878 70.1367C279.347 70.1367 278.171 69.6924 277.351 68.8037C276.53 67.915 276.12 66.639 276.12 64.9756C276.12 63.3122 276.53 62.043 277.351 61.168C278.175 60.2884 279.356 59.8486 280.892 59.8486C282.427 59.8486 283.601 60.2907 284.412 61.1748C285.228 62.0589 285.636 63.3304 285.636 64.9893ZM278.342 64.9893C278.342 66.1058 278.554 66.9466 278.978 67.5117C279.401 68.0768 280.035 68.3594 280.878 68.3594C282.569 68.3594 283.414 67.236 283.414 64.9893C283.414 62.738 282.573 61.6123 280.892 61.6123C280.049 61.6123 279.413 61.8971 278.984 62.4668C278.556 63.0319 278.342 63.8727 278.342 64.9893ZM289.826 64.4424H290.51C291.18 64.4424 291.674 64.3307 291.993 64.1074C292.312 63.8841 292.472 63.5332 292.472 63.0547C292.472 62.5807 292.308 62.2435 291.979 62.043C291.656 61.8424 291.152 61.7422 290.469 61.7422H289.826V64.4424ZM289.826 66.165V70H287.707V60.0059H290.619C291.977 60.0059 292.982 60.2542 293.634 60.751C294.285 61.2432 294.611 61.9928 294.611 63C294.611 63.5879 294.45 64.112 294.126 64.5723C293.802 65.028 293.344 65.3857 292.752 65.6455C294.256 67.8923 295.236 69.3438 295.691 70H293.34L290.954 66.165H289.826ZM300.805 70H298.686V61.7695H295.972V60.0059H303.519V61.7695H300.805V70ZM310.812 70H305.057V60.0059H310.812V61.7422H307.176V63.9365H310.56V65.6729H307.176V68.25H310.812V70ZM320.984 70H318.564L316.24 66.2197L313.916 70H311.646L314.962 64.8457L311.858 60.0059H314.196L316.35 63.6016L318.462 60.0059H320.745L317.607 64.9619L320.984 70Z" fill="white"/>
<ellipse cx="218" cy="64.5" rx="13" ry="12.5" fill="white"/>
<path d="M212.411 69H210.902V64.8691L210.917 64.1904L210.941 63.4482C210.691 63.6989 210.517 63.8633 210.419 63.9414L209.599 64.6006L208.871 63.6924L211.171 61.8613H212.411V69ZM219.345 65.4307C219.345 66.6774 219.14 67.6003 218.729 68.1992C218.323 68.7982 217.694 69.0977 216.845 69.0977C216.021 69.0977 215.399 68.7884 214.979 68.1699C214.563 67.5514 214.354 66.6383 214.354 65.4307C214.354 64.1709 214.558 63.2432 214.965 62.6475C215.372 62.0485 215.998 61.749 216.845 61.749C217.668 61.749 218.29 62.0615 218.71 62.6865C219.133 63.3115 219.345 64.2262 219.345 65.4307ZM215.854 65.4307C215.854 66.3063 215.928 66.9346 216.078 67.3154C216.231 67.693 216.487 67.8818 216.845 67.8818C217.196 67.8818 217.45 67.6898 217.606 67.3057C217.763 66.9215 217.841 66.2965 217.841 65.4307C217.841 64.555 217.761 63.9268 217.602 63.5459C217.445 63.1618 217.193 62.9697 216.845 62.9697C216.49 62.9697 216.236 63.1618 216.083 63.5459C215.93 63.9268 215.854 64.555 215.854 65.4307ZM221.244 64C221.244 64.4134 221.28 64.7227 221.352 64.9277C221.426 65.1296 221.545 65.2305 221.708 65.2305C222.021 65.2305 222.177 64.8203 222.177 64C222.177 63.1862 222.021 62.7793 221.708 62.7793C221.545 62.7793 221.426 62.8802 221.352 63.082C221.28 63.2806 221.244 63.5866 221.244 64ZM223.407 63.9902C223.407 64.7389 223.262 65.3021 222.973 65.6797C222.683 66.054 222.258 66.2412 221.698 66.2412C221.161 66.2412 220.746 66.0492 220.453 65.665C220.16 65.2777 220.014 64.7194 220.014 63.9902C220.014 62.5026 220.575 61.7588 221.698 61.7588C222.248 61.7588 222.67 61.9525 222.963 62.3398C223.259 62.724 223.407 63.2741 223.407 63.9902ZM226.767 61.8613L222.807 69H221.635L225.595 61.8613H226.767ZM226.244 66.8516C226.244 67.265 226.28 67.5742 226.352 67.7793C226.426 67.9811 226.545 68.082 226.708 68.082C227.021 68.082 227.177 67.6719 227.177 66.8516C227.177 66.0378 227.021 65.6309 226.708 65.6309C226.545 65.6309 226.426 65.7318 226.352 65.9336C226.28 66.1322 226.244 66.4382 226.244 66.8516ZM228.407 66.8418C228.407 67.5872 228.262 68.1488 227.973 68.5264C227.683 68.9007 227.258 69.0879 226.698 69.0879C226.161 69.0879 225.746 68.8958 225.453 68.5117C225.16 68.1243 225.014 67.5677 225.014 66.8418C225.014 65.3542 225.575 64.6104 226.698 64.6104C227.248 64.6104 227.67 64.804 227.963 65.1914C228.259 65.5755 228.407 66.1257 228.407 66.8418Z" fill="#60347B"/>
<rect x="96" y="204" width="128" height="37" rx="18.5" fill="#473F47"/>
<path d="M137.377 222.442H138.061C138.73 222.442 139.225 222.331 139.544 222.107C139.863 221.884 140.022 221.533 140.022 221.055C140.022 220.581 139.858 220.243 139.53 220.043C139.207 219.842 138.703 219.742 138.02 219.742H137.377V222.442ZM137.377 224.165V228H135.258V218.006H138.17C139.528 218.006 140.533 218.254 141.185 218.751C141.836 219.243 142.162 219.993 142.162 221C142.162 221.588 142 222.112 141.677 222.572C141.353 223.028 140.895 223.386 140.303 223.646C141.807 225.892 142.786 227.344 143.242 228H140.891L138.505 224.165H137.377ZM150.256 228H144.5V218.006H150.256V219.742H146.619V221.937H150.003V223.673H146.619V226.25H150.256V228ZM154.467 222.709H155.164C155.816 222.709 156.303 222.581 156.627 222.326C156.951 222.066 157.112 221.69 157.112 221.198C157.112 220.701 156.976 220.335 156.702 220.098C156.433 219.861 156.009 219.742 155.431 219.742H154.467V222.709ZM159.252 221.123C159.252 222.199 158.915 223.021 158.24 223.591C157.57 224.16 156.616 224.445 155.376 224.445H154.467V228H152.348V218.006H155.54C156.752 218.006 157.673 218.268 158.302 218.792C158.935 219.312 159.252 220.089 159.252 221.123ZM164.994 228H162.875V219.77H160.161V218.006H167.708V219.77H164.994V228ZM169.246 228V218.006H171.365V228H169.246ZM173.881 228V218.006H176V226.25H180.054V228H173.881ZM181.797 228V218.006H183.916V228H181.797ZM192.55 228L191.825 225.621H188.182L187.457 228H185.174L188.701 217.965H191.292L194.833 228H192.55ZM191.319 223.844C190.649 221.688 190.271 220.469 190.185 220.187C190.103 219.904 190.043 219.681 190.007 219.517C189.856 220.1 189.426 221.542 188.715 223.844H191.319ZM204.964 228H202.271L197.923 220.439H197.861C197.948 221.775 197.991 222.727 197.991 223.297V228H196.098V218.006H198.771L203.111 225.491H203.159C203.091 224.192 203.057 223.274 203.057 222.736V218.006H204.964V228ZM216.558 222.989C216.558 224.644 216.147 225.915 215.327 226.804C214.507 227.692 213.331 228.137 211.8 228.137C210.269 228.137 209.093 227.692 208.272 226.804C207.452 225.915 207.042 224.639 207.042 222.976C207.042 221.312 207.452 220.043 208.272 219.168C209.097 218.288 210.278 217.849 211.813 217.849C213.349 217.849 214.523 218.291 215.334 219.175C216.15 220.059 216.558 221.33 216.558 222.989ZM209.264 222.989C209.264 224.106 209.476 224.947 209.899 225.512C210.323 226.077 210.957 226.359 211.8 226.359C213.491 226.359 214.336 225.236 214.336 222.989C214.336 220.738 213.495 219.612 211.813 219.612C210.97 219.612 210.335 219.897 209.906 220.467C209.478 221.032 209.264 221.873 209.264 222.989Z" fill="white"/>
<ellipse cx="116" cy="222.5" rx="13" ry="12.5" fill="white"/>
<path d="M109.142 219.769C109.825 219.769 110.375 219.925 110.792 220.237C111.212 220.547 111.422 220.965 111.422 221.492C111.422 221.857 111.321 222.182 111.119 222.469C110.917 222.752 110.592 223.006 110.143 223.23C110.676 223.517 111.059 223.816 111.29 224.129C111.524 224.438 111.642 224.778 111.642 225.149C111.642 225.735 111.412 226.207 110.953 226.565C110.494 226.92 109.89 227.098 109.142 227.098C108.36 227.098 107.747 226.932 107.301 226.6C106.855 226.268 106.632 225.797 106.632 225.188C106.632 224.782 106.739 224.42 106.954 224.104C107.172 223.789 107.521 223.51 107.999 223.27C107.592 223.012 107.299 222.737 107.12 222.444C106.941 222.151 106.852 221.831 106.852 221.482C106.852 220.971 107.063 220.558 107.486 220.242C107.91 219.926 108.461 219.769 109.142 219.769ZM108.028 225.101C108.028 225.381 108.126 225.599 108.321 225.755C108.517 225.911 108.784 225.989 109.122 225.989C109.496 225.989 109.776 225.91 109.962 225.75C110.147 225.587 110.24 225.374 110.24 225.11C110.24 224.892 110.147 224.689 109.962 224.5C109.78 224.308 109.482 224.104 109.068 223.89C108.375 224.209 108.028 224.612 108.028 225.101ZM109.132 220.872C108.875 220.872 108.666 220.939 108.507 221.072C108.351 221.202 108.272 221.378 108.272 221.6C108.272 221.795 108.334 221.971 108.458 222.127C108.585 222.28 108.813 222.438 109.142 222.601C109.461 222.451 109.684 222.298 109.811 222.142C109.938 221.985 110.001 221.805 110.001 221.6C110.001 221.375 109.92 221.198 109.757 221.067C109.594 220.937 109.386 220.872 109.132 220.872ZM117.345 223.431C117.345 224.677 117.14 225.6 116.729 226.199C116.323 226.798 115.694 227.098 114.845 227.098C114.021 227.098 113.399 226.788 112.979 226.17C112.563 225.551 112.354 224.638 112.354 223.431C112.354 222.171 112.558 221.243 112.965 220.647C113.372 220.049 113.998 219.749 114.845 219.749C115.668 219.749 116.29 220.062 116.71 220.687C117.133 221.312 117.345 222.226 117.345 223.431ZM113.854 223.431C113.854 224.306 113.928 224.935 114.078 225.315C114.231 225.693 114.487 225.882 114.845 225.882C115.196 225.882 115.45 225.69 115.606 225.306C115.763 224.922 115.841 224.297 115.841 223.431C115.841 222.555 115.761 221.927 115.602 221.546C115.445 221.162 115.193 220.97 114.845 220.97C114.49 220.97 114.236 221.162 114.083 221.546C113.93 221.927 113.854 222.555 113.854 223.431ZM119.244 222C119.244 222.413 119.28 222.723 119.352 222.928C119.426 223.13 119.545 223.23 119.708 223.23C120.021 223.23 120.177 222.82 120.177 222C120.177 221.186 120.021 220.779 119.708 220.779C119.545 220.779 119.426 220.88 119.352 221.082C119.28 221.281 119.244 221.587 119.244 222ZM121.407 221.99C121.407 222.739 121.262 223.302 120.973 223.68C120.683 224.054 120.258 224.241 119.698 224.241C119.161 224.241 118.746 224.049 118.453 223.665C118.16 223.278 118.014 222.719 118.014 221.99C118.014 220.503 118.575 219.759 119.698 219.759C120.248 219.759 120.67 219.952 120.963 220.34C121.259 220.724 121.407 221.274 121.407 221.99ZM124.767 219.861L120.807 227H119.635L123.595 219.861H124.767ZM124.244 224.852C124.244 225.265 124.28 225.574 124.352 225.779C124.426 225.981 124.545 226.082 124.708 226.082C125.021 226.082 125.177 225.672 125.177 224.852C125.177 224.038 125.021 223.631 124.708 223.631C124.545 223.631 124.426 223.732 124.352 223.934C124.28 224.132 124.244 224.438 124.244 224.852ZM126.407 224.842C126.407 225.587 126.262 226.149 125.973 226.526C125.683 226.901 125.258 227.088 124.698 227.088C124.161 227.088 123.746 226.896 123.453 226.512C123.16 226.124 123.014 225.568 123.014 224.842C123.014 223.354 123.575 222.61 124.698 222.61C125.248 222.61 125.67 222.804 125.963 223.191C126.259 223.576 126.407 224.126 126.407 224.842Z" fill="#60347B"/>
<rect x="36" y="154" width="104" height="37" rx="18.5" fill="#473F47"/>
<path d="M75.3232 178V168.006H77.4424V176.25H81.4961V178H75.3232ZM83.2393 178V168.006H85.3584V178H83.2393ZM92.1055 178L89.6992 170.159H89.6377C89.7243 171.754 89.7676 172.818 89.7676 173.352V178H87.874V168.006H90.7588L93.124 175.648H93.165L95.6738 168.006H98.5586V178H96.583V173.27C96.583 173.046 96.5853 172.789 96.5898 172.497C96.599 172.205 96.6309 171.431 96.6855 170.173H96.624L94.0469 178H92.1055ZM101.081 168.006H104.191C105.609 168.006 106.636 168.209 107.274 168.614C107.917 169.015 108.238 169.656 108.238 170.535C108.238 171.132 108.097 171.622 107.814 172.005C107.536 172.388 107.165 172.618 106.7 172.695V172.764C107.334 172.905 107.789 173.169 108.067 173.557C108.35 173.944 108.491 174.459 108.491 175.102C108.491 176.013 108.161 176.724 107.5 177.234C106.844 177.745 105.951 178 104.82 178H101.081V168.006ZM103.2 171.964H104.431C105.005 171.964 105.42 171.875 105.675 171.697C105.935 171.52 106.064 171.226 106.064 170.815C106.064 170.433 105.923 170.159 105.641 169.995C105.363 169.826 104.921 169.742 104.314 169.742H103.2V171.964ZM103.2 173.646V176.25H104.581C105.164 176.25 105.595 176.138 105.873 175.915C106.151 175.692 106.29 175.35 106.29 174.89C106.29 174.06 105.698 173.646 104.513 173.646H103.2ZM110.487 178V168.006H112.606V178H110.487ZM119.367 169.626C118.57 169.626 117.952 169.927 117.515 170.528C117.077 171.125 116.858 171.959 116.858 173.03C116.858 175.259 117.695 176.373 119.367 176.373C120.069 176.373 120.919 176.198 121.917 175.847V177.624C121.097 177.966 120.181 178.137 119.169 178.137C117.715 178.137 116.603 177.697 115.833 176.817C115.063 175.933 114.678 174.666 114.678 173.017C114.678 171.978 114.867 171.068 115.245 170.289C115.623 169.505 116.166 168.906 116.872 168.491C117.583 168.072 118.415 167.862 119.367 167.862C120.338 167.862 121.313 168.097 122.293 168.566L121.609 170.289C121.236 170.111 120.86 169.956 120.481 169.824C120.103 169.692 119.732 169.626 119.367 169.626ZM133.121 172.989C133.121 174.644 132.711 175.915 131.891 176.804C131.07 177.692 129.895 178.137 128.363 178.137C126.832 178.137 125.656 177.692 124.836 176.804C124.016 175.915 123.605 174.639 123.605 172.976C123.605 171.312 124.016 170.043 124.836 169.168C125.661 168.288 126.841 167.849 128.377 167.849C129.913 167.849 131.086 168.291 131.897 169.175C132.713 170.059 133.121 171.33 133.121 172.989ZM125.827 172.989C125.827 174.106 126.039 174.947 126.463 175.512C126.887 176.077 127.52 176.359 128.363 176.359C130.054 176.359 130.899 175.236 130.899 172.989C130.899 170.738 130.059 169.612 128.377 169.612C127.534 169.612 126.898 169.897 126.47 170.467C126.041 171.032 125.827 171.873 125.827 172.989Z" fill="white"/>
<ellipse cx="56" cy="172.5" rx="13" ry="12.5" fill="white"/>
<path d="M50.4111 177H48.9023V172.869L48.917 172.19L48.9414 171.448C48.6908 171.699 48.5166 171.863 48.4189 171.941L47.5986 172.601L46.8711 171.692L49.1709 169.861H50.4111V177ZM57.3447 173.431C57.3447 174.677 57.1396 175.6 56.7295 176.199C56.3226 176.798 55.6943 177.098 54.8447 177.098C54.0212 177.098 53.3994 176.788 52.9795 176.17C52.5628 175.551 52.3545 174.638 52.3545 173.431C52.3545 172.171 52.5579 171.243 52.9648 170.647C53.3717 170.049 53.9984 169.749 54.8447 169.749C55.6683 169.749 56.29 170.062 56.71 170.687C57.1331 171.312 57.3447 172.226 57.3447 173.431ZM53.8535 173.431C53.8535 174.306 53.9284 174.935 54.0781 175.315C54.2311 175.693 54.4867 175.882 54.8447 175.882C55.1963 175.882 55.4502 175.69 55.6064 175.306C55.7627 174.922 55.8408 174.297 55.8408 173.431C55.8408 172.555 55.7611 171.927 55.6016 171.546C55.4453 171.162 55.193 170.97 54.8447 170.97C54.4899 170.97 54.236 171.162 54.083 171.546C53.93 171.927 53.8535 172.555 53.8535 173.431ZM59.2441 172C59.2441 172.413 59.2799 172.723 59.3516 172.928C59.4264 173.13 59.5452 173.23 59.708 173.23C60.0205 173.23 60.1768 172.82 60.1768 172C60.1768 171.186 60.0205 170.779 59.708 170.779C59.5452 170.779 59.4264 170.88 59.3516 171.082C59.2799 171.281 59.2441 171.587 59.2441 172ZM61.4072 171.99C61.4072 172.739 61.2624 173.302 60.9727 173.68C60.6829 174.054 60.2581 174.241 59.6982 174.241C59.1611 174.241 58.7461 174.049 58.4531 173.665C58.1602 173.278 58.0137 172.719 58.0137 171.99C58.0137 170.503 58.5752 169.759 59.6982 169.759C60.2484 169.759 60.6699 169.952 60.9629 170.34C61.2591 170.724 61.4072 171.274 61.4072 171.99ZM64.7666 169.861L60.8066 177H59.6348L63.5947 169.861H64.7666ZM64.2441 174.852C64.2441 175.265 64.2799 175.574 64.3516 175.779C64.4264 175.981 64.5452 176.082 64.708 176.082C65.0205 176.082 65.1768 175.672 65.1768 174.852C65.1768 174.038 65.0205 173.631 64.708 173.631C64.5452 173.631 64.4264 173.732 64.3516 173.934C64.2799 174.132 64.2441 174.438 64.2441 174.852ZM66.4072 174.842C66.4072 175.587 66.2624 176.149 65.9727 176.526C65.6829 176.901 65.2581 177.088 64.6982 177.088C64.1611 177.088 63.7461 176.896 63.4531 176.512C63.1602 176.124 63.0137 175.568 63.0137 174.842C63.0137 173.354 63.5752 172.61 64.6982 172.61C65.2484 172.61 65.6699 172.804 65.9629 173.191C66.2591 173.576 66.4072 174.126 66.4072 174.842Z" fill="#60347B"/>
</svg>
