<svg width="687" height="522" viewBox="0 0 687 522" fill="none" xmlns="http://www.w3.org/2000/svg">
<g clip-path="url(#clip0)">
<path opacity="0.24" d="M31.7074 429.358C19.8753 415.341 9.65427 399.561 4.35686 381.994C-7.4753 342.637 6.65111 300.377 24.1158 263.131C40.8716 227.453 70.2715 181.009 70.8773 140.666C70.9933 133.386 69.0986 126.235 67.9644 119.031C65.6317 103.35 66.8936 87.3398 71.6537 72.2229C76.4138 57.106 84.5464 43.2817 95.431 31.8048C112.847 14.0671 135.985 3.15307 160.688 1.02343C238.113 -6.06302 321.802 25.9231 370.69 32.4266C427.002 39.9276 484.616 22.0625 540.709 31.1311C590.629 39.1762 639.001 15.7404 665.012 59.3214C691.022 102.902 693.728 212.839 674.33 259.776C667.164 277.123 656.904 293.252 652.045 311.389C646.709 331.34 648.269 352.521 651.813 372.874C654.636 389.119 658.709 405.547 656.531 421.896C653.953 441.329 642.649 458.662 628.819 472.486C590.539 510.755 533.311 524.824 479.422 521.534C425.533 518.243 373.873 499.51 323.464 480.168C311.349 475.504 299.168 470.763 286.37 468.599C271.74 466.138 256.725 467.135 241.993 468.405C200.593 471.916 157.298 484.676 116.144 485.363C83.8824 485.907 51.2215 452.496 31.7074 429.358Z" fill="#2A94F4"/>
<path d="M575.329 283.354C577.031 278.781 576.399 273.677 577.147 268.844C577.409 266.536 578.262 264.336 579.621 262.457C580.757 261.052 582.271 260.005 583.983 259.442C585.695 258.879 587.533 258.824 589.275 259.283C593.877 260.579 596.802 265.385 597.318 270.153C597.834 274.92 596.429 279.662 594.882 284.196C591.647 293.614 587.78 302.8 584.48 312.192C581.761 319.965 580.008 330.018 586.349 335.239C587.973 336.535 590.01 337.429 591.389 339.022C592.526 340.485 593.259 342.223 593.516 344.062C596.003 357.289 586.633 370.14 575.471 377.499C571.759 379.934 567.622 382.033 563.201 382.15C556.215 382.318 549.86 377.33 546.625 371.099C543.39 364.868 542.759 357.626 542.887 350.604C543.181 341.672 543.999 332.765 545.336 323.929C546.264 316.882 547.218 309.679 549.848 303.201C551.845 298.201 555.957 290.246 561.68 289.08C567.402 287.914 572.249 291.645 575.329 283.354Z" fill="#2A94F4"/>
<path d="M572.919 283.082C574.62 278.496 573.989 273.405 574.736 268.572C574.999 266.26 575.851 264.056 577.211 262.172C578.348 260.769 579.863 259.724 581.575 259.164C583.287 258.603 585.124 258.55 586.865 259.011C591.466 260.307 594.392 265.113 594.908 269.868C595.423 274.622 594.018 279.377 592.472 283.911C589.236 293.329 585.37 302.515 582.07 311.92C579.351 319.693 577.598 329.733 583.939 334.954C585.563 336.25 587.6 337.157 588.979 338.75C590.115 340.208 590.849 341.942 591.105 343.777C593.593 357.017 584.223 369.855 573.061 377.227C569.349 379.662 565.211 381.761 560.79 381.865C553.804 382.046 547.45 377.045 544.215 370.827C540.98 364.608 540.348 357.341 540.477 350.319C540.772 341.387 541.59 332.48 542.926 323.644C543.854 316.597 544.808 309.472 547.437 302.916C549.435 297.929 553.547 290.039 559.282 288.808C565.018 287.577 569.838 291.347 572.919 283.082Z" fill="url(#paint0_linear)"/>
<path d="M588.167 224.201C574.762 246.562 578.513 276.76 563.098 297.786C558.419 304.173 552.193 309.342 547.992 316.066C543.79 322.789 542.088 332.091 546.935 338.348C559.978 330.744 564.528 314.485 571.024 300.779C571.47 299.627 572.197 298.607 573.138 297.812C576.657 295.312 581.026 300.209 581.413 304.523C582.457 316.014 572.764 325.367 568.756 336.172C563.729 349.723 567.325 366.72 557.787 377.551C555.854 379.74 553.25 381.606 550.325 381.618C548.189 381.493 546.125 380.8 544.344 379.61C537.332 375.503 531.378 369.799 526.961 362.956C522.545 356.113 519.788 348.323 518.914 340.214C517.535 326.404 519.146 310.21 527.562 299.211C534.432 290.233 534.213 280.711 538.415 269.933C542.809 258.748 549.681 248.717 558.509 240.602C562.717 236.729 567.358 233.36 572.339 230.562C575.149 229.02 586.917 226.352 588.167 224.201Z" fill="#2A94F4"/>
<path d="M586.362 224.201C572.958 246.562 576.695 276.76 561.293 297.786C556.614 304.173 550.389 309.342 546.187 316.066C541.985 322.789 540.284 332.091 545.117 338.348C558.174 330.744 562.711 314.485 569.22 300.779C569.66 299.624 570.388 298.603 571.333 297.812C574.852 295.312 579.222 300.209 579.608 304.523C580.652 316.014 570.96 325.367 566.951 336.172C561.924 349.723 565.521 366.72 555.983 377.551C554.049 379.74 551.433 381.606 548.52 381.618C546.381 381.491 544.313 380.799 542.526 379.61C535.518 375.499 529.567 369.794 525.15 362.952C520.734 356.11 517.975 348.322 517.096 340.214C515.73 326.404 517.341 310.21 525.745 299.211C532.628 290.233 532.409 280.711 536.61 269.933C541.004 258.748 547.876 248.717 556.704 240.602C560.912 236.729 565.553 233.36 570.534 230.562C573.357 229.02 585.112 226.352 586.362 224.201Z" fill="url(#paint1_linear)"/>
<path d="M107.804 308.642C105.226 300.869 104.195 292.746 101.759 284.973C99.3232 277.2 95.0569 269.492 87.9421 265.606C80.8274 261.719 70.4517 263.17 66.5334 270.308C64.9785 273.384 64.4153 276.871 64.9223 280.284C66.3401 292.319 76.3162 301.737 78.9713 313.565C80.5567 320.587 79.4096 327.958 80.4407 335.097C81.1873 340.085 82.9669 344.86 85.6644 349.113C88.3619 353.366 91.9174 357.003 96.1009 359.789C100.87 362.924 106.335 364.868 111.207 367.847C117.616 371.793 122.83 377.424 126.287 384.132C130.333 380.445 133.526 375.912 135.642 370.851C137.757 365.79 138.744 360.325 138.532 354.84C137.436 331.016 114.506 328.49 107.804 308.642Z" fill="#2A94F4"/>
<path d="M107.804 308.642C105.226 300.869 104.195 292.746 101.759 284.973C99.3232 277.2 95.0569 269.492 87.9421 265.606C80.8274 261.719 70.4517 263.17 66.5334 270.308C64.9785 273.384 64.4153 276.871 64.9223 280.284C66.3401 292.319 76.3162 301.737 78.9713 313.565C80.5567 320.587 79.4096 327.958 80.4407 335.097C81.1873 340.085 82.9669 344.86 85.6644 349.113C88.3619 353.366 91.9174 357.003 96.1009 359.789C100.87 362.924 106.335 364.868 111.207 367.847C117.616 371.793 122.83 377.424 126.287 384.132C130.333 380.445 133.526 375.912 135.642 370.851C137.757 365.79 138.744 360.325 138.532 354.84C137.436 331.016 114.506 328.49 107.804 308.642Z" fill="url(#paint2_linear)"/>
<path d="M135.271 265.878C134.227 260.812 134.265 255.514 132.693 250.578C131.12 245.642 127.383 240.848 122.253 240.33C116.35 239.734 111.22 245.24 110.021 251.083C108.822 256.926 110.498 262.937 112.174 268.663L118.708 291.075C120.745 298.032 121.982 307.23 115.808 310.987C114.345 311.723 112.839 312.368 111.297 312.918C108.724 314.119 106.558 316.053 105.069 318.481C103.579 320.908 102.832 323.722 102.919 326.572C103.254 333.646 108.578 339.281 113.23 344.619C117.883 349.956 122.343 356.745 120.564 363.598C119.275 368.676 114.597 373.081 115.563 378.237C116.35 382.512 120.99 385.168 125.32 385.207C129.651 385.246 133.724 383.316 137.629 381.424L156.28 372.356C162.273 369.441 168.576 366.267 172.159 360.618C174.384 356.703 175.673 352.321 175.923 347.819C177.533 330.707 172.957 313.585 163.034 299.587C153.908 286.826 138.867 283.276 135.271 265.878Z" fill="#2A94F4"/>
<path d="M135.271 265.878C134.227 260.812 134.265 255.514 132.693 250.578C131.12 245.642 127.383 240.848 122.253 240.33C116.35 239.734 111.22 245.24 110.021 251.083C108.822 256.926 110.498 262.937 112.174 268.663L118.708 291.075C120.745 298.032 121.982 307.23 115.808 310.987C114.345 311.723 112.839 312.368 111.297 312.918C108.724 314.119 106.558 316.053 105.069 318.481C103.579 320.908 102.832 323.722 102.919 326.572C103.254 333.646 108.578 339.281 113.23 344.619C117.883 349.956 122.343 356.745 120.564 363.598C119.275 368.676 114.597 373.081 115.563 378.237C116.35 382.512 120.99 385.168 125.32 385.207C129.651 385.246 133.724 383.316 137.629 381.424L156.28 372.356C162.273 369.441 168.576 366.267 172.159 360.618C174.384 356.703 175.673 352.321 175.923 347.819C177.533 330.707 172.957 313.585 163.034 299.587C153.908 286.826 138.867 283.276 135.271 265.878Z" fill="url(#paint3_linear)"/>
<path d="M517.625 105.338H173.036C161.724 105.338 152.555 114.554 152.555 125.924V335.187C152.555 346.557 161.724 355.773 173.036 355.773H517.625C528.936 355.773 538.105 346.557 538.105 335.187V125.924C538.105 114.554 528.936 105.338 517.625 105.338Z" fill="#2A94F4"/>
<path d="M506.282 115.028H181.117C170.447 115.028 161.796 123.723 161.796 134.448V331.91C161.796 342.635 170.447 351.329 181.117 351.329H506.282C516.953 351.329 525.603 342.635 525.603 331.91V134.448C525.603 123.723 516.953 115.028 506.282 115.028Z" fill="white"/>
<g opacity="0.52">
<path opacity="0.52" d="M287.065 166.382H213.907V171.772H287.065V166.382Z" fill="#2A94F4"/>
<path opacity="0.52" d="M258.555 176.811H213.907V181.877H258.555V176.811Z" fill="#2A94F4"/>
<path opacity="0.52" d="M417.09 176.811H276.574V181.903H417.09V176.811Z" fill="#2A94F4"/>
<path opacity="0.52" d="M298.524 187.279H237.12V192.616H298.524V187.279Z" fill="#2A94F4"/>
<path opacity="0.52" d="M329.986 197.708H256.828V203.097H329.986V197.708Z" fill="#2A94F4"/>
<path opacity="0.52" d="M396.068 197.708H334.755V203.693H396.068V197.708Z" fill="#2A94F4"/>
<path opacity="0.52" d="M313.217 208.15H256.724V213.215H313.217V208.15Z" fill="#2A94F4"/>
<path opacity="0.52" d="M435.199 208.15H318.631V213.759H435.199V208.15Z" fill="#2A94F4"/>
<path opacity="0.52" d="M287.065 222.271H213.907V227.66H287.065V222.271Z" fill="#2A94F4"/>
<path opacity="0.52" d="M258.555 232.7H213.907V237.765H258.555V232.7Z" fill="#2A94F4"/>
<path opacity="0.52" d="M417.09 232.7H276.574V237.791H417.09V232.7Z" fill="#2A94F4"/>
<path opacity="0.52" d="M298.524 243.141H237.12V248.479H298.524V243.141Z" fill="#2A94F4"/>
<path opacity="0.52" d="M329.986 253.596H256.828V258.985H329.986V253.596Z" fill="#2A94F4"/>
<path opacity="0.52" d="M396.068 253.596H334.755V259.581H396.068V253.596Z" fill="#2A94F4"/>
<path opacity="0.52" d="M313.217 264.038H256.724V269.103H313.217V264.038Z" fill="#2A94F4"/>
<path opacity="0.52" d="M435.199 264.038H318.631V269.648H435.199V264.038Z" fill="#2A94F4"/>
<path opacity="0.52" d="M287.065 278.159H213.907V283.548H287.065V278.159Z" fill="#2A94F4"/>
<path opacity="0.52" d="M258.555 288.588H213.907V293.653H258.555V288.588Z" fill="#2A94F4"/>
<path opacity="0.52" d="M417.09 288.588H276.574V293.679H417.09V288.588Z" fill="#2A94F4"/>
<path opacity="0.52" d="M298.524 299.03H237.12V304.367H298.524V299.03Z" fill="#2A94F4"/>
<path opacity="0.52" d="M329.986 309.459H256.828V314.848H329.986V309.459Z" fill="#2A94F4"/>
<path opacity="0.52" d="M396.068 309.459H334.755V315.444H396.068V309.459Z" fill="#2A94F4"/>
<path opacity="0.52" d="M313.217 319.926H256.724V324.992H313.217V319.926Z" fill="#2A94F4"/>
<path opacity="0.52" d="M435.199 319.926H318.631V325.536H435.199V319.926Z" fill="#2A94F4"/>
</g>
<path d="M164.903 353.882L93.2266 408.125H595.024L524.946 353.078L164.903 353.882Z" fill="#2A94F4"/>
<path d="M164.903 353.882L93.2266 408.125H595.024L524.946 353.078L164.903 353.882Z" fill="url(#paint4_linear)"/>
<path d="M113.759 427.959L93.2266 408.125H595.024L576.489 429.177L113.759 427.959Z" fill="#2A94F4"/>
<path d="M113.759 427.959L93.2266 408.125H595.024L576.489 429.177L113.759 427.959Z" fill="url(#paint5_linear)"/>
<path opacity="0.58" d="M287.735 399.626L309.08 382.616L387.213 382.214L409.769 399.212L287.735 399.626Z" fill="#2A94F4"/>
<path opacity="0.58" d="M139.137 379.52L545.079 378.976L523.335 361.162H164.104L139.137 379.52Z" fill="#2A94F4"/>
<path opacity="0.24" d="M341.649 162.248L342.345 158.633C342.474 157.96 342.59 157.273 342.719 156.522C343.853 156.716 344.936 156.884 346.018 157.105C346.091 157.133 346.168 157.146 346.246 157.143C346.324 157.14 346.4 157.121 346.471 157.087C346.541 157.053 346.603 157.004 346.654 156.945C346.705 156.886 346.743 156.817 346.766 156.742C347.256 155.783 347.797 154.85 348.377 153.943C348.43 153.893 348.473 153.831 348.502 153.763C348.531 153.696 348.546 153.622 348.546 153.548C348.546 153.474 348.531 153.401 348.502 153.333C348.473 153.265 348.43 153.204 348.377 153.153C347.655 152.311 346.946 151.443 346.199 150.562L350.89 146.598C351.625 147.466 352.347 148.308 353.03 149.189C353.072 149.261 353.128 149.323 353.195 149.372C353.262 149.422 353.339 149.456 353.42 149.474C353.501 149.493 353.584 149.494 353.666 149.478C353.747 149.463 353.825 149.43 353.893 149.383C354.836 148.962 355.805 148.603 356.793 148.308C357.257 148.178 357.361 147.997 357.348 147.57C357.348 146.481 357.348 145.406 357.348 144.292H363.483C363.483 145.393 363.483 146.481 363.483 147.583C363.483 148.023 363.599 148.178 364.037 148.308C365.025 148.606 365.993 148.965 366.937 149.383C367.006 149.43 367.085 149.461 367.167 149.476C367.249 149.491 367.333 149.488 367.414 149.469C367.495 149.449 367.571 149.413 367.638 149.363C367.704 149.313 367.76 149.249 367.801 149.176C368.484 148.321 369.193 147.492 369.927 146.585L374.632 150.549L372.222 153.438C372.866 154.656 373.511 155.809 374.129 156.936C374.205 157.005 374.296 157.056 374.394 157.085C374.492 157.114 374.595 157.121 374.696 157.105L378.048 156.522L379.117 162.585C377.97 162.792 376.862 162.973 375.766 163.193C375.586 163.193 375.315 163.401 375.289 163.543C375.07 164.839 374.89 166.134 374.696 167.43L377.932 169.321L374.864 174.659L371.603 172.78C370.546 173.622 369.528 174.426 368.535 175.268C368.478 175.339 368.438 175.424 368.42 175.514C368.403 175.604 368.407 175.697 368.432 175.786C368.806 176.874 369.206 177.962 369.605 179.089L363.844 181.201C363.496 180.216 363.109 179.258 362.8 178.273C362.619 177.703 362.374 177.535 361.756 177.587C360.76 177.658 359.761 177.658 358.765 177.587C358.405 177.587 358.263 177.664 358.16 178.001C357.799 179.05 357.399 180.1 356.987 181.214L351.161 179.167L352.45 175.591L349.176 172.806L345.889 174.711L342.822 169.373C343.827 168.79 344.781 168.22 345.748 167.676C345.816 167.65 345.879 167.611 345.933 167.56C345.986 167.509 346.028 167.448 346.057 167.38C346.086 167.312 346.101 167.239 346.101 167.165C346.101 167.091 346.086 167.018 346.057 166.95C345.825 165.954 345.645 164.947 345.516 163.932C345.516 163.44 345.348 163.206 344.794 163.142C343.737 163.012 342.68 162.792 341.623 162.598L341.649 162.248ZM360.428 154.889C358.88 154.869 357.361 155.31 356.062 156.157C354.763 157.004 353.743 158.218 353.13 159.647C352.517 161.076 352.339 162.656 352.618 164.186C352.898 165.717 353.622 167.13 354.699 168.247C355.777 169.365 357.16 170.136 358.673 170.465C360.186 170.793 361.762 170.663 363.203 170.092C364.643 169.521 365.882 168.534 366.765 167.255C367.647 165.977 368.133 164.464 368.162 162.908C368.189 160.816 367.391 158.797 365.942 157.294C364.493 155.791 362.51 154.927 360.428 154.889Z" fill="#2A94F4"/>
<rect x="258" y="181" width="138" height="143" rx="10" fill="#B939FF" fill-opacity="0.21"/>
<rect x="253" y="172" width="138" height="143" rx="10" fill="white"/>
<g clip-path="url(#clip1)">
<path d="M331.593 219.834V228.762C331.593 229.165 331.267 229.491 330.864 229.491H327.849C327.446 229.491 327.119 229.165 327.119 228.762V225.761C327.119 225.358 326.792 225.031 326.389 225.031H323.374C322.971 225.031 322.644 225.358 322.644 225.761V228.776C322.644 229.179 322.971 229.506 323.374 229.506H326.389C326.792 229.506 327.119 229.833 327.119 230.236V233.236C327.119 233.639 327.446 233.965 327.849 233.965H335.463C335.866 233.965 336.193 233.639 336.193 233.236V230.221C336.193 229.818 336.52 229.491 336.923 229.491H341.25C341.653 229.491 341.98 229.165 341.98 228.762V219.834C341.98 219.431 341.653 219.105 341.25 219.105H332.323C331.92 219.105 331.593 219.431 331.593 219.834Z" fill="black"/>
<path d="M310.311 238.503H317.44C317.843 238.503 318.17 238.176 318.17 237.773V234.758C318.17 234.355 317.843 234.028 317.44 234.028H310.311C309.908 234.028 309.581 234.355 309.581 234.758V237.773C309.581 238.176 309.908 238.503 310.311 238.503Z" fill="black"/>
<path d="M321.915 219.167H316.281C315.878 219.167 315.551 219.494 315.551 219.897V222.912C315.551 223.315 315.878 223.642 316.281 223.642H321.915C322.318 223.642 322.645 223.315 322.645 222.912V219.897C322.644 219.494 322.318 219.167 321.915 219.167Z" fill="black"/>
<path d="M327.269 246.722V243.707C327.269 243.304 326.943 242.977 326.54 242.977H323.525C323.122 242.977 322.795 243.304 322.795 243.707V246.722C322.795 247.125 323.122 247.452 323.525 247.452H326.54C326.943 247.452 327.269 247.125 327.269 246.722Z" fill="black"/>
<path d="M336.193 242.977V242.594V239.233C336.193 238.83 335.867 238.503 335.464 238.503H327.999C327.596 238.503 327.27 238.83 327.27 239.233V242.248C327.27 242.65 327.596 242.977 327.999 242.977H330.624C331.027 242.977 331.354 243.304 331.354 243.707V246.489V247.452V256.146C331.354 256.549 331.68 256.875 332.083 256.875H341.011C341.414 256.875 341.74 256.549 341.74 256.146V247.218C341.74 246.815 341.414 246.489 341.011 246.489H336.923C336.52 246.489 336.193 246.162 336.193 245.759V242.977H336.193Z" fill="black"/>
<path d="M336.193 234.821V237.836C336.193 238.239 336.52 238.566 336.923 238.566H339.938C340.341 238.566 340.668 238.239 340.668 237.836V234.821C340.668 234.418 340.341 234.091 339.938 234.091H336.923C336.52 234.091 336.193 234.418 336.193 234.821Z" fill="black"/>
<path d="M307.204 242.977H308.851C309.254 242.977 309.581 242.65 309.581 242.248V239.233C309.581 238.83 309.254 238.503 308.851 238.503H305.836C305.433 238.503 305.107 238.83 305.107 239.233V241.285C305.107 241.688 304.78 242.014 304.377 242.014H302.73C302.327 242.014 302 242.341 302 242.744V246.489V247.683V256.146C302 256.549 302.327 256.876 302.73 256.876H311.657C312.06 256.876 312.387 256.549 312.387 256.146V247.219C312.387 246.816 312.06 246.489 311.657 246.489H307.204C306.801 246.489 306.474 246.162 306.474 245.759V243.707C306.474 243.304 306.801 242.977 307.204 242.977Z" fill="black"/>
<path d="M321.336 247.452V243.707C321.336 243.304 321.662 242.977 322.065 242.977C322.468 242.977 322.795 242.65 322.795 242.248V239.295C322.795 238.892 323.122 238.566 323.525 238.566H326.389C326.792 238.566 327.119 238.239 327.119 237.836V234.821C327.119 234.418 326.792 234.091 326.389 234.091H323.374C322.971 234.091 322.644 234.418 322.644 234.821V237.773C322.644 238.176 322.317 238.503 321.915 238.503H319.05C318.647 238.503 318.321 238.83 318.321 239.233V242.248C318.321 242.65 317.994 242.977 317.591 242.977H314.425C314.022 242.977 313.696 243.304 313.696 243.707V246.722C313.696 247.125 314.022 247.452 314.425 247.452H316.131C316.534 247.452 316.861 247.779 316.861 248.181V251.196C316.861 251.599 317.188 251.926 317.591 251.926H320.577C320.979 251.926 321.306 252.253 321.306 252.656V255.671C321.306 256.074 321.633 256.401 322.036 256.401H329.609C330.012 256.401 330.339 256.074 330.339 255.671V252.656C330.339 252.253 330.012 251.926 329.609 251.926H322.065C321.662 251.926 321.336 251.599 321.336 251.196V247.452H321.336Z" fill="black"/>
<path d="M322.645 233.299V230.284C322.645 229.881 322.318 229.554 321.915 229.554H318.9C318.497 229.554 318.17 229.881 318.17 230.284V233.299C318.17 233.702 318.497 234.028 318.9 234.028H321.915C322.318 234.028 322.645 233.702 322.645 233.299Z" fill="black"/>
<path d="M305.836 234.028H308.852C309.254 234.028 309.581 233.702 309.581 233.299V230.284C309.581 229.881 309.908 229.554 310.311 229.554H311.916H316.131C316.534 229.554 316.861 229.227 316.861 228.824V225.809C316.861 225.406 316.534 225.079 316.131 225.079H313.116C312.713 225.079 312.387 224.753 312.387 224.35V219.897C312.387 219.494 312.06 219.167 311.657 219.167H302.73C302.327 219.167 302 219.494 302 219.897V228.824C302 229.227 302.327 229.554 302.73 229.554H304.377C304.78 229.554 305.107 229.881 305.107 230.284V233.299C305.107 233.702 305.433 234.028 305.836 234.028Z" fill="black"/>
</g>
<path d="M179.692 137.64V141H178.084V137.64L174.922 132.324H176.344C176.484 132.324 176.594 132.358 176.674 132.426C176.758 132.494 176.828 132.58 176.884 132.684L178.468 135.582C178.56 135.754 178.64 135.916 178.708 136.068C178.78 136.22 178.844 136.372 178.9 136.524C178.952 136.372 179.012 136.22 179.08 136.068C179.148 135.916 179.226 135.754 179.314 135.582L180.892 132.684C180.936 132.596 181.002 132.514 181.09 132.438C181.178 132.362 181.29 132.324 181.426 132.324H182.854L179.692 137.64ZM191.517 136.662C191.517 137.298 191.411 137.888 191.199 138.432C190.991 138.972 190.695 139.44 190.311 139.836C189.927 140.232 189.465 140.542 188.925 140.766C188.385 140.986 187.785 141.096 187.125 141.096C186.469 141.096 185.871 140.986 185.331 140.766C184.791 140.542 184.327 140.232 183.939 139.836C183.555 139.44 183.257 138.972 183.045 138.432C182.833 137.888 182.727 137.298 182.727 136.662C182.727 136.026 182.833 135.438 183.045 134.898C183.257 134.354 183.555 133.884 183.939 133.488C184.327 133.092 184.791 132.784 185.331 132.564C185.871 132.34 186.469 132.228 187.125 132.228C187.565 132.228 187.979 132.28 188.367 132.384C188.755 132.484 189.111 132.628 189.435 132.816C189.759 133 190.049 133.226 190.305 133.494C190.565 133.758 190.785 134.054 190.965 134.382C191.145 134.71 191.281 135.066 191.373 135.45C191.469 135.834 191.517 136.238 191.517 136.662ZM189.867 136.662C189.867 136.186 189.803 135.76 189.675 135.384C189.547 135.004 189.365 134.682 189.129 134.418C188.893 134.154 188.605 133.952 188.265 133.812C187.929 133.672 187.549 133.602 187.125 133.602C186.701 133.602 186.319 133.672 185.979 133.812C185.643 133.952 185.355 134.154 185.115 134.418C184.879 134.682 184.697 135.004 184.569 135.384C184.441 135.76 184.377 136.186 184.377 136.662C184.377 137.138 184.441 137.566 184.569 137.946C184.697 138.322 184.879 138.642 185.115 138.906C185.355 139.166 185.643 139.366 185.979 139.506C186.319 139.646 186.701 139.716 187.125 139.716C187.549 139.716 187.929 139.646 188.265 139.506C188.605 139.366 188.893 139.166 189.129 138.906C189.365 138.642 189.547 138.322 189.675 137.946C189.803 137.566 189.867 137.138 189.867 136.662ZM196.427 139.698C196.739 139.698 197.017 139.646 197.261 139.542C197.509 139.438 197.717 139.292 197.885 139.104C198.053 138.916 198.181 138.688 198.269 138.42C198.361 138.152 198.407 137.852 198.407 137.52V132.324H200.021V137.52C200.021 138.036 199.937 138.514 199.769 138.954C199.605 139.39 199.367 139.768 199.055 140.088C198.747 140.404 198.371 140.652 197.927 140.832C197.483 141.008 196.983 141.096 196.427 141.096C195.867 141.096 195.365 141.008 194.921 140.832C194.477 140.652 194.099 140.404 193.787 140.088C193.479 139.768 193.241 139.39 193.073 138.954C192.909 138.514 192.827 138.036 192.827 137.52V132.324H194.441V137.514C194.441 137.846 194.485 138.146 194.573 138.414C194.665 138.682 194.795 138.912 194.963 139.104C195.135 139.292 195.343 139.438 195.587 139.542C195.835 139.646 196.115 139.698 196.427 139.698ZM204.463 136.452C204.767 136.452 205.031 136.414 205.255 136.338C205.483 136.262 205.669 136.158 205.813 136.026C205.961 135.89 206.071 135.73 206.143 135.546C206.215 135.362 206.251 135.16 206.251 134.94C206.251 134.5 206.105 134.162 205.813 133.926C205.525 133.69 205.083 133.572 204.487 133.572H203.455V136.452H204.463ZM208.615 141H207.157C206.881 141 206.681 140.892 206.557 140.676L204.733 137.898C204.665 137.794 204.589 137.72 204.505 137.676C204.425 137.632 204.305 137.61 204.145 137.61H203.455V141H201.841V132.324H204.487C205.075 132.324 205.579 132.386 205.999 132.51C206.423 132.63 206.769 132.8 207.037 133.02C207.309 133.24 207.509 133.504 207.637 133.812C207.765 134.116 207.829 134.452 207.829 134.82C207.829 135.112 207.785 135.388 207.697 135.648C207.613 135.908 207.489 136.144 207.325 136.356C207.165 136.568 206.965 136.754 206.725 136.914C206.489 137.074 206.219 137.2 205.915 137.292C206.019 137.352 206.115 137.424 206.203 137.508C206.291 137.588 206.371 137.684 206.443 137.796L208.615 141ZM218.428 138.954C218.516 138.954 218.594 138.988 218.662 139.056L219.298 139.746C218.946 140.182 218.512 140.516 217.996 140.748C217.484 140.98 216.868 141.096 216.148 141.096C215.504 141.096 214.924 140.986 214.408 140.766C213.896 140.546 213.458 140.24 213.094 139.848C212.73 139.456 212.45 138.988 212.254 138.444C212.062 137.9 211.966 137.306 211.966 136.662C211.966 136.01 212.07 135.414 212.278 134.874C212.486 134.33 212.778 133.862 213.154 133.47C213.534 133.078 213.986 132.774 214.51 132.558C215.034 132.338 215.614 132.228 216.25 132.228C216.882 132.228 217.442 132.332 217.93 132.54C218.422 132.748 218.84 133.02 219.184 133.356L218.644 134.106C218.612 134.154 218.57 134.196 218.518 134.232C218.47 134.268 218.402 134.286 218.314 134.286C218.254 134.286 218.192 134.27 218.128 134.238C218.064 134.202 217.994 134.16 217.918 134.112C217.842 134.06 217.754 134.004 217.654 133.944C217.554 133.884 217.438 133.83 217.306 133.782C217.174 133.73 217.02 133.688 216.844 133.656C216.672 133.62 216.472 133.602 216.244 133.602C215.856 133.602 215.5 133.672 215.176 133.812C214.856 133.948 214.58 134.148 214.348 134.412C214.116 134.672 213.936 134.992 213.808 135.372C213.68 135.748 213.616 136.178 213.616 136.662C213.616 137.15 213.684 137.584 213.82 137.964C213.96 138.344 214.148 138.664 214.384 138.924C214.62 139.184 214.898 139.384 215.218 139.524C215.538 139.66 215.882 139.728 216.25 139.728C216.47 139.728 216.668 139.716 216.844 139.692C217.024 139.668 217.188 139.63 217.336 139.578C217.488 139.526 217.63 139.46 217.762 139.38C217.898 139.296 218.032 139.194 218.164 139.074C218.204 139.038 218.246 139.01 218.29 138.99C218.334 138.966 218.38 138.954 218.428 138.954ZM228.49 136.662C228.49 137.298 228.384 137.888 228.172 138.432C227.964 138.972 227.668 139.44 227.284 139.836C226.9 140.232 226.438 140.542 225.898 140.766C225.358 140.986 224.758 141.096 224.098 141.096C223.442 141.096 222.844 140.986 222.304 140.766C221.764 140.542 221.3 140.232 220.912 139.836C220.528 139.44 220.23 138.972 220.018 138.432C219.806 137.888 219.7 137.298 219.7 136.662C219.7 136.026 219.806 135.438 220.018 134.898C220.23 134.354 220.528 133.884 220.912 133.488C221.3 133.092 221.764 132.784 222.304 132.564C222.844 132.34 223.442 132.228 224.098 132.228C224.538 132.228 224.952 132.28 225.34 132.384C225.728 132.484 226.084 132.628 226.408 132.816C226.732 133 227.022 133.226 227.278 133.494C227.538 133.758 227.758 134.054 227.938 134.382C228.118 134.71 228.254 135.066 228.346 135.45C228.442 135.834 228.49 136.238 228.49 136.662ZM226.84 136.662C226.84 136.186 226.776 135.76 226.648 135.384C226.52 135.004 226.338 134.682 226.102 134.418C225.866 134.154 225.578 133.952 225.238 133.812C224.902 133.672 224.522 133.602 224.098 133.602C223.674 133.602 223.292 133.672 222.952 133.812C222.616 133.952 222.328 134.154 222.088 134.418C221.852 134.682 221.67 135.004 221.542 135.384C221.414 135.76 221.35 136.186 221.35 136.662C221.35 137.138 221.414 137.566 221.542 137.946C221.67 138.322 221.852 138.642 222.088 138.906C222.328 139.166 222.616 139.366 222.952 139.506C223.292 139.646 223.674 139.716 224.098 139.716C224.522 139.716 224.902 139.646 225.238 139.506C225.578 139.366 225.866 139.166 226.102 138.906C226.338 138.642 226.52 138.322 226.648 137.946C226.776 137.566 226.84 137.138 226.84 136.662ZM239.315 132.324V141H237.893V135.396C237.893 135.172 237.905 134.93 237.929 134.67L235.307 139.596C235.183 139.832 234.993 139.95 234.737 139.95H234.509C234.253 139.95 234.063 139.832 233.939 139.596L231.287 134.652C231.299 134.784 231.309 134.914 231.317 135.042C231.325 135.17 231.329 135.288 231.329 135.396V141H229.907V132.324H231.125C231.197 132.324 231.259 132.326 231.311 132.33C231.363 132.334 231.409 132.344 231.449 132.36C231.493 132.376 231.531 132.402 231.563 132.438C231.599 132.474 231.633 132.522 231.665 132.582L234.263 137.4C234.331 137.528 234.393 137.66 234.449 137.796C234.509 137.932 234.567 138.072 234.623 138.216C234.679 138.068 234.737 137.926 234.797 137.79C234.857 137.65 234.921 137.516 234.989 137.388L237.551 132.582C237.583 132.522 237.617 132.474 237.653 132.438C237.689 132.402 237.727 132.376 237.767 132.36C237.811 132.344 237.859 132.334 237.911 132.33C237.963 132.326 238.025 132.324 238.097 132.324H239.315ZM244.071 136.686C244.367 136.686 244.625 136.65 244.845 136.578C245.065 136.502 245.247 136.396 245.391 136.26C245.539 136.12 245.649 135.952 245.721 135.756C245.793 135.556 245.829 135.334 245.829 135.09C245.829 134.858 245.793 134.648 245.721 134.46C245.649 134.272 245.541 134.112 245.397 133.98C245.253 133.848 245.071 133.748 244.851 133.68C244.631 133.608 244.371 133.572 244.071 133.572H242.865V136.686H244.071ZM244.071 132.324C244.651 132.324 245.153 132.392 245.577 132.528C246.001 132.664 246.351 132.854 246.627 133.098C246.903 133.342 247.107 133.634 247.239 133.974C247.375 134.314 247.443 134.686 247.443 135.09C247.443 135.51 247.373 135.896 247.233 136.248C247.093 136.596 246.883 136.896 246.603 137.148C246.323 137.4 245.971 137.596 245.547 137.736C245.127 137.876 244.635 137.946 244.071 137.946H242.865V141H241.251V132.324H244.071ZM252.655 137.724L251.599 134.838C251.547 134.71 251.493 134.558 251.437 134.382C251.381 134.206 251.325 134.016 251.269 133.812C251.217 134.016 251.163 134.208 251.107 134.388C251.051 134.564 250.997 134.718 250.945 134.85L249.895 137.724H252.655ZM255.505 141H254.257C254.117 141 254.003 140.966 253.915 140.898C253.827 140.826 253.761 140.738 253.717 140.634L253.069 138.864H249.475L248.827 140.634C248.795 140.726 248.733 140.81 248.641 140.886C248.549 140.962 248.435 141 248.299 141H247.039L250.453 132.324H252.097L255.505 141ZM263.718 132.324V141H262.89C262.762 141 262.654 140.98 262.566 140.94C262.482 140.896 262.4 140.824 262.32 140.724L257.79 134.94C257.814 135.204 257.826 135.448 257.826 135.672V141H256.404V132.324H257.25C257.318 132.324 257.376 132.328 257.424 132.336C257.476 132.34 257.52 132.352 257.556 132.372C257.596 132.388 257.634 132.414 257.67 132.45C257.706 132.482 257.746 132.526 257.79 132.582L262.338 138.39C262.326 138.25 262.316 138.112 262.308 137.976C262.3 137.84 262.296 137.714 262.296 137.598V132.324H263.718ZM269.376 137.64V141H267.768V137.64L264.606 132.324H266.028C266.168 132.324 266.278 132.358 266.358 132.426C266.442 132.494 266.512 132.58 266.568 132.684L268.152 135.582C268.244 135.754 268.324 135.916 268.392 136.068C268.464 136.22 268.528 136.372 268.584 136.524C268.636 136.372 268.696 136.22 268.764 136.068C268.832 135.916 268.91 135.754 268.998 135.582L270.576 132.684C270.62 132.596 270.686 132.514 270.774 132.438C270.862 132.362 270.974 132.324 271.11 132.324H272.538L269.376 137.64ZM283.171 132.324V141H282.343C282.215 141 282.107 140.98 282.019 140.94C281.935 140.896 281.853 140.824 281.773 140.724L277.243 134.94C277.267 135.204 277.279 135.448 277.279 135.672V141H275.857V132.324H276.703C276.771 132.324 276.829 132.328 276.877 132.336C276.929 132.34 276.973 132.352 277.009 132.372C277.049 132.388 277.087 132.414 277.123 132.45C277.159 132.482 277.199 132.526 277.243 132.582L281.791 138.39C281.779 138.25 281.769 138.112 281.761 137.976C281.753 137.84 281.749 137.714 281.749 137.598V132.324H283.171ZM289.687 137.724L288.631 134.838C288.579 134.71 288.525 134.558 288.469 134.382C288.413 134.206 288.357 134.016 288.301 133.812C288.249 134.016 288.195 134.208 288.139 134.388C288.083 134.564 288.029 134.718 287.977 134.85L286.927 137.724H289.687ZM292.537 141H291.289C291.149 141 291.035 140.966 290.947 140.898C290.859 140.826 290.793 140.738 290.749 140.634L290.101 138.864H286.507L285.859 140.634C285.827 140.726 285.765 140.81 285.673 140.886C285.581 140.962 285.467 141 285.331 141H284.071L287.485 132.324H289.129L292.537 141ZM302.843 132.324V141H301.421V135.396C301.421 135.172 301.433 134.93 301.457 134.67L298.835 139.596C298.711 139.832 298.521 139.95 298.265 139.95H298.037C297.781 139.95 297.591 139.832 297.467 139.596L294.815 134.652C294.827 134.784 294.837 134.914 294.845 135.042C294.853 135.17 294.857 135.288 294.857 135.396V141H293.435V132.324H294.653C294.725 132.324 294.787 132.326 294.839 132.33C294.891 132.334 294.937 132.344 294.977 132.36C295.021 132.376 295.059 132.402 295.091 132.438C295.127 132.474 295.161 132.522 295.193 132.582L297.791 137.4C297.859 137.528 297.921 137.66 297.977 137.796C298.037 137.932 298.095 138.072 298.151 138.216C298.207 138.068 298.265 137.926 298.325 137.79C298.385 137.65 298.449 137.516 298.517 137.388L301.079 132.582C301.111 132.522 301.145 132.474 301.181 132.438C301.217 132.402 301.255 132.376 301.295 132.36C301.339 132.344 301.387 132.334 301.439 132.33C301.491 132.326 301.553 132.324 301.625 132.324H302.843ZM306.399 133.608V136.014H309.435V137.256H306.399V139.71H310.251V141H304.779V132.324H310.251V133.608H306.399Z" fill="#97A3AF"/>
</g>
<path d="M436.216 90.5326L514.095 289.016L302.639 256.5L436.216 90.5326Z" fill="#FFBE55" fill-opacity="0.22"/>
<path d="M436.216 90.5326L302.639 256.5L302.64 220L436.216 90.5326Z" fill="#FFBE55" fill-opacity="0.22"/>
<rect x="431" y="82" width="192" height="359" rx="20" fill="#2A94F4"/>
<rect x="439" y="90" width="176" height="344" rx="20" fill="white"/>
<rect x="447" y="354" width="160" height="42" rx="5" fill="#FFBE55"/>
<path d="M500.924 377.954C501.012 377.954 501.09 377.988 501.158 378.056L501.794 378.746C501.442 379.182 501.008 379.516 500.492 379.748C499.98 379.98 499.364 380.096 498.644 380.096C498 380.096 497.42 379.986 496.904 379.766C496.392 379.546 495.954 379.24 495.59 378.848C495.226 378.456 494.946 377.988 494.75 377.444C494.558 376.9 494.462 376.306 494.462 375.662C494.462 375.01 494.566 374.414 494.774 373.874C494.982 373.33 495.274 372.862 495.65 372.47C496.03 372.078 496.482 371.774 497.006 371.558C497.53 371.338 498.11 371.228 498.746 371.228C499.378 371.228 499.938 371.332 500.426 371.54C500.918 371.748 501.336 372.02 501.68 372.356L501.14 373.106C501.108 373.154 501.066 373.196 501.014 373.232C500.966 373.268 500.898 373.286 500.81 373.286C500.75 373.286 500.688 373.27 500.624 373.238C500.56 373.202 500.49 373.16 500.414 373.112C500.338 373.06 500.25 373.004 500.15 372.944C500.05 372.884 499.934 372.83 499.802 372.782C499.67 372.73 499.516 372.688 499.34 372.656C499.168 372.62 498.968 372.602 498.74 372.602C498.352 372.602 497.996 372.672 497.672 372.812C497.352 372.948 497.076 373.148 496.844 373.412C496.612 373.672 496.432 373.992 496.304 374.372C496.176 374.748 496.112 375.178 496.112 375.662C496.112 376.15 496.18 376.584 496.316 376.964C496.456 377.344 496.644 377.664 496.88 377.924C497.116 378.184 497.394 378.384 497.714 378.524C498.034 378.66 498.378 378.728 498.746 378.728C498.966 378.728 499.164 378.716 499.34 378.692C499.52 378.668 499.684 378.63 499.832 378.578C499.984 378.526 500.126 378.46 500.258 378.38C500.394 378.296 500.528 378.194 500.66 378.074C500.7 378.038 500.742 378.01 500.786 377.99C500.83 377.966 500.876 377.954 500.924 377.954ZM507.484 376.724L506.428 373.838C506.376 373.71 506.322 373.558 506.266 373.382C506.21 373.206 506.154 373.016 506.098 372.812C506.046 373.016 505.992 373.208 505.936 373.388C505.88 373.564 505.826 373.718 505.774 373.85L504.724 376.724H507.484ZM510.334 380H509.086C508.946 380 508.832 379.966 508.744 379.898C508.656 379.826 508.59 379.738 508.546 379.634L507.898 377.864H504.304L503.656 379.634C503.624 379.726 503.562 379.81 503.47 379.886C503.378 379.962 503.264 380 503.128 380H501.868L505.282 371.324H506.926L510.334 380ZM516.314 378.668V380H511.232V371.324H512.846V378.668H516.314ZM522.548 378.668V380H517.466V371.324H519.08V378.668H522.548ZM533.569 371.324V380H532.741C532.613 380 532.505 379.98 532.417 379.94C532.333 379.896 532.251 379.824 532.171 379.724L527.641 373.94C527.665 374.204 527.677 374.448 527.677 374.672V380H526.255V371.324H527.101C527.169 371.324 527.227 371.328 527.275 371.336C527.327 371.34 527.371 371.352 527.407 371.372C527.447 371.388 527.485 371.414 527.521 371.45C527.557 371.482 527.597 371.526 527.641 371.582L532.189 377.39C532.177 377.25 532.167 377.112 532.159 376.976C532.151 376.84 532.147 376.714 532.147 376.598V371.324H533.569ZM543.775 375.662C543.775 376.298 543.669 376.888 543.457 377.432C543.249 377.972 542.953 378.44 542.569 378.836C542.185 379.232 541.723 379.542 541.183 379.766C540.643 379.986 540.043 380.096 539.383 380.096C538.727 380.096 538.129 379.986 537.589 379.766C537.049 379.542 536.585 379.232 536.197 378.836C535.813 378.44 535.515 377.972 535.303 377.432C535.091 376.888 534.985 376.298 534.985 375.662C534.985 375.026 535.091 374.438 535.303 373.898C535.515 373.354 535.813 372.884 536.197 372.488C536.585 372.092 537.049 371.784 537.589 371.564C538.129 371.34 538.727 371.228 539.383 371.228C539.823 371.228 540.237 371.28 540.625 371.384C541.013 371.484 541.369 371.628 541.693 371.816C542.017 372 542.307 372.226 542.563 372.494C542.823 372.758 543.043 373.054 543.223 373.382C543.403 373.71 543.539 374.066 543.631 374.45C543.727 374.834 543.775 375.238 543.775 375.662ZM542.125 375.662C542.125 375.186 542.061 374.76 541.933 374.384C541.805 374.004 541.623 373.682 541.387 373.418C541.151 373.154 540.863 372.952 540.523 372.812C540.187 372.672 539.807 372.602 539.383 372.602C538.959 372.602 538.577 372.672 538.237 372.812C537.901 372.952 537.613 373.154 537.373 373.418C537.137 373.682 536.955 374.004 536.827 374.384C536.699 374.76 536.635 375.186 536.635 375.662C536.635 376.138 536.699 376.566 536.827 376.946C536.955 377.322 537.137 377.642 537.373 377.906C537.613 378.166 537.901 378.366 538.237 378.506C538.577 378.646 538.959 378.716 539.383 378.716C539.807 378.716 540.187 378.646 540.523 378.506C540.863 378.366 541.151 378.166 541.387 377.906C541.623 377.642 541.805 377.322 541.933 376.946C542.061 376.566 542.125 376.138 542.125 375.662ZM556.561 371.324L553.867 380H552.409L550.513 374.072C550.461 373.928 550.413 373.752 550.369 373.544C550.345 373.644 550.321 373.738 550.297 373.826C550.273 373.914 550.247 373.996 550.219 374.072L548.305 380H546.841L544.153 371.324H545.503C545.643 371.324 545.759 371.358 545.851 371.426C545.947 371.49 546.011 371.578 546.043 371.69L547.519 376.88C547.551 377.008 547.581 377.148 547.609 377.3C547.641 377.448 547.673 377.604 547.705 377.768C547.737 377.6 547.771 377.442 547.807 377.294C547.847 377.146 547.889 377.008 547.933 376.88L549.637 371.69C549.669 371.598 549.731 371.514 549.823 371.438C549.919 371.362 550.035 371.324 550.171 371.324H550.645C550.785 371.324 550.899 371.358 550.987 371.426C551.075 371.494 551.141 371.582 551.185 371.69L552.883 376.88C552.967 377.128 553.043 377.414 553.111 377.738C553.163 377.422 553.221 377.136 553.285 376.88L554.761 371.69C554.785 371.59 554.845 371.504 554.941 371.432C555.041 371.36 555.159 371.324 555.295 371.324H556.561Z" fill="white"/>
<g clip-path="url(#clip2)">
<path d="M475.185 379.911C474.446 380.485 473.396 380.435 472.724 379.763L467.244 374.283C466.571 373.61 466.522 372.544 467.096 371.822L460.157 364.866C457.138 368.344 457.302 373.627 460.6 376.925L470.082 386.407C473.444 389.769 478.786 389.803 482.141 386.85L475.185 379.911Z" fill="white"/>
<path d="M468.819 366.589L465.341 363.094C464.422 362.175 462.798 362.175 461.863 363.094L461.289 363.685L468.245 370.641L468.819 370.067C469.295 369.591 469.541 368.984 469.541 368.328C469.541 367.671 469.295 367.048 468.819 366.589Z" fill="white"/>
<path d="M483.913 381.666L480.418 378.188C479.5 377.253 477.875 377.253 476.94 378.188L476.366 378.762L483.322 385.718L483.913 385.144C484.372 384.685 484.618 384.061 484.618 383.405C484.618 382.749 484.372 382.125 483.913 381.666Z" fill="white"/>
<path d="M472.051 361C470.97 361 470.965 362.63 472.051 362.63C478.836 362.63 484.367 368.16 484.367 374.945C484.367 376.027 485.996 376.031 485.996 374.945C485.996 367.256 479.741 361 472.051 361Z" fill="white"/>
<path d="M472.051 364.281C470.97 364.281 470.965 365.911 472.051 365.911C477.026 365.911 481.085 369.97 481.085 374.945C481.085 376.027 482.715 376.031 482.715 374.945C482.715 369.065 477.931 364.281 472.051 364.281Z" fill="white"/>
<path d="M472.051 367.563C470.97 367.563 470.965 369.192 472.051 369.192C475.217 369.192 477.804 371.779 477.804 374.945C477.804 376.027 479.434 376.031 479.434 374.945C479.434 370.874 476.122 367.563 472.051 367.563Z" fill="white"/>
<path d="M472.051 370.844C470.97 370.844 470.965 372.484 472.051 372.484C473.408 372.484 474.512 373.588 474.512 374.945C474.512 376.027 476.153 376.031 476.153 374.945C476.153 372.684 474.312 370.844 472.051 370.844Z" fill="white"/>
</g>
<rect x="447" y="306" width="160" height="42" rx="5" fill="#FFBE55"/>
<g clip-path="url(#clip3)">
<path d="M472.434 313H472.427C464.247 313 457.596 319.279 457.596 327C457.596 330.063 458.642 332.901 460.42 335.206L458.571 340.407L464.273 338.687C466.619 340.153 469.417 341 472.434 341C480.613 341 487.265 334.719 487.265 327C487.265 319.281 480.613 313 472.434 313ZM481.066 332.77C480.708 333.724 479.288 334.515 478.155 334.746C477.38 334.901 476.367 335.026 472.959 333.692C468.599 331.988 465.792 327.807 465.573 327.536C465.364 327.264 463.812 325.322 463.812 323.313C463.812 321.304 464.893 320.326 465.328 319.906C465.686 319.561 466.278 319.403 466.845 319.403C467.029 319.403 467.194 319.412 467.342 319.419C467.778 319.437 467.997 319.461 468.284 320.11C468.642 320.924 469.514 322.933 469.617 323.14C469.723 323.346 469.829 323.626 469.68 323.897C469.541 324.177 469.419 324.302 469.2 324.54C468.981 324.778 468.774 324.96 468.555 325.215C468.355 325.437 468.128 325.675 468.381 326.087C468.633 326.489 469.504 327.831 470.787 328.909C472.443 330.301 473.786 330.745 474.266 330.934C474.624 331.074 475.051 331.041 475.312 330.778C475.644 330.441 476.054 329.881 476.471 329.329C476.768 328.934 477.142 328.885 477.535 329.025C477.936 329.156 480.055 330.145 480.491 330.35C480.927 330.556 481.214 330.654 481.32 330.827C481.424 331.001 481.424 331.814 481.066 332.77Z" fill="white"/>
</g>
<path d="M499.586 324.902C499.538 324.986 499.486 325.048 499.43 325.088C499.378 325.124 499.312 325.142 499.232 325.142C499.148 325.142 499.056 325.112 498.956 325.052C498.86 324.988 498.744 324.918 498.608 324.842C498.472 324.766 498.312 324.698 498.128 324.638C497.948 324.574 497.734 324.542 497.486 324.542C497.262 324.542 497.066 324.57 496.898 324.626C496.73 324.678 496.588 324.752 496.472 324.848C496.36 324.944 496.276 325.06 496.22 325.196C496.164 325.328 496.136 325.474 496.136 325.634C496.136 325.838 496.192 326.008 496.304 326.144C496.42 326.28 496.572 326.396 496.76 326.492C496.948 326.588 497.162 326.674 497.402 326.75C497.642 326.826 497.888 326.908 498.14 326.996C498.392 327.08 498.638 327.18 498.878 327.296C499.118 327.408 499.332 327.552 499.52 327.728C499.708 327.9 499.858 328.112 499.97 328.364C500.086 328.616 500.144 328.922 500.144 329.282C500.144 329.674 500.076 330.042 499.94 330.386C499.808 330.726 499.612 331.024 499.352 331.28C499.096 331.532 498.782 331.732 498.41 331.88C498.038 332.024 497.612 332.096 497.132 332.096C496.856 332.096 496.584 332.068 496.316 332.012C496.048 331.96 495.79 331.884 495.542 331.784C495.298 331.684 495.068 331.564 494.852 331.424C494.636 331.284 494.444 331.128 494.276 330.956L494.75 330.182C494.79 330.126 494.842 330.08 494.906 330.044C494.97 330.004 495.038 329.984 495.11 329.984C495.21 329.984 495.318 330.026 495.434 330.11C495.55 330.19 495.688 330.28 495.848 330.38C496.008 330.48 496.194 330.572 496.406 330.656C496.622 330.736 496.88 330.776 497.18 330.776C497.64 330.776 497.996 330.668 498.248 330.452C498.5 330.232 498.626 329.918 498.626 329.51C498.626 329.282 498.568 329.096 498.452 328.952C498.34 328.808 498.19 328.688 498.002 328.592C497.814 328.492 497.6 328.408 497.36 328.34C497.12 328.272 496.876 328.198 496.628 328.118C496.38 328.038 496.136 327.942 495.896 327.83C495.656 327.718 495.442 327.572 495.254 327.392C495.066 327.212 494.914 326.988 494.798 326.72C494.686 326.448 494.63 326.114 494.63 325.718C494.63 325.402 494.692 325.094 494.816 324.794C494.944 324.494 495.128 324.228 495.368 323.996C495.608 323.764 495.904 323.578 496.256 323.438C496.608 323.298 497.012 323.228 497.468 323.228C497.98 323.228 498.452 323.308 498.884 323.468C499.316 323.628 499.684 323.852 499.988 324.14L499.586 324.902ZM503.172 324.608V327.014H506.208V328.256H503.172V330.71H507.024V332H501.552V323.324H507.024V324.608H503.172ZM515.768 323.324V332H514.94C514.812 332 514.704 331.98 514.616 331.94C514.532 331.896 514.45 331.824 514.37 331.724L509.84 325.94C509.864 326.204 509.876 326.448 509.876 326.672V332H508.454V323.324H509.3C509.368 323.324 509.426 323.328 509.474 323.336C509.526 323.34 509.57 323.352 509.606 323.372C509.646 323.388 509.684 323.414 509.72 323.45C509.756 323.482 509.796 323.526 509.84 323.582L514.388 329.39C514.376 329.25 514.366 329.112 514.358 328.976C514.35 328.84 514.346 328.714 514.346 328.598V323.324H515.768ZM525.404 327.662C525.404 328.298 525.298 328.882 525.086 329.414C524.874 329.946 524.576 330.404 524.192 330.788C523.808 331.172 523.346 331.47 522.806 331.682C522.266 331.894 521.666 332 521.006 332H517.7V323.324H521.006C521.666 323.324 522.266 323.432 522.806 323.648C523.346 323.86 523.808 324.158 524.192 324.542C524.576 324.922 524.874 325.378 525.086 325.91C525.298 326.442 525.404 327.026 525.404 327.662ZM523.748 327.662C523.748 327.186 523.684 326.76 523.556 326.384C523.432 326.004 523.25 325.684 523.01 325.424C522.774 325.16 522.486 324.958 522.146 324.818C521.81 324.678 521.43 324.608 521.006 324.608H519.32V330.716H521.006C521.43 330.716 521.81 330.646 522.146 330.506C522.486 330.366 522.774 330.166 523.01 329.906C523.25 329.642 523.432 329.322 523.556 328.946C523.684 328.566 523.748 328.138 523.748 327.662ZM541.209 323.324L538.515 332H537.057L535.161 326.072C535.109 325.928 535.061 325.752 535.017 325.544C534.993 325.644 534.969 325.738 534.945 325.826C534.921 325.914 534.895 325.996 534.867 326.072L532.953 332H531.489L528.801 323.324H530.151C530.291 323.324 530.407 323.358 530.499 323.426C530.595 323.49 530.659 323.578 530.691 323.69L532.167 328.88C532.199 329.008 532.229 329.148 532.257 329.3C532.289 329.448 532.321 329.604 532.353 329.768C532.385 329.6 532.419 329.442 532.455 329.294C532.495 329.146 532.537 329.008 532.581 328.88L534.285 323.69C534.317 323.598 534.379 323.514 534.471 323.438C534.567 323.362 534.683 323.324 534.819 323.324H535.293C535.433 323.324 535.547 323.358 535.635 323.426C535.723 323.494 535.789 323.582 535.833 323.69L537.531 328.88C537.615 329.128 537.691 329.414 537.759 329.738C537.811 329.422 537.869 329.136 537.933 328.88L539.409 323.69C539.433 323.59 539.493 323.504 539.589 323.432C539.689 323.36 539.807 323.324 539.943 323.324H541.209ZM549.589 323.324V332H547.969V328.208H543.895V332H542.275V323.324H543.895V327.056H547.969V323.324H549.589ZM556.105 328.724L555.049 325.838C554.997 325.71 554.943 325.558 554.887 325.382C554.831 325.206 554.775 325.016 554.719 324.812C554.667 325.016 554.613 325.208 554.557 325.388C554.501 325.564 554.447 325.718 554.395 325.85L553.345 328.724H556.105ZM558.955 332H557.707C557.567 332 557.453 331.966 557.365 331.898C557.277 331.826 557.211 331.738 557.167 331.634L556.519 329.864H552.925L552.277 331.634C552.245 331.726 552.183 331.81 552.091 331.886C551.999 331.962 551.885 332 551.749 332H550.489L553.903 323.324H555.547L558.955 332ZM565.069 324.65H562.453V332H560.839V324.65H558.223V323.324H565.069V324.65ZM570.801 324.902C570.753 324.986 570.701 325.048 570.645 325.088C570.593 325.124 570.527 325.142 570.447 325.142C570.363 325.142 570.271 325.112 570.171 325.052C570.075 324.988 569.959 324.918 569.823 324.842C569.687 324.766 569.527 324.698 569.343 324.638C569.163 324.574 568.949 324.542 568.701 324.542C568.477 324.542 568.281 324.57 568.113 324.626C567.945 324.678 567.803 324.752 567.687 324.848C567.575 324.944 567.491 325.06 567.435 325.196C567.379 325.328 567.351 325.474 567.351 325.634C567.351 325.838 567.407 326.008 567.519 326.144C567.635 326.28 567.787 326.396 567.975 326.492C568.163 326.588 568.377 326.674 568.617 326.75C568.857 326.826 569.103 326.908 569.355 326.996C569.607 327.08 569.853 327.18 570.093 327.296C570.333 327.408 570.547 327.552 570.735 327.728C570.923 327.9 571.073 328.112 571.185 328.364C571.301 328.616 571.359 328.922 571.359 329.282C571.359 329.674 571.291 330.042 571.155 330.386C571.023 330.726 570.827 331.024 570.567 331.28C570.311 331.532 569.997 331.732 569.625 331.88C569.253 332.024 568.827 332.096 568.347 332.096C568.071 332.096 567.799 332.068 567.531 332.012C567.263 331.96 567.005 331.884 566.757 331.784C566.513 331.684 566.283 331.564 566.067 331.424C565.851 331.284 565.659 331.128 565.491 330.956L565.965 330.182C566.005 330.126 566.057 330.08 566.121 330.044C566.185 330.004 566.253 329.984 566.325 329.984C566.425 329.984 566.533 330.026 566.649 330.11C566.765 330.19 566.903 330.28 567.063 330.38C567.223 330.48 567.409 330.572 567.621 330.656C567.837 330.736 568.095 330.776 568.395 330.776C568.855 330.776 569.211 330.668 569.463 330.452C569.715 330.232 569.841 329.918 569.841 329.51C569.841 329.282 569.783 329.096 569.667 328.952C569.555 328.808 569.405 328.688 569.217 328.592C569.029 328.492 568.815 328.408 568.575 328.34C568.335 328.272 568.091 328.198 567.843 328.118C567.595 328.038 567.351 327.942 567.111 327.83C566.871 327.718 566.657 327.572 566.469 327.392C566.281 327.212 566.129 326.988 566.013 326.72C565.901 326.448 565.845 326.114 565.845 325.718C565.845 325.402 565.907 325.094 566.031 324.794C566.159 324.494 566.343 324.228 566.583 323.996C566.823 323.764 567.119 323.578 567.471 323.438C567.823 323.298 568.227 323.228 568.683 323.228C569.195 323.228 569.667 323.308 570.099 323.468C570.531 323.628 570.899 323.852 571.203 324.14L570.801 324.902ZM577.175 328.724L576.119 325.838C576.067 325.71 576.013 325.558 575.957 325.382C575.901 325.206 575.845 325.016 575.789 324.812C575.737 325.016 575.683 325.208 575.627 325.388C575.571 325.564 575.517 325.718 575.465 325.85L574.415 328.724H577.175ZM580.025 332H578.777C578.637 332 578.523 331.966 578.435 331.898C578.347 331.826 578.281 331.738 578.237 331.634L577.589 329.864H573.995L573.347 331.634C573.315 331.726 573.253 331.81 573.161 331.886C573.069 331.962 572.955 332 572.819 332H571.559L574.973 323.324H576.617L580.025 332ZM583.743 327.686C584.039 327.686 584.297 327.65 584.517 327.578C584.737 327.502 584.919 327.396 585.063 327.26C585.211 327.12 585.321 326.952 585.393 326.756C585.465 326.556 585.501 326.334 585.501 326.09C585.501 325.858 585.465 325.648 585.393 325.46C585.321 325.272 585.213 325.112 585.069 324.98C584.925 324.848 584.743 324.748 584.523 324.68C584.303 324.608 584.043 324.572 583.743 324.572H582.537V327.686H583.743ZM583.743 323.324C584.323 323.324 584.825 323.392 585.249 323.528C585.673 323.664 586.023 323.854 586.299 324.098C586.575 324.342 586.779 324.634 586.911 324.974C587.047 325.314 587.115 325.686 587.115 326.09C587.115 326.51 587.045 326.896 586.905 327.248C586.765 327.596 586.555 327.896 586.275 328.148C585.995 328.4 585.643 328.596 585.219 328.736C584.799 328.876 584.307 328.946 583.743 328.946H582.537V332H580.923V323.324H583.743ZM591.173 327.686C591.469 327.686 591.727 327.65 591.947 327.578C592.167 327.502 592.349 327.396 592.493 327.26C592.641 327.12 592.751 326.952 592.823 326.756C592.895 326.556 592.931 326.334 592.931 326.09C592.931 325.858 592.895 325.648 592.823 325.46C592.751 325.272 592.643 325.112 592.499 324.98C592.355 324.848 592.173 324.748 591.953 324.68C591.733 324.608 591.473 324.572 591.173 324.572H589.967V327.686H591.173ZM591.173 323.324C591.753 323.324 592.255 323.392 592.679 323.528C593.103 323.664 593.453 323.854 593.729 324.098C594.005 324.342 594.209 324.634 594.341 324.974C594.477 325.314 594.545 325.686 594.545 326.09C594.545 326.51 594.475 326.896 594.335 327.248C594.195 327.596 593.985 327.896 593.705 328.148C593.425 328.4 593.073 328.596 592.649 328.736C592.229 328.876 591.737 328.946 591.173 328.946H589.967V332H588.353V323.324H591.173Z" fill="white"/>
<g clip-path="url(#clip4)">
<path d="M551.375 260H502.625C494.547 260 488 253.453 488 245.375V196.625C488 188.547 494.547 182 502.625 182H551.375C559.453 182 566 188.547 566 196.625V245.375C566 253.453 559.453 260 551.375 260Z" fill="#FFF9DD"/>
<path d="M517.657 233.999C515.056 233.999 512.741 232.334 511.9 229.853L511.844 229.665C511.646 229.007 511.561 228.456 511.561 227.903V216.825L507.622 229.987C507.115 231.922 508.27 233.931 510.208 234.465L535.336 241.195C535.648 241.278 535.963 241.314 536.27 241.314C537.888 241.314 539.368 240.242 539.78 238.657L541.242 234.002H517.657V233.999Z" fill="#FFD200"/>
<path d="M522.125 216.937C523.917 216.937 525.374 215.479 525.374 213.688C525.374 211.896 523.917 210.438 522.125 210.438C520.334 210.438 518.876 211.896 518.876 213.688C518.876 215.479 520.334 216.937 522.125 216.937Z" fill="#FFE777"/>
<path d="M542.437 205.563H518.062C515.822 205.563 513.999 207.387 513.999 209.627V227.501C513.999 229.741 515.822 231.564 518.062 231.564H542.437C544.677 231.564 546.5 229.741 546.5 227.501V209.627C546.5 207.384 544.677 205.563 542.437 205.563ZM518.062 208.813H542.437C542.885 208.813 543.249 209.176 543.249 209.624V221.161L538.115 215.172C537.572 214.533 536.782 214.192 535.936 214.173C535.095 214.177 534.303 214.55 533.764 215.199L527.731 222.443L525.767 220.478C524.655 219.367 522.847 219.367 521.735 220.478L517.25 224.963V209.624C517.25 209.176 517.613 208.813 518.062 208.813Z" fill="#FFD200"/>
</g>
<path d="M463.692 144.64V148H462.084V144.64L458.922 139.324H460.344C460.484 139.324 460.594 139.358 460.674 139.426C460.758 139.494 460.828 139.58 460.884 139.684L462.468 142.582C462.56 142.754 462.64 142.916 462.708 143.068C462.78 143.22 462.844 143.372 462.9 143.524C462.952 143.372 463.012 143.22 463.08 143.068C463.148 142.916 463.226 142.754 463.314 142.582L464.892 139.684C464.936 139.596 465.002 139.514 465.09 139.438C465.178 139.362 465.29 139.324 465.426 139.324H466.854L463.692 144.64ZM475.517 143.662C475.517 144.298 475.411 144.888 475.199 145.432C474.991 145.972 474.695 146.44 474.311 146.836C473.927 147.232 473.465 147.542 472.925 147.766C472.385 147.986 471.785 148.096 471.125 148.096C470.469 148.096 469.871 147.986 469.331 147.766C468.791 147.542 468.327 147.232 467.939 146.836C467.555 146.44 467.257 145.972 467.045 145.432C466.833 144.888 466.727 144.298 466.727 143.662C466.727 143.026 466.833 142.438 467.045 141.898C467.257 141.354 467.555 140.884 467.939 140.488C468.327 140.092 468.791 139.784 469.331 139.564C469.871 139.34 470.469 139.228 471.125 139.228C471.565 139.228 471.979 139.28 472.367 139.384C472.755 139.484 473.111 139.628 473.435 139.816C473.759 140 474.049 140.226 474.305 140.494C474.565 140.758 474.785 141.054 474.965 141.382C475.145 141.71 475.281 142.066 475.373 142.45C475.469 142.834 475.517 143.238 475.517 143.662ZM473.867 143.662C473.867 143.186 473.803 142.76 473.675 142.384C473.547 142.004 473.365 141.682 473.129 141.418C472.893 141.154 472.605 140.952 472.265 140.812C471.929 140.672 471.549 140.602 471.125 140.602C470.701 140.602 470.319 140.672 469.979 140.812C469.643 140.952 469.355 141.154 469.115 141.418C468.879 141.682 468.697 142.004 468.569 142.384C468.441 142.76 468.377 143.186 468.377 143.662C468.377 144.138 468.441 144.566 468.569 144.946C468.697 145.322 468.879 145.642 469.115 145.906C469.355 146.166 469.643 146.366 469.979 146.506C470.319 146.646 470.701 146.716 471.125 146.716C471.549 146.716 471.929 146.646 472.265 146.506C472.605 146.366 472.893 146.166 473.129 145.906C473.365 145.642 473.547 145.322 473.675 144.946C473.803 144.566 473.867 144.138 473.867 143.662ZM480.427 146.698C480.739 146.698 481.017 146.646 481.261 146.542C481.509 146.438 481.717 146.292 481.885 146.104C482.053 145.916 482.181 145.688 482.269 145.42C482.361 145.152 482.407 144.852 482.407 144.52V139.324H484.021V144.52C484.021 145.036 483.937 145.514 483.769 145.954C483.605 146.39 483.367 146.768 483.055 147.088C482.747 147.404 482.371 147.652 481.927 147.832C481.483 148.008 480.983 148.096 480.427 148.096C479.867 148.096 479.365 148.008 478.921 147.832C478.477 147.652 478.099 147.404 477.787 147.088C477.479 146.768 477.241 146.39 477.073 145.954C476.909 145.514 476.827 145.036 476.827 144.52V139.324H478.441V144.514C478.441 144.846 478.485 145.146 478.573 145.414C478.665 145.682 478.795 145.912 478.963 146.104C479.135 146.292 479.343 146.438 479.587 146.542C479.835 146.646 480.115 146.698 480.427 146.698ZM488.463 143.452C488.767 143.452 489.031 143.414 489.255 143.338C489.483 143.262 489.669 143.158 489.813 143.026C489.961 142.89 490.071 142.73 490.143 142.546C490.215 142.362 490.251 142.16 490.251 141.94C490.251 141.5 490.105 141.162 489.813 140.926C489.525 140.69 489.083 140.572 488.487 140.572H487.455V143.452H488.463ZM492.615 148H491.157C490.881 148 490.681 147.892 490.557 147.676L488.733 144.898C488.665 144.794 488.589 144.72 488.505 144.676C488.425 144.632 488.305 144.61 488.145 144.61H487.455V148H485.841V139.324H488.487C489.075 139.324 489.579 139.386 489.999 139.51C490.423 139.63 490.769 139.8 491.037 140.02C491.309 140.24 491.509 140.504 491.637 140.812C491.765 141.116 491.829 141.452 491.829 141.82C491.829 142.112 491.785 142.388 491.697 142.648C491.613 142.908 491.489 143.144 491.325 143.356C491.165 143.568 490.965 143.754 490.725 143.914C490.489 144.074 490.219 144.2 489.915 144.292C490.019 144.352 490.115 144.424 490.203 144.508C490.291 144.588 490.371 144.684 490.443 144.796L492.615 148ZM502.428 145.954C502.516 145.954 502.594 145.988 502.662 146.056L503.298 146.746C502.946 147.182 502.512 147.516 501.996 147.748C501.484 147.98 500.868 148.096 500.148 148.096C499.504 148.096 498.924 147.986 498.408 147.766C497.896 147.546 497.458 147.24 497.094 146.848C496.73 146.456 496.45 145.988 496.254 145.444C496.062 144.9 495.966 144.306 495.966 143.662C495.966 143.01 496.07 142.414 496.278 141.874C496.486 141.33 496.778 140.862 497.154 140.47C497.534 140.078 497.986 139.774 498.51 139.558C499.034 139.338 499.614 139.228 500.25 139.228C500.882 139.228 501.442 139.332 501.93 139.54C502.422 139.748 502.84 140.02 503.184 140.356L502.644 141.106C502.612 141.154 502.57 141.196 502.518 141.232C502.47 141.268 502.402 141.286 502.314 141.286C502.254 141.286 502.192 141.27 502.128 141.238C502.064 141.202 501.994 141.16 501.918 141.112C501.842 141.06 501.754 141.004 501.654 140.944C501.554 140.884 501.438 140.83 501.306 140.782C501.174 140.73 501.02 140.688 500.844 140.656C500.672 140.62 500.472 140.602 500.244 140.602C499.856 140.602 499.5 140.672 499.176 140.812C498.856 140.948 498.58 141.148 498.348 141.412C498.116 141.672 497.936 141.992 497.808 142.372C497.68 142.748 497.616 143.178 497.616 143.662C497.616 144.15 497.684 144.584 497.82 144.964C497.96 145.344 498.148 145.664 498.384 145.924C498.62 146.184 498.898 146.384 499.218 146.524C499.538 146.66 499.882 146.728 500.25 146.728C500.47 146.728 500.668 146.716 500.844 146.692C501.024 146.668 501.188 146.63 501.336 146.578C501.488 146.526 501.63 146.46 501.762 146.38C501.898 146.296 502.032 146.194 502.164 146.074C502.204 146.038 502.246 146.01 502.29 145.99C502.334 145.966 502.38 145.954 502.428 145.954ZM512.49 143.662C512.49 144.298 512.384 144.888 512.172 145.432C511.964 145.972 511.668 146.44 511.284 146.836C510.9 147.232 510.438 147.542 509.898 147.766C509.358 147.986 508.758 148.096 508.098 148.096C507.442 148.096 506.844 147.986 506.304 147.766C505.764 147.542 505.3 147.232 504.912 146.836C504.528 146.44 504.23 145.972 504.018 145.432C503.806 144.888 503.7 144.298 503.7 143.662C503.7 143.026 503.806 142.438 504.018 141.898C504.23 141.354 504.528 140.884 504.912 140.488C505.3 140.092 505.764 139.784 506.304 139.564C506.844 139.34 507.442 139.228 508.098 139.228C508.538 139.228 508.952 139.28 509.34 139.384C509.728 139.484 510.084 139.628 510.408 139.816C510.732 140 511.022 140.226 511.278 140.494C511.538 140.758 511.758 141.054 511.938 141.382C512.118 141.71 512.254 142.066 512.346 142.45C512.442 142.834 512.49 143.238 512.49 143.662ZM510.84 143.662C510.84 143.186 510.776 142.76 510.648 142.384C510.52 142.004 510.338 141.682 510.102 141.418C509.866 141.154 509.578 140.952 509.238 140.812C508.902 140.672 508.522 140.602 508.098 140.602C507.674 140.602 507.292 140.672 506.952 140.812C506.616 140.952 506.328 141.154 506.088 141.418C505.852 141.682 505.67 142.004 505.542 142.384C505.414 142.76 505.35 143.186 505.35 143.662C505.35 144.138 505.414 144.566 505.542 144.946C505.67 145.322 505.852 145.642 506.088 145.906C506.328 146.166 506.616 146.366 506.952 146.506C507.292 146.646 507.674 146.716 508.098 146.716C508.522 146.716 508.902 146.646 509.238 146.506C509.578 146.366 509.866 146.166 510.102 145.906C510.338 145.642 510.52 145.322 510.648 144.946C510.776 144.566 510.84 144.138 510.84 143.662ZM523.315 139.324V148H521.893V142.396C521.893 142.172 521.905 141.93 521.929 141.67L519.307 146.596C519.183 146.832 518.993 146.95 518.737 146.95H518.509C518.253 146.95 518.063 146.832 517.939 146.596L515.287 141.652C515.299 141.784 515.309 141.914 515.317 142.042C515.325 142.17 515.329 142.288 515.329 142.396V148H513.907V139.324H515.125C515.197 139.324 515.259 139.326 515.311 139.33C515.363 139.334 515.409 139.344 515.449 139.36C515.493 139.376 515.531 139.402 515.563 139.438C515.599 139.474 515.633 139.522 515.665 139.582L518.263 144.4C518.331 144.528 518.393 144.66 518.449 144.796C518.509 144.932 518.567 145.072 518.623 145.216C518.679 145.068 518.737 144.926 518.797 144.79C518.857 144.65 518.921 144.516 518.989 144.388L521.551 139.582C521.583 139.522 521.617 139.474 521.653 139.438C521.689 139.402 521.727 139.376 521.767 139.36C521.811 139.344 521.859 139.334 521.911 139.33C521.963 139.326 522.025 139.324 522.097 139.324H523.315ZM528.071 143.686C528.367 143.686 528.625 143.65 528.845 143.578C529.065 143.502 529.247 143.396 529.391 143.26C529.539 143.12 529.649 142.952 529.721 142.756C529.793 142.556 529.829 142.334 529.829 142.09C529.829 141.858 529.793 141.648 529.721 141.46C529.649 141.272 529.541 141.112 529.397 140.98C529.253 140.848 529.071 140.748 528.851 140.68C528.631 140.608 528.371 140.572 528.071 140.572H526.865V143.686H528.071ZM528.071 139.324C528.651 139.324 529.153 139.392 529.577 139.528C530.001 139.664 530.351 139.854 530.627 140.098C530.903 140.342 531.107 140.634 531.239 140.974C531.375 141.314 531.443 141.686 531.443 142.09C531.443 142.51 531.373 142.896 531.233 143.248C531.093 143.596 530.883 143.896 530.603 144.148C530.323 144.4 529.971 144.596 529.547 144.736C529.127 144.876 528.635 144.946 528.071 144.946H526.865V148H525.251V139.324H528.071ZM536.655 144.724L535.599 141.838C535.547 141.71 535.493 141.558 535.437 141.382C535.381 141.206 535.325 141.016 535.269 140.812C535.217 141.016 535.163 141.208 535.107 141.388C535.051 141.564 534.997 141.718 534.945 141.85L533.895 144.724H536.655ZM539.505 148H538.257C538.117 148 538.003 147.966 537.915 147.898C537.827 147.826 537.761 147.738 537.717 147.634L537.069 145.864H533.475L532.827 147.634C532.795 147.726 532.733 147.81 532.641 147.886C532.549 147.962 532.435 148 532.299 148H531.039L534.453 139.324H536.097L539.505 148ZM547.718 139.324V148H546.89C546.762 148 546.654 147.98 546.566 147.94C546.482 147.896 546.4 147.824 546.32 147.724L541.79 141.94C541.814 142.204 541.826 142.448 541.826 142.672V148H540.404V139.324H541.25C541.318 139.324 541.376 139.328 541.424 139.336C541.476 139.34 541.52 139.352 541.556 139.372C541.596 139.388 541.634 139.414 541.67 139.45C541.706 139.482 541.746 139.526 541.79 139.582L546.338 145.39C546.326 145.25 546.316 145.112 546.308 144.976C546.3 144.84 546.296 144.714 546.296 144.598V139.324H547.718ZM553.376 144.64V148H551.768V144.64L548.606 139.324H550.028C550.168 139.324 550.278 139.358 550.358 139.426C550.442 139.494 550.512 139.58 550.568 139.684L552.152 142.582C552.244 142.754 552.324 142.916 552.392 143.068C552.464 143.22 552.528 143.372 552.584 143.524C552.636 143.372 552.696 143.22 552.764 143.068C552.832 142.916 552.91 142.754 552.998 142.582L554.576 139.684C554.62 139.596 554.686 139.514 554.774 139.438C554.862 139.362 554.974 139.324 555.11 139.324H556.538L553.376 144.64ZM567.171 139.324V148H566.343C566.215 148 566.107 147.98 566.019 147.94C565.935 147.896 565.853 147.824 565.773 147.724L561.243 141.94C561.267 142.204 561.279 142.448 561.279 142.672V148H559.857V139.324H560.703C560.771 139.324 560.829 139.328 560.877 139.336C560.929 139.34 560.973 139.352 561.009 139.372C561.049 139.388 561.087 139.414 561.123 139.45C561.159 139.482 561.199 139.526 561.243 139.582L565.791 145.39C565.779 145.25 565.769 145.112 565.761 144.976C565.753 144.84 565.749 144.714 565.749 144.598V139.324H567.171ZM573.687 144.724L572.631 141.838C572.579 141.71 572.525 141.558 572.469 141.382C572.413 141.206 572.357 141.016 572.301 140.812C572.249 141.016 572.195 141.208 572.139 141.388C572.083 141.564 572.029 141.718 571.977 141.85L570.927 144.724H573.687ZM576.537 148H575.289C575.149 148 575.035 147.966 574.947 147.898C574.859 147.826 574.793 147.738 574.749 147.634L574.101 145.864H570.507L569.859 147.634C569.827 147.726 569.765 147.81 569.673 147.886C569.581 147.962 569.467 148 569.331 148H568.071L571.485 139.324H573.129L576.537 148ZM586.843 139.324V148H585.421V142.396C585.421 142.172 585.433 141.93 585.457 141.67L582.835 146.596C582.711 146.832 582.521 146.95 582.265 146.95H582.037C581.781 146.95 581.591 146.832 581.467 146.596L578.815 141.652C578.827 141.784 578.837 141.914 578.845 142.042C578.853 142.17 578.857 142.288 578.857 142.396V148H577.435V139.324H578.653C578.725 139.324 578.787 139.326 578.839 139.33C578.891 139.334 578.937 139.344 578.977 139.36C579.021 139.376 579.059 139.402 579.091 139.438C579.127 139.474 579.161 139.522 579.193 139.582L581.791 144.4C581.859 144.528 581.921 144.66 581.977 144.796C582.037 144.932 582.095 145.072 582.151 145.216C582.207 145.068 582.265 144.926 582.325 144.79C582.385 144.65 582.449 144.516 582.517 144.388L585.079 139.582C585.111 139.522 585.145 139.474 585.181 139.438C585.217 139.402 585.255 139.376 585.295 139.36C585.339 139.344 585.387 139.334 585.439 139.33C585.491 139.326 585.553 139.324 585.625 139.324H586.843ZM590.399 140.608V143.014H593.435V144.256H590.399V146.71H594.251V148H588.779V139.324H594.251V140.608H590.399Z" fill="#97A3AF"/>
<path d="M486.467 85H569.667V91C569.667 96.5229 565.19 101 559.667 101H496.467C490.944 101 486.467 96.5229 486.467 91V85Z" fill="#2A94F4"/>
<defs>
<linearGradient id="paint0_linear" x1="581.103" y1="314.965" x2="497.65" y2="379.34" gradientUnits="userSpaceOnUse">
<stop stop-color="#010101" stop-opacity="0"/>
<stop offset="0.95" stop-color="#010101"/>
</linearGradient>
<linearGradient id="paint1_linear" x1="33246.8" y1="36922.9" x2="21964.9" y2="39973.9" gradientUnits="userSpaceOnUse">
<stop stop-color="#010101" stop-opacity="0"/>
<stop offset="0.95" stop-color="#010101"/>
</linearGradient>
<linearGradient id="paint2_linear" x1="6859.76" y1="30256.3" x2="12784.3" y2="31525" gradientUnits="userSpaceOnUse">
<stop stop-color="#010101" stop-opacity="0"/>
<stop offset="0.95" stop-color="#010101"/>
</linearGradient>
<linearGradient id="paint3_linear" x1="8126.32" y1="35157.8" x2="21226.8" y2="37569.5" gradientUnits="userSpaceOnUse">
<stop stop-color="#010101" stop-opacity="0"/>
<stop offset="0.95" stop-color="#010101"/>
</linearGradient>
<linearGradient id="paint4_linear" x1="343.39" y1="327.907" x2="344.211" y2="416.714" gradientUnits="userSpaceOnUse">
<stop stop-color="white" stop-opacity="0"/>
<stop offset="0.95" stop-color="white"/>
</linearGradient>
<linearGradient id="paint5_linear" x1="132497" y1="7639.3" x2="132508" y2="5342.35" gradientUnits="userSpaceOnUse">
<stop stop-color="#2A94F4"/>
<stop offset="0.95" stop-color="#30485F"/>
</linearGradient>
<clipPath id="clip0">
<rect width="687" height="522" fill="white"/>
</clipPath>
<clipPath id="clip1">
<rect width="39.98" height="39.98" fill="white" transform="translate(302 218)"/>
</clipPath>
<clipPath id="clip2">
<rect width="28" height="28" fill="white" transform="translate(458 361)"/>
</clipPath>
<clipPath id="clip3">
<rect width="29.6689" height="28" fill="white" transform="translate(457.596 313)"/>
</clipPath>
<clipPath id="clip4">
<rect width="78" height="78" fill="white" transform="translate(488 182)"/>
</clipPath>
</defs>
</svg>
