<svg width="273" height="200" viewBox="0 0 273 200" fill="none" xmlns="http://www.w3.org/2000/svg">
<g clip-path="url(#clip0)">
<path opacity="0.24" d="M88.4316 7.59757C79.7131 11.5309 71.341 16.6788 65.1659 23.9708C56.6268 34.0629 52.8239 47.587 43.8649 57.3082C32.4114 69.7358 13.5804 74.8349 5.26539 89.5328C2.09835 95.1495 0.826648 101.634 0.280467 108.054C-1.80236 132.481 7.65391 159.187 28.6941 171.778C37.0499 176.775 46.6732 179.318 55.1268 184.153C62.6348 188.445 69.1685 194.518 77.239 197.624C91.4764 203.098 107.597 198.3 121.219 191.44C134.841 184.581 147.676 175.597 162.512 172.047C181.67 167.49 201.642 172.577 221.312 172.805C240.983 173.033 263.678 165.766 270.281 147.224C272.352 141.408 272.568 135.123 272.759 128.952C273.118 117.392 273.416 105.45 269.091 94.7134C263.218 79.9951 249.319 69.316 244.603 54.1737C242.116 46.1808 242.296 37.2299 237.926 30.0888C232.179 20.6855 220.249 17.168 209.268 16.2305C191.831 14.7264 173.139 17.5144 157.731 9.19535C135.582 -2.76764 111.465 -2.80025 88.4316 7.59757Z" fill="#A500FF"/>
<path d="M153.363 123.466C153.374 123.192 153.351 122.918 153.294 122.65V122.65L161.547 121.334L159.355 103.4L148.565 105.083C146.519 101.467 143.872 98.2256 140.74 95.4963H140.719L146.258 87.3199V82.6652L131.691 76.6327L124.546 87.0957C121.763 86.4097 118.906 86.0675 116.039 86.0767C115.812 86.0661 115.584 86.088 115.363 86.142L112.126 74.8107L94.5996 74.501V79.1354L97.8603 90.7927C93.8113 93.0226 90.2077 95.9795 87.2302 99.5152L78.0429 93.548L67.6737 103.701V108.344L79.3921 115.99C78.9001 118.452 78.6502 120.956 78.6462 123.466C78.6213 124.332 78.6677 125.199 78.7848 126.058L66.6343 124.428V129.062L70.3027 146.735L84.3607 143.32C85.8833 145.797 87.6919 148.087 89.7491 150.143L83.4721 157.092V161.739L99.0383 170.91L105.393 159.294C108.648 160.272 112.021 160.8 115.42 160.863V160.863L119.854 173.184L137.055 167.694V163.056L133.146 156.697C136.28 155.083 139.163 153.024 141.706 150.583L150.184 155.882L160.337 140.952V136.317L151.394 135.306C152.705 131.497 153.371 127.495 153.363 123.466V123.466ZM116.039 141.889C112.392 141.905 108.822 140.838 105.782 138.824C102.741 136.809 100.367 133.938 98.9602 130.573C97.5532 127.208 97.1767 123.501 97.8784 119.922C98.58 116.343 100.328 113.052 102.901 110.467C105.475 107.883 108.757 106.12 112.333 105.402C115.909 104.685 119.618 105.045 122.989 106.437C126.36 107.829 129.242 110.19 131.27 113.222C133.298 116.253 134.381 119.818 134.381 123.466C134.379 128.337 132.448 133.01 129.011 136.462C125.574 139.914 120.911 141.865 116.039 141.889V141.889Z" fill="url(#paint0_linear)"/>
<path d="M153.363 118.835C153.374 118.562 153.351 118.288 153.294 118.02V118.02L161.547 116.703L159.355 98.7691L148.565 100.452C146.518 96.836 143.872 93.5931 140.74 90.8617H140.719L146.258 82.6649L131.691 71.9981L124.546 82.4611C121.762 81.7771 118.906 81.4349 116.039 81.4421C115.811 81.4308 115.583 81.4541 115.363 81.5114L112.126 70.1802L94.5996 74.5007L97.8603 86.158C93.8153 88.3921 90.2172 91.3533 87.2465 94.8928L78.0429 88.9256L67.6737 103.709L79.3921 111.356C78.8998 113.818 78.65 116.324 78.6462 118.835C78.6213 119.702 78.6677 120.569 78.7848 121.427L66.6343 124.427L70.3027 142.105L84.3607 138.685C85.8823 141.163 87.6909 143.454 89.7491 145.508L83.4721 157.092L99.0179 166.271L105.372 154.655C108.627 155.633 112.001 156.161 115.399 156.224V156.224L119.834 168.542L137.035 163.051L133.126 152.046C136.26 150.434 139.143 148.374 141.685 145.932L150.163 151.231L160.296 136.288L151.353 130.643C152.676 126.846 153.355 122.856 153.363 118.835V118.835ZM116.039 137.259C112.392 137.275 108.822 136.208 105.782 134.193C102.741 132.179 100.367 129.307 98.9602 125.942C97.5532 122.577 97.1767 118.87 97.8784 115.291C98.58 111.712 100.328 108.422 102.901 105.837C105.475 103.252 108.757 101.489 112.333 100.772C115.909 100.054 119.618 100.414 122.989 101.806C126.36 103.198 129.242 105.56 131.27 108.591C133.298 111.623 134.381 115.188 134.381 118.835C134.378 123.706 132.447 128.378 129.01 131.83C125.574 135.282 120.91 137.234 116.039 137.259V137.259Z" fill="#A500FF"/>
<path d="M200.192 138.868C200.248 138.738 200.288 138.601 200.31 138.461L204.496 139.386L206.831 130.419L201.365 129.196C201.072 127.084 200.421 125.037 199.442 123.143L203.628 120.29L204.5 118.077L198.684 112.419L193.299 116.088C192.099 115.237 190.8 114.534 189.431 113.997C189.325 113.949 189.212 113.917 189.097 113.903L189.688 107.883L181.381 104.426L180.505 106.64L179.873 112.823C177.516 113.115 175.233 113.839 173.139 114.959L169.879 110.381L163.015 113.271L162.134 115.472L166.284 121.337C165.583 122.421 164.991 123.57 164.515 124.769C164.345 125.178 164.209 125.599 164.107 126.029L158.617 122.96L157.744 125.169L156.167 134.303L163.504 135.322C163.764 136.793 164.196 138.228 164.792 139.598L160.504 141.734L159.632 143.943L165.338 151.28L170.563 146.935C171.93 148.016 173.439 148.904 175.047 149.576V149.576L174.835 156.293L184.083 156.917L184.956 154.708L184.291 150.933C186.091 150.755 187.855 150.317 189.529 149.633L192.574 153.766L200.232 148.545L201.105 146.331L197.029 144.163C198.369 142.586 199.438 140.796 200.192 138.868V138.868ZM178.899 140.617C177.154 139.936 175.651 138.754 174.58 137.218C173.508 135.682 172.917 133.863 172.881 131.991C172.844 130.119 173.364 128.279 174.375 126.702C175.386 125.126 176.842 123.886 178.558 123.138C180.275 122.39 182.175 122.169 184.017 122.502C185.86 122.835 187.562 123.707 188.908 125.009C190.254 126.31 191.183 127.982 191.578 129.812C191.973 131.642 191.816 133.549 191.127 135.29C190.206 137.613 188.403 139.478 186.112 140.476C183.821 141.475 181.227 141.525 178.899 140.617V140.617Z" fill="url(#paint1_linear)"/>
<path d="M201.064 136.66C201.122 136.529 201.163 136.392 201.186 136.252L205.376 137.181L207.712 128.214L202.246 126.991C201.948 124.88 201.296 122.834 200.318 120.939L204.5 118.085L199.56 110.247L194.18 113.891C192.98 113.04 191.681 112.338 190.312 111.8C190.204 111.753 190.09 111.72 189.973 111.702L190.568 105.686L181.385 104.439L180.753 110.622C178.399 110.923 176.121 111.655 174.032 112.782L170.771 108.197L163.027 113.296L167.172 119.161C166.475 120.245 165.884 121.393 165.407 122.589C165.238 122.999 165.102 123.422 165 123.853L158.633 122.993L157.056 132.123L164.413 133.146C164.671 134.615 165.102 136.049 165.697 137.418L160.504 141.734L166.21 149.051L171.436 144.701C172.803 145.783 174.311 146.673 175.919 147.347V147.347L175.711 154.064L184.96 154.692L185.168 148.708C186.968 148.527 188.733 148.09 190.409 147.408L193.438 151.549L201.093 146.328L197.889 141.95C199.235 140.376 200.309 138.588 201.064 136.66V136.66ZM179.771 138.408C178.027 137.728 176.523 136.545 175.452 135.01C174.38 133.475 173.788 131.656 173.752 129.784C173.715 127.912 174.234 126.071 175.245 124.495C176.255 122.919 177.71 121.678 179.427 120.93C181.143 120.181 183.043 119.959 184.885 120.292C186.728 120.624 188.43 121.496 189.777 122.797C191.123 124.098 192.053 125.77 192.449 127.6C192.844 129.43 192.688 131.336 191.999 133.077C191.078 135.4 189.275 137.264 186.984 138.263C184.693 139.262 182.1 139.314 179.771 138.408Z" fill="#A500FF"/>
<path d="M141.021 74.5131C139.381 74.1455 137.687 74.0902 136.028 74.3501C135.825 74.3571 135.626 74.4065 135.443 74.4949C135.261 74.5833 135.099 74.709 134.968 74.8637C134.876 75.0288 134.832 75.2165 134.842 75.4052C134.851 75.594 134.913 75.7763 135.021 75.9316C135.234 76.2371 135.513 76.4918 135.836 76.6775C138.143 78.1204 140.902 78.6177 143.58 79.0823C143.729 79.121 143.884 79.121 144.033 79.0823C144.31 78.9804 144.412 78.6462 144.473 78.3527L145.313 74.3909C145.343 74.2802 145.343 74.1633 145.313 74.0526C145.275 73.9567 145.214 73.8724 145.133 73.808C144.595 73.3067 143.181 72.4874 142.431 72.9602C141.681 73.433 142.203 74.7781 141.021 74.5131Z" fill="#A500FF"/>
<path d="M141.021 74.5131C139.381 74.1455 137.687 74.0902 136.028 74.3501C135.825 74.3571 135.626 74.4065 135.443 74.4949C135.261 74.5833 135.099 74.709 134.968 74.8637C134.876 75.0288 134.832 75.2165 134.842 75.4052C134.851 75.594 134.913 75.7763 135.021 75.9316C135.234 76.2371 135.513 76.4918 135.836 76.6775C138.143 78.1204 140.902 78.6177 143.58 79.0823C143.729 79.121 143.884 79.121 144.033 79.0823C144.31 78.9804 144.412 78.6462 144.473 78.3527L145.313 74.3909C145.343 74.2802 145.343 74.1633 145.313 74.0526C145.275 73.9567 145.214 73.8724 145.133 73.808C144.595 73.3067 143.181 72.4874 142.431 72.9602C141.681 73.433 142.203 74.7781 141.021 74.5131Z" fill="url(#paint2_linear)"/>
<path d="M182.278 24.6883C182.278 24.6883 186.708 27.4315 187.198 27.9776C187.687 28.5238 182.107 56.6807 181.809 58.0543C181.512 59.4279 173.657 56.7785 170.457 55.6739C167.258 54.5693 164.291 49.2909 164.291 49.2909C164.291 49.2909 167.881 25.047 168.599 24.6231C169.316 24.1992 175.87 23.1558 175.87 23.1558L182.278 24.6883Z" fill="#A500FF"/>
<path d="M169.878 24.2031C169.878 24.2031 168.203 24.4314 167.254 25.2507C166.304 26.0699 158.144 36.427 158.58 38.9133C159.016 41.3997 161.584 42.5206 162.456 42.1741C163.328 41.8276 165.448 38.7625 165.86 37.8576C166.271 36.9528 171.88 29.8239 171.88 29.8239L169.878 24.2031Z" fill="#A500FF"/>
<path d="M182.893 21.9329C182.893 21.9329 182.033 24.9002 182.2 26.07C182.367 27.2398 180.337 30.3783 178.03 30.2479C175.723 30.1174 175.935 26.1719 175.964 25.7276C175.992 25.2833 176.693 25.0755 176.526 23.9057C176.359 22.7358 182.742 20.543 182.893 21.9329Z" fill="#FDBAAC"/>
<path d="M176.522 23.9058C176.57 24.1798 176.554 24.4612 176.475 24.7278C176.396 24.9945 176.256 25.2391 176.066 25.4424C176.546 25.9765 177.207 26.3134 177.921 26.3881C179.31 26.4655 181.454 25.4261 182.494 23.3963L182.551 23.2863C182.726 22.5281 182.893 21.9412 182.893 21.9412C182.742 20.5431 176.359 22.7482 176.522 23.9058Z" fill="#EFD2BB"/>
<path d="M182.18 25.6419C182.18 25.6419 180.068 29.9013 178.458 30.2722C178.458 30.2722 178.014 30.4801 179.131 31.2382C180.248 31.9964 183.676 28.7111 183.358 26.1392C183.327 25.8123 183.212 25.4991 183.024 25.2298C182.836 24.9606 182.582 24.7445 182.286 24.6025L182.18 25.6419Z" fill="white"/>
<path d="M176.498 24.3786C176.498 24.3786 175.805 27.5578 176.979 29.8404C176.979 29.8404 176.38 30.6352 175.919 30.6067C175.458 30.5781 174.456 27.7535 175.034 25.691C175.373 24.4764 176.286 24.024 176.498 24.3786Z" fill="white"/>
<path d="M181.577 58.0419L179.865 76.2656L177.623 104.194C177.623 104.194 176.4 105.287 173.412 104.887L172.287 75.1325L169.512 61.4005L154.39 59.1424C153.856 58.9517 153.27 58.9721 152.751 59.1994C152.232 59.4267 151.819 59.8438 151.598 60.3652L145.423 74.8716C145.423 74.8716 142.997 73.7426 141.51 73.1923L146.617 52.9918C146.726 52.5604 146.92 52.1554 147.189 51.8005C147.457 51.4457 147.794 51.1483 148.179 50.9259C148.565 50.7036 148.991 50.5609 149.432 50.5061C149.874 50.4514 150.322 50.4858 150.75 50.6074L165.248 49.4131L181.577 58.0419Z" fill="#3F3D56"/>
<path d="M175.642 14.812C175.642 14.812 174.826 20.7956 175.214 22.4422C175.601 24.0889 176.897 25.5481 178.283 25.6256C179.669 25.703 181.817 24.6637 182.856 22.6338C183.896 20.604 184.641 15.5457 184.45 14.8406C184.258 14.1354 182.983 11.8692 179.273 11.9874C176.718 12.0893 175.691 13.8868 175.642 14.812Z" fill="#FDBAAC"/>
<path d="M177.977 10.274C177.202 10.5088 176.404 10.7663 175.793 11.3038C175.51 11.553 175.259 11.8984 175.297 12.2769C175.334 12.5456 175.465 12.7929 175.665 12.9739C176.144 13.4156 176.762 13.6667 177.404 13.6802C178.04 13.6891 178.674 13.6049 179.285 13.4301C177.404 13.6802 179.861 13.3584 180 13.5C179.813 13.4395 180.139 13.6416 180 13.5C180.5 13.5 180.477 13.6523 180.858 13.5699C181.358 13.5699 182.271 14.0589 182.648 14.3885C182.801 14.5417 182.914 14.7316 182.975 14.9402C183.357 15.9859 183.464 17.1116 183.285 18.2049C183.734 18.1082 183.933 17.4285 184.391 17.4467C184.708 17.4649 184.897 17.8681 184.816 18.1739C184.757 18.3237 184.669 18.459 184.556 18.571C184.443 18.683 184.307 18.7693 184.158 18.8242C184.044 18.8628 183.94 18.9293 183.857 19.0179C183.8 19.1094 183.768 19.2141 183.762 19.3225C183.659 20.1336 183.67 20.957 183.794 21.7682C183.807 21.9773 183.887 22.1774 184.02 22.3386C184.291 22.6024 184.753 22.4789 185.022 22.2211C185.409 21.8477 185.552 21.297 185.666 20.7578C186.081 18.8333 187.657 17.6912 187.243 15.7556C187.039 14.8038 185.985 13.1069 185.603 12.2142C185.007 10.8161 183.622 10.3065 182.237 9.90392C180.809 9.48192 179.344 9.85965 177.977 10.274Z" fill="#FC682D"/>
<path d="M183.769 18.7455C183.769 18.7455 184.075 17.3719 184.992 17.8855C185.909 18.399 184.585 20.8772 184.12 21.081C183.905 21.1963 183.663 21.2512 183.419 21.24" fill="#FDBAAC"/>
<path d="M152.759 48.8019C152.701 49.0321 152.711 49.2743 152.788 49.4989C152.885 49.6845 153.037 49.8354 153.224 49.931C154.487 50.6891 156.183 50.2611 157.332 49.344C158.482 48.4269 159.232 47.1104 160.019 45.8631C160.715 44.7626 161.461 43.6906 162.256 42.6594C162.554 42.2518 162.876 41.7831 162.696 41.3266C162.612 41.1484 162.491 40.9901 162.342 40.8619C159.733 38.3022 161.225 34.5849 158.947 37.3973C157.157 39.5902 153.195 46.0099 152.759 48.8019Z" fill="#A500FF"/>
<path d="M149.731 48.9974C149.221 49.3881 148.875 49.9549 148.761 50.5871C148.7 51.2189 149.168 51.924 149.816 51.8873C150.091 51.8419 150.356 51.7496 150.599 51.6142C151.386 51.2841 152.266 51.3208 153.114 51.2637C153.962 51.2066 154.879 51.011 155.433 50.367C155.647 50.1099 155.791 49.8014 155.85 49.4718C155.908 49.1423 155.88 48.8032 155.767 48.4879C154.797 45.8182 151.092 47.7706 149.731 48.9974Z" fill="#FDBAAC"/>
<path d="M173.074 107.418C172.489 108.068 171.952 108.76 171.468 109.489C171.083 110.014 170.799 110.605 170.628 111.233C170.549 111.515 170.549 111.812 170.628 112.093C170.704 112.28 170.821 112.447 170.97 112.582C171.119 112.718 171.296 112.818 171.488 112.876C171.874 112.989 172.279 113.024 172.679 112.978C174.272 112.863 175.8 112.298 177.085 111.348C177.546 111.037 177.923 110.617 178.181 110.125C178.41 109.504 178.43 108.826 178.238 108.193C178.079 107.557 177.831 106.95 177.631 106.318C177.431 105.686 177.358 105.001 177.223 104.345C177.222 104.314 177.214 104.285 177.201 104.257C177.188 104.229 177.169 104.205 177.147 104.184C177.124 104.164 177.098 104.148 177.069 104.138C177.04 104.128 177.009 104.123 176.979 104.125C176.164 104.011 174.786 103.933 174.272 104.765C174.104 105.107 173.988 105.472 173.93 105.849C173.789 106.439 173.494 106.98 173.074 107.418V107.418Z" fill="#A500FF"/>
<path d="M173.066 107.528C172.48 108.179 171.942 108.871 171.456 109.599C171.073 110.125 170.789 110.716 170.616 111.343C170.539 111.625 170.539 111.922 170.616 112.203C170.693 112.389 170.81 112.556 170.958 112.691C171.107 112.827 171.284 112.927 171.476 112.986C171.862 113.099 172.267 113.134 172.667 113.088C174.26 112.973 175.788 112.408 177.073 111.457C177.539 111.144 177.917 110.716 178.169 110.214C178.402 109.594 178.422 108.915 178.226 108.282C178.067 107.646 177.798 107.059 177.619 106.407C177.44 105.755 177.35 105.091 177.211 104.435C177.204 104.379 177.182 104.327 177.146 104.284C177.095 104.243 177.032 104.22 176.967 104.219C176.131 104.1 174.774 104.023 174.26 104.854C174.096 105.198 173.98 105.563 173.918 105.939C173.78 106.535 173.486 107.083 173.066 107.528Z" fill="url(#paint3_linear)"/>
<path d="M190.462 30.8186C192.174 32.8566 192.786 33.7655 194.4 35.885C194.502 31.1773 195.655 27.6393 195.757 22.9316C195.741 22.8013 195.754 22.6691 195.795 22.5444C195.835 22.4198 195.903 22.3056 195.993 22.2101C196.162 22.1085 196.361 22.0682 196.556 22.096C197.564 22.1214 198.566 22.2581 199.544 22.5036C199.732 22.5307 199.906 22.6212 200.037 22.7604C200.135 22.9362 200.17 23.1407 200.135 23.3392C199.844 27.7032 199.556 32.0672 199.27 36.4312C199.198 38.5064 198.936 40.5707 198.488 42.5981C198.243 43.5519 197.84 44.575 196.955 45.0111C195.81 45.5736 194.461 44.8848 193.434 44.1266C190.148 41.7137 187.572 38.4855 185.037 35.294C184.764 34.9955 184.553 34.6466 184.413 34.2668C184.306 33.7933 184.306 33.3016 184.413 32.828C184.609 31.5482 184.544 27.8716 186.264 27.6882C187.784 27.5496 189.639 29.8322 190.462 30.8186Z" fill="#A500FF"/>
<path d="M195.092 19.9807C195.019 19.031 194.958 18.0202 195.402 17.1765C195.515 16.9914 195.616 16.7995 195.704 16.6017C195.786 16.3519 195.827 16.0904 195.826 15.8273C195.879 14.629 195.891 13.3817 196.389 12.2894C196.482 12.0815 196.637 11.8532 196.866 11.8492C197.094 11.8451 197.298 12.1834 197.363 12.4606C197.575 13.3712 197.693 14.3014 197.713 15.2363C197.698 15.4033 197.741 15.5707 197.836 15.7091C197.914 15.7859 198.011 15.8407 198.117 15.8681C198.539 15.9535 198.936 16.1332 199.279 16.3939C199.454 16.5691 199.56 16.8015 199.727 16.9849C199.917 17.1593 200.122 17.3175 200.338 17.4577C200.609 17.6905 200.831 17.9753 200.99 18.2953C201.149 18.6152 201.242 18.9638 201.264 19.3204C201.305 20.0366 201.184 20.7529 200.909 21.4155C200.632 22.141 200.196 22.8787 199.466 23.1478C198.963 23.2877 198.433 23.3059 197.921 23.2008C196.132 22.9725 195.223 21.7416 195.092 19.9807Z" fill="#FDBAAC"/>
<path d="M132.253 43.4863C132.624 45.398 121.521 54.7319 117.796 44.2282C119.941 42.8895 122.378 42.0902 124.9 41.8986C127.421 41.7069 129.951 42.1286 132.274 43.1276C132.242 43.2444 132.235 43.3667 132.253 43.4863V43.4863Z" fill="url(#paint4_linear)"/>
<path d="M118.678 25.9002C118.907 28.5087 118.225 31.116 116.749 33.2785C115.408 35.1382 114.602 37.329 114.417 39.6139C114.376 40.3108 114.408 41.0169 114.416 41.7925L104.534 43.4684C104.379 42.9792 104.244 42.4864 104.063 42.0161C103.287 39.9687 101.95 38.1819 100.204 36.8611C98.6704 35.7511 97.3732 34.3468 96.3882 32.73C95.5244 31.1979 95.0073 29.495 94.8734 27.7413C94.7395 25.9876 94.9921 24.2259 95.6133 22.5804C96.2345 20.935 97.2092 19.4459 98.4686 18.2183C99.7281 16.9906 101.242 16.0543 102.902 15.4753C103.212 15.372 103.516 15.2841 103.815 15.2044C105.508 14.7701 107.276 14.7127 108.994 15.0361C110.712 15.3595 112.338 16.0559 113.757 17.0762C115.177 18.0964 116.355 19.4157 117.209 20.941C118.063 22.4662 118.572 24.1603 118.7 25.9036L118.678 25.9002Z" fill="white"/>
<path d="M117.73 26.0608C117.964 28.6684 117.285 31.2764 115.808 33.4379C114.465 35.2976 113.657 37.4887 113.469 39.7745C113.428 40.4714 113.467 41.1763 113.468 41.9532L105.527 43.2998C105.372 42.8106 105.237 42.3178 105.056 41.8475C104.281 39.8002 102.943 38.0133 101.197 36.6925C99.6635 35.5826 98.3663 34.1782 97.3813 32.5614C96.5175 31.0294 96.0004 29.3264 95.8665 27.5727C95.7326 25.8191 95.9852 24.0573 96.6064 22.4119C97.2276 20.7665 98.2023 19.2774 99.4617 18.0497C100.721 16.8221 102.235 15.8857 103.895 15.3068C104.205 15.2035 104.509 15.1155 104.808 15.0358C106.384 14.8998 107.971 15.0782 109.477 15.5606C110.984 16.043 112.379 16.8198 113.583 17.846C114.786 18.8721 115.774 20.1271 116.489 21.5381C117.203 22.9491 117.63 24.488 117.745 26.0655L117.73 26.0608Z" fill="url(#paint5_linear)"/>
<path d="M114.639 41.733L104.841 43.3944C104.132 43.5148 103.654 44.1875 103.774 44.897L103.776 44.904C103.896 45.6136 104.569 46.0912 105.278 45.9709L115.076 44.3094C115.785 44.1891 116.263 43.5164 116.143 42.8069L116.141 42.7998C116.021 42.0903 115.348 41.6127 114.639 41.733Z" fill="#A500FF"/>
<path d="M114.256 44.0198L105.504 45.5041C104.868 45.6119 104.44 46.2143 104.548 46.8498C104.656 47.4852 105.258 47.913 105.894 47.8052L114.647 46.3209C115.282 46.2132 115.71 45.6107 115.602 44.9753C115.494 44.3398 114.892 43.912 114.256 44.0198Z" fill="#A500FF"/>
<path d="M114.005 46.0015L106.403 47.2907C105.853 47.3839 105.483 47.9051 105.576 48.4548L105.577 48.4618C105.67 49.0115 106.192 49.3815 106.741 49.2883L114.343 47.9991C114.893 47.9059 115.263 47.3847 115.17 46.8351L115.169 46.828C115.076 46.2783 114.554 45.9083 114.005 46.0015Z" fill="#A500FF"/>
<path d="M114.639 41.733L104.841 43.3944C104.132 43.5148 103.654 44.1875 103.774 44.897L103.776 44.904C103.896 45.6136 104.569 46.0912 105.278 45.9709L115.076 44.3094C115.785 44.1891 116.263 43.5164 116.143 42.8069L116.141 42.7998C116.021 42.0903 115.348 41.6127 114.639 41.733Z" fill="url(#paint6_linear)"/>
<path d="M114.256 44.0198L105.504 45.5041C104.868 45.6119 104.44 46.2143 104.548 46.8498C104.656 47.4852 105.258 47.913 105.894 47.8052L114.647 46.3209C115.282 46.2132 115.71 45.6107 115.602 44.9753C115.494 44.3398 114.892 43.912 114.256 44.0198Z" fill="url(#paint7_linear)"/>
<path d="M114.005 46.0015L106.403 47.2907C105.853 47.3839 105.483 47.9051 105.576 48.4548L105.577 48.4618C105.67 49.0115 106.192 49.3815 106.741 49.2883L114.343 47.9991C114.893 47.9059 115.263 47.3847 115.17 46.8351L115.169 46.828C115.076 46.2783 114.554 45.9083 114.005 46.0015Z" fill="url(#paint8_linear)"/>
<path d="M107.017 42.9895C106.635 41.1968 106.094 39.4415 105.401 37.7446C104.851 36.3316 104.381 34.8888 103.993 33.423C103.456 31.1976 103.633 29.5481 104.539 28.378C104.691 28.1494 104.921 27.9839 105.186 27.9124C105.331 27.8865 105.479 27.8895 105.623 27.9212C105.767 27.9529 105.903 28.0127 106.023 28.0972C106.051 28.0488 106.073 28.0017 106.102 27.9604C106.245 27.6992 106.461 27.4858 106.724 27.3466C106.858 27.2816 107.005 27.2453 107.154 27.24C107.303 27.2347 107.452 27.2605 107.59 27.3159C107.79 27.3913 107.971 27.5093 108.121 27.6616C108.253 27.5416 108.407 27.4491 108.576 27.3894C108.744 27.3298 108.922 27.3041 109.1 27.314C109.77 27.3674 110.318 27.899 110.675 28.8479C111.533 31.1277 111.436 33.5914 111.342 35.9963C111.16 38.0209 111.278 40.0613 111.694 42.0511L110.999 42.2343C110.562 40.1774 110.437 38.0666 110.627 35.9725C110.724 33.5523 110.817 31.2709 110.01 29.1275C109.866 28.7454 109.552 28.0942 109.052 28.0556C108.874 28.0536 108.703 28.1217 108.576 28.2453C108.646 28.3607 108.708 28.4814 108.76 28.6061C109.046 29.2708 109.249 29.9679 109.366 30.6818C109.392 30.7927 109.393 30.9076 109.371 31.0191C109.348 31.1306 109.303 31.236 109.236 31.3284C109.175 31.406 109.094 31.4658 109.002 31.5019C108.91 31.5379 108.81 31.5488 108.712 31.5335C108.543 31.4912 108.386 31.4088 108.255 31.2932C108.124 31.1776 108.023 31.0323 107.96 30.8694C107.628 30.2497 107.467 29.5525 107.494 28.8498C107.519 28.6339 107.582 28.424 107.68 28.2302C107.585 28.1223 107.466 28.038 107.333 27.984C107.286 27.9638 107.235 27.954 107.184 27.9552C107.133 27.9563 107.083 27.9685 107.036 27.9907C106.901 28.0692 106.792 28.1863 106.723 28.3271C106.677 28.4002 106.646 28.4709 106.607 28.5428C107.323 29.2337 107.743 30.175 107.779 31.1689C107.791 31.6679 107.58 32.1829 107.072 32.2691C106.894 32.2798 106.716 32.2385 106.56 32.1501C106.405 32.0618 106.278 31.9302 106.196 31.7713C105.905 31.3352 105.712 30.8403 105.633 30.3217C105.554 29.803 105.59 29.2733 105.738 28.7701L105.703 28.776C105.506 28.6424 105.394 28.6251 105.353 28.6393C105.26 28.6836 105.182 28.7521 105.125 28.8377C104.369 29.8156 104.23 31.3131 104.707 33.2656C105.09 34.7025 105.551 36.1176 106.086 37.5049C106.792 39.243 107.34 41.0408 107.724 42.8768L107.017 42.9895ZM106.352 29.305C106.238 30.0133 106.395 30.7382 106.791 31.3365C106.839 31.4147 106.905 31.4806 106.983 31.529C107.049 31.4203 107.079 31.293 107.067 31.1662C107.029 30.4948 106.777 29.8531 106.349 29.3345L106.352 29.305ZM108.178 29.068C108.215 29.5881 108.358 30.0951 108.597 30.5581V30.5581C108.502 30.0592 108.361 29.5702 108.175 29.0974L108.178 29.068Z" fill="#A500FF"/>
</g>
<defs>
<linearGradient id="paint0_linear" x1="66.6343" y1="123.841" x2="161.547" y2="123.841" gradientUnits="userSpaceOnUse">
<stop stop-color="#010101" stop-opacity="0"/>
<stop offset="0.95" stop-color="#010101"/>
</linearGradient>
<linearGradient id="paint1_linear" x1="10090.1" y1="14516.9" x2="15721.1" y2="16757.2" gradientUnits="userSpaceOnUse">
<stop stop-color="#010101" stop-opacity="0"/>
<stop offset="0.95" stop-color="#010101"/>
</linearGradient>
<linearGradient id="paint2_linear" x1="3135.86" y1="1583.63" x2="3294.65" y2="1116.1" gradientUnits="userSpaceOnUse">
<stop stop-color="#010101" stop-opacity="0"/>
<stop offset="0.95" stop-color="#010101"/>
</linearGradient>
<linearGradient id="paint3_linear" x1="2903.34" y1="2387.43" x2="3392.9" y2="2898.83" gradientUnits="userSpaceOnUse">
<stop stop-color="#010101" stop-opacity="0"/>
<stop offset="0.95" stop-color="#010101"/>
</linearGradient>
<linearGradient id="paint4_linear" x1="4518.63" y1="905.444" x2="4562.92" y2="1319.84" gradientUnits="userSpaceOnUse">
<stop stop-color="#010101" stop-opacity="0"/>
<stop offset="0.95" stop-color="#010101"/>
</linearGradient>
<linearGradient id="paint5_linear" x1="145.275" y1="45.8978" x2="86.3905" y2="20.1633" gradientUnits="userSpaceOnUse">
<stop offset="0.01"/>
<stop offset="0.13" stop-opacity="0.69"/>
<stop offset="0.25" stop-opacity="0.32"/>
<stop offset="1" stop-opacity="0"/>
</linearGradient>
<linearGradient id="paint6_linear" x1="3135.97" y1="-279.656" x2="3141.96" y2="-244.199" gradientUnits="userSpaceOnUse">
<stop offset="0.01"/>
<stop offset="0.13" stop-opacity="0.69"/>
<stop offset="0.25" stop-opacity="0.32"/>
<stop offset="1" stop-opacity="0"/>
</linearGradient>
<linearGradient id="paint7_linear" x1="2816.9" y1="-235.775" x2="2821.96" y2="-203.37" gradientUnits="userSpaceOnUse">
<stop offset="0.01"/>
<stop offset="0.13" stop-opacity="0.69"/>
<stop offset="0.25" stop-opacity="0.32"/>
<stop offset="1" stop-opacity="0"/>
</linearGradient>
<linearGradient id="paint8_linear" x1="2458.87" y1="-188.861" x2="2462.48" y2="-166.377" gradientUnits="userSpaceOnUse">
<stop offset="0.01"/>
<stop offset="0.13" stop-opacity="0.69"/>
<stop offset="0.25" stop-opacity="0.32"/>
<stop offset="1" stop-opacity="0"/>
</linearGradient>
<clipPath id="clip0">
<rect width="272.948" height="200" fill="white"/>
</clipPath>
</defs>
</svg>
