<svg width="750" height="458" viewBox="0 0 750 458" fill="none" xmlns="http://www.w3.org/2000/svg">
<g clip-path="url(#clip0)">
<path opacity="0.04" fill-rule="evenodd" clip-rule="evenodd" d="M374.999 406.112C582.109 406.112 750.004 410.34 750.004 415.555C750.004 420.77 582.109 424.997 374.999 424.997C167.89 424.997 -0.00585938 420.77 -0.00585938 415.555C-0.00585938 410.34 167.89 406.112 374.999 406.112Z" fill="black"/>
<rect x="126" y="54" width="498" height="331" fill="#34306A"/>
<path fill-rule="evenodd" clip-rule="evenodd" d="M374.999 401.39H104.163V54.3671C104.163 43.9374 112.454 35.4814 122.681 35.4814H374.999H627.317C637.544 35.4814 645.836 43.9374 645.836 54.3671V401.39H374.999ZM127.311 59.0886H622.687V377.783H127.311V59.0886Z" fill="#D4D7DB"/>
<path fill-rule="evenodd" clip-rule="evenodd" d="M680.559 415.555H374.999H69.4405C51.0418 415.555 35.9954 409.3 34.8027 401.391H374.999H715.195C714.003 409.3 698.956 415.555 680.559 415.555Z" fill="#C1C3C8"/>
<path fill-rule="evenodd" clip-rule="evenodd" d="M422.852 401.391C421.065 405.557 416.998 408.473 412.254 408.473H375.216H374.999H337.961C333.217 408.473 329.15 405.557 327.364 401.391H422.852Z" fill="#979AA1" stroke="white"/>
<path d="M375.61 54.1558C378.304 54.1558 380.488 51.9271 380.488 49.178C380.488 46.4288 378.304 44.2002 375.61 44.2002C372.916 44.2002 370.732 46.4288 370.732 49.178C370.732 51.9271 372.916 54.1558 375.61 54.1558Z" fill="#A5ADBD" stroke="white" stroke-width="2"/>
</g>
<rect x="451.439" width="227" height="438" rx="20" transform="rotate(5.42885 451.439 0)" fill="#E5E5E5"/>
<rect x="459.932" y="10.6118" width="208.083" height="419.699" rx="20" transform="rotate(5.42885 459.932 10.6118)" fill="#34306A"/>
<rect x="438.872" y="332.158" width="189.167" height="51.2423" rx="25.6212" transform="rotate(5.42885 438.872 332.158)" fill="#4A6988"/>
<g clip-path="url(#clip1)">
<path d="M470.727 365.649C469.992 366.132 469.026 365.993 468.465 365.292L463.894 359.581C463.333 358.88 463.384 357.858 463.981 357.219L458.194 349.971C455.087 353.025 454.759 358.081 457.51 361.518L465.419 371.401C468.223 374.904 473.16 375.406 476.531 372.883L470.727 365.649Z" fill="white"/>
<path d="M466.048 352.376L463.148 348.736C462.382 347.778 460.88 347.636 459.932 348.43L459.347 348.943L465.149 356.193L465.732 355.696C466.216 355.283 466.498 354.726 466.558 354.1C466.617 353.473 466.446 352.857 466.048 352.376Z" fill="white"/>
<path d="M478.639 368.091L475.723 364.465C474.958 363.492 473.456 363.349 472.506 364.159L471.923 364.657L477.725 371.907L478.324 371.411C478.79 371.012 479.074 370.439 479.134 369.813C479.193 369.187 479.022 368.57 478.639 368.091Z" fill="white"/>
<path d="M469.544 347.327C468.544 347.232 468.392 348.787 469.396 348.883C475.671 349.479 480.283 355.243 479.668 361.718C479.57 362.75 481.077 362.897 481.175 361.861C481.872 354.523 476.655 348.003 469.544 347.327Z" fill="white"/>
<path d="M469.246 350.459C468.246 350.364 468.094 351.918 469.098 352.014C473.7 352.451 477.085 356.681 476.634 361.43C476.536 362.461 478.042 362.609 478.141 361.573C478.674 355.961 474.684 350.975 469.246 350.459Z" fill="white"/>
<path d="M468.948 353.59C467.948 353.495 467.796 355.05 468.801 355.145C471.728 355.423 473.886 358.12 473.599 361.141C473.501 362.173 475.008 362.321 475.106 361.284C475.475 357.399 472.713 353.948 468.948 353.59Z" fill="white"/>
<path d="M468.651 356.721C467.651 356.626 467.498 358.192 468.502 358.287C469.757 358.406 470.678 359.557 470.555 360.852C470.457 361.884 471.974 362.032 472.072 360.996C472.277 358.838 470.742 356.92 468.651 356.721Z" fill="white"/>
</g>
<rect x="444.412" y="273.858" width="189.167" height="51.2423" rx="25.6212" transform="rotate(5.42885 444.412 273.858)" fill="#29DA65"/>
<rect x="501.877" y="294.024" width="101.799" height="20.7409" transform="rotate(5.42885 501.877 294.024)" fill="#4CF786"/>
<rect x="496.211" y="352.237" width="101.799" height="20.7913" transform="rotate(5.42885 496.211 352.237)" fill="#5E84A8"/>
<g clip-path="url(#clip2)">
<path d="M475.156 287.81L475.149 287.809C468.011 287.131 461.636 292.571 460.936 299.94C460.658 302.862 461.313 305.658 462.656 308.005L460.571 312.815L465.704 311.646C467.618 313.24 469.983 314.28 472.616 314.531C479.755 315.209 486.129 309.767 486.83 302.4C487.53 295.034 482.294 288.488 475.156 287.81ZM480.896 307.392C480.497 308.273 479.186 308.91 478.176 309.036C477.486 309.121 476.591 309.155 473.737 307.6C470.087 305.612 468.016 301.389 467.849 301.112C467.691 300.836 466.513 298.853 466.695 296.936C466.877 295.019 467.909 294.175 468.328 293.81C468.671 293.511 469.202 293.41 469.697 293.457C469.857 293.472 470.001 293.494 470.129 293.513C470.508 293.566 470.697 293.608 470.889 294.251C471.127 295.057 471.706 297.047 471.778 297.252C471.851 297.458 471.918 297.734 471.764 297.981C471.617 298.237 471.499 298.345 471.287 298.554C471.074 298.763 470.876 298.919 470.662 299.145C470.467 299.341 470.248 299.549 470.431 299.962C470.615 300.367 471.254 301.721 472.276 302.856C473.595 304.321 474.726 304.856 475.128 305.076C475.428 305.24 475.803 305.243 476.055 305.015C476.375 304.72 476.784 304.219 477.198 303.728C477.493 303.375 477.824 303.359 478.154 303.526C478.492 303.684 480.252 304.803 480.614 305.035C480.976 305.268 481.217 305.386 481.294 305.56C481.369 305.734 481.295 306.51 480.896 307.392Z" fill="white"/>
</g>
<path d="M516.376 9.84912L614.301 19.1555L613.401 28.6337C612.878 34.1318 607.997 38.1653 602.499 37.6428L524.484 30.2285C518.986 29.706 514.953 24.8254 515.475 19.3273L516.376 9.84912Z" fill="#E5E5E5"/>
<g clip-path="url(#clip3)">
<path d="M527.971 153.791C532.194 166.578 543.225 173.017 548.953 173.562C552.719 173.92 559.217 172.205 565.09 167.646C563.106 167.6 560.992 167.472 558.741 167.258C558.212 167.208 557.659 167.15 557.067 167.084C555.847 167.878 554.392 168.253 552.933 168.115L548.137 167.659C544.522 167.315 541.869 164.001 542.224 160.27C542.578 156.54 545.807 153.785 549.422 154.128L554.219 154.584C555.952 154.749 557.507 155.6 558.595 156.916C558.994 156.959 559.387 156.998 559.774 157.035C565.966 157.623 570.103 157.425 572.84 156.972C572.576 156.069 572.478 155.1 572.572 154.107L574.202 136.954C574.372 135.169 575.176 133.52 576.411 132.304C576.271 127.491 575.542 123.757 574.192 120.925C571.411 115.09 565.283 111.913 554.906 110.927C546.297 110.109 540.177 111.388 536.196 114.838C533.111 117.512 531.086 121.553 529.723 127.818C530.732 129.252 531.224 131.043 531.052 132.853L529.422 150.006C529.286 151.433 528.762 152.727 527.971 153.791Z" fill="#2A94F4"/>
<path d="M516.161 152.832L521.915 153.379C524.081 153.585 526.011 151.939 526.224 149.702L527.854 132.549C527.996 131.055 527.333 129.678 526.234 128.866C528.853 114.942 535.031 105.708 555.22 107.627C566.813 108.729 573.759 112.486 577.078 119.449C579.009 123.501 579.642 128.559 579.649 133.963C578.434 134.561 577.541 135.778 577.4 137.257L575.77 154.41C575.587 156.339 576.741 158.073 578.451 158.648C575.752 160.119 570.334 161.368 559.46 160.335C558.579 160.251 557.662 160.152 556.708 160.038C556.254 158.874 555.203 158.007 553.906 157.884L549.109 157.428C547.255 157.252 545.604 158.66 545.422 160.574C545.24 162.488 546.597 164.182 548.451 164.358L553.247 164.814C554.368 164.921 555.412 164.446 556.104 163.634C557.112 163.756 558.099 163.867 559.055 163.958C571.312 165.122 579.309 163.704 582.872 159.72C583.023 159.551 583.163 159.381 583.292 159.212L585.064 159.38C587.231 159.586 589.161 157.94 589.373 155.704L591.003 138.551C591.216 136.314 589.631 134.334 587.464 134.128L585.3 133.923C585.306 127.394 584.48 121.757 582.144 116.857C577.939 108.034 569.312 103.12 555.77 101.833C542.227 100.546 532.829 103.747 527.038 111.62C523.821 115.993 521.948 121.372 520.724 127.786L518.56 127.58C516.393 127.374 514.464 129.02 514.251 131.257L512.621 148.41C512.408 150.646 513.993 152.626 516.161 152.832Z" fill="#2A94F4"/>
<path d="M593.26 211.054C592.751 202.559 591.09 191.52 586.067 187.177C582.642 184.213 570.49 175.924 565.301 172.385L565.192 172.31C564.598 171.905 563.827 171.902 563.225 172.301C560.131 174.355 556.837 175.624 553.435 176.072C552.834 176.151 552.31 176.537 552.04 177.098L547.771 186.004L545.255 176.454C545.096 175.851 544.654 175.374 544.078 175.183C540.822 174.102 537.825 172.235 535.173 169.635C534.658 169.13 533.9 168.988 533.24 169.274C527.542 171.745 513.866 177.729 509.956 179.932C503.342 183.655 499.15 198.999 498.377 202.037C498.3 202.339 498.298 202.654 498.37 202.955C498.531 203.623 502.778 219.352 544.227 223.291C585.675 227.23 592.809 212.583 593.093 211.958C593.221 211.675 593.279 211.364 593.26 211.054ZM574.874 199.607L558.458 198.047L558.797 194.479L575.213 196.039L574.874 199.607Z" fill="#2A94F4"/>
</g>
<path d="M384.25 373.807C383.227 373.807 382.194 373.632 381.208 373.271C378.247 372.187 376.334 369.66 376.334 366.834V350.831C359.047 350.831 342.797 344.892 330.574 334.106C318.351 323.321 311.62 308.981 311.62 293.729V288.159C311.62 286.235 313.386 284.677 315.566 284.677C317.745 284.677 319.511 286.235 319.511 288.159V293.729C319.511 321.375 345.002 343.868 376.333 343.868C380.685 343.868 384.226 346.991 384.226 350.831V366.834V366.836C384.232 366.838 384.24 366.841 384.246 366.843C384.249 366.84 384.252 366.838 384.255 366.836L403.582 349.818C404.33 349.159 404.743 348.282 404.743 347.349C404.743 346.416 404.33 345.54 403.582 344.881L384.255 327.862C384.252 327.86 384.249 327.858 384.246 327.855C384.24 327.857 384.232 327.86 384.226 327.862V327.864V331.681C384.226 333.604 382.458 335.162 380.28 335.162C378.1 335.162 376.334 333.604 376.334 331.681V327.864C376.334 325.038 378.247 322.511 381.208 321.427C384.173 320.342 387.557 320.933 389.829 322.933L409.156 339.951C411.399 341.926 412.635 344.554 412.635 347.349C412.635 350.145 411.399 352.772 409.156 354.747L389.829 371.765C388.313 373.1 386.301 373.807 384.25 373.807V373.807Z" fill="#0F8DFF"/>
<ellipse cx="304.963" cy="186.565" rx="87.9476" ry="89.9326" fill="#0F8DFF"/>
<g clip-path="url(#clip4)">
<g clip-path="url(#clip5)">
<path d="M500.104 490.903C494.92 490.903 489.686 489.896 484.69 487.821C469.678 481.595 459.983 467.079 459.983 450.845V358.923C372.366 358.923 289.999 324.806 228.045 262.853C166.092 200.899 131.975 118.528 131.975 30.915V-1.08105C131.975 -12.1279 140.928 -21.0811 151.975 -21.0811C163.022 -21.0811 171.975 -12.1279 171.975 -1.08105V30.915C171.975 189.724 301.174 318.923 459.979 318.923C482.038 318.923 499.983 336.864 499.983 358.923V450.845V450.856C500.014 450.872 500.053 450.888 500.088 450.899C500.1 450.884 500.116 450.872 500.131 450.856L598.092 353.103C601.885 349.317 603.975 344.278 603.975 338.923C603.975 333.563 601.885 328.528 598.092 324.743L500.131 226.985C500.116 226.97 500.1 226.958 500.084 226.942C500.053 226.954 500.014 226.97 499.983 226.985V226.997V248.919C499.983 259.966 491.026 268.919 479.983 268.919C468.936 268.919 459.983 259.966 459.983 248.919V226.997C459.983 210.763 469.678 196.247 484.69 190.021C499.717 183.786 516.87 187.181 528.385 198.673L626.346 296.427C637.713 307.771 643.975 322.864 643.975 338.923C643.975 354.981 637.713 370.071 626.346 381.415L528.385 479.169C520.702 486.841 510.502 490.903 500.104 490.903V490.903Z" fill="black"/>
</g>
</g>
<path d="M363.023 225.208L387.717 267.364H338.328L363.023 225.208Z" fill="#0F8DFF"/>
<g clip-path="url(#clip6)">
<path d="M302.757 138.636L290.911 140.772C289.274 141.067 288.167 142.567 288.435 144.125C288.704 145.684 290.246 146.706 291.883 146.411L303.73 144.275C305.366 143.98 306.474 142.48 306.205 140.921C305.936 139.363 304.394 138.341 302.757 138.636Z" fill="white"/>
<path d="M317.578 126.272L273.461 134.227C267.38 135.324 263.304 141.276 264.376 147.494L279.934 237.721C281.006 243.939 286.828 248.107 292.908 247.011L337.026 239.056C343.107 237.96 347.183 232.007 346.111 225.789L330.552 135.562C329.48 129.344 323.659 125.176 317.578 126.272ZM340.596 226.783C341.133 229.898 339.1 232.868 336.054 233.417L291.936 241.372C288.89 241.921 285.986 239.842 285.449 236.727L269.891 146.5C269.354 143.385 271.387 140.416 274.433 139.866L318.551 131.912C321.597 131.362 324.501 133.442 325.038 136.556L340.596 226.783Z" fill="white"/>
<rect width="52.267" height="32.5652" transform="matrix(0.721066 0.687582 -0.676303 0.741616 268.332 167.998)" fill="#0F8DFF"/>
<rect width="51.8939" height="32.7987" transform="matrix(0.726251 -0.692526 0.671488 0.736336 308.146 173.022)" fill="#0F8DFF"/>
</g>
<path d="M351.215 167.256L299.195 220.446C295.343 224.386 289.094 224.386 285.238 220.446L258.385 192.985C254.531 189.045 254.531 182.654 258.385 178.714C262.239 174.772 268.488 174.772 272.34 178.712L292.219 199.04L337.258 152.984C341.112 149.042 347.361 149.045 351.214 152.984C355.067 156.924 355.067 163.313 351.215 167.256Z" fill="white"/>
<path d="M351.215 167.256L299.195 220.446C295.343 224.386 289.094 224.386 285.238 220.446L258.385 192.985C254.531 189.045 254.531 182.654 258.385 178.714C262.239 174.772 268.488 174.772 272.34 178.712L292.219 199.04L337.258 152.984C341.112 149.042 347.361 149.045 351.214 152.984C355.067 156.924 355.067 163.313 351.215 167.256Z" stroke="#0F8DFF"/>
<defs>
<clipPath id="clip0">
<rect width="750" height="392" fill="white" transform="translate(0 33)"/>
</clipPath>
<clipPath id="clip1">
<rect width="26.0104" height="26.8412" fill="white" transform="translate(456.55 346.092) rotate(5.42885)"/>
</clipPath>
<clipPath id="clip2">
<rect width="26.0104" height="26.8412" fill="white" transform="translate(462.206 286.579) rotate(5.42885)"/>
</clipPath>
<clipPath id="clip3">
<rect width="118.229" height="122.006" fill="white" transform="translate(496.921 96.2402) rotate(5.42885)"/>
</clipPath>
<clipPath id="clip4">
<rect width="57.0284" height="45.6689" fill="white" transform="translate(334.508 225.208)"/>
</clipPath>
<clipPath id="clip5">
<rect width="512" height="512" fill="white" transform="translate(131.975 -22.0811)"/>
</clipPath>
<clipPath id="clip6">
<rect width="112.073" height="114.448" fill="white" transform="matrix(0.984131 -0.177445 0.169927 0.985457 240.373 140.193)"/>
</clipPath>
</defs>
</svg>
