<svg width="445" height="449" viewBox="0 0 445 449" fill="none" xmlns="http://www.w3.org/2000/svg">
<g clip-path="url(#clip0)">
<path opacity="0.24" d="M183.961 429.287C205.029 438.739 226.907 448.464 250.292 448.989C274.643 449.524 297.982 440.02 318.983 428.509C331.001 421.935 342.761 414.478 351.485 404.354C364.369 389.41 369.586 369.781 370.451 350.604C371.317 331.427 368.203 312.334 366.224 293.231C364.785 279.336 363.976 264.78 369.923 251.947C375.87 239.113 387.506 229.703 398.13 219.936C413.24 206.052 426.945 190.456 435.68 172.414C444.415 154.371 447.878 133.619 442.302 114.505C432.521 80.8976 398.198 59.3681 365.178 43.2788C346.235 34.0473 326.212 25.425 304.863 24.5219C288.595 23.8182 272.012 27.62 256.149 24.1543C242.725 21.2242 231.213 13.3895 218.655 8.07544C195.582 -1.69549 169.35 -2.72231 145.482 5.21115C121.615 13.1446 101.974 29.4194 90.6933 50.6093C68.9503 91.4628 80.7999 145.024 50.6476 180.836C42.0246 191.097 30.6022 198.995 21.4958 208.909C-8.12812 241.297 -5.37371 295.205 27.4318 324.769C49.1636 344.387 80.7437 353.345 99.7098 375.326C105.691 382.258 110.266 390.344 117.428 396.236C126.422 403.588 138.71 402.79 148.446 408.996C160.206 416.474 171.01 423.458 183.961 429.287Z" fill="#A500FF"/>
<path d="M121.565 63.9268C118.395 64.0633 114.572 63.4752 112.571 65.8067C111.064 67.5921 111.604 70.3226 113.144 72.108C114.827 73.7585 116.887 75.033 119.17 75.8363C123.467 77.8682 127.962 79.5106 132.594 80.7408C133.512 81.0174 134.491 81.0716 135.438 80.8983C135.926 80.7249 136.367 80.4538 136.73 80.1042C137.094 79.7545 137.371 79.3348 137.543 78.8744C137.714 78.414 137.775 77.9242 137.723 77.4392C137.67 76.9543 137.504 76.486 137.237 76.0673C136.574 75.0171 135.416 74.429 134.64 73.4838C134.1 72.73 133.738 71.8777 133.577 70.9834C133.416 70.089 133.46 69.1729 133.707 68.2957C134.258 65.7962 138.721 58.9803 134.1 58.5287C132.661 58.3921 130.312 60.9652 129.12 61.6163C126.851 62.9709 124.252 63.7659 121.565 63.9268Z" fill="#A500FF"/>
<path d="M121.565 63.9268C118.395 64.0633 114.572 63.4752 112.571 65.8067C111.064 67.5921 111.604 70.3226 113.144 72.108C114.827 73.7586 116.887 75.033 119.17 75.8363C123.467 77.8682 127.962 79.5106 132.594 80.7408C133.512 81.0174 134.491 81.0716 135.438 80.8984C135.926 80.7249 136.367 80.4538 136.73 80.1042C137.094 79.7545 137.371 79.3348 137.543 78.8744C137.714 78.414 137.775 77.9242 137.723 77.4392C137.67 76.9543 137.504 76.486 137.237 76.0673C136.574 75.0171 135.416 74.429 134.64 73.4838C134.1 72.73 133.738 71.8777 133.577 70.9834C133.416 70.089 133.46 69.1729 133.707 68.2957C134.258 65.7962 138.721 58.9803 134.1 58.5287C132.661 58.3921 130.312 60.9652 129.12 61.6163C126.851 62.9709 124.252 63.7659 121.565 63.9268V63.9268Z" fill="#FFB51F"/>
<path d="M236.328 154.309L232.888 167.541L240.679 158.289L236.328 154.309Z" fill="#A500FF"/>
<path opacity="0.26" d="M236.328 154.309L232.888 167.541L240.679 158.289L236.328 154.309Z" fill="url(#paint0_linear)"/>
<path d="M250.584 118.181C250.584 118.181 243.13 117.95 242.804 124.608C242.478 131.267 251.326 132.034 251.326 132.034L250.584 118.181Z" fill="#A500FF"/>
<path opacity="0.26" d="M250.584 118.181C250.584 118.181 243.13 117.95 242.804 124.608C242.478 131.267 251.326 132.034 251.326 132.034L250.584 118.181Z" fill="url(#paint1_linear)"/>
<path d="M329.989 185.038C330.248 185.521 330.529 186.088 331.114 186.225C331.889 186.445 332.452 185.658 333.014 185.112C338.309 180.008 342.592 174.925 327.696 167.415C325.515 166.365 322.94 165.83 321.142 164.265C320.151 163.31 319.457 162.122 319.132 160.827C318.808 159.532 318.865 158.18 319.298 156.913C320.218 154.371 322.129 152.246 324.649 150.958C327.111 149.614 329.922 148.974 332.519 147.902C335.116 146.831 337.679 145.182 338.657 142.651C339.636 140.12 338.86 137.4 337.533 135.184C334.397 129.797 327.078 126.226 321.029 128.578C324.188 129.492 327.674 130.679 329.225 133.367C330.776 136.056 329.798 139.574 327.797 142.042C325.796 144.51 322.952 146.243 320.298 148.07C316.026 151.053 311.957 154.781 310.664 159.623C306.763 174.011 324.852 175.303 329.989 185.038Z" fill="#A500FF"/>
<path opacity="0.26" d="M329.989 185.038C330.248 185.521 330.529 186.088 331.114 186.225C331.889 186.445 332.452 185.658 333.014 185.112C338.309 180.008 342.592 174.925 327.696 167.415C325.515 166.365 322.94 165.83 321.142 164.265C320.151 163.31 319.457 162.122 319.132 160.827C318.808 159.532 318.865 158.18 319.298 156.913C320.218 154.371 322.129 152.246 324.649 150.958C327.111 149.614 329.922 148.974 332.519 147.902C335.116 146.831 337.679 145.182 338.657 142.651C339.636 140.12 338.86 137.4 337.533 135.184C334.397 129.797 327.078 126.226 321.029 128.578C324.188 129.492 327.674 130.679 329.225 133.367C330.776 136.056 329.798 139.574 327.797 142.042C325.796 144.51 322.952 146.243 320.298 148.07C316.026 151.053 311.957 154.781 310.664 159.623C306.763 174.011 324.852 175.303 329.989 185.038Z" fill="url(#paint2_linear)"/>
<path d="M424.966 128.998C424.284 130.266 423.091 131.229 421.649 131.676C418.127 133.157 414.246 133.73 410.407 133.336C408.754 133.09 407.087 132.939 405.415 132.884C403.597 133.007 401.808 133.382 400.109 133.997C395.042 135.625 390.115 137.608 385.37 139.931C378.804 143.155 372.587 147.01 365.954 150.139C353.88 155.781 340.609 158.834 327.111 159.077C311.079 159.339 294.115 160.253 279.274 165.903C278.611 166.155 277.948 166.418 277.318 166.68C277.206 169.39 277.24 172.068 277.386 174.735C277.453 176.08 277.521 177.413 277.667 178.716C279.162 194.994 284.412 210.915 287.965 227.026C288.522 228.959 288.663 230.975 288.381 232.959C287.133 238.61 279.792 240.763 273.687 241.603C266.526 242.6 259.313 243.238 252.079 243.514C249.032 243.609 245.794 243.609 243.242 242.075C239.184 239.628 238.487 234.472 238.251 229.966C237.059 207.261 247.987 183.484 239.678 162.112L238.273 158.677C236.762 154.893 234.317 151.495 231.137 148.758C227.957 146.021 224.131 144.022 219.97 142.924C213.124 141.002 206.479 137.379 199.734 134.796C194.113 132.695 188.21 131.214 183.286 127.98C176.338 123.348 172.426 115.808 168.671 108.635C161.648 95.3878 154.022 82.4351 145.793 69.7765C145.112 68.5446 144.149 67.4686 142.971 66.6258C141.599 65.8067 139.89 65.6806 138.283 65.2606C131.796 63.5277 127.951 56.2182 129.727 50.1164C130.1 48.847 130.68 47.639 131.447 46.5352C131.831 45.9247 132.326 45.3811 132.909 44.9283C135.528 43.0694 139.306 44.6343 141.903 46.5352C143.308 44.4347 146.906 44.7708 148.817 46.4616C150.728 48.1525 151.436 50.6625 152.347 52.994C154.244 57.422 156.569 61.6791 159.295 65.7122C167.052 77.8807 174.806 90.0492 182.555 102.218C184.512 105.368 186.569 108.519 189.616 110.672C193.18 113.245 197.789 114.19 202.219 114.978C213.057 116.903 224.007 118.232 235.013 118.958C239.094 119.252 243.355 119.504 246.817 121.5C250.966 121.143 256.553 121.689 257.082 120.523C259.252 115.755 262.456 110.861 261.792 105.746C260.994 99.5397 255.373 96.5046 252.056 91.0959C251.045 89.4576 252.922 84.9942 252.259 83.2298C250.865 79.6065 251.281 75.5947 252.371 71.8769C253.562 67.3967 256.038 63.3046 259.533 60.041C261.283 58.4269 263.37 57.1653 265.663 56.3344C267.957 55.5035 270.408 55.1208 272.866 55.21C278.634 55.5985 283.76 59.0538 287.257 63.3597C290.326 67.0774 292.349 71.4568 294.306 75.7942C296.166 79.5124 297.468 83.453 298.173 87.5042C298.735 91.579 298.004 95.9059 295.317 99.1826C291.675 103.552 285.323 105.085 281.062 108.939C276.037 113.508 273.586 119.83 272.922 126.362C272.754 128.221 272.439 131.613 272.922 132.527C272.88 132.641 272.824 132.751 272.754 132.853C274.371 133.904 276.048 134.872 277.779 135.751C292.934 143.292 310.956 142.966 328.101 142.441C332.313 142.441 336.515 142.058 340.647 141.296C345.148 140.144 349.517 138.578 353.688 136.623C370.35 129.712 387.674 124.199 404.954 118.685C404.223 117.383 406.18 115.535 407.641 114.936C409.148 114.54 410.698 114.307 412.262 114.243C415.016 113.854 417.804 112.415 420.39 113.361C423.392 114.474 424.201 118.034 424.55 121.027C424.763 122.666 424.932 124.293 425.146 125.963C425.352 126.973 425.29 128.015 424.966 128.998V128.998Z" fill="#FDBAAC"/>
<path opacity="0.26" d="M400.109 133.997C395.042 135.625 390.115 137.608 385.37 139.931C378.804 143.155 372.587 147.01 365.954 150.139C353.879 155.781 340.609 158.834 327.111 159.077C311.079 159.339 294.114 160.253 279.274 165.903L282.377 151.41C282.377 151.41 306.65 153.237 318.769 152.618C330.889 151.998 357.432 150.517 366.966 143.743C376.499 136.97 400.109 133.997 400.109 133.997Z" fill="url(#paint3_linear)"/>
<path opacity="0.26" d="M235.586 141.265C239.532 141.906 243.849 142.798 247.323 140.939C247.871 140.536 248.538 140.301 249.235 140.267C249.556 140.337 249.86 140.466 250.128 140.647C250.396 140.827 250.624 141.055 250.797 141.317C252.298 143.124 253.329 145.231 253.811 147.473C254.292 149.715 254.211 152.031 253.572 154.239C252.934 156.446 251.756 158.486 250.131 160.196C248.507 161.907 246.48 163.242 244.209 164.097C243.454 164.46 242.584 164.557 241.758 164.37C240.51 163.96 240.061 162.584 239.678 161.408C237.965 156.217 234.691 151.595 230.246 148.091C228.042 146.335 225.591 144.869 222.961 143.733C220.566 142.683 216.834 142.483 214.866 141.202C217.115 139.847 222.061 140.32 224.793 140.351C228.411 140.393 232.019 140.699 235.586 141.265Z" fill="url(#paint4_linear)"/>
<path d="M293.519 238.62C293.044 239.722 292.269 240.689 291.27 241.424C286.875 244.911 280.905 246.213 275.137 246.35C269.37 246.486 263.648 245.667 257.891 245.405C248.883 245.021 239.873 246.134 231.281 248.692C230.315 249.116 229.212 249.176 228.2 248.86C226.873 248.209 226.772 246.476 226.84 245.079C228.234 223.178 229.632 201.309 231.033 179.472C231.382 174.441 231.73 169.264 234.282 164.769C236.531 160.757 240.387 157.753 243.276 154.172C249.28 146.821 251.067 137.369 250.719 128.263C250.605 125.611 250.278 122.971 249.741 120.366C249.325 118.475 246.908 118.969 246.908 118.738C246.908 118.738 250.573 117.761 251.832 118.15C255.205 119.126 256.655 126.142 257.071 128.788C257.88 133.546 258.049 138.639 260.916 142.62C261.955 144.036 263.381 145.166 265.045 145.894C266.71 146.621 268.552 146.92 270.382 146.758C271.797 146.579 273.091 145.917 274.013 144.899C277.184 141.412 273.8 137.075 272.889 132.632C272.557 131.313 272.557 129.94 272.889 128.62C278.162 129.828 281.242 134.922 281.692 140.005C283.94 164.566 286.189 189.109 288.437 213.635C288.988 220.063 289.618 226.553 292.204 232.539C293.137 234.503 294.182 236.593 293.519 238.62Z" fill="#A500FF"/>
<path opacity="0.26" d="M228.83 215.127C228.83 215.127 241.905 212.785 249.28 211.409C262.388 208.962 287.504 208.353 287.504 208.353L287.021 199.163L229.594 205.024L228.83 215.127Z" fill="url(#paint5_linear)"/>
<path d="M237.565 162.878C237.565 162.878 234.125 214.78 232.64 224.841C231.79 231.337 231.956 237.914 233.135 244.365L236.575 240.689C236.575 240.689 233.877 231.237 235.103 223.697C236.328 216.156 238.296 181.898 238.296 181.898L241.252 156.409C241.252 156.409 237.565 160.589 237.565 162.878Z" fill="url(#paint6_linear)"/>
<path d="M228.211 248.86C228.211 248.86 229.695 240.805 237.891 241.183C246.087 241.561 259.105 241.802 259.105 241.802C259.105 241.802 237.565 252.052 235.103 251.517C232.64 250.981 230.257 251.79 228.211 248.86Z" fill="#606161"/>
<path d="M228.211 248.86C228.211 248.86 229.695 240.805 237.891 241.183C246.087 241.561 259.105 241.802 259.105 241.802C259.105 241.802 237.565 252.052 235.103 251.517C232.64 250.981 230.257 251.79 228.211 248.86Z" fill="url(#paint7_linear)"/>
<path d="M323.446 270.851C323.311 272.185 322.119 273.162 321.006 274.002C312.917 279.9 303.693 284.296 293.833 286.951C293.399 287.176 292.919 287.312 292.424 287.35C291.93 287.389 291.432 287.329 290.964 287.176C290.496 287.022 290.067 286.777 289.707 286.458C289.348 286.139 289.064 285.752 288.875 285.323C287.101 282.82 285.48 280.226 284.019 277.552C284.468 280.786 284.929 284.011 285.413 287.277C285.553 287.78 285.586 288.305 285.509 288.82C285.432 289.336 285.246 289.832 284.963 290.28C284.195 290.953 283.183 291.328 282.13 291.331C271.189 292.636 260.079 291.893 249.448 289.146C248.361 288.929 247.339 288.488 246.458 287.854L245.794 287.035C245.047 285.655 244.698 284.116 244.783 282.572C244.353 275.108 242.447 267.784 239.161 260.969C237.093 256.768 230.167 249.29 233.113 244.396C234.058 243.022 235.454 241.972 237.093 241.403C241.106 239.733 246.806 239.408 249.909 239.471C261.152 239.702 272.394 239.964 283.637 240.195C286.294 240.12 288.949 240.428 291.506 241.109C294.01 242.056 296.325 243.391 298.353 245.058C307.124 251.651 315.023 259.195 321.883 267.533C322.821 268.424 323.376 269.604 323.446 270.851Z" fill="#606161"/>
<path d="M319.68 270.568C320.501 270.505 321.625 270.767 321.625 271.534C321.601 271.796 321.5 272.047 321.333 272.259C318.443 276.67 313.16 279.085 308.145 281.27C303.803 283.342 299.245 284.992 294.542 286.195C294.163 286.338 293.752 286.39 293.346 286.348C292.94 286.306 292.551 286.17 292.215 285.954C291.417 285.197 292.035 283.916 292.844 283.17C294.314 281.982 295.986 281.031 297.791 280.356C301.733 278.634 305.62 276.803 309.449 274.863C312.609 273.256 316.015 270.883 319.68 270.568Z" fill="url(#paint8_linear)"/>
<path d="M254.507 284.756L248.504 286.804C248.504 286.804 251.078 289.787 258.701 290.364C266.323 290.942 284.885 290.931 285.132 289.44C285.379 287.949 278.117 280.828 273.822 280.597C269.527 280.366 254.507 284.756 254.507 284.756Z" fill="url(#paint9_linear)"/>
<path d="M321.063 310.959C320.714 313.994 318.106 324.434 306.302 323.562C287.707 322.113 268.999 322.648 250.359 322.197C243.4 322.029 236.036 321.934 229.954 325.064C220.6 329.895 216.969 340.722 209.212 347.57C206.525 349.954 202.612 351.949 199.194 350.574C196.429 349.471 195.001 346.467 195.035 343.663C195.068 340.859 196.226 338.181 197.407 335.597C200.589 328.592 203.736 321.577 206.907 314.593C207.774 312.192 209.194 309.998 211.067 308.166C213.056 306.464 216.159 305.656 218.464 306.989C220.769 308.323 221.511 311.358 223.703 312.965C225.524 314.299 228.009 314.425 230.314 314.498C253.923 315.013 277.892 310.476 301.389 308.26C304.379 290.406 297.398 285.912 299.32 279.684C299.522 279.589 299.702 279.526 299.905 279.421C302.67 278.182 305.425 276.911 308.157 275.672C309.933 274.853 311.743 273.876 313.598 273.067C313.71 273.107 313.815 273.16 313.913 273.225C319.748 278.161 322.176 301.161 321.063 310.959Z" fill="#FDBAAC"/>
<path d="M281.602 419.037C288.688 372.71 279.161 325.495 254.507 284.756C257.206 278.014 269.853 277.321 275.868 281.858C281.883 286.395 284.086 293.851 285.908 300.835C292.215 324.99 297.431 349.565 296.723 374.35C296.397 386.155 294.722 397.896 293.058 409.596C292.642 412.536 292.17 415.592 290.348 417.997C288.527 420.402 284.401 420.413 281.602 419.037Z" fill="#FDBAAC"/>
<path d="M306.998 436.671C307.055 437.523 306.906 438.376 306.562 439.167C306.217 439.958 305.686 440.666 305.008 441.239C301.377 444.505 295.643 444.075 290.685 443.423C284.862 442.646 279.061 441.89 273.226 441.144C270.977 440.85 268.414 440.325 267.357 438.435C266.983 437.621 266.828 436.734 266.907 435.851C267.001 434.744 267.235 433.651 267.604 432.596C267.852 431.808 268.133 431.031 268.414 430.243L275.946 410.447C276.315 409.214 276.958 408.069 277.835 407.086C280.084 404.859 283.985 405.353 287.234 406.036C288.896 406.274 290.495 406.805 291.944 407.6C295.373 409.701 293.586 412.074 293.518 415.078C293.629 418.165 294.777 421.142 296.801 423.585C299.556 427.208 303.333 430.117 305.795 433.898C306.323 434.656 306.704 435.495 306.919 436.376C306.962 436.47 306.988 436.569 306.998 436.671Z" fill="#A500FF"/>
<path d="M281.546 53.2881C281.65 54.3969 281.353 55.5065 280.702 56.4388C279.758 57.489 277.869 57.7725 277.172 59.0433C277.012 59.5406 276.777 60.0143 276.475 60.4506C276.13 60.7803 275.673 60.9882 275.182 61.0387C271.81 61.9209 265.199 61.9839 263.76 65.3446C263.131 66.7834 262.962 68.4953 262.018 69.7135C260.556 71.6774 257.442 72.5911 256.958 74.9016C256.869 75.6803 256.937 76.4677 257.161 77.2226C257.492 78.113 257.566 79.0695 257.374 79.9952C257.172 80.423 257.022 80.8703 256.925 81.3289C256.95 82.0578 257.23 82.7588 257.723 83.3244L263.839 91.7261C263.906 92.4823 262.231 90.9069 261.59 90.5814C260.949 90.2558 260.578 89.3421 259.836 89.1531C253.271 87.6198 255.823 97.8909 263.58 96.8827C262.963 97.2088 262.443 97.6752 262.069 98.2388C261.696 98.8024 261.481 99.4449 261.444 100.107C261.444 101.252 261.691 102.753 260.533 103.173C260.214 103.263 259.874 103.263 259.555 103.173C255.823 102.333 255.89 96.2946 252.158 95.4439C251.528 95.3178 250.899 95.3494 250.303 95.2548C249.385 95.072 248.53 94.6773 247.817 94.1068C247.105 93.5363 246.556 92.8081 246.222 91.9887C245.572 90.3417 245.322 88.5803 245.491 86.8321C245.557 86.346 245.495 85.8521 245.311 85.3933C244.88 84.8164 244.272 84.3737 243.569 84.1225C238.33 81.5495 236.655 74.2715 240.196 69.8711C240.96 68.9259 241.938 68.1382 242.703 67.193C244.727 64.7775 245.57 61.7109 247.031 58.9698C247.619 57.6806 248.668 56.6225 249.999 55.9767C251.008 55.7179 252.039 55.5422 253.08 55.4516C256.082 54.8949 258.24 52.5425 260.41 50.526C262.58 48.5096 265.334 46.5142 268.336 46.9658C269.46 47.1338 270.438 47.5854 271.551 47.7535C274.384 48.142 277.633 46.4092 279.893 48.016C281.265 48.9612 281.534 50.6836 281.534 52.2904C281.565 52.6222 281.569 52.9558 281.546 53.2881Z" fill="#E08142"/>
<path d="M154.922 229.042C169.66 229.62 182.679 220.934 196.26 215.547C223.973 204.551 255.452 207.208 285.57 206.988C297.094 206.903 308.966 206.294 319.365 201.673C329.765 197.052 338.478 187.495 338.242 176.731C338.242 174.693 335.566 171.48 331.552 169.306C333.868 173.507 327.808 186.298 320.017 189.837C312.226 193.377 303.446 194.469 294.801 194.963C262.512 196.811 229.875 190.825 197.879 195.309C188.154 196.674 178.126 199.237 171.01 205.58C163.679 212.123 149.548 210.768 139.531 209.172C129.514 207.576 119.834 204.362 109.738 203.469C99.6422 202.577 88.5234 204.456 81.6318 211.409C78.8436 214.224 76.9324 217.71 74.4028 220.693C67.5 228.937 56.4149 233.369 45.2848 234.787C34.1547 236.205 17.5159 236.551 6.39705 235.28C0.393566 245.426 -1.47269 262.24 1.14681 273.55C12.3893 272.899 29.0057 265.411 40.1133 263.573C45.9931 262.607 51.8954 261.473 57.2693 259.026C71.7721 252.504 80.4513 237.717 94.9204 231.132C113.369 222.741 134.494 230.638 154.922 229.042Z" fill="#A500FF"/>
<path d="M154.922 229.042C169.66 229.62 182.679 220.934 196.26 215.547C223.973 204.551 255.452 207.208 285.57 206.988C297.094 206.903 308.966 206.294 319.365 201.673C329.765 197.052 338.478 187.495 338.242 176.731C338.242 174.693 335.566 171.48 331.552 169.306C333.868 173.507 327.808 186.298 320.017 189.837C312.226 193.377 303.446 194.469 294.801 194.963C262.512 196.811 229.875 190.825 197.879 195.309C188.154 196.674 178.126 199.237 171.01 205.58C163.679 212.123 149.548 210.768 139.531 209.172C129.514 207.576 119.834 204.362 109.738 203.469C99.6422 202.577 88.5234 204.456 81.6318 211.409C78.8436 214.224 76.9324 217.71 74.4028 220.693C67.5 228.937 56.4149 233.369 45.2848 234.787C34.1547 236.205 17.5159 236.551 6.39705 235.28C0.393566 245.426 -1.47269 262.24 1.14681 273.55C12.3893 272.899 29.0057 265.411 40.1133 263.573C45.9931 262.607 51.8954 261.473 57.2693 259.026C71.7721 252.504 80.4513 237.717 94.9204 231.132C113.369 222.741 134.494 230.638 154.922 229.042Z" fill="#EA13A2"/>
<path d="M300.871 122.571C297.409 121.059 293.53 119.672 289.876 120.681C289.347 120.786 288.874 121.061 288.538 121.458C288.304 121.896 288.206 122.388 288.257 122.876L288.404 130.469C297.741 133.187 307.518 134.346 317.285 133.892C319.575 133.653 321.89 133.731 324.155 134.123C325.285 134.335 326.337 134.816 327.208 135.521C328.079 136.226 328.739 137.131 329.124 138.146C330.248 135.73 329.124 132.821 327.123 130.994C323.75 127.938 320.377 128.431 316.195 127.959C310.81 127.328 305.762 124.703 300.871 122.571Z" fill="#A500FF"/>
<path d="M184.905 32.7353C184.405 31.829 183.684 31.0456 182.799 30.4489C181.914 29.8521 180.891 29.4589 179.812 29.3011C178.686 29.0718 177.536 28.9521 176.383 28.944C177.047 27.8938 177.676 26.7596 178.238 25.6463C178.635 24.9481 178.883 24.185 178.969 23.3989C178.826 22.015 178.189 20.7164 177.159 19.7126C171.212 12.9247 163.62 7.55714 155.011 4.05383C154.67 3.87018 154.281 3.77924 153.887 3.79127C153.374 3.86866 152.905 4.1099 152.56 4.47392C150.845 5.9588 149.266 7.57474 147.839 9.30492C147.743 8.98368 147.626 8.66805 147.49 8.35973C147.059 6.94141 146.228 5.65734 145.084 4.64195C144.42 4.13937 143.652 3.76998 142.828 3.55677C142.004 3.34357 141.142 3.29112 140.295 3.40269C139.304 3.53089 138.352 3.84893 137.499 4.33687C136.646 4.82482 135.91 5.47215 135.337 6.23828C134.486 7.50569 133.988 8.9523 133.89 10.4458C133.792 11.9392 134.096 13.4319 134.775 14.7871C135.209 15.7217 135.713 16.627 136.281 17.4966C136.562 17.9797 136.877 18.4733 137.158 18.9984C137.731 19.927 137.986 20.9972 137.889 22.0651C137.845 22.3741 137.695 22.6615 137.462 22.8847C137.229 23.108 136.926 23.2551 136.596 23.3043L132.515 21.2774C132.169 21.9094 132.005 22.615 132.041 23.3242C132.076 24.0334 132.31 24.7217 132.718 25.3208C133.147 25.9877 133.751 26.5418 134.473 26.9312C135.195 27.3206 136.01 27.5326 136.844 27.5472H136.945C137.948 27.5304 138.922 27.2342 139.744 26.6965C138.62 32.3362 138.62 38.312 140.722 43.332C144.174 51.7338 158.564 45.9471 164.017 42.3868L164.219 42.2608C164.185 42.54 164.185 42.8218 164.219 43.101C164.409 44.3824 165.077 45.5602 166.105 46.4267C167.133 47.2932 168.456 47.7928 169.84 47.8374V43.5316C169.542 43.5608 169.244 43.4782 169.011 43.3019C168.778 43.1256 168.629 42.8701 168.598 42.5916C168.567 42.3131 168.655 42.0343 168.844 41.8167C169.032 41.5991 169.306 41.4604 169.604 41.4311C170.349 41.3892 171.095 41.4892 171.796 41.7252C172.48 41.9301 173.185 42.0709 173.899 42.1453C176.241 42.3716 178.601 41.9051 180.644 40.8115C183.893 39.2572 186.412 35.9595 184.905 32.7353ZM142.892 16.982C142.577 17.6332 142.307 18.2843 142.026 18.9774C141.809 18.3287 141.539 17.6966 141.217 17.087C140.902 16.4989 140.554 15.9423 140.205 15.3542C139.857 14.7661 139.339 13.9154 138.98 13.1697C138.628 12.4608 138.455 11.6859 138.475 10.9048C138.494 10.1237 138.705 9.35714 139.092 8.66429C139.298 8.40126 139.559 8.17937 139.858 8.01165C140.157 7.84392 140.489 7.73375 140.835 7.68759C141.253 7.63947 141.675 7.7326 142.026 7.95014C142.544 8.49629 142.928 9.14146 143.151 9.84053C143.692 11.2175 144.158 12.6196 144.545 14.0414C143.94 14.9908 143.388 15.9689 142.892 16.9715V16.982ZM178.486 37.0517C177.275 37.69 175.893 37.9856 174.506 37.9024C174.011 37.8394 173.528 37.7133 172.999 37.6083C172.114 37.3542 171.202 37.1922 170.279 37.1252C171.299 36.0574 172.253 34.9353 173.134 33.7645C174.944 33.1821 176.893 33.0911 178.755 33.502C179.501 33.5686 180.188 33.9084 180.667 34.4472C180.959 35.0773 179.88 36.3481 178.486 37.0412V37.0517Z" fill="#A500FF"/>
<path d="M184.905 32.7353C184.405 31.829 183.684 31.0456 182.799 30.4489C181.914 29.8521 180.891 29.4589 179.812 29.3011C178.686 29.0718 177.536 28.9521 176.383 28.944C177.047 27.8938 177.676 26.7596 178.238 25.6463C178.635 24.9481 178.883 24.185 178.969 23.3989C178.826 22.015 178.189 20.7164 177.159 19.7126C171.212 12.9247 163.62 7.55714 155.011 4.05383C154.67 3.87018 154.281 3.77924 153.887 3.79127C153.374 3.86866 152.905 4.1099 152.56 4.47392C150.845 5.9588 149.266 7.57474 147.839 9.30492C147.743 8.98368 147.626 8.66805 147.49 8.35973C147.059 6.94141 146.228 5.65734 145.084 4.64195C144.42 4.13937 143.652 3.76998 142.828 3.55677C142.004 3.34357 141.142 3.29112 140.295 3.40269C139.304 3.53089 138.352 3.84893 137.499 4.33687C136.646 4.82482 135.91 5.47215 135.337 6.23828C134.486 7.50569 133.988 8.9523 133.89 10.4458C133.792 11.9392 134.096 13.4319 134.775 14.7871C135.209 15.7217 135.713 16.627 136.281 17.4966C136.562 17.9797 136.877 18.4733 137.158 18.9984C137.731 19.927 137.986 20.9972 137.889 22.0651C137.845 22.3741 137.695 22.6615 137.462 22.8847C137.229 23.108 136.926 23.2551 136.596 23.3043L132.515 21.2774C132.169 21.9094 132.005 22.615 132.041 23.3242C132.076 24.0334 132.31 24.7217 132.718 25.3208C133.147 25.9877 133.751 26.5418 134.473 26.9312C135.195 27.3206 136.01 27.5326 136.844 27.5472H136.945C137.948 27.5304 138.922 27.2342 139.744 26.6965C138.62 32.3362 138.62 38.312 140.722 43.332C144.174 51.7338 158.564 45.9471 164.017 42.3868L164.219 42.2608C164.185 42.54 164.185 42.8218 164.219 43.101C164.409 44.3824 165.077 45.5602 166.105 46.4267C167.133 47.2932 168.456 47.7928 169.84 47.8374V43.5316C169.542 43.5608 169.244 43.4782 169.011 43.3019C168.778 43.1256 168.629 42.8701 168.598 42.5916C168.567 42.3131 168.655 42.0343 168.844 41.8167C169.032 41.5991 169.306 41.4604 169.604 41.4311C170.349 41.3892 171.095 41.4892 171.796 41.7252C172.48 41.9301 173.185 42.0709 173.899 42.1453C176.241 42.3716 178.601 41.9051 180.644 40.8115C183.893 39.2572 186.412 35.9595 184.905 32.7353ZM142.892 16.982C142.577 17.6332 142.307 18.2843 142.026 18.9774C141.809 18.3287 141.539 17.6966 141.217 17.087C140.902 16.4989 140.554 15.9423 140.205 15.3542C139.857 14.7661 139.339 13.9154 138.98 13.1697C138.628 12.4608 138.455 11.6859 138.475 10.9048C138.494 10.1237 138.705 9.35714 139.092 8.66429C139.298 8.40126 139.559 8.17937 139.858 8.01165C140.157 7.84392 140.489 7.73375 140.835 7.68759C141.253 7.63947 141.675 7.7326 142.026 7.95014C142.544 8.49629 142.928 9.14146 143.151 9.84053C143.692 11.2175 144.158 12.6196 144.545 14.0414C143.94 14.9908 143.388 15.9689 142.892 16.9715V16.982ZM178.486 37.0517C177.275 37.69 175.893 37.9856 174.506 37.9024C174.011 37.8394 173.528 37.7133 172.999 37.6083C172.114 37.3542 171.202 37.1922 170.279 37.1252C171.299 36.0574 172.253 34.9353 173.134 33.7645C174.944 33.1821 176.893 33.0911 178.755 33.502C179.501 33.5686 180.188 33.9084 180.667 34.4472C180.959 35.0773 179.88 36.3481 178.486 37.0412V37.0517Z" fill="url(#paint10_linear)"/>
<path opacity="0.26" d="M277.386 140.162C277.554 143.817 275.497 147.209 270.438 146.81C271.853 146.632 273.147 145.969 274.069 144.951C277.24 141.464 273.856 137.127 272.945 132.685V132.527L273.541 130.427C273.541 130.427 277.206 136.476 277.386 140.162Z" fill="url(#paint11_linear)"/>
<path opacity="0.26" d="M261.714 94.1311C261.415 93.7686 261.186 93.3598 261.039 92.9233C260.847 92.3976 260.523 91.9223 260.095 91.5371C259.875 91.3505 259.6 91.229 259.306 91.1879C259.012 91.1467 258.711 91.1879 258.442 91.306C258.252 91.419 258.094 91.5737 257.982 91.7568C257.871 91.9398 257.808 92.1456 257.801 92.3562C257.775 92.7695 257.864 93.1821 258.06 93.5535C258.519 94.4806 259.316 95.2251 260.309 95.6539C260.844 95.9259 261.467 96.0079 262.062 95.885C262.445 95.7799 263.187 95.2758 262.984 94.8347C262.782 94.3937 262.029 94.4462 261.714 94.1311Z" fill="url(#paint12_linear)"/>
<path opacity="0.26" d="M281.546 53.2881C281.651 54.3969 281.354 55.5065 280.703 56.4388C279.758 57.489 277.87 57.7726 277.173 59.0433C277.012 59.5406 276.777 60.0143 276.476 60.4506C276.13 60.7804 275.673 60.9882 275.183 61.0388C271.81 61.9209 265.199 61.9839 263.76 65.3446C263.131 66.7834 262.962 68.4953 262.018 69.7136C260.556 71.6775 257.442 72.5912 256.959 74.9016C256.869 75.6803 256.938 76.4678 257.161 77.2226C257.015 77.3225 256.886 77.4429 256.779 77.5797C255.894 76.2561 255.454 74.7151 255.516 73.1556C255.578 71.5961 256.139 70.0898 257.127 68.8314C257.757 68.0542 258.566 67.3716 259.23 66.6154C260.624 64.9876 261.388 62.9607 262.602 61.1963C263.817 59.4319 265.57 57.7831 267.819 57.7201C269.457 57.8109 271.026 58.3679 272.316 59.3164C272.516 58.492 272.934 57.7279 273.534 57.0946C274.133 56.4613 274.893 55.9793 275.745 55.6931C276.622 55.3991 277.6 55.3361 278.432 55.0105C279.691 54.5589 280.489 52.7315 281.501 52.3745C281.538 52.6777 281.553 52.983 281.546 53.2881Z" fill="url(#paint13_linear)"/>
<path d="M277.386 174.735C277.454 176.08 277.521 177.413 277.667 178.716L276.476 178.947L277.386 174.735Z" fill="#A500FF"/>
<path d="M284.008 277.52L283.693 264.382L294.351 278.613C294.351 278.613 289.078 282.687 290.809 287.077L284.008 277.52Z" fill="url(#paint14_linear)"/>
<path d="M256.261 282.068L254.507 284.704L246.458 287.854L245.794 287.035C245.047 285.655 244.698 284.117 244.783 282.572C244.353 275.108 242.447 267.784 239.161 260.969C237.093 256.768 230.167 249.29 233.113 244.396C234.058 243.022 235.454 241.972 237.093 241.403C238.948 243.745 245.097 251.905 246.143 256.568C247.368 262.082 251.764 274.023 251.764 274.023L256.261 282.068Z" fill="url(#paint15_linear)"/>
<path d="M232.854 326.44C232.771 326.996 232.534 327.523 232.168 327.968C231.801 328.414 231.317 328.763 230.763 328.981C229.717 329.538 228.514 329.832 227.514 330.451C225.872 331.502 224.962 333.161 223.984 334.757C219.768 341.585 213.838 347.352 206.704 351.561C204.941 352.732 202.946 353.564 200.835 354.008C200.09 354.116 199.332 354.116 198.587 354.008C197.203 353.918 195.901 353.362 194.922 352.443C192.752 350.342 193.033 347.024 193.595 344.188C195.653 334.169 199.666 324.612 203.646 315.118C204.565 312.653 205.836 310.314 207.423 308.166C209.025 306.123 211.352 304.678 213.989 304.091C214.518 303.991 215.057 303.938 215.597 303.933C216.678 303.901 217.753 304.085 218.752 304.472C219.75 304.86 220.649 305.442 221.387 306.181C222.242 307.273 223.037 308.405 223.77 309.573C225.198 311.337 228.166 311.757 229.279 313.522C230.752 315.832 227.536 317.985 227.918 320.306C228.357 322.942 232.966 323.793 232.854 326.44Z" fill="#A500FF"/>
<path d="M215.575 303.965C215.496 304.154 215.361 304.416 215.226 304.679C213.787 307.126 212.045 309.216 210.853 311.852C208.795 316.389 206.772 320.989 204.816 325.589C201.533 333.287 198.351 341.479 199.509 349.744C199.678 351.078 199.959 352.611 199.015 353.651C198.882 353.809 198.731 353.954 198.565 354.081C197.181 353.991 195.879 353.435 194.9 352.516C192.73 350.416 193.011 347.097 193.573 344.262C195.631 334.243 199.644 324.686 203.624 315.192C204.543 312.726 205.814 310.388 207.401 308.239C209.003 306.196 211.33 304.752 213.967 304.164C214.495 304.051 215.033 303.984 215.575 303.965Z" fill="url(#paint16_linear)"/>
<path d="M306.998 436.67C307.055 437.523 306.906 438.376 306.562 439.167C306.217 439.958 305.686 440.666 305.008 441.239C301.377 444.505 295.643 444.074 290.685 443.423C284.862 442.646 279.061 441.89 273.226 441.144C270.977 440.85 268.414 440.325 267.357 438.435C266.983 437.621 266.828 436.734 266.907 435.851C267.001 434.744 267.235 433.651 267.604 432.596L267.784 432.459C267.784 432.459 274.935 435.694 288.695 436.376C294.768 436.729 300.858 436.729 306.931 436.376C306.969 436.471 306.992 436.57 306.998 436.67Z" fill="url(#paint17_linear)"/>
<path d="M136.163 80.6304C137.264 78.7538 132.486 74.3272 125.49 70.7434C118.495 67.1596 111.93 65.7757 110.829 67.6523C109.727 69.5289 114.505 73.9555 121.501 77.5393C128.497 81.1231 135.061 82.507 136.163 80.6304Z" fill="#E4AA8B"/>
<path d="M136.061 81.3209C136.978 79.7596 132.05 75.5886 125.054 72.0049C118.058 68.4211 111.644 66.7815 110.727 68.3428C109.811 69.9041 114.739 74.075 121.735 77.6588C128.731 81.2426 135.145 82.8822 136.061 81.3209Z" fill="#FFAB00"/>
<path opacity="0.26" d="M142.026 7.9397C142.912 8.10806 143.743 8.46729 144.453 8.98877C145.164 9.51024 145.734 10.1795 146.119 10.9433C146.119 10.9433 146.658 13.3063 144.5 14.094L142.026 7.9397Z" fill="url(#paint18_linear)"/>
<path opacity="0.26" d="M177.159 19.7126C177.159 19.7126 156.844 47.6064 146.197 47.0183C151.089 47.9924 156.194 47.1687 160.453 44.7183C166.497 41.5615 171.539 36.9671 175.068 31.4015C176.675 28.8783 177.99 26.2027 178.992 23.4199L177.159 19.7126Z" fill="url(#paint19_linear)"/>
<g opacity="0.24">
<path opacity="0.24" d="M344.987 67.508C344.274 70.1741 342.984 72.6759 341.198 74.8596C341.86 75.6558 342.614 76.3813 343.447 77.0231C343.533 77.1238 343.643 77.2051 343.767 77.261C343.892 77.3168 344.028 77.3458 344.166 77.3458C344.304 77.3458 344.441 77.3168 344.565 77.261C344.69 77.2051 344.799 77.1238 344.886 77.0231L353.498 70.7952C353.686 70.6853 353.837 70.529 353.936 70.3436C354.105 69.8815 353.61 69.472 353.172 69.2094C351.713 68.1905 350.038 67.4744 348.259 67.109C347.366 66.9516 346.444 67.0582 345.619 67.4141C344.795 67.7699 344.11 68.3571 343.66 69.0939" fill="#A500FF"/>
<path opacity="0.24" d="M355.757 93.564C352.857 91.728 349.656 90.3447 346.28 89.4681C345.561 89.2039 344.793 89.077 344.02 89.0951C343.248 89.1131 342.487 89.2757 341.783 89.5731C339.804 90.6233 339.793 93.5325 341.154 95.2653C342.514 96.9982 344.751 97.8909 346.876 98.6995C347.382 98.9702 347.941 99.1439 348.52 99.2106C349.1 99.2773 349.687 99.2357 350.249 99.0881C350.892 98.7799 351.441 98.3247 351.845 97.7648L355.87 92.9653" fill="#A500FF"/>
<path opacity="0.24" d="M355.622 80.7723C355.459 80.7997 355.313 80.8866 355.218 81.0139C355.167 81.1463 355.167 81.291 355.218 81.4235L355.769 83.4084C355.789 83.504 355.84 83.5918 355.915 83.6604C355.999 83.6861 356.089 83.6861 356.173 83.6604L362.255 83.4504C362.57 83.4504 362.784 81.0979 362.739 80.8248C362.57 79.8586 362.638 79.9112 361.615 79.7746C359.816 79.5331 357.331 80.2787 355.622 80.7723Z" fill="#A500FF"/>
<path opacity="0.24" d="M334.666 65.7647C333.361 65.9547 332.095 66.3301 330.911 66.8779C330.562 67.0035 330.266 67.2321 330.068 67.5291C329.962 67.7893 329.965 68.0771 330.075 68.3356C330.186 68.5942 330.396 68.8047 330.664 68.9258C331.221 69.1464 331.845 69.1688 332.418 68.9889C332.828 68.9097 333.217 68.7522 333.559 68.5264C333.902 68.3005 334.19 68.011 334.408 67.6761C334.609 67.3327 334.664 66.931 334.562 66.5513C334.459 66.1717 334.208 65.842 333.857 65.6282" fill="#A500FF"/>
<path opacity="0.24" d="M343.143 61.0807C342.122 60.0558 340.734 59.4167 339.242 59.2848C339.062 59.2372 338.871 59.2372 338.691 59.2848C338.524 59.3846 338.404 59.5395 338.354 59.7186C338.304 59.8977 338.328 60.0878 338.421 60.251C338.62 60.5728 338.912 60.8351 339.264 61.0072C339.836 61.44 340.553 61.6705 341.288 61.6583C342.019 61.5638 342.66 60.7762 342.277 60.188" fill="#A500FF"/>
<path opacity="0.24" d="M357.016 60.7027H352.384C351.822 60.7027 351.125 60.7972 350.934 61.3013C350.743 61.8054 351.294 62.3515 351.856 62.3515C352.421 62.3729 352.986 62.2946 353.52 62.1205C354.423 61.9448 355.36 62.0029 356.229 62.2885C356.573 62.4639 356.974 62.5126 357.354 62.425C358.017 62.173 357.826 61.2383 357.511 60.6292" fill="#A500FF"/>
<path opacity="0.24" d="M362.481 112.216L360.007 113.886C359.145 114.381 358.429 115.07 357.927 115.892C357.689 116.309 357.624 116.793 357.745 117.253C357.865 117.712 358.162 118.113 358.579 118.381C359.704 118.937 361.098 117.887 361.682 116.795C362.267 115.703 362.649 114.369 363.785 113.739C364.212 113.497 364.763 113.361 365.033 112.951C365.178 112.655 365.194 112.318 365.079 112.01C364.964 111.703 364.725 111.449 364.414 111.302C363.773 111.032 363.067 110.927 362.368 110.998" fill="#A500FF"/>
<path opacity="0.24" d="M319.399 109.727C318.624 109.307 317.567 108.897 316.915 109.485C316.263 110.074 317.005 111.491 318.039 111.743C319.073 111.995 320.231 111.743 321.299 111.88C321.441 111.362 321.465 110.822 321.368 110.296C321.271 109.769 321.056 109.267 320.737 108.824" fill="#A500FF"/>
<path opacity="0.24" d="M221.488 84.6791C219.226 81.1031 217.318 77.3417 215.788 73.4418L211.291 78.1467C211.07 78.286 210.887 78.4724 210.758 78.6905C210.629 78.9086 210.557 79.1522 210.548 79.4013C210.539 79.6504 210.594 79.8979 210.708 80.1235C210.821 80.349 210.99 80.5462 211.201 80.6988L215.136 85.2672C216.193 86.5065 217.385 87.8298 219.094 88.0398C220.803 88.2498 222.601 86.517 221.724 85.1622" fill="#A500FF"/>
<path opacity="0.24" d="M224.67 41.4521L216.8 47.8165C217.003 49.7384 220.049 49.7174 221.961 48.9927C223.64 48.5158 225.09 47.51 226.064 46.1466C226.874 44.7183 226.278 42.5234 224.58 42.1873" fill="#A500FF"/>
<path opacity="0.24" d="M182.713 58.0246C183.106 59.8415 182.488 61.7529 182.803 63.5907C183.118 65.4286 185.153 67.3085 186.873 66.4158C187.341 66.1001 187.725 65.6873 187.994 65.21C188.263 64.7327 188.41 64.2036 188.424 63.6643C188.798 61.0923 188.442 58.4737 187.39 56.0712" fill="#A500FF"/>
<path opacity="0.24" d="M135.753 129.198C132.391 132.908 128.305 135.987 123.713 138.272C122.824 138.702 121.813 139.248 121.655 140.173C121.655 140.588 121.748 140.999 121.928 141.379C122.108 141.759 122.371 142.099 122.701 142.378L126.4 146.495C126.547 146.762 126.763 146.99 127.028 147.16C127.293 147.33 127.6 147.436 127.919 147.468C128.239 147.5 128.562 147.458 128.86 147.345C129.158 147.232 129.421 147.052 129.626 146.821C132.223 145.161 134.787 143.449 137.282 141.664C138.471 140.941 139.476 139.984 140.228 138.86C141.465 136.759 140.7 133.924 139.104 132.012C137.328 130.194 135.189 128.717 132.808 127.665" fill="#A500FF"/>
<path opacity="0.24" d="M151.279 147.419C151.852 148.932 151.369 150.57 150.964 152.135C150.56 153.7 150.234 155.422 151.065 156.829C151.897 158.237 154.337 158.793 155.281 157.459C156.113 154.55 156.923 151.379 155.619 148.627C154.315 145.875 149.885 144.426 147.828 146.695" fill="#A500FF"/>
<path opacity="0.24" d="M361.885 198.271C362.065 201.547 362.481 205.139 365.033 207.387C367.585 209.634 372.902 208.962 373.363 205.706C373.399 204.317 372.98 202.95 372.16 201.789L363.818 187.033C361.877 188.516 360.47 190.52 359.788 192.774C359.107 195.028 359.183 197.424 360.007 199.636" fill="#A500FF"/>
<path opacity="0.24" d="M386.82 170.083C386.213 172.929 386.944 176.941 390.047 177.109C393.419 177.287 394.173 172.141 391.542 170.23C388.911 168.319 385.168 168.791 381.896 169.369" fill="#A500FF"/>
<path opacity="0.24" d="M404.977 151.757C400.975 151.336 396.924 151.8 393.15 153.111C393.026 157.606 399.232 161.009 403.38 158.72L403.673 151.704" fill="#A500FF"/>
<path opacity="0.24" d="M121.666 281.606C118.732 278.507 115.127 276.025 111.09 274.323C107.054 272.622 102.677 271.739 98.248 271.734C96.7602 274.74 96.3654 278.118 97.1237 281.354C102.95 282.687 108.434 285.089 113.257 288.422L119.339 279.169" fill="#A500FF"/>
<path opacity="0.24" d="M162.522 256.621C157.374 255.602 152.077 255.413 146.861 256.064C146.401 257.098 146.279 258.236 146.509 259.334C146.739 260.433 147.311 261.444 148.154 262.24C149.999 263.002 152.073 263.135 154.013 262.615C155.952 262.094 157.635 260.954 158.767 259.394C159.814 257.788 160.294 255.916 160.136 254.041C159.979 252.167 159.193 250.387 157.89 248.954" fill="#A500FF"/>
<path opacity="0.24" d="M108.85 185.868C102.773 178.638 95.7861 172.118 88.04 166.449C86.2588 171.438 85.7733 176.752 86.6235 181.95C93.2415 185.122 99.9008 188.227 106.601 191.266" fill="#A500FF"/>
<path opacity="0.24" d="M386.235 97.4708C386.015 96.5697 385.602 95.7194 385.021 94.9713C384.746 94.5655 384.33 94.2601 383.844 94.1059C383.357 93.9516 382.828 93.958 382.345 94.1238C381.863 94.2896 381.456 94.6049 381.192 95.0171C380.928 95.4293 380.823 95.9136 380.895 96.3891C380.973 97.345 381.264 98.2751 381.75 99.1197C381.076 99.0334 380.391 99.1756 379.82 99.5205C379.248 99.8654 378.828 100.39 378.635 101C378.487 101.619 378.592 102.268 378.929 102.82C379.266 103.371 379.81 103.786 380.457 103.982C381.118 104.131 381.815 104.035 382.402 103.714C382.989 103.392 383.42 102.871 383.605 102.26C383.507 102.533 383.485 102.825 383.543 103.108C383.601 103.391 383.735 103.656 383.934 103.876C384.133 104.097 384.389 104.266 384.678 104.367C384.967 104.468 385.278 104.499 385.583 104.455C385.88 104.364 386.152 104.212 386.377 104.01C386.602 103.808 386.776 103.56 386.884 103.286C386.992 103.012 387.032 102.719 387.002 102.429C386.971 102.138 386.871 101.858 386.708 101.609C386.852 101.872 387.069 102.095 387.337 102.253C387.604 102.412 387.912 102.501 388.229 102.511C388.546 102.521 388.859 102.451 389.138 102.31C389.416 102.168 389.649 101.96 389.812 101.706C389.975 101.452 390.062 101.162 390.065 100.866C390.067 100.57 389.985 100.279 389.827 100.023C389.669 99.7664 389.44 99.5543 389.164 99.4085C388.888 99.2626 388.576 99.1883 388.259 99.1932C388.634 99.1836 388.997 99.0731 389.306 98.8751C389.615 98.677 389.856 98.3998 390.001 98.0768C390.145 97.7537 390.186 97.3986 390.12 97.0542C390.053 96.7097 389.881 96.3906 389.625 96.1351C389.369 95.8796 389.039 95.6986 388.676 95.614C388.312 95.5294 387.93 95.5447 387.576 95.6581C387.221 95.7714 386.909 95.978 386.677 96.253C386.446 96.5281 386.304 96.8598 386.269 97.2083" fill="#A500FF"/>
<path opacity="0.24" d="M117.226 168.844C117.089 167.765 117.207 166.671 117.57 165.639C117.933 164.607 118.533 163.661 119.328 162.868C119.969 162.238 120.98 161.692 121.801 162.112C122.146 162.323 122.419 162.622 122.588 162.973C123.053 163.814 123.331 164.734 123.407 165.677C123.482 166.621 123.353 167.57 123.027 168.466C124.297 167.958 125.671 167.722 127.051 167.772C127.74 167.812 128.396 168.059 128.923 168.475C129.45 168.891 129.818 169.455 129.974 170.083C129.986 170.766 129.743 171.431 129.288 171.965C128.833 172.499 128.193 172.87 127.479 173.013C126.036 173.259 124.549 173.14 123.173 172.666C125.005 173.412 124.915 175.996 123.735 177.508C123.311 178.114 122.682 178.569 121.947 178.8C121.284 178.914 120.598 178.827 119.991 178.551C119.384 178.275 118.888 177.825 118.575 177.266C117.987 176.149 117.658 174.929 117.608 173.685C117.284 174.339 116.7 174.849 115.98 175.108C115.261 175.367 114.461 175.354 113.752 175.071C113.055 174.754 112.455 174.276 112.011 173.683C111.566 173.089 111.291 172.4 111.211 171.679C111.124 171.283 111.122 170.875 111.205 170.479C111.288 170.082 111.454 169.705 111.694 169.369C112.818 168.035 115.067 168.434 116.731 168.97" fill="#A500FF"/>
<path opacity="0.24" d="M104.713 110.903C104.866 109.474 104.643 108.032 104.061 106.702C103.757 106.054 103.219 105.526 102.541 105.211C101.862 104.897 101.087 104.815 100.351 104.98C99.3304 105.445 98.5298 106.245 98.1021 107.227C97.319 108.329 96.8827 109.613 96.843 110.935C96.9442 112.247 98.1583 113.571 99.5524 113.361C97.3371 115.251 95.9477 117.839 95.6513 120.628C95.586 120.915 95.5905 121.213 95.6645 121.498C95.7384 121.783 95.8799 122.05 96.0785 122.277C96.3207 122.436 96.5989 122.54 96.8914 122.582C97.1839 122.624 97.4828 122.602 97.7649 122.519C99.2489 122.182 100.556 121.363 101.454 120.209C102.352 119.055 102.782 117.64 102.667 116.217C103.161 117.74 104.173 119.609 105.859 119.368C106.32 119.271 106.747 119.069 107.102 118.779C107.458 118.49 107.73 118.122 107.894 117.709C108.481 116.416 108.53 114.966 108.034 113.642C107.537 112.317 106.529 111.214 105.207 110.546" fill="#A500FF"/>
</g>
</g>
<defs>
<linearGradient id="paint0_linear" x1="232.888" y1="160.925" x2="240.679" y2="160.925" gradientUnits="userSpaceOnUse">
<stop stop-color="#010101" stop-opacity="0"/>
<stop offset="0.95" stop-color="#010101"/>
</linearGradient>
<linearGradient id="paint1_linear" x1="2526.77" y1="1808.71" x2="2591.52" y2="1808.71" gradientUnits="userSpaceOnUse">
<stop stop-color="#010101" stop-opacity="0"/>
<stop offset="0.95" stop-color="#010101"/>
</linearGradient>
<linearGradient id="paint2_linear" x1="9608.09" y1="9034.17" x2="10354.9" y2="9034.17" gradientUnits="userSpaceOnUse">
<stop stop-color="#010101" stop-opacity="0"/>
<stop offset="0.95" stop-color="#010101"/>
</linearGradient>
<linearGradient id="paint3_linear" x1="43023.2" y1="4343.31" x2="43033" y2="7134.24" gradientUnits="userSpaceOnUse">
<stop stop-color="#010101" stop-opacity="0"/>
<stop offset="0.95" stop-color="#010101"/>
</linearGradient>
<linearGradient id="paint4_linear" x1="10465.3" y1="3380.46" x2="10404" y2="4438.16" gradientUnits="userSpaceOnUse">
<stop stop-color="#010101" stop-opacity="0"/>
<stop offset="0.95" stop-color="#010101"/>
</linearGradient>
<linearGradient id="paint5_linear" x1="15209.6" y1="3394.22" x2="18269.5" y2="3394.22" gradientUnits="userSpaceOnUse">
<stop stop-color="#010101" stop-opacity="0"/>
<stop offset="0.95" stop-color="#010101"/>
</linearGradient>
<linearGradient id="paint6_linear" x1="232.101" y1="200.424" x2="241.252" y2="200.424" gradientUnits="userSpaceOnUse">
<stop stop-color="white" stop-opacity="0"/>
<stop offset="0.23" stop-color="white" stop-opacity="0.23"/>
<stop offset="0.95" stop-color="white"/>
</linearGradient>
<linearGradient id="paint7_linear" x1="8099.19" y1="2703.3" x2="8948.17" y2="2703.3" gradientUnits="userSpaceOnUse">
<stop stop-color="#010101" stop-opacity="0"/>
<stop offset="0.95" stop-color="#010101"/>
</linearGradient>
<linearGradient id="paint8_linear" x1="10028.1" y1="4593.68" x2="10001.5" y2="4472.11" gradientUnits="userSpaceOnUse">
<stop stop-color="#010101" stop-opacity="0"/>
<stop offset="0.95" stop-color="#010101"/>
</linearGradient>
<linearGradient id="paint9_linear" x1="10936.5" y1="2948.96" x2="10930.8" y2="3056.59" gradientUnits="userSpaceOnUse">
<stop stop-color="#010101" stop-opacity="0"/>
<stop offset="0.95" stop-color="#010101"/>
</linearGradient>
<linearGradient id="paint10_linear" x1="9804.17" y1="1015.09" x2="10929.4" y2="2190.93" gradientUnits="userSpaceOnUse">
<stop stop-color="#FFB41D"/>
<stop offset="0.52" stop-color="white"/>
<stop offset="1" stop-color="white" stop-opacity="0.23"/>
</linearGradient>
<linearGradient id="paint11_linear" x1="2304.29" y1="2345.2" x2="2347.36" y2="2345.2" gradientUnits="userSpaceOnUse">
<stop stop-color="#010101" stop-opacity="0"/>
<stop offset="0.95" stop-color="#010101"/>
</linearGradient>
<linearGradient id="paint12_linear" x1="1731.01" y1="532.528" x2="1751.5" y2="521.777" gradientUnits="userSpaceOnUse">
<stop stop-color="#010101" stop-opacity="0"/>
<stop offset="0.95" stop-color="#010101"/>
</linearGradient>
<linearGradient id="paint13_linear" x1="7526.52" y1="1685.67" x2="8129.99" y2="1685.67" gradientUnits="userSpaceOnUse">
<stop stop-color="#010101" stop-opacity="0"/>
<stop offset="0.95" stop-color="#010101"/>
</linearGradient>
<linearGradient id="paint14_linear" x1="3692.31" y1="6279.08" x2="3151.13" y2="6287.84" gradientUnits="userSpaceOnUse">
<stop stop-color="#010101" stop-opacity="0"/>
<stop offset="0.95" stop-color="#010101"/>
</linearGradient>
<linearGradient id="paint15_linear" x1="6871.71" y1="11919.2" x2="5763.16" y2="12093.8" gradientUnits="userSpaceOnUse">
<stop stop-color="#010101" stop-opacity="0"/>
<stop offset="0.95" stop-color="#010101"/>
</linearGradient>
<linearGradient id="paint16_linear" x1="5733.94" y1="16182.3" x2="3720.05" y2="16130.6" gradientUnits="userSpaceOnUse">
<stop stop-color="#010101" stop-opacity="0"/>
<stop offset="0.95" stop-color="#010101"/>
</linearGradient>
<linearGradient id="paint17_linear" x1="12627.5" y1="5124" x2="12606.3" y2="5685.68" gradientUnits="userSpaceOnUse">
<stop stop-color="#010101" stop-opacity="0"/>
<stop offset="0.95" stop-color="#010101"/>
</linearGradient>
<linearGradient id="paint18_linear" x1="881.573" y1="90.2225" x2="896.895" y2="90.2225" gradientUnits="userSpaceOnUse">
<stop stop-color="#010101" stop-opacity="0"/>
<stop offset="0.95" stop-color="#010101"/>
</linearGradient>
<linearGradient id="paint19_linear" x1="6295.79" y1="603.18" x2="7213.77" y2="2435.76" gradientUnits="userSpaceOnUse">
<stop stop-color="#010101" stop-opacity="0"/>
<stop offset="0.95" stop-color="#010101"/>
</linearGradient>
<clipPath id="clip0">
<rect width="445" height="449" fill="white"/>
</clipPath>
</defs>
</svg>
