<svg width="632" height="555" viewBox="0 0 632 555" fill="none" xmlns="http://www.w3.org/2000/svg">
<g clip-path="url(#clip0)">
<path opacity="0.04" fill-rule="evenodd" clip-rule="evenodd" d="M288.499 523.696C447.836 523.696 577.003 526.84 577.003 530.717C577.003 534.595 447.836 537.738 288.499 537.738C129.164 537.738 -0.00463867 534.595 -0.00463867 530.717C-0.00463867 526.84 129.164 523.696 288.499 523.696Z" fill="black"/>
<rect x="96.9358" y="261.896" width="383.128" height="246.103" fill="#380C4D"/>
<path fill-rule="evenodd" clip-rule="evenodd" d="M288.499 520.185H80.1355V262.169C80.1355 254.415 86.5144 248.127 94.3822 248.127H288.499H482.616C490.484 248.127 496.863 254.415 496.863 262.169V520.185H288.499ZM97.9446 265.68H479.053V502.633H97.9446V265.68Z" fill="#D4D7DB"/>
<path fill-rule="evenodd" clip-rule="evenodd" d="M523.576 530.717H288.499H53.4227C39.2679 530.717 27.6922 526.067 26.7747 520.186H288.499H550.223C549.306 526.067 537.73 530.717 523.576 530.717Z" fill="#C1C3C8"/>
<path fill-rule="evenodd" clip-rule="evenodd" d="M325.314 520.186C323.939 523.283 320.81 525.451 317.16 525.451H288.666H288.499H260.005C256.355 525.451 253.226 523.283 251.851 520.186H325.314Z" fill="#979AA1" stroke="white"/>
<path d="M288.969 262.012C291.042 262.012 292.722 260.355 292.722 258.311C292.722 256.267 291.042 254.61 288.969 254.61C286.896 254.61 285.216 256.267 285.216 258.311C285.216 260.355 286.896 262.012 288.969 262.012Z" fill="#A5ADBD" stroke="white" stroke-width="2"/>
</g>
<rect x="396.877" y="229" width="174.639" height="325.658" rx="20" fill="#E5E5E5"/>
<rect x="404.154" y="236.257" width="160.085" height="312.052" rx="20" fill="#380C4D"/>
<rect x="411.429" y="475.739" width="145.532" height="38.0993" rx="19.0497" fill="#FF1686"/>
<g clip-path="url(#clip1)">
<path d="M438.264 498.288C437.736 498.697 436.986 498.662 436.505 498.183L432.589 494.277C432.108 493.798 432.073 493.038 432.483 492.523L427.524 487.565C425.366 490.044 425.484 493.81 427.84 496.16L434.617 502.919C437.02 505.315 440.838 505.339 443.235 503.235L438.264 498.288Z" fill="white"/>
<path d="M433.714 488.793L431.229 486.302C430.572 485.648 429.411 485.648 428.743 486.302L428.333 486.723L433.304 491.681L433.714 491.272C434.054 490.933 434.23 490.5 434.23 490.033C434.23 489.565 434.054 489.121 433.714 488.793Z" fill="white"/>
<path d="M444.501 499.539L442.004 497.06C441.347 496.394 440.187 496.394 439.518 497.06L439.108 497.47L444.079 502.428L444.501 502.018C444.83 501.691 445.006 501.247 445.006 500.779C445.006 500.311 444.83 499.867 444.501 499.539Z" fill="white"/>
<path d="M436.024 484.81C435.251 484.81 435.248 485.971 436.024 485.971C440.873 485.971 444.826 489.913 444.826 494.749C444.826 495.52 445.99 495.523 445.99 494.749C445.99 489.269 441.52 484.81 436.024 484.81Z" fill="white"/>
<path d="M436.024 487.149C435.251 487.149 435.248 488.31 436.024 488.31C439.58 488.31 442.481 491.203 442.481 494.749C442.481 495.52 443.645 495.523 443.645 494.749C443.645 490.558 440.226 487.149 436.024 487.149Z" fill="white"/>
<path d="M436.024 489.487C435.251 489.487 435.248 490.649 436.024 490.649C438.287 490.649 440.136 492.493 440.136 494.749C440.136 495.52 441.3 495.523 441.3 494.749C441.3 491.848 438.934 489.487 436.024 489.487Z" fill="white"/>
<path d="M436.024 491.826C435.251 491.826 435.248 492.995 436.024 492.995C436.994 492.995 437.783 493.782 437.783 494.749C437.783 495.52 438.955 495.523 438.955 494.749C438.955 493.137 437.64 491.826 436.024 491.826Z" fill="white"/>
</g>
<rect x="411.429" y="432.198" width="145.532" height="38.0993" rx="19.0497" fill="#29DA65"/>
<rect x="456.908" y="443.082" width="78.3173" height="15.4212" fill="#4CF786"/>
<rect x="456.806" y="486.568" width="78.3173" height="15.4586" fill="#FF72B6"/>
<g clip-path="url(#clip2)">
<path d="M435.99 440.362H435.985C430.469 440.362 425.982 444.837 425.982 450.34C425.982 452.523 426.688 454.546 427.887 456.189L426.64 459.896L430.486 458.67C432.068 459.715 433.955 460.319 435.99 460.319C441.507 460.319 445.993 455.842 445.993 450.34C445.993 444.838 441.507 440.362 435.99 440.362ZM441.812 454.453C441.571 455.132 440.613 455.696 439.849 455.861C439.326 455.972 438.643 456.06 436.344 455.11C433.404 453.895 431.51 450.915 431.363 450.722C431.221 450.529 430.175 449.144 430.175 447.712C430.175 446.28 430.904 445.583 431.198 445.284C431.439 445.038 431.838 444.926 432.221 444.926C432.345 444.926 432.456 444.932 432.556 444.937C432.85 444.95 432.997 444.967 433.191 445.43C433.433 446.01 434.02 447.442 434.091 447.589C434.162 447.736 434.233 447.936 434.133 448.129C434.039 448.328 433.957 448.417 433.809 448.587C433.662 448.756 433.521 448.886 433.374 449.068C433.239 449.226 433.086 449.396 433.256 449.689C433.426 449.976 434.014 450.933 434.88 451.701C435.997 452.693 436.902 453.01 437.226 453.144C437.467 453.244 437.755 453.22 437.931 453.033C438.155 452.793 438.432 452.393 438.713 452C438.913 451.719 439.166 451.684 439.431 451.783C439.701 451.877 441.131 452.582 441.424 452.728C441.718 452.875 441.912 452.945 441.983 453.068C442.054 453.192 442.054 453.772 441.812 454.453Z" fill="white"/>
</g>
<path d="M447.328 231.722H523.005V236.236C523.005 241.759 518.528 246.236 513.005 246.236H457.328C451.806 246.236 447.328 241.759 447.328 236.236V231.722Z" fill="#E5E5E5"/>
<g clip-path="url(#clip3)">
<path d="M466.686 337.449C470.851 346.616 479.768 350.607 484.195 350.607C487.105 350.607 491.957 348.88 496.123 345.093C494.6 345.199 492.972 345.252 491.232 345.252C490.824 345.252 490.395 345.249 489.938 345.242C489.061 345.915 487.974 346.295 486.847 346.295L483.14 346.295C480.346 346.295 478.073 344.028 478.073 341.242C478.073 338.456 480.346 336.19 483.14 336.19L486.847 336.19C488.186 336.19 489.439 336.71 490.368 337.608C490.676 337.611 490.98 337.613 491.279 337.613C496.065 337.613 499.218 337.175 501.281 336.647C501.014 335.998 500.868 335.287 500.868 334.545L500.868 321.734C500.868 320.402 501.364 319.124 502.222 318.137C501.764 314.584 500.933 311.872 499.694 309.871C497.139 305.748 492.214 303.828 484.195 303.828C477.542 303.828 472.948 305.205 470.15 308.038C467.982 310.234 466.725 313.368 466.137 318.101C467.014 319.092 467.521 320.382 467.521 321.734L467.521 334.545C467.522 335.611 467.214 336.606 466.686 337.449Z" fill="#2A94F4"/>
<path d="M457.571 337.57L462.018 337.57C463.692 337.57 465.05 336.216 465.05 334.545L465.05 321.734C465.05 320.618 464.443 319.646 463.541 319.122C464.534 308.632 468.593 301.363 484.195 301.363C493.155 301.363 498.748 303.655 501.796 308.576C503.57 311.439 504.424 315.138 504.822 319.138C503.935 319.666 503.339 320.629 503.339 321.734L503.339 334.545C503.339 335.985 504.35 337.188 505.701 337.493C503.741 338.772 499.683 340.078 491.279 340.078C490.598 340.078 489.889 340.069 489.15 340.051C488.717 339.222 487.849 338.654 486.847 338.654L483.14 338.654C481.707 338.654 480.545 339.813 480.545 341.242C480.545 342.671 481.707 343.83 483.14 343.83L486.847 343.83C487.713 343.83 488.478 343.405 488.949 342.756C489.73 342.775 490.494 342.788 491.232 342.788C500.705 342.787 506.726 341.175 509.165 337.976C509.269 337.84 509.363 337.704 509.45 337.57L510.82 337.57C512.494 337.57 513.852 336.216 513.852 334.545L513.852 321.734C513.852 320.064 512.494 318.71 510.82 318.71L509.147 318.71C508.676 313.877 507.633 309.763 505.488 306.301C501.625 300.066 494.66 297.036 484.195 297.036C473.729 297.036 466.764 300.066 462.902 306.301C460.756 309.763 459.714 313.877 459.243 318.71L457.571 318.71C455.896 318.71 454.538 320.064 454.538 321.735L454.538 334.546C454.538 336.216 455.896 337.57 457.571 337.57Z" fill="#2A94F4"/>
<path d="M520.857 375.241C519.849 368.989 517.773 360.935 513.61 358.074C510.772 356.121 500.861 350.841 496.63 348.586L496.541 348.539C496.056 348.281 495.465 348.332 495.034 348.67C492.813 350.408 490.383 351.579 487.81 352.15C487.355 352.251 486.982 352.573 486.817 353.008L484.195 359.899L481.573 353.008C481.407 352.573 481.034 352.251 480.579 352.15C478.006 351.579 475.575 350.408 473.355 348.67C472.924 348.332 472.332 348.28 471.848 348.539C467.664 350.768 457.625 356.16 454.791 358.065C449.997 361.287 447.903 372.939 447.532 375.242C447.495 375.47 447.516 375.704 447.594 375.922C447.765 376.405 452.163 387.748 484.194 387.748C516.226 387.748 520.624 376.405 520.795 375.922C520.873 375.704 520.894 375.47 520.857 375.241ZM505.943 368.062L493.256 368.062L493.256 365.397L505.943 365.397L505.943 368.062Z" fill="#2A94F4"/>
</g>
<path d="M360.009 495.862C359.374 495.862 358.732 495.756 358.119 495.539C356.279 494.888 355.09 493.37 355.09 491.673V482.06C344.346 482.06 334.245 478.493 326.648 472.014C319.052 465.536 314.868 456.923 314.868 447.761V444.415C314.868 443.26 315.966 442.324 317.32 442.324C318.675 442.324 319.773 443.26 319.773 444.415V447.761C319.773 464.367 335.616 477.878 355.089 477.878C357.794 477.878 359.995 479.754 359.995 482.06V491.673V491.674C359.998 491.676 360.003 491.677 360.008 491.678C360.009 491.677 360.011 491.676 360.013 491.674L372.025 481.452C372.49 481.056 372.747 480.529 372.747 479.969C372.747 479.409 372.49 478.882 372.025 478.486L360.013 468.264C360.011 468.262 360.009 468.261 360.007 468.259C360.003 468.261 359.998 468.262 359.995 468.264V468.265V470.557C359.995 471.713 358.896 472.649 357.542 472.649C356.188 472.649 355.09 471.713 355.09 470.557V468.265C355.09 466.567 356.279 465.05 358.119 464.398C359.962 463.747 362.065 464.101 363.477 465.303L375.49 475.525C376.884 476.712 377.652 478.29 377.652 479.969C377.652 481.648 376.884 483.226 375.49 484.412L363.477 494.635C362.535 495.437 361.285 495.862 360.009 495.862V495.862Z" fill="#0F8DFF"/>
<ellipse cx="274.159" cy="373.198" rx="67.661" ry="66.866" fill="#0F8DFF"/>
<g clip-path="url(#clip4)">
<g clip-path="url(#clip5)">
<path d="M462.485 667.625C457.302 667.625 452.068 666.617 447.071 664.543C432.06 658.316 422.364 643.801 422.364 627.566V535.644C334.747 535.644 252.38 501.527 190.427 439.574C128.474 377.621 94.3566 295.25 94.3566 207.637V175.641C94.3566 164.594 103.31 155.641 114.357 155.641C125.403 155.641 134.357 164.594 134.357 175.641V207.637C134.357 366.445 263.556 495.644 422.36 495.644C444.419 495.644 462.364 513.586 462.364 535.644V627.566V627.578C462.396 627.594 462.435 627.609 462.47 627.621C462.482 627.605 462.497 627.594 462.513 627.578L560.474 529.824C564.267 526.039 566.357 521 566.357 515.644C566.357 510.285 564.267 505.25 560.474 501.465L462.513 403.707C462.497 403.691 462.482 403.68 462.466 403.664C462.435 403.676 462.396 403.691 462.364 403.707V403.719V425.641C462.364 436.687 453.407 445.641 442.364 445.641C431.318 445.641 422.364 436.687 422.364 425.641V403.719C422.364 387.484 432.06 372.969 447.071 366.742C462.099 360.508 479.251 363.902 490.767 375.394L588.728 473.148C600.095 484.492 606.357 499.586 606.357 515.644C606.357 531.703 600.095 546.793 588.728 558.137L490.767 655.891C483.083 663.562 472.884 667.625 462.485 667.625V667.625Z" fill="black"/>
</g>
</g>
<path d="M318.827 401.93L337.825 433.273H299.829L318.827 401.93Z" fill="#0F8DFF"/>
<g clip-path="url(#clip6)">
<path d="M272.463 337.562L263.349 339.15C262.089 339.369 261.238 340.485 261.444 341.643C261.651 342.802 262.838 343.562 264.097 343.343L273.211 341.755C274.47 341.535 275.322 340.42 275.115 339.261C274.908 338.103 273.722 337.342 272.463 337.562Z" fill="white"/>
<path d="M283.865 328.369L249.924 334.284C245.246 335.099 242.11 339.525 242.935 344.148L254.904 411.233C255.729 415.856 260.208 418.955 264.886 418.14L298.827 412.225C303.505 411.41 306.641 406.984 305.816 402.361L293.847 335.276C293.022 330.653 288.543 327.554 283.865 328.369ZM301.573 403.101C301.987 405.416 300.422 407.624 298.079 408.033L264.138 413.947C261.794 414.355 259.56 412.809 259.147 410.494L247.177 343.409C246.764 341.093 248.329 338.885 250.672 338.477L284.613 332.562C286.957 332.154 289.191 333.7 289.604 336.016L301.573 403.101Z" fill="white"/>
<rect width="39.3525" height="24.7365" transform="matrix(0.736792 0.678996 -0.684969 0.725909 245.978 359.393)" fill="#0F8DFF"/>
<rect width="39.5018" height="24.6429" transform="matrix(0.734007 -0.67643 0.687572 0.728667 276.609 363.128)" fill="#0F8DFF"/>
</g>
<path d="M309.743 358.841L269.722 398.389C266.758 401.318 261.951 401.318 258.984 398.389L238.325 377.971C235.361 375.042 235.361 370.29 238.325 367.361C241.291 364.43 246.098 364.43 249.062 367.359L264.355 382.473L299.005 348.23C301.97 345.299 306.778 345.302 309.742 348.23C312.706 351.16 312.706 355.91 309.743 358.841Z" fill="white"/>
<g opacity="0.4">
<g clip-path="url(#clip7)">
<path d="M223.92 173.494L218.978 161.964C218.497 160.843 217.638 159.966 216.587 159.452C217.474 158.552 218.023 157.318 218.023 155.957V124.082C218.023 121.336 215.789 119.102 213.043 119.102H203.99V112.129C203.99 111.579 203.544 111.133 202.993 111.133H177.007C176.456 111.133 176.01 111.579 176.01 112.129V119.102H166.957C164.211 119.102 161.977 121.336 161.977 124.082V155.957C161.977 157.318 162.526 158.552 163.413 159.452C162.362 159.966 161.503 160.843 161.022 161.964L156.08 173.494C156.027 173.618 156 173.752 156 173.887C156 176.633 158.234 178.867 160.98 178.867H219.02C221.766 178.867 224 176.633 224 173.887C224 173.752 223.973 173.618 223.92 173.494V173.494ZM193.982 113.125H201.997V119.102H193.982C194.608 118.269 194.98 117.234 194.98 116.113C194.98 114.993 194.608 113.958 193.982 113.125ZM197.842 121.094C197.43 122.253 196.323 123.086 195.025 123.086H184.975C183.677 123.086 182.569 122.253 182.158 121.094H197.842ZM190 113.125C191.648 113.125 192.988 114.466 192.988 116.113C192.988 117.761 191.648 119.102 190 119.102C188.352 119.102 187.012 117.761 187.012 116.113C187.012 114.466 188.352 113.125 190 113.125ZM178.003 113.125H186.018C185.392 113.958 185.02 114.993 185.02 116.113C185.02 117.234 185.392 118.269 186.018 119.102H178.003V113.125ZM163.969 124.082C163.969 122.434 165.309 121.094 166.957 121.094H180.095C180.245 121.829 180.558 122.506 180.994 123.086H166.957C166.407 123.086 165.961 123.532 165.961 124.082V138.027C165.961 138.578 166.407 139.023 166.957 139.023C167.507 139.023 167.953 138.578 167.953 138.027V125.078H212.047V154.961H167.953V142.012C167.953 141.461 167.507 141.016 166.957 141.016C166.407 141.016 165.961 141.461 165.961 142.012V155.957C165.961 156.507 166.407 156.953 166.957 156.953H213.043C213.593 156.953 214.039 156.507 214.039 155.957V124.082C214.039 123.532 213.593 123.086 213.043 123.086H199.006C199.442 122.506 199.755 121.829 199.905 121.094H213.043C214.691 121.094 216.031 122.434 216.031 124.082V155.957C216.031 157.605 214.691 158.945 213.043 158.945H166.957C165.309 158.945 163.969 157.605 163.969 155.957V124.082ZM162.853 162.749C163.325 161.648 164.403 160.937 165.6 160.937H214.4C215.597 160.937 216.675 161.648 217.147 162.749L221.493 172.891H158.507L162.853 162.749ZM219.02 176.875H160.98C159.682 176.875 158.576 176.042 158.164 174.883H221.836C221.424 176.042 220.318 176.875 219.02 176.875Z" fill="#0F8DFF"/>
<path d="M190 117.109C190.55 117.109 190.996 116.663 190.996 116.113C190.996 115.563 190.55 115.117 190 115.117C189.45 115.117 189.004 115.563 189.004 116.113C189.004 116.663 189.45 117.109 190 117.109Z" fill="#0F8DFF"/>
<path d="M215.316 163.533C215.159 163.167 214.798 162.93 214.4 162.93L165.6 162.93C165.201 162.93 164.841 163.167 164.684 163.534L162.977 167.518C162.845 167.826 162.876 168.179 163.061 168.459C163.245 168.738 163.558 168.906 163.892 168.906H216.108C216.442 168.906 216.755 168.738 216.939 168.459C217.123 168.179 217.155 167.826 217.023 167.518L215.316 163.533ZM165.403 166.914L166.257 164.922L213.743 164.922L214.597 166.914H165.403Z" fill="#0F8DFF"/>
<path d="M178.999 152.969H201.001C201.552 152.969 201.998 152.523 201.998 151.973V147.988C201.998 145.242 199.763 143.008 197.017 143.008H182.983C180.237 143.008 178.003 145.242 178.003 147.988V151.973C178.003 152.523 178.449 152.969 178.999 152.969ZM179.995 147.988C179.995 146.341 181.335 145 182.983 145H197.017C198.665 145 200.005 146.341 200.005 147.988V150.977H198.013V147.988C198.013 147.438 197.567 146.992 197.017 146.992C196.467 146.992 196.021 147.438 196.021 147.988V150.977H183.979V147.988C183.979 147.438 183.533 146.992 182.983 146.992C182.433 146.992 181.987 147.438 181.987 147.988V150.977H179.995V147.988Z" fill="#0F8DFF"/>
<path d="M189.956 141.016C193.801 141.016 196.929 137.888 196.929 134.043C196.929 130.198 193.801 127.07 189.956 127.07C186.112 127.07 182.984 130.198 182.984 134.043C182.984 137.888 186.112 141.016 189.956 141.016ZM189.956 129.062C192.703 129.062 194.937 131.297 194.937 134.043C194.937 136.789 192.703 139.023 189.956 139.023C187.21 139.023 184.976 136.789 184.976 134.043C184.976 131.297 187.21 129.062 189.956 129.062Z" fill="#0F8DFF"/>
</g>
<path d="M350.333 159.067H349.2V153.4C349.2 151.525 347.675 150 345.8 150H343.533C341.659 150 340.133 151.525 340.133 153.4V159.067H303.867V153.4C303.867 151.525 302.341 150 300.467 150H298.2C296.325 150 294.8 151.525 294.8 153.4V159.067H293.667C290.542 159.067 288 161.609 288 164.733V212.333C288 215.458 290.542 218 293.667 218H350.333C353.458 218 356 215.458 356 212.333V164.733C356 161.609 353.458 159.067 350.333 159.067ZM342.4 160.2V153.4C342.4 152.774 342.908 152.267 343.533 152.267H345.8C346.426 152.267 346.933 152.774 346.933 153.4V160.2V164.733C346.933 165.359 346.426 165.867 345.8 165.867H343.533C342.908 165.867 342.4 165.359 342.4 164.733V160.2ZM297.067 160.2V153.4C297.067 152.774 297.574 152.267 298.2 152.267H300.467C301.092 152.267 301.6 152.774 301.6 153.4V160.2V164.733C301.6 165.359 301.092 165.867 300.467 165.867H298.2C297.574 165.867 297.067 165.359 297.067 164.733V160.2ZM353.733 212.333C353.733 214.208 352.208 215.733 350.333 215.733H293.667C291.792 215.733 290.267 214.208 290.267 212.333V179.467H353.733V212.333ZM353.733 177.2H290.267V164.733C290.267 162.859 291.792 161.333 293.667 161.333H294.8V164.733C294.8 166.608 296.325 168.133 298.2 168.133H300.467C302.341 168.133 303.867 166.608 303.867 164.733V161.333H340.133V164.733C340.133 166.608 341.659 168.133 343.533 168.133H345.8C347.675 168.133 349.2 166.608 349.2 164.733V161.333H350.333C352.208 161.333 353.733 162.859 353.733 164.733V177.2Z" fill="#0F8DFF"/>
<path d="M334.467 164.733H309.533C308.907 164.733 308.4 165.24 308.4 165.867V172.667C308.4 173.293 308.907 173.8 309.533 173.8H334.467C335.093 173.8 335.6 173.293 335.6 172.667V165.867C335.6 165.24 335.093 164.733 334.467 164.733ZM333.333 171.533H310.667V167H333.333V171.533Z" fill="#0F8DFF"/>
<path d="M302.733 182.867H295.933C295.307 182.867 294.8 183.373 294.8 184V189.667C294.8 190.293 295.307 190.8 295.933 190.8H302.733C303.36 190.8 303.867 190.293 303.867 189.667V184C303.867 183.373 303.36 182.867 302.733 182.867ZM301.6 188.533H297.067V185.133H301.6V188.533Z" fill="#0F8DFF"/>
<path d="M317.467 182.867H310.667C310.04 182.867 309.533 183.373 309.533 184V189.667C309.533 190.293 310.04 190.8 310.667 190.8H317.467C318.093 190.8 318.6 190.293 318.6 189.667V184C318.6 183.373 318.093 182.867 317.467 182.867ZM316.333 188.533H311.8V185.133H316.333V188.533Z" fill="#0F8DFF"/>
<path d="M333.333 182.867H326.533C325.907 182.867 325.4 183.373 325.4 184V189.667C325.4 190.293 325.907 190.8 326.533 190.8H333.333C333.96 190.8 334.467 190.293 334.467 189.667V184C334.467 183.373 333.96 182.867 333.333 182.867ZM332.2 188.533H327.667V185.133H332.2V188.533Z" fill="#0F8DFF"/>
<path d="M348.067 182.867H341.267C340.64 182.867 340.133 183.373 340.133 184V189.667C340.133 190.293 340.64 190.8 341.267 190.8H348.067C348.693 190.8 349.2 190.293 349.2 189.667V184C349.2 183.373 348.693 182.867 348.067 182.867ZM346.933 188.533H342.4V185.133H346.933V188.533Z" fill="#0F8DFF"/>
<path d="M302.733 194.2H295.933C295.307 194.2 294.8 194.707 294.8 195.333V201C294.8 201.627 295.307 202.133 295.933 202.133H302.733C303.36 202.133 303.867 201.627 303.867 201V195.333C303.867 194.707 303.36 194.2 302.733 194.2ZM301.6 199.867H297.067V196.467H301.6V199.867Z" fill="#0F8DFF"/>
<path d="M317.467 194.2H310.667C310.04 194.2 309.533 194.707 309.533 195.333V201C309.533 201.627 310.04 202.133 310.667 202.133H317.467C318.093 202.133 318.6 201.627 318.6 201V195.333C318.6 194.707 318.093 194.2 317.467 194.2ZM316.333 199.867H311.8V196.467H316.333V199.867Z" fill="#0F8DFF"/>
<path d="M333.333 194.2H326.533C325.907 194.2 325.4 194.707 325.4 195.333V201C325.4 201.627 325.907 202.133 326.533 202.133H333.333C333.96 202.133 334.467 201.627 334.467 201V195.333C334.467 194.707 333.96 194.2 333.333 194.2ZM332.2 199.867H327.667V196.467H332.2V199.867Z" fill="#0F8DFF"/>
<path d="M348.067 194.2H341.267C340.64 194.2 340.133 194.707 340.133 195.333V201C340.133 201.627 340.64 202.133 341.267 202.133H348.067C348.693 202.133 349.2 201.627 349.2 201V195.333C349.2 194.707 348.693 194.2 348.067 194.2ZM346.933 199.867H342.4V196.467H346.933V199.867Z" fill="#0F8DFF"/>
<path d="M302.733 205.533H295.933C295.307 205.533 294.8 206.04 294.8 206.667V212.333C294.8 212.96 295.307 213.467 295.933 213.467H302.733C303.36 213.467 303.867 212.96 303.867 212.333V206.667C303.867 206.04 303.36 205.533 302.733 205.533ZM301.6 211.2H297.067V207.8H301.6V211.2Z" fill="#0F8DFF"/>
<path d="M317.467 205.533H310.667C310.04 205.533 309.533 206.04 309.533 206.667V212.333C309.533 212.96 310.04 213.467 310.667 213.467H317.467C318.093 213.467 318.6 212.96 318.6 212.333V206.667C318.6 206.04 318.093 205.533 317.467 205.533ZM316.333 211.2H311.8V207.8H316.333V211.2Z" fill="#0F8DFF"/>
<path d="M333.596 204.808L328.724 210.655L326.201 208.132L324.599 209.735L327.999 213.135C328.211 213.349 328.5 213.467 328.8 213.467C328.817 213.467 328.834 213.467 328.851 213.466C329.169 213.451 329.466 213.304 329.672 213.06L335.338 206.26L333.596 204.808Z" fill="#0F8DFF"/>
<path d="M347.196 204.808L342.324 210.655L339.801 208.132L338.199 209.735L341.599 213.135C341.811 213.349 342.1 213.467 342.4 213.467C342.417 213.467 342.434 213.467 342.451 213.466C342.769 213.451 343.066 213.304 343.272 213.06L348.938 206.26L347.196 204.808Z" fill="#0F8DFF"/>
<g clip-path="url(#clip8)">
<path d="M421.043 133.344C421.89 132.917 422.906 133.236 423.357 134.071L426.556 139.994C426.802 140.451 427.327 140.681 427.83 140.554C428.333 140.427 428.685 139.975 428.685 139.456V130.807C428.685 130.181 428.178 129.674 427.552 129.674C426.927 129.674 426.42 130.181 426.42 130.807V134.974L425.35 132.994C424.312 131.073 421.972 130.338 420.022 131.322C418.354 132.163 417.495 134.02 417.933 135.837L420.007 144.433C420.491 146.442 421.356 148.307 422.575 149.976L426.638 155.536C426.86 155.839 427.204 156 427.553 156C427.785 156 428.019 155.929 428.221 155.782C428.726 155.413 428.836 154.704 428.467 154.199L424.405 148.639C423.362 147.213 422.623 145.619 422.209 143.901L420.135 135.305C419.945 134.516 420.318 133.71 421.043 133.344Z" fill="#0F8DFF"/>
<path d="M446.619 128.516C445.951 128.516 445.322 128.687 444.773 128.987C444.217 127.539 442.813 126.508 441.172 126.508C440.464 126.508 439.8 126.701 439.229 127.035C438.619 125.708 437.278 124.783 435.724 124.783C435.157 124.783 434.618 124.907 434.133 125.128V119.712C434.133 117.585 432.403 115.855 430.276 115.855C428.149 115.855 426.419 117.585 426.419 119.712V121.676C426.419 122.301 426.927 122.808 427.552 122.808C428.178 122.808 428.685 122.301 428.685 121.676V119.712C428.685 118.835 429.399 118.121 430.276 118.121C431.153 118.121 431.867 118.835 431.867 119.712V135.697C431.867 136.322 432.374 136.83 433 136.83C433.626 136.83 434.133 136.322 434.133 135.697V128.64C434.133 127.762 434.846 127.049 435.724 127.049C436.601 127.049 437.315 127.762 437.315 128.64V135.697C437.315 136.322 437.822 136.83 438.448 136.83C439.073 136.83 439.58 136.322 439.58 135.697V130.365C439.58 129.488 440.294 128.774 441.172 128.774C442.049 128.774 442.763 129.488 442.763 130.365V135.697C442.763 136.322 443.27 136.83 443.895 136.83C444.521 136.83 445.028 136.322 445.028 135.697V132.372C445.028 131.495 445.742 130.781 446.619 130.781C447.496 130.781 448.21 131.495 448.21 132.372V141.931C448.21 144.478 447.824 147.002 447.062 149.432L445.464 154.528C445.276 155.125 445.609 155.76 446.206 155.947C446.318 155.983 446.433 156 446.545 156C447.027 156 447.474 155.69 447.625 155.205L449.223 150.11C450.054 147.46 450.476 144.708 450.476 141.931V132.372C450.476 130.246 448.746 128.516 446.619 128.516Z" fill="#0F8DFF"/>
<path d="M461.905 104.007C461.679 103.312 461.089 102.815 460.365 102.71L456.895 102.206L455.343 99.0627C455.019 98.4071 454.364 98 453.633 98C453.633 98 453.633 98 453.633 98C452.901 98.0001 452.246 98.4077 451.923 99.0636L450.372 102.208L446.902 102.713C446.179 102.819 445.589 103.316 445.363 104.012C445.137 104.707 445.323 105.456 445.846 105.967L448.358 108.413L447.766 111.869C447.642 112.59 447.933 113.304 448.525 113.734C448.859 113.977 449.25 114.1 449.644 114.1C449.947 114.1 450.252 114.027 450.533 113.879L453.636 112.246L456.74 113.877C457.387 114.217 458.157 114.161 458.748 113.731C459.34 113.301 459.63 112.587 459.507 111.866L458.913 108.41L461.423 105.962C461.946 105.452 462.131 104.703 461.905 104.007ZM457.196 106.92C456.747 107.358 456.542 107.989 456.648 108.608L457.151 111.533L454.523 110.153C453.967 109.861 453.304 109.861 452.748 110.153L450.121 111.535L450.622 108.609C450.728 107.991 450.523 107.36 450.073 106.922L447.947 104.85L450.885 104.423C451.506 104.332 452.043 103.942 452.32 103.379L453.633 100.717L454.947 103.378C455.225 103.941 455.762 104.331 456.384 104.421L459.321 104.848L457.196 106.92Z" fill="#0F8DFF"/>
<path d="M441.271 104.007C441.045 103.312 440.455 102.814 439.731 102.71L436.261 102.206L434.709 99.0627C434.385 98.4071 433.73 98 432.999 98C432.999 98 432.998 98 432.998 98C432.267 98.0001 431.612 98.4077 431.288 99.0636L429.737 102.208L426.268 102.713C425.544 102.819 424.954 103.316 424.729 104.012C424.503 104.707 424.688 105.456 425.212 105.967L427.723 108.413L427.131 111.869C427.008 112.59 427.299 113.304 427.891 113.734C428.225 113.977 428.616 114.1 429.009 114.1C429.312 114.1 429.617 114.027 429.899 113.879L433.002 112.246L436.106 113.877C436.753 114.217 437.523 114.161 438.114 113.731C438.706 113.301 438.996 112.586 438.872 111.866L438.279 108.41L440.789 105.962C441.312 105.452 441.497 104.703 441.271 104.007ZM436.562 106.92C436.112 107.358 435.908 107.989 436.014 108.608L436.516 111.533L433.889 110.153C433.333 109.861 432.669 109.861 432.114 110.153L429.487 111.535L429.988 108.609C430.094 107.991 429.889 107.36 429.439 106.922L427.313 104.85L430.25 104.423C430.871 104.332 431.408 103.942 431.686 103.379L432.999 100.717L434.313 103.378C434.591 103.941 435.128 104.331 435.749 104.421L438.687 104.848L436.562 106.92Z" fill="#0F8DFF"/>
<path d="M420.636 104.007C420.41 103.312 419.82 102.815 419.096 102.71L415.627 102.206L414.074 99.0627C413.75 98.4071 413.095 98 412.364 98C412.364 98 412.364 98 412.364 98C411.632 98.0001 410.977 98.4077 410.654 99.0636L409.103 102.208L405.634 102.713C404.91 102.819 404.32 103.316 404.094 104.012C403.869 104.707 404.054 105.456 404.577 105.967L407.089 108.413L406.497 111.869C406.374 112.59 406.665 113.304 407.256 113.734C407.59 113.977 407.981 114.1 408.375 114.1C408.678 114.1 408.983 114.027 409.265 113.879L412.368 112.246L415.471 113.877C416.119 114.217 416.888 114.161 417.48 113.731C418.071 113.301 418.362 112.586 418.238 111.866L417.644 108.41L420.154 105.962C420.678 105.452 420.862 104.703 420.636 104.007ZM415.928 106.92C415.478 107.358 415.273 107.989 415.379 108.608L415.882 111.533L413.255 110.153C412.699 109.861 412.035 109.861 411.48 110.153L408.853 111.535L409.353 108.61C409.459 107.991 409.254 107.36 408.805 106.922L406.679 104.85L409.616 104.423C410.237 104.332 410.774 103.942 411.051 103.379L412.364 100.717L413.679 103.378C413.957 103.941 414.493 104.331 415.115 104.421L418.052 104.848L415.928 106.92Z" fill="#0F8DFF"/>
<path d="M428.353 125.542C428.143 125.331 427.851 125.21 427.552 125.21C427.255 125.21 426.962 125.331 426.752 125.542C426.541 125.753 426.42 126.045 426.42 126.343C426.42 126.641 426.541 126.933 426.752 127.144C426.962 127.355 427.255 127.476 427.552 127.476C427.85 127.476 428.143 127.355 428.353 127.144C428.564 126.933 428.685 126.641 428.685 126.343C428.685 126.045 428.564 125.753 428.353 125.542Z" fill="#0F8DFF"/>
</g>
<path d="M605.932 182.541C606.108 182.541 606.281 182.5 606.439 182.421L613.237 179.022C613.797 178.742 614.023 178.061 613.743 177.501C613.634 177.282 613.456 177.105 613.237 176.995L606.439 173.596C605.879 173.316 605.198 173.543 604.918 174.103C604.84 174.26 604.799 174.434 604.799 174.609V176.875H600.267V153.081H604.799V155.347C604.799 155.973 605.306 156.481 605.932 156.481C606.108 156.481 606.281 156.44 606.439 156.361L613.237 152.962C613.797 152.682 614.023 152.001 613.743 151.441C613.634 151.222 613.456 151.044 613.237 150.935L606.439 147.536C605.879 147.256 605.198 147.483 604.918 148.043C604.84 148.2 604.799 148.373 604.799 148.549V150.815H599.133C598.508 150.815 598.001 151.322 598 151.948C598 151.948 598 151.948 598 151.948V176.875H590.012C589.384 170.022 583.32 164.975 576.467 165.602C569.614 166.23 564.567 172.294 565.194 179.147C565.781 185.563 571.163 190.473 577.606 190.472C584.045 190.463 589.42 185.554 590.012 179.142H598V204.069C598 204.694 598.507 205.202 599.133 205.202C599.133 205.202 599.133 205.202 599.133 205.202H604.799V207.468C604.799 208.094 605.306 208.601 605.932 208.601C606.108 208.601 606.281 208.56 606.439 208.481L613.237 205.082C613.797 204.802 614.023 204.121 613.743 203.562C613.634 203.342 613.456 203.165 613.237 203.055L606.439 199.656C605.879 199.376 605.198 199.603 604.918 200.163C604.84 200.32 604.799 200.494 604.799 200.669V202.936H600.267V179.142H604.799V181.408C604.799 182.033 605.306 182.541 605.932 182.541ZM607.065 176.443L610.197 178.008L607.065 179.574V176.443ZM607.065 150.383L610.197 151.948L607.065 153.514V150.383ZM577.606 188.206C571.974 188.206 567.408 183.64 567.408 178.008C567.414 172.379 571.976 167.817 577.606 167.811C583.237 167.811 587.803 172.376 587.803 178.008C587.803 183.64 583.237 188.206 577.606 188.206ZM607.065 202.503L610.197 204.069L607.065 205.634V202.503Z" fill="#0F8DFF"/>
<path d="M627.339 151.662C629.067 149.851 629 146.982 627.19 145.254C625.379 143.526 622.51 143.592 620.782 145.403C619.11 147.154 619.11 149.91 620.782 151.662C618.613 152.857 617.264 155.137 617.262 157.613V163.279C617.262 163.904 617.769 164.412 618.395 164.412C618.395 164.412 618.395 164.412 618.395 164.412H629.726C630.351 164.412 630.859 163.905 630.859 163.279C630.859 163.279 630.859 163.279 630.859 163.279V157.613C630.857 155.137 629.508 152.857 627.339 151.662ZM624.061 146.283C625.312 146.283 626.327 147.298 626.327 148.549C626.327 149.801 625.312 150.815 624.061 150.815C622.81 150.814 621.796 149.8 621.794 148.549C621.794 147.298 622.809 146.283 624.061 146.283ZM628.593 162.146H619.528V157.614C619.528 155.111 621.557 153.081 624.061 153.081C626.564 153.081 628.593 155.111 628.593 157.614V162.146Z" fill="#0F8DFF"/>
<path d="M627.339 175.456C629.067 173.645 629 170.776 627.19 169.048C625.379 167.32 622.51 167.386 620.782 169.197C619.11 170.948 619.11 173.704 620.782 175.456C618.613 176.651 617.264 178.931 617.262 181.408V187.073C617.262 187.698 617.769 188.206 618.395 188.206C618.395 188.206 618.395 188.206 618.395 188.206H629.726C630.351 188.206 630.859 187.699 630.859 187.073C630.859 187.073 630.859 187.073 630.859 187.073V181.408C630.857 178.931 629.508 176.651 627.339 175.456ZM624.061 170.077C625.312 170.077 626.327 171.092 626.327 172.343C626.327 173.595 625.312 174.609 624.061 174.609C622.81 174.608 621.796 173.594 621.794 172.343C621.794 171.092 622.809 170.077 624.061 170.077ZM628.593 185.94H619.528V181.408C619.528 178.905 621.557 176.875 624.061 176.875C626.564 176.875 628.593 178.905 628.593 181.408V185.94Z" fill="#0F8DFF"/>
<path d="M627.339 199.25C629.067 197.439 629 194.57 627.19 192.842C625.379 191.114 622.51 191.18 620.782 192.991C619.11 194.742 619.11 197.498 620.782 199.25C618.613 200.445 617.264 202.725 617.262 205.202V210.867C617.262 211.492 617.769 212 618.395 212C618.395 212 618.395 212 618.395 212H629.726C630.351 212 630.859 211.493 630.859 210.867C630.859 210.867 630.859 210.867 630.859 210.867V205.202C630.857 202.725 629.508 200.445 627.339 199.25ZM624.061 193.871C625.312 193.871 626.327 194.886 626.327 196.137C626.327 197.389 625.312 198.403 624.061 198.403C622.81 198.402 621.796 197.388 621.794 196.137C621.794 194.886 622.809 193.871 624.061 193.871ZM628.593 209.734H619.528V205.202C619.528 202.699 621.557 200.67 624.061 200.67C626.564 200.67 628.593 202.699 628.593 205.202V209.734Z" fill="#0F8DFF"/>
<g clip-path="url(#clip9)">
<path d="M545.228 72.2509C545.586 71.8876 546.061 71.6873 546.564 71.6869H546.566C547.071 71.6869 547.548 71.8876 547.908 72.2521C548.295 72.6435 548.925 72.6472 549.317 72.2606C549.708 71.8739 549.712 71.2432 549.325 70.852C548.587 70.1049 547.607 69.6929 546.563 69.6948C545.521 69.6957 544.543 70.107 543.809 70.8533C543.423 71.2452 543.428 71.8759 543.82 72.2619C544.014 72.4529 544.266 72.5482 544.519 72.5482C544.776 72.5482 545.033 72.449 545.228 72.2509V72.2509Z" fill="#0F8DFF"/>
<path d="M562.544 72.2509C562.902 71.8873 563.377 71.687 563.881 71.687C564.386 71.687 564.861 71.8873 565.219 72.2509C565.414 72.449 565.671 72.5482 565.928 72.5482C566.181 72.5482 566.433 72.4529 566.627 72.2618C567.019 71.8759 567.024 71.2452 566.638 70.8532C565.903 70.1062 564.924 69.6947 563.881 69.6947C562.839 69.6947 561.86 70.1062 561.124 70.8532C560.739 71.2452 560.743 71.8759 561.135 72.2618C561.527 72.6478 562.158 72.6431 562.544 72.2509V72.2509Z" fill="#0F8DFF"/>
<path d="M558.264 84.3776C558.653 83.9889 558.654 83.3582 558.265 82.969C557.876 82.5799 557.245 82.5795 556.856 82.9683C555.711 84.1123 553.845 84.1119 552.696 82.9674C552.307 82.5791 551.676 82.5801 551.288 82.9698C550.9 83.3595 550.901 83.9902 551.29 84.3785C552.253 85.3376 553.516 85.817 554.778 85.817C556.041 85.8169 557.304 85.3372 558.264 84.3776V84.3776Z" fill="#0F8DFF"/>
<path d="M580.687 61.7099C580.59 57.7639 579.863 54.1071 578.518 50.8155C579.195 50.3318 579.817 49.7667 580.377 49.1208C582.255 46.9544 583.289 44.05 583.289 40.9428C583.289 37.8355 582.255 34.9313 580.377 32.7648C578.242 30.3018 575.214 29 571.618 29H568.61C564.009 29 560.098 31.4774 558.137 35.5437C554.727 35.1464 551.215 35.4047 547.931 36.3004C544.233 37.309 540.933 39.052 538.123 41.4813C534.209 44.8646 529.565 51.0981 529.313 61.7097C526.779 62.1751 524.852 64.398 524.852 67.0638V72.4395C524.852 75.4419 527.295 77.8846 530.299 77.8846H533.808C533.87 78.3936 533.98 78.9178 534.146 79.5001C534.573 81.0107 535.41 82.6284 536.634 84.3083C536.829 84.5766 537.133 84.719 537.442 84.719C537.645 84.719 537.851 84.6568 538.028 84.5277C538.474 84.2034 538.572 83.5792 538.248 83.1337C537.179 81.6661 536.425 80.2219 536.067 78.9549C535.852 78.2042 535.755 77.6095 535.746 76.9917C535.749 76.9571 535.751 76.9222 535.751 76.8867C535.751 76.847 535.748 76.8081 535.744 76.7696L535.751 66.354C535.751 66.3539 535.751 66.3538 535.751 66.3536C535.751 66.3536 535.751 66.3534 535.751 66.3532V64.7046H536.933C541.042 64.7046 542.654 60.9403 543.618 58.6913C543.782 58.3071 543.938 57.9441 544.082 57.6489C544.235 57.3359 544.378 57.31 544.432 57.3005C544.668 57.2576 545.05 57.4127 545.305 57.6544C549.442 61.5589 554.593 63.8682 560.617 64.5184C561.167 64.5781 561.658 64.1814 561.717 63.6335C561.776 63.0857 561.38 62.5935 560.831 62.5344C555.251 61.9321 550.488 59.802 546.677 56.2054C546.105 55.662 545.122 55.1489 544.078 55.3365C543.309 55.4751 542.673 55.9852 542.289 56.7715C542.122 57.1115 541.957 57.4974 541.782 57.9061C540.657 60.5338 539.515 62.709 536.933 62.709H535.751V60.0339C535.746 58.7311 536.906 51.5931 542.536 49.1042C543.501 48.6922 544.172 47.9761 544.764 47.3442C545.029 47.062 545.279 46.7953 545.51 46.6087C548.408 44.2728 552.658 43.3647 557.251 44.079C557.81 46.2282 558.968 48.203 560.668 49.7683L560.442 53.9221C560.412 54.5351 560.729 54.8602 560.92 54.9994C561.051 55.0949 561.283 55.2188 561.605 55.2186C561.758 55.2186 561.931 55.1908 562.122 55.1185C562.158 55.1051 562.193 55.0897 562.227 55.0724L566.487 52.8858H571.532C573.191 55.3835 574.105 58.1436 574.249 61.0995V62.709H565.241C564.69 62.709 564.243 63.1558 564.243 63.7068C564.243 64.2579 564.69 64.7046 565.241 64.7046H574.249V65.1654V66.1352V75.5971C574.249 76.4729 574.11 78.3092 573.925 78.9565C572.827 82.8312 568.325 87.7091 563.241 90.6315C562.503 89.4612 561.199 88.6813 559.715 88.6813H552.453C550.613 88.6813 549.048 89.8809 548.499 91.5381C545.976 90.3444 543.441 88.5924 541.253 86.5158C540.853 86.1365 540.221 86.1527 539.841 86.5524C539.462 86.9521 539.478 87.5837 539.878 87.9632C542.463 90.4166 545.39 92.3813 548.373 93.6726C548.76 95.5688 550.442 97 552.453 97H559.715C561.667 97 563.308 95.6516 563.757 93.8385H574.694C578.005 93.8385 580.699 91.1059 580.699 87.747V77.7913C583.228 77.3212 585.149 75.1011 585.149 72.4395V67.0638C585.148 64.398 583.221 62.1752 580.687 61.7099V61.7099ZM533.801 66.3466L533.795 75.8659H530.354C528.455 75.8659 526.91 74.3213 526.91 72.4228V67.0566C526.91 65.1581 528.455 63.6135 530.354 63.6135H533.801V66.3466ZM556.902 42.0148C552.002 41.4 547.451 42.4802 544.256 45.0553C543.916 45.3297 543.606 45.6601 543.307 45.9799C542.826 46.4931 542.329 47.0237 541.748 47.2705C541.744 47.2722 541.74 47.2741 541.735 47.2759C535.145 50.1835 533.747 58.2106 533.755 60.0379V61.6188H531.313C531.532 53.8276 534.326 47.4018 539.429 42.9909C544.274 38.803 550.762 36.8233 557.392 37.4704C556.942 38.984 556.784 40.522 556.902 42.0148V42.0148ZM559.705 94.9478H552.459C551.266 94.9478 550.296 93.9789 550.296 92.788C550.296 91.5971 551.266 90.6282 552.459 90.6282H559.705C560.897 90.6282 561.867 91.5971 561.867 92.788C561.867 93.9789 560.897 94.9478 559.705 94.9478ZM566.443 50.9113L566.389 50.9111C566.383 50.9111 566.376 50.9111 566.37 50.9111C566.034 50.9111 565.878 50.9623 565.583 51.1153L562.492 52.7024L562.664 49.5408C562.714 49.2115 562.61 48.8923 562.371 48.6525C562.351 48.633 562.331 48.6143 562.31 48.5965C559.115 45.8843 558.018 41.4974 559.515 37.4206C560.645 34.3421 563.62 31.0525 568.58 31.0525H571.582C578.214 31.0525 581.234 36.1996 581.234 40.9819C581.234 43.6047 580.375 46.0406 578.815 47.8412C577.075 49.8498 574.574 50.9115 571.582 50.9115H566.443V50.9113ZM573.736 52.7363C574.8 52.5666 575.799 52.2685 576.723 51.8456C577.892 54.8019 578.533 58.0812 578.634 61.6211H576.199V61.0787C576.199 61.0631 576.198 61.0474 576.197 61.0317C576.058 58.0716 575.229 55.289 573.736 52.7363V52.7363ZM578.65 87.7031C578.65 89.9576 576.856 91.7918 574.65 91.7918H565.082C570.263 88.5704 574.622 83.6291 575.8 79.4733C575.915 79.0696 576.002 78.4735 576.065 77.8581H578.65V87.7031ZM583.09 72.4228C583.09 74.3213 581.545 75.8659 579.646 75.8659H576.194C576.197 75.7542 576.199 75.6556 576.199 75.575V66.1297V65.1615V63.6133H579.646C581.545 63.6133 583.09 65.1579 583.09 67.0565V72.4228Z" fill="#0F8DFF"/>
<path d="M570.049 40.0213C569.499 40.0213 569.053 40.4673 569.053 41.0174V45.7381C569.053 46.2882 569.499 46.7342 570.049 46.7342C570.599 46.7342 571.045 46.2882 571.045 45.7381V41.0174C571.045 40.4673 570.599 40.0213 570.049 40.0213Z" fill="#0F8DFF"/>
<path d="M570.049 35.0361C569.499 35.0361 569.053 35.4876 569.053 36.0377C569.053 36.5879 569.499 37.0338 570.049 37.0338C570.599 37.0338 571.045 36.5879 571.045 36.0377V36.0265C571.045 35.4763 570.599 35.0361 570.049 35.0361Z" fill="#0F8DFF"/>
</g>
<path d="M75 44C56.2516 44 41 59.2516 41 78C41 84.3959 42.7772 90.6048 46.1484 95.9965C44.8054 100.702 42.3796 109.602 42.3535 109.695C42.2279 110.155 42.3626 110.647 42.7065 110.977C43.0505 111.308 43.5474 111.426 43.9998 111.287L57.4769 107.142C62.7561 110.322 68.8015 112 75 112C93.7484 112 109 96.7484 109 78C109 59.2516 93.7484 44 75 44ZM75 109.385C69.0905 109.385 63.3341 107.733 58.3518 104.61C58.1412 104.478 57.8993 104.411 57.6574 104.411C57.5279 104.411 57.3985 104.431 57.2729 104.469L45.505 108.091C46.3694 104.936 47.9229 99.2918 48.8239 96.1521C48.9285 95.7885 48.8697 95.3962 48.6644 95.0785C45.3612 89.9955 43.6154 84.0899 43.6154 78C43.6154 60.6953 57.6953 46.6154 75 46.6154C92.3047 46.6154 106.385 60.6953 106.385 78C106.385 95.3047 92.3047 109.385 75 109.385Z" fill="#0F8DFF"/>
<path d="M97.2111 86.0109C94.7971 84.6705 92.7414 83.3262 91.2415 82.3455C90.096 81.5975 89.2682 81.0574 88.6614 80.7527C86.9653 79.9066 85.6799 80.5042 85.1908 80.9985C85.1294 81.06 85.0744 81.1267 85.0274 81.1973C83.2659 83.8402 80.9657 86.3679 80.2922 86.5039C79.5141 86.3823 75.8722 84.3122 72.2525 81.298C68.557 78.2184 66.2319 75.2695 65.8906 73.2609C68.2614 70.8208 69.1154 69.2855 69.1154 67.5385C69.1154 65.7378 64.915 58.2198 64.1553 57.4601C63.3929 56.699 61.6759 56.58 59.0514 57.1031C58.799 57.1541 58.5662 57.2783 58.3831 57.4601C58.0654 57.7778 50.6298 65.3585 54.1632 74.5464C58.0418 84.63 67.9973 96.3508 80.6897 98.2548C82.1321 98.4706 83.4843 98.5778 84.7501 98.5778C92.217 98.5778 96.624 94.8208 97.865 87.3683C97.9578 86.823 97.695 86.279 97.2111 86.0109ZM81.0781 95.6682C67.656 93.6557 59.2017 80.3578 56.6047 73.6075C54.0285 66.9121 58.7794 60.9425 59.972 59.5929C60.9423 59.4282 61.9636 59.3588 62.3899 59.4255C63.2804 60.6639 66.364 66.4897 66.5 67.5385C66.5 68.225 66.2763 69.1809 63.6139 71.8447C63.368 72.0892 63.2307 72.4214 63.2307 72.7692C63.2307 79.6163 77.6729 89.1154 80.2307 89.1154C82.4551 89.1154 85.3556 85.3767 87.0072 82.9405C87.1027 82.9444 87.2635 82.9771 87.4924 83.0922C87.9631 83.3288 88.7791 83.8611 89.8109 84.5358C91.1735 85.4264 92.9834 86.6085 95.1201 87.8338C94.1498 92.5023 91.4377 97.2244 81.0781 95.6682Z" fill="#0F8DFF"/>
<path d="M223.935 35.7343C222.952 34.7111 221.767 34.164 220.511 34.164C219.265 34.164 218.069 34.701 217.046 35.7242L213.845 38.9153C213.582 38.7735 213.318 38.6418 213.065 38.5101C212.7 38.3278 212.356 38.1555 212.062 37.9732C209.063 36.0686 206.338 33.5866 203.724 30.3751C202.458 28.7745 201.607 27.4271 200.989 26.0595C201.82 25.2996 202.59 24.5094 203.339 23.7496C203.623 23.466 203.907 23.1722 204.19 22.8885C206.318 20.7611 206.318 18.0055 204.19 15.8781L201.425 13.1124C201.111 12.7983 200.786 12.4741 200.482 12.15C199.875 11.5219 199.236 10.8735 198.578 10.2656C197.595 9.2931 196.42 8.77643 195.184 8.77643C193.948 8.77643 192.753 9.2931 191.74 10.2656C191.73 10.2758 191.73 10.2758 191.719 10.2859L188.275 13.7607C186.978 15.0575 186.239 16.6379 186.077 18.4715C185.833 21.4297 186.705 24.1853 187.373 25.9885C189.015 30.4157 191.466 34.5186 195.123 38.9153C199.561 44.2137 204.899 48.3977 210.998 51.3457C213.328 52.45 216.438 53.7569 219.913 53.9797C220.126 53.9899 220.349 54 220.551 54C222.892 54 224.857 53.1592 226.397 51.4876C226.407 51.4673 226.427 51.4572 226.437 51.4369C226.964 50.7987 227.572 50.2212 228.21 49.6033C228.646 49.1879 229.092 48.7523 229.527 48.2964C230.53 47.2529 231.057 46.0372 231.057 44.7912C231.057 43.535 230.52 42.3294 229.497 41.3163L223.935 35.7343ZM227.562 46.402C227.552 46.402 227.552 46.4121 227.562 46.402C227.167 46.8274 226.762 47.2124 226.326 47.6379C225.667 48.266 224.999 48.9245 224.371 49.6641C223.348 50.7582 222.142 51.2748 220.562 51.2748C220.41 51.2748 220.248 51.2748 220.096 51.2647C217.087 51.0722 214.291 49.8971 212.194 48.8941C206.46 46.1183 201.425 42.1774 197.241 37.183C193.786 33.0193 191.476 29.1696 189.947 25.0362C189.004 22.5137 188.66 20.5483 188.812 18.6944C188.913 17.5091 189.369 16.5264 190.21 15.6856L193.665 12.231C194.161 11.765 194.688 11.5117 195.204 11.5117C195.843 11.5117 196.359 11.8967 196.683 12.2209C196.694 12.231 196.704 12.2411 196.714 12.2513C197.332 12.8287 197.919 13.4264 198.537 14.0647C198.851 14.3889 199.176 14.713 199.5 15.0473L202.266 17.813C203.339 18.8869 203.339 19.8797 202.266 20.9536C201.972 21.2474 201.688 21.5411 201.394 21.8248C200.543 22.696 199.733 23.5065 198.851 24.2967C198.831 24.317 198.811 24.3271 198.801 24.3474C197.93 25.2186 198.092 26.0696 198.274 26.647C198.284 26.6774 198.294 26.7078 198.304 26.7382C199.024 28.4807 200.037 30.1219 201.577 32.0771L201.587 32.0872C204.383 35.5317 207.331 38.2163 210.583 40.2729C210.998 40.5363 211.424 40.749 211.829 40.9516C212.194 41.134 212.538 41.3062 212.832 41.4886C212.872 41.5088 212.913 41.5392 212.953 41.5595C213.298 41.7317 213.622 41.8127 213.956 41.8127C214.797 41.8127 215.324 41.2859 215.496 41.1137L218.961 37.649C219.305 37.3046 219.852 36.8892 220.491 36.8892C221.119 36.8892 221.635 37.2843 221.95 37.6287C221.96 37.6389 221.96 37.6389 221.97 37.649L227.552 43.231C228.595 44.2644 228.595 45.3281 227.562 46.402Z" fill="#0F8DFF"/>
<path d="M211.94 17.4179C214.595 17.8637 217.006 19.1199 218.931 21.0447C220.855 22.9696 222.101 25.3807 222.557 28.035C222.669 28.7036 223.246 29.1696 223.905 29.1696C223.986 29.1696 224.057 29.1595 224.138 29.1493C224.887 29.0278 225.384 28.3186 225.262 27.5689C224.715 24.3575 223.196 21.4297 220.876 19.1098C218.556 16.7898 215.628 15.2702 212.416 14.7232C211.667 14.6016 210.968 15.098 210.836 15.8376C210.704 16.5771 211.191 17.2964 211.94 17.4179Z" fill="#0F8DFF"/>
<path d="M233.944 27.1738C233.043 21.8856 230.55 17.0735 226.721 13.2441C222.892 9.41468 218.08 6.92252 212.791 6.02088C212.052 5.88918 211.353 6.39572 211.221 7.13526C211.099 7.88494 211.596 8.58396 212.346 8.71566C217.066 9.51598 221.372 11.7549 224.796 15.1689C228.22 18.5931 230.449 22.8987 231.25 27.6196C231.361 28.2882 231.938 28.7542 232.597 28.7542C232.678 28.7542 232.749 28.7441 232.83 28.734C233.569 28.6225 234.076 27.9134 233.944 27.1738Z" fill="#0F8DFF"/>
<g clip-path="url(#clip10)">
<path d="M414.986 25.9961C414.979 25.918 414.964 25.8408 414.94 25.766C414.924 25.6992 414.903 25.634 414.875 25.571C414.844 25.5095 414.806 25.4514 414.762 25.3976C414.718 25.3337 414.668 25.2749 414.611 25.2219C414.593 25.2061 414.585 25.1844 414.566 25.1686L403.666 16.7034V7.92985C403.666 6.05205 402.144 4.52968 400.266 4.52968H387.983L383.066 0.71126C381.851 -0.236273 380.147 -0.236273 378.932 0.71126L374.013 4.52968H361.731C359.853 4.52968 358.33 6.05192 358.33 7.92985V16.7035L347.434 25.1687C347.415 25.1847 347.407 25.2062 347.389 25.222C347.332 25.2749 347.282 25.3338 347.238 25.3977C347.194 25.4515 347.156 25.5095 347.125 25.5712C347.097 25.634 347.076 25.6993 347.06 25.7662C347.037 25.8399 347.021 25.9158 347.014 25.9929C347.014 26.0167 347 26.0371 347 26.0609V64.5993C347.002 65.3203 347.235 66.0215 347.665 66.5997C347.672 66.6099 347.673 66.6224 347.681 66.6315C347.689 66.6405 347.706 66.6507 347.717 66.6632C348.354 67.501 349.345 67.995 350.397 67.9995H411.6C412.656 67.9963 413.651 67.5 414.288 66.6576C414.297 66.6463 414.311 66.6429 414.319 66.6316C414.327 66.6203 414.328 66.6101 414.335 66.5998C414.765 66.0216 414.999 65.3203 415 64.5995V26.0641C415 26.0403 414.988 26.0198 414.986 25.9961ZM380.318 2.49967C380.714 2.18516 381.275 2.18516 381.67 2.49967L384.285 4.52955H377.711L380.318 2.49967ZM350.682 65.7328L380.318 42.7124C380.714 42.3984 381.275 42.3984 381.67 42.7124L411.314 65.7328H350.682ZM412.733 63.9658L383.066 40.9239C381.85 39.9772 380.147 39.9772 378.932 40.9239L349.263 63.9658V27.7902L367.836 42.2126C368.331 42.5963 369.043 42.5063 369.427 42.0114C369.811 41.5165 369.721 40.8044 369.226 40.4206L350.357 25.7693L358.331 19.5731V28.3308C358.331 28.9567 358.838 29.4641 359.464 29.4641C360.09 29.4641 360.597 28.9566 360.597 28.3308V7.92972C360.597 7.30374 361.105 6.79637 361.731 6.79637H400.266C400.892 6.79637 401.399 7.30374 401.399 7.92972V28.3308C401.399 28.9567 401.907 29.4641 402.533 29.4641C403.158 29.4641 403.666 28.9566 403.666 28.3308V19.5731L411.639 25.7693L392.738 40.4468C392.413 40.6932 392.245 41.0954 392.299 41.4998C392.353 41.9042 392.62 42.2485 392.998 42.4011C393.377 42.5537 393.808 42.4913 394.127 42.2375L412.733 27.7902V63.9658H412.733Z" fill="#0F8DFF"/>
<path d="M394.599 27.1974V22.6639C394.599 15.1524 388.51 9.0632 380.998 9.0632C373.487 9.0632 367.398 15.1524 367.398 22.6639C367.398 30.1753 373.487 36.2646 380.998 36.2646C381.624 36.2646 382.132 35.7572 382.132 35.1312C382.132 34.5053 381.624 33.9979 380.998 33.9979C374.739 33.9979 369.664 28.9235 369.664 22.664C369.664 16.4045 374.739 11.3302 380.998 11.3302C387.258 11.3302 392.332 16.4045 392.332 22.664V27.1975C392.332 28.4495 391.317 29.4644 390.065 29.4644C388.813 29.4644 387.798 28.4495 387.798 27.1975V22.664C387.798 22.038 387.291 21.5307 386.665 21.5307C386.039 21.5307 385.532 22.038 385.532 22.664C385.532 25.1678 383.502 27.1975 380.998 27.1975C378.494 27.1975 376.465 25.1678 376.465 22.664C376.465 20.1602 378.494 18.1305 380.998 18.1305C381.624 18.1305 382.132 17.6231 382.132 16.9972C382.132 16.3712 381.624 15.8638 380.998 15.8638C377.955 15.857 375.277 17.8734 374.443 20.8004C373.609 23.7275 374.821 26.8523 377.411 28.451C380.001 30.0496 383.338 29.7327 385.581 27.6749C385.827 30.0718 387.911 31.8539 390.317 31.7265C392.723 31.599 394.607 29.607 394.599 27.1974Z" fill="#0F8DFF"/>
</g>
<g clip-path="url(#clip11)">
<path d="M54.4604 198.893H31.2015C30.7323 198.893 30.3519 199.274 30.3519 199.743C30.3519 200.212 30.7323 200.593 31.2015 200.593H54.4603C54.9296 200.593 55.3099 200.212 55.3099 199.743C55.31 199.274 54.9296 198.893 54.4604 198.893V198.893Z" fill="#0F8DFF"/>
<path d="M54.4604 204.255H31.2015C30.7323 204.255 30.3519 204.635 30.3519 205.104C30.3519 205.574 30.7323 205.954 31.2015 205.954H54.4603C54.9296 205.954 55.3099 205.574 55.3099 205.104C55.31 204.635 54.9296 204.255 54.4604 204.255V204.255Z" fill="#0F8DFF"/>
<path d="M42.831 209.617H31.2015C30.7323 209.617 30.3519 209.997 30.3519 210.466C30.3519 210.935 30.7323 211.316 31.2015 211.316H42.831C43.3002 211.316 43.6806 210.935 43.6806 210.466C43.6806 209.997 43.3002 209.617 42.831 209.617Z" fill="#0F8DFF"/>
<path d="M76.8127 188.17H53.5538C53.0846 188.17 52.7042 188.55 52.7042 189.02C52.7042 189.489 53.0846 189.869 53.5538 189.869H76.8127C77.2821 189.869 77.6624 189.489 77.6624 189.02C77.6624 188.55 77.2821 188.17 76.8127 188.17Z" fill="#0F8DFF"/>
<path d="M76.8127 193.532H65.1832C64.7139 193.532 64.3336 193.912 64.3336 194.381C64.3336 194.851 64.7139 195.231 65.1832 195.231H76.8127C77.282 195.231 77.6623 194.851 77.6623 194.381C77.6623 193.912 77.282 193.532 76.8127 193.532V193.532Z" fill="#0F8DFF"/>
<path d="M29.2618 173.487H46.2544C46.7236 173.487 47.104 173.107 47.104 172.638C47.104 172.169 46.7236 171.788 46.2544 171.788H29.2618C28.7926 171.788 28.4122 172.169 28.4122 172.638C28.4122 173.107 28.7926 173.487 29.2618 173.487V173.487Z" fill="#0F8DFF"/>
<path d="M29.2618 177.735H37.758C38.2273 177.735 38.6077 177.355 38.6077 176.886C38.6077 176.416 38.2273 176.036 37.758 176.036H29.2618C28.7926 176.036 28.4122 176.416 28.4122 176.886C28.4122 177.355 28.7926 177.735 29.2618 177.735V177.735Z" fill="#0F8DFF"/>
<path d="M56.1765 192.559H29.4853C26.4617 192.559 24.0017 195.019 24.0017 198.043V211.829C24.0017 214.852 26.4616 217.312 29.4853 217.312H29.6769L28.5788 223.409C28.4751 223.985 28.7516 224.559 29.2669 224.837C29.7886 225.119 30.4192 225.026 30.8385 224.628L38.3566 217.491C38.4784 217.376 38.6378 217.312 38.8056 217.312H56.1764C59.2001 217.312 61.66 214.852 61.66 211.829V198.043C61.6602 195.019 59.2002 192.559 56.1765 192.559V192.559ZM59.9609 211.829C59.9609 213.915 58.2632 215.613 56.1765 215.613H38.8058C38.2006 215.613 37.6257 215.842 37.1867 216.259L30.4396 222.664L31.393 217.371C31.558 216.454 30.8533 215.613 29.9237 215.613H29.4853C27.3987 215.613 25.701 213.915 25.701 211.829V198.043C25.701 195.956 27.3987 194.258 29.4853 194.258H56.1765C58.2632 194.258 59.9609 195.956 59.9609 198.043V211.829Z" fill="#0F8DFF"/>
<path d="M27.3345 182.113H33.6715C33.6845 182.113 33.6966 182.12 33.7031 182.131L36.4097 186.804C36.6916 187.291 37.1958 187.581 37.7582 187.581C38.3208 187.581 38.8249 187.291 39.1068 186.804L41.8134 182.131C41.8199 182.12 41.832 182.113 41.8451 182.113H48.1819C49.9955 182.113 51.4709 180.637 51.4709 178.824V170.289C51.4708 168.475 49.9954 167 48.1818 167H27.3345C25.521 167 24.0455 168.475 24.0455 170.289V170.648C24.0455 171.117 24.4259 171.498 24.8951 171.498C25.3644 171.498 25.7448 171.117 25.7448 170.648V170.289C25.7449 169.412 26.458 168.699 27.3345 168.699H48.1818C49.0584 168.699 49.7716 169.412 49.7716 170.289V178.824C49.7716 179.7 49.0584 180.413 48.1818 180.413H41.845C41.2278 180.413 40.6522 180.745 40.3429 181.279L37.7581 185.742L35.1735 181.279C34.8641 180.745 34.2886 180.413 33.6714 180.413H27.3344C26.4579 180.413 25.7448 179.7 25.7448 178.824V174.62C25.7448 174.15 25.3644 173.77 24.8951 173.77C24.4259 173.77 24.0455 174.15 24.0455 174.62V178.824C24.0455 180.637 25.521 182.113 27.3345 182.113V182.113Z" fill="#0F8DFF"/>
<path d="M77.0338 182.945H53.3327C50.5953 182.945 48.3683 185.172 48.3683 187.909V189.437C48.3683 189.906 48.7487 190.287 49.2179 190.287C49.6871 190.287 50.0675 189.906 50.0675 189.437V187.909C50.0675 186.109 51.5322 184.644 53.3326 184.644H77.0338C78.8343 184.644 80.299 186.109 80.299 187.909V199.991C80.299 201.791 78.8343 203.256 77.0338 203.256H76.6444C75.7581 203.256 75.0893 204.058 75.2461 204.928L76.0411 209.343L70.2607 203.856C69.8533 203.469 69.3194 203.256 68.7574 203.256H64.7823C64.313 203.256 63.9327 203.636 63.9327 204.105C63.9327 204.575 64.313 204.955 64.7823 204.955H68.7574C68.8821 204.955 69.0004 205.002 69.0907 205.088L75.7665 211.425C76.1725 211.81 76.778 211.893 77.2729 211.626C77.7668 211.359 78.0317 210.809 77.9321 210.257L76.9774 204.955H77.0337C79.7711 204.955 81.9981 202.728 81.9981 199.991V187.909C81.9982 185.172 79.7712 182.945 77.0338 182.945V182.945Z" fill="#0F8DFF"/>
</g>
</g>
<defs>
<clipPath id="clip0">
<rect width="577" height="291.457" fill="white" transform="translate(0 246.282)"/>
</clipPath>
<clipPath id="clip1">
<rect width="20.0107" height="19.9568" fill="white" transform="translate(425.982 484.81)"/>
</clipPath>
<clipPath id="clip2">
<rect width="20.0107" height="19.9568" fill="white" transform="translate(425.982 440.362)"/>
</clipPath>
<clipPath id="clip3">
<rect width="90.9576" height="90.7126" fill="white" transform="translate(438.716 297.036)"/>
</clipPath>
<clipPath id="clip4">
<rect width="43.8739" height="33.9554" fill="white" transform="translate(296.89 401.93)"/>
</clipPath>
<clipPath id="clip5">
<rect width="512" height="512" fill="white" transform="translate(94.3566 154.641)"/>
</clipPath>
<clipPath id="clip6">
<rect width="86.1318" height="85.1804" fill="white" transform="matrix(0.985155 -0.171668 0.175649 0.984453 224.468 338.72)"/>
</clipPath>
<clipPath id="clip7">
<rect width="68" height="68" fill="white" transform="translate(156 111)"/>
</clipPath>
<clipPath id="clip8">
<rect width="58" height="58" fill="white" transform="translate(404 98)"/>
</clipPath>
<clipPath id="clip9">
<rect width="68" height="68" fill="white" transform="translate(521 29)"/>
</clipPath>
<clipPath id="clip10">
<rect width="68" height="68" fill="white" transform="translate(347)"/>
</clipPath>
<clipPath id="clip11">
<rect width="58" height="58" fill="white" transform="translate(24 167)"/>
</clipPath>
</defs>
</svg>
