<svg width="582" height="384" viewBox="0 0 582 384" fill="none" xmlns="http://www.w3.org/2000/svg">
<g filter="url(#filter0_d)">
<path d="M67 85.5H450C454.142 85.5 457.5 88.8579 457.5 93V340.5H59.5V93C59.5 88.8579 62.8579 85.5 67 85.5Z" fill="white" stroke="black" stroke-width="15"/>
<path d="M100.388 209.628L103.728 203.203H105.644L101.231 211.228V216H99.5439V211.228L95.1318 203.203H97.0654L100.388 209.628ZM106.03 211.157C106.03 210.226 106.212 209.388 106.575 208.644C106.944 207.899 107.454 207.325 108.104 206.921C108.761 206.517 109.508 206.314 110.346 206.314C111.641 206.314 112.687 206.763 113.483 207.659C114.286 208.556 114.688 209.748 114.688 211.236V211.351C114.688 212.276 114.509 213.108 114.151 213.847C113.8 214.579 113.293 215.15 112.631 215.561C111.975 215.971 111.219 216.176 110.363 216.176C109.074 216.176 108.028 215.728 107.226 214.831C106.429 213.935 106.03 212.748 106.03 211.271V211.157ZM107.665 211.351C107.665 212.405 107.908 213.252 108.395 213.891C108.887 214.529 109.543 214.849 110.363 214.849C111.189 214.849 111.846 214.526 112.332 213.882C112.818 213.231 113.062 212.323 113.062 211.157C113.062 210.114 112.812 209.271 112.314 208.626C111.822 207.976 111.166 207.65 110.346 207.65C109.543 207.65 108.896 207.97 108.403 208.608C107.911 209.247 107.665 210.161 107.665 211.351ZM122.598 215.06C121.965 215.804 121.036 216.176 119.812 216.176C118.798 216.176 118.024 215.883 117.491 215.297C116.964 214.705 116.697 213.832 116.691 212.678V206.49H118.317V212.634C118.317 214.075 118.903 214.796 120.075 214.796C121.317 214.796 122.144 214.333 122.554 213.407V206.49H124.18V216H122.633L122.598 215.06ZM131.255 207.949C131.009 207.908 130.742 207.888 130.455 207.888C129.389 207.888 128.665 208.342 128.284 209.25V216H126.658V206.49H128.24L128.267 207.589C128.8 206.739 129.556 206.314 130.534 206.314C130.851 206.314 131.091 206.355 131.255 206.438V207.949ZM140.237 211.966L140.483 213.653L140.844 212.133L143.375 203.203H144.799L147.269 212.133L147.62 213.68L147.893 211.957L149.879 203.203H151.575L148.473 216H146.935L144.298 206.675L144.096 205.699L143.894 206.675L141.16 216H139.622L136.528 203.203H138.216L140.237 211.966ZM156.866 216.176C155.577 216.176 154.528 215.754 153.72 214.91C152.911 214.061 152.507 212.927 152.507 211.509V211.21C152.507 210.267 152.686 209.426 153.043 208.688C153.406 207.943 153.91 207.363 154.555 206.947C155.205 206.525 155.908 206.314 156.664 206.314C157.9 206.314 158.861 206.722 159.547 207.536C160.232 208.351 160.575 209.517 160.575 211.034V211.711H154.133C154.156 212.648 154.429 213.407 154.95 213.987C155.478 214.562 156.146 214.849 156.954 214.849C157.528 214.849 158.015 214.731 158.413 214.497C158.812 214.263 159.16 213.952 159.459 213.565L160.452 214.339C159.655 215.563 158.46 216.176 156.866 216.176ZM156.664 207.65C156.008 207.65 155.457 207.891 155.012 208.371C154.566 208.846 154.291 209.514 154.186 210.375H158.949V210.252C158.902 209.426 158.68 208.787 158.281 208.336C157.883 207.879 157.344 207.65 156.664 207.65ZM170.516 211.351C170.516 212.804 170.182 213.973 169.514 214.857C168.846 215.736 167.949 216.176 166.824 216.176C165.623 216.176 164.694 215.751 164.038 214.901L163.959 216H162.465V202.5H164.091V207.536C164.747 206.722 165.652 206.314 166.807 206.314C167.961 206.314 168.866 206.751 169.522 207.624C170.185 208.497 170.516 209.692 170.516 211.21V211.351ZM168.89 211.166C168.89 210.059 168.676 209.203 168.248 208.6C167.82 207.996 167.205 207.694 166.402 207.694C165.33 207.694 164.56 208.192 164.091 209.188V213.302C164.589 214.298 165.365 214.796 166.42 214.796C167.199 214.796 167.806 214.494 168.239 213.891C168.673 213.287 168.89 212.379 168.89 211.166ZM178.109 213.478C178.109 213.038 177.942 212.698 177.608 212.458C177.28 212.212 176.703 212.001 175.877 211.825C175.057 211.649 174.403 211.438 173.917 211.192C173.437 210.946 173.079 210.653 172.845 210.313C172.616 209.974 172.502 209.569 172.502 209.101C172.502 208.321 172.83 207.662 173.486 207.123C174.148 206.584 174.992 206.314 176.018 206.314C177.096 206.314 177.969 206.593 178.637 207.149C179.311 207.706 179.647 208.418 179.647 209.285H178.013C178.013 208.84 177.822 208.456 177.441 208.134C177.066 207.812 176.592 207.65 176.018 207.65C175.426 207.65 174.963 207.779 174.629 208.037C174.295 208.295 174.128 208.632 174.128 209.048C174.128 209.44 174.283 209.736 174.594 209.936C174.904 210.135 175.464 210.325 176.272 210.507C177.087 210.688 177.746 210.905 178.25 211.157C178.754 211.409 179.126 211.714 179.366 212.071C179.612 212.423 179.735 212.854 179.735 213.363C179.735 214.213 179.396 214.896 178.716 215.411C178.036 215.921 177.154 216.176 176.07 216.176C175.309 216.176 174.635 216.041 174.049 215.771C173.463 215.502 173.003 215.127 172.669 214.646C172.341 214.16 172.177 213.636 172.177 213.073H173.803C173.832 213.618 174.049 214.052 174.453 214.374C174.863 214.69 175.402 214.849 176.07 214.849C176.686 214.849 177.178 214.726 177.547 214.479C177.922 214.228 178.109 213.894 178.109 213.478ZM183.62 216H181.994V206.49H183.62V216ZM181.862 203.968C181.862 203.704 181.941 203.481 182.1 203.3C182.264 203.118 182.504 203.027 182.82 203.027C183.137 203.027 183.377 203.118 183.541 203.3C183.705 203.481 183.787 203.704 183.787 203.968C183.787 204.231 183.705 204.451 183.541 204.627C183.377 204.803 183.137 204.891 182.82 204.891C182.504 204.891 182.264 204.803 182.1 204.627C181.941 204.451 181.862 204.231 181.862 203.968ZM188.437 204.188V206.49H190.212V207.747H188.437V213.645C188.437 214.025 188.516 214.312 188.674 214.506C188.832 214.693 189.102 214.787 189.482 214.787C189.67 214.787 189.928 214.752 190.256 214.682V216C189.828 216.117 189.412 216.176 189.008 216.176C188.281 216.176 187.733 215.956 187.364 215.517C186.995 215.077 186.811 214.453 186.811 213.645V207.747H185.079V206.49H186.811V204.188H188.437ZM196.065 216.176C194.776 216.176 193.728 215.754 192.919 214.91C192.11 214.061 191.706 212.927 191.706 211.509V211.21C191.706 210.267 191.885 209.426 192.242 208.688C192.605 207.943 193.109 207.363 193.754 206.947C194.404 206.525 195.107 206.314 195.863 206.314C197.1 206.314 198.061 206.722 198.746 207.536C199.432 208.351 199.774 209.517 199.774 211.034V211.711H193.332C193.355 212.648 193.628 213.407 194.149 213.987C194.677 214.562 195.345 214.849 196.153 214.849C196.728 214.849 197.214 214.731 197.612 214.497C198.011 214.263 198.359 213.952 198.658 213.565L199.651 214.339C198.854 215.563 197.659 216.176 196.065 216.176ZM195.863 207.65C195.207 207.65 194.656 207.891 194.211 208.371C193.766 208.846 193.49 209.514 193.385 210.375H198.148V210.252C198.102 209.426 197.879 208.787 197.48 208.336C197.082 207.879 196.543 207.65 195.863 207.65Z" fill="#C4C4C4"/>
<path d="M10 353C10 350.239 12.2386 348 15 348H501C503.761 348 506 350.239 506 353V356H10V353Z" fill="#E5E5E5"/>
<path d="M10 356H506V360C506 365.523 501.523 370 496 370H20C14.4771 370 10 365.523 10 360V356Z" fill="#C4C4C4"/>
<path d="M440.884 99.3661C441.372 99.8543 441.372 100.646 440.884 101.134C440.396 101.622 439.604 101.622 439.116 101.134C438.628 100.646 438.628 99.8543 439.116 99.3661C439.604 98.878 440.396 98.878 440.884 99.3661Z" fill="#97A3AF"/>
<path d="M440.884 103.116C441.372 103.604 441.372 104.396 440.884 104.884C440.396 105.372 439.604 105.372 439.116 104.884C438.628 104.396 438.628 103.604 439.116 103.116C439.604 102.628 440.396 102.628 440.884 103.116" fill="#97A3AF"/>
<path d="M440.884 106.866C441.372 107.354 441.372 108.146 440.884 108.634C440.396 109.122 439.604 109.122 439.116 108.634C438.628 108.146 438.628 107.354 439.116 106.866C439.604 106.378 440.396 106.378 440.884 106.866" fill="#97A3AF"/>
<rect x="91" y="99" width="339" height="10" fill="#F5F5F5"/>
<g clip-path="url(#clip0)">
<path d="M85 103.286H77.8571L80.3572 100.786L79.2857 99.7144L75 104L79.2857 108.286L80.3571 107.214L77.8571 104.714H85V103.286Z" fill="#97A3AF"/>
</g>
</g>
<g filter="url(#filter1_d)">
<rect x="383" y="312" width="56.2963" height="16" rx="8" fill="#2A94F4"/>
<path d="M494.927 258.122L434.255 317.543L411.722 241.122L494.927 258.122Z" fill="#F5F5F5"/>
<circle cx="422" cy="156" r="150" fill="white"/>
<circle cx="422" cy="156" r="145" stroke="#2A94F4" stroke-opacity="0.3" stroke-width="10"/>
<g filter="url(#filter2_d)">
<rect x="352" y="222" width="128.889" height="32" rx="16" fill="#2A94F4"/>
</g>
<path d="M401.134 240.224C401.198 240.224 401.254 240.25 401.302 240.302L401.764 240.8C401.412 241.208 400.984 241.526 400.48 241.754C399.98 241.982 399.374 242.096 398.662 242.096C398.046 242.096 397.486 241.99 396.982 241.778C396.478 241.562 396.048 241.262 395.692 240.878C395.336 240.49 395.06 240.026 394.864 239.486C394.668 238.946 394.57 238.352 394.57 237.704C394.57 237.056 394.672 236.462 394.876 235.922C395.08 235.382 395.366 234.918 395.734 234.53C396.106 234.142 396.55 233.842 397.066 233.63C397.582 233.414 398.152 233.306 398.776 233.306C399.388 233.306 399.928 233.404 400.396 233.6C400.864 233.796 401.276 234.062 401.632 234.398L401.248 234.932C401.224 234.972 401.192 235.006 401.152 235.034C401.116 235.058 401.066 235.07 401.002 235.07C400.93 235.07 400.842 235.032 400.738 234.956C400.634 234.876 400.498 234.788 400.33 234.692C400.162 234.596 399.952 234.51 399.7 234.434C399.448 234.354 399.138 234.314 398.77 234.314C398.326 234.314 397.92 234.392 397.552 234.548C397.184 234.7 396.866 234.922 396.598 235.214C396.334 235.506 396.128 235.862 395.98 236.282C395.832 236.702 395.758 237.176 395.758 237.704C395.758 238.24 395.834 238.718 395.986 239.138C396.142 239.558 396.352 239.914 396.616 240.206C396.884 240.494 397.198 240.714 397.558 240.866C397.922 241.018 398.314 241.094 398.734 241.094C398.99 241.094 399.22 241.08 399.424 241.052C399.632 241.02 399.822 240.972 399.994 240.908C400.17 240.844 400.332 240.764 400.48 240.668C400.632 240.568 400.782 240.45 400.93 240.314C400.998 240.254 401.066 240.224 401.134 240.224ZM405.306 235.826C405.75 235.826 406.15 235.9 406.506 236.048C406.862 236.196 407.166 236.406 407.418 236.678C407.67 236.95 407.862 237.28 407.994 237.668C408.13 238.052 408.198 238.482 408.198 238.958C408.198 239.438 408.13 239.87 407.994 240.254C407.862 240.638 407.67 240.966 407.418 241.238C407.166 241.51 406.862 241.72 406.506 241.868C406.15 242.012 405.75 242.084 405.306 242.084C404.858 242.084 404.454 242.012 404.094 241.868C403.738 241.72 403.434 241.51 403.182 241.238C402.93 240.966 402.736 240.638 402.6 240.254C402.468 239.87 402.402 239.438 402.402 238.958C402.402 238.482 402.468 238.052 402.6 237.668C402.736 237.28 402.93 236.95 403.182 236.678C403.434 236.406 403.738 236.196 404.094 236.048C404.454 235.9 404.858 235.826 405.306 235.826ZM405.306 241.25C405.906 241.25 406.354 241.05 406.65 240.65C406.946 240.246 407.094 239.684 407.094 238.964C407.094 238.24 406.946 237.676 406.65 237.272C406.354 236.868 405.906 236.666 405.306 236.666C405.002 236.666 404.736 236.718 404.508 236.822C404.284 236.926 404.096 237.076 403.944 237.272C403.796 237.468 403.684 237.71 403.608 237.998C403.536 238.282 403.5 238.604 403.5 238.964C403.5 239.684 403.648 240.246 403.944 240.65C404.244 241.05 404.698 241.25 405.306 241.25ZM410.561 236.804C410.693 236.656 410.833 236.522 410.981 236.402C411.129 236.282 411.285 236.18 411.449 236.096C411.617 236.008 411.793 235.942 411.977 235.898C412.165 235.85 412.367 235.826 412.583 235.826C412.915 235.826 413.207 235.882 413.459 235.994C413.715 236.102 413.927 236.258 414.095 236.462C414.267 236.662 414.397 236.904 414.485 237.188C414.573 237.472 414.617 237.786 414.617 238.13V242H413.543V238.13C413.543 237.67 413.437 237.314 413.225 237.062C413.017 236.806 412.699 236.678 412.271 236.678C411.955 236.678 411.659 236.754 411.383 236.906C411.111 237.058 410.859 237.264 410.627 237.524V242H409.553V235.922H410.195C410.347 235.922 410.441 235.996 410.477 236.144L410.561 236.804ZM418.028 242.096C417.548 242.096 417.178 241.962 416.918 241.694C416.662 241.426 416.534 241.04 416.534 240.536V236.816H415.802C415.738 236.816 415.684 236.798 415.64 236.762C415.596 236.722 415.574 236.662 415.574 236.582V236.156L416.57 236.03L416.816 234.152C416.828 234.092 416.854 234.044 416.894 234.008C416.938 233.968 416.994 233.948 417.062 233.948H417.602V236.042H419.36V236.816H417.602V240.464C417.602 240.72 417.664 240.91 417.788 241.034C417.912 241.158 418.072 241.22 418.268 241.22C418.38 241.22 418.476 241.206 418.556 241.178C418.64 241.146 418.712 241.112 418.772 241.076C418.832 241.04 418.882 241.008 418.922 240.98C418.966 240.948 419.004 240.932 419.036 240.932C419.092 240.932 419.142 240.966 419.186 241.034L419.498 241.544C419.314 241.716 419.092 241.852 418.832 241.952C418.572 242.048 418.304 242.096 418.028 242.096ZM423.757 239.264C423.265 239.28 422.845 239.32 422.497 239.384C422.153 239.444 421.871 239.524 421.651 239.624C421.435 239.724 421.277 239.842 421.177 239.978C421.081 240.114 421.033 240.266 421.033 240.434C421.033 240.594 421.059 240.732 421.111 240.848C421.163 240.964 421.233 241.06 421.321 241.136C421.413 241.208 421.519 241.262 421.639 241.298C421.763 241.33 421.895 241.346 422.035 241.346C422.223 241.346 422.395 241.328 422.551 241.292C422.707 241.252 422.853 241.196 422.989 241.124C423.129 241.052 423.261 240.966 423.385 240.866C423.513 240.766 423.637 240.652 423.757 240.524V239.264ZM420.307 236.78C420.643 236.456 421.005 236.214 421.393 236.054C421.781 235.894 422.211 235.814 422.683 235.814C423.023 235.814 423.325 235.87 423.589 235.982C423.853 236.094 424.075 236.25 424.255 236.45C424.435 236.65 424.571 236.892 424.663 237.176C424.755 237.46 424.801 237.772 424.801 238.112V242H424.327C424.223 242 424.143 241.984 424.087 241.952C424.031 241.916 423.987 241.848 423.955 241.748L423.835 241.172C423.675 241.32 423.519 241.452 423.367 241.568C423.215 241.68 423.055 241.776 422.887 241.856C422.719 241.932 422.539 241.99 422.347 242.03C422.159 242.074 421.949 242.096 421.717 242.096C421.481 242.096 421.259 242.064 421.051 242C420.843 241.932 420.661 241.832 420.505 241.7C420.353 241.568 420.231 241.402 420.139 241.202C420.051 240.998 420.007 240.758 420.007 240.482C420.007 240.242 420.073 240.012 420.205 239.792C420.337 239.568 420.551 239.37 420.847 239.198C421.143 239.026 421.529 238.886 422.005 238.778C422.481 238.666 423.065 238.602 423.757 238.586V238.112C423.757 237.64 423.655 237.284 423.451 237.044C423.247 236.8 422.949 236.678 422.557 236.678C422.293 236.678 422.071 236.712 421.891 236.78C421.715 236.844 421.561 236.918 421.429 237.002C421.301 237.082 421.189 237.156 421.093 237.224C421.001 237.288 420.909 237.32 420.817 237.32C420.745 237.32 420.683 237.302 420.631 237.266C420.579 237.226 420.535 237.178 420.499 237.122L420.307 236.78ZM430.658 237.002C430.626 237.046 430.594 237.08 430.562 237.104C430.53 237.128 430.486 237.14 430.43 237.14C430.37 237.14 430.304 237.116 430.232 237.068C430.16 237.016 430.07 236.96 429.962 236.9C429.858 236.84 429.728 236.786 429.572 236.738C429.42 236.686 429.232 236.66 429.008 236.66C428.708 236.66 428.444 236.714 428.216 236.822C427.988 236.926 427.796 237.078 427.64 237.278C427.488 237.478 427.372 237.72 427.292 238.004C427.216 238.288 427.178 238.606 427.178 238.958C427.178 239.326 427.22 239.654 427.304 239.942C427.388 240.226 427.506 240.466 427.658 240.662C427.814 240.854 428 241.002 428.216 241.106C428.436 241.206 428.682 241.256 428.954 241.256C429.214 241.256 429.428 241.226 429.596 241.166C429.764 241.102 429.902 241.032 430.01 240.956C430.122 240.88 430.214 240.812 430.286 240.752C430.362 240.688 430.436 240.656 430.508 240.656C430.596 240.656 430.664 240.69 430.712 240.758L431.012 241.148C430.88 241.312 430.73 241.452 430.562 241.568C430.394 241.684 430.212 241.782 430.016 241.862C429.824 241.938 429.622 241.994 429.41 242.03C429.198 242.066 428.982 242.084 428.762 242.084C428.382 242.084 428.028 242.014 427.7 241.874C427.376 241.734 427.094 241.532 426.854 241.268C426.614 241 426.426 240.672 426.29 240.284C426.154 239.896 426.086 239.454 426.086 238.958C426.086 238.506 426.148 238.088 426.272 237.704C426.4 237.32 426.584 236.99 426.824 236.714C427.068 236.434 427.366 236.216 427.718 236.06C428.074 235.904 428.482 235.826 428.942 235.826C429.37 235.826 429.746 235.896 430.07 236.036C430.398 236.172 430.688 236.366 430.94 236.618L430.658 237.002ZM434.025 242.096C433.545 242.096 433.175 241.962 432.915 241.694C432.659 241.426 432.531 241.04 432.531 240.536V236.816H431.799C431.735 236.816 431.681 236.798 431.637 236.762C431.593 236.722 431.571 236.662 431.571 236.582V236.156L432.567 236.03L432.812 234.152C432.825 234.092 432.851 234.044 432.891 234.008C432.935 233.968 432.991 233.948 433.059 233.948H433.599V236.042H435.357V236.816H433.599V240.464C433.599 240.72 433.661 240.91 433.785 241.034C433.909 241.158 434.069 241.22 434.265 241.22C434.377 241.22 434.473 241.206 434.553 241.178C434.637 241.146 434.709 241.112 434.769 241.076C434.829 241.04 434.879 241.008 434.919 240.98C434.963 240.948 435.001 240.932 435.033 240.932C435.089 240.932 435.139 240.966 435.183 241.034L435.495 241.544C435.311 241.716 435.089 241.852 434.829 241.952C434.569 242.048 434.301 242.096 434.025 242.096ZM439.753 239.264C439.261 239.28 438.841 239.32 438.493 239.384C438.149 239.444 437.867 239.524 437.647 239.624C437.431 239.724 437.273 239.842 437.173 239.978C437.077 240.114 437.029 240.266 437.029 240.434C437.029 240.594 437.055 240.732 437.107 240.848C437.159 240.964 437.229 241.06 437.317 241.136C437.409 241.208 437.515 241.262 437.635 241.298C437.759 241.33 437.891 241.346 438.031 241.346C438.219 241.346 438.391 241.328 438.547 241.292C438.703 241.252 438.849 241.196 438.985 241.124C439.125 241.052 439.257 240.966 439.381 240.866C439.509 240.766 439.633 240.652 439.753 240.524V239.264ZM436.303 236.78C436.639 236.456 437.001 236.214 437.389 236.054C437.777 235.894 438.207 235.814 438.679 235.814C439.019 235.814 439.321 235.87 439.585 235.982C439.849 236.094 440.071 236.25 440.251 236.45C440.431 236.65 440.567 236.892 440.659 237.176C440.751 237.46 440.797 237.772 440.797 238.112V242H440.323C440.219 242 440.139 241.984 440.083 241.952C440.027 241.916 439.983 241.848 439.951 241.748L439.831 241.172C439.671 241.32 439.515 241.452 439.363 241.568C439.211 241.68 439.051 241.776 438.883 241.856C438.715 241.932 438.535 241.99 438.343 242.03C438.155 242.074 437.945 242.096 437.713 242.096C437.477 242.096 437.255 242.064 437.047 242C436.839 241.932 436.657 241.832 436.501 241.7C436.349 241.568 436.227 241.402 436.135 241.202C436.047 240.998 436.003 240.758 436.003 240.482C436.003 240.242 436.069 240.012 436.201 239.792C436.333 239.568 436.547 239.37 436.843 239.198C437.139 239.026 437.525 238.886 438.001 238.778C438.477 238.666 439.061 238.602 439.753 238.586V238.112C439.753 237.64 439.651 237.284 439.447 237.044C439.243 236.8 438.945 236.678 438.553 236.678C438.289 236.678 438.067 236.712 437.887 236.78C437.711 236.844 437.557 236.918 437.425 237.002C437.297 237.082 437.185 237.156 437.089 237.224C436.997 237.288 436.905 237.32 436.813 237.32C436.741 237.32 436.679 237.302 436.627 237.266C436.575 237.226 436.531 237.178 436.495 237.122L436.303 236.78ZM443.432 236.804C443.564 236.656 443.704 236.522 443.852 236.402C444 236.282 444.156 236.18 444.32 236.096C444.488 236.008 444.664 235.942 444.848 235.898C445.036 235.85 445.238 235.826 445.454 235.826C445.786 235.826 446.078 235.882 446.33 235.994C446.586 236.102 446.798 236.258 446.966 236.462C447.138 236.662 447.268 236.904 447.356 237.188C447.444 237.472 447.488 237.786 447.488 238.13V242H446.414V238.13C446.414 237.67 446.308 237.314 446.096 237.062C445.888 236.806 445.57 236.678 445.142 236.678C444.826 236.678 444.53 236.754 444.254 236.906C443.982 237.058 443.73 237.264 443.498 237.524V242H442.424V235.922H443.066C443.218 235.922 443.312 235.996 443.348 236.144L443.432 236.804ZM451.678 235.826C452.122 235.826 452.522 235.9 452.878 236.048C453.234 236.196 453.538 236.406 453.79 236.678C454.042 236.95 454.234 237.28 454.366 237.668C454.502 238.052 454.57 238.482 454.57 238.958C454.57 239.438 454.502 239.87 454.366 240.254C454.234 240.638 454.042 240.966 453.79 241.238C453.538 241.51 453.234 241.72 452.878 241.868C452.522 242.012 452.122 242.084 451.678 242.084C451.23 242.084 450.826 242.012 450.466 241.868C450.11 241.72 449.806 241.51 449.554 241.238C449.302 240.966 449.108 240.638 448.972 240.254C448.84 239.87 448.774 239.438 448.774 238.958C448.774 238.482 448.84 238.052 448.972 237.668C449.108 237.28 449.302 236.95 449.554 236.678C449.806 236.406 450.11 236.196 450.466 236.048C450.826 235.9 451.23 235.826 451.678 235.826ZM451.678 241.25C452.278 241.25 452.726 241.05 453.022 240.65C453.318 240.246 453.466 239.684 453.466 238.964C453.466 238.24 453.318 237.676 453.022 237.272C452.726 236.868 452.278 236.666 451.678 236.666C451.374 236.666 451.108 236.718 450.88 236.822C450.656 236.926 450.468 237.076 450.316 237.272C450.168 237.468 450.056 237.71 449.98 237.998C449.908 238.282 449.872 238.604 449.872 238.964C449.872 239.684 450.02 240.246 450.316 240.65C450.616 241.05 451.07 241.25 451.678 241.25ZM459.464 236.924C459.416 237.012 459.342 237.056 459.242 237.056C459.182 237.056 459.114 237.034 459.038 236.99C458.962 236.946 458.868 236.898 458.756 236.846C458.648 236.79 458.518 236.74 458.366 236.696C458.214 236.648 458.034 236.624 457.826 236.624C457.646 236.624 457.484 236.648 457.34 236.696C457.196 236.74 457.072 236.802 456.968 236.882C456.868 236.962 456.79 237.056 456.734 237.164C456.682 237.268 456.656 237.382 456.656 237.506C456.656 237.662 456.7 237.792 456.788 237.896C456.88 238 457 238.09 457.148 238.166C457.296 238.242 457.464 238.31 457.652 238.37C457.84 238.426 458.032 238.488 458.228 238.556C458.428 238.62 458.622 238.692 458.81 238.772C458.998 238.852 459.166 238.952 459.314 239.072C459.462 239.192 459.58 239.34 459.668 239.516C459.76 239.688 459.806 239.896 459.806 240.14C459.806 240.42 459.756 240.68 459.656 240.92C459.556 241.156 459.408 241.362 459.212 241.538C459.016 241.71 458.776 241.846 458.492 241.946C458.208 242.046 457.88 242.096 457.508 242.096C457.084 242.096 456.7 242.028 456.356 241.892C456.012 241.752 455.72 241.574 455.48 241.358L455.732 240.95C455.764 240.898 455.802 240.858 455.846 240.83C455.89 240.802 455.946 240.788 456.014 240.788C456.086 240.788 456.162 240.816 456.242 240.872C456.322 240.928 456.418 240.99 456.53 241.058C456.646 241.126 456.786 241.188 456.95 241.244C457.114 241.3 457.318 241.328 457.562 241.328C457.77 241.328 457.952 241.302 458.108 241.25C458.264 241.194 458.394 241.12 458.498 241.028C458.602 240.936 458.678 240.83 458.726 240.71C458.778 240.59 458.804 240.462 458.804 240.326C458.804 240.158 458.758 240.02 458.666 239.912C458.578 239.8 458.46 239.706 458.312 239.63C458.164 239.55 457.994 239.482 457.802 239.426C457.614 239.366 457.42 239.304 457.22 239.24C457.024 239.176 456.83 239.104 456.638 239.024C456.45 238.94 456.282 238.836 456.134 238.712C455.986 238.588 455.866 238.436 455.774 238.256C455.686 238.072 455.642 237.85 455.642 237.59C455.642 237.358 455.69 237.136 455.786 236.924C455.882 236.708 456.022 236.52 456.206 236.36C456.39 236.196 456.616 236.066 456.884 235.97C457.152 235.874 457.458 235.826 457.802 235.826C458.202 235.826 458.56 235.89 458.876 236.018C459.196 236.142 459.472 236.314 459.704 236.534L459.464 236.924Z" fill="white"/>
<g clip-path="url(#clip1)">
<path d="M382.808 229H382.025H377.012H376.229C375.279 229 374.506 229.822 374.506 230.833V243.167C374.506 244.178 375.279 245 376.229 245H382.808C383.758 245 384.531 244.178 384.531 243.167V230.833C384.531 229.822 383.758 229 382.808 229ZM383.278 243C383.278 243.368 382.997 243.667 382.651 243.667H376.386C376.04 243.667 375.759 243.368 375.759 243V231C375.759 230.632 376.04 230.333 376.386 230.333H376.699C377.045 230.333 377.326 230.632 377.326 231C377.326 231.368 377.606 231.667 377.952 231.667H381.085C381.431 231.667 381.711 231.368 381.711 231C381.711 230.632 381.992 230.333 382.338 230.333H382.651C382.997 230.333 383.278 230.632 383.278 231V243Z" fill="white"/>
<path d="M376.856 235.926C376.596 235.926 376.386 235.702 376.386 235.426V234.167C376.386 233.891 376.596 233.667 376.856 233.667H378.039C378.299 233.667 378.509 233.891 378.509 234.167C378.509 234.443 378.299 234.667 378.039 234.667H377.326V235.426C377.326 235.702 377.115 235.926 376.856 235.926Z" fill="white"/>
<path d="M382.181 240.334H380.406C380.147 240.334 379.937 240.11 379.937 239.834C379.937 239.558 380.147 239.334 380.406 239.334H381.712V238.574C381.712 238.298 381.922 238.074 382.181 238.074C382.441 238.074 382.651 238.298 382.651 238.574V239.834C382.651 240.11 382.441 240.334 382.181 240.334Z" fill="white"/>
<path d="M382.181 237.018H380.563C380.304 237.018 380.093 236.795 380.093 236.519V234.167C380.093 233.891 380.304 233.667 380.563 233.667H382.181C382.441 233.667 382.651 233.891 382.651 234.167V236.519C382.651 236.795 382.441 237.018 382.181 237.018ZM381.033 236.019H381.711V234.667H381.033V236.019Z" fill="white"/>
<path d="M379.066 240.333H376.856C376.596 240.333 376.386 240.109 376.386 239.833V238.111C376.386 237.835 376.596 237.611 376.856 237.611H379.066C379.326 237.611 379.536 237.835 379.536 238.111V239.833C379.536 240.109 379.326 240.333 379.066 240.333ZM377.326 239.333H378.596V238.611H377.326V239.333Z" fill="white"/>
<path d="M378.613 237.186H376.856C376.596 237.186 376.386 236.962 376.386 236.686C376.386 236.41 376.596 236.186 376.856 236.186H378.613C378.872 236.186 379.083 236.41 379.083 236.686C379.083 236.962 378.872 237.186 378.613 237.186Z" fill="white"/>
<path d="M380.406 239.074C380.147 239.074 379.937 238.85 379.937 238.574V237.944C379.937 237.668 380.147 237.444 380.406 237.444C380.666 237.444 380.876 237.668 380.876 237.944V238.574C380.876 238.85 380.666 239.074 380.406 239.074Z" fill="white"/>
<path d="M379.223 235.926C378.963 235.926 378.753 235.702 378.753 235.426V234.167C378.753 233.891 378.963 233.667 379.223 233.667C379.482 233.667 379.693 233.891 379.693 234.167V235.426C379.693 235.702 379.482 235.926 379.223 235.926Z" fill="white"/>
</g>
<g filter="url(#filter3_d)">
<path d="M459 217L481.517 197.5H436.483L459 217Z" fill="white"/>
<rect x="324" y="60" width="196" height="139" rx="15" fill="white"/>
<rect x="342.5" y="117.5" width="159" height="25" rx="2.5" fill="white" stroke="#C2C2C2"/>
<path d="M492.762 127.567L492.281 127.085C492.114 126.927 491.92 126.848 491.697 126.848C491.47 126.848 491.278 126.927 491.119 127.085L488 130.205L484.881 127.085C484.722 126.927 484.53 126.848 484.303 126.848C484.08 126.848 483.886 126.927 483.719 127.085L483.244 127.567C483.081 127.729 483 127.924 483 128.151C483 128.382 483.081 128.574 483.244 128.728L487.422 132.907C487.576 133.069 487.769 133.151 488 133.151C488.227 133.151 488.422 133.069 488.584 132.907L492.762 128.728C492.921 128.57 493 128.377 493 128.151C493 127.928 492.921 127.733 492.762 127.567Z" fill="#C4C4C4"/>
<rect x="342.5" y="154.5" width="159" height="25" rx="2.5" fill="white" stroke="#C2C2C2"/>
<path d="M355.465 166.225H357.58V167.754H355.465V170.145H353.854V167.754H351.732V166.225H353.854V163.934H355.465V166.225ZM360.252 165.984H361.154C361.584 165.984 361.902 165.877 362.109 165.662C362.316 165.447 362.42 165.162 362.42 164.807C362.42 164.463 362.316 164.195 362.109 164.004C361.906 163.812 361.625 163.717 361.266 163.717C360.941 163.717 360.67 163.807 360.451 163.986C360.232 164.162 360.123 164.393 360.123 164.678H358.43C358.43 164.232 358.549 163.834 358.787 163.482C359.029 163.127 359.365 162.85 359.795 162.65C360.229 162.451 360.705 162.352 361.225 162.352C362.127 162.352 362.834 162.568 363.346 163.002C363.857 163.432 364.113 164.025 364.113 164.783C364.113 165.174 363.994 165.533 363.756 165.861C363.518 166.189 363.205 166.441 362.818 166.617C363.299 166.789 363.656 167.047 363.891 167.391C364.129 167.734 364.248 168.141 364.248 168.609C364.248 169.367 363.971 169.975 363.416 170.432C362.865 170.889 362.135 171.117 361.225 171.117C360.373 171.117 359.676 170.893 359.133 170.443C358.594 169.994 358.324 169.4 358.324 168.662H360.018C360.018 168.982 360.137 169.244 360.375 169.447C360.617 169.65 360.914 169.752 361.266 169.752C361.668 169.752 361.982 169.646 362.209 169.436C362.439 169.221 362.555 168.938 362.555 168.586C362.555 167.734 362.086 167.309 361.148 167.309H360.252V165.984ZM370.43 167.789H371.396V169.154H370.43V171H368.736V169.154H365.238L365.162 168.088L368.719 162.469H370.43V167.789ZM366.85 167.789H368.736V164.777L368.625 164.971L366.85 167.789ZM378.533 165.41L380.133 162.469H382.154L379.67 166.699L382.219 171H380.174L378.533 168.012L376.893 171H374.848L377.396 166.699L374.912 162.469H376.934L378.533 165.41ZM386.162 165.41L387.762 162.469H389.783L387.299 166.699L389.848 171H387.803L386.162 168.012L384.521 171H382.477L385.025 166.699L382.541 162.469H384.562L386.162 165.41ZM393.791 165.41L395.391 162.469H397.412L394.928 166.699L397.477 171H395.432L393.791 168.012L392.15 171H390.105L392.654 166.699L390.17 162.469H392.191L393.791 165.41ZM407.396 165.41L408.996 162.469H411.018L408.533 166.699L411.082 171H409.037L407.396 168.012L405.756 171H403.711L406.26 166.699L403.775 162.469H405.797L407.396 165.41ZM415.025 165.41L416.625 162.469H418.646L416.162 166.699L418.711 171H416.666L415.025 168.012L413.385 171H411.34L413.889 166.699L411.404 162.469H413.426L415.025 165.41ZM425.643 165.41L427.242 162.469H429.264L426.779 166.699L429.328 171H427.283L425.643 168.012L424.002 171H421.957L424.506 166.699L422.021 162.469H424.043L425.643 165.41ZM433.271 165.41L434.871 162.469H436.893L434.408 166.699L436.957 171H434.912L433.271 168.012L431.631 171H429.586L432.135 166.699L429.65 162.469H431.672L433.271 165.41ZM440.9 165.41L442.5 162.469H444.521L442.037 166.699L444.586 171H442.541L440.9 168.012L439.26 171H437.215L439.764 166.699L437.279 162.469H439.301L440.9 165.41ZM448.529 165.41L450.129 162.469H452.15L449.666 166.699L452.215 171H450.17L448.529 168.012L446.889 171H444.844L447.393 166.699L444.908 162.469H446.93L448.529 165.41ZM456.158 165.41L457.758 162.469H459.779L457.295 166.699L459.844 171H457.799L456.158 168.012L454.518 171H452.473L455.021 166.699L452.537 162.469H454.559L456.158 165.41ZM463.787 165.41L465.387 162.469H467.408L464.924 166.699L467.473 171H465.428L463.787 168.012L462.146 171H460.102L462.65 166.699L460.166 162.469H462.188L463.787 165.41Z" fill="#30485F"/>
</g>
<path d="M373.139 87V79.8906H375.146C375.764 79.8906 376.311 80.0273 376.786 80.3008C377.261 80.5742 377.628 80.9632 377.885 81.4678C378.145 81.9723 378.277 82.5518 378.28 83.2061V83.6602C378.28 84.3307 378.15 84.9183 377.89 85.4229C377.632 85.9274 377.263 86.3148 376.781 86.585C376.303 86.8551 375.744 86.9935 375.106 87H373.139ZM374.076 80.6621V86.2334H375.062C375.785 86.2334 376.347 86.0088 376.747 85.5596C377.151 85.1104 377.353 84.4707 377.353 83.6406V83.2256C377.353 82.4183 377.162 81.7917 376.781 81.3457C376.404 80.8965 375.867 80.6686 375.17 80.6621H374.076ZM381.752 87.0977C381.036 87.0977 380.453 86.8633 380.004 86.3945C379.555 85.9225 379.33 85.2926 379.33 84.5049V84.3389C379.33 83.8148 379.429 83.3477 379.628 82.9375C379.83 82.5241 380.11 82.2018 380.468 81.9707C380.829 81.7363 381.22 81.6191 381.64 81.6191C382.326 81.6191 382.86 81.8454 383.241 82.2979C383.622 82.7503 383.812 83.3981 383.812 84.2412V84.6172H380.233C380.246 85.138 380.398 85.5596 380.688 85.8818C380.98 86.2008 381.352 86.3604 381.801 86.3604C382.12 86.3604 382.39 86.2952 382.611 86.165C382.833 86.0348 383.026 85.8623 383.192 85.6475L383.744 86.0771C383.301 86.7575 382.637 87.0977 381.752 87.0977ZM381.64 82.3613C381.275 82.3613 380.969 82.4948 380.722 82.7617C380.474 83.0254 380.321 83.3965 380.263 83.875H382.909V83.8066C382.883 83.3477 382.759 82.9928 382.538 82.7422C382.317 82.4883 382.017 82.3613 381.64 82.3613ZM385.795 81.7168V87.6104C385.795 88.626 385.334 89.1338 384.413 89.1338C384.215 89.1338 384.031 89.1045 383.861 89.0459V88.3232C383.965 88.3493 384.102 88.3623 384.271 88.3623C384.473 88.3623 384.626 88.307 384.73 88.1963C384.838 88.0889 384.892 87.9001 384.892 87.6299V81.7168H385.795ZM384.799 80.3154C384.799 80.1722 384.843 80.0501 384.931 79.9492C385.022 79.8451 385.154 79.793 385.326 79.793C385.502 79.793 385.635 79.8434 385.727 79.9443C385.818 80.0452 385.863 80.1689 385.863 80.3154C385.863 80.4619 385.818 80.584 385.727 80.6816C385.635 80.7793 385.502 80.8281 385.326 80.8281C385.15 80.8281 385.019 80.7793 384.931 80.6816C384.843 80.584 384.799 80.4619 384.799 80.3154ZM390.517 87C390.465 86.8958 390.422 86.7103 390.39 86.4434C389.97 86.8796 389.468 87.0977 388.886 87.0977C388.365 87.0977 387.937 86.9512 387.602 86.6582C387.27 86.362 387.104 85.9876 387.104 85.5352C387.104 84.985 387.312 84.5586 387.729 84.2559C388.148 83.9499 388.738 83.7969 389.496 83.7969H390.375V83.3818C390.375 83.0661 390.281 82.8154 390.092 82.6299C389.903 82.4411 389.625 82.3467 389.257 82.3467C388.935 82.3467 388.664 82.4281 388.446 82.5908C388.228 82.7536 388.119 82.9505 388.119 83.1816H387.211C387.211 82.918 387.304 82.6641 387.489 82.4199C387.678 82.1725 387.932 81.9772 388.251 81.834C388.573 81.6908 388.926 81.6191 389.311 81.6191C389.919 81.6191 390.396 81.7721 390.741 82.0781C391.086 82.3809 391.265 82.7992 391.278 83.333V85.7646C391.278 86.2497 391.34 86.6354 391.464 86.9219V87H390.517ZM389.018 86.3115C389.301 86.3115 389.569 86.2383 389.823 86.0918C390.077 85.9453 390.261 85.7549 390.375 85.5205V84.4365H389.667C388.56 84.4365 388.007 84.7604 388.007 85.4082C388.007 85.6914 388.101 85.9128 388.29 86.0723C388.479 86.2318 388.721 86.3115 389.018 86.3115ZM393.549 81.7168L393.578 82.3809C393.982 81.873 394.509 81.6191 395.16 81.6191C396.277 81.6191 396.84 82.249 396.85 83.5088V87H395.946V83.5039C395.943 83.123 395.855 82.8415 395.683 82.6592C395.513 82.4769 395.248 82.3857 394.887 82.3857C394.594 82.3857 394.337 82.4639 394.115 82.6201C393.894 82.7764 393.721 82.9814 393.598 83.2354V87H392.694V81.7168H393.549ZM397.973 84.3096C397.973 83.792 398.074 83.3265 398.275 82.9131C398.48 82.4997 398.764 82.1807 399.125 81.9561C399.49 81.7314 399.905 81.6191 400.37 81.6191C401.09 81.6191 401.671 81.8682 402.113 82.3662C402.559 82.8643 402.782 83.5267 402.782 84.3535V84.417C402.782 84.9313 402.683 85.3936 402.484 85.8037C402.289 86.2106 402.007 86.528 401.64 86.7559C401.275 86.9837 400.855 87.0977 400.38 87.0977C399.664 87.0977 399.083 86.8486 398.637 86.3506C398.194 85.8525 397.973 85.1934 397.973 84.373V84.3096ZM398.881 84.417C398.881 85.0029 399.016 85.4733 399.286 85.8281C399.56 86.1829 399.924 86.3604 400.38 86.3604C400.839 86.3604 401.203 86.1813 401.474 85.8232C401.744 85.4619 401.879 84.9574 401.879 84.3096C401.879 83.7301 401.741 83.2614 401.464 82.9033C401.19 82.542 400.826 82.3613 400.37 82.3613C399.924 82.3613 399.564 82.5387 399.291 82.8936C399.018 83.2484 398.881 83.7562 398.881 84.417ZM406.991 85.5986C406.991 85.3545 406.898 85.1657 406.713 85.0322C406.531 84.8955 406.21 84.7783 405.751 84.6807C405.295 84.583 404.932 84.4658 404.662 84.3291C404.395 84.1924 404.197 84.0296 404.066 83.8408C403.939 83.652 403.876 83.4274 403.876 83.167C403.876 82.734 404.058 82.3678 404.423 82.0684C404.791 81.7689 405.259 81.6191 405.829 81.6191C406.428 81.6191 406.913 81.7738 407.284 82.083C407.659 82.3923 407.846 82.7878 407.846 83.2695H406.938C406.938 83.0221 406.832 82.8089 406.62 82.6299C406.412 82.4508 406.148 82.3613 405.829 82.3613C405.5 82.3613 405.243 82.4329 405.058 82.5762C404.872 82.7194 404.779 82.9066 404.779 83.1377C404.779 83.3558 404.866 83.5202 405.038 83.6309C405.211 83.7415 405.521 83.8473 405.971 83.9482C406.423 84.0492 406.789 84.1696 407.069 84.3096C407.349 84.4495 407.556 84.6188 407.689 84.8174C407.826 85.0127 407.895 85.252 407.895 85.5352C407.895 86.0072 407.706 86.3864 407.328 86.6729C406.951 86.9561 406.461 87.0977 405.858 87.0977C405.435 87.0977 405.061 87.0228 404.735 86.873C404.41 86.7233 404.154 86.515 403.969 86.248C403.786 85.9779 403.695 85.6865 403.695 85.374H404.599C404.615 85.6768 404.735 85.9176 404.96 86.0967C405.188 86.2725 405.487 86.3604 405.858 86.3604C406.2 86.3604 406.474 86.292 406.679 86.1553C406.887 86.0153 406.991 85.8298 406.991 85.5986ZM412.777 80.4375V81.7168H413.764V82.415H412.777V85.6914C412.777 85.903 412.821 86.0625 412.909 86.1699C412.997 86.2741 413.147 86.3262 413.358 86.3262C413.463 86.3262 413.606 86.3066 413.788 86.2676V87C413.55 87.0651 413.319 87.0977 413.095 87.0977C412.691 87.0977 412.387 86.9756 412.182 86.7314C411.977 86.4873 411.874 86.1406 411.874 85.6914V82.415H410.912V81.7168H411.874V80.4375H412.777ZM418.085 86.4775C417.733 86.891 417.217 87.0977 416.537 87.0977C415.974 87.0977 415.544 86.9349 415.248 86.6094C414.955 86.2806 414.807 85.7956 414.804 85.1543V81.7168H415.707V85.1299C415.707 85.9307 416.033 86.3311 416.684 86.3311C417.374 86.3311 417.833 86.0739 418.061 85.5596V81.7168H418.964V87H418.104L418.085 86.4775ZM424.94 86.3604C425.263 86.3604 425.544 86.2627 425.785 86.0674C426.026 85.8721 426.16 85.6279 426.186 85.335H427.04C427.024 85.6377 426.92 85.9258 426.728 86.1992C426.535 86.4727 426.278 86.6908 425.956 86.8535C425.637 87.0163 425.299 87.0977 424.94 87.0977C424.221 87.0977 423.648 86.8584 423.222 86.3799C422.799 85.8981 422.587 85.2406 422.587 84.4072V84.2559C422.587 83.7415 422.681 83.2842 422.87 82.8838C423.059 82.4834 423.329 82.1725 423.681 81.9512C424.035 81.7298 424.454 81.6191 424.936 81.6191C425.528 81.6191 426.02 81.7965 426.41 82.1514C426.804 82.5062 427.014 82.9668 427.04 83.5332H426.186C426.16 83.1914 426.029 82.9115 425.795 82.6934C425.564 82.472 425.277 82.3613 424.936 82.3613C424.477 82.3613 424.12 82.5273 423.866 82.8594C423.616 83.1882 423.49 83.665 423.49 84.29V84.4609C423.49 85.0697 423.616 85.5384 423.866 85.8672C424.117 86.196 424.475 86.3604 424.94 86.3604ZM427.816 84.3096C427.816 83.792 427.917 83.3265 428.119 82.9131C428.324 82.4997 428.607 82.1807 428.969 81.9561C429.333 81.7314 429.748 81.6191 430.214 81.6191C430.933 81.6191 431.514 81.8682 431.957 82.3662C432.403 82.8643 432.626 83.5267 432.626 84.3535V84.417C432.626 84.9313 432.527 85.3936 432.328 85.8037C432.133 86.2106 431.851 86.528 431.483 86.7559C431.119 86.9837 430.699 87.0977 430.224 87.0977C429.507 87.0977 428.926 86.8486 428.48 86.3506C428.038 85.8525 427.816 85.1934 427.816 84.373V84.3096ZM428.725 84.417C428.725 85.0029 428.86 85.4733 429.13 85.8281C429.403 86.1829 429.768 86.3604 430.224 86.3604C430.683 86.3604 431.047 86.1813 431.317 85.8232C431.588 85.4619 431.723 84.9574 431.723 84.3096C431.723 83.7301 431.584 83.2614 431.308 82.9033C431.034 82.542 430.67 82.3613 430.214 82.3613C429.768 82.3613 429.408 82.5387 429.135 82.8936C428.861 83.2484 428.725 83.7562 428.725 84.417ZM434.613 81.7168L434.643 82.3809C435.046 81.873 435.574 81.6191 436.225 81.6191C437.341 81.6191 437.904 82.249 437.914 83.5088V87H437.011V83.5039C437.007 83.123 436.92 82.8415 436.747 82.6592C436.578 82.4769 436.312 82.3857 435.951 82.3857C435.658 82.3857 435.401 82.4639 435.18 82.6201C434.958 82.7764 434.786 82.9814 434.662 83.2354V87H433.759V81.7168H434.613ZM440.502 80.4375V81.7168H441.488V82.415H440.502V85.6914C440.502 85.903 440.546 86.0625 440.634 86.1699C440.722 86.2741 440.871 86.3262 441.083 86.3262C441.187 86.3262 441.33 86.3066 441.513 86.2676V87C441.275 87.0651 441.044 87.0977 440.819 87.0977C440.416 87.0977 440.111 86.9756 439.906 86.7314C439.701 86.4873 439.599 86.1406 439.599 85.6914V82.415H438.637V81.7168H439.599V80.4375H440.502ZM445.81 87C445.757 86.8958 445.715 86.7103 445.683 86.4434C445.263 86.8796 444.761 87.0977 444.179 87.0977C443.658 87.0977 443.23 86.9512 442.895 86.6582C442.562 86.362 442.396 85.9876 442.396 85.5352C442.396 84.985 442.605 84.5586 443.021 84.2559C443.441 83.9499 444.031 83.7969 444.789 83.7969H445.668V83.3818C445.668 83.0661 445.574 82.8154 445.385 82.6299C445.196 82.4411 444.918 82.3467 444.55 82.3467C444.228 82.3467 443.957 82.4281 443.739 82.5908C443.521 82.7536 443.412 82.9505 443.412 83.1816H442.504C442.504 82.918 442.597 82.6641 442.782 82.4199C442.971 82.1725 443.225 81.9772 443.544 81.834C443.866 81.6908 444.219 81.6191 444.604 81.6191C445.212 81.6191 445.689 81.7721 446.034 82.0781C446.379 82.3809 446.558 82.7992 446.571 83.333V85.7646C446.571 86.2497 446.633 86.6354 446.757 86.9219V87H445.81ZM444.311 86.3115C444.594 86.3115 444.862 86.2383 445.116 86.0918C445.37 85.9453 445.554 85.7549 445.668 85.5205V84.4365H444.96C443.853 84.4365 443.3 84.7604 443.3 85.4082C443.3 85.6914 443.394 85.9128 443.583 86.0723C443.772 86.2318 444.014 86.3115 444.311 86.3115ZM450.106 86.3604C450.429 86.3604 450.71 86.2627 450.951 86.0674C451.192 85.8721 451.326 85.6279 451.352 85.335H452.206C452.19 85.6377 452.086 85.9258 451.894 86.1992C451.701 86.4727 451.444 86.6908 451.122 86.8535C450.803 87.0163 450.465 87.0977 450.106 87.0977C449.387 87.0977 448.814 86.8584 448.388 86.3799C447.965 85.8981 447.753 85.2406 447.753 84.4072V84.2559C447.753 83.7415 447.847 83.2842 448.036 82.8838C448.225 82.4834 448.495 82.1725 448.847 81.9512C449.201 81.7298 449.62 81.6191 450.102 81.6191C450.694 81.6191 451.186 81.7965 451.576 82.1514C451.97 82.5062 452.18 82.9668 452.206 83.5332H451.352C451.326 83.1914 451.195 82.9115 450.961 82.6934C450.73 82.472 450.443 82.3613 450.102 82.3613C449.643 82.3613 449.286 82.5273 449.032 82.8594C448.782 83.1882 448.656 83.665 448.656 84.29V84.4609C448.656 85.0697 448.782 85.5384 449.032 85.8672C449.283 86.196 449.641 86.3604 450.106 86.3604ZM454.447 80.4375V81.7168H455.434V82.415H454.447V85.6914C454.447 85.903 454.491 86.0625 454.579 86.1699C454.667 86.2741 454.817 86.3262 455.028 86.3262C455.132 86.3262 455.276 86.3066 455.458 86.2676V87C455.22 87.0651 454.989 87.0977 454.765 87.0977C454.361 87.0977 454.057 86.9756 453.852 86.7314C453.646 86.4873 453.544 86.1406 453.544 85.6914V82.415H452.582V81.7168H453.544V80.4375H454.447ZM456.156 84.3096C456.156 83.792 456.257 83.3265 456.459 82.9131C456.664 82.4997 456.947 82.1807 457.309 81.9561C457.673 81.7314 458.088 81.6191 458.554 81.6191C459.273 81.6191 459.854 81.8682 460.297 82.3662C460.743 82.8643 460.966 83.5267 460.966 84.3535V84.417C460.966 84.9313 460.867 85.3936 460.668 85.8037C460.473 86.2106 460.191 86.528 459.823 86.7559C459.459 86.9837 459.039 87.0977 458.563 87.0977C457.847 87.0977 457.266 86.8486 456.82 86.3506C456.378 85.8525 456.156 85.1934 456.156 84.373V84.3096ZM457.064 84.417C457.064 85.0029 457.2 85.4733 457.47 85.8281C457.743 86.1829 458.108 86.3604 458.563 86.3604C459.022 86.3604 459.387 86.1813 459.657 85.8232C459.927 85.4619 460.062 84.9574 460.062 84.3096C460.062 83.7301 459.924 83.2614 459.647 82.9033C459.374 82.542 459.009 82.3613 458.554 82.3613C458.108 82.3613 457.748 82.5387 457.475 82.8936C457.201 83.2484 457.064 83.7562 457.064 84.417ZM466.308 85.6768L467.538 81.7168H468.505L466.381 87.8154C466.052 88.6943 465.53 89.1338 464.813 89.1338L464.643 89.1191L464.306 89.0557V88.3232L464.55 88.3428C464.856 88.3428 465.093 88.2809 465.263 88.1572C465.435 88.0335 465.577 87.8073 465.688 87.4785L465.888 86.9414L464.003 81.7168H464.989L466.308 85.6768ZM473.021 80.4375V81.7168H474.008V82.415H473.021V85.6914C473.021 85.903 473.065 86.0625 473.153 86.1699C473.241 86.2741 473.391 86.3262 473.603 86.3262C473.707 86.3262 473.85 86.3066 474.032 86.2676V87C473.795 87.0651 473.563 87.0977 473.339 87.0977C472.935 87.0977 472.631 86.9756 472.426 86.7314C472.221 86.4873 472.118 86.1406 472.118 85.6914V82.415H471.156V81.7168H472.118V80.4375H473.021ZM477.26 87.0977C476.544 87.0977 475.961 86.8633 475.512 86.3945C475.062 85.9225 474.838 85.2926 474.838 84.5049V84.3389C474.838 83.8148 474.937 83.3477 475.136 82.9375C475.338 82.5241 475.618 82.2018 475.976 81.9707C476.337 81.7363 476.728 81.6191 477.147 81.6191C477.834 81.6191 478.368 81.8454 478.749 82.2979C479.13 82.7503 479.32 83.3981 479.32 84.2412V84.6172H475.741C475.754 85.138 475.906 85.5596 476.195 85.8818C476.488 86.2008 476.859 86.3604 477.309 86.3604C477.628 86.3604 477.898 86.2952 478.119 86.165C478.34 86.0348 478.534 85.8623 478.7 85.6475L479.252 86.0771C478.809 86.7575 478.145 87.0977 477.26 87.0977ZM477.147 82.3613C476.783 82.3613 476.477 82.4948 476.229 82.7617C475.982 83.0254 475.829 83.3965 475.771 83.875H478.417V83.8066C478.391 83.3477 478.267 82.9928 478.046 82.7422C477.825 82.4883 477.525 82.3613 477.147 82.3613ZM362.191 96.5273C362.055 96.5046 361.907 96.4932 361.747 96.4932C361.155 96.4932 360.753 96.7454 360.541 97.25V101H359.638V95.7168H360.517L360.531 96.3271C360.827 95.8551 361.247 95.6191 361.791 95.6191C361.967 95.6191 362.1 95.6419 362.191 95.6875V96.5273ZM365.121 101.098C364.405 101.098 363.822 100.863 363.373 100.395C362.924 99.9225 362.699 99.2926 362.699 98.5049V98.3389C362.699 97.8148 362.799 97.3477 362.997 96.9375C363.199 96.5241 363.479 96.2018 363.837 95.9707C364.198 95.7363 364.589 95.6191 365.009 95.6191C365.696 95.6191 366.229 95.8454 366.61 96.2979C366.991 96.7503 367.182 97.3981 367.182 98.2412V98.6172H363.603C363.616 99.138 363.767 99.5596 364.057 99.8818C364.35 100.201 364.721 100.36 365.17 100.36C365.489 100.36 365.759 100.295 365.98 100.165C366.202 100.035 366.396 99.8623 366.562 99.6475L367.113 100.077C366.671 100.757 366.007 101.098 365.121 101.098ZM365.009 96.3613C364.644 96.3613 364.338 96.4948 364.091 96.7617C363.843 97.0254 363.69 97.3965 363.632 97.875H366.278V97.8066C366.252 97.3477 366.129 96.9928 365.907 96.7422C365.686 96.4883 365.386 96.3613 365.009 96.3613ZM371.308 99.5986C371.308 99.3545 371.215 99.1657 371.029 99.0322C370.847 98.8955 370.526 98.7783 370.067 98.6807C369.612 98.583 369.249 98.4658 368.979 98.3291C368.712 98.1924 368.513 98.0296 368.383 97.8408C368.256 97.652 368.192 97.4274 368.192 97.167C368.192 96.734 368.375 96.3678 368.739 96.0684C369.107 95.7689 369.576 95.6191 370.146 95.6191C370.744 95.6191 371.229 95.7738 371.601 96.083C371.975 96.3923 372.162 96.7878 372.162 97.2695H371.254C371.254 97.0221 371.148 96.8089 370.937 96.6299C370.728 96.4508 370.465 96.3613 370.146 96.3613C369.817 96.3613 369.56 96.4329 369.374 96.5762C369.188 96.7194 369.096 96.9066 369.096 97.1377C369.096 97.3558 369.182 97.5202 369.354 97.6309C369.527 97.7415 369.838 97.8473 370.287 97.9482C370.74 98.0492 371.106 98.1696 371.386 98.3096C371.666 98.4495 371.872 98.6188 372.006 98.8174C372.143 99.0127 372.211 99.252 372.211 99.5352C372.211 100.007 372.022 100.386 371.645 100.673C371.267 100.956 370.777 101.098 370.175 101.098C369.752 101.098 369.377 101.023 369.052 100.873C368.726 100.723 368.471 100.515 368.285 100.248C368.103 99.9779 368.012 99.6865 368.012 99.374H368.915C368.931 99.6768 369.052 99.9176 369.276 100.097C369.504 100.272 369.804 100.36 370.175 100.36C370.517 100.36 370.79 100.292 370.995 100.155C371.203 100.015 371.308 99.8298 371.308 99.5986ZM377.851 98.417C377.851 99.221 377.667 99.8688 377.299 100.36C376.931 100.852 376.433 101.098 375.805 101.098C375.163 101.098 374.659 100.894 374.291 100.487V103.031H373.388V95.7168H374.213L374.257 96.3027C374.625 95.847 375.136 95.6191 375.79 95.6191C376.425 95.6191 376.926 95.8584 377.294 96.3369C377.665 96.8154 377.851 97.4811 377.851 98.334V98.417ZM376.947 98.3145C376.947 97.7188 376.82 97.2484 376.566 96.9033C376.312 96.5583 375.964 96.3857 375.521 96.3857C374.975 96.3857 374.564 96.6283 374.291 97.1133V99.6377C374.561 100.119 374.975 100.36 375.531 100.36C375.964 100.36 376.308 100.189 376.562 99.8477C376.819 99.5026 376.947 98.9915 376.947 98.3145ZM378.764 98.3096C378.764 97.792 378.865 97.3265 379.066 96.9131C379.271 96.4997 379.555 96.1807 379.916 95.9561C380.281 95.7314 380.696 95.6191 381.161 95.6191C381.881 95.6191 382.462 95.8682 382.904 96.3662C383.35 96.8643 383.573 97.5267 383.573 98.3535V98.417C383.573 98.9313 383.474 99.3936 383.275 99.8037C383.08 100.211 382.799 100.528 382.431 100.756C382.066 100.984 381.646 101.098 381.171 101.098C380.455 101.098 379.874 100.849 379.428 100.351C378.985 99.8525 378.764 99.1934 378.764 98.373V98.3096ZM379.672 98.417C379.672 99.0029 379.807 99.4733 380.077 99.8281C380.351 100.183 380.715 100.36 381.171 100.36C381.63 100.36 381.994 100.181 382.265 99.8232C382.535 99.4619 382.67 98.9574 382.67 98.3096C382.67 97.7301 382.532 97.2614 382.255 96.9033C381.981 96.542 381.617 96.3613 381.161 96.3613C380.715 96.3613 380.355 96.5387 380.082 96.8936C379.809 97.2484 379.672 97.7562 379.672 98.417ZM385.561 95.7168L385.59 96.3809C385.993 95.873 386.521 95.6191 387.172 95.6191C388.288 95.6191 388.852 96.249 388.861 97.5088V101H387.958V97.5039C387.955 97.123 387.867 96.8415 387.694 96.6592C387.525 96.4769 387.26 96.3857 386.898 96.3857C386.605 96.3857 386.348 96.4639 386.127 96.6201C385.906 96.7764 385.733 96.9814 385.609 97.2354V101H384.706V95.7168H385.561ZM390.004 98.3145C390.004 97.5039 390.196 96.8529 390.58 96.3613C390.964 95.8665 391.467 95.6191 392.089 95.6191C392.707 95.6191 393.197 95.8307 393.559 96.2539V93.5H394.462V101H393.632L393.588 100.434C393.227 100.876 392.724 101.098 392.079 101.098C391.467 101.098 390.967 100.847 390.58 100.346C390.196 99.8444 390.004 99.1901 390.004 98.3828V98.3145ZM390.907 98.417C390.907 99.016 391.031 99.4847 391.278 99.8232C391.526 100.162 391.868 100.331 392.304 100.331C392.877 100.331 393.295 100.074 393.559 99.5596V97.1328C393.288 96.6348 392.873 96.3857 392.313 96.3857C391.871 96.3857 391.526 96.5566 391.278 96.8984C391.031 97.2402 390.907 97.7464 390.907 98.417ZM398.061 101.098C397.344 101.098 396.762 100.863 396.312 100.395C395.863 99.9225 395.639 99.2926 395.639 98.5049V98.3389C395.639 97.8148 395.738 97.3477 395.937 96.9375C396.138 96.5241 396.418 96.2018 396.776 95.9707C397.138 95.7363 397.528 95.6191 397.948 95.6191C398.635 95.6191 399.169 95.8454 399.55 96.2979C399.931 96.7503 400.121 97.3981 400.121 98.2412V98.6172H396.542C396.555 99.138 396.706 99.5596 396.996 99.8818C397.289 100.201 397.66 100.36 398.109 100.36C398.428 100.36 398.699 100.295 398.92 100.165C399.141 100.035 399.335 99.8623 399.501 99.6475L400.053 100.077C399.61 100.757 398.946 101.098 398.061 101.098ZM397.948 96.3613C397.584 96.3613 397.278 96.4948 397.03 96.7617C396.783 97.0254 396.63 97.3965 396.571 97.875H399.218V97.8066C399.192 97.3477 399.068 96.9928 398.847 96.7422C398.625 96.4883 398.326 96.3613 397.948 96.3613ZM403.725 96.5273C403.588 96.5046 403.44 96.4932 403.28 96.4932C402.688 96.4932 402.286 96.7454 402.074 97.25V101H401.171V95.7168H402.05L402.064 96.3271C402.361 95.8551 402.781 95.6191 403.324 95.6191C403.5 95.6191 403.633 95.6419 403.725 95.6875V96.5273ZM406.654 101.098C405.938 101.098 405.355 100.863 404.906 100.395C404.457 99.9225 404.232 99.2926 404.232 98.5049V98.3389C404.232 97.8148 404.332 97.3477 404.53 96.9375C404.732 96.5241 405.012 96.2018 405.37 95.9707C405.731 95.7363 406.122 95.6191 406.542 95.6191C407.229 95.6191 407.763 95.8454 408.144 96.2979C408.524 96.7503 408.715 97.3981 408.715 98.2412V98.6172H405.136C405.149 99.138 405.3 99.5596 405.59 99.8818C405.883 100.201 406.254 100.36 406.703 100.36C407.022 100.36 407.292 100.295 407.514 100.165C407.735 100.035 407.929 99.8623 408.095 99.6475L408.646 100.077C408.204 100.757 407.54 101.098 406.654 101.098ZM406.542 96.3613C406.177 96.3613 405.871 96.4948 405.624 96.7617C405.377 97.0254 405.224 97.3965 405.165 97.875H407.812V97.8066C407.785 97.3477 407.662 96.9928 407.44 96.7422C407.219 96.4883 406.92 96.3613 406.542 96.3613ZM410.614 95.7168L410.639 96.3027C411.026 95.847 411.549 95.6191 412.206 95.6191C412.945 95.6191 413.448 95.9023 413.715 96.4688C413.891 96.2148 414.118 96.0098 414.398 95.8535C414.682 95.6973 415.015 95.6191 415.399 95.6191C416.558 95.6191 417.147 96.2327 417.167 97.46V101H416.264V97.5137C416.264 97.1361 416.177 96.8545 416.005 96.6689C415.832 96.4801 415.543 96.3857 415.136 96.3857C414.8 96.3857 414.522 96.4867 414.301 96.6885C414.079 96.887 413.951 97.1556 413.915 97.4941V101H413.007V97.5381C413.007 96.7699 412.631 96.3857 411.879 96.3857C411.286 96.3857 410.881 96.638 410.663 97.1426V101H409.76V95.7168H410.614ZM418.295 98.3096C418.295 97.792 418.396 97.3265 418.598 96.9131C418.803 96.4997 419.086 96.1807 419.447 95.9561C419.812 95.7314 420.227 95.6191 420.692 95.6191C421.412 95.6191 421.993 95.8682 422.436 96.3662C422.882 96.8643 423.104 97.5267 423.104 98.3535V98.417C423.104 98.9313 423.005 99.3936 422.807 99.8037C422.611 100.211 422.33 100.528 421.962 100.756C421.597 100.984 421.177 101.098 420.702 101.098C419.986 101.098 419.405 100.849 418.959 100.351C418.516 99.8525 418.295 99.1934 418.295 98.373V98.3096ZM419.203 98.417C419.203 99.0029 419.338 99.4733 419.608 99.8281C419.882 100.183 420.246 100.36 420.702 100.36C421.161 100.36 421.526 100.181 421.796 99.8232C422.066 99.4619 422.201 98.9574 422.201 98.3096C422.201 97.7301 422.063 97.2614 421.786 96.9033C421.513 96.542 421.148 96.3613 420.692 96.3613C420.246 96.3613 419.887 96.5387 419.613 96.8936C419.34 97.2484 419.203 97.7562 419.203 98.417ZM427.313 99.5986C427.313 99.3545 427.221 99.1657 427.035 99.0322C426.853 98.8955 426.532 98.7783 426.073 98.6807C425.618 98.583 425.255 98.4658 424.984 98.3291C424.717 98.1924 424.519 98.0296 424.389 97.8408C424.262 97.652 424.198 97.4274 424.198 97.167C424.198 96.734 424.381 96.3678 424.745 96.0684C425.113 95.7689 425.582 95.6191 426.151 95.6191C426.75 95.6191 427.235 95.7738 427.606 96.083C427.981 96.3923 428.168 96.7878 428.168 97.2695H427.26C427.26 97.0221 427.154 96.8089 426.942 96.6299C426.734 96.4508 426.47 96.3613 426.151 96.3613C425.823 96.3613 425.565 96.4329 425.38 96.5762C425.194 96.7194 425.102 96.9066 425.102 97.1377C425.102 97.3558 425.188 97.5202 425.36 97.6309C425.533 97.7415 425.844 97.8473 426.293 97.9482C426.745 98.0492 427.112 98.1696 427.392 98.3096C427.672 98.4495 427.878 98.6188 428.012 98.8174C428.148 99.0127 428.217 99.252 428.217 99.5352C428.217 100.007 428.028 100.386 427.65 100.673C427.273 100.956 426.783 101.098 426.181 101.098C425.757 101.098 425.383 101.023 425.058 100.873C424.732 100.723 424.477 100.515 424.291 100.248C424.109 99.9779 424.018 99.6865 424.018 99.374H424.921C424.937 99.6768 425.058 99.9176 425.282 100.097C425.51 100.272 425.81 100.36 426.181 100.36C426.522 100.36 426.796 100.292 427.001 100.155C427.209 100.015 427.313 99.8298 427.313 99.5986ZM435.136 101C435.084 100.896 435.041 100.71 435.009 100.443C434.589 100.88 434.088 101.098 433.505 101.098C432.984 101.098 432.556 100.951 432.221 100.658C431.889 100.362 431.723 99.9876 431.723 99.5352C431.723 98.985 431.931 98.5586 432.348 98.2559C432.768 97.9499 433.357 97.7969 434.115 97.7969H434.994V97.3818C434.994 97.0661 434.9 96.8154 434.711 96.6299C434.522 96.4411 434.244 96.3467 433.876 96.3467C433.554 96.3467 433.284 96.4281 433.065 96.5908C432.847 96.7536 432.738 96.9505 432.738 97.1816H431.83C431.83 96.918 431.923 96.6641 432.108 96.4199C432.297 96.1725 432.551 95.9772 432.87 95.834C433.192 95.6908 433.546 95.6191 433.93 95.6191C434.538 95.6191 435.015 95.7721 435.36 96.0781C435.705 96.3809 435.884 96.7992 435.897 97.333V99.7646C435.897 100.25 435.959 100.635 436.083 100.922V101H435.136ZM433.637 100.312C433.92 100.312 434.188 100.238 434.442 100.092C434.696 99.9453 434.88 99.7549 434.994 99.5205V98.4365H434.286C433.179 98.4365 432.626 98.7604 432.626 99.4082C432.626 99.6914 432.72 99.9128 432.909 100.072C433.098 100.232 433.34 100.312 433.637 100.312ZM440.775 101H439.872V93.5H440.775V101ZM445.487 101C445.435 100.896 445.393 100.71 445.36 100.443C444.94 100.88 444.439 101.098 443.856 101.098C443.336 101.098 442.908 100.951 442.572 100.658C442.24 100.362 442.074 99.9876 442.074 99.5352C442.074 98.985 442.283 98.5586 442.699 98.2559C443.119 97.9499 443.708 97.7969 444.467 97.7969H445.346V97.3818C445.346 97.0661 445.251 96.8154 445.062 96.6299C444.874 96.4411 444.595 96.3467 444.228 96.3467C443.905 96.3467 443.635 96.4281 443.417 96.5908C443.199 96.7536 443.09 96.9505 443.09 97.1816H442.182C442.182 96.918 442.274 96.6641 442.46 96.4199C442.649 96.1725 442.903 95.9772 443.222 95.834C443.544 95.6908 443.897 95.6191 444.281 95.6191C444.89 95.6191 445.367 95.7721 445.712 96.0781C446.057 96.3809 446.236 96.7992 446.249 97.333V99.7646C446.249 100.25 446.311 100.635 446.435 100.922V101H445.487ZM443.988 100.312C444.271 100.312 444.54 100.238 444.794 100.092C445.048 99.9453 445.232 99.7549 445.346 99.5205V98.4365H444.638C443.531 98.4365 442.978 98.7604 442.978 99.4082C442.978 99.6914 443.072 99.9128 443.261 100.072C443.45 100.232 443.692 100.312 443.988 100.312ZM454.618 98.417C454.618 99.2243 454.433 99.8737 454.062 100.365C453.69 100.854 453.192 101.098 452.567 101.098C451.9 101.098 451.384 100.862 451.02 100.39L450.976 101H450.146V93.5H451.049V96.2979C451.413 95.8454 451.916 95.6191 452.558 95.6191C453.199 95.6191 453.702 95.8617 454.066 96.3467C454.434 96.8317 454.618 97.4958 454.618 98.3389V98.417ZM453.715 98.3145C453.715 97.6992 453.596 97.224 453.358 96.8887C453.121 96.5534 452.779 96.3857 452.333 96.3857C451.737 96.3857 451.309 96.6624 451.049 97.2158V99.501C451.326 100.054 451.757 100.331 452.343 100.331C452.776 100.331 453.113 100.163 453.354 99.8281C453.594 99.4928 453.715 98.9883 453.715 98.3145ZM458.314 96.5273C458.178 96.5046 458.03 96.4932 457.87 96.4932C457.278 96.4932 456.876 96.7454 456.664 97.25V101H455.761V95.7168H456.64L456.654 96.3271C456.951 95.8551 457.37 95.6191 457.914 95.6191C458.09 95.6191 458.223 95.6419 458.314 95.6875V96.5273ZM461.244 101.098C460.528 101.098 459.945 100.863 459.496 100.395C459.047 99.9225 458.822 99.2926 458.822 98.5049V98.3389C458.822 97.8148 458.922 97.3477 459.12 96.9375C459.322 96.5241 459.602 96.2018 459.96 95.9707C460.321 95.7363 460.712 95.6191 461.132 95.6191C461.819 95.6191 462.353 95.8454 462.733 96.2979C463.114 96.7503 463.305 97.3981 463.305 98.2412V98.6172H459.726C459.739 99.138 459.89 99.5596 460.18 99.8818C460.473 100.201 460.844 100.36 461.293 100.36C461.612 100.36 461.882 100.295 462.104 100.165C462.325 100.035 462.519 99.8623 462.685 99.6475L463.236 100.077C462.794 100.757 462.13 101.098 461.244 101.098ZM461.132 96.3613C460.767 96.3613 460.461 96.4948 460.214 96.7617C459.966 97.0254 459.813 97.3965 459.755 97.875H462.401V97.8066C462.375 97.3477 462.252 96.9928 462.03 96.7422C461.809 96.4883 461.509 96.3613 461.132 96.3613ZM466.029 99.7744L467.338 95.7168H468.261L466.366 101H465.678L463.764 95.7168H464.687L466.029 99.7744ZM471.254 101.098C470.538 101.098 469.955 100.863 469.506 100.395C469.057 99.9225 468.832 99.2926 468.832 98.5049V98.3389C468.832 97.8148 468.931 97.3477 469.13 96.9375C469.332 96.5241 469.612 96.2018 469.97 95.9707C470.331 95.7363 470.722 95.6191 471.142 95.6191C471.828 95.6191 472.362 95.8454 472.743 96.2979C473.124 96.7503 473.314 97.3981 473.314 98.2412V98.6172H469.735C469.748 99.138 469.9 99.5596 470.189 99.8818C470.482 100.201 470.854 100.36 471.303 100.36C471.622 100.36 471.892 100.295 472.113 100.165C472.335 100.035 472.528 99.8623 472.694 99.6475L473.246 100.077C472.803 100.757 472.139 101.098 471.254 101.098ZM471.142 96.3613C470.777 96.3613 470.471 96.4948 470.224 96.7617C469.976 97.0254 469.823 97.3965 469.765 97.875H472.411V97.8066C472.385 97.3477 472.261 96.9928 472.04 96.7422C471.819 96.4883 471.519 96.3613 471.142 96.3613ZM474.145 98.3145C474.145 97.5039 474.337 96.8529 474.721 96.3613C475.105 95.8665 475.608 95.6191 476.229 95.6191C476.848 95.6191 477.338 95.8307 477.699 96.2539V93.5H478.603V101H477.772L477.729 100.434C477.367 100.876 476.864 101.098 476.22 101.098C475.608 101.098 475.108 100.847 474.721 100.346C474.337 99.8444 474.145 99.1901 474.145 98.3828V98.3145ZM475.048 98.417C475.048 99.016 475.172 99.4847 475.419 99.8232C475.666 100.162 476.008 100.331 476.444 100.331C477.017 100.331 477.436 100.074 477.699 99.5596V97.1328C477.429 96.6348 477.014 96.3857 476.454 96.3857C476.011 96.3857 475.666 96.5566 475.419 96.8984C475.172 97.2402 475.048 97.7464 475.048 98.417ZM483.271 101C483.218 100.896 483.176 100.71 483.144 100.443C482.724 100.88 482.222 101.098 481.64 101.098C481.119 101.098 480.691 100.951 480.355 100.658C480.023 100.362 479.857 99.9876 479.857 99.5352C479.857 98.985 480.066 98.5586 480.482 98.2559C480.902 97.9499 481.492 97.7969 482.25 97.7969H483.129V97.3818C483.129 97.0661 483.035 96.8154 482.846 96.6299C482.657 96.4411 482.379 96.3467 482.011 96.3467C481.688 96.3467 481.418 96.4281 481.2 96.5908C480.982 96.7536 480.873 96.9505 480.873 97.1816H479.965C479.965 96.918 480.058 96.6641 480.243 96.4199C480.432 96.1725 480.686 95.9772 481.005 95.834C481.327 95.6908 481.68 95.6191 482.064 95.6191C482.673 95.6191 483.15 95.7721 483.495 96.0781C483.84 96.3809 484.019 96.7992 484.032 97.333V99.7646C484.032 100.25 484.094 100.635 484.218 100.922V101H483.271ZM481.771 100.312C482.055 100.312 482.323 100.238 482.577 100.092C482.831 99.9453 483.015 99.7549 483.129 99.5205V98.4365H482.421C481.314 98.4365 480.761 98.7604 480.761 99.4082C480.761 99.6914 480.855 99.9128 481.044 100.072C481.233 100.232 481.475 100.312 481.771 100.312ZM485.229 98.3145C485.229 97.5039 485.421 96.8529 485.805 96.3613C486.189 95.8665 486.692 95.6191 487.313 95.6191C487.932 95.6191 488.422 95.8307 488.783 96.2539V93.5H489.687V101H488.856L488.812 100.434C488.451 100.876 487.948 101.098 487.304 101.098C486.692 101.098 486.192 100.847 485.805 100.346C485.421 99.8444 485.229 99.1901 485.229 98.3828V98.3145ZM486.132 98.417C486.132 99.016 486.256 99.4847 486.503 99.8232C486.75 100.162 487.092 100.331 487.528 100.331C488.101 100.331 488.52 100.074 488.783 99.5596V97.1328C488.513 96.6348 488.098 96.3857 487.538 96.3857C487.095 96.3857 486.75 96.5566 486.503 96.8984C486.256 97.2402 486.132 97.7464 486.132 98.417ZM491.112 100.526C491.112 100.37 491.158 100.24 491.249 100.136C491.343 100.032 491.483 99.9795 491.669 99.9795C491.854 99.9795 491.994 100.032 492.089 100.136C492.187 100.24 492.235 100.37 492.235 100.526C492.235 100.676 492.187 100.801 492.089 100.902C491.994 101.003 491.854 101.054 491.669 101.054C491.483 101.054 491.343 101.003 491.249 100.902C491.158 100.801 491.112 100.676 491.112 100.526Z" fill="#30485F"/>
</g>
<defs>
<filter id="filter0_d" x="0" y="72" width="516" height="312" filterUnits="userSpaceOnUse" color-interpolation-filters="sRGB">
<feFlood flood-opacity="0" result="BackgroundImageFix"/>
<feColorMatrix in="SourceAlpha" type="matrix" values="0 0 0 0 0 0 0 0 0 0 0 0 0 0 0 0 0 0 127 0"/>
<feOffset dy="4"/>
<feGaussianBlur stdDeviation="5"/>
<feColorMatrix type="matrix" values="0 0 0 0 0 0 0 0 0 0 0 0 0 0 0 0 0 0 0.25 0"/>
<feBlend mode="normal" in2="BackgroundImageFix" result="effect1_dropShadow"/>
<feBlend mode="normal" in="SourceGraphic" in2="effect1_dropShadow" result="shape"/>
</filter>
<filter id="filter1_d" x="262" y="0" width="320" height="342" filterUnits="userSpaceOnUse" color-interpolation-filters="sRGB">
<feFlood flood-opacity="0" result="BackgroundImageFix"/>
<feColorMatrix in="SourceAlpha" type="matrix" values="0 0 0 0 0 0 0 0 0 0 0 0 0 0 0 0 0 0 127 0"/>
<feOffset dy="4"/>
<feGaussianBlur stdDeviation="5"/>
<feColorMatrix type="matrix" values="0 0 0 0 0 0 0 0 0 0 0 0 0 0 0 0 0 0 0.25 0"/>
<feBlend mode="normal" in2="BackgroundImageFix" result="effect1_dropShadow"/>
<feBlend mode="normal" in="SourceGraphic" in2="effect1_dropShadow" result="shape"/>
</filter>
<filter id="filter2_d" x="350" y="222" width="132.889" height="36" filterUnits="userSpaceOnUse" color-interpolation-filters="sRGB">
<feFlood flood-opacity="0" result="BackgroundImageFix"/>
<feColorMatrix in="SourceAlpha" type="matrix" values="0 0 0 0 0 0 0 0 0 0 0 0 0 0 0 0 0 0 127 0"/>
<feOffset dy="2"/>
<feGaussianBlur stdDeviation="1"/>
<feColorMatrix type="matrix" values="0 0 0 0 0 0 0 0 0 0 0 0 0 0 0 0 0 0 0.15 0"/>
<feBlend mode="normal" in2="BackgroundImageFix" result="effect1_dropShadow"/>
<feBlend mode="normal" in="SourceGraphic" in2="effect1_dropShadow" result="shape"/>
</filter>
<filter id="filter3_d" x="314" y="54" width="216" height="177" filterUnits="userSpaceOnUse" color-interpolation-filters="sRGB">
<feFlood flood-opacity="0" result="BackgroundImageFix"/>
<feColorMatrix in="SourceAlpha" type="matrix" values="0 0 0 0 0 0 0 0 0 0 0 0 0 0 0 0 0 0 127 0"/>
<feOffset dy="4"/>
<feGaussianBlur stdDeviation="5"/>
<feColorMatrix type="matrix" values="0 0 0 0 0 0 0 0 0 0 0 0 0 0 0 0 0 0 0.25 0"/>
<feBlend mode="normal" in2="BackgroundImageFix" result="effect1_dropShadow"/>
<feBlend mode="normal" in="SourceGraphic" in2="effect1_dropShadow" result="shape"/>
</filter>
<clipPath id="clip0">
<rect width="10" height="10" fill="white" transform="translate(75 99)"/>
</clipPath>
<clipPath id="clip1">
<rect width="15.037" height="16" fill="white" transform="translate(372 229)"/>
</clipPath>
</defs>
</svg>
