<svg width="262" height="202" viewBox="0 0 262 202" fill="none" xmlns="http://www.w3.org/2000/svg">
<g clip-path="url(#clip0)">
<path opacity="0.18" d="M190.695 10.8517C185.076 8.80989 179.952 5.58654 174.36 3.49572C166.77 0.6644 158.57 -0.0107608 150.447 0.000128913C124.251 0.000128913 97.5282 7.30167 77.0556 23.6416C68.8992 30.1373 61.5705 38.1358 51.8079 41.7566C44.0816 44.6315 34.9996 44.7023 28.7489 50.0764C21.7578 56.0657 20.892 66.5143 21.5182 75.7161C22.1443 84.9179 23.6417 94.637 19.7105 102.978C17.4019 107.879 13.4435 111.75 10.1984 116.084C5.80038 121.967 2.71458 128.725 1.14889 135.901C-0.416795 143.078 -0.425983 150.506 1.12195 157.687C2.66987 164.867 5.73896 171.632 10.1224 177.526C14.5058 183.42 20.1016 188.306 26.5329 191.855C39.3882 198.933 54.6283 200.218 69.313 199.973C82.7182 199.75 96.7387 198.176 107.863 190.689C115.028 185.86 120.658 178.782 128.439 175.025C137.82 170.505 148.764 171.496 159.18 171.431C171.518 171.344 184.161 169.514 194.926 163.482C205.69 157.449 214.309 146.652 215.289 134.357C216.035 124.921 212.414 115.082 215.578 106.169C216.781 102.777 218.899 99.7878 221.17 97C229.522 86.7038 240.581 78.1772 245.857 65.9807C248.715 59.3816 249.668 52.1127 250.006 44.931C250.419 35.8871 249.2 25.4657 241.778 20.2713C235.049 15.5615 226.762 17.7394 219.177 16.6505C209.855 15.2947 199.575 14.0642 190.695 10.8517Z" fill="#A500FF"/>
<path d="M91.6258 104.312C91.6258 104.312 67.5378 98.4045 51.3993 111.81C35.2608 125.215 53.6752 119.541 59.5665 121.36C65.4579 123.179 74.3384 126.587 74.3384 126.587C74.3384 126.587 98.9001 114.984 91.6258 104.312Z" fill="#3E3E54"/>
<path d="M91.6258 104.312C91.6258 104.312 67.5378 98.4045 51.3993 111.81C35.2608 125.215 53.6752 119.541 59.5665 121.36C65.4579 123.179 74.3384 126.587 74.3384 126.587C74.3384 126.587 98.9001 114.984 91.6258 104.312Z" fill="url(#paint0_linear)"/>
<path d="M83.1862 142.557C83.1862 142.557 98.3392 132.56 107.732 135.588L115.61 138.011C115.61 138.011 110.764 168.621 83.7906 171.349C83.7906 171.349 78.0354 171.954 84.4004 161.347C90.7655 150.741 83.1862 142.557 83.1862 142.557Z" fill="#3E3E54"/>
<path d="M83.1862 142.557C83.1862 142.557 98.3392 132.56 107.732 135.588L115.61 138.011C115.61 138.011 110.764 168.621 83.7906 171.349C83.7906 171.349 78.0354 171.954 84.4004 161.347C90.7655 150.741 83.1862 142.557 83.1862 142.557Z" fill="url(#paint1_linear)"/>
<path d="M125.39 42.8182C126.474 43.395 127.64 43.8027 128.847 44.027C130.627 44.2611 132.397 43.6948 134.123 43.2102C136.133 42.6484 138.17 42.1886 140.227 41.8327C141.359 41.6421 142.682 41.5387 143.494 42.3772C144.305 43.2157 144.142 44.664 143.434 45.5951C142.726 46.5262 141.632 47.0598 140.575 47.5661L134.379 50.5227C133.319 51.0694 132.211 51.5178 131.068 51.8621C126.348 53.1362 121.447 50.7731 117.337 48.1433C115.752 47.1196 114.037 45.7693 113.972 43.8854C113.992 43.1378 114.147 42.4001 114.429 41.7075C114.65 40.8482 115.097 40.064 115.725 39.437C117.598 37.8199 123.5 41.9307 125.39 42.8182Z" fill="#A500FF"/>
<path d="M137.705 65.8119C135.947 68.5343 133.687 70.9355 131.444 73.2931C129.2 75.6507 126.957 77.9702 123.973 79.0755C122.503 79.62 120.761 79.8051 119.421 78.9775C117.968 78.0845 117.369 76.1734 117.641 74.4855C118.005 72.8034 118.842 71.2601 120.053 70.0371C120.982 68.8908 122.013 67.8319 123.135 66.8736C124.365 65.9371 125.672 65.9861 127.278 65.8718C130.749 65.6204 134.232 65.6004 137.705 65.8119V65.8119Z" fill="#3E3E54"/>
<path d="M137.705 65.8119C135.947 68.5343 133.687 70.9355 131.444 73.2931C129.2 75.6507 126.957 77.9702 123.973 79.0755C122.503 79.62 120.761 79.8051 119.421 78.9775C117.968 78.0845 117.369 76.1734 117.641 74.4855C118.005 72.8034 118.842 71.2601 120.053 70.0371C120.982 68.8908 122.013 67.8319 123.135 66.8736C124.365 65.9371 125.672 65.9861 127.278 65.8718C130.749 65.6204 134.232 65.6004 137.705 65.8119V65.8119Z" fill="url(#paint2_linear)"/>
<path d="M230.328 41.4241C230.111 42.7399 229.824 44.0431 229.468 45.328C227.581 52.0627 224.91 58.5522 221.507 64.6627C213.928 78.5633 200.044 96.7872 174.867 113.666C135.337 140.27 100.643 144.702 87.8418 145.372C84.4551 145.562 82.5984 145.491 82.5984 145.491L71.0063 127.523C71.0063 127.523 84.074 108.069 107.661 87.6671C118.539 78.1998 130.343 69.8524 142.895 62.7515C150.406 58.5194 158.183 54.7764 166.177 51.546C177.147 47.0474 188.593 43.8088 200.294 41.8923C219.248 38.9412 230.328 41.4241 230.328 41.4241Z" fill="#EA13A2"/>
<path d="M137.422 70.6199C136.878 71.6272 138.571 74.8396 139.497 75.5202C140.422 76.2008 141.555 76.6092 142.219 77.5566C142.353 77.7216 142.448 77.9141 142.498 78.1204C142.548 78.3266 142.551 78.5413 142.508 78.749C142.334 79.3589 141.637 79.6311 141.032 79.838L124.785 84.8364C124.335 84.9315 123.918 85.1437 123.576 85.4516C122.923 86.1486 123.249 87.3682 123.995 87.9508C124.804 88.4699 125.761 88.7073 126.718 88.626C131.972 88.626 137.744 86.448 142.143 89.3011C143.394 90.1951 144.479 91.3007 145.35 92.568C148.453 96.6843 150.828 101.301 152.374 106.218C152.848 107.732 153.24 109.382 152.695 110.874C150.124 109.823 147.914 108.046 146.336 105.761C144.364 102.886 143.352 99.1944 140.482 97.2234C138.386 95.7805 135.675 95.5899 133.137 95.8023C130.6 96.0146 128.101 96.6517 125.558 96.6843C119.895 96.7551 114.668 93.9619 109.681 91.2395C108.641 90.695 107.459 89.8837 107.438 88.6968C107.435 88.3705 107.514 88.0487 107.666 87.7603V87.7603C118.544 78.2929 130.348 69.9455 142.9 62.8446C150.411 58.6125 158.188 54.8695 166.182 51.6392C168.338 54.7046 137.656 70.2006 137.422 70.6199Z" fill="url(#paint3_linear)"/>
<path d="M230.126 41.6204C230.126 41.6204 228.781 51.1488 221.306 64.8589C218.901 64.1057 216.539 63.2261 214.227 62.2236C204.742 58.1618 200.833 44.8818 200.114 42.1267C219.046 39.143 230.126 41.6204 230.126 41.6204Z" fill="url(#paint4_linear)"/>
<path opacity="0.31" d="M185.011 76.6853C190.002 76.6853 194.049 72.6386 194.049 67.6468C194.049 62.655 190.002 58.6084 185.011 58.6084C180.019 58.6084 175.972 62.655 175.972 67.6468C175.972 72.6386 180.019 76.6853 185.011 76.6853Z" fill="#3E3E54"/>
<path opacity="0.31" d="M161.146 90.5476C166.138 90.5476 170.184 86.5009 170.184 81.5091C170.184 76.5173 166.138 72.4707 161.146 72.4707C156.154 72.4707 152.107 76.5173 152.107 81.5091C152.107 86.5009 156.154 90.5476 161.146 90.5476Z" fill="#3E3E54"/>
<path opacity="0.31" d="M135.011 108.276C140.002 108.276 144.049 104.229 144.049 99.2376C144.049 94.2459 140.002 90.1992 135.011 90.1992C130.019 90.1992 125.972 94.2459 125.972 99.2376C125.972 104.229 130.019 108.276 135.011 108.276Z" fill="#3E3E54"/>
<path d="M230.646 42.0381L229.976 45.7515C228.098 52.4879 225.427 58.978 222.021 65.0861C214.437 78.9868 200.558 97.1835 175.386 114.09C135.851 140.693 101.157 145.125 88.3559 145.801L84 139.751C184.12 110.191 207.772 62.8864 210.527 62.4944C213.282 62.1024 221.569 42 221.569 42L230.646 42.0381Z" fill="#CC0EA4"/>
<path d="M72.9772 121.567L88.1302 145.807L79.9466 148.84L67.5215 127.932L72.9772 121.567Z" fill="#3E3E54"/>
<path d="M117.358 92.6549C124.518 94.3863 131.988 92.5188 139.214 91.0759C139.956 90.8635 140.741 90.8522 141.49 91.0432C142.344 91.3427 142.916 92.1322 143.417 92.889C145.914 96.6811 147.993 100.732 149.619 104.971C150.599 107.525 151.519 110.302 153.697 111.957C155.875 113.612 159.762 113.242 160.552 110.623C156.833 100.163 152.254 90.0359 147.68 79.9194C147.266 79.0047 146.809 78.0355 145.96 77.4964C145.216 77.1039 144.389 76.8966 143.548 76.8921L117.761 74.6651C111.968 74.1642 103.256 73.3965 105.2 81.4548C106.539 87.0739 111.913 91.3372 117.358 92.6549Z" fill="#60347B"/>
<path d="M123.827 70.3634C123.827 72.1221 123.827 73.9407 123.037 75.5197C122.03 77.5888 119.857 78.8901 117.592 79.4182C116.875 79.5793 116.147 79.6867 115.414 79.7395C113.851 79.8084 112.285 79.7738 110.726 79.636C107.737 79.44 104.345 79.0316 102.559 76.625C101.307 74.9317 101.198 72.6775 101.149 70.5703C101.018 64.8097 100.991 59.0491 100.947 53.2884C100.947 49.9943 99.6133 45.5513 100.082 42.3987C100.24 41.0972 100.747 39.8626 101.549 38.8255C102.351 37.7885 103.419 36.9875 104.639 36.5074C109.055 34.618 115.469 36.0065 118.599 39.6055C121.11 42.4804 122.079 46.3735 122.667 50.1467C123.739 56.8058 123.821 63.6009 123.827 70.3634Z" fill="#A500FF"/>
<path d="M107.481 35.5932C107.423 36.1162 107.445 36.6449 107.546 37.1613C107.868 38.4409 109.087 39.2794 110.296 39.8075C111.042 40.1342 112.038 40.352 112.577 39.7258C112.997 39.2412 112.893 38.5116 112.762 37.88L112.044 34.4443C111.912 33.6754 111.702 32.922 111.418 32.1956C111.102 31.4606 109.016 28.4659 107.96 29.2282C107.519 29.544 107.704 31.7001 107.677 32.2392L107.481 35.5932Z" fill="#FDBAAC"/>
<path d="M107.59 29.326C107.888 30.7461 108.535 32.0693 109.474 33.1755C110.426 34.2848 111.77 34.9832 113.225 35.1248C113.756 35.1866 114.292 35.0819 114.761 34.8253C115.336 34.3748 115.757 33.7563 115.964 33.0557C117.2 30.0556 118.452 26.7561 117.516 23.6416C117.281 22.6721 116.675 21.8335 115.828 21.3058C114.922 20.9185 113.908 20.8626 112.964 21.1479C111.331 21.5181 108.88 22.3675 107.824 23.7614C106.768 25.1553 107.231 27.796 107.59 29.326Z" fill="#FDBAAC"/>
<path d="M113.585 15.8064C112.388 15.269 111.071 15.057 109.766 15.1918C108.461 15.3266 107.215 15.8034 106.153 16.5741C104.781 17.6032 103.801 19.0842 102.401 20.0697C101.084 21.0008 99.4885 21.4255 98.0129 22.0789C97.8332 22.1551 97.6318 22.2694 97.5991 22.46C97.5446 22.754 89.8639 26.1952 90 26.462C90.2069 26.8703 97.8986 24.088 97.5882 24.431L84 31.3133C83.7823 31.5026 87.8775 34.4169 94.2711 31.2807C94.2112 32.0266 96.7652 32.0375 102.401 29.4185L91 32.0538C89.5531 33.0272 87.9928 34.0662 87.0002 35.5C87.5446 36.0772 97.4575 31.7217 98.1272 31.2807C98.797 30.8396 91.2052 33.9564 92.0002 34C90.8077 35.922 93.1549 35.5272 94.2711 35.5C95.2195 35.4412 105.763 31.743 106.61 31.3133C107.017 31.1552 107.387 30.9162 107.699 30.6109C107.856 30.4588 107.973 30.2704 108.039 30.0624C108.106 29.8544 108.12 29.6333 108.08 29.4185C108.018 29.2306 107.94 29.0484 107.846 28.874C107.69 28.5312 107.613 28.158 107.618 27.7814C107.624 27.4048 107.713 27.0341 107.879 26.6961C107.933 26.5926 108.004 26.4783 108.124 26.462C108.221 26.4586 108.316 26.4916 108.391 26.5545L109.213 27.099C109.169 25.9941 109.563 24.9164 110.309 24.1005C111.055 23.2847 112.094 22.7968 113.199 22.7431C114.897 22.6506 118.006 23.4891 117.598 20.7177C117.271 18.6377 115.442 16.6504 113.585 15.8064Z" fill="#3E3E54"/>
<path d="M147.081 39.3008C148.622 38.9469 150.419 39.3008 151.394 40.5531C151.517 40.693 151.593 40.8683 151.612 41.054C151.617 41.0964 151.613 41.1394 151.602 41.1804C151.59 41.2214 151.57 41.2596 151.543 41.2927C151.516 41.3258 151.483 41.353 151.445 41.3728C151.407 41.3926 151.365 41.4046 151.323 41.4079H150.185C149.411 41.8831 148.695 42.4458 148.051 43.0849C147.112 43.8504 145.999 44.3723 144.811 44.6041C143.232 44.9144 141.272 43.8418 142.497 42.1267C143.455 40.7818 145.502 39.6656 147.081 39.3008Z" fill="#FDBAAC"/>
<path d="M144.348 53.3324C144.601 53.454 144.822 53.633 144.993 53.8552C145.164 54.0774 145.281 54.3366 145.334 54.6119C145.342 54.7037 145.325 54.796 145.285 54.8787C145.138 55.1292 144.773 55.0693 144.484 55.0203C142.606 54.6827 140.82 56.1474 138.909 56.1093C138.034 56.0867 137.203 55.7256 136.589 55.102C136.045 54.5194 135.5 53.4195 135.805 52.6028C136.126 51.6663 137.215 51.6499 138.065 51.6227C140.284 51.5405 142.476 52.1369 144.348 53.3324V53.3324Z" fill="#FDBAAC"/>
<path d="M156.779 32.9196L164.184 27.3169C164.184 27.3169 166.002 26.7071 166.612 27.4693C167.222 28.2316 166.536 51.4593 166.536 51.4593L157.367 55.7771L156.779 32.9196Z" fill="#A500FF"/>
<path d="M156.888 32.985L164.309 27.3823C164.309 27.3823 166.128 26.7725 166.737 27.5348C167.347 28.297 166.552 51.4921 166.552 51.4921L157.492 55.8479L156.888 32.985Z" fill="url(#paint5_linear)"/>
<path d="M159.082 32.8761L166.737 27.5402C166.737 27.5402 165.371 26.5546 164.309 27.3877C163.247 28.2208 156.888 32.985 156.888 32.985L159.082 32.8761Z" fill="url(#paint6_linear)"/>
<path d="M156.496 115.452C156.556 115.6 156.643 115.734 156.752 115.85C156.889 115.964 157.051 116.044 157.226 116.084C157.672 116.208 158.14 116.233 158.597 116.158C159.054 116.083 159.489 115.909 159.872 115.648C160.19 115.446 160.438 115.152 160.585 114.804C160.723 114.263 160.687 113.691 160.482 113.171L160.03 111.603C160.026 111.581 160.017 111.56 160.002 111.543C159.964 111.543 159.915 111.543 159.877 111.543C158.565 112.327 157.019 111.543 155.766 112.087C154.71 112.599 156.109 114.657 156.496 115.452Z" fill="url(#paint7_linear)"/>
<path d="M158.02 115.343C157.579 115.37 157.14 115.43 156.708 115.523C156.493 115.576 156.295 115.682 156.133 115.833C155.971 115.983 155.85 116.173 155.782 116.383C155.745 116.798 155.855 117.212 156.093 117.554C156.409 118.137 156.724 118.719 157.062 119.291C157.244 119.674 157.533 119.996 157.895 120.217C158.262 120.363 158.665 120.393 159.049 120.304C160.207 120.082 161.332 119.716 162.398 119.215C164.576 118.296 166.737 117.314 168.883 116.269C169.237 116.095 169.629 115.872 169.699 115.485C169.718 115.35 169.703 115.213 169.656 115.085C169.61 114.957 169.533 114.842 169.433 114.75C169.228 114.57 168.992 114.429 168.736 114.336C167.207 113.75 165.599 113.396 163.966 113.285C163.389 113.225 162.42 112.953 161.881 113.214C161.342 113.476 160.824 114.118 160.247 114.467C159.575 114.913 158.816 115.212 158.02 115.343V115.343Z" fill="#3E3E54"/>
<path d="M135.974 55.7499C135.026 56.3231 133.969 56.6938 132.871 56.8388L126.963 58.0313C125.666 58.3578 124.33 58.5044 122.994 58.4669C121.78 58.3343 120.59 58.0395 119.454 57.5902C114.87 55.9568 107.601 54.0348 104.084 50.4738C101.421 47.7514 102.075 42.361 105.516 41.0107C106.17 40.7571 106.874 40.6529 107.574 40.7058C110.492 40.8909 112.474 43.5752 114.717 45.4646C119.531 49.57 126.25 50.2833 132.577 50.7515H132.707H133.132C134.765 50.8713 136.78 51.296 137.226 52.8587C137.504 53.964 136.883 55.1128 135.974 55.7499Z" fill="#A500FF"/>
<path d="M141.354 64.6956L157.492 55.8532L159.082 32.8978C159.082 32.8978 156.632 31.885 156.43 34.21C156.229 36.5349 154.514 54.0074 154.514 54.0074L140.575 61.3797C140.575 61.3797 138.501 63.476 141.354 64.6956Z" fill="#A500FF"/>
<path d="M79.5653 147.811C75.3831 154.251 69.1142 159.057 61.8097 161.423L64.5866 155.467C61.1019 159.779 57.59 164.113 53.4628 167.821C49.3356 171.529 44.5169 174.605 39.1483 175.988C38.6038 175.199 39.1864 174.142 39.7635 173.375C43.5844 168.289 47.8264 163.533 52.4446 159.158C41.8108 165.349 31.1335 171.562 19.6938 176.092C27.0488 165.886 35.8533 156.809 45.8291 149.145L38.8161 150.953C47.0644 141.37 57.0051 133.385 68.1421 127.398C72.7103 133.655 76.3529 140.793 79.5653 147.811Z" fill="#A500FF"/>
<path d="M79.5653 147.811C75.3831 154.251 69.1142 159.057 61.8097 161.423L64.5866 155.467C61.1019 159.779 57.59 164.113 53.4628 167.821C49.3356 171.529 44.5169 174.605 39.1483 175.988C38.6038 175.199 39.1864 174.142 39.7635 173.375C43.5844 168.289 47.8264 163.533 52.4446 159.158C41.8108 165.349 31.1335 171.562 19.6938 176.092C27.0488 165.886 35.8533 156.809 45.8291 149.145L38.8161 150.953C47.0644 141.37 57.0051 133.385 68.1421 127.398C72.7103 133.655 76.3529 140.793 79.5653 147.811Z" fill="url(#paint8_linear)"/>
<path d="M57.4649 141.952C57.209 142.306 56.9531 142.78 57.1763 143.156C57.3479 143.37 57.5884 143.518 57.8569 143.575L59.9532 144.267C57.2531 146.642 54.7645 149.247 52.5155 152.053C52.1398 152.521 51.775 153.234 52.2052 153.653C52.4091 153.821 52.6654 153.911 52.9293 153.909C55.8423 154.171 58.5593 152.559 61.0422 151.013C60.5911 152.653 59.8091 154.183 58.7444 155.51C61.554 154.966 64.0967 153.512 66.3672 151.819C68.6377 150.125 70.7775 148.187 73.1188 146.548L72.3456 148.563C73.7785 147.619 75.0139 146.406 75.9828 144.991C76.2163 144.737 76.3636 144.416 76.4037 144.074C76.4438 143.732 76.3746 143.386 76.206 143.085C75.0382 139.921 73.3668 136.966 71.2567 134.335C70.8942 133.827 70.4308 133.399 69.8955 133.077C68.1858 132.179 64.6194 135.103 63.2473 136.11C61.0253 137.742 59.074 139.714 57.4649 141.952Z" fill="#A500FF"/>
<path d="M57.4649 141.952C57.209 142.306 56.9531 142.78 57.1763 143.156C57.3479 143.37 57.5884 143.518 57.8569 143.575L59.9532 144.267C57.2531 146.642 54.7645 149.247 52.5155 152.053C52.1398 152.521 51.775 153.234 52.2052 153.653C52.4091 153.821 52.6654 153.911 52.9293 153.909C55.8423 154.171 58.5593 152.559 61.0422 151.013C60.5911 152.653 59.8091 154.183 58.7444 155.51C61.554 154.966 64.0967 153.512 66.3672 151.819C68.6377 150.125 70.7775 148.187 73.1188 146.548L72.3456 148.563C73.7785 147.619 75.0139 146.406 75.9828 144.991C76.2163 144.737 76.3636 144.416 76.4037 144.074C76.4438 143.732 76.3746 143.386 76.206 143.085C75.0382 139.921 73.3668 136.966 71.2567 134.335C70.8942 133.827 70.4308 133.399 69.8955 133.077C68.1858 132.179 64.6194 135.103 63.2473 136.11C61.0253 137.742 59.074 139.714 57.4649 141.952Z" fill="url(#paint9_linear)"/>
<path d="M135 52.8314C134.672 52.9594 134.32 53.0097 133.97 52.9784C130.333 52.9784 126.669 52.924 123.081 52.2869C119.493 51.6499 115.953 50.3758 113.122 48.0944C111.124 46.461 109.545 44.4409 107.541 42.851C106.997 42.3991 105.581 41.8329 105.51 41.0107C106.165 40.7571 106.868 40.6529 107.568 40.7058C110.487 40.8909 112.469 43.5752 114.712 45.4646C119.525 49.57 126.244 50.2832 132.571 50.7515H132.702C133.503 50.8182 134.28 51.0538 134.983 51.443C135.201 51.5489 135.37 51.7339 135.457 51.9603C135.493 52.1359 135.467 52.3185 135.383 52.4772C135.3 52.636 135.164 52.7611 135 52.8314V52.8314Z" fill="url(#paint10_linear)"/>
</g>
<g filter="url(#filter0_d)">
<circle cx="219" cy="159" r="40" fill="white"/>
<path d="M214.231 176.384C213.827 176.779 213.275 177 212.701 177C212.128 177 211.576 176.779 211.171 176.384L198.951 164.501C197.683 163.268 197.683 161.269 198.951 160.038L200.481 158.55C201.75 157.317 203.804 157.317 205.072 158.55L212.701 165.968L233.317 145.925C234.585 144.692 236.641 144.692 237.908 145.925L239.438 147.413C240.706 148.646 240.706 150.645 239.438 151.876L214.231 176.384Z" fill="#A500FF"/>
</g>
<defs>
<filter id="filter0_d" x="179" y="119" width="83" height="83" filterUnits="userSpaceOnUse" color-interpolation-filters="sRGB">
<feFlood flood-opacity="0" result="BackgroundImageFix"/>
<feColorMatrix in="SourceAlpha" type="matrix" values="0 0 0 0 0 0 0 0 0 0 0 0 0 0 0 0 0 0 127 0"/>
<feOffset dx="3" dy="3"/>
<feColorMatrix type="matrix" values="0 0 0 0 0 0 0 0 0 0 0 0 0 0 0 0 0 0 0.1 0"/>
<feBlend mode="normal" in2="BackgroundImageFix" result="effect1_dropShadow"/>
<feBlend mode="normal" in="SourceGraphic" in2="effect1_dropShadow" result="shape"/>
</filter>
<linearGradient id="paint0_linear" x1="44.9308" y1="114.788" x2="92.9761" y2="114.788" gradientUnits="userSpaceOnUse">
<stop stop-opacity="0"/>
<stop offset="0.99"/>
</linearGradient>
<linearGradient id="paint1_linear" x1="5861.19" y1="10701" x2="8010.01" y2="10701" gradientUnits="userSpaceOnUse">
<stop stop-opacity="0"/>
<stop offset="0.99"/>
</linearGradient>
<linearGradient id="paint2_linear" x1="5004.88" y1="1856.59" x2="5232.24" y2="2204.15" gradientUnits="userSpaceOnUse">
<stop stop-opacity="0"/>
<stop offset="0.99"/>
</linearGradient>
<linearGradient id="paint3_linear" x1="13618.3" y1="6090.59" x2="20437.9" y2="12184.1" gradientUnits="userSpaceOnUse">
<stop stop-opacity="0"/>
<stop offset="0.99"/>
</linearGradient>
<linearGradient id="paint4_linear" x1="12551.5" y1="2274.9" x2="13465.9" y2="3217.41" gradientUnits="userSpaceOnUse">
<stop stop-opacity="0"/>
<stop offset="0.99"/>
</linearGradient>
<linearGradient id="paint5_linear" x1="3353.52" y1="1663.72" x2="3235.36" y2="3874.13" gradientUnits="userSpaceOnUse">
<stop stop-opacity="0"/>
<stop offset="0.99"/>
</linearGradient>
<linearGradient id="paint6_linear" x1="3253.54" y1="397.196" x2="3284.7" y2="456.303" gradientUnits="userSpaceOnUse">
<stop stop-opacity="0"/>
<stop offset="0.99"/>
</linearGradient>
<linearGradient id="paint7_linear" x1="1767.29" y1="1129.45" x2="1818.74" y2="1129.45" gradientUnits="userSpaceOnUse">
<stop stop-color="#E5C5D5"/>
<stop offset="0.42" stop-color="#EAD4D1"/>
<stop offset="1" stop-color="#F0E9CB"/>
</linearGradient>
<linearGradient id="paint8_linear" x1="101.366" y1="150.044" x2="17.799" y2="152.935" gradientUnits="userSpaceOnUse">
<stop offset="0.02" stop-color="white" stop-opacity="0"/>
<stop offset="0.58" stop-color="white" stop-opacity="0.39"/>
<stop offset="0.68" stop-color="white" stop-opacity="0.68"/>
<stop offset="1" stop-color="white"/>
</linearGradient>
<linearGradient id="paint9_linear" x1="5538.53" y1="5601.22" x2="2304.48" y2="6885.69" gradientUnits="userSpaceOnUse">
<stop offset="0.02" stop-color="white" stop-opacity="0"/>
<stop offset="0.58" stop-color="white" stop-opacity="0.39"/>
<stop offset="0.68" stop-color="white" stop-opacity="0.68"/>
<stop offset="1" stop-color="white"/>
</linearGradient>
<linearGradient id="paint10_linear" x1="7520.86" y1="1012.37" x2="7354.04" y2="1982.81" gradientUnits="userSpaceOnUse">
<stop offset="0.02" stop-color="white" stop-opacity="0"/>
<stop offset="0.58" stop-color="white" stop-opacity="0.39"/>
<stop offset="0.68" stop-color="white" stop-opacity="0.68"/>
<stop offset="1" stop-color="white"/>
</linearGradient>
<clipPath id="clip0">
<rect width="250.082" height="200" fill="white"/>
</clipPath>
</defs>
</svg>
