<svg width="391" height="300" viewBox="0 0 391 300" fill="none" xmlns="http://www.w3.org/2000/svg">
<g clip-path="url(#clip0)">
<path opacity="0.24" d="M288.822 298.048C308.403 296.654 328.359 294.327 345.976 285.694C363.594 277.061 378.655 260.929 381.108 241.497C383.561 222.066 373.46 202.876 374.923 183.329C376.218 166.091 386.349 150.737 389.66 133.77C393.629 113.463 386.954 91.3822 372.383 76.673C361.146 65.3043 346.12 58.6005 331.446 52.1501L246.923 14.9625C234.696 9.5834 222.331 4.16393 209.2 1.71624C193.529 -1.23826 177.414 0.201558 161.536 1.64137C142.053 3.36915 121.763 5.40793 105.17 15.7631C87.5296 26.7518 76.4833 45.6997 60.6799 59.234C43.3157 74.0929 19.8813 82.7836 7.9596 102.284C-5.2867 123.928 0.0290974 151.987 9.15177 175.652C18.2744 199.317 30.9909 222.521 31.6129 247.879C32.1427 269.545 29.7526 286.817 53.8321 289.414C78.8388 292.116 104.324 293.59 129.451 295.548C182.442 299.649 235.733 301.826 288.822 298.048Z" fill="#A500FF"/>
<path opacity="0.24" d="M47.9971 264.926C49.9783 271.607 58.6402 273.052 65.6032 273.277L272.47 279.814C287.093 280.275 301.779 280.735 316.315 279.048C331.765 277.242 346.836 273.031 360.984 266.568C363.253 265.525 365.741 264.149 366.358 261.73C367.36 257.831 362.942 254.819 359.118 253.563C347.329 249.727 334.647 250.067 322.259 250.401C243.294 252.555 162.975 256.109 84.0731 251.899C74.8986 251.409 42.4048 246.093 47.9971 264.926Z" fill="#A500FF"/>
<path d="M310.471 83.423V84.2177H68.0459V83.423C68.0451 81.6325 68.3972 79.8595 69.082 78.2052C69.7669 76.551 70.771 75.0479 72.037 73.7819C73.303 72.5158 74.8061 71.5117 76.4604 70.8269C78.1146 70.1421 79.8877 69.79 81.6781 69.7908H296.838C298.629 69.79 300.402 70.1421 302.056 70.8269C303.71 71.5117 305.213 72.5158 306.479 73.7819C307.745 75.0479 308.75 76.551 309.434 78.2052C310.119 79.8595 310.471 81.6325 310.471 83.423V83.423Z" fill="#A500FF"/>
<path d="M310.471 83.423V84.2177H68.0459V83.423C68.0451 81.6325 68.3972 79.8595 69.082 78.2052C69.7669 76.551 70.771 75.0479 72.037 73.7819C73.303 72.5158 74.8061 71.5117 76.4604 70.8269C78.1146 70.1421 79.8877 69.79 81.6781 69.7908H296.838C298.629 69.79 300.402 70.1421 302.056 70.8269C303.71 71.5117 305.213 72.5158 306.479 73.7819C307.745 75.0479 308.75 76.551 309.434 78.2052C310.119 79.8595 310.471 81.6325 310.471 83.423V83.423Z" fill="url(#paint0_linear)"/>
<path d="M310.471 84.235H68.0459V259.633H310.471V84.235Z" fill="white"/>
<path opacity="0.24" d="M302.349 108.395C301.699 110.86 301.105 113.544 301.405 116.182C301.641 118.215 302.378 119.983 302.856 121.901C303.853 125.932 303.645 130.442 303.478 134.778C302.781 152.731 303 170.708 304.135 188.639C304.313 190.586 304.342 192.544 304.221 194.496C304.002 196.322 303.666 198.133 303.213 199.916C302.315 204.015 301.701 208.172 301.376 212.356C301.071 216.26 301.025 220.419 302.084 223.937C303.478 228.545 306.467 231.234 309.393 233.123C310.107 230.647 310.24 227.842 310.355 225.112C312.042 184.337 311.754 143.331 309.491 102.647C309.301 99.1918 312.071 88.5775 309.33 93.3001C307.394 96.5771 303.403 104.295 302.349 108.395Z" fill="#A500FF"/>
<path d="M314.403 246.508C313.887 247.156 313.531 247.918 313.367 248.731C312.705 251.376 312.853 254.159 313.793 256.719C314.087 257.52 314.818 258.447 315.59 258.084C315.789 257.968 315.981 257.842 316.166 257.704C316.448 257.595 316.75 257.544 317.053 257.554C317.355 257.564 317.653 257.635 317.928 257.762C323.774 259.564 330.109 260.238 336.024 258.66C336.801 258.453 337.671 258.084 337.901 257.335C338.16 256.46 337.435 255.608 336.709 255.072C333.253 252.452 328.646 251.933 324.614 250.401C322.6 249.641 320.693 248.62 318.942 247.366C317.427 246.312 316.068 244.613 314.403 246.508Z" fill="#A500FF"/>
<path d="M317.577 249.399C318.235 250.85 319.32 252.065 320.687 252.883C322.889 254.461 325.548 255.27 328.255 255.187C329.053 255.173 329.83 254.932 330.495 254.49C330.824 254.266 331.077 253.949 331.224 253.58C331.371 253.21 331.404 252.805 331.319 252.417C331.195 252.05 330.999 251.711 330.743 251.421C328.831 249.117 326.36 247.055 325.559 244.158C325.375 243.496 325.248 242.741 324.695 242.333C324.348 242.115 323.952 241.987 323.544 241.958C321.862 241.699 319.08 241.336 318.09 243.052C317.117 245.026 316.934 247.295 317.577 249.399V249.399Z" fill="url(#paint1_linear)"/>
<path d="M322.663 185.126C322.663 185.126 324.523 214.671 323.36 217.234C322.196 219.796 317.076 242.574 317.076 242.574C317.076 242.574 323.36 246.295 325.45 244.878C327.541 243.461 336.157 210.213 336.157 210.213L340.361 190.015L322.663 185.126Z" fill="#606161"/>
<path d="M322.605 184.458C322.605 184.458 324.465 214.003 323.302 216.56C322.139 219.117 317.019 241.901 317.019 241.901C317.019 241.901 323.302 245.627 325.393 244.204C327.483 242.782 336.093 209.545 336.093 209.545L340.286 189.301L322.605 184.458Z" fill="url(#paint2_linear)"/>
<path d="M315.855 171.753C315.855 171.753 317.658 184.659 324.287 186.64C330.916 188.622 349.184 195.014 349.184 195.014C349.184 195.014 329.874 206.994 329.177 207.812C328.48 208.629 325.22 210.484 325.22 210.484L329.827 220.603C329.827 220.603 360.352 204.725 363.502 201.597C366.652 198.47 366.641 190.257 365.23 189.036C363.819 187.815 343.241 170.705 343.241 170.705L315.855 171.753Z" fill="#606161"/>
<path d="M315.855 171.753C315.855 171.753 317.658 184.659 324.287 186.64C330.916 188.622 349.184 195.014 349.184 195.014C349.184 195.014 329.874 206.994 329.177 207.812C328.48 208.629 325.22 210.484 325.22 210.484L329.827 220.603C329.827 220.603 360.352 204.725 363.502 201.597C366.652 198.47 366.641 190.257 365.23 189.036C363.819 187.815 343.241 170.705 343.241 170.705L315.855 171.753Z" fill="url(#paint3_linear)"/>
<path d="M358.404 113.582L358.09 113.469C357.656 113.312 357.178 113.536 357.021 113.97L352.695 125.929C352.538 126.362 352.763 126.841 353.196 126.997L353.51 127.111C353.944 127.268 354.422 127.044 354.579 126.61L358.905 114.651C359.062 114.218 358.837 113.739 358.404 113.582Z" fill="#A500FF"/>
<path d="M338.057 85.5135C338.312 86.7546 338.277 88.038 337.953 89.2631C337.629 90.4882 337.026 91.6216 336.191 92.5743C335.787 93.0765 335.25 93.4555 334.642 93.6686C334.113 93.7903 333.56 93.7573 333.049 93.5735C332.539 93.3897 332.092 93.0628 331.762 92.6319C331.118 91.7696 330.719 90.7484 330.61 89.6774C330.178 86.7978 330.61 82.8124 332.626 80.549C334.642 78.2856 337.717 83.9239 338.057 85.5135Z" fill="#606161"/>
<path d="M338.057 85.5135C338.312 86.7546 338.277 88.038 337.953 89.2631C337.629 90.4882 337.026 91.6216 336.191 92.5743C335.787 93.0765 335.25 93.4555 334.642 93.6686C334.113 93.7903 333.56 93.7573 333.049 93.5735C332.539 93.3897 332.092 93.0628 331.762 92.6319C331.118 91.7696 330.719 90.7484 330.61 89.6774C330.178 86.7978 330.61 82.8124 332.626 80.549C334.642 78.2856 337.717 83.9239 338.057 85.5135Z" fill="url(#paint4_linear)"/>
<path d="M325.629 107.71C325.629 108.654 325.594 109.818 324.759 110.261C324.471 110.388 324.159 110.453 323.843 110.451C322.776 110.585 321.693 110.384 320.745 109.875C320.201 109.482 319.763 108.962 319.468 108.359C319.174 107.756 319.033 107.09 319.057 106.42C319.114 105.086 319.433 103.777 319.996 102.567C320.849 100.47 321.926 98.3624 323.751 97.0262C324.027 96.7953 324.362 96.6458 324.719 96.5943C326.516 96.4734 327.656 100.05 327.437 101.421C327.115 103.638 325.698 105.394 325.629 107.71Z" fill="url(#paint5_linear)"/>
<path d="M313.765 106.581C313.765 106.581 320.307 105.274 323.187 107.98C326.066 110.687 332.258 116.09 334.44 120.801C336.623 125.512 337.493 133.189 337.493 133.189L343.252 170.705C343.252 170.705 319.869 174.368 315.855 171.753C311.841 169.138 316.379 144.01 314.634 140.342C312.889 136.673 306.606 116.786 309.399 111.903C312.192 107.019 313.765 106.581 313.765 106.581Z" fill="#A500FF"/>
<path d="M339.641 146.976C339.641 146.976 331.267 155.581 325.243 152.557C319.219 149.534 318.032 139.53 318.032 139.53L312.532 117.103L328.267 141.16L338.737 141.626L339.641 146.976Z" fill="url(#paint6_linear)"/>
<path d="M319.173 114.344L333.652 130.747L342.901 126.387C342.901 126.387 347.964 132.319 347.964 134.41C347.964 136.5 333.128 146.976 330.864 144.88C328.601 142.784 314.445 127.084 313.062 124.642C311.68 122.2 310.096 111.557 319.173 114.344Z" fill="#A500FF"/>
<path d="M323.751 97.0551C323.751 97.0551 322.271 102.526 324.581 105.227L325.802 105.838L327.437 101.449L323.751 97.0551Z" fill="url(#paint7_linear)"/>
<path d="M336.041 95.6671C336.251 95.9402 336.368 96.2731 336.375 96.6173C336.343 96.7805 336.274 96.9341 336.174 97.0666C335.177 98.5813 333.565 99.5719 332.43 100.983C331.635 101.962 330.933 103.235 329.689 103.436C328.895 103.504 328.101 103.301 327.437 102.86C324.315 101.069 323.509 97.5273 323.981 96.099C324.454 94.6707 325.133 93.323 325.669 91.9063C326.285 90.2073 326.711 88.2952 328.117 87.1721C329.082 86.5064 330.207 86.1089 331.376 86.0203C331.826 85.926 332.291 85.9358 332.735 86.0491C334.066 86.481 335.615 88.2664 335.753 89.6717C335.972 91.578 335.091 93.899 336.041 95.6671Z" fill="url(#paint8_linear)"/>
<path d="M331.452 91.2901C330.214 91.9236 328.682 91.6875 327.42 92.2749C325.462 93.1964 324.898 95.6499 323.706 97.4583C323.032 98.4719 322.122 99.3012 321.356 100.246C317.681 104.773 317.543 111.292 314.347 116.17C314.257 116.34 314.121 116.482 313.955 116.579C313.788 116.644 313.608 116.665 313.431 116.642C310.504 116.474 307.695 115.431 305.368 113.648C305.098 113.508 304.889 113.272 304.782 112.987C304.676 112.702 304.679 112.387 304.792 112.104C306.405 104.703 310.736 98.1551 312.694 90.8351C313.212 88.9115 313.564 86.9361 314.329 85.0759C315.101 83.3054 316.179 81.6851 317.514 80.2899C318.775 78.8514 320.369 77.7439 322.156 77.0647C324.944 76.126 328.048 76.771 330.715 78.0093C333.594 79.3339 335.506 81.4072 335.115 84.6958C334.856 86.8785 333.45 90.2707 331.452 91.2901Z" fill="#606161"/>
<path d="M331.452 91.2901C330.214 91.9236 328.682 91.6875 327.42 92.2749C325.462 93.1964 324.898 95.6499 323.706 97.4583C323.032 98.4719 322.122 99.3012 321.356 100.246C317.681 104.773 317.543 111.292 314.347 116.17C314.257 116.34 314.121 116.482 313.955 116.579C313.788 116.644 313.608 116.665 313.431 116.642C310.504 116.474 307.695 115.431 305.368 113.648C305.098 113.508 304.889 113.272 304.782 112.987C304.676 112.702 304.679 112.387 304.792 112.104C306.405 104.703 310.736 98.1551 312.694 90.8351C313.212 88.9115 313.564 86.9361 314.329 85.0759C315.101 83.3054 316.179 81.6851 317.514 80.2899C318.775 78.8514 320.369 77.7439 322.156 77.0647C324.944 76.126 328.048 76.771 330.715 78.0093C333.594 79.3339 335.506 81.4072 335.115 84.6958C334.856 86.8785 333.45 90.2707 331.452 91.2901Z" fill="url(#paint9_linear)"/>
<path d="M347.439 124.584C348.365 124.346 349.312 124.198 350.267 124.141C351.938 123.815 353.574 123.327 355.151 122.684C355.824 122.453 356.625 122.258 357.189 122.684C357.391 122.857 357.544 123.08 357.632 123.331C357.72 123.581 357.74 123.851 357.69 124.112C357.59 124.635 357.395 125.134 357.115 125.587L355.387 128.777C354.811 129.808 354.235 130.879 353.267 131.507C351.885 132.382 350.111 132.169 348.504 132.48C347.775 132.694 347.023 132.818 346.264 132.849C344.179 132.745 343.125 130.459 343.511 128.587C343.88 126.917 345.901 125.114 347.439 124.584Z" fill="url(#paint10_linear)"/>
<path d="M323.026 213.34C322.658 213.303 322.288 213.32 321.925 213.392C321.502 213.565 321.131 213.845 320.849 214.204C319.587 215.448 318.48 216.84 317.554 218.351C316.041 221.259 315.632 224.616 316.402 227.802C316.423 227.974 316.493 228.135 316.604 228.268C316.932 228.579 317.462 228.268 317.756 227.934L326.642 219.238L328.22 217.694C328.302 217.642 328.372 217.571 328.423 217.489C328.475 217.406 328.508 217.313 328.519 217.216C328.531 217.119 328.521 217.021 328.49 216.928C328.459 216.836 328.409 216.751 328.341 216.681L327.253 214.797C326.974 214.158 326.623 213.553 326.205 212.995C325.744 212.534 325.49 212.839 324.926 213.035C324.316 213.252 323.672 213.355 323.026 213.34V213.34Z" fill="url(#paint11_linear)"/>
<path d="M317.41 212.43C315.464 212.514 313.54 212.869 311.691 213.484C310.983 213.686 310.119 214.089 310.16 214.826C310.2 215.563 310.989 215.886 311.242 216.462C311.402 217.038 311.345 217.653 311.081 218.19C310.119 220.854 309.696 223.683 309.837 226.512C309.976 229.356 311.054 232.074 312.901 234.241C313.139 234.563 313.442 234.832 313.79 235.03C314.138 235.228 314.524 235.352 314.922 235.393C315.902 235.393 316.65 234.506 317.065 233.619C318.297 230.981 317.762 227.906 317.768 224.98C317.76 222.077 318.334 219.203 319.455 216.525C319.754 215.834 321.056 214.36 320.912 213.617C320.664 212.5 318.309 212.459 317.41 212.43Z" fill="#A500FF"/>
<path d="M303.479 98.1897H77.8193V254.991H303.479V98.1897Z" fill="white"/>
<path d="M80.728 79.9788C82.172 79.9788 83.3427 78.8082 83.3427 77.3641C83.3427 75.92 82.172 74.7494 80.728 74.7494C79.2839 74.7494 78.1133 75.92 78.1133 77.3641C78.1133 78.8082 79.2839 79.9788 80.728 79.9788Z" fill="url(#paint12_linear)"/>
<path d="M89.4526 79.9788C90.8967 79.9788 92.0673 78.8082 92.0673 77.3641C92.0673 75.92 90.8967 74.7494 89.4526 74.7494C88.0085 74.7494 86.8379 75.92 86.8379 77.3641C86.8379 78.8082 88.0085 79.9788 89.4526 79.9788Z" fill="url(#paint13_linear)"/>
<path d="M98.1782 79.9788C99.6223 79.9788 100.793 78.8082 100.793 77.3641C100.793 75.92 99.6223 74.7494 98.1782 74.7494C96.7341 74.7494 95.5635 75.92 95.5635 77.3641C95.5635 78.8082 96.7341 79.9788 98.1782 79.9788Z" fill="url(#paint14_linear)"/>
<path opacity="0.24" d="M117.368 95.166H78.9824V259.178H117.368V95.166Z" fill="#A500FF"/>
<path opacity="0.24" d="M294.443 95.166H241.365V259.178H294.443V95.166Z" fill="#A500FF"/>
<path opacity="0.24" d="M236.683 95.166H121.791V259.178H236.683V95.166Z" fill="#A500FF"/>
<path opacity="0.24" d="M236.274 118.716H127.021V188.518H236.274V118.716Z" fill="#A500FF"/>
<path opacity="0.24" d="M293.337 110.883H247.948V142.772H293.337V110.883Z" fill="#A500FF"/>
<path d="M94.106 98.42H81.7754V112.841H94.106V98.42Z" fill="white"/>
<path d="M202.237 104.588H194.836V112.841H202.237V104.588Z" fill="white"/>
<path d="M157.907 104.525H130.28V112.847H157.907V104.525Z" fill="white"/>
<path d="M233.798 116.159H124.7V184.394H233.798V116.159Z" fill="white"/>
<path d="M190.189 104.525H162.562V112.847H190.189V104.525Z" fill="white"/>
<path d="M113.175 116.043H81.7754V117.604H113.175V116.043Z" fill="white"/>
<path d="M113.175 120.058H81.7754V121.618H113.175V120.058Z" fill="white"/>
<path d="M113.175 124.072H81.7754V125.633H113.175V124.072Z" fill="white"/>
<path opacity="0.24" d="M230.434 129.359H127.142V181.002H230.434V129.359Z" fill="#A500FF"/>
<path d="M290.918 110.284H246.249V139.132H290.918V110.284Z" fill="white"/>
<g opacity="0.24">
<path opacity="0.24" d="M257.958 124.682H254.393L253.897 126.358H250.695L254.514 116.199H257.935L261.753 126.358H258.465L257.958 124.682ZM257.307 122.482L256.155 118.831L255.044 122.482H257.307Z" fill="#A500FF"/>
<path opacity="0.24" d="M262.796 116.199H267.461C268.22 116.169 268.977 116.296 269.684 116.573C270.235 116.807 270.718 117.175 271.089 117.644C271.465 118.128 271.739 118.682 271.896 119.274C272.064 119.917 272.147 120.579 272.143 121.244C272.18 122.102 272.055 122.96 271.775 123.772C271.546 124.343 271.194 124.856 270.744 125.275C270.345 125.657 269.859 125.934 269.327 126.082C268.72 126.255 268.092 126.348 267.461 126.358H262.796V116.199ZM265.935 118.503V124.06H266.701C267.18 124.092 267.66 124.015 268.106 123.836C268.404 123.665 268.634 123.396 268.757 123.075C268.944 122.508 269.024 121.91 268.993 121.313C268.993 120.236 268.814 119.499 268.463 119.102C268.232 118.889 267.958 118.728 267.661 118.629C267.363 118.53 267.048 118.495 266.735 118.526L265.935 118.503Z" fill="#A500FF"/>
<path opacity="0.24" d="M273.248 122.995L276.231 122.81C276.263 123.208 276.4 123.59 276.629 123.916C276.792 124.123 277.004 124.287 277.244 124.396C277.485 124.504 277.748 124.553 278.011 124.538C278.384 124.564 278.753 124.451 279.048 124.221C279.159 124.134 279.249 124.023 279.312 123.897C279.374 123.77 279.408 123.631 279.41 123.49C279.409 123.354 279.378 123.219 279.318 123.097C279.258 122.974 279.172 122.867 279.065 122.782C278.577 122.477 278.029 122.281 277.458 122.206C276.394 122.03 275.387 121.608 274.515 120.973C274.229 120.734 274.001 120.433 273.847 120.093C273.694 119.753 273.619 119.382 273.628 119.009C273.63 118.482 273.788 117.967 274.083 117.529C274.418 117.035 274.893 116.654 275.448 116.435C276.244 116.137 277.092 116.002 277.942 116.038C278.983 115.971 280.019 116.222 280.914 116.757C281.269 117.032 281.561 117.38 281.771 117.778C281.981 118.175 282.103 118.613 282.129 119.061L279.169 119.234C279.132 118.85 278.956 118.494 278.673 118.232C278.372 118.011 278.004 117.901 277.631 117.921C277.337 117.901 277.046 117.984 276.807 118.157C276.719 118.224 276.648 118.312 276.6 118.412C276.552 118.512 276.528 118.622 276.531 118.733C276.535 118.817 276.558 118.9 276.598 118.975C276.638 119.049 276.693 119.114 276.761 119.165C277.078 119.368 277.436 119.498 277.809 119.545C278.825 119.728 279.817 120.027 280.764 120.438C281.296 120.692 281.745 121.091 282.06 121.589C282.33 122.044 282.469 122.564 282.463 123.093C282.467 123.734 282.278 124.362 281.922 124.895C281.553 125.452 281.028 125.887 280.413 126.145C279.635 126.455 278.801 126.6 277.965 126.571C276.237 126.571 275.041 126.239 274.377 125.575C273.695 124.884 273.292 123.965 273.248 122.995V122.995Z" fill="#A500FF"/>
</g>
<path d="M157.026 160.822H149.366L148.301 164.427H141.39L149.602 142.588H156.963L165.17 164.427H158.12L157.026 160.822ZM155.627 156.093L153.213 148.249L150.829 156.093H155.627Z" fill="white"/>
<path d="M167.422 142.588H177.449C179.084 142.526 180.714 142.798 182.24 143.388C183.421 143.896 184.457 144.687 185.258 145.692C186.069 146.728 186.657 147.92 186.986 149.194C187.35 150.575 187.53 151.998 187.522 153.427C187.599 155.271 187.329 157.113 186.727 158.858C186.235 160.083 185.48 161.186 184.515 162.089C183.659 162.905 182.614 163.499 181.474 163.817C180.161 164.183 178.806 164.377 177.443 164.392H167.422V142.588ZM174.172 147.529V159.445H175.825C176.852 159.513 177.881 159.35 178.837 158.967C179.478 158.6 179.973 158.022 180.236 157.332C180.642 156.112 180.814 154.826 180.743 153.542C180.743 151.238 180.359 149.653 179.591 148.785C178.831 147.932 177.581 147.506 175.83 147.506L174.172 147.529Z" fill="white"/>
<path d="M189.895 157.199L196.316 156.796C196.385 157.651 196.677 158.473 197.163 159.18C197.518 159.622 197.973 159.973 198.491 160.203C199.009 160.434 199.574 160.537 200.14 160.505C200.941 160.561 201.734 160.321 202.369 159.831C202.609 159.644 202.804 159.406 202.939 159.134C203.075 158.862 203.148 158.563 203.152 158.259C203.147 157.966 203.078 157.679 202.949 157.416C202.821 157.154 202.637 156.922 202.409 156.738C201.908 156.295 200.757 155.869 198.954 155.471C196.001 154.803 193.89 153.92 192.619 152.822C192.004 152.307 191.514 151.66 191.184 150.929C190.854 150.198 190.693 149.402 190.712 148.6C190.715 147.468 191.054 146.361 191.686 145.421C192.409 144.363 193.432 143.545 194.623 143.072C196.336 142.428 198.162 142.136 199.991 142.213C202.786 142.213 204.915 142.732 206.378 143.768C207.84 144.805 208.712 146.456 208.992 148.721L202.657 149.096C202.638 148.689 202.535 148.29 202.355 147.924C202.175 147.559 201.922 147.234 201.612 146.97C201.301 146.706 200.94 146.508 200.55 146.389C200.16 146.271 199.75 146.233 199.345 146.279C198.701 146.222 198.057 146.398 197.531 146.775C197.349 146.918 197.202 147.102 197.102 147.312C197.002 147.522 196.952 147.752 196.955 147.984C196.96 148.168 197.007 148.348 197.091 148.51C197.176 148.673 197.297 148.814 197.445 148.923C198.129 149.358 198.903 149.633 199.708 149.729C201.888 150.122 204.015 150.77 206.044 151.659C207.182 152.187 208.148 153.025 208.831 154.078C209.415 155.055 209.716 156.176 209.701 157.314C209.712 158.692 209.311 160.042 208.549 161.19C207.757 162.386 206.629 163.32 205.306 163.874C203.634 164.541 201.842 164.854 200.042 164.796C196.326 164.796 193.753 164.079 192.325 162.647C190.88 161.187 190.016 159.25 189.895 157.199Z" fill="white"/>
<path opacity="0.24" d="M106.097 162.164H53.6132C49.7009 162.164 46.5293 165.335 46.5293 169.247V219.635C46.5293 223.548 49.7009 226.719 53.6132 226.719H106.097C110.01 226.719 113.181 223.548 113.181 219.635V169.247C113.181 165.335 110.01 162.164 106.097 162.164Z" fill="#A500FF"/>
<path d="M102.261 157.977H49.7773C45.8649 157.977 42.6934 161.148 42.6934 165.06V215.448C42.6934 219.361 45.8649 222.532 49.7773 222.532H102.261C106.174 222.532 109.345 219.361 109.345 215.448V165.06C109.345 161.148 106.174 157.977 102.261 157.977Z" fill="white"/>
<path opacity="0.24" d="M83.9644 208.647V197.347C83.9644 196.909 83.9644 196.909 83.5382 196.909H76.4658C76.0396 196.909 76.0166 196.909 76.0166 196.466V188.103C76.0166 187.671 76.0166 187.66 76.4601 187.66H83.5324C83.9644 187.66 83.9644 187.66 83.9644 187.222C83.9644 184.988 83.9644 182.759 83.9644 180.53C83.9429 178.446 84.4166 176.388 85.3466 174.523C86.0219 173.198 86.9801 172.038 88.1535 171.124C89.3269 170.21 90.6867 169.566 92.1368 169.236C94.2216 168.695 96.3353 168.775 98.4432 168.844C99.716 168.885 100.989 168.983 102.256 169.069C103.074 169.132 102.924 169.127 102.924 169.772C102.924 172.19 102.924 174.611 102.924 177.034C102.924 177.443 102.924 177.466 102.498 177.466C101.035 177.466 99.572 177.437 98.1091 177.466C97.3963 177.474 96.6861 177.555 95.9897 177.708C95.3825 177.829 94.8304 178.142 94.4154 178.602C94.0004 179.062 93.7447 179.643 93.686 180.259C93.6062 180.77 93.5639 181.286 93.5593 181.803C93.5593 183.623 93.5593 185.442 93.5593 187.262C93.5593 187.585 93.6572 187.671 93.974 187.671C96.6866 187.671 99.405 187.671 102.118 187.671C102.624 187.671 102.624 187.671 102.555 188.195L101.501 196.391C101.438 196.909 101.438 196.921 100.925 196.921H94.0719C93.5881 196.921 93.5881 196.921 93.5881 197.399V219.785C93.5881 219.9 93.5881 220.015 93.5881 220.131C93.5881 220.355 93.5017 220.413 93.2886 220.413C90.2746 220.413 87.2644 220.413 84.2581 220.413C83.9298 220.413 83.9702 220.217 83.9702 220.021V208.647H83.9644Z" fill="#A500FF"/>
</g>
<defs>
<linearGradient id="paint0_linear" x1="189.255" y1="54.4538" x2="189.255" y2="178.215" gradientUnits="userSpaceOnUse">
<stop offset="0.12" stop-color="#010101" stop-opacity="0"/>
<stop offset="0.95" stop-color="#010101"/>
</linearGradient>
<linearGradient id="paint1_linear" x1="317.191" y1="248.478" x2="331.382" y2="248.478" gradientUnits="userSpaceOnUse">
<stop stop-color="#E5C6D6"/>
<stop offset="0.42" stop-color="#EAD4D0"/>
<stop offset="1" stop-color="#F0E9CB"/>
</linearGradient>
<linearGradient id="paint2_linear" x1="13392.6" y1="29013.4" x2="16370.5" y2="20142.8" gradientUnits="userSpaceOnUse">
<stop offset="0.12" stop-color="#010101" stop-opacity="0"/>
<stop offset="0.95" stop-color="#010101"/>
</linearGradient>
<linearGradient id="paint3_linear" x1="27787.9" y1="19461.4" x2="33909.1" y2="14911.2" gradientUnits="userSpaceOnUse">
<stop offset="0.12" stop-color="#010101" stop-opacity="0"/>
<stop offset="0.95" stop-color="#010101"/>
</linearGradient>
<linearGradient id="paint4_linear" x1="4821.89" y1="2556.42" x2="4927.26" y2="2537.47" gradientUnits="userSpaceOnUse">
<stop offset="0.12" stop-color="#010101" stop-opacity="0"/>
<stop offset="0.95" stop-color="#010101"/>
</linearGradient>
<linearGradient id="paint5_linear" x1="5003.12" y1="2987.02" x2="5125.9" y2="2987.02" gradientUnits="userSpaceOnUse">
<stop stop-color="#E5C6D6"/>
<stop offset="0.42" stop-color="#EAD4D0"/>
<stop offset="1" stop-color="#F0E9CB"/>
</linearGradient>
<linearGradient id="paint6_linear" x1="15177.7" y1="10370" x2="17856.6" y2="7800.78" gradientUnits="userSpaceOnUse">
<stop offset="0.12" stop-color="#010101" stop-opacity="0"/>
<stop offset="0.95" stop-color="#010101"/>
</linearGradient>
<linearGradient id="paint7_linear" x1="326.447" y1="104.813" x2="316.967" y2="80.4395" gradientUnits="userSpaceOnUse">
<stop stop-color="#010101" stop-opacity="0"/>
<stop offset="0.95" stop-color="#010101"/>
</linearGradient>
<linearGradient id="paint8_linear" x1="7401.38" y1="3455.12" x2="7673.66" y2="3455.12" gradientUnits="userSpaceOnUse">
<stop stop-color="#E5C6D6"/>
<stop offset="0.42" stop-color="#EAD4D0"/>
<stop offset="1" stop-color="#F0E9CB"/>
</linearGradient>
<linearGradient id="paint9_linear" x1="16233.4" y1="7290.35" x2="19085.4" y2="8279.28" gradientUnits="userSpaceOnUse">
<stop offset="0.12" stop-color="#010101" stop-opacity="0"/>
<stop offset="0.95" stop-color="#010101"/>
</linearGradient>
<linearGradient id="paint10_linear" x1="8905.25" y1="2724.28" x2="9258.65" y2="2724.28" gradientUnits="userSpaceOnUse">
<stop stop-color="#E5C6D6"/>
<stop offset="0.42" stop-color="#EAD4D0"/>
<stop offset="1" stop-color="#F0E9CB"/>
</linearGradient>
<linearGradient id="paint11_linear" x1="7213.91" y1="6644.34" x2="7485.45" y2="6644.34" gradientUnits="userSpaceOnUse">
<stop stop-color="#E5C6D6"/>
<stop offset="0.42" stop-color="#EAD4D0"/>
<stop offset="1" stop-color="#F0E9CB"/>
</linearGradient>
<linearGradient id="paint12_linear" x1="812.428" y1="680.42" x2="809.29" y2="913.286" gradientUnits="userSpaceOnUse">
<stop offset="0.12" stop-color="#010101" stop-opacity="0"/>
<stop offset="0.95" stop-color="#010101"/>
</linearGradient>
<linearGradient id="paint13_linear" x1="900.378" y1="680.42" x2="897.188" y2="913.286" gradientUnits="userSpaceOnUse">
<stop offset="0.12" stop-color="#010101" stop-opacity="0"/>
<stop offset="0.95" stop-color="#010101"/>
</linearGradient>
<linearGradient id="paint14_linear" x1="988.329" y1="680.42" x2="985.139" y2="913.286" gradientUnits="userSpaceOnUse">
<stop offset="0.12" stop-color="#010101" stop-opacity="0"/>
<stop offset="0.95" stop-color="#010101"/>
</linearGradient>
<clipPath id="clip0">
<rect width="390.789" height="300" fill="white"/>
</clipPath>
</defs>
</svg>
