<svg width="500" height="346" viewBox="0 0 500 346" fill="none" xmlns="http://www.w3.org/2000/svg">
<g filter="url(#filter0_d)">
<rect x="327" y="8" width="160.273" height="322" rx="13" fill="white" stroke="black" stroke-width="4"/>
<path d="M359.388 164.628L362.728 158.203H364.644L360.231 166.228V171H358.544V166.228L354.132 158.203H356.065L359.388 164.628ZM365.03 166.157C365.03 165.226 365.212 164.388 365.575 163.644C365.944 162.899 366.454 162.325 367.104 161.921C367.761 161.517 368.508 161.314 369.346 161.314C370.641 161.314 371.687 161.763 372.483 162.659C373.286 163.556 373.688 164.748 373.688 166.236V166.351C373.688 167.276 373.509 168.108 373.151 168.847C372.8 169.579 372.293 170.15 371.631 170.561C370.975 170.971 370.219 171.176 369.363 171.176C368.074 171.176 367.028 170.728 366.226 169.831C365.429 168.935 365.03 167.748 365.03 166.271V166.157ZM366.665 166.351C366.665 167.405 366.908 168.252 367.395 168.891C367.887 169.529 368.543 169.849 369.363 169.849C370.189 169.849 370.846 169.526 371.332 168.882C371.818 168.231 372.062 167.323 372.062 166.157C372.062 165.114 371.812 164.271 371.314 163.626C370.822 162.976 370.166 162.65 369.346 162.65C368.543 162.65 367.896 162.97 367.403 163.608C366.911 164.247 366.665 165.161 366.665 166.351ZM381.598 170.06C380.965 170.804 380.036 171.176 378.812 171.176C377.798 171.176 377.024 170.883 376.491 170.297C375.964 169.705 375.697 168.832 375.691 167.678V161.49H377.317V167.634C377.317 169.075 377.903 169.796 379.075 169.796C380.317 169.796 381.144 169.333 381.554 168.407V161.49H383.18V171H381.633L381.598 170.06ZM390.255 162.949C390.009 162.908 389.742 162.888 389.455 162.888C388.389 162.888 387.665 163.342 387.284 164.25V171H385.658V161.49H387.24L387.267 162.589C387.8 161.739 388.556 161.314 389.534 161.314C389.851 161.314 390.091 161.355 390.255 161.438V162.949ZM399.237 166.966L399.483 168.653L399.844 167.133L402.375 158.203H403.799L406.269 167.133L406.62 168.68L406.893 166.957L408.879 158.203H410.575L407.473 171H405.935L403.298 161.675L403.096 160.699L402.894 161.675L400.16 171H398.622L395.528 158.203H397.216L399.237 166.966ZM415.866 171.176C414.577 171.176 413.528 170.754 412.72 169.91C411.911 169.061 411.507 167.927 411.507 166.509V166.21C411.507 165.267 411.686 164.426 412.043 163.688C412.406 162.943 412.91 162.363 413.555 161.947C414.205 161.525 414.908 161.314 415.664 161.314C416.9 161.314 417.861 161.722 418.547 162.536C419.232 163.351 419.575 164.517 419.575 166.034V166.711H413.133C413.156 167.648 413.429 168.407 413.95 168.987C414.478 169.562 415.146 169.849 415.954 169.849C416.528 169.849 417.015 169.731 417.413 169.497C417.812 169.263 418.16 168.952 418.459 168.565L419.452 169.339C418.655 170.563 417.46 171.176 415.866 171.176ZM415.664 162.65C415.008 162.65 414.457 162.891 414.012 163.371C413.566 163.846 413.291 164.514 413.186 165.375H417.949V165.252C417.902 164.426 417.68 163.787 417.281 163.336C416.883 162.879 416.344 162.65 415.664 162.65ZM429.516 166.351C429.516 167.804 429.182 168.973 428.514 169.857C427.846 170.736 426.949 171.176 425.824 171.176C424.623 171.176 423.694 170.751 423.038 169.901L422.959 171H421.465V157.5H423.091V162.536C423.747 161.722 424.652 161.314 425.807 161.314C426.961 161.314 427.866 161.751 428.522 162.624C429.185 163.497 429.516 164.692 429.516 166.21V166.351ZM427.89 166.166C427.89 165.059 427.676 164.203 427.248 163.6C426.82 162.996 426.205 162.694 425.402 162.694C424.33 162.694 423.56 163.192 423.091 164.188V168.302C423.589 169.298 424.365 169.796 425.42 169.796C426.199 169.796 426.806 169.494 427.239 168.891C427.673 168.287 427.89 167.379 427.89 166.166ZM437.109 168.478C437.109 168.038 436.942 167.698 436.608 167.458C436.28 167.212 435.703 167.001 434.877 166.825C434.057 166.649 433.403 166.438 432.917 166.192C432.437 165.946 432.079 165.653 431.845 165.313C431.616 164.974 431.502 164.569 431.502 164.101C431.502 163.321 431.83 162.662 432.486 162.123C433.148 161.584 433.992 161.314 435.018 161.314C436.096 161.314 436.969 161.593 437.637 162.149C438.311 162.706 438.647 163.418 438.647 164.285H437.013C437.013 163.84 436.822 163.456 436.441 163.134C436.066 162.812 435.592 162.65 435.018 162.65C434.426 162.65 433.963 162.779 433.629 163.037C433.295 163.295 433.128 163.632 433.128 164.048C433.128 164.44 433.283 164.736 433.594 164.936C433.904 165.135 434.464 165.325 435.272 165.507C436.087 165.688 436.746 165.905 437.25 166.157C437.754 166.409 438.126 166.714 438.366 167.071C438.612 167.423 438.735 167.854 438.735 168.363C438.735 169.213 438.396 169.896 437.716 170.411C437.036 170.921 436.154 171.176 435.07 171.176C434.309 171.176 433.635 171.041 433.049 170.771C432.463 170.502 432.003 170.127 431.669 169.646C431.341 169.16 431.177 168.636 431.177 168.073H432.803C432.832 168.618 433.049 169.052 433.453 169.374C433.863 169.69 434.402 169.849 435.07 169.849C435.686 169.849 436.178 169.726 436.547 169.479C436.922 169.228 437.109 168.894 437.109 168.478ZM442.62 171H440.994V161.49H442.62V171ZM440.862 158.968C440.862 158.704 440.941 158.481 441.1 158.3C441.264 158.118 441.504 158.027 441.82 158.027C442.137 158.027 442.377 158.118 442.541 158.3C442.705 158.481 442.787 158.704 442.787 158.968C442.787 159.231 442.705 159.451 442.541 159.627C442.377 159.803 442.137 159.891 441.82 159.891C441.504 159.891 441.264 159.803 441.1 159.627C440.941 159.451 440.862 159.231 440.862 158.968ZM447.437 159.188V161.49H449.212V162.747H447.437V168.645C447.437 169.025 447.516 169.312 447.674 169.506C447.832 169.693 448.102 169.787 448.482 169.787C448.67 169.787 448.928 169.752 449.256 169.682V171C448.828 171.117 448.412 171.176 448.008 171.176C447.281 171.176 446.733 170.956 446.364 170.517C445.995 170.077 445.811 169.453 445.811 168.645V162.747H444.079V161.49H445.811V159.188H447.437ZM455.065 171.176C453.776 171.176 452.728 170.754 451.919 169.91C451.11 169.061 450.706 167.927 450.706 166.509V166.21C450.706 165.267 450.885 164.426 451.242 163.688C451.605 162.943 452.109 162.363 452.754 161.947C453.404 161.525 454.107 161.314 454.863 161.314C456.1 161.314 457.061 161.722 457.746 162.536C458.432 163.351 458.774 164.517 458.774 166.034V166.711H452.332C452.355 167.648 452.628 168.407 453.149 168.987C453.677 169.562 454.345 169.849 455.153 169.849C455.728 169.849 456.214 169.731 456.612 169.497C457.011 169.263 457.359 168.952 457.658 168.565L458.651 169.339C457.854 170.563 456.659 171.176 455.065 171.176ZM454.863 162.65C454.207 162.65 453.656 162.891 453.211 163.371C452.766 163.846 452.49 164.514 452.385 165.375H457.148V165.252C457.102 164.426 456.879 163.787 456.48 163.336C456.082 162.879 455.543 162.65 454.863 162.65Z" fill="#C4C4C4"/>
<rect x="372.117" y="317.992" width="70.0391" height="3.82031" rx="1.91016" fill="#C4C4C4"/>
<path d="M368.297 6H447.25V8.73438C447.25 14.2572 442.773 18.7344 437.25 18.7344H378.297C372.774 18.7344 368.297 14.2572 368.297 8.73438V6Z" fill="black"/>
<g clip-path="url(#clip0)">
<path d="M477.665 26.8412C478.286 27.4629 478.286 28.4707 477.665 29.0924C477.043 29.714 476.035 29.714 475.413 29.0924C474.792 28.4707 474.792 27.4629 475.413 26.8412C476.035 26.2196 477.043 26.2196 477.665 26.8412Z" fill="#97A3AF"/>
<path d="M477.665 31.6166C478.286 32.2382 478.286 33.2461 477.665 33.8677C477.043 34.4894 476.035 34.4894 475.413 33.8677C474.792 33.2461 474.792 32.2382 475.413 31.6166C476.035 30.995 477.043 30.995 477.665 31.6166" fill="#97A3AF"/>
<path d="M477.665 36.392C478.286 37.0136 478.286 38.0215 477.665 38.6431C477.043 39.2648 476.035 39.2648 475.413 38.6431C474.792 38.0215 474.792 37.0136 475.413 36.392C476.035 35.7704 477.043 35.7704 477.665 36.392" fill="#97A3AF"/>
</g>
<rect x="356.836" y="26.375" width="109.516" height="12.7344" fill="#F5F5F5"/>
<g clip-path="url(#clip1)">
<path d="M349.195 31.8326H340.099L343.283 28.6491L341.919 27.2847L336.461 32.7422L341.919 38.1998L343.283 36.8354L340.099 33.6518H349.195V31.8326Z" fill="#97A3AF"/>
</g>
</g>
<g filter="url(#filter1_d)">
<path d="M289.407 163.711L438.553 276.001L123.229 248.788L289.407 163.711Z" fill="#F5F5F5"/>
<circle cx="160" cy="158" r="150" fill="white"/>
<circle cx="160" cy="158" r="145" stroke="#2A94F4" stroke-opacity="0.3" stroke-width="10"/>
<g filter="url(#filter2_d)">
<rect x="196" y="217" width="48" height="49.0213" rx="24" fill="#2A94F4"/>
<path d="M228.242 232H221.211C220.242 232 219.453 232.789 219.453 233.758V238.445C219.453 239.415 220.242 240.203 221.211 240.203H221.797V241.961C221.797 242.483 222.431 242.742 222.797 242.375L224.969 240.203H228.242C229.211 240.203 230 239.415 230 238.445V233.758C230 232.789 229.211 232 228.242 232ZM226.899 235.344L224.555 237.688C224.326 237.917 223.955 237.917 223.726 237.688L222.554 236.516C222.326 236.287 222.326 235.916 222.554 235.687C222.783 235.458 223.154 235.458 223.383 235.687L224.141 236.445L226.07 234.515C226.299 234.287 226.67 234.287 226.899 234.515C227.128 234.744 227.128 235.115 226.899 235.344Z" fill="white"/>
<path d="M221.475 246.162C221.285 246.207 221.077 246.161 220.927 246.011L215.956 241.039C215.808 240.891 215.761 240.684 215.806 240.493L210.917 235.605C209.444 238.042 209.74 241.258 211.842 243.36L218.626 250.144C220.653 252.171 223.812 252.627 226.38 251.067L221.475 246.162Z" fill="white"/>
<path d="M217.194 237.04C217.172 237.015 216.905 236.725 214.461 234.276C213.777 233.593 212.703 233.534 211.842 234.395C211.76 234.477 211.704 234.573 211.628 234.658L216.761 239.791L216.979 239.67C217.852 239.02 217.911 237.755 217.194 237.04Z" fill="white"/>
<path d="M227.701 247.544L225.231 245.077C224.291 244.136 223.026 243.996 222.253 245.057L222.173 245.203L227.327 250.357C227.417 250.276 227.52 250.213 227.607 250.126C228.461 249.266 228.355 248.198 227.701 247.544Z" fill="white"/>
</g>
<rect x="442" y="269" width="35.25" height="36" rx="17.625" fill="#2A94F4"/>
<g clip-path="url(#clip2)">
<path d="M465.678 280.016H460.514C459.802 280.016 459.223 280.595 459.223 281.307V284.749C459.223 285.461 459.802 286.04 460.514 286.04H460.945V287.331C460.945 287.714 461.41 287.904 461.679 287.635L463.274 286.04H465.678C466.39 286.04 466.969 285.461 466.969 284.749V281.307C466.969 280.595 466.39 280.016 465.678 280.016ZM464.691 282.471L462.97 284.193C462.802 284.361 462.53 284.361 462.362 284.193L461.501 283.332C461.333 283.164 461.333 282.892 461.501 282.723C461.669 282.555 461.941 282.555 462.109 282.723L462.666 283.28L464.083 281.863C464.251 281.695 464.523 281.695 464.691 281.863C464.859 282.031 464.859 282.303 464.691 282.471Z" fill="white"/>
<path d="M460.708 290.416C460.568 290.449 460.416 290.415 460.306 290.305L456.655 286.654C456.546 286.545 456.512 286.393 456.545 286.253L452.955 282.663C451.873 284.453 452.09 286.814 453.634 288.358L458.616 293.34C460.104 294.829 462.424 295.163 464.31 294.018L460.708 290.416Z" fill="white"/>
<path d="M457.564 283.717C457.548 283.699 457.352 283.486 455.557 281.687C455.055 281.186 454.267 281.142 453.634 281.775C453.574 281.835 453.533 281.905 453.477 281.968L457.246 285.737L457.406 285.649C458.048 285.171 458.091 284.242 457.564 283.717Z" fill="white"/>
<path d="M465.28 291.431L463.466 289.619C462.776 288.928 461.847 288.825 461.279 289.605L461.22 289.712L465.006 293.497C465.072 293.437 465.148 293.391 465.211 293.327C465.839 292.696 465.761 291.911 465.28 291.431Z" fill="white"/>
</g>
<g filter="url(#filter3_d)">
<path d="M202.432 218.695L210.735 196.785L185.412 202.592L202.432 218.695Z" fill="white"/>
<rect x="74" y="64" width="168" height="139" rx="15" fill="white"/>
<path d="M101.875 89.3711H99.4102V91.3867H102.273V92H98.6602V86.3125H102.234V86.9297H99.4102V88.7578H101.875V89.3711ZM105.555 90.8789C105.555 90.6836 105.48 90.5326 105.332 90.4258C105.186 90.3164 104.93 90.2227 104.562 90.1445C104.198 90.0664 103.908 89.9727 103.691 89.8633C103.478 89.7539 103.319 89.6237 103.215 89.4727C103.113 89.3216 103.062 89.1419 103.062 88.9336C103.062 88.5872 103.208 88.2943 103.5 88.0547C103.794 87.8151 104.169 87.6953 104.625 87.6953C105.104 87.6953 105.492 87.819 105.789 88.0664C106.089 88.3138 106.238 88.6302 106.238 89.0156H105.512C105.512 88.8177 105.427 88.6471 105.258 88.5039C105.091 88.3607 104.88 88.2891 104.625 88.2891C104.362 88.2891 104.156 88.3464 104.008 88.4609C103.859 88.5755 103.785 88.7253 103.785 88.9102C103.785 89.0846 103.854 89.2161 103.992 89.3047C104.13 89.3932 104.379 89.4779 104.738 89.5586C105.1 89.6393 105.393 89.7357 105.617 89.8477C105.841 89.9596 106.007 90.0951 106.113 90.2539C106.223 90.4102 106.277 90.6016 106.277 90.8281C106.277 91.2057 106.126 91.5091 105.824 91.7383C105.522 91.9648 105.13 92.0781 104.648 92.0781C104.31 92.0781 104.01 92.0182 103.75 91.8984C103.49 91.7786 103.285 91.612 103.137 91.3984C102.991 91.1823 102.918 90.9492 102.918 90.6992H103.641C103.654 90.9414 103.75 91.1341 103.93 91.2773C104.112 91.418 104.352 91.4883 104.648 91.4883C104.922 91.4883 105.141 91.4336 105.305 91.3242C105.471 91.2122 105.555 91.0638 105.555 90.8789ZM108.914 91.4883C109.172 91.4883 109.397 91.4102 109.59 91.2539C109.783 91.0977 109.889 90.9023 109.91 90.668H110.594C110.581 90.9102 110.497 91.1406 110.344 91.3594C110.19 91.5781 109.984 91.7526 109.727 91.8828C109.471 92.013 109.201 92.0781 108.914 92.0781C108.339 92.0781 107.88 91.8867 107.539 91.5039C107.201 91.1185 107.031 90.5924 107.031 89.9258V89.8047C107.031 89.3932 107.107 89.0273 107.258 88.707C107.409 88.3867 107.625 88.138 107.906 87.9609C108.19 87.7839 108.525 87.6953 108.91 87.6953C109.384 87.6953 109.777 87.8372 110.09 88.1211C110.405 88.4049 110.573 88.7734 110.594 89.2266H109.91C109.889 88.9531 109.785 88.7292 109.598 88.5547C109.413 88.3776 109.184 88.2891 108.91 88.2891C108.543 88.2891 108.258 88.4219 108.055 88.6875C107.854 88.9505 107.754 89.332 107.754 89.832V89.9688C107.754 90.4557 107.854 90.8307 108.055 91.0938C108.255 91.3568 108.542 91.4883 108.914 91.4883ZM114.016 92C113.974 91.9167 113.94 91.7682 113.914 91.5547C113.578 91.9036 113.177 92.0781 112.711 92.0781C112.294 92.0781 111.952 91.9609 111.684 91.7266C111.418 91.4896 111.285 91.1901 111.285 90.8281C111.285 90.388 111.452 90.0469 111.785 89.8047C112.121 89.5599 112.592 89.4375 113.199 89.4375H113.902V89.1055C113.902 88.8529 113.827 88.6523 113.676 88.5039C113.525 88.3529 113.302 88.2773 113.008 88.2773C112.75 88.2773 112.534 88.3424 112.359 88.4727C112.185 88.6029 112.098 88.7604 112.098 88.9453H111.371C111.371 88.7344 111.445 88.5312 111.594 88.3359C111.745 88.138 111.948 87.9818 112.203 87.8672C112.461 87.7526 112.743 87.6953 113.051 87.6953C113.538 87.6953 113.919 87.8177 114.195 88.0625C114.471 88.3047 114.615 88.6393 114.625 89.0664V91.0117C114.625 91.3997 114.674 91.7083 114.773 91.9375V92H114.016ZM112.816 91.4492C113.043 91.4492 113.258 91.3906 113.461 91.2734C113.664 91.1562 113.811 91.0039 113.902 90.8164V89.9492H113.336C112.451 89.9492 112.008 90.2083 112.008 90.7266C112.008 90.9531 112.083 91.1302 112.234 91.2578C112.385 91.3854 112.579 91.4492 112.816 91.4492ZM116.441 87.7734L116.465 88.3047C116.788 87.8984 117.21 87.6953 117.73 87.6953C118.624 87.6953 119.074 88.1992 119.082 89.207V92H118.359V89.2031C118.357 88.8984 118.286 88.6732 118.148 88.5273C118.013 88.3815 117.801 88.3086 117.512 88.3086C117.277 88.3086 117.072 88.3711 116.895 88.4961C116.717 88.6211 116.579 88.7852 116.48 88.9883V92H115.758V87.7734H116.441ZM121.926 92.0781C121.353 92.0781 120.887 91.8906 120.527 91.5156C120.168 91.138 119.988 90.6341 119.988 90.0039V89.8711C119.988 89.4518 120.068 89.0781 120.227 88.75C120.388 88.4193 120.612 88.1615 120.898 87.9766C121.188 87.7891 121.5 87.6953 121.836 87.6953C122.385 87.6953 122.812 87.8763 123.117 88.2383C123.422 88.6003 123.574 89.1185 123.574 89.793V90.0938H120.711C120.721 90.5104 120.842 90.8477 121.074 91.1055C121.309 91.3607 121.605 91.4883 121.965 91.4883C122.22 91.4883 122.436 91.4362 122.613 91.332C122.79 91.2279 122.945 91.0898 123.078 90.918L123.52 91.2617C123.165 91.806 122.634 92.0781 121.926 92.0781ZM121.836 88.2891C121.544 88.2891 121.299 88.3958 121.102 88.6094C120.904 88.8203 120.781 89.1172 120.734 89.5H122.852V89.4453C122.831 89.0781 122.732 88.7943 122.555 88.5938C122.378 88.3906 122.138 88.2891 121.836 88.2891ZM127.023 92C126.982 91.9167 126.948 91.7682 126.922 91.5547C126.586 91.9036 126.185 92.0781 125.719 92.0781C125.302 92.0781 124.96 91.9609 124.691 91.7266C124.426 91.4896 124.293 91.1901 124.293 90.8281C124.293 90.388 124.46 90.0469 124.793 89.8047C125.129 89.5599 125.6 89.4375 126.207 89.4375H126.91V89.1055C126.91 88.8529 126.835 88.6523 126.684 88.5039C126.533 88.3529 126.31 88.2773 126.016 88.2773C125.758 88.2773 125.542 88.3424 125.367 88.4727C125.193 88.6029 125.105 88.7604 125.105 88.9453H124.379C124.379 88.7344 124.453 88.5312 124.602 88.3359C124.753 88.138 124.956 87.9818 125.211 87.8672C125.469 87.7526 125.751 87.6953 126.059 87.6953C126.546 87.6953 126.927 87.8177 127.203 88.0625C127.479 88.3047 127.622 88.6393 127.633 89.0664V91.0117C127.633 91.3997 127.682 91.7083 127.781 91.9375V92H127.023ZM125.824 91.4492C126.051 91.4492 126.266 91.3906 126.469 91.2734C126.672 91.1562 126.819 91.0039 126.91 90.8164V89.9492H126.344C125.458 89.9492 125.016 90.2083 125.016 90.7266C125.016 90.9531 125.091 91.1302 125.242 91.2578C125.393 91.3854 125.587 91.4492 125.824 91.4492ZM132.504 92.0781C131.931 92.0781 131.465 91.8906 131.105 91.5156C130.746 91.138 130.566 90.6341 130.566 90.0039V89.8711C130.566 89.4518 130.646 89.0781 130.805 88.75C130.966 88.4193 131.19 88.1615 131.477 87.9766C131.766 87.7891 132.078 87.6953 132.414 87.6953C132.964 87.6953 133.391 87.8763 133.695 88.2383C134 88.6003 134.152 89.1185 134.152 89.793V90.0938H131.289C131.299 90.5104 131.421 90.8477 131.652 91.1055C131.887 91.3607 132.184 91.4883 132.543 91.4883C132.798 91.4883 133.014 91.4362 133.191 91.332C133.368 91.2279 133.523 91.0898 133.656 90.918L134.098 91.2617C133.743 91.806 133.212 92.0781 132.504 92.0781ZM132.414 88.2891C132.122 88.2891 131.878 88.3958 131.68 88.6094C131.482 88.8203 131.359 89.1172 131.312 89.5H133.43V89.4453C133.409 89.0781 133.31 88.7943 133.133 88.5938C132.956 88.3906 132.716 88.2891 132.414 88.2891ZM135.777 92H135.055V86H135.777V92ZM140.617 91.4883C140.875 91.4883 141.1 91.4102 141.293 91.2539C141.486 91.0977 141.592 90.9023 141.613 90.668H142.297C142.284 90.9102 142.201 91.1406 142.047 91.3594C141.893 91.5781 141.688 91.7526 141.43 91.8828C141.174 92.013 140.904 92.0781 140.617 92.0781C140.042 92.0781 139.583 91.8867 139.242 91.5039C138.904 91.1185 138.734 90.5924 138.734 89.9258V89.8047C138.734 89.3932 138.81 89.0273 138.961 88.707C139.112 88.3867 139.328 88.138 139.609 87.9609C139.893 87.7839 140.228 87.6953 140.613 87.6953C141.087 87.6953 141.48 87.8372 141.793 88.1211C142.108 88.4049 142.276 88.7734 142.297 89.2266H141.613C141.592 88.9531 141.488 88.7292 141.301 88.5547C141.116 88.3776 140.887 88.2891 140.613 88.2891C140.246 88.2891 139.961 88.4219 139.758 88.6875C139.557 88.9505 139.457 89.332 139.457 89.832V89.9688C139.457 90.4557 139.557 90.8307 139.758 91.0938C139.958 91.3568 140.245 91.4883 140.617 91.4883ZM142.918 89.8477C142.918 89.4336 142.999 89.0612 143.16 88.7305C143.324 88.3997 143.551 88.1445 143.84 87.9648C144.132 87.7852 144.464 87.6953 144.836 87.6953C145.411 87.6953 145.876 87.8945 146.23 88.293C146.587 88.6914 146.766 89.2214 146.766 89.8828V89.9336C146.766 90.3451 146.686 90.7148 146.527 91.043C146.371 91.3685 146.146 91.6224 145.852 91.8047C145.56 91.987 145.224 92.0781 144.844 92.0781C144.271 92.0781 143.806 91.8789 143.449 91.4805C143.095 91.082 142.918 90.5547 142.918 89.8984V89.8477ZM143.645 89.9336C143.645 90.4023 143.753 90.7786 143.969 91.0625C144.188 91.3464 144.479 91.4883 144.844 91.4883C145.211 91.4883 145.503 91.3451 145.719 91.0586C145.935 90.7695 146.043 90.3659 146.043 89.8477C146.043 89.3841 145.932 89.0091 145.711 88.7227C145.492 88.4336 145.201 88.2891 144.836 88.2891C144.479 88.2891 144.191 88.431 143.973 88.7148C143.754 88.9987 143.645 89.4049 143.645 89.9336ZM147.496 89.8516C147.496 89.2031 147.65 88.6823 147.957 88.2891C148.264 87.8932 148.667 87.6953 149.164 87.6953C149.659 87.6953 150.051 87.8646 150.34 88.2031V86H151.062V92H150.398L150.363 91.5469C150.074 91.901 149.672 92.0781 149.156 92.0781C148.667 92.0781 148.267 91.8776 147.957 91.4766C147.65 91.0755 147.496 90.5521 147.496 89.9062V89.8516ZM148.219 89.9336C148.219 90.4128 148.318 90.7878 148.516 91.0586C148.714 91.3294 148.987 91.4648 149.336 91.4648C149.794 91.4648 150.129 91.2591 150.34 90.8477V88.9062C150.124 88.5078 149.792 88.3086 149.344 88.3086C148.99 88.3086 148.714 88.4453 148.516 88.7188C148.318 88.9922 148.219 89.3971 148.219 89.9336ZM152.973 92H152.25V87.7734H152.973V92ZM152.191 86.6523C152.191 86.5352 152.227 86.4362 152.297 86.3555C152.37 86.2747 152.477 86.2344 152.617 86.2344C152.758 86.2344 152.865 86.2747 152.938 86.3555C153.01 86.4362 153.047 86.5352 153.047 86.6523C153.047 86.7695 153.01 86.8672 152.938 86.9453C152.865 87.0234 152.758 87.0625 152.617 87.0625C152.477 87.0625 152.37 87.0234 152.297 86.9453C152.227 86.8672 152.191 86.7695 152.191 86.6523ZM153.961 89.8516C153.961 89.1927 154.113 88.6693 154.418 88.2812C154.723 87.8906 155.126 87.6953 155.629 87.6953C156.145 87.6953 156.547 87.8776 156.836 88.2422L156.871 87.7734H157.531V91.8984C157.531 92.4453 157.368 92.8763 157.043 93.1914C156.72 93.5065 156.285 93.6641 155.738 93.6641C155.434 93.6641 155.135 93.599 154.844 93.4688C154.552 93.3385 154.329 93.1602 154.176 92.9336L154.551 92.5C154.861 92.8828 155.24 93.0742 155.688 93.0742C156.039 93.0742 156.312 92.9753 156.508 92.7773C156.706 92.5794 156.805 92.3008 156.805 91.9414V91.5781C156.516 91.9115 156.121 92.0781 155.621 92.0781C155.126 92.0781 154.725 91.8789 154.418 91.4805C154.113 91.082 153.961 90.5391 153.961 89.8516ZM154.688 89.9336C154.688 90.4102 154.785 90.7852 154.98 91.0586C155.176 91.3294 155.449 91.4648 155.801 91.4648C156.257 91.4648 156.591 91.2578 156.805 90.8438V88.9141C156.583 88.5104 156.251 88.3086 155.809 88.3086C155.457 88.3086 155.182 88.4453 154.984 88.7188C154.786 88.9922 154.688 89.3971 154.688 89.9336ZM158.434 89.8477C158.434 89.4336 158.514 89.0612 158.676 88.7305C158.84 88.3997 159.066 88.1445 159.355 87.9648C159.647 87.7852 159.979 87.6953 160.352 87.6953C160.927 87.6953 161.392 87.8945 161.746 88.293C162.103 88.6914 162.281 89.2214 162.281 89.8828V89.9336C162.281 90.3451 162.202 90.7148 162.043 91.043C161.887 91.3685 161.661 91.6224 161.367 91.8047C161.076 91.987 160.74 92.0781 160.359 92.0781C159.786 92.0781 159.322 91.8789 158.965 91.4805C158.611 91.082 158.434 90.5547 158.434 89.8984V89.8477ZM159.16 89.9336C159.16 90.4023 159.268 90.7786 159.484 91.0625C159.703 91.3464 159.995 91.4883 160.359 91.4883C160.727 91.4883 161.018 91.3451 161.234 91.0586C161.451 90.7695 161.559 90.3659 161.559 89.8477C161.559 89.3841 161.448 89.0091 161.227 88.7227C161.008 88.4336 160.716 88.2891 160.352 88.2891C159.995 88.2891 159.707 88.431 159.488 88.7148C159.27 88.9987 159.16 89.4049 159.16 89.9336ZM164.996 89.8516C164.996 89.2031 165.15 88.6823 165.457 88.2891C165.764 87.8932 166.167 87.6953 166.664 87.6953C167.159 87.6953 167.551 87.8646 167.84 88.2031V86H168.562V92H167.898L167.863 91.5469C167.574 91.901 167.172 92.0781 166.656 92.0781C166.167 92.0781 165.767 91.8776 165.457 91.4766C165.15 91.0755 164.996 90.5521 164.996 89.9062V89.8516ZM165.719 89.9336C165.719 90.4128 165.818 90.7878 166.016 91.0586C166.214 91.3294 166.487 91.4648 166.836 91.4648C167.294 91.4648 167.629 91.2591 167.84 90.8477V88.9062C167.624 88.5078 167.292 88.3086 166.844 88.3086C166.49 88.3086 166.214 88.4453 166.016 88.7188C165.818 88.9922 165.719 89.3971 165.719 89.9336ZM171.441 92.0781C170.868 92.0781 170.402 91.8906 170.043 91.5156C169.684 91.138 169.504 90.6341 169.504 90.0039V89.8711C169.504 89.4518 169.583 89.0781 169.742 88.75C169.904 88.4193 170.128 88.1615 170.414 87.9766C170.703 87.7891 171.016 87.6953 171.352 87.6953C171.901 87.6953 172.328 87.8763 172.633 88.2383C172.938 88.6003 173.09 89.1185 173.09 89.793V90.0938H170.227C170.237 90.5104 170.358 90.8477 170.59 91.1055C170.824 91.3607 171.121 91.4883 171.48 91.4883C171.736 91.4883 171.952 91.4362 172.129 91.332C172.306 91.2279 172.461 91.0898 172.594 90.918L173.035 91.2617C172.681 91.806 172.15 92.0781 171.441 92.0781ZM171.352 88.2891C171.06 88.2891 170.815 88.3958 170.617 88.6094C170.419 88.8203 170.297 89.1172 170.25 89.5H172.367V89.4453C172.346 89.0781 172.247 88.7943 172.07 88.5938C171.893 88.3906 171.654 88.2891 171.352 88.2891ZM176.391 90.8789C176.391 90.6836 176.316 90.5326 176.168 90.4258C176.022 90.3164 175.766 90.2227 175.398 90.1445C175.034 90.0664 174.743 89.9727 174.527 89.8633C174.314 89.7539 174.155 89.6237 174.051 89.4727C173.949 89.3216 173.898 89.1419 173.898 88.9336C173.898 88.5872 174.044 88.2943 174.336 88.0547C174.63 87.8151 175.005 87.6953 175.461 87.6953C175.94 87.6953 176.328 87.819 176.625 88.0664C176.924 88.3138 177.074 88.6302 177.074 89.0156H176.348C176.348 88.8177 176.263 88.6471 176.094 88.5039C175.927 88.3607 175.716 88.2891 175.461 88.2891C175.198 88.2891 174.992 88.3464 174.844 88.4609C174.695 88.5755 174.621 88.7253 174.621 88.9102C174.621 89.0846 174.69 89.2161 174.828 89.3047C174.966 89.3932 175.215 89.4779 175.574 89.5586C175.936 89.6393 176.229 89.7357 176.453 89.8477C176.677 89.9596 176.842 90.0951 176.949 90.2539C177.059 90.4102 177.113 90.6016 177.113 90.8281C177.113 91.2057 176.962 91.5091 176.66 91.7383C176.358 91.9648 175.966 92.0781 175.484 92.0781C175.146 92.0781 174.846 92.0182 174.586 91.8984C174.326 91.7786 174.121 91.612 173.973 91.3984C173.827 91.1823 173.754 90.9492 173.754 90.6992H174.477C174.49 90.9414 174.586 91.1341 174.766 91.2773C174.948 91.418 175.188 91.4883 175.484 91.4883C175.758 91.4883 175.977 91.4336 176.141 91.3242C176.307 91.2122 176.391 91.0638 176.391 90.8789ZM177.879 89.8516C177.879 89.2031 178.033 88.6823 178.34 88.2891C178.647 87.8932 179.049 87.6953 179.547 87.6953C180.042 87.6953 180.434 87.8646 180.723 88.2031V86H181.445V92H180.781L180.746 91.5469C180.457 91.901 180.055 92.0781 179.539 92.0781C179.049 92.0781 178.65 91.8776 178.34 91.4766C178.033 91.0755 177.879 90.5521 177.879 89.9062V89.8516ZM178.602 89.9336C178.602 90.4128 178.701 90.7878 178.898 91.0586C179.096 91.3294 179.37 91.4648 179.719 91.4648C180.177 91.4648 180.512 91.2591 180.723 90.8477V88.9062C180.507 88.5078 180.174 88.3086 179.727 88.3086C179.372 88.3086 179.096 88.4453 178.898 88.7188C178.701 88.9922 178.602 89.3971 178.602 89.9336ZM184.324 92.0781C183.751 92.0781 183.285 91.8906 182.926 91.5156C182.566 91.138 182.387 90.6341 182.387 90.0039V89.8711C182.387 89.4518 182.466 89.0781 182.625 88.75C182.786 88.4193 183.01 88.1615 183.297 87.9766C183.586 87.7891 183.898 87.6953 184.234 87.6953C184.784 87.6953 185.211 87.8763 185.516 88.2383C185.82 88.6003 185.973 89.1185 185.973 89.793V90.0938H183.109C183.12 90.5104 183.241 90.8477 183.473 91.1055C183.707 91.3607 184.004 91.4883 184.363 91.4883C184.618 91.4883 184.835 91.4362 185.012 91.332C185.189 91.2279 185.344 91.0898 185.477 90.918L185.918 91.2617C185.564 91.806 185.033 92.0781 184.324 92.0781ZM184.234 88.2891C183.943 88.2891 183.698 88.3958 183.5 88.6094C183.302 88.8203 183.18 89.1172 183.133 89.5H185.25V89.4453C185.229 89.0781 185.13 88.7943 184.953 88.5938C184.776 88.3906 184.536 88.2891 184.234 88.2891ZM189.777 86.75V87.7734H190.566V88.332H189.777V90.9531C189.777 91.1224 189.812 91.25 189.883 91.3359C189.953 91.4193 190.073 91.4609 190.242 91.4609C190.326 91.4609 190.44 91.4453 190.586 91.4141V92C190.396 92.0521 190.211 92.0781 190.031 92.0781C189.708 92.0781 189.465 91.9805 189.301 91.7852C189.137 91.5898 189.055 91.3125 189.055 90.9531V88.332H188.285V87.7734H189.055V86.75H189.777ZM194.023 91.582C193.742 91.9128 193.329 92.0781 192.785 92.0781C192.335 92.0781 191.991 91.9479 191.754 91.6875C191.52 91.4245 191.401 91.0365 191.398 90.5234V87.7734H192.121V90.5039C192.121 91.1445 192.382 91.4648 192.902 91.4648C193.454 91.4648 193.822 91.2591 194.004 90.8477V87.7734H194.727V92H194.039L194.023 91.582ZM198.492 87.7734L198.512 88.2422C198.822 87.8776 199.24 87.6953 199.766 87.6953C200.357 87.6953 200.759 87.9219 200.973 88.375C201.113 88.1719 201.296 88.0078 201.52 87.8828C201.746 87.7578 202.013 87.6953 202.32 87.6953C203.247 87.6953 203.719 88.1862 203.734 89.168V92H203.012V89.2109C203.012 88.9089 202.943 88.6836 202.805 88.5352C202.667 88.3841 202.435 88.3086 202.109 88.3086C201.841 88.3086 201.618 88.3893 201.441 88.5508C201.264 88.7096 201.161 88.9245 201.133 89.1953V92H200.406V89.2305C200.406 88.6159 200.105 88.3086 199.504 88.3086C199.03 88.3086 198.706 88.5104 198.531 88.9141V92H197.809V87.7734H198.492ZM204.637 89.8477C204.637 89.4336 204.717 89.0612 204.879 88.7305C205.043 88.3997 205.27 88.1445 205.559 87.9648C205.85 87.7852 206.182 87.6953 206.555 87.6953C207.13 87.6953 207.595 87.8945 207.949 88.293C208.306 88.6914 208.484 89.2214 208.484 89.8828V89.9336C208.484 90.3451 208.405 90.7148 208.246 91.043C208.09 91.3685 207.865 91.6224 207.57 91.8047C207.279 91.987 206.943 92.0781 206.562 92.0781C205.99 92.0781 205.525 91.8789 205.168 91.4805C204.814 91.082 204.637 90.5547 204.637 89.8984V89.8477ZM205.363 89.9336C205.363 90.4023 205.471 90.7786 205.688 91.0625C205.906 91.3464 206.198 91.4883 206.562 91.4883C206.93 91.4883 207.221 91.3451 207.438 91.0586C207.654 90.7695 207.762 90.3659 207.762 89.8477C207.762 89.3841 207.651 89.0091 207.43 88.7227C207.211 88.4336 206.919 88.2891 206.555 88.2891C206.198 88.2891 205.91 88.431 205.691 88.7148C205.473 88.9987 205.363 89.4049 205.363 89.9336ZM210.723 91.0195L211.77 87.7734H212.508L210.992 92H210.441L208.91 87.7734H209.648L210.723 91.0195ZM213.988 92H213.266V87.7734H213.988V92ZM213.207 86.6523C213.207 86.5352 213.242 86.4362 213.312 86.3555C213.385 86.2747 213.492 86.2344 213.633 86.2344C213.773 86.2344 213.88 86.2747 213.953 86.3555C214.026 86.4362 214.062 86.5352 214.062 86.6523C214.062 86.7695 214.026 86.8672 213.953 86.9453C213.88 87.0234 213.773 87.0625 213.633 87.0625C213.492 87.0625 213.385 87.0234 213.312 86.9453C213.242 86.8672 213.207 86.7695 213.207 86.6523ZM215.934 92H215.211V86H215.934V92Z" fill="black"/>
<rect x="99" y="150.023" width="117.156" height="30.5625" rx="15.2812" fill="#0F8DFF"/>
<path d="M143.123 165.214H146.233V166.391H141.658V159.281H143.123V165.214ZM148.475 166.391H147.059V158.891H148.475V166.391ZM152.703 166.391C152.638 166.264 152.591 166.106 152.562 165.917C152.22 166.298 151.775 166.488 151.229 166.488C150.711 166.488 150.281 166.339 149.939 166.039C149.601 165.74 149.432 165.362 149.432 164.906C149.432 164.346 149.638 163.917 150.052 163.617C150.468 163.318 151.069 163.166 151.854 163.163H152.503V162.86C152.503 162.616 152.439 162.421 152.312 162.274C152.189 162.128 151.992 162.055 151.722 162.055C151.484 162.055 151.297 162.112 151.16 162.226C151.027 162.34 150.96 162.496 150.96 162.694H149.549C149.549 162.388 149.643 162.105 149.832 161.845C150.021 161.584 150.288 161.381 150.633 161.234C150.978 161.085 151.365 161.01 151.795 161.01C152.446 161.01 152.962 161.174 153.343 161.503C153.727 161.828 153.919 162.287 153.919 162.88V165.17C153.922 165.671 153.992 166.05 154.129 166.308V166.391H152.703ZM151.536 165.409C151.744 165.409 151.937 165.364 152.112 165.272C152.288 165.178 152.418 165.053 152.503 164.896V163.988H151.976C151.269 163.988 150.893 164.232 150.848 164.721L150.843 164.804C150.843 164.979 150.905 165.124 151.028 165.238C151.152 165.352 151.321 165.409 151.536 165.409ZM156.326 161.107L156.37 161.698C156.744 161.239 157.251 161.01 157.889 161.01C158.569 161.01 159.036 161.278 159.29 161.815C159.661 161.278 160.19 161.01 160.877 161.01C161.45 161.01 161.876 161.177 162.156 161.513C162.436 161.845 162.576 162.346 162.576 163.017V166.391H161.16V163.021C161.16 162.722 161.102 162.504 160.984 162.367C160.867 162.227 160.66 162.157 160.364 162.157C159.941 162.157 159.648 162.359 159.485 162.763L159.49 166.391H158.079V163.026C158.079 162.72 158.019 162.499 157.898 162.362C157.778 162.226 157.573 162.157 157.283 162.157C156.883 162.157 156.593 162.323 156.414 162.655V166.391H155.003V161.107H156.326ZM166.727 166.391C166.661 166.264 166.614 166.106 166.585 165.917C166.243 166.298 165.799 166.488 165.252 166.488C164.734 166.488 164.305 166.339 163.963 166.039C163.624 165.74 163.455 165.362 163.455 164.906C163.455 164.346 163.662 163.917 164.075 163.617C164.492 163.318 165.092 163.166 165.877 163.163H166.526V162.86C166.526 162.616 166.463 162.421 166.336 162.274C166.212 162.128 166.015 162.055 165.745 162.055C165.507 162.055 165.32 162.112 165.184 162.226C165.05 162.34 164.983 162.496 164.983 162.694H163.572C163.572 162.388 163.667 162.105 163.855 161.845C164.044 161.584 164.311 161.381 164.656 161.234C165.001 161.085 165.389 161.01 165.818 161.01C166.469 161.01 166.985 161.174 167.366 161.503C167.75 161.828 167.942 162.287 167.942 162.88V165.17C167.946 165.671 168.016 166.05 168.152 166.308V166.391H166.727ZM165.56 165.409C165.768 165.409 165.96 165.364 166.136 165.272C166.312 165.178 166.442 165.053 166.526 164.896V163.988H165.999C165.293 163.988 164.917 164.232 164.871 164.721L164.866 164.804C164.866 164.979 164.928 165.124 165.052 165.238C165.175 165.352 165.345 165.409 165.56 165.409ZM170.325 161.107L170.369 161.718C170.747 161.246 171.253 161.01 171.888 161.01C172.448 161.01 172.864 161.174 173.138 161.503C173.411 161.832 173.551 162.323 173.558 162.978V166.391H172.146V163.012C172.146 162.712 172.081 162.496 171.951 162.362C171.821 162.226 171.604 162.157 171.302 162.157C170.905 162.157 170.607 162.326 170.408 162.665V166.391H168.997V161.107H170.325ZM174.412 163.7C174.412 163.176 174.513 162.709 174.715 162.299C174.917 161.889 175.206 161.571 175.584 161.347C175.965 161.122 176.406 161.01 176.907 161.01C177.62 161.01 178.201 161.228 178.65 161.664C179.103 162.1 179.355 162.693 179.407 163.441L179.417 163.803C179.417 164.613 179.191 165.264 178.738 165.756C178.286 166.244 177.679 166.488 176.917 166.488C176.155 166.488 175.547 166.244 175.091 165.756C174.638 165.268 174.412 164.604 174.412 163.764V163.7ZM175.823 163.803C175.823 164.304 175.918 164.688 176.106 164.955C176.295 165.219 176.565 165.351 176.917 165.351C177.259 165.351 177.526 165.22 177.718 164.96C177.91 164.696 178.006 164.276 178.006 163.7C178.006 163.209 177.91 162.828 177.718 162.558C177.526 162.287 177.256 162.152 176.907 162.152C176.562 162.152 176.295 162.287 176.106 162.558C175.918 162.825 175.823 163.24 175.823 163.803ZM183.147 164.931C183.147 164.758 183.061 164.623 182.889 164.525C182.719 164.424 182.446 164.335 182.068 164.257C180.812 163.993 180.184 163.459 180.184 162.655C180.184 162.187 180.377 161.796 180.765 161.483C181.155 161.168 181.665 161.01 182.293 161.01C182.964 161.01 183.499 161.168 183.899 161.483C184.303 161.799 184.505 162.209 184.505 162.714H183.094C183.094 162.512 183.029 162.346 182.898 162.216C182.768 162.082 182.565 162.016 182.288 162.016C182.05 162.016 181.867 162.069 181.736 162.177C181.606 162.284 181.541 162.421 181.541 162.587C181.541 162.743 181.614 162.87 181.761 162.968C181.91 163.062 182.161 163.145 182.513 163.217C182.864 163.285 183.16 163.363 183.401 163.451C184.147 163.725 184.52 164.198 184.52 164.872C184.52 165.354 184.313 165.744 183.899 166.044C183.486 166.34 182.952 166.488 182.298 166.488C181.855 166.488 181.461 166.41 181.116 166.254C180.774 166.094 180.506 165.878 180.311 165.604C180.115 165.328 180.018 165.03 180.018 164.711H181.355C181.368 164.962 181.461 165.154 181.634 165.287C181.806 165.421 182.037 165.487 182.327 165.487C182.597 165.487 182.801 165.437 182.938 165.336C183.077 165.232 183.147 165.097 183.147 164.931Z" fill="white"/>
<g clip-path="url(#clip3)">
<path d="M128.464 167.538C128.128 167.799 127.651 167.777 127.345 167.471L124.853 164.979C124.547 164.673 124.524 164.188 124.785 163.859L121.629 160.696C120.256 162.278 120.331 164.68 121.831 166.18L126.143 170.493C127.672 172.022 130.102 172.037 131.628 170.694L128.464 167.538Z" fill="white"/>
<path d="M125.569 161.479L123.987 159.89C123.569 159.472 122.83 159.472 122.405 159.89L122.144 160.158L125.308 163.322L125.569 163.061C125.785 162.844 125.897 162.568 125.897 162.27C125.897 161.971 125.785 161.688 125.569 161.479Z" fill="white"/>
<path d="M132.434 168.336L130.844 166.754C130.426 166.329 129.688 166.329 129.262 166.754L129.001 167.016L132.165 170.179L132.434 169.918C132.642 169.709 132.754 169.426 132.754 169.127C132.754 168.829 132.642 168.545 132.434 168.336Z" fill="white"/>
<path d="M127.039 158.938C126.547 158.938 126.545 159.679 127.039 159.679C130.125 159.679 132.64 162.194 132.64 165.28C132.64 165.772 133.381 165.774 133.381 165.28C133.381 161.783 130.536 158.938 127.039 158.938Z" fill="white"/>
<path d="M127.039 160.43C126.547 160.43 126.545 161.171 127.039 161.171C129.302 161.171 131.148 163.017 131.148 165.28C131.148 165.771 131.889 165.773 131.889 165.28C131.889 162.605 129.713 160.43 127.039 160.43Z" fill="white"/>
<path d="M127.039 161.922C126.547 161.922 126.545 162.663 127.039 162.663C128.479 162.663 129.655 163.84 129.655 165.28C129.655 165.771 130.396 165.773 130.396 165.28C130.396 163.428 128.89 161.922 127.039 161.922Z" fill="white"/>
<path d="M127.039 163.415C126.547 163.415 126.545 164.161 127.039 164.161C127.656 164.161 128.158 164.663 128.158 165.28C128.158 165.772 128.904 165.774 128.904 165.28C128.904 164.251 128.067 163.415 127.039 163.415Z" fill="white"/>
</g>
<rect x="99" y="108" width="117.156" height="30.5625" rx="15.2812" fill="#29DA65"/>
<path d="M144.648 124.316L145.605 119.258H147.065L145.488 126.367H144.014L142.856 121.611L141.699 126.367H140.225L138.647 119.258H140.107L141.069 124.307L142.241 119.258H143.481L144.648 124.316ZM149.146 121.66C149.52 121.211 149.99 120.986 150.557 120.986C151.702 120.986 152.284 121.652 152.3 122.983V126.367H150.889V123.022C150.889 122.72 150.824 122.497 150.693 122.354C150.563 122.207 150.347 122.134 150.044 122.134C149.631 122.134 149.331 122.293 149.146 122.612V126.367H147.734V118.867H149.146V121.66ZM156.426 126.367C156.361 126.24 156.313 126.082 156.284 125.894C155.942 126.274 155.498 126.465 154.951 126.465C154.434 126.465 154.004 126.315 153.662 126.016C153.324 125.716 153.154 125.339 153.154 124.883C153.154 124.323 153.361 123.893 153.774 123.594C154.191 123.294 154.792 123.143 155.576 123.14H156.226V122.837C156.226 122.593 156.162 122.397 156.035 122.251C155.911 122.104 155.715 122.031 155.444 122.031C155.207 122.031 155.02 122.088 154.883 122.202C154.749 122.316 154.683 122.472 154.683 122.671H153.271C153.271 122.365 153.366 122.082 153.555 121.821C153.743 121.561 154.01 121.357 154.355 121.211C154.701 121.061 155.088 120.986 155.518 120.986C156.169 120.986 156.685 121.151 157.065 121.479C157.45 121.805 157.642 122.264 157.642 122.856V125.146C157.645 125.648 157.715 126.027 157.852 126.284V126.367H156.426ZM155.259 125.386C155.467 125.386 155.659 125.34 155.835 125.249C156.011 125.155 156.141 125.029 156.226 124.873V123.965H155.698C154.992 123.965 154.616 124.209 154.57 124.697L154.565 124.78C154.565 124.956 154.627 125.101 154.751 125.215C154.875 125.329 155.044 125.386 155.259 125.386ZM160.415 119.785V121.084H161.318V122.119H160.415V124.756C160.415 124.951 160.452 125.091 160.527 125.176C160.602 125.26 160.745 125.303 160.957 125.303C161.113 125.303 161.252 125.291 161.372 125.269V126.338C161.095 126.423 160.811 126.465 160.518 126.465C159.528 126.465 159.023 125.965 159.004 124.966V122.119H158.232V121.084H159.004V119.785H160.415ZM164.966 124.907C164.966 124.735 164.88 124.6 164.707 124.502C164.538 124.401 164.264 124.312 163.887 124.233C162.63 123.97 162.002 123.436 162.002 122.632C162.002 122.163 162.196 121.772 162.583 121.46C162.974 121.144 163.483 120.986 164.111 120.986C164.782 120.986 165.317 121.144 165.718 121.46C166.121 121.776 166.323 122.186 166.323 122.69H164.912C164.912 122.489 164.847 122.323 164.717 122.192C164.587 122.059 164.383 121.992 164.106 121.992C163.869 121.992 163.685 122.046 163.555 122.153C163.424 122.261 163.359 122.397 163.359 122.563C163.359 122.72 163.433 122.847 163.579 122.944C163.729 123.039 163.979 123.122 164.331 123.193C164.683 123.262 164.979 123.34 165.22 123.428C165.965 123.701 166.338 124.175 166.338 124.849C166.338 125.33 166.131 125.721 165.718 126.021C165.304 126.317 164.771 126.465 164.116 126.465C163.674 126.465 163.28 126.387 162.935 126.23C162.593 126.071 162.324 125.854 162.129 125.581C161.934 125.304 161.836 125.007 161.836 124.688H163.174C163.187 124.938 163.28 125.13 163.452 125.264C163.625 125.397 163.856 125.464 164.146 125.464C164.416 125.464 164.619 125.413 164.756 125.312C164.896 125.208 164.966 125.073 164.966 124.907ZM170.312 126.367C170.247 126.24 170.2 126.082 170.171 125.894C169.829 126.274 169.385 126.465 168.838 126.465C168.32 126.465 167.891 126.315 167.549 126.016C167.21 125.716 167.041 125.339 167.041 124.883C167.041 124.323 167.248 123.893 167.661 123.594C168.078 123.294 168.678 123.143 169.463 123.14H170.112V122.837C170.112 122.593 170.049 122.397 169.922 122.251C169.798 122.104 169.601 122.031 169.331 122.031C169.093 122.031 168.906 122.088 168.77 122.202C168.636 122.316 168.569 122.472 168.569 122.671H167.158C167.158 122.365 167.253 122.082 167.441 121.821C167.63 121.561 167.897 121.357 168.242 121.211C168.587 121.061 168.975 120.986 169.404 120.986C170.055 120.986 170.571 121.151 170.952 121.479C171.336 121.805 171.528 122.264 171.528 122.856V125.146C171.532 125.648 171.602 126.027 171.738 126.284V126.367H170.312ZM169.146 125.386C169.354 125.386 169.546 125.34 169.722 125.249C169.897 125.155 170.028 125.029 170.112 124.873V123.965H169.585C168.879 123.965 168.503 124.209 168.457 124.697L168.452 124.78C168.452 124.956 168.514 125.101 168.638 125.215C168.761 125.329 168.931 125.386 169.146 125.386ZM177.368 123.774C177.368 124.588 177.183 125.241 176.812 125.732C176.444 126.221 175.946 126.465 175.317 126.465C174.784 126.465 174.352 126.279 174.023 125.908V128.398H172.612V121.084H173.921L173.97 121.602C174.312 121.191 174.757 120.986 175.308 120.986C175.959 120.986 176.465 121.227 176.826 121.709C177.188 122.191 177.368 122.855 177.368 123.701V123.774ZM175.957 123.672C175.957 123.18 175.869 122.801 175.693 122.534C175.521 122.267 175.269 122.134 174.937 122.134C174.494 122.134 174.189 122.303 174.023 122.642V124.805C174.196 125.153 174.504 125.327 174.946 125.327C175.62 125.327 175.957 124.775 175.957 123.672ZM183.003 123.774C183.003 124.588 182.817 125.241 182.446 125.732C182.078 126.221 181.58 126.465 180.952 126.465C180.418 126.465 179.987 126.279 179.658 125.908V128.398H178.247V121.084H179.556L179.604 121.602C179.946 121.191 180.392 120.986 180.942 120.986C181.593 120.986 182.1 121.227 182.461 121.709C182.822 122.191 183.003 122.855 183.003 123.701V123.774ZM181.592 123.672C181.592 123.18 181.504 122.801 181.328 122.534C181.156 122.267 180.903 122.134 180.571 122.134C180.129 122.134 179.824 122.303 179.658 122.642V124.805C179.831 125.153 180.138 125.327 180.581 125.327C181.255 125.327 181.592 124.775 181.592 123.672Z" fill="white"/>
<path d="M124.47 116.914H124.467C120.956 116.914 118.102 119.77 118.102 123.281C118.102 124.674 118.55 125.965 119.314 127.013L118.52 129.379L120.968 128.596C121.974 129.263 123.175 129.648 124.47 129.648C127.981 129.648 130.836 126.792 130.836 123.281C130.836 119.771 127.981 116.914 124.47 116.914ZM128.175 125.905C128.022 126.339 127.412 126.699 126.926 126.804C126.593 126.875 126.158 126.931 124.696 126.325C122.824 125.55 121.619 123.648 121.526 123.525C121.436 123.401 120.769 122.518 120.769 121.604C120.769 120.691 121.233 120.246 121.42 120.055C121.574 119.898 121.828 119.826 122.072 119.826C122.15 119.826 122.221 119.83 122.285 119.833C122.472 119.841 122.566 119.853 122.689 120.148C122.843 120.518 123.217 121.432 123.261 121.525C123.307 121.619 123.352 121.747 123.288 121.87C123.229 121.997 123.176 122.054 123.082 122.162C122.988 122.27 122.899 122.353 122.805 122.469C122.719 122.571 122.622 122.679 122.731 122.866C122.839 123.049 123.213 123.659 123.764 124.15C124.474 124.782 125.051 124.984 125.257 125.07C125.41 125.134 125.593 125.119 125.706 125C125.848 124.846 126.024 124.591 126.203 124.341C126.33 124.161 126.491 124.138 126.66 124.202C126.832 124.262 127.741 124.711 127.929 124.805C128.116 124.899 128.239 124.943 128.284 125.022C128.329 125.101 128.329 125.471 128.175 125.905Z" fill="white"/>
</g>
</g>
<defs>
<filter id="filter0_d" x="315" y="0" width="184.273" height="346" filterUnits="userSpaceOnUse" color-interpolation-filters="sRGB">
<feFlood flood-opacity="0" result="BackgroundImageFix"/>
<feColorMatrix in="SourceAlpha" type="matrix" values="0 0 0 0 0 0 0 0 0 0 0 0 0 0 0 0 0 0 127 0"/>
<feOffset dy="4"/>
<feGaussianBlur stdDeviation="5"/>
<feColorMatrix type="matrix" values="0 0 0 0 0 0 0 0 0 0 0 0 0 0 0 0 0 0 0.25 0"/>
<feBlend mode="normal" in2="BackgroundImageFix" result="effect1_dropShadow"/>
<feBlend mode="normal" in="SourceGraphic" in2="effect1_dropShadow" result="shape"/>
</filter>
<filter id="filter1_d" x="0" y="2" width="487.25" height="320" filterUnits="userSpaceOnUse" color-interpolation-filters="sRGB">
<feFlood flood-opacity="0" result="BackgroundImageFix"/>
<feColorMatrix in="SourceAlpha" type="matrix" values="0 0 0 0 0 0 0 0 0 0 0 0 0 0 0 0 0 0 127 0"/>
<feOffset dy="4"/>
<feGaussianBlur stdDeviation="5"/>
<feColorMatrix type="matrix" values="0 0 0 0 0 0 0 0 0 0 0 0 0 0 0 0 0 0 0.25 0"/>
<feBlend mode="normal" in2="BackgroundImageFix" result="effect1_dropShadow"/>
<feBlend mode="normal" in="SourceGraphic" in2="effect1_dropShadow" result="shape"/>
</filter>
<filter id="filter2_d" x="194" y="217" width="52" height="53.0213" filterUnits="userSpaceOnUse" color-interpolation-filters="sRGB">
<feFlood flood-opacity="0" result="BackgroundImageFix"/>
<feColorMatrix in="SourceAlpha" type="matrix" values="0 0 0 0 0 0 0 0 0 0 0 0 0 0 0 0 0 0 127 0"/>
<feOffset dy="2"/>
<feGaussianBlur stdDeviation="1"/>
<feColorMatrix type="matrix" values="0 0 0 0 0 0 0 0 0 0 0 0 0 0 0 0 0 0 0.15 0"/>
<feBlend mode="normal" in2="BackgroundImageFix" result="effect1_dropShadow"/>
<feBlend mode="normal" in="SourceGraphic" in2="effect1_dropShadow" result="shape"/>
</filter>
<filter id="filter3_d" x="64" y="58" width="188" height="177.599" filterUnits="userSpaceOnUse" color-interpolation-filters="sRGB">
<feFlood flood-opacity="0" result="BackgroundImageFix"/>
<feColorMatrix in="SourceAlpha" type="matrix" values="0 0 0 0 0 0 0 0 0 0 0 0 0 0 0 0 0 0 127 0"/>
<feOffset dy="4"/>
<feGaussianBlur stdDeviation="5"/>
<feColorMatrix type="matrix" values="0 0 0 0 0 0 0 0 0 0 0 0 0 0 0 0 0 0 0.25 0"/>
<feBlend mode="normal" in2="BackgroundImageFix" result="effect1_dropShadow"/>
<feBlend mode="normal" in="SourceGraphic" in2="effect1_dropShadow" result="shape"/>
</filter>
<clipPath id="clip0">
<rect width="12.7344" height="12.7344" fill="white" transform="translate(470.172 26.375)"/>
</clipPath>
<clipPath id="clip1">
<rect width="12.7344" height="12.7344" fill="white" transform="translate(336.461 26.375)"/>
</clipPath>
<clipPath id="clip2">
<rect width="14.6875" height="14.6875" fill="white" transform="translate(452.281 280.016)"/>
</clipPath>
<clipPath id="clip3">
<rect width="12.7344" height="12.7344" fill="white" transform="translate(120.648 158.938)"/>
</clipPath>
</defs>
</svg>
