<svg width="620" height="365" viewBox="0 0 620 365" fill="none" xmlns="http://www.w3.org/2000/svg">
<g filter="url(#filter0_d)">
<path d="M67 60.5H450C454.142 60.5 457.5 63.8579 457.5 68V315.5H59.5V68C59.5 63.8579 62.8579 60.5 67 60.5Z" fill="white" stroke="black" stroke-width="15"/>
<path d="M100.388 184.628L103.728 178.203H105.644L101.231 186.228V191H99.5439V186.228L95.1318 178.203H97.0654L100.388 184.628ZM106.03 186.157C106.03 185.226 106.212 184.388 106.575 183.644C106.944 182.899 107.454 182.325 108.104 181.921C108.761 181.517 109.508 181.314 110.346 181.314C111.641 181.314 112.687 181.763 113.483 182.659C114.286 183.556 114.688 184.748 114.688 186.236V186.351C114.688 187.276 114.509 188.108 114.151 188.847C113.8 189.579 113.293 190.15 112.631 190.561C111.975 190.971 111.219 191.176 110.363 191.176C109.074 191.176 108.028 190.728 107.226 189.831C106.429 188.935 106.03 187.748 106.03 186.271V186.157ZM107.665 186.351C107.665 187.405 107.908 188.252 108.395 188.891C108.887 189.529 109.543 189.849 110.363 189.849C111.189 189.849 111.846 189.526 112.332 188.882C112.818 188.231 113.062 187.323 113.062 186.157C113.062 185.114 112.812 184.271 112.314 183.626C111.822 182.976 111.166 182.65 110.346 182.65C109.543 182.65 108.896 182.97 108.403 183.608C107.911 184.247 107.665 185.161 107.665 186.351ZM122.598 190.06C121.965 190.804 121.036 191.176 119.812 191.176C118.798 191.176 118.024 190.883 117.491 190.297C116.964 189.705 116.697 188.832 116.691 187.678V181.49H118.317V187.634C118.317 189.075 118.903 189.796 120.075 189.796C121.317 189.796 122.144 189.333 122.554 188.407V181.49H124.18V191H122.633L122.598 190.06ZM131.255 182.949C131.009 182.908 130.742 182.888 130.455 182.888C129.389 182.888 128.665 183.342 128.284 184.25V191H126.658V181.49H128.24L128.267 182.589C128.8 181.739 129.556 181.314 130.534 181.314C130.851 181.314 131.091 181.355 131.255 181.438V182.949ZM140.237 186.966L140.483 188.653L140.844 187.133L143.375 178.203H144.799L147.269 187.133L147.62 188.68L147.893 186.957L149.879 178.203H151.575L148.473 191H146.935L144.298 181.675L144.096 180.699L143.894 181.675L141.16 191H139.622L136.528 178.203H138.216L140.237 186.966ZM156.866 191.176C155.577 191.176 154.528 190.754 153.72 189.91C152.911 189.061 152.507 187.927 152.507 186.509V186.21C152.507 185.267 152.686 184.426 153.043 183.688C153.406 182.943 153.91 182.363 154.555 181.947C155.205 181.525 155.908 181.314 156.664 181.314C157.9 181.314 158.861 181.722 159.547 182.536C160.232 183.351 160.575 184.517 160.575 186.034V186.711H154.133C154.156 187.648 154.429 188.407 154.95 188.987C155.478 189.562 156.146 189.849 156.954 189.849C157.528 189.849 158.015 189.731 158.413 189.497C158.812 189.263 159.16 188.952 159.459 188.565L160.452 189.339C159.655 190.563 158.46 191.176 156.866 191.176ZM156.664 182.65C156.008 182.65 155.457 182.891 155.012 183.371C154.566 183.846 154.291 184.514 154.186 185.375H158.949V185.252C158.902 184.426 158.68 183.787 158.281 183.336C157.883 182.879 157.344 182.65 156.664 182.65ZM170.516 186.351C170.516 187.804 170.182 188.973 169.514 189.857C168.846 190.736 167.949 191.176 166.824 191.176C165.623 191.176 164.694 190.751 164.038 189.901L163.959 191H162.465V177.5H164.091V182.536C164.747 181.722 165.652 181.314 166.807 181.314C167.961 181.314 168.866 181.751 169.522 182.624C170.185 183.497 170.516 184.692 170.516 186.21V186.351ZM168.89 186.166C168.89 185.059 168.676 184.203 168.248 183.6C167.82 182.996 167.205 182.694 166.402 182.694C165.33 182.694 164.56 183.192 164.091 184.188V188.302C164.589 189.298 165.365 189.796 166.42 189.796C167.199 189.796 167.806 189.494 168.239 188.891C168.673 188.287 168.89 187.379 168.89 186.166ZM178.109 188.478C178.109 188.038 177.942 187.698 177.608 187.458C177.28 187.212 176.703 187.001 175.877 186.825C175.057 186.649 174.403 186.438 173.917 186.192C173.437 185.946 173.079 185.653 172.845 185.313C172.616 184.974 172.502 184.569 172.502 184.101C172.502 183.321 172.83 182.662 173.486 182.123C174.148 181.584 174.992 181.314 176.018 181.314C177.096 181.314 177.969 181.593 178.637 182.149C179.311 182.706 179.647 183.418 179.647 184.285H178.013C178.013 183.84 177.822 183.456 177.441 183.134C177.066 182.812 176.592 182.65 176.018 182.65C175.426 182.65 174.963 182.779 174.629 183.037C174.295 183.295 174.128 183.632 174.128 184.048C174.128 184.44 174.283 184.736 174.594 184.936C174.904 185.135 175.464 185.325 176.272 185.507C177.087 185.688 177.746 185.905 178.25 186.157C178.754 186.409 179.126 186.714 179.366 187.071C179.612 187.423 179.735 187.854 179.735 188.363C179.735 189.213 179.396 189.896 178.716 190.411C178.036 190.921 177.154 191.176 176.07 191.176C175.309 191.176 174.635 191.041 174.049 190.771C173.463 190.502 173.003 190.127 172.669 189.646C172.341 189.16 172.177 188.636 172.177 188.073H173.803C173.832 188.618 174.049 189.052 174.453 189.374C174.863 189.69 175.402 189.849 176.07 189.849C176.686 189.849 177.178 189.726 177.547 189.479C177.922 189.228 178.109 188.894 178.109 188.478ZM183.62 191H181.994V181.49H183.62V191ZM181.862 178.968C181.862 178.704 181.941 178.481 182.1 178.3C182.264 178.118 182.504 178.027 182.82 178.027C183.137 178.027 183.377 178.118 183.541 178.3C183.705 178.481 183.787 178.704 183.787 178.968C183.787 179.231 183.705 179.451 183.541 179.627C183.377 179.803 183.137 179.891 182.82 179.891C182.504 179.891 182.264 179.803 182.1 179.627C181.941 179.451 181.862 179.231 181.862 178.968ZM188.437 179.188V181.49H190.212V182.747H188.437V188.645C188.437 189.025 188.516 189.312 188.674 189.506C188.832 189.693 189.102 189.787 189.482 189.787C189.67 189.787 189.928 189.752 190.256 189.682V191C189.828 191.117 189.412 191.176 189.008 191.176C188.281 191.176 187.733 190.956 187.364 190.517C186.995 190.077 186.811 189.453 186.811 188.645V182.747H185.079V181.49H186.811V179.188H188.437ZM196.065 191.176C194.776 191.176 193.728 190.754 192.919 189.91C192.11 189.061 191.706 187.927 191.706 186.509V186.21C191.706 185.267 191.885 184.426 192.242 183.688C192.605 182.943 193.109 182.363 193.754 181.947C194.404 181.525 195.107 181.314 195.863 181.314C197.1 181.314 198.061 181.722 198.746 182.536C199.432 183.351 199.774 184.517 199.774 186.034V186.711H193.332C193.355 187.648 193.628 188.407 194.149 188.987C194.677 189.562 195.345 189.849 196.153 189.849C196.728 189.849 197.214 189.731 197.612 189.497C198.011 189.263 198.359 188.952 198.658 188.565L199.651 189.339C198.854 190.563 197.659 191.176 196.065 191.176ZM195.863 182.65C195.207 182.65 194.656 182.891 194.211 183.371C193.766 183.846 193.49 184.514 193.385 185.375H198.148V185.252C198.102 184.426 197.879 183.787 197.48 183.336C197.082 182.879 196.543 182.65 195.863 182.65Z" fill="#C4C4C4"/>
<path d="M10 328C10 325.239 12.2386 323 15 323H501C503.761 323 506 325.239 506 328V331H10V328Z" fill="#E5E5E5"/>
<path d="M10 331H506V335C506 340.523 501.523 345 496 345H20C14.4771 345 10 340.523 10 335V331Z" fill="#C4C4C4"/>
<path d="M440.884 74.3661C441.372 74.8543 441.372 75.6457 440.884 76.1339C440.396 76.622 439.604 76.622 439.116 76.1339C438.628 75.6457 438.628 74.8543 439.116 74.3661C439.604 73.878 440.396 73.878 440.884 74.3661Z" fill="#97A3AF"/>
<path d="M440.884 78.1161C441.372 78.6043 441.372 79.3957 440.884 79.8839C440.396 80.372 439.604 80.372 439.116 79.8839C438.628 79.3957 438.628 78.6043 439.116 78.1161C439.604 77.628 440.396 77.628 440.884 78.1161" fill="#97A3AF"/>
<path d="M440.884 81.8661C441.372 82.3543 441.372 83.1457 440.884 83.6339C440.396 84.122 439.604 84.122 439.116 83.6339C438.628 83.1457 438.628 82.3543 439.116 81.8661C439.604 81.378 440.396 81.378 440.884 81.8661" fill="#97A3AF"/>
<rect x="91" y="74" width="339" height="10" fill="#F5F5F5"/>
<g clip-path="url(#clip0)">
<path d="M85 78.2858H77.8571L80.3572 75.7858L79.2857 74.7144L75 79.0001L79.2857 83.2858L80.3571 82.2143L77.8571 79.7143H85V78.2858Z" fill="#97A3AF"/>
</g>
</g>
<g filter="url(#filter1_d)">
<rect x="386" y="286" width="56.2963" height="16" rx="8" fill="#2A94F4"/>
<path d="M399.684 205.2L407.415 289.771L333.94 258.956L399.684 205.2Z" fill="#F5F5F5"/>
<circle cx="363" cy="146" r="140" fill="white"/>
<circle cx="363" cy="146" r="135" stroke="#2A94F4" stroke-opacity="0.3" stroke-width="10"/>
<g filter="url(#filter2_d)">
<rect x="301" y="215" width="128.889" height="32" rx="16" fill="#2A94F4"/>
</g>
<path d="M350.134 233.224C350.198 233.224 350.254 233.25 350.302 233.302L350.764 233.8C350.412 234.208 349.984 234.526 349.48 234.754C348.98 234.982 348.374 235.096 347.662 235.096C347.046 235.096 346.486 234.99 345.982 234.778C345.478 234.562 345.048 234.262 344.692 233.878C344.336 233.49 344.06 233.026 343.864 232.486C343.668 231.946 343.57 231.352 343.57 230.704C343.57 230.056 343.672 229.462 343.876 228.922C344.08 228.382 344.366 227.918 344.734 227.53C345.106 227.142 345.55 226.842 346.066 226.63C346.582 226.414 347.152 226.306 347.776 226.306C348.388 226.306 348.928 226.404 349.396 226.6C349.864 226.796 350.276 227.062 350.632 227.398L350.248 227.932C350.224 227.972 350.192 228.006 350.152 228.034C350.116 228.058 350.066 228.07 350.002 228.07C349.93 228.07 349.842 228.032 349.738 227.956C349.634 227.876 349.498 227.788 349.33 227.692C349.162 227.596 348.952 227.51 348.7 227.434C348.448 227.354 348.138 227.314 347.77 227.314C347.326 227.314 346.92 227.392 346.552 227.548C346.184 227.7 345.866 227.922 345.598 228.214C345.334 228.506 345.128 228.862 344.98 229.282C344.832 229.702 344.758 230.176 344.758 230.704C344.758 231.24 344.834 231.718 344.986 232.138C345.142 232.558 345.352 232.914 345.616 233.206C345.884 233.494 346.198 233.714 346.558 233.866C346.922 234.018 347.314 234.094 347.734 234.094C347.99 234.094 348.22 234.08 348.424 234.052C348.632 234.02 348.822 233.972 348.994 233.908C349.17 233.844 349.332 233.764 349.48 233.668C349.632 233.568 349.782 233.45 349.93 233.314C349.998 233.254 350.066 233.224 350.134 233.224ZM354.306 228.826C354.75 228.826 355.15 228.9 355.506 229.048C355.862 229.196 356.166 229.406 356.418 229.678C356.67 229.95 356.862 230.28 356.994 230.668C357.13 231.052 357.198 231.482 357.198 231.958C357.198 232.438 357.13 232.87 356.994 233.254C356.862 233.638 356.67 233.966 356.418 234.238C356.166 234.51 355.862 234.72 355.506 234.868C355.15 235.012 354.75 235.084 354.306 235.084C353.858 235.084 353.454 235.012 353.094 234.868C352.738 234.72 352.434 234.51 352.182 234.238C351.93 233.966 351.736 233.638 351.6 233.254C351.468 232.87 351.402 232.438 351.402 231.958C351.402 231.482 351.468 231.052 351.6 230.668C351.736 230.28 351.93 229.95 352.182 229.678C352.434 229.406 352.738 229.196 353.094 229.048C353.454 228.9 353.858 228.826 354.306 228.826ZM354.306 234.25C354.906 234.25 355.354 234.05 355.65 233.65C355.946 233.246 356.094 232.684 356.094 231.964C356.094 231.24 355.946 230.676 355.65 230.272C355.354 229.868 354.906 229.666 354.306 229.666C354.002 229.666 353.736 229.718 353.508 229.822C353.284 229.926 353.096 230.076 352.944 230.272C352.796 230.468 352.684 230.71 352.608 230.998C352.536 231.282 352.5 231.604 352.5 231.964C352.5 232.684 352.648 233.246 352.944 233.65C353.244 234.05 353.698 234.25 354.306 234.25ZM359.561 229.804C359.693 229.656 359.833 229.522 359.981 229.402C360.129 229.282 360.285 229.18 360.449 229.096C360.617 229.008 360.793 228.942 360.977 228.898C361.165 228.85 361.367 228.826 361.583 228.826C361.915 228.826 362.207 228.882 362.459 228.994C362.715 229.102 362.927 229.258 363.095 229.462C363.267 229.662 363.397 229.904 363.485 230.188C363.573 230.472 363.617 230.786 363.617 231.13V235H362.543V231.13C362.543 230.67 362.437 230.314 362.225 230.062C362.017 229.806 361.699 229.678 361.271 229.678C360.955 229.678 360.659 229.754 360.383 229.906C360.111 230.058 359.859 230.264 359.627 230.524V235H358.553V228.922H359.195C359.347 228.922 359.441 228.996 359.477 229.144L359.561 229.804ZM367.028 235.096C366.548 235.096 366.178 234.962 365.918 234.694C365.662 234.426 365.534 234.04 365.534 233.536V229.816H364.802C364.738 229.816 364.684 229.798 364.64 229.762C364.596 229.722 364.574 229.662 364.574 229.582V229.156L365.57 229.03L365.816 227.152C365.828 227.092 365.854 227.044 365.894 227.008C365.938 226.968 365.994 226.948 366.062 226.948H366.602V229.042H368.36V229.816H366.602V233.464C366.602 233.72 366.664 233.91 366.788 234.034C366.912 234.158 367.072 234.22 367.268 234.22C367.38 234.22 367.476 234.206 367.556 234.178C367.64 234.146 367.712 234.112 367.772 234.076C367.832 234.04 367.882 234.008 367.922 233.98C367.966 233.948 368.004 233.932 368.036 233.932C368.092 233.932 368.142 233.966 368.186 234.034L368.498 234.544C368.314 234.716 368.092 234.852 367.832 234.952C367.572 235.048 367.304 235.096 367.028 235.096ZM372.757 232.264C372.265 232.28 371.845 232.32 371.497 232.384C371.153 232.444 370.871 232.524 370.651 232.624C370.435 232.724 370.277 232.842 370.177 232.978C370.081 233.114 370.033 233.266 370.033 233.434C370.033 233.594 370.059 233.732 370.111 233.848C370.163 233.964 370.233 234.06 370.321 234.136C370.413 234.208 370.519 234.262 370.639 234.298C370.763 234.33 370.895 234.346 371.035 234.346C371.223 234.346 371.395 234.328 371.551 234.292C371.707 234.252 371.853 234.196 371.989 234.124C372.129 234.052 372.261 233.966 372.385 233.866C372.513 233.766 372.637 233.652 372.757 233.524V232.264ZM369.307 229.78C369.643 229.456 370.005 229.214 370.393 229.054C370.781 228.894 371.211 228.814 371.683 228.814C372.023 228.814 372.325 228.87 372.589 228.982C372.853 229.094 373.075 229.25 373.255 229.45C373.435 229.65 373.571 229.892 373.663 230.176C373.755 230.46 373.801 230.772 373.801 231.112V235H373.327C373.223 235 373.143 234.984 373.087 234.952C373.031 234.916 372.987 234.848 372.955 234.748L372.835 234.172C372.675 234.32 372.519 234.452 372.367 234.568C372.215 234.68 372.055 234.776 371.887 234.856C371.719 234.932 371.539 234.99 371.347 235.03C371.159 235.074 370.949 235.096 370.717 235.096C370.481 235.096 370.259 235.064 370.051 235C369.843 234.932 369.661 234.832 369.505 234.7C369.353 234.568 369.231 234.402 369.139 234.202C369.051 233.998 369.007 233.758 369.007 233.482C369.007 233.242 369.073 233.012 369.205 232.792C369.337 232.568 369.551 232.37 369.847 232.198C370.143 232.026 370.529 231.886 371.005 231.778C371.481 231.666 372.065 231.602 372.757 231.586V231.112C372.757 230.64 372.655 230.284 372.451 230.044C372.247 229.8 371.949 229.678 371.557 229.678C371.293 229.678 371.071 229.712 370.891 229.78C370.715 229.844 370.561 229.918 370.429 230.002C370.301 230.082 370.189 230.156 370.093 230.224C370.001 230.288 369.909 230.32 369.817 230.32C369.745 230.32 369.683 230.302 369.631 230.266C369.579 230.226 369.535 230.178 369.499 230.122L369.307 229.78ZM379.658 230.002C379.626 230.046 379.594 230.08 379.562 230.104C379.53 230.128 379.486 230.14 379.43 230.14C379.37 230.14 379.304 230.116 379.232 230.068C379.16 230.016 379.07 229.96 378.962 229.9C378.858 229.84 378.728 229.786 378.572 229.738C378.42 229.686 378.232 229.66 378.008 229.66C377.708 229.66 377.444 229.714 377.216 229.822C376.988 229.926 376.796 230.078 376.64 230.278C376.488 230.478 376.372 230.72 376.292 231.004C376.216 231.288 376.178 231.606 376.178 231.958C376.178 232.326 376.22 232.654 376.304 232.942C376.388 233.226 376.506 233.466 376.658 233.662C376.814 233.854 377 234.002 377.216 234.106C377.436 234.206 377.682 234.256 377.954 234.256C378.214 234.256 378.428 234.226 378.596 234.166C378.764 234.102 378.902 234.032 379.01 233.956C379.122 233.88 379.214 233.812 379.286 233.752C379.362 233.688 379.436 233.656 379.508 233.656C379.596 233.656 379.664 233.69 379.712 233.758L380.012 234.148C379.88 234.312 379.73 234.452 379.562 234.568C379.394 234.684 379.212 234.782 379.016 234.862C378.824 234.938 378.622 234.994 378.41 235.03C378.198 235.066 377.982 235.084 377.762 235.084C377.382 235.084 377.028 235.014 376.7 234.874C376.376 234.734 376.094 234.532 375.854 234.268C375.614 234 375.426 233.672 375.29 233.284C375.154 232.896 375.086 232.454 375.086 231.958C375.086 231.506 375.148 231.088 375.272 230.704C375.4 230.32 375.584 229.99 375.824 229.714C376.068 229.434 376.366 229.216 376.718 229.06C377.074 228.904 377.482 228.826 377.942 228.826C378.37 228.826 378.746 228.896 379.07 229.036C379.398 229.172 379.688 229.366 379.94 229.618L379.658 230.002ZM383.025 235.096C382.545 235.096 382.175 234.962 381.915 234.694C381.659 234.426 381.531 234.04 381.531 233.536V229.816H380.799C380.735 229.816 380.681 229.798 380.637 229.762C380.593 229.722 380.571 229.662 380.571 229.582V229.156L381.567 229.03L381.812 227.152C381.825 227.092 381.851 227.044 381.891 227.008C381.935 226.968 381.991 226.948 382.059 226.948H382.599V229.042H384.357V229.816H382.599V233.464C382.599 233.72 382.661 233.91 382.785 234.034C382.909 234.158 383.069 234.22 383.265 234.22C383.377 234.22 383.473 234.206 383.553 234.178C383.637 234.146 383.709 234.112 383.769 234.076C383.829 234.04 383.879 234.008 383.919 233.98C383.963 233.948 384.001 233.932 384.033 233.932C384.089 233.932 384.139 233.966 384.183 234.034L384.495 234.544C384.311 234.716 384.089 234.852 383.829 234.952C383.569 235.048 383.301 235.096 383.025 235.096ZM388.753 232.264C388.261 232.28 387.841 232.32 387.493 232.384C387.149 232.444 386.867 232.524 386.647 232.624C386.431 232.724 386.273 232.842 386.173 232.978C386.077 233.114 386.029 233.266 386.029 233.434C386.029 233.594 386.055 233.732 386.107 233.848C386.159 233.964 386.229 234.06 386.317 234.136C386.409 234.208 386.515 234.262 386.635 234.298C386.759 234.33 386.891 234.346 387.031 234.346C387.219 234.346 387.391 234.328 387.547 234.292C387.703 234.252 387.849 234.196 387.985 234.124C388.125 234.052 388.257 233.966 388.381 233.866C388.509 233.766 388.633 233.652 388.753 233.524V232.264ZM385.303 229.78C385.639 229.456 386.001 229.214 386.389 229.054C386.777 228.894 387.207 228.814 387.679 228.814C388.019 228.814 388.321 228.87 388.585 228.982C388.849 229.094 389.071 229.25 389.251 229.45C389.431 229.65 389.567 229.892 389.659 230.176C389.751 230.46 389.797 230.772 389.797 231.112V235H389.323C389.219 235 389.139 234.984 389.083 234.952C389.027 234.916 388.983 234.848 388.951 234.748L388.831 234.172C388.671 234.32 388.515 234.452 388.363 234.568C388.211 234.68 388.051 234.776 387.883 234.856C387.715 234.932 387.535 234.99 387.343 235.03C387.155 235.074 386.945 235.096 386.713 235.096C386.477 235.096 386.255 235.064 386.047 235C385.839 234.932 385.657 234.832 385.501 234.7C385.349 234.568 385.227 234.402 385.135 234.202C385.047 233.998 385.003 233.758 385.003 233.482C385.003 233.242 385.069 233.012 385.201 232.792C385.333 232.568 385.547 232.37 385.843 232.198C386.139 232.026 386.525 231.886 387.001 231.778C387.477 231.666 388.061 231.602 388.753 231.586V231.112C388.753 230.64 388.651 230.284 388.447 230.044C388.243 229.8 387.945 229.678 387.553 229.678C387.289 229.678 387.067 229.712 386.887 229.78C386.711 229.844 386.557 229.918 386.425 230.002C386.297 230.082 386.185 230.156 386.089 230.224C385.997 230.288 385.905 230.32 385.813 230.32C385.741 230.32 385.679 230.302 385.627 230.266C385.575 230.226 385.531 230.178 385.495 230.122L385.303 229.78ZM392.432 229.804C392.564 229.656 392.704 229.522 392.852 229.402C393 229.282 393.156 229.18 393.32 229.096C393.488 229.008 393.664 228.942 393.848 228.898C394.036 228.85 394.238 228.826 394.454 228.826C394.786 228.826 395.078 228.882 395.33 228.994C395.586 229.102 395.798 229.258 395.966 229.462C396.138 229.662 396.268 229.904 396.356 230.188C396.444 230.472 396.488 230.786 396.488 231.13V235H395.414V231.13C395.414 230.67 395.308 230.314 395.096 230.062C394.888 229.806 394.57 229.678 394.142 229.678C393.826 229.678 393.53 229.754 393.254 229.906C392.982 230.058 392.73 230.264 392.498 230.524V235H391.424V228.922H392.066C392.218 228.922 392.312 228.996 392.348 229.144L392.432 229.804ZM400.678 228.826C401.122 228.826 401.522 228.9 401.878 229.048C402.234 229.196 402.538 229.406 402.79 229.678C403.042 229.95 403.234 230.28 403.366 230.668C403.502 231.052 403.57 231.482 403.57 231.958C403.57 232.438 403.502 232.87 403.366 233.254C403.234 233.638 403.042 233.966 402.79 234.238C402.538 234.51 402.234 234.72 401.878 234.868C401.522 235.012 401.122 235.084 400.678 235.084C400.23 235.084 399.826 235.012 399.466 234.868C399.11 234.72 398.806 234.51 398.554 234.238C398.302 233.966 398.108 233.638 397.972 233.254C397.84 232.87 397.774 232.438 397.774 231.958C397.774 231.482 397.84 231.052 397.972 230.668C398.108 230.28 398.302 229.95 398.554 229.678C398.806 229.406 399.11 229.196 399.466 229.048C399.826 228.9 400.23 228.826 400.678 228.826ZM400.678 234.25C401.278 234.25 401.726 234.05 402.022 233.65C402.318 233.246 402.466 232.684 402.466 231.964C402.466 231.24 402.318 230.676 402.022 230.272C401.726 229.868 401.278 229.666 400.678 229.666C400.374 229.666 400.108 229.718 399.88 229.822C399.656 229.926 399.468 230.076 399.316 230.272C399.168 230.468 399.056 230.71 398.98 230.998C398.908 231.282 398.872 231.604 398.872 231.964C398.872 232.684 399.02 233.246 399.316 233.65C399.616 234.05 400.07 234.25 400.678 234.25ZM408.464 229.924C408.416 230.012 408.342 230.056 408.242 230.056C408.182 230.056 408.114 230.034 408.038 229.99C407.962 229.946 407.868 229.898 407.756 229.846C407.648 229.79 407.518 229.74 407.366 229.696C407.214 229.648 407.034 229.624 406.826 229.624C406.646 229.624 406.484 229.648 406.34 229.696C406.196 229.74 406.072 229.802 405.968 229.882C405.868 229.962 405.79 230.056 405.734 230.164C405.682 230.268 405.656 230.382 405.656 230.506C405.656 230.662 405.7 230.792 405.788 230.896C405.88 231 406 231.09 406.148 231.166C406.296 231.242 406.464 231.31 406.652 231.37C406.84 231.426 407.032 231.488 407.228 231.556C407.428 231.62 407.622 231.692 407.81 231.772C407.998 231.852 408.166 231.952 408.314 232.072C408.462 232.192 408.58 232.34 408.668 232.516C408.76 232.688 408.806 232.896 408.806 233.14C408.806 233.42 408.756 233.68 408.656 233.92C408.556 234.156 408.408 234.362 408.212 234.538C408.016 234.71 407.776 234.846 407.492 234.946C407.208 235.046 406.88 235.096 406.508 235.096C406.084 235.096 405.7 235.028 405.356 234.892C405.012 234.752 404.72 234.574 404.48 234.358L404.732 233.95C404.764 233.898 404.802 233.858 404.846 233.83C404.89 233.802 404.946 233.788 405.014 233.788C405.086 233.788 405.162 233.816 405.242 233.872C405.322 233.928 405.418 233.99 405.53 234.058C405.646 234.126 405.786 234.188 405.95 234.244C406.114 234.3 406.318 234.328 406.562 234.328C406.77 234.328 406.952 234.302 407.108 234.25C407.264 234.194 407.394 234.12 407.498 234.028C407.602 233.936 407.678 233.83 407.726 233.71C407.778 233.59 407.804 233.462 407.804 233.326C407.804 233.158 407.758 233.02 407.666 232.912C407.578 232.8 407.46 232.706 407.312 232.63C407.164 232.55 406.994 232.482 406.802 232.426C406.614 232.366 406.42 232.304 406.22 232.24C406.024 232.176 405.83 232.104 405.638 232.024C405.45 231.94 405.282 231.836 405.134 231.712C404.986 231.588 404.866 231.436 404.774 231.256C404.686 231.072 404.642 230.85 404.642 230.59C404.642 230.358 404.69 230.136 404.786 229.924C404.882 229.708 405.022 229.52 405.206 229.36C405.39 229.196 405.616 229.066 405.884 228.97C406.152 228.874 406.458 228.826 406.802 228.826C407.202 228.826 407.56 228.89 407.876 229.018C408.196 229.142 408.472 229.314 408.704 229.534L408.464 229.924Z" fill="white"/>
<g clip-path="url(#clip1)">
<path d="M331.808 222H331.025H326.012H325.229C324.279 222 323.506 222.822 323.506 223.833V236.167C323.506 237.178 324.279 238 325.229 238H331.808C332.758 238 333.531 237.178 333.531 236.167V223.833C333.531 222.822 332.758 222 331.808 222ZM332.278 236C332.278 236.368 331.997 236.667 331.651 236.667H325.386C325.04 236.667 324.759 236.368 324.759 236V224C324.759 223.632 325.04 223.333 325.386 223.333H325.699C326.045 223.333 326.326 223.632 326.326 224C326.326 224.368 326.606 224.667 326.952 224.667H330.085C330.431 224.667 330.711 224.368 330.711 224C330.711 223.632 330.992 223.333 331.338 223.333H331.651C331.997 223.333 332.278 223.632 332.278 224V236Z" fill="white"/>
<path d="M325.856 228.926C325.596 228.926 325.386 228.702 325.386 228.426V227.167C325.386 226.891 325.596 226.667 325.856 226.667H327.039C327.299 226.667 327.509 226.891 327.509 227.167C327.509 227.443 327.299 227.667 327.039 227.667H326.326V228.426C326.326 228.702 326.115 228.926 325.856 228.926Z" fill="white"/>
<path d="M331.181 233.334H329.406C329.147 233.334 328.937 233.11 328.937 232.834C328.937 232.558 329.147 232.334 329.406 232.334H330.712V231.574C330.712 231.298 330.922 231.074 331.181 231.074C331.441 231.074 331.651 231.298 331.651 231.574V232.834C331.651 233.11 331.441 233.334 331.181 233.334Z" fill="white"/>
<path d="M331.181 230.018H329.563C329.304 230.018 329.093 229.795 329.093 229.519V227.167C329.093 226.891 329.304 226.667 329.563 226.667H331.181C331.441 226.667 331.651 226.891 331.651 227.167V229.519C331.651 229.795 331.441 230.018 331.181 230.018ZM330.033 229.019H330.711V227.667H330.033V229.019Z" fill="white"/>
<path d="M328.066 233.333H325.856C325.596 233.333 325.386 233.109 325.386 232.833V231.111C325.386 230.835 325.596 230.611 325.856 230.611H328.066C328.326 230.611 328.536 230.835 328.536 231.111V232.833C328.536 233.109 328.326 233.333 328.066 233.333ZM326.326 232.333H327.596V231.611H326.326V232.333Z" fill="white"/>
<path d="M327.613 230.186H325.856C325.596 230.186 325.386 229.962 325.386 229.686C325.386 229.41 325.596 229.186 325.856 229.186H327.613C327.872 229.186 328.083 229.41 328.083 229.686C328.083 229.962 327.872 230.186 327.613 230.186Z" fill="white"/>
<path d="M329.406 232.074C329.147 232.074 328.937 231.85 328.937 231.574V230.944C328.937 230.668 329.147 230.444 329.406 230.444C329.666 230.444 329.876 230.668 329.876 230.944V231.574C329.876 231.85 329.666 232.074 329.406 232.074Z" fill="white"/>
<path d="M328.223 228.926C327.963 228.926 327.753 228.702 327.753 228.426V227.167C327.753 226.891 327.963 226.667 328.223 226.667C328.482 226.667 328.693 226.891 328.693 227.167V228.426C328.693 228.702 328.482 228.926 328.223 228.926Z" fill="white"/>
</g>
<g filter="url(#filter3_d)">
<path d="M396 221L418.517 201.5H373.483L396 221Z" fill="white"/>
<rect x="277" y="63" width="168" height="139" rx="15" fill="white"/>
</g>
<path d="M304.875 93.3711H302.41V95.3867H305.273V96H301.66V90.3125H305.234V90.9297H302.41V92.7578H304.875V93.3711ZM308.555 94.8789C308.555 94.6836 308.48 94.5326 308.332 94.4258C308.186 94.3164 307.93 94.2227 307.562 94.1445C307.198 94.0664 306.908 93.9727 306.691 93.8633C306.478 93.7539 306.319 93.6237 306.215 93.4727C306.113 93.3216 306.062 93.1419 306.062 92.9336C306.062 92.5872 306.208 92.2943 306.5 92.0547C306.794 91.8151 307.169 91.6953 307.625 91.6953C308.104 91.6953 308.492 91.819 308.789 92.0664C309.089 92.3138 309.238 92.6302 309.238 93.0156H308.512C308.512 92.8177 308.427 92.6471 308.258 92.5039C308.091 92.3607 307.88 92.2891 307.625 92.2891C307.362 92.2891 307.156 92.3464 307.008 92.4609C306.859 92.5755 306.785 92.7253 306.785 92.9102C306.785 93.0846 306.854 93.2161 306.992 93.3047C307.13 93.3932 307.379 93.4779 307.738 93.5586C308.1 93.6393 308.393 93.7357 308.617 93.8477C308.841 93.9596 309.007 94.0951 309.113 94.2539C309.223 94.4102 309.277 94.6016 309.277 94.8281C309.277 95.2057 309.126 95.5091 308.824 95.7383C308.522 95.9648 308.13 96.0781 307.648 96.0781C307.31 96.0781 307.01 96.0182 306.75 95.8984C306.49 95.7786 306.285 95.612 306.137 95.3984C305.991 95.1823 305.918 94.9492 305.918 94.6992H306.641C306.654 94.9414 306.75 95.1341 306.93 95.2773C307.112 95.418 307.352 95.4883 307.648 95.4883C307.922 95.4883 308.141 95.4336 308.305 95.3242C308.471 95.2122 308.555 95.0638 308.555 94.8789ZM311.914 95.4883C312.172 95.4883 312.397 95.4102 312.59 95.2539C312.783 95.0977 312.889 94.9023 312.91 94.668H313.594C313.581 94.9102 313.497 95.1406 313.344 95.3594C313.19 95.5781 312.984 95.7526 312.727 95.8828C312.471 96.013 312.201 96.0781 311.914 96.0781C311.339 96.0781 310.88 95.8867 310.539 95.5039C310.201 95.1185 310.031 94.5924 310.031 93.9258V93.8047C310.031 93.3932 310.107 93.0273 310.258 92.707C310.409 92.3867 310.625 92.138 310.906 91.9609C311.19 91.7839 311.525 91.6953 311.91 91.6953C312.384 91.6953 312.777 91.8372 313.09 92.1211C313.405 92.4049 313.573 92.7734 313.594 93.2266H312.91C312.889 92.9531 312.785 92.7292 312.598 92.5547C312.413 92.3776 312.184 92.2891 311.91 92.2891C311.543 92.2891 311.258 92.4219 311.055 92.6875C310.854 92.9505 310.754 93.332 310.754 93.832V93.9688C310.754 94.4557 310.854 94.8307 311.055 95.0938C311.255 95.3568 311.542 95.4883 311.914 95.4883ZM317.016 96C316.974 95.9167 316.94 95.7682 316.914 95.5547C316.578 95.9036 316.177 96.0781 315.711 96.0781C315.294 96.0781 314.952 95.9609 314.684 95.7266C314.418 95.4896 314.285 95.1901 314.285 94.8281C314.285 94.388 314.452 94.0469 314.785 93.8047C315.121 93.5599 315.592 93.4375 316.199 93.4375H316.902V93.1055C316.902 92.8529 316.827 92.6523 316.676 92.5039C316.525 92.3529 316.302 92.2773 316.008 92.2773C315.75 92.2773 315.534 92.3424 315.359 92.4727C315.185 92.6029 315.098 92.7604 315.098 92.9453H314.371C314.371 92.7344 314.445 92.5312 314.594 92.3359C314.745 92.138 314.948 91.9818 315.203 91.8672C315.461 91.7526 315.743 91.6953 316.051 91.6953C316.538 91.6953 316.919 91.8177 317.195 92.0625C317.471 92.3047 317.615 92.6393 317.625 93.0664V95.0117C317.625 95.3997 317.674 95.7083 317.773 95.9375V96H317.016ZM315.816 95.4492C316.043 95.4492 316.258 95.3906 316.461 95.2734C316.664 95.1562 316.811 95.0039 316.902 94.8164V93.9492H316.336C315.451 93.9492 315.008 94.2083 315.008 94.7266C315.008 94.9531 315.083 95.1302 315.234 95.2578C315.385 95.3854 315.579 95.4492 315.816 95.4492ZM319.441 91.7734L319.465 92.3047C319.788 91.8984 320.21 91.6953 320.73 91.6953C321.624 91.6953 322.074 92.1992 322.082 93.207V96H321.359V93.2031C321.357 92.8984 321.286 92.6732 321.148 92.5273C321.013 92.3815 320.801 92.3086 320.512 92.3086C320.277 92.3086 320.072 92.3711 319.895 92.4961C319.717 92.6211 319.579 92.7852 319.48 92.9883V96H318.758V91.7734H319.441ZM324.926 96.0781C324.353 96.0781 323.887 95.8906 323.527 95.5156C323.168 95.138 322.988 94.6341 322.988 94.0039V93.8711C322.988 93.4518 323.068 93.0781 323.227 92.75C323.388 92.4193 323.612 92.1615 323.898 91.9766C324.188 91.7891 324.5 91.6953 324.836 91.6953C325.385 91.6953 325.812 91.8763 326.117 92.2383C326.422 92.6003 326.574 93.1185 326.574 93.793V94.0938H323.711C323.721 94.5104 323.842 94.8477 324.074 95.1055C324.309 95.3607 324.605 95.4883 324.965 95.4883C325.22 95.4883 325.436 95.4362 325.613 95.332C325.79 95.2279 325.945 95.0898 326.078 94.918L326.52 95.2617C326.165 95.806 325.634 96.0781 324.926 96.0781ZM324.836 92.2891C324.544 92.2891 324.299 92.3958 324.102 92.6094C323.904 92.8203 323.781 93.1172 323.734 93.5H325.852V93.4453C325.831 93.0781 325.732 92.7943 325.555 92.5938C325.378 92.3906 325.138 92.2891 324.836 92.2891ZM330.023 96C329.982 95.9167 329.948 95.7682 329.922 95.5547C329.586 95.9036 329.185 96.0781 328.719 96.0781C328.302 96.0781 327.96 95.9609 327.691 95.7266C327.426 95.4896 327.293 95.1901 327.293 94.8281C327.293 94.388 327.46 94.0469 327.793 93.8047C328.129 93.5599 328.6 93.4375 329.207 93.4375H329.91V93.1055C329.91 92.8529 329.835 92.6523 329.684 92.5039C329.533 92.3529 329.31 92.2773 329.016 92.2773C328.758 92.2773 328.542 92.3424 328.367 92.4727C328.193 92.6029 328.105 92.7604 328.105 92.9453H327.379C327.379 92.7344 327.453 92.5312 327.602 92.3359C327.753 92.138 327.956 91.9818 328.211 91.8672C328.469 91.7526 328.751 91.6953 329.059 91.6953C329.546 91.6953 329.927 91.8177 330.203 92.0625C330.479 92.3047 330.622 92.6393 330.633 93.0664V95.0117C330.633 95.3997 330.682 95.7083 330.781 95.9375V96H330.023ZM328.824 95.4492C329.051 95.4492 329.266 95.3906 329.469 95.2734C329.672 95.1562 329.819 95.0039 329.91 94.8164V93.9492H329.344C328.458 93.9492 328.016 94.2083 328.016 94.7266C328.016 94.9531 328.091 95.1302 328.242 95.2578C328.393 95.3854 328.587 95.4492 328.824 95.4492ZM335.504 96.0781C334.931 96.0781 334.465 95.8906 334.105 95.5156C333.746 95.138 333.566 94.6341 333.566 94.0039V93.8711C333.566 93.4518 333.646 93.0781 333.805 92.75C333.966 92.4193 334.19 92.1615 334.477 91.9766C334.766 91.7891 335.078 91.6953 335.414 91.6953C335.964 91.6953 336.391 91.8763 336.695 92.2383C337 92.6003 337.152 93.1185 337.152 93.793V94.0938H334.289C334.299 94.5104 334.421 94.8477 334.652 95.1055C334.887 95.3607 335.184 95.4883 335.543 95.4883C335.798 95.4883 336.014 95.4362 336.191 95.332C336.368 95.2279 336.523 95.0898 336.656 94.918L337.098 95.2617C336.743 95.806 336.212 96.0781 335.504 96.0781ZM335.414 92.2891C335.122 92.2891 334.878 92.3958 334.68 92.6094C334.482 92.8203 334.359 93.1172 334.312 93.5H336.43V93.4453C336.409 93.0781 336.31 92.7943 336.133 92.5938C335.956 92.3906 335.716 92.2891 335.414 92.2891ZM338.777 96H338.055V90H338.777V96ZM343.617 95.4883C343.875 95.4883 344.1 95.4102 344.293 95.2539C344.486 95.0977 344.592 94.9023 344.613 94.668H345.297C345.284 94.9102 345.201 95.1406 345.047 95.3594C344.893 95.5781 344.688 95.7526 344.43 95.8828C344.174 96.013 343.904 96.0781 343.617 96.0781C343.042 96.0781 342.583 95.8867 342.242 95.5039C341.904 95.1185 341.734 94.5924 341.734 93.9258V93.8047C341.734 93.3932 341.81 93.0273 341.961 92.707C342.112 92.3867 342.328 92.138 342.609 91.9609C342.893 91.7839 343.228 91.6953 343.613 91.6953C344.087 91.6953 344.48 91.8372 344.793 92.1211C345.108 92.4049 345.276 92.7734 345.297 93.2266H344.613C344.592 92.9531 344.488 92.7292 344.301 92.5547C344.116 92.3776 343.887 92.2891 343.613 92.2891C343.246 92.2891 342.961 92.4219 342.758 92.6875C342.557 92.9505 342.457 93.332 342.457 93.832V93.9688C342.457 94.4557 342.557 94.8307 342.758 95.0938C342.958 95.3568 343.245 95.4883 343.617 95.4883ZM345.918 93.8477C345.918 93.4336 345.999 93.0612 346.16 92.7305C346.324 92.3997 346.551 92.1445 346.84 91.9648C347.132 91.7852 347.464 91.6953 347.836 91.6953C348.411 91.6953 348.876 91.8945 349.23 92.293C349.587 92.6914 349.766 93.2214 349.766 93.8828V93.9336C349.766 94.3451 349.686 94.7148 349.527 95.043C349.371 95.3685 349.146 95.6224 348.852 95.8047C348.56 95.987 348.224 96.0781 347.844 96.0781C347.271 96.0781 346.806 95.8789 346.449 95.4805C346.095 95.082 345.918 94.5547 345.918 93.8984V93.8477ZM346.645 93.9336C346.645 94.4023 346.753 94.7786 346.969 95.0625C347.188 95.3464 347.479 95.4883 347.844 95.4883C348.211 95.4883 348.503 95.3451 348.719 95.0586C348.935 94.7695 349.043 94.3659 349.043 93.8477C349.043 93.3841 348.932 93.0091 348.711 92.7227C348.492 92.4336 348.201 92.2891 347.836 92.2891C347.479 92.2891 347.191 92.431 346.973 92.7148C346.754 92.9987 346.645 93.4049 346.645 93.9336ZM350.496 93.8516C350.496 93.2031 350.65 92.6823 350.957 92.2891C351.264 91.8932 351.667 91.6953 352.164 91.6953C352.659 91.6953 353.051 91.8646 353.34 92.2031V90H354.062V96H353.398L353.363 95.5469C353.074 95.901 352.672 96.0781 352.156 96.0781C351.667 96.0781 351.267 95.8776 350.957 95.4766C350.65 95.0755 350.496 94.5521 350.496 93.9062V93.8516ZM351.219 93.9336C351.219 94.4128 351.318 94.7878 351.516 95.0586C351.714 95.3294 351.987 95.4648 352.336 95.4648C352.794 95.4648 353.129 95.2591 353.34 94.8477V92.9062C353.124 92.5078 352.792 92.3086 352.344 92.3086C351.99 92.3086 351.714 92.4453 351.516 92.7188C351.318 92.9922 351.219 93.3971 351.219 93.9336ZM355.973 96H355.25V91.7734H355.973V96ZM355.191 90.6523C355.191 90.5352 355.227 90.4362 355.297 90.3555C355.37 90.2747 355.477 90.2344 355.617 90.2344C355.758 90.2344 355.865 90.2747 355.938 90.3555C356.01 90.4362 356.047 90.5352 356.047 90.6523C356.047 90.7695 356.01 90.8672 355.938 90.9453C355.865 91.0234 355.758 91.0625 355.617 91.0625C355.477 91.0625 355.37 91.0234 355.297 90.9453C355.227 90.8672 355.191 90.7695 355.191 90.6523ZM356.961 93.8516C356.961 93.1927 357.113 92.6693 357.418 92.2812C357.723 91.8906 358.126 91.6953 358.629 91.6953C359.145 91.6953 359.547 91.8776 359.836 92.2422L359.871 91.7734H360.531V95.8984C360.531 96.4453 360.368 96.8763 360.043 97.1914C359.72 97.5065 359.285 97.6641 358.738 97.6641C358.434 97.6641 358.135 97.599 357.844 97.4688C357.552 97.3385 357.329 97.1602 357.176 96.9336L357.551 96.5C357.861 96.8828 358.24 97.0742 358.688 97.0742C359.039 97.0742 359.312 96.9753 359.508 96.7773C359.706 96.5794 359.805 96.3008 359.805 95.9414V95.5781C359.516 95.9115 359.121 96.0781 358.621 96.0781C358.126 96.0781 357.725 95.8789 357.418 95.4805C357.113 95.082 356.961 94.5391 356.961 93.8516ZM357.688 93.9336C357.688 94.4102 357.785 94.7852 357.98 95.0586C358.176 95.3294 358.449 95.4648 358.801 95.4648C359.257 95.4648 359.591 95.2578 359.805 94.8438V92.9141C359.583 92.5104 359.251 92.3086 358.809 92.3086C358.457 92.3086 358.182 92.4453 357.984 92.7188C357.786 92.9922 357.688 93.3971 357.688 93.9336ZM361.434 93.8477C361.434 93.4336 361.514 93.0612 361.676 92.7305C361.84 92.3997 362.066 92.1445 362.355 91.9648C362.647 91.7852 362.979 91.6953 363.352 91.6953C363.927 91.6953 364.392 91.8945 364.746 92.293C365.103 92.6914 365.281 93.2214 365.281 93.8828V93.9336C365.281 94.3451 365.202 94.7148 365.043 95.043C364.887 95.3685 364.661 95.6224 364.367 95.8047C364.076 95.987 363.74 96.0781 363.359 96.0781C362.786 96.0781 362.322 95.8789 361.965 95.4805C361.611 95.082 361.434 94.5547 361.434 93.8984V93.8477ZM362.16 93.9336C362.16 94.4023 362.268 94.7786 362.484 95.0625C362.703 95.3464 362.995 95.4883 363.359 95.4883C363.727 95.4883 364.018 95.3451 364.234 95.0586C364.451 94.7695 364.559 94.3659 364.559 93.8477C364.559 93.3841 364.448 93.0091 364.227 92.7227C364.008 92.4336 363.716 92.2891 363.352 92.2891C362.995 92.2891 362.707 92.431 362.488 92.7148C362.27 92.9987 362.16 93.4049 362.16 93.9336ZM367.996 93.8516C367.996 93.2031 368.15 92.6823 368.457 92.2891C368.764 91.8932 369.167 91.6953 369.664 91.6953C370.159 91.6953 370.551 91.8646 370.84 92.2031V90H371.562V96H370.898L370.863 95.5469C370.574 95.901 370.172 96.0781 369.656 96.0781C369.167 96.0781 368.767 95.8776 368.457 95.4766C368.15 95.0755 367.996 94.5521 367.996 93.9062V93.8516ZM368.719 93.9336C368.719 94.4128 368.818 94.7878 369.016 95.0586C369.214 95.3294 369.487 95.4648 369.836 95.4648C370.294 95.4648 370.629 95.2591 370.84 94.8477V92.9062C370.624 92.5078 370.292 92.3086 369.844 92.3086C369.49 92.3086 369.214 92.4453 369.016 92.7188C368.818 92.9922 368.719 93.3971 368.719 93.9336ZM374.441 96.0781C373.868 96.0781 373.402 95.8906 373.043 95.5156C372.684 95.138 372.504 94.6341 372.504 94.0039V93.8711C372.504 93.4518 372.583 93.0781 372.742 92.75C372.904 92.4193 373.128 92.1615 373.414 91.9766C373.703 91.7891 374.016 91.6953 374.352 91.6953C374.901 91.6953 375.328 91.8763 375.633 92.2383C375.938 92.6003 376.09 93.1185 376.09 93.793V94.0938H373.227C373.237 94.5104 373.358 94.8477 373.59 95.1055C373.824 95.3607 374.121 95.4883 374.48 95.4883C374.736 95.4883 374.952 95.4362 375.129 95.332C375.306 95.2279 375.461 95.0898 375.594 94.918L376.035 95.2617C375.681 95.806 375.15 96.0781 374.441 96.0781ZM374.352 92.2891C374.06 92.2891 373.815 92.3958 373.617 92.6094C373.419 92.8203 373.297 93.1172 373.25 93.5H375.367V93.4453C375.346 93.0781 375.247 92.7943 375.07 92.5938C374.893 92.3906 374.654 92.2891 374.352 92.2891ZM379.391 94.8789C379.391 94.6836 379.316 94.5326 379.168 94.4258C379.022 94.3164 378.766 94.2227 378.398 94.1445C378.034 94.0664 377.743 93.9727 377.527 93.8633C377.314 93.7539 377.155 93.6237 377.051 93.4727C376.949 93.3216 376.898 93.1419 376.898 92.9336C376.898 92.5872 377.044 92.2943 377.336 92.0547C377.63 91.8151 378.005 91.6953 378.461 91.6953C378.94 91.6953 379.328 91.819 379.625 92.0664C379.924 92.3138 380.074 92.6302 380.074 93.0156H379.348C379.348 92.8177 379.263 92.6471 379.094 92.5039C378.927 92.3607 378.716 92.2891 378.461 92.2891C378.198 92.2891 377.992 92.3464 377.844 92.4609C377.695 92.5755 377.621 92.7253 377.621 92.9102C377.621 93.0846 377.69 93.2161 377.828 93.3047C377.966 93.3932 378.215 93.4779 378.574 93.5586C378.936 93.6393 379.229 93.7357 379.453 93.8477C379.677 93.9596 379.842 94.0951 379.949 94.2539C380.059 94.4102 380.113 94.6016 380.113 94.8281C380.113 95.2057 379.962 95.5091 379.66 95.7383C379.358 95.9648 378.966 96.0781 378.484 96.0781C378.146 96.0781 377.846 96.0182 377.586 95.8984C377.326 95.7786 377.121 95.612 376.973 95.3984C376.827 95.1823 376.754 94.9492 376.754 94.6992H377.477C377.49 94.9414 377.586 95.1341 377.766 95.2773C377.948 95.418 378.188 95.4883 378.484 95.4883C378.758 95.4883 378.977 95.4336 379.141 95.3242C379.307 95.2122 379.391 95.0638 379.391 94.8789ZM380.879 93.8516C380.879 93.2031 381.033 92.6823 381.34 92.2891C381.647 91.8932 382.049 91.6953 382.547 91.6953C383.042 91.6953 383.434 91.8646 383.723 92.2031V90H384.445V96H383.781L383.746 95.5469C383.457 95.901 383.055 96.0781 382.539 96.0781C382.049 96.0781 381.65 95.8776 381.34 95.4766C381.033 95.0755 380.879 94.5521 380.879 93.9062V93.8516ZM381.602 93.9336C381.602 94.4128 381.701 94.7878 381.898 95.0586C382.096 95.3294 382.37 95.4648 382.719 95.4648C383.177 95.4648 383.512 95.2591 383.723 94.8477V92.9062C383.507 92.5078 383.174 92.3086 382.727 92.3086C382.372 92.3086 382.096 92.4453 381.898 92.7188C381.701 92.9922 381.602 93.3971 381.602 93.9336ZM387.324 96.0781C386.751 96.0781 386.285 95.8906 385.926 95.5156C385.566 95.138 385.387 94.6341 385.387 94.0039V93.8711C385.387 93.4518 385.466 93.0781 385.625 92.75C385.786 92.4193 386.01 92.1615 386.297 91.9766C386.586 91.7891 386.898 91.6953 387.234 91.6953C387.784 91.6953 388.211 91.8763 388.516 92.2383C388.82 92.6003 388.973 93.1185 388.973 93.793V94.0938H386.109C386.12 94.5104 386.241 94.8477 386.473 95.1055C386.707 95.3607 387.004 95.4883 387.363 95.4883C387.618 95.4883 387.835 95.4362 388.012 95.332C388.189 95.2279 388.344 95.0898 388.477 94.918L388.918 95.2617C388.564 95.806 388.033 96.0781 387.324 96.0781ZM387.234 92.2891C386.943 92.2891 386.698 92.3958 386.5 92.6094C386.302 92.8203 386.18 93.1172 386.133 93.5H388.25V93.4453C388.229 93.0781 388.13 92.7943 387.953 92.5938C387.776 92.3906 387.536 92.2891 387.234 92.2891ZM392.777 90.75V91.7734H393.566V92.332H392.777V94.9531C392.777 95.1224 392.812 95.25 392.883 95.3359C392.953 95.4193 393.073 95.4609 393.242 95.4609C393.326 95.4609 393.44 95.4453 393.586 95.4141V96C393.396 96.0521 393.211 96.0781 393.031 96.0781C392.708 96.0781 392.465 95.9805 392.301 95.7852C392.137 95.5898 392.055 95.3125 392.055 94.9531V92.332H391.285V91.7734H392.055V90.75H392.777ZM397.023 95.582C396.742 95.9128 396.329 96.0781 395.785 96.0781C395.335 96.0781 394.991 95.9479 394.754 95.6875C394.52 95.4245 394.401 95.0365 394.398 94.5234V91.7734H395.121V94.5039C395.121 95.1445 395.382 95.4648 395.902 95.4648C396.454 95.4648 396.822 95.2591 397.004 94.8477V91.7734H397.727V96H397.039L397.023 95.582ZM401.492 91.7734L401.512 92.2422C401.822 91.8776 402.24 91.6953 402.766 91.6953C403.357 91.6953 403.759 91.9219 403.973 92.375C404.113 92.1719 404.296 92.0078 404.52 91.8828C404.746 91.7578 405.013 91.6953 405.32 91.6953C406.247 91.6953 406.719 92.1862 406.734 93.168V96H406.012V93.2109C406.012 92.9089 405.943 92.6836 405.805 92.5352C405.667 92.3841 405.435 92.3086 405.109 92.3086C404.841 92.3086 404.618 92.3893 404.441 92.5508C404.264 92.7096 404.161 92.9245 404.133 93.1953V96H403.406V93.2305C403.406 92.6159 403.105 92.3086 402.504 92.3086C402.03 92.3086 401.706 92.5104 401.531 92.9141V96H400.809V91.7734H401.492ZM407.637 93.8477C407.637 93.4336 407.717 93.0612 407.879 92.7305C408.043 92.3997 408.27 92.1445 408.559 91.9648C408.85 91.7852 409.182 91.6953 409.555 91.6953C410.13 91.6953 410.595 91.8945 410.949 92.293C411.306 92.6914 411.484 93.2214 411.484 93.8828V93.9336C411.484 94.3451 411.405 94.7148 411.246 95.043C411.09 95.3685 410.865 95.6224 410.57 95.8047C410.279 95.987 409.943 96.0781 409.562 96.0781C408.99 96.0781 408.525 95.8789 408.168 95.4805C407.814 95.082 407.637 94.5547 407.637 93.8984V93.8477ZM408.363 93.9336C408.363 94.4023 408.471 94.7786 408.688 95.0625C408.906 95.3464 409.198 95.4883 409.562 95.4883C409.93 95.4883 410.221 95.3451 410.438 95.0586C410.654 94.7695 410.762 94.3659 410.762 93.8477C410.762 93.3841 410.651 93.0091 410.43 92.7227C410.211 92.4336 409.919 92.2891 409.555 92.2891C409.198 92.2891 408.91 92.431 408.691 92.7148C408.473 92.9987 408.363 93.4049 408.363 93.9336ZM413.723 95.0195L414.77 91.7734H415.508L413.992 96H413.441L411.91 91.7734H412.648L413.723 95.0195ZM416.988 96H416.266V91.7734H416.988V96ZM416.207 90.6523C416.207 90.5352 416.242 90.4362 416.312 90.3555C416.385 90.2747 416.492 90.2344 416.633 90.2344C416.773 90.2344 416.88 90.2747 416.953 90.3555C417.026 90.4362 417.062 90.5352 417.062 90.6523C417.062 90.7695 417.026 90.8672 416.953 90.9453C416.88 91.0234 416.773 91.0625 416.633 91.0625C416.492 91.0625 416.385 91.0234 416.312 90.9453C416.242 90.8672 416.207 90.7695 416.207 90.6523ZM418.934 96H418.211V90H418.934V96Z" fill="#C4C4C4"/>
<path d="M330 111V131.586H350.586V111H330ZM345.742 126.742H334.844V115.844H345.742V126.742Z" fill="#30485F"/>
<path d="M342.715 118.871H337.871V123.715H342.715V118.871Z" fill="#30485F"/>
<path d="M371.414 111V131.586H392V111H371.414ZM387.156 126.742H376.258V115.844H387.156V126.742Z" fill="#30485F"/>
<path d="M384.129 118.871H379.285V123.715H384.129V118.871Z" fill="#30485F"/>
<path d="M330 152.414V173H350.586V152.414H330ZM345.742 168.156H334.844V157.258H345.742V168.156Z" fill="#30485F"/>
<path d="M342.715 160.285H337.871V165.129H342.715V160.285Z" fill="#30485F"/>
<path d="M339.688 134.855H334.844V139.699H339.688V134.855Z" fill="#30485F"/>
<path d="M344.531 144.543V139.699H339.688V144.543H344.41V149.387H349.254V144.543H344.531Z" fill="#30485F"/>
<path d="M368.75 120.324H363.906V125.168H368.75V120.324Z" fill="#30485F"/>
<path d="M359.062 115.844H354.219V125.168H359.062V115.844Z" fill="#30485F"/>
<path d="M363.906 111H359.062V115.844H363.906V111Z" fill="#30485F"/>
<path d="M359.062 125.168V130.012H354.219V134.855H363.906V125.168H359.062Z" fill="#30485F"/>
<path d="M363.906 153.988V149.266H359.062V139.699H354.219V149.387H359.062V154.109H363.906V158.832H373.594V153.988H363.906Z" fill="#30485F"/>
<path d="M368.75 134.855H363.906V144.543H368.75V134.855Z" fill="#30485F"/>
<path d="M387.156 139.578V134.855H378.316V139.699H373.594V144.543H378.438V149.266H392V139.578H387.156ZM387.156 144.422H378.438V139.699H387.156V144.422Z" fill="#30485F"/>
<path d="M392 153.988H387.156V163.676H392V153.988Z" fill="#30485F"/>
<path d="M373.594 144.543H368.75V149.387H373.594V144.543Z" fill="#30485F"/>
<path d="M378.438 158.832H373.594V163.676H378.438V158.832Z" fill="#30485F"/>
<path d="M383.281 153.988H378.438V158.832H383.281V153.988Z" fill="#30485F"/>
<path d="M378.438 163.676V173H383.281V168.52H387.156V163.676H378.438Z" fill="#30485F"/>
<path d="M359.062 154.109H354.219V163.312H359.062V154.109Z" fill="#30485F"/>
<path d="M368.75 168.156V163.312H359.062V173H363.906V168.156H368.629V173H373.473V168.156H368.75Z" fill="#30485F"/>
<path d="M354.219 134.855H344.531V139.699H354.219V134.855Z" fill="#30485F"/>
<path d="M334.844 139.699H330V149.387H334.844V139.699Z" fill="#30485F"/>
</g>
<g filter="url(#filter4_d)">
<rect x="447" y="27" width="160.273" height="322" rx="13" fill="white" stroke="black" stroke-width="4"/>
<rect x="492.117" y="336.992" width="70.0391" height="3.82031" rx="1.91016" fill="#C4C4C4"/>
<path d="M488.297 25H567.25V27.7344C567.25 33.2572 562.773 37.7344 557.25 37.7344H498.297C492.774 37.7344 488.297 33.2572 488.297 27.7344V25Z" fill="black"/>
<rect x="456" y="198" width="142" height="30" rx="15" fill="#0F8DFF"/>
<path d="M500.256 214.823H503.366V216H498.791V208.891H500.256V214.823ZM505.607 216H504.191V208.5H505.607V216ZM509.836 216C509.771 215.873 509.724 215.715 509.694 215.526C509.353 215.907 508.908 216.098 508.361 216.098C507.844 216.098 507.414 215.948 507.072 215.648C506.734 215.349 506.564 214.971 506.564 214.516C506.564 213.956 506.771 213.526 507.185 213.227C507.601 212.927 508.202 212.776 508.986 212.772H509.636V212.47C509.636 212.226 509.572 212.03 509.445 211.884C509.322 211.737 509.125 211.664 508.854 211.664C508.617 211.664 508.43 211.721 508.293 211.835C508.16 211.949 508.093 212.105 508.093 212.304H506.682C506.682 211.998 506.776 211.715 506.965 211.454C507.154 211.194 507.421 210.99 507.766 210.844C508.111 210.694 508.498 210.619 508.928 210.619C509.579 210.619 510.095 210.784 510.476 211.112C510.86 211.438 511.052 211.897 511.052 212.489V214.779C511.055 215.281 511.125 215.66 511.262 215.917V216H509.836ZM508.669 215.019C508.877 215.019 509.069 214.973 509.245 214.882C509.421 214.787 509.551 214.662 509.636 214.506V213.598H509.108C508.402 213.598 508.026 213.842 507.98 214.33L507.976 214.413C507.976 214.589 508.037 214.734 508.161 214.848C508.285 214.962 508.454 215.019 508.669 215.019ZM513.459 210.717L513.503 211.308C513.877 210.849 514.383 210.619 515.021 210.619C515.702 210.619 516.169 210.888 516.423 211.425C516.794 210.888 517.323 210.619 518.01 210.619C518.583 210.619 519.009 210.787 519.289 211.122C519.569 211.454 519.709 211.955 519.709 212.626V216H518.293V212.631C518.293 212.331 518.234 212.113 518.117 211.977C518 211.837 517.793 211.767 517.497 211.767C517.074 211.767 516.781 211.968 516.618 212.372L516.623 216H515.212V212.636C515.212 212.33 515.152 212.108 515.031 211.972C514.911 211.835 514.706 211.767 514.416 211.767C514.016 211.767 513.726 211.933 513.547 212.265V216H512.136V210.717H513.459ZM523.859 216C523.794 215.873 523.747 215.715 523.718 215.526C523.376 215.907 522.932 216.098 522.385 216.098C521.867 216.098 521.438 215.948 521.096 215.648C520.757 215.349 520.588 214.971 520.588 214.516C520.588 213.956 520.795 213.526 521.208 213.227C521.625 212.927 522.225 212.776 523.01 212.772H523.659V212.47C523.659 212.226 523.596 212.03 523.469 211.884C523.345 211.737 523.148 211.664 522.878 211.664C522.64 211.664 522.453 211.721 522.316 211.835C522.183 211.949 522.116 212.105 522.116 212.304H520.705C520.705 211.998 520.799 211.715 520.988 211.454C521.177 211.194 521.444 210.99 521.789 210.844C522.134 210.694 522.521 210.619 522.951 210.619C523.602 210.619 524.118 210.784 524.499 211.112C524.883 211.438 525.075 211.897 525.075 212.489V214.779C525.078 215.281 525.148 215.66 525.285 215.917V216H523.859ZM522.692 215.019C522.901 215.019 523.093 214.973 523.269 214.882C523.444 214.787 523.575 214.662 523.659 214.506V213.598H523.132C522.425 213.598 522.049 213.842 522.004 214.33L521.999 214.413C521.999 214.589 522.061 214.734 522.185 214.848C522.308 214.962 522.478 215.019 522.692 215.019ZM527.458 210.717L527.502 211.327C527.88 210.855 528.386 210.619 529.021 210.619C529.58 210.619 529.997 210.784 530.271 211.112C530.544 211.441 530.684 211.933 530.69 212.587V216H529.279V212.621C529.279 212.322 529.214 212.105 529.084 211.972C528.954 211.835 528.737 211.767 528.435 211.767C528.037 211.767 527.74 211.936 527.541 212.274V216H526.13V210.717H527.458ZM531.545 213.31C531.545 212.785 531.646 212.318 531.848 211.908C532.049 211.498 532.339 211.181 532.717 210.956C533.098 210.731 533.539 210.619 534.04 210.619C534.753 210.619 535.334 210.837 535.783 211.273C536.236 211.71 536.488 212.302 536.54 213.051L536.55 213.412C536.55 214.223 536.324 214.874 535.871 215.365C535.419 215.854 534.812 216.098 534.05 216.098C533.288 216.098 532.679 215.854 532.224 215.365C531.771 214.877 531.545 214.213 531.545 213.373V213.31ZM532.956 213.412C532.956 213.913 533.05 214.298 533.239 214.564C533.428 214.828 533.698 214.96 534.05 214.96C534.392 214.96 534.659 214.83 534.851 214.569C535.043 214.306 535.139 213.886 535.139 213.31C535.139 212.818 535.043 212.437 534.851 212.167C534.659 211.897 534.388 211.762 534.04 211.762C533.695 211.762 533.428 211.897 533.239 212.167C533.05 212.434 532.956 212.849 532.956 213.412ZM540.28 214.54C540.28 214.368 540.194 214.232 540.021 214.135C539.852 214.034 539.579 213.944 539.201 213.866C537.945 213.603 537.316 213.069 537.316 212.265C537.316 211.796 537.51 211.405 537.897 211.093C538.288 210.777 538.798 210.619 539.426 210.619C540.096 210.619 540.632 210.777 541.032 211.093C541.436 211.409 541.638 211.819 541.638 212.323H540.227C540.227 212.121 540.161 211.955 540.031 211.825C539.901 211.692 539.698 211.625 539.421 211.625C539.183 211.625 538.999 211.679 538.869 211.786C538.739 211.894 538.674 212.03 538.674 212.196C538.674 212.353 538.747 212.479 538.894 212.577C539.043 212.672 539.294 212.755 539.646 212.826C539.997 212.895 540.293 212.973 540.534 213.061C541.28 213.334 541.652 213.808 541.652 214.481C541.652 214.963 541.446 215.354 541.032 215.653C540.619 215.95 540.085 216.098 539.431 216.098C538.988 216.098 538.594 216.02 538.249 215.863C537.907 215.704 537.639 215.487 537.443 215.214C537.248 214.937 537.15 214.639 537.15 214.32H538.488C538.501 214.571 538.594 214.763 538.767 214.896C538.939 215.03 539.17 215.097 539.46 215.097C539.73 215.097 539.934 215.046 540.07 214.945C540.21 214.841 540.28 214.706 540.28 214.54ZM549.162 214.535H546.594L546.105 216H544.548L547.194 208.891H548.552L551.213 216H549.655L549.162 214.535ZM546.989 213.349H548.767L547.873 210.688L546.989 213.349ZM553.161 211.293C553.535 210.844 554.006 210.619 554.572 210.619C555.718 210.619 556.299 211.285 556.315 212.616V216H554.904V212.655C554.904 212.353 554.839 212.13 554.709 211.986C554.579 211.84 554.362 211.767 554.06 211.767C553.646 211.767 553.347 211.926 553.161 212.245V216H551.75V208.5H553.161V211.293ZM557.16 213.31C557.16 212.785 557.261 212.318 557.463 211.908C557.665 211.498 557.954 211.181 558.332 210.956C558.713 210.731 559.154 210.619 559.655 210.619C560.368 210.619 560.949 210.837 561.398 211.273C561.851 211.71 562.103 212.302 562.155 213.051L562.165 213.412C562.165 214.223 561.939 214.874 561.486 215.365C561.034 215.854 560.427 216.098 559.665 216.098C558.903 216.098 558.295 215.854 557.839 215.365C557.386 214.877 557.16 214.213 557.16 213.373V213.31ZM558.571 213.412C558.571 213.913 558.666 214.298 558.854 214.564C559.043 214.828 559.313 214.96 559.665 214.96C560.007 214.96 560.274 214.83 560.466 214.569C560.658 214.306 560.754 213.886 560.754 213.31C560.754 212.818 560.658 212.437 560.466 212.167C560.274 211.897 560.004 211.762 559.655 211.762C559.31 211.762 559.043 211.897 558.854 212.167C558.666 212.434 558.571 212.849 558.571 213.412ZM566.003 212.04C565.811 212.014 565.642 212.001 565.495 212.001C564.961 212.001 564.611 212.182 564.445 212.543V216H563.034V210.717H564.367L564.406 211.347C564.689 210.862 565.082 210.619 565.583 210.619C565.739 210.619 565.886 210.64 566.022 210.683L566.003 212.04ZM569.602 216C569.536 215.873 569.489 215.715 569.46 215.526C569.118 215.907 568.674 216.098 568.127 216.098C567.609 216.098 567.18 215.948 566.838 215.648C566.499 215.349 566.33 214.971 566.33 214.516C566.33 213.956 566.537 213.526 566.95 213.227C567.367 212.927 567.967 212.776 568.752 212.772H569.401V212.47C569.401 212.226 569.338 212.03 569.211 211.884C569.087 211.737 568.89 211.664 568.62 211.664C568.382 211.664 568.195 211.721 568.059 211.835C567.925 211.949 567.858 212.105 567.858 212.304H566.447C566.447 211.998 566.542 211.715 566.73 211.454C566.919 211.194 567.186 210.99 567.531 210.844C567.876 210.694 568.264 210.619 568.693 210.619C569.344 210.619 569.86 210.784 570.241 211.112C570.625 211.438 570.817 211.897 570.817 212.489V214.779C570.821 215.281 570.891 215.66 571.027 215.917V216H569.602ZM568.435 215.019C568.643 215.019 568.835 214.973 569.011 214.882C569.187 214.787 569.317 214.662 569.401 214.506V213.598H568.874C568.168 213.598 567.792 213.842 567.746 214.33L567.741 214.413C567.741 214.589 567.803 214.734 567.927 214.848C568.05 214.962 568.22 215.019 568.435 215.019Z" fill="white"/>
<g clip-path="url(#clip2)">
<path d="M488.815 214.702C488.48 214.963 488.002 214.941 487.696 214.635L485.204 212.143C484.898 211.837 484.876 211.352 485.137 211.024L481.981 207.86C480.608 209.442 480.682 211.844 482.182 213.344L486.495 217.657C488.024 219.186 490.453 219.201 491.979 217.858L488.815 214.702Z" fill="white"/>
<path d="M485.92 208.643L484.339 207.054C483.921 206.636 483.182 206.636 482.757 207.054L482.496 207.322L485.659 210.486L485.92 210.225C486.137 210.008 486.249 209.732 486.249 209.434C486.249 209.135 486.137 208.852 485.92 208.643Z" fill="white"/>
<path d="M492.785 215.5L491.196 213.919C490.778 213.493 490.039 213.493 489.614 213.919L489.353 214.18L492.516 217.343L492.785 217.082C492.994 216.873 493.106 216.59 493.106 216.291C493.106 215.993 492.994 215.709 492.785 215.5Z" fill="white"/>
<path d="M487.39 206.102C486.899 206.102 486.897 206.843 487.39 206.843C490.476 206.843 492.991 209.358 492.991 212.444C492.991 212.936 493.733 212.938 493.733 212.444C493.733 208.947 490.888 206.102 487.39 206.102Z" fill="white"/>
<path d="M487.39 207.594C486.899 207.594 486.897 208.335 487.39 208.335C489.653 208.335 491.499 210.181 491.499 212.444C491.499 212.936 492.24 212.938 492.24 212.444C492.24 209.77 490.065 207.594 487.39 207.594Z" fill="white"/>
<path d="M487.39 209.086C486.899 209.086 486.897 209.828 487.39 209.828C488.83 209.828 490.007 211.004 490.007 212.444C490.007 212.936 490.748 212.938 490.748 212.444C490.748 210.593 489.242 209.086 487.39 209.086Z" fill="white"/>
<path d="M487.39 210.579C486.899 210.579 486.897 211.325 487.39 211.325C488.008 211.325 488.51 211.827 488.51 212.444C488.51 212.936 489.256 212.938 489.256 212.444C489.256 211.415 488.419 210.579 487.39 210.579Z" fill="white"/>
</g>
<rect x="456" y="156" width="142" height="30" rx="15" fill="#29DA65"/>
<path d="M501.912 170.919H499.1V172.823H502.4V174H497.635V166.891H502.391V168.077H499.1V169.771H501.912V170.919ZM504.466 168.717L504.51 169.327C504.887 168.855 505.394 168.619 506.028 168.619C506.588 168.619 507.005 168.784 507.278 169.112C507.552 169.441 507.692 169.933 507.698 170.587V174H506.287V170.621C506.287 170.322 506.222 170.105 506.092 169.972C505.962 169.835 505.745 169.767 505.442 169.767C505.045 169.767 504.747 169.936 504.549 170.274V174H503.138V168.717H504.466ZM510.75 172.276L511.731 168.717H513.206L511.424 174H510.076L508.294 168.717H509.769L510.75 172.276ZM515.32 174H513.904V168.717H515.32V174ZM513.821 167.35C513.821 167.138 513.891 166.964 514.031 166.827C514.174 166.69 514.368 166.622 514.612 166.622C514.853 166.622 515.045 166.69 515.188 166.827C515.332 166.964 515.403 167.138 515.403 167.35C515.403 167.564 515.33 167.74 515.184 167.877C515.04 168.014 514.85 168.082 514.612 168.082C514.375 168.082 514.183 168.014 514.036 167.877C513.893 167.74 513.821 167.564 513.821 167.35ZM518.919 174.098C518.144 174.098 517.513 173.86 517.024 173.385C516.539 172.91 516.297 172.276 516.297 171.485V171.349C516.297 170.818 516.399 170.344 516.604 169.928C516.81 169.508 517.099 169.186 517.474 168.961C517.851 168.733 518.281 168.619 518.763 168.619C519.485 168.619 520.053 168.847 520.467 169.303C520.883 169.758 521.092 170.405 521.092 171.241V171.817H517.728C517.773 172.162 517.91 172.439 518.138 172.647C518.369 172.856 518.66 172.96 519.012 172.96C519.555 172.96 519.98 172.763 520.286 172.369L520.979 173.146C520.768 173.445 520.481 173.679 520.12 173.849C519.759 174.015 519.358 174.098 518.919 174.098ZM518.758 169.762C518.478 169.762 518.25 169.856 518.074 170.045C517.902 170.234 517.791 170.504 517.742 170.855H519.705V170.743C519.699 170.431 519.614 170.19 519.451 170.021C519.288 169.848 519.057 169.762 518.758 169.762ZM524.866 170.04C524.674 170.014 524.505 170.001 524.358 170.001C523.825 170.001 523.475 170.182 523.309 170.543V174H521.897V168.717H523.23L523.27 169.347C523.553 168.862 523.945 168.619 524.446 168.619C524.603 168.619 524.749 168.64 524.886 168.683L524.866 170.04ZM533.67 171.949L534.627 166.891H536.087L534.51 174H533.035L531.878 169.244L530.721 174H529.246L527.669 166.891H529.129L530.091 171.939L531.263 166.891H532.503L533.67 171.949ZM538.167 169.293C538.541 168.844 539.012 168.619 539.578 168.619C540.724 168.619 541.305 169.285 541.321 170.616V174H539.91V170.655C539.91 170.353 539.845 170.13 539.715 169.986C539.585 169.84 539.368 169.767 539.065 169.767C538.652 169.767 538.353 169.926 538.167 170.245V174H536.756V166.5H538.167V169.293ZM545.447 174C545.382 173.873 545.335 173.715 545.306 173.526C544.964 173.907 544.52 174.098 543.973 174.098C543.455 174.098 543.025 173.948 542.684 173.648C542.345 173.349 542.176 172.971 542.176 172.516C542.176 171.956 542.382 171.526 542.796 171.227C543.213 170.927 543.813 170.776 544.598 170.772H545.247V170.47C545.247 170.226 545.184 170.03 545.057 169.884C544.933 169.737 544.736 169.664 544.466 169.664C544.228 169.664 544.041 169.721 543.904 169.835C543.771 169.949 543.704 170.105 543.704 170.304H542.293C542.293 169.998 542.387 169.715 542.576 169.454C542.765 169.194 543.032 168.99 543.377 168.844C543.722 168.694 544.109 168.619 544.539 168.619C545.19 168.619 545.706 168.784 546.087 169.112C546.471 169.438 546.663 169.897 546.663 170.489V172.779C546.666 173.281 546.736 173.66 546.873 173.917V174H545.447ZM544.28 173.019C544.489 173.019 544.681 172.973 544.856 172.882C545.032 172.787 545.162 172.662 545.247 172.506V171.598H544.72C544.013 171.598 543.637 171.842 543.592 172.33L543.587 172.413C543.587 172.589 543.649 172.734 543.772 172.848C543.896 172.962 544.065 173.019 544.28 173.019ZM549.437 167.418V168.717H550.34V169.752H549.437V172.389C549.437 172.584 549.474 172.724 549.549 172.809C549.624 172.893 549.767 172.936 549.979 172.936C550.135 172.936 550.273 172.924 550.394 172.901V173.971C550.117 174.055 549.832 174.098 549.539 174.098C548.549 174.098 548.045 173.598 548.025 172.599V169.752H547.254V168.717H548.025V167.418H549.437ZM553.987 172.54C553.987 172.368 553.901 172.232 553.729 172.135C553.559 172.034 553.286 171.944 552.908 171.866C551.652 171.603 551.023 171.069 551.023 170.265C551.023 169.796 551.217 169.405 551.604 169.093C551.995 168.777 552.505 168.619 553.133 168.619C553.803 168.619 554.339 168.777 554.739 169.093C555.143 169.409 555.345 169.819 555.345 170.323H553.934C553.934 170.121 553.868 169.955 553.738 169.825C553.608 169.692 553.405 169.625 553.128 169.625C552.89 169.625 552.706 169.679 552.576 169.786C552.446 169.894 552.381 170.03 552.381 170.196C552.381 170.353 552.454 170.479 552.601 170.577C552.75 170.672 553.001 170.755 553.353 170.826C553.704 170.895 554 170.973 554.241 171.061C554.987 171.334 555.359 171.808 555.359 172.481C555.359 172.963 555.153 173.354 554.739 173.653C554.326 173.95 553.792 174.098 553.138 174.098C552.695 174.098 552.301 174.02 551.956 173.863C551.614 173.704 551.346 173.487 551.15 173.214C550.955 172.937 550.857 172.639 550.857 172.32H552.195C552.208 172.571 552.301 172.763 552.474 172.896C552.646 173.03 552.877 173.097 553.167 173.097C553.437 173.097 553.641 173.046 553.777 172.945C553.917 172.841 553.987 172.706 553.987 172.54ZM559.334 174C559.269 173.873 559.222 173.715 559.192 173.526C558.851 173.907 558.406 174.098 557.859 174.098C557.342 174.098 556.912 173.948 556.57 173.648C556.232 173.349 556.062 172.971 556.062 172.516C556.062 171.956 556.269 171.526 556.683 171.227C557.099 170.927 557.7 170.776 558.484 170.772H559.134V170.47C559.134 170.226 559.07 170.03 558.943 169.884C558.82 169.737 558.623 169.664 558.353 169.664C558.115 169.664 557.928 169.721 557.791 169.835C557.658 169.949 557.591 170.105 557.591 170.304H556.18C556.18 169.998 556.274 169.715 556.463 169.454C556.652 169.194 556.919 168.99 557.264 168.844C557.609 168.694 557.996 168.619 558.426 168.619C559.077 168.619 559.593 168.784 559.974 169.112C560.358 169.438 560.55 169.897 560.55 170.489V172.779C560.553 173.281 560.623 173.66 560.76 173.917V174H559.334ZM558.167 173.019C558.375 173.019 558.567 172.973 558.743 172.882C558.919 172.787 559.049 172.662 559.134 172.506V171.598H558.606C557.9 171.598 557.524 171.842 557.479 172.33L557.474 172.413C557.474 172.589 557.535 172.734 557.659 172.848C557.783 172.962 557.952 173.019 558.167 173.019ZM566.39 171.407C566.39 172.221 566.204 172.874 565.833 173.365C565.465 173.854 564.967 174.098 564.339 174.098C563.805 174.098 563.374 173.912 563.045 173.541V176.031H561.634V168.717H562.942L562.991 169.234C563.333 168.824 563.779 168.619 564.329 168.619C564.98 168.619 565.486 168.86 565.848 169.342C566.209 169.824 566.39 170.488 566.39 171.334V171.407ZM564.979 171.305C564.979 170.813 564.891 170.434 564.715 170.167C564.542 169.9 564.29 169.767 563.958 169.767C563.515 169.767 563.211 169.936 563.045 170.274V172.438C563.217 172.786 563.525 172.96 563.968 172.96C564.642 172.96 564.979 172.408 564.979 171.305ZM572.024 171.407C572.024 172.221 571.839 172.874 571.468 173.365C571.1 173.854 570.602 174.098 569.974 174.098C569.44 174.098 569.008 173.912 568.68 173.541V176.031H567.269V168.717H568.577L568.626 169.234C568.968 168.824 569.414 168.619 569.964 168.619C570.615 168.619 571.121 168.86 571.482 169.342C571.844 169.824 572.024 170.488 572.024 171.334V171.407ZM570.613 171.305C570.613 170.813 570.525 170.434 570.35 170.167C570.177 169.9 569.925 169.767 569.593 169.767C569.15 169.767 568.846 169.936 568.68 170.274V172.438C568.852 172.786 569.16 172.96 569.603 172.96C570.276 172.96 570.613 172.408 570.613 171.305Z" fill="white"/>
<path d="M486.369 164.078H486.366C482.855 164.078 480 166.934 480 170.445C480 171.838 480.449 173.129 481.212 174.177L480.419 176.543L482.866 175.76C483.873 176.427 485.074 176.812 486.369 176.812C489.879 176.812 492.734 173.956 492.734 170.445C492.734 166.935 489.879 164.078 486.369 164.078ZM490.074 173.069C489.92 173.503 489.31 173.863 488.824 173.968C488.491 174.039 488.057 174.095 486.594 173.489C484.723 172.714 483.518 170.812 483.424 170.689C483.334 170.565 482.668 169.682 482.668 168.768C482.668 167.855 483.132 167.41 483.319 167.219C483.473 167.062 483.726 166.99 483.97 166.99C484.049 166.99 484.12 166.994 484.183 166.997C484.37 167.005 484.464 167.017 484.588 167.312C484.741 167.682 485.115 168.596 485.16 168.69C485.205 168.783 485.251 168.911 485.187 169.034C485.127 169.162 485.075 169.218 484.981 169.326C484.887 169.435 484.798 169.517 484.704 169.633C484.618 169.735 484.521 169.843 484.629 170.03C484.737 170.213 485.111 170.823 485.662 171.314C486.373 171.946 486.949 172.149 487.155 172.234C487.309 172.298 487.492 172.283 487.604 172.164C487.746 172.01 487.922 171.755 488.101 171.505C488.229 171.325 488.39 171.302 488.558 171.366C488.73 171.426 489.64 171.876 489.827 171.969C490.014 172.063 490.137 172.107 490.183 172.186C490.227 172.265 490.227 172.635 490.074 173.069Z" fill="white"/>
<g clip-path="url(#clip3)">
<path d="M597.665 45.8412C598.286 46.4629 598.286 47.4707 597.665 48.0924C597.043 48.714 596.035 48.714 595.413 48.0924C594.792 47.4707 594.792 46.4629 595.413 45.8412C596.035 45.2196 597.043 45.2196 597.665 45.8412Z" fill="#97A3AF"/>
<path d="M597.665 50.6166C598.286 51.2382 598.286 52.2461 597.665 52.8677C597.043 53.4894 596.035 53.4894 595.413 52.8677C594.792 52.2461 594.792 51.2382 595.413 50.6166C596.035 49.995 597.043 49.995 597.665 50.6166" fill="#97A3AF"/>
<path d="M597.665 55.392C598.286 56.0136 598.286 57.0215 597.665 57.6431C597.043 58.2648 596.035 58.2648 595.413 57.6431C594.792 57.0215 594.792 56.0136 595.413 55.392C596.035 54.7704 597.043 54.7704 597.665 55.392" fill="#97A3AF"/>
</g>
<rect x="476.836" y="45.375" width="109.516" height="12.7344" fill="#F5F5F5"/>
<g clip-path="url(#clip4)">
<path d="M469.195 50.8326H460.099L463.283 47.6491L461.919 46.2847L456.461 51.7422L461.919 57.1998L463.283 55.8354L460.099 52.6518H469.195V50.8326Z" fill="#97A3AF"/>
</g>
</g>
<defs>
<filter id="filter0_d" x="0" y="47" width="516" height="312" filterUnits="userSpaceOnUse" color-interpolation-filters="sRGB">
<feFlood flood-opacity="0" result="BackgroundImageFix"/>
<feColorMatrix in="SourceAlpha" type="matrix" values="0 0 0 0 0 0 0 0 0 0 0 0 0 0 0 0 0 0 127 0"/>
<feOffset dy="4"/>
<feGaussianBlur stdDeviation="5"/>
<feColorMatrix type="matrix" values="0 0 0 0 0 0 0 0 0 0 0 0 0 0 0 0 0 0 0.25 0"/>
<feBlend mode="normal" in2="BackgroundImageFix" result="effect1_dropShadow"/>
<feBlend mode="normal" in="SourceGraphic" in2="effect1_dropShadow" result="shape"/>
</filter>
<filter id="filter1_d" x="213" y="0" width="300" height="316" filterUnits="userSpaceOnUse" color-interpolation-filters="sRGB">
<feFlood flood-opacity="0" result="BackgroundImageFix"/>
<feColorMatrix in="SourceAlpha" type="matrix" values="0 0 0 0 0 0 0 0 0 0 0 0 0 0 0 0 0 0 127 0"/>
<feOffset dy="4"/>
<feGaussianBlur stdDeviation="5"/>
<feColorMatrix type="matrix" values="0 0 0 0 0 0 0 0 0 0 0 0 0 0 0 0 0 0 0.25 0"/>
<feBlend mode="normal" in2="BackgroundImageFix" result="effect1_dropShadow"/>
<feBlend mode="normal" in="SourceGraphic" in2="effect1_dropShadow" result="shape"/>
</filter>
<filter id="filter2_d" x="299" y="215" width="132.889" height="36" filterUnits="userSpaceOnUse" color-interpolation-filters="sRGB">
<feFlood flood-opacity="0" result="BackgroundImageFix"/>
<feColorMatrix in="SourceAlpha" type="matrix" values="0 0 0 0 0 0 0 0 0 0 0 0 0 0 0 0 0 0 127 0"/>
<feOffset dy="2"/>
<feGaussianBlur stdDeviation="1"/>
<feColorMatrix type="matrix" values="0 0 0 0 0 0 0 0 0 0 0 0 0 0 0 0 0 0 0.15 0"/>
<feBlend mode="normal" in2="BackgroundImageFix" result="effect1_dropShadow"/>
<feBlend mode="normal" in="SourceGraphic" in2="effect1_dropShadow" result="shape"/>
</filter>
<filter id="filter3_d" x="267" y="57" width="188" height="178" filterUnits="userSpaceOnUse" color-interpolation-filters="sRGB">
<feFlood flood-opacity="0" result="BackgroundImageFix"/>
<feColorMatrix in="SourceAlpha" type="matrix" values="0 0 0 0 0 0 0 0 0 0 0 0 0 0 0 0 0 0 127 0"/>
<feOffset dy="4"/>
<feGaussianBlur stdDeviation="5"/>
<feColorMatrix type="matrix" values="0 0 0 0 0 0 0 0 0 0 0 0 0 0 0 0 0 0 0.25 0"/>
<feBlend mode="normal" in2="BackgroundImageFix" result="effect1_dropShadow"/>
<feBlend mode="normal" in="SourceGraphic" in2="effect1_dropShadow" result="shape"/>
</filter>
<filter id="filter4_d" x="435" y="19" width="184.273" height="346" filterUnits="userSpaceOnUse" color-interpolation-filters="sRGB">
<feFlood flood-opacity="0" result="BackgroundImageFix"/>
<feColorMatrix in="SourceAlpha" type="matrix" values="0 0 0 0 0 0 0 0 0 0 0 0 0 0 0 0 0 0 127 0"/>
<feOffset dy="4"/>
<feGaussianBlur stdDeviation="5"/>
<feColorMatrix type="matrix" values="0 0 0 0 0 0 0 0 0 0 0 0 0 0 0 0 0 0 0.25 0"/>
<feBlend mode="normal" in2="BackgroundImageFix" result="effect1_dropShadow"/>
<feBlend mode="normal" in="SourceGraphic" in2="effect1_dropShadow" result="shape"/>
</filter>
<clipPath id="clip0">
<rect width="10" height="10" fill="white" transform="translate(75 74)"/>
</clipPath>
<clipPath id="clip1">
<rect width="15.037" height="16" fill="white" transform="translate(321 222)"/>
</clipPath>
<clipPath id="clip2">
<rect width="12.7344" height="12.7344" fill="white" transform="translate(481 206.102)"/>
</clipPath>
<clipPath id="clip3">
<rect width="12.7344" height="12.7344" fill="white" transform="translate(590.172 45.375)"/>
</clipPath>
<clipPath id="clip4">
<rect width="12.7344" height="12.7344" fill="white" transform="translate(456.461 45.375)"/>
</clipPath>
</defs>
</svg>
