<svg width="687" height="522" viewBox="0 0 687 522" fill="none" xmlns="http://www.w3.org/2000/svg">
<g clip-path="url(#clip0)">
<path opacity="0.24" d="M31.7074 429.358C19.8753 415.341 9.65427 399.561 4.35686 381.994C-7.4753 342.637 6.65111 300.377 24.1158 263.131C40.8716 227.453 70.2715 181.009 70.8773 140.666C70.9933 133.386 69.0986 126.234 67.9644 119.031C65.6317 103.35 66.8936 87.3397 71.6537 72.2228C76.4138 57.1059 84.5464 43.2816 95.431 31.8047C112.847 14.067 135.985 3.153 160.688 1.02335C238.113 -6.06309 321.802 25.9231 370.69 32.4265C427.002 39.9275 484.616 22.0624 540.709 31.131C590.629 39.1761 639.001 15.7403 665.012 59.3213C691.022 102.902 693.728 212.839 674.33 259.776C667.164 277.123 656.904 293.252 652.045 311.389C646.709 331.34 648.269 352.521 651.813 372.874C654.636 389.119 658.709 405.546 656.531 421.896C653.953 441.328 642.649 458.662 628.819 472.486C590.539 510.755 533.311 524.824 479.422 521.534C425.533 518.243 373.873 499.51 323.464 480.168C311.349 475.504 299.168 470.762 286.37 468.599C271.74 466.137 256.725 467.135 241.993 468.405C200.593 471.915 157.298 484.676 116.144 485.363C83.8824 485.907 51.2215 452.496 31.7074 429.358Z" fill="#30485F" fill-opacity="0.09"/>
<path d="M575.329 283.354C577.031 278.781 576.399 273.677 577.147 268.845C577.409 266.537 578.262 264.336 579.621 262.458C580.757 261.052 582.271 260.005 583.983 259.442C585.695 258.879 587.533 258.824 589.275 259.284C593.877 260.579 596.802 265.385 597.318 270.153C597.834 274.92 596.429 279.662 594.882 284.196C591.647 293.615 587.78 302.8 584.48 312.192C581.761 319.965 580.008 330.018 586.349 335.239C587.973 336.535 590.01 337.429 591.389 339.022C592.526 340.485 593.259 342.223 593.516 344.062C596.003 357.289 586.633 370.14 575.471 377.499C571.759 379.935 567.622 382.033 563.201 382.15C556.215 382.318 549.86 377.331 546.625 371.099C543.39 364.868 542.759 357.626 542.887 350.604C543.181 341.672 543.999 332.765 545.336 323.93C546.264 316.882 547.218 309.679 549.848 303.201C551.845 298.201 555.957 290.246 561.68 289.08C567.402 287.914 572.249 291.645 575.329 283.354Z" fill="#2A94F4"/>
<path d="M572.919 283.082C574.62 278.496 573.989 273.405 574.736 268.572C574.999 266.26 575.851 264.056 577.211 262.173C578.348 260.769 579.863 259.724 581.575 259.164C583.287 258.603 585.124 258.55 586.865 259.012C591.466 260.307 594.392 265.113 594.908 269.868C595.423 274.622 594.018 279.377 592.472 283.911C589.236 293.33 585.37 302.515 582.07 311.92C579.351 319.693 577.598 329.733 583.939 334.954C585.563 336.25 587.6 337.157 588.979 338.75C590.115 340.209 590.849 341.942 591.105 343.777C593.593 357.017 584.223 369.855 573.061 377.227C569.349 379.662 565.211 381.761 560.79 381.865C553.804 382.046 547.45 377.045 544.215 370.827C540.98 364.609 540.348 357.341 540.477 350.319C540.772 341.387 541.59 332.48 542.926 323.645C543.854 316.597 544.808 309.472 547.437 302.916C549.435 297.929 553.547 290.039 559.282 288.808C565.018 287.578 569.838 291.347 572.919 283.082Z" fill="url(#paint0_linear)"/>
<path d="M588.167 224.201C574.762 246.562 578.513 276.76 563.098 297.786C558.419 304.173 552.193 309.342 547.992 316.066C543.79 322.79 542.088 332.091 546.935 338.349C559.978 330.744 564.528 314.485 571.024 300.779C571.47 299.627 572.197 298.607 573.138 297.812C576.657 295.312 581.026 300.209 581.413 304.523C582.457 316.014 572.764 325.368 568.756 336.172C563.729 349.723 567.325 366.72 557.787 377.551C555.854 379.74 553.25 381.606 550.325 381.619C548.189 381.493 546.125 380.8 544.344 379.611C537.332 375.504 531.378 369.799 526.961 362.956C522.545 356.113 519.788 348.324 518.914 340.214C517.535 326.404 519.146 310.21 527.562 299.211C534.432 290.233 534.213 280.711 538.415 269.933C542.809 258.748 549.681 248.718 558.509 240.602C562.717 236.729 567.358 233.36 572.339 230.562C575.149 229.02 586.917 226.352 588.167 224.201Z" fill="#2A94F4"/>
<path d="M586.362 224.201C572.958 246.562 576.695 276.76 561.293 297.786C556.614 304.173 550.389 309.342 546.187 316.066C541.985 322.79 540.284 332.091 545.117 338.349C558.174 330.744 562.711 314.485 569.22 300.779C569.66 299.624 570.388 298.603 571.333 297.812C574.852 295.312 579.222 300.209 579.608 304.523C580.652 316.014 570.96 325.368 566.951 336.172C561.924 349.723 565.521 366.72 555.983 377.551C554.049 379.74 551.433 381.606 548.52 381.619C546.381 381.491 544.313 380.799 542.526 379.611C535.518 375.5 529.567 369.794 525.15 362.952C520.734 356.11 517.975 348.322 517.096 340.214C515.73 326.404 517.341 310.21 525.745 299.211C532.628 290.233 532.409 280.711 536.61 269.933C541.004 258.748 547.876 248.718 556.704 240.602C560.912 236.729 565.553 233.36 570.534 230.562C573.357 229.02 585.112 226.352 586.362 224.201Z" fill="url(#paint1_linear)"/>
<path d="M107.804 308.642C105.226 300.869 104.195 292.746 101.759 284.973C99.3232 277.2 95.0569 269.492 87.9421 265.605C80.8274 261.719 70.4517 263.17 66.5334 270.308C64.9785 273.384 64.4153 276.871 64.9223 280.284C66.3401 292.319 76.3162 301.737 78.9713 313.565C80.5567 320.587 79.4096 327.958 80.4407 335.097C81.1873 340.085 82.9669 344.859 85.6644 349.113C88.3619 353.366 91.9174 357.003 96.1009 359.789C100.87 362.924 106.335 364.867 111.207 367.847C117.616 371.793 122.83 377.424 126.287 384.132C130.333 380.445 133.526 375.912 135.642 370.851C137.757 365.79 138.744 360.325 138.532 354.84C137.436 331.016 114.506 328.49 107.804 308.642Z" fill="#2A94F4"/>
<path d="M107.804 308.642C105.226 300.869 104.195 292.746 101.759 284.973C99.3232 277.2 95.0569 269.492 87.9421 265.605C80.8274 261.719 70.4517 263.17 66.5334 270.308C64.9785 273.384 64.4153 276.871 64.9223 280.284C66.3401 292.319 76.3162 301.737 78.9713 313.565C80.5567 320.587 79.4096 327.958 80.4407 335.097C81.1873 340.085 82.9669 344.859 85.6644 349.113C88.3619 353.366 91.9174 357.003 96.1009 359.789C100.87 362.924 106.335 364.867 111.207 367.847C117.616 371.793 122.83 377.424 126.287 384.132C130.333 380.445 133.526 375.912 135.642 370.851C137.757 365.79 138.744 360.325 138.532 354.84C137.436 331.016 114.506 328.49 107.804 308.642Z" fill="url(#paint2_linear)"/>
<path d="M135.271 265.877C134.227 260.812 134.265 255.513 132.693 250.577C131.12 245.642 127.383 240.848 122.253 240.33C116.35 239.734 111.22 245.24 110.021 251.083C108.822 256.925 110.498 262.937 112.174 268.663L118.708 291.075C120.745 298.032 121.982 307.23 115.808 310.987C114.345 311.723 112.839 312.368 111.297 312.917C108.724 314.119 106.558 316.053 105.069 318.481C103.579 320.908 102.832 323.722 102.919 326.572C103.254 333.646 108.578 339.281 113.23 344.619C117.883 349.956 122.343 356.745 120.564 363.598C119.275 368.676 114.597 373.081 115.563 378.237C116.35 382.512 120.99 385.168 125.32 385.207C129.651 385.246 133.724 383.315 137.629 381.424L156.28 372.355C162.273 369.441 168.576 366.267 172.159 360.618C174.384 356.703 175.673 352.321 175.923 347.819C177.533 330.707 172.957 313.585 163.034 299.587C153.908 286.826 138.867 283.276 135.271 265.877Z" fill="#2A94F4"/>
<path d="M135.271 265.877C134.227 260.812 134.265 255.513 132.693 250.577C131.12 245.642 127.383 240.848 122.253 240.33C116.35 239.734 111.22 245.24 110.021 251.083C108.822 256.925 110.498 262.937 112.174 268.663L118.708 291.075C120.745 298.032 121.982 307.23 115.808 310.987C114.345 311.723 112.839 312.368 111.297 312.917C108.724 314.119 106.558 316.053 105.069 318.481C103.579 320.908 102.832 323.722 102.919 326.572C103.254 333.646 108.578 339.281 113.23 344.619C117.883 349.956 122.343 356.745 120.564 363.598C119.275 368.676 114.597 373.081 115.563 378.237C116.35 382.512 120.99 385.168 125.32 385.207C129.651 385.246 133.724 383.315 137.629 381.424L156.28 372.355C162.273 369.441 168.576 366.267 172.159 360.618C174.384 356.703 175.673 352.321 175.923 347.819C177.533 330.707 172.957 313.585 163.034 299.587C153.908 286.826 138.867 283.276 135.271 265.877Z" fill="url(#paint3_linear)"/>
<path d="M517.625 105.338H173.036C161.724 105.338 152.555 114.554 152.555 125.924V335.187C152.555 346.557 161.724 355.773 173.036 355.773H517.625C528.936 355.773 538.105 346.557 538.105 335.187V125.924C538.105 114.554 528.936 105.338 517.625 105.338Z" fill="#30485F"/>
<path d="M506.282 115.028H181.117C170.447 115.028 161.796 123.723 161.796 134.448V331.91C161.796 342.635 170.447 351.329 181.117 351.329H506.282C516.953 351.329 525.603 342.635 525.603 331.91V134.448C525.603 123.723 516.953 115.028 506.282 115.028Z" fill="white"/>
<g opacity="0.52">
<path opacity="0.52" d="M287.065 166.382H213.907V171.772H287.065V166.382Z" fill="#2A94F4"/>
<path opacity="0.52" d="M258.555 176.811H213.907V181.876H258.555V176.811Z" fill="#2A94F4"/>
<path opacity="0.52" d="M417.09 176.811H276.574V181.902H417.09V176.811Z" fill="#2A94F4"/>
<path opacity="0.52" d="M298.524 187.279H237.12V192.616H298.524V187.279Z" fill="#2A94F4"/>
<path opacity="0.52" d="M329.986 197.708H256.828V203.097H329.986V197.708Z" fill="#2A94F4"/>
<path opacity="0.52" d="M396.068 197.708H334.755V203.693H396.068V197.708Z" fill="#2A94F4"/>
<path opacity="0.52" d="M313.217 208.149H256.724V213.215H313.217V208.149Z" fill="#2A94F4"/>
<path opacity="0.52" d="M435.199 208.149H318.631V213.759H435.199V208.149Z" fill="#2A94F4"/>
<path opacity="0.52" d="M287.065 222.271H213.907V227.66H287.065V222.271Z" fill="#2A94F4"/>
<path opacity="0.52" d="M258.555 232.7H213.907V237.765H258.555V232.7Z" fill="#2A94F4"/>
<path opacity="0.52" d="M417.09 232.7H276.574V237.791H417.09V232.7Z" fill="#2A94F4"/>
<path opacity="0.52" d="M298.524 243.141H237.12V248.479H298.524V243.141Z" fill="#2A94F4"/>
<path opacity="0.52" d="M329.986 253.596H256.828V258.986H329.986V253.596Z" fill="#2A94F4"/>
<path opacity="0.52" d="M396.068 253.596H334.755V259.581H396.068V253.596Z" fill="#2A94F4"/>
<path opacity="0.52" d="M313.217 264.038H256.724V269.104H313.217V264.038Z" fill="#2A94F4"/>
<path opacity="0.52" d="M435.199 264.038H318.631V269.648H435.199V264.038Z" fill="#2A94F4"/>
<path opacity="0.52" d="M287.065 278.159H213.907V283.548H287.065V278.159Z" fill="#2A94F4"/>
<path opacity="0.52" d="M258.555 288.588H213.907V293.653H258.555V288.588Z" fill="#2A94F4"/>
<path opacity="0.52" d="M417.09 288.588H276.574V293.679H417.09V288.588Z" fill="#2A94F4"/>
<path opacity="0.52" d="M298.524 299.03H237.12V304.367H298.524V299.03Z" fill="#2A94F4"/>
<path opacity="0.52" d="M329.986 309.458H256.828V314.848H329.986V309.458Z" fill="#2A94F4"/>
<path opacity="0.52" d="M396.068 309.458H334.755V315.444H396.068V309.458Z" fill="#2A94F4"/>
<path opacity="0.52" d="M313.217 319.926H256.724V324.992H313.217V319.926Z" fill="#2A94F4"/>
<path opacity="0.52" d="M435.199 319.926H318.631V325.536H435.199V319.926Z" fill="#2A94F4"/>
</g>
<path d="M164.903 353.882L93.2266 408.125H595.024L524.946 353.079L164.903 353.882Z" fill="#2A94F4"/>
<path d="M164.903 353.882L93.2266 408.125H595.024L524.946 353.079L164.903 353.882Z" fill="#CFCFCF"/>
<path d="M113.759 427.959L93.2266 408.125H595.024L576.489 429.177L113.759 427.959Z" fill="#2A94F4"/>
<path d="M113.759 427.959L93.2266 408.125H595.024L576.489 429.177L113.759 427.959Z" fill="url(#paint4_linear)"/>
<path opacity="0.58" d="M287.735 399.626L309.08 382.616L387.213 382.214L409.769 399.211L287.735 399.626Z" fill="#30485F"/>
<path opacity="0.58" d="M139.137 379.52L545.079 378.976L523.335 361.163H164.104L139.137 379.52Z" fill="#30485F"/>
<path opacity="0.24" d="M341.649 162.248L342.345 158.633C342.474 157.96 342.59 157.273 342.719 156.522C343.853 156.716 344.936 156.884 346.018 157.105C346.091 157.133 346.168 157.146 346.246 157.143C346.324 157.14 346.4 157.121 346.471 157.087C346.541 157.053 346.603 157.005 346.654 156.945C346.705 156.886 346.743 156.817 346.766 156.742C347.256 155.783 347.797 154.85 348.377 153.944C348.43 153.893 348.473 153.831 348.502 153.763C348.531 153.696 348.546 153.622 348.546 153.548C348.546 153.474 348.531 153.401 348.502 153.333C348.473 153.265 348.43 153.204 348.377 153.153C347.655 152.311 346.946 151.443 346.199 150.562L350.89 146.598C351.625 147.466 352.347 148.308 353.03 149.189C353.072 149.261 353.128 149.323 353.195 149.372C353.262 149.422 353.339 149.456 353.42 149.475C353.501 149.493 353.584 149.494 353.666 149.478C353.747 149.463 353.825 149.43 353.893 149.383C354.836 148.962 355.805 148.603 356.793 148.308C357.257 148.179 357.361 147.997 357.348 147.57C357.348 146.481 357.348 145.406 357.348 144.292H363.483C363.483 145.393 363.483 146.481 363.483 147.583C363.483 148.023 363.599 148.179 364.037 148.308C365.025 148.606 365.993 148.966 366.937 149.383C367.006 149.43 367.085 149.461 367.167 149.476C367.249 149.491 367.333 149.488 367.414 149.469C367.495 149.45 367.571 149.413 367.638 149.363C367.704 149.313 367.76 149.249 367.801 149.176C368.484 148.321 369.193 147.492 369.927 146.585L374.632 150.549L372.222 153.438C372.866 154.656 373.511 155.809 374.129 156.936C374.205 157.005 374.296 157.056 374.394 157.085C374.492 157.114 374.595 157.121 374.696 157.105L378.048 156.522L379.117 162.585C377.97 162.792 376.862 162.973 375.766 163.193C375.586 163.193 375.315 163.401 375.289 163.543C375.07 164.839 374.89 166.134 374.696 167.43L377.932 169.321L374.864 174.659L371.603 172.78C370.546 173.622 369.528 174.426 368.535 175.268C368.478 175.339 368.438 175.424 368.42 175.514C368.403 175.604 368.407 175.698 368.432 175.786C368.806 176.874 369.206 177.962 369.605 179.089L363.844 181.201C363.496 180.216 363.109 179.258 362.8 178.273C362.619 177.703 362.374 177.535 361.756 177.587C360.76 177.658 359.761 177.658 358.765 177.587C358.405 177.587 358.263 177.664 358.16 178.001C357.799 179.051 357.399 180.1 356.987 181.214L351.161 179.167L352.45 175.592L349.176 172.806L345.889 174.711L342.822 169.373C343.827 168.79 344.781 168.22 345.748 167.676C345.816 167.65 345.879 167.611 345.933 167.56C345.986 167.509 346.028 167.448 346.057 167.38C346.086 167.312 346.101 167.239 346.101 167.165C346.101 167.091 346.086 167.018 346.057 166.95C345.825 165.954 345.645 164.947 345.516 163.932C345.516 163.44 345.348 163.206 344.794 163.142C343.737 163.012 342.68 162.792 341.623 162.598L341.649 162.248ZM360.428 154.889C358.88 154.869 357.361 155.31 356.062 156.157C354.763 157.004 353.743 158.218 353.13 159.647C352.517 161.076 352.339 162.656 352.618 164.186C352.898 165.717 353.622 167.13 354.699 168.247C355.777 169.365 357.16 170.136 358.673 170.465C360.186 170.793 361.762 170.663 363.203 170.092C364.643 169.521 365.882 168.534 366.765 167.255C367.647 165.977 368.133 164.464 368.162 162.908C368.189 160.816 367.391 158.797 365.942 157.294C364.493 155.792 362.51 154.927 360.428 154.889Z" fill="#2A94F4"/>
<rect x="258" y="181" width="138" height="143" rx="10" fill="#B939FF" fill-opacity="0.21"/>
<rect x="253" y="172" width="138" height="143" rx="10" fill="white"/>
<g clip-path="url(#clip1)">
<path d="M331.593 219.834V228.761C331.593 229.164 331.267 229.491 330.864 229.491H327.849C327.446 229.491 327.119 229.164 327.119 228.761V225.761C327.119 225.358 326.792 225.031 326.389 225.031H323.374C322.971 225.031 322.644 225.358 322.644 225.761V228.776C322.644 229.179 322.971 229.506 323.374 229.506H326.389C326.792 229.506 327.119 229.832 327.119 230.235V233.236C327.119 233.639 327.446 233.965 327.849 233.965H335.463C335.866 233.965 336.193 233.639 336.193 233.236V230.221C336.193 229.818 336.52 229.491 336.923 229.491H341.25C341.653 229.491 341.98 229.164 341.98 228.761V219.834C341.98 219.431 341.653 219.104 341.25 219.104H332.323C331.92 219.104 331.593 219.431 331.593 219.834Z" fill="black"/>
<path d="M310.311 238.503H317.44C317.843 238.503 318.17 238.176 318.17 237.773V234.758C318.17 234.355 317.843 234.028 317.44 234.028H310.311C309.908 234.028 309.581 234.355 309.581 234.758V237.773C309.581 238.176 309.908 238.503 310.311 238.503Z" fill="black"/>
<path d="M321.915 219.167H316.281C315.878 219.167 315.551 219.494 315.551 219.897V222.912C315.551 223.315 315.878 223.642 316.281 223.642H321.915C322.318 223.642 322.645 223.315 322.645 222.912V219.897C322.644 219.494 322.318 219.167 321.915 219.167Z" fill="black"/>
<path d="M327.269 246.722V243.707C327.269 243.304 326.943 242.977 326.54 242.977H323.525C323.122 242.977 322.795 243.304 322.795 243.707V246.722C322.795 247.125 323.122 247.452 323.525 247.452H326.54C326.943 247.452 327.269 247.125 327.269 246.722Z" fill="black"/>
<path d="M336.193 242.977V242.594V239.233C336.193 238.83 335.867 238.503 335.464 238.503H327.999C327.596 238.503 327.27 238.83 327.27 239.233V242.248C327.27 242.651 327.596 242.977 327.999 242.977H330.624C331.027 242.977 331.354 243.304 331.354 243.707V246.489V247.452V256.146C331.354 256.549 331.68 256.875 332.083 256.875H341.011C341.414 256.875 341.74 256.549 341.74 256.146V247.218C341.74 246.816 341.414 246.489 341.011 246.489H336.923C336.52 246.489 336.193 246.162 336.193 245.759V242.977H336.193Z" fill="black"/>
<path d="M336.193 234.821V237.836C336.193 238.239 336.52 238.566 336.923 238.566H339.938C340.341 238.566 340.668 238.239 340.668 237.836V234.821C340.668 234.418 340.341 234.091 339.938 234.091H336.923C336.52 234.091 336.193 234.418 336.193 234.821Z" fill="black"/>
<path d="M307.204 242.977H308.851C309.254 242.977 309.581 242.651 309.581 242.248V239.233C309.581 238.83 309.254 238.503 308.851 238.503H305.836C305.433 238.503 305.107 238.83 305.107 239.233V241.285C305.107 241.688 304.78 242.014 304.377 242.014H302.73C302.327 242.014 302 242.341 302 242.744V246.489V247.683V256.146C302 256.549 302.327 256.876 302.73 256.876H311.657C312.06 256.876 312.387 256.549 312.387 256.146V247.219C312.387 246.816 312.06 246.489 311.657 246.489H307.204C306.801 246.489 306.474 246.162 306.474 245.759V243.707C306.474 243.304 306.801 242.977 307.204 242.977Z" fill="black"/>
<path d="M321.336 247.452V243.707C321.336 243.304 321.662 242.977 322.065 242.977C322.468 242.977 322.795 242.651 322.795 242.248V239.295C322.795 238.892 323.122 238.566 323.525 238.566H326.389C326.792 238.566 327.119 238.239 327.119 237.836V234.821C327.119 234.418 326.792 234.091 326.389 234.091H323.374C322.971 234.091 322.644 234.418 322.644 234.821V237.773C322.644 238.176 322.317 238.503 321.915 238.503H319.05C318.647 238.503 318.321 238.83 318.321 239.233V242.248C318.321 242.651 317.994 242.977 317.591 242.977H314.425C314.022 242.977 313.696 243.304 313.696 243.707V246.722C313.696 247.125 314.022 247.452 314.425 247.452H316.131C316.534 247.452 316.861 247.779 316.861 248.182V251.196C316.861 251.599 317.188 251.926 317.591 251.926H320.577C320.979 251.926 321.306 252.253 321.306 252.656V255.671C321.306 256.074 321.633 256.401 322.036 256.401H329.609C330.012 256.401 330.339 256.074 330.339 255.671V252.656C330.339 252.253 330.012 251.926 329.609 251.926H322.065C321.662 251.926 321.336 251.599 321.336 251.196V247.452H321.336Z" fill="black"/>
<path d="M322.645 233.299V230.283C322.645 229.88 322.318 229.554 321.915 229.554H318.9C318.497 229.554 318.17 229.88 318.17 230.283V233.299C318.17 233.701 318.497 234.028 318.9 234.028H321.915C322.318 234.028 322.645 233.702 322.645 233.299Z" fill="black"/>
<path d="M305.836 234.028H308.852C309.254 234.028 309.581 233.701 309.581 233.298V230.283C309.581 229.88 309.908 229.553 310.311 229.553H311.916H316.131C316.534 229.553 316.861 229.227 316.861 228.824V225.809C316.861 225.406 316.534 225.079 316.131 225.079H313.116C312.713 225.079 312.387 224.752 312.387 224.349V219.897C312.387 219.494 312.06 219.167 311.657 219.167H302.73C302.327 219.167 302 219.494 302 219.897V228.824C302 229.227 302.327 229.554 302.73 229.554H304.377C304.78 229.554 305.107 229.88 305.107 230.283V233.298C305.107 233.701 305.433 234.028 305.836 234.028Z" fill="black"/>
</g>
</g>
<path d="M436.216 90.5325L514.095 289.016L302.639 256.5L436.216 90.5325Z" fill="#F5F5F5" fill-opacity="0.33"/>
<path d="M436.216 90.5325L302.639 256.5L302.64 220L436.216 90.5325Z" fill="#F5F5F5" fill-opacity="0.33"/>
<rect x="431" y="82" width="192" height="359" rx="20" fill="#30485F"/>
<rect x="439" y="90" width="176" height="344" rx="20" fill="white"/>
<rect x="447" y="354" width="160" height="42" rx="21" fill="#2A94F4"/>
<path d="M507.04 376.89V378H502.805V370.77H504.15V376.89H507.04ZM512.235 376.89V378H508V370.77H509.345V376.89H512.235ZM517.016 375.27L516.136 372.865C516.092 372.758 516.047 372.632 516.001 372.485C515.954 372.338 515.907 372.18 515.861 372.01C515.817 372.18 515.772 372.34 515.726 372.49C515.679 372.637 515.634 372.765 515.591 372.875L514.716 375.27H517.016ZM519.391 378H518.351C518.234 378 518.139 377.972 518.066 377.915C517.992 377.855 517.937 377.782 517.901 377.695L517.361 376.22H514.366L513.826 377.695C513.799 377.772 513.747 377.842 513.671 377.905C513.594 377.968 513.499 378 513.386 378H512.336L515.181 370.77H516.551L519.391 378ZM527.979 370.77V378H526.794V373.33C526.794 373.143 526.804 372.942 526.824 372.725L524.639 376.83C524.536 377.027 524.377 377.125 524.164 377.125H523.974C523.761 377.125 523.602 377.027 523.499 376.83L521.289 372.71C521.299 372.82 521.307 372.928 521.314 373.035C521.321 373.142 521.324 373.24 521.324 373.33V378H520.139V370.77H521.154C521.214 370.77 521.266 370.772 521.309 370.775C521.352 370.778 521.391 370.787 521.424 370.8C521.461 370.813 521.492 370.835 521.519 370.865C521.549 370.895 521.577 370.935 521.604 370.985L523.769 375C523.826 375.107 523.877 375.217 523.924 375.33C523.974 375.443 524.022 375.56 524.069 375.68C524.116 375.557 524.164 375.438 524.214 375.325C524.264 375.208 524.317 375.097 524.374 374.99L526.509 370.985C526.536 370.935 526.564 370.895 526.594 370.865C526.624 370.835 526.656 370.813 526.689 370.8C526.726 370.787 526.766 370.778 526.809 370.775C526.852 370.772 526.904 370.77 526.964 370.77H527.979ZM533.412 375.27L532.532 372.865C532.489 372.758 532.444 372.632 532.397 372.485C532.35 372.338 532.304 372.18 532.257 372.01C532.214 372.18 532.169 372.34 532.122 372.49C532.075 372.637 532.03 372.765 531.987 372.875L531.112 375.27H533.412ZM535.787 378H534.747C534.63 378 534.535 377.972 534.462 377.915C534.389 377.855 534.334 377.782 534.297 377.695L533.757 376.22H530.762L530.222 377.695C530.195 377.772 530.144 377.842 530.067 377.905C529.99 377.968 529.895 378 529.782 378H528.732L531.577 370.77H532.947L535.787 378ZM538.72 374.21C538.974 374.21 539.194 374.178 539.38 374.115C539.57 374.052 539.725 373.965 539.845 373.855C539.969 373.742 540.06 373.608 540.12 373.455C540.18 373.302 540.21 373.133 540.21 372.95C540.21 372.583 540.089 372.302 539.845 372.105C539.605 371.908 539.237 371.81 538.74 371.81H537.88V374.21H538.72ZM542.18 378H540.965C540.735 378 540.569 377.91 540.465 377.73L538.945 375.415C538.889 375.328 538.825 375.267 538.755 375.23C538.689 375.193 538.589 375.175 538.455 375.175H537.88V378H536.535V370.77H538.74C539.23 370.77 539.65 370.822 540 370.925C540.354 371.025 540.642 371.167 540.865 371.35C541.092 371.533 541.259 371.753 541.365 372.01C541.472 372.263 541.525 372.543 541.525 372.85C541.525 373.093 541.489 373.323 541.415 373.54C541.345 373.757 541.242 373.953 541.105 374.13C540.972 374.307 540.805 374.462 540.605 374.595C540.409 374.728 540.184 374.833 539.93 374.91C540.017 374.96 540.097 375.02 540.17 375.09C540.244 375.157 540.31 375.237 540.37 375.33L542.18 378ZM548.881 375.27L548.001 372.865C547.958 372.758 547.913 372.632 547.866 372.485C547.819 372.338 547.773 372.18 547.726 372.01C547.683 372.18 547.638 372.34 547.591 372.49C547.544 372.637 547.499 372.765 547.456 372.875L546.581 375.27H548.881ZM551.256 378H550.216C550.099 378 550.004 377.972 549.931 377.915C549.858 377.855 549.803 377.782 549.766 377.695L549.226 376.22H546.231L545.691 377.695C545.664 377.772 545.613 377.842 545.536 377.905C545.459 377.968 545.364 378 545.251 378H544.201L547.046 370.77H548.416L551.256 378ZM558.099 370.77V378H556.749V374.84H553.354V378H552.004V370.77H553.354V373.88H556.749V370.77H558.099ZM566.604 374.385C566.604 374.915 566.516 375.407 566.339 375.86C566.166 376.31 565.919 376.7 565.599 377.03C565.279 377.36 564.894 377.618 564.444 377.805C563.994 377.988 563.494 378.08 562.944 378.08C562.398 378.08 561.899 377.988 561.449 377.805C560.999 377.618 560.613 377.36 560.289 377.03C559.969 376.7 559.721 376.31 559.544 375.86C559.368 375.407 559.279 374.915 559.279 374.385C559.279 373.855 559.368 373.365 559.544 372.915C559.721 372.462 559.969 372.07 560.289 371.74C560.613 371.41 560.999 371.153 561.449 370.97C561.899 370.783 562.398 370.69 562.944 370.69C563.311 370.69 563.656 370.733 563.979 370.82C564.303 370.903 564.599 371.023 564.869 371.18C565.139 371.333 565.381 371.522 565.594 371.745C565.811 371.965 565.994 372.212 566.144 372.485C566.294 372.758 566.408 373.055 566.484 373.375C566.564 373.695 566.604 374.032 566.604 374.385ZM565.229 374.385C565.229 373.988 565.176 373.633 565.069 373.32C564.963 373.003 564.811 372.735 564.614 372.515C564.418 372.295 564.178 372.127 563.894 372.01C563.614 371.893 563.298 371.835 562.944 371.835C562.591 371.835 562.273 371.893 561.989 372.01C561.709 372.127 561.469 372.295 561.269 372.515C561.073 372.735 560.921 373.003 560.814 373.32C560.708 373.633 560.654 373.988 560.654 374.385C560.654 374.782 560.708 375.138 560.814 375.455C560.921 375.768 561.073 376.035 561.269 376.255C561.469 376.472 561.709 376.638 561.989 376.755C562.273 376.872 562.591 376.93 562.944 376.93C563.298 376.93 563.614 376.872 563.894 376.755C564.178 376.638 564.418 376.472 564.614 376.255C564.811 376.035 564.963 375.768 565.069 375.455C565.176 375.138 565.229 374.782 565.229 374.385ZM569.97 374.21C570.224 374.21 570.444 374.178 570.63 374.115C570.82 374.052 570.975 373.965 571.095 373.855C571.219 373.742 571.31 373.608 571.37 373.455C571.43 373.302 571.46 373.133 571.46 372.95C571.46 372.583 571.339 372.302 571.095 372.105C570.855 371.908 570.487 371.81 569.99 371.81H569.13V374.21H569.97ZM573.43 378H572.215C571.985 378 571.819 377.91 571.715 377.73L570.195 375.415C570.139 375.328 570.075 375.267 570.005 375.23C569.939 375.193 569.839 375.175 569.705 375.175H569.13V378H567.785V370.77H569.99C570.48 370.77 570.9 370.822 571.25 370.925C571.604 371.025 571.892 371.167 572.115 371.35C572.342 371.533 572.509 371.753 572.615 372.01C572.722 372.263 572.775 372.543 572.775 372.85C572.775 373.093 572.739 373.323 572.665 373.54C572.595 373.757 572.492 373.953 572.355 374.13C572.222 374.307 572.055 374.462 571.855 374.595C571.659 374.728 571.434 374.833 571.18 374.91C571.267 374.96 571.347 375.02 571.42 375.09C571.494 375.157 571.56 375.237 571.62 375.33L573.43 378ZM578.031 375.27L577.151 372.865C577.108 372.758 577.063 372.632 577.016 372.485C576.97 372.338 576.923 372.18 576.876 372.01C576.833 372.18 576.788 372.34 576.741 372.49C576.695 372.637 576.65 372.765 576.606 372.875L575.731 375.27H578.031ZM580.406 378H579.366C579.25 378 579.155 377.972 579.081 377.915C579.008 377.855 578.953 377.782 578.916 377.695L578.376 376.22H575.381L574.841 377.695C574.815 377.772 574.763 377.842 574.686 377.905C574.61 377.968 574.515 378 574.401 378H573.351L576.196 370.77H577.566L580.406 378Z" fill="white"/>
<g clip-path="url(#clip2)">
<path d="M484.502 378.858C483.922 379.31 483.097 379.271 482.569 378.742L478.263 374.437C477.735 373.908 477.696 373.07 478.147 372.503L472.694 367.038C470.322 369.77 470.451 373.921 473.042 376.512L480.493 383.963C483.135 386.604 487.332 386.631 489.968 384.311L484.502 378.858Z" fill="white"/>
<path d="M479.5 368.391L476.768 365.645C476.046 364.924 474.77 364.924 474.035 365.645L473.584 366.109L479.049 371.575L479.5 371.124C479.874 370.75 480.068 370.273 480.068 369.758C480.068 369.242 479.874 368.752 479.5 368.391Z" fill="white"/>
<path d="M491.36 380.237L488.614 377.505C487.892 376.77 486.616 376.77 485.882 377.505L485.43 377.956L490.896 383.421L491.36 382.97C491.721 382.609 491.914 382.12 491.914 381.604C491.914 381.088 491.721 380.598 491.36 380.237Z" fill="white"/>
<path d="M482.04 364C481.19 364 481.187 365.28 482.04 365.28C487.371 365.28 491.716 369.626 491.716 374.957C491.716 375.807 492.997 375.81 492.997 374.957C492.997 368.915 488.082 364 482.04 364Z" fill="white"/>
<path d="M482.04 366.578C481.19 366.578 481.187 367.859 482.04 367.859C485.949 367.859 489.138 371.048 489.138 374.957C489.138 375.807 490.419 375.81 490.419 374.957C490.419 370.337 486.66 366.578 482.04 366.578Z" fill="white"/>
<path d="M482.04 369.156C481.19 369.156 481.187 370.437 482.04 370.437C484.527 370.437 486.56 372.47 486.56 374.957C486.56 375.807 487.841 375.81 487.841 374.957C487.841 371.758 485.239 369.156 482.04 369.156Z" fill="white"/>
<path d="M482.04 371.734C481.19 371.734 481.187 373.023 482.04 373.023C483.106 373.023 483.973 373.891 483.973 374.957C483.973 375.807 485.263 375.81 485.263 374.957C485.263 373.18 483.817 371.734 482.04 371.734Z" fill="white"/>
</g>
<rect x="447" y="306" width="160" height="42" rx="21" fill="#29DA65"/>
<path d="M474.003 315H473.997C467.932 315 463 319.933 463 326C463 328.406 463.776 330.637 465.094 332.447L463.723 336.534L467.951 335.182C469.691 336.335 471.766 337 474.003 337C480.068 337 485 332.065 485 326C485 319.935 480.068 315 474.003 315ZM480.403 330.533C480.138 331.283 479.085 331.904 478.245 332.086C477.67 332.208 476.919 332.306 474.392 331.258C471.159 329.919 469.078 326.634 468.915 326.421C468.76 326.208 467.609 324.681 467.609 323.103C467.609 321.524 468.411 320.756 468.734 320.426C468.999 320.155 469.438 320.031 469.858 320.031C469.995 320.031 470.117 320.038 470.227 320.043C470.55 320.057 470.712 320.077 470.925 320.587C471.191 321.226 471.837 322.805 471.914 322.967C471.992 323.129 472.071 323.349 471.961 323.562C471.858 323.782 471.767 323.88 471.605 324.067C471.442 324.254 471.288 324.397 471.126 324.598C470.978 324.772 470.81 324.959 470.997 325.282C471.184 325.599 471.83 326.653 472.782 327.5C474.01 328.593 475.005 328.943 475.361 329.091C475.627 329.201 475.943 329.175 476.137 328.969C476.383 328.703 476.687 328.263 476.996 327.83C477.216 327.519 477.494 327.481 477.785 327.591C478.082 327.694 479.654 328.471 479.977 328.632C480.3 328.794 480.513 328.871 480.592 329.007C480.669 329.143 480.669 329.783 480.403 330.533Z" fill="white"/>
<path d="M496.155 323.84V325.845H498.685V326.88H496.155V328.925H499.365V330H494.805V322.77H499.365V323.84H496.155ZM506.652 322.77V330H505.962C505.855 330 505.765 329.983 505.692 329.95C505.622 329.913 505.554 329.853 505.487 329.77L501.712 324.95C501.732 325.17 501.742 325.373 501.742 325.56V330H500.557V322.77H501.262C501.319 322.77 501.367 322.773 501.407 322.78C501.45 322.783 501.487 322.793 501.517 322.81C501.55 322.823 501.582 322.845 501.612 322.875C501.642 322.902 501.675 322.938 501.712 322.985L505.502 327.825C505.492 327.708 505.484 327.593 505.477 327.48C505.47 327.367 505.467 327.262 505.467 327.165V322.77H506.652ZM514.457 322.77L511.537 330H510.322L507.402 322.77H508.482C508.599 322.77 508.694 322.798 508.767 322.855C508.84 322.912 508.895 322.985 508.932 323.075L510.637 327.485C510.694 327.628 510.747 327.787 510.797 327.96C510.85 328.13 510.9 328.308 510.947 328.495C510.987 328.308 511.03 328.13 511.077 327.96C511.124 327.787 511.175 327.628 511.232 327.485L512.927 323.075C512.954 322.998 513.005 322.928 513.082 322.865C513.162 322.802 513.259 322.77 513.372 322.77H514.457ZM516.555 330H515.205V322.77H516.555V330ZM521.994 327.27L521.114 324.865C521.071 324.758 521.026 324.632 520.979 324.485C520.932 324.338 520.886 324.18 520.839 324.01C520.796 324.18 520.751 324.34 520.704 324.49C520.657 324.637 520.612 324.765 520.569 324.875L519.694 327.27H521.994ZM524.369 330H523.329C523.212 330 523.117 329.972 523.044 329.915C522.971 329.855 522.916 329.782 522.879 329.695L522.339 328.22H519.344L518.804 329.695C518.777 329.772 518.726 329.842 518.649 329.905C518.572 329.968 518.477 330 518.364 330H517.314L520.159 322.77H521.529L524.369 330ZM527.303 326.21C527.556 326.21 527.776 326.178 527.963 326.115C528.153 326.052 528.308 325.965 528.428 325.855C528.551 325.742 528.643 325.608 528.703 325.455C528.763 325.302 528.793 325.133 528.793 324.95C528.793 324.583 528.671 324.302 528.428 324.105C528.188 323.908 527.819 323.81 527.323 323.81H526.463V326.21H527.303ZM530.763 330H529.548C529.318 330 529.151 329.91 529.048 329.73L527.528 327.415C527.471 327.328 527.408 327.267 527.338 327.23C527.271 327.193 527.171 327.175 527.038 327.175H526.463V330H525.118V322.77H527.323C527.813 322.77 528.233 322.822 528.583 322.925C528.936 323.025 529.224 323.167 529.448 323.35C529.674 323.533 529.841 323.753 529.948 324.01C530.054 324.263 530.108 324.543 530.108 324.85C530.108 325.093 530.071 325.323 529.998 325.54C529.928 325.757 529.824 325.953 529.688 326.13C529.554 326.307 529.388 326.462 529.188 326.595C528.991 326.728 528.766 326.833 528.513 326.91C528.599 326.96 528.679 327.02 528.753 327.09C528.826 327.157 528.893 327.237 528.953 327.33L530.763 330ZM545.958 322.77L543.713 330H542.498L540.918 325.06C540.875 324.94 540.835 324.793 540.798 324.62C540.778 324.703 540.758 324.782 540.738 324.855C540.718 324.928 540.697 324.997 540.673 325.06L539.078 330H537.858L535.618 322.77H536.743C536.86 322.77 536.957 322.798 537.033 322.855C537.113 322.908 537.167 322.982 537.193 323.075L538.423 327.4C538.45 327.507 538.475 327.623 538.498 327.75C538.525 327.873 538.552 328.003 538.578 328.14C538.605 328 538.633 327.868 538.663 327.745C538.697 327.622 538.732 327.507 538.768 327.4L540.188 323.075C540.215 322.998 540.267 322.928 540.343 322.865C540.423 322.802 540.52 322.77 540.633 322.77H541.028C541.145 322.77 541.24 322.798 541.313 322.855C541.387 322.912 541.442 322.985 541.478 323.075L542.893 327.4C542.963 327.607 543.027 327.845 543.083 328.115C543.127 327.852 543.175 327.613 543.228 327.4L544.458 323.075C544.478 322.992 544.528 322.92 544.608 322.86C544.692 322.8 544.79 322.77 544.903 322.77H545.958ZM552.941 322.77V330H551.591V326.84H548.196V330H546.846V322.77H548.196V325.88H551.591V322.77H552.941ZM558.371 327.27L557.491 324.865C557.448 324.758 557.403 324.632 557.356 324.485C557.309 324.338 557.263 324.18 557.216 324.01C557.173 324.18 557.128 324.34 557.081 324.49C557.034 324.637 556.989 324.765 556.946 324.875L556.071 327.27H558.371ZM560.746 330H559.706C559.589 330 559.494 329.972 559.421 329.915C559.348 329.855 559.293 329.782 559.256 329.695L558.716 328.22H555.721L555.181 329.695C555.154 329.772 555.103 329.842 555.026 329.905C554.949 329.968 554.854 330 554.741 330H553.691L556.536 322.77H557.906L560.746 330ZM565.841 323.875H563.661V330H562.316V323.875H560.136V322.77H565.841V323.875ZM570.618 324.085C570.578 324.155 570.535 324.207 570.488 324.24C570.445 324.27 570.39 324.285 570.323 324.285C570.253 324.285 570.176 324.26 570.093 324.21C570.013 324.157 569.916 324.098 569.803 324.035C569.69 323.972 569.556 323.915 569.403 323.865C569.253 323.812 569.075 323.785 568.868 323.785C568.681 323.785 568.518 323.808 568.378 323.855C568.238 323.898 568.12 323.96 568.023 324.04C567.93 324.12 567.86 324.217 567.813 324.33C567.766 324.44 567.743 324.562 567.743 324.695C567.743 324.865 567.79 325.007 567.883 325.12C567.98 325.233 568.106 325.33 568.263 325.41C568.42 325.49 568.598 325.562 568.798 325.625C568.998 325.688 569.203 325.757 569.413 325.83C569.623 325.9 569.828 325.983 570.028 326.08C570.228 326.173 570.406 326.293 570.563 326.44C570.72 326.583 570.845 326.76 570.938 326.97C571.035 327.18 571.083 327.435 571.083 327.735C571.083 328.062 571.026 328.368 570.913 328.655C570.803 328.938 570.64 329.187 570.423 329.4C570.21 329.61 569.948 329.777 569.638 329.9C569.328 330.02 568.973 330.08 568.573 330.08C568.343 330.08 568.116 330.057 567.893 330.01C567.67 329.967 567.455 329.903 567.248 329.82C567.045 329.737 566.853 329.637 566.673 329.52C566.493 329.403 566.333 329.273 566.193 329.13L566.588 328.485C566.621 328.438 566.665 328.4 566.718 328.37C566.771 328.337 566.828 328.32 566.888 328.32C566.971 328.32 567.061 328.355 567.158 328.425C567.255 328.492 567.37 328.567 567.503 328.65C567.636 328.733 567.791 328.81 567.968 328.88C568.148 328.947 568.363 328.98 568.613 328.98C568.996 328.98 569.293 328.89 569.503 328.71C569.713 328.527 569.818 328.265 569.818 327.925C569.818 327.735 569.77 327.58 569.673 327.46C569.58 327.34 569.455 327.24 569.298 327.16C569.141 327.077 568.963 327.007 568.763 326.95C568.563 326.893 568.36 326.832 568.153 326.765C567.946 326.698 567.743 326.618 567.543 326.525C567.343 326.432 567.165 326.31 567.008 326.16C566.851 326.01 566.725 325.823 566.628 325.6C566.535 325.373 566.488 325.095 566.488 324.765C566.488 324.502 566.54 324.245 566.643 323.995C566.75 323.745 566.903 323.523 567.103 323.33C567.303 323.137 567.55 322.982 567.843 322.865C568.136 322.748 568.473 322.69 568.853 322.69C569.28 322.69 569.673 322.757 570.033 322.89C570.393 323.023 570.7 323.21 570.953 323.45L570.618 324.085ZM575.93 327.27L575.05 324.865C575.006 324.758 574.961 324.632 574.915 324.485C574.868 324.338 574.821 324.18 574.775 324.01C574.731 324.18 574.686 324.34 574.64 324.49C574.593 324.637 574.548 324.765 574.505 324.875L573.63 327.27H575.93ZM578.305 330H577.265C577.148 330 577.053 329.972 576.98 329.915C576.906 329.855 576.851 329.782 576.815 329.695L576.275 328.22H573.28L572.74 329.695C572.713 329.772 572.661 329.842 572.585 329.905C572.508 329.968 572.413 330 572.3 330H571.25L574.095 322.77H575.465L578.305 330ZM581.403 326.405C581.65 326.405 581.865 326.375 582.048 326.315C582.231 326.252 582.383 326.163 582.503 326.05C582.626 325.933 582.718 325.793 582.778 325.63C582.838 325.463 582.868 325.278 582.868 325.075C582.868 324.882 582.838 324.707 582.778 324.55C582.718 324.393 582.628 324.26 582.508 324.15C582.388 324.04 582.236 323.957 582.053 323.9C581.87 323.84 581.653 323.81 581.403 323.81H580.398V326.405H581.403ZM581.403 322.77C581.886 322.77 582.305 322.827 582.658 322.94C583.011 323.053 583.303 323.212 583.533 323.415C583.763 323.618 583.933 323.862 584.043 324.145C584.156 324.428 584.213 324.738 584.213 325.075C584.213 325.425 584.155 325.747 584.038 326.04C583.921 326.33 583.746 326.58 583.513 326.79C583.28 327 582.986 327.163 582.633 327.28C582.283 327.397 581.873 327.455 581.403 327.455H580.398V330H579.053V322.77H581.403ZM587.594 326.405C587.841 326.405 588.056 326.375 588.239 326.315C588.423 326.252 588.574 326.163 588.694 326.05C588.818 325.933 588.909 325.793 588.969 325.63C589.029 325.463 589.059 325.278 589.059 325.075C589.059 324.882 589.029 324.707 588.969 324.55C588.909 324.393 588.819 324.26 588.699 324.15C588.579 324.04 588.428 323.957 588.244 323.9C588.061 323.84 587.844 323.81 587.594 323.81H586.589V326.405H587.594ZM587.594 322.77C588.078 322.77 588.496 322.827 588.849 322.94C589.203 323.053 589.494 323.212 589.724 323.415C589.954 323.618 590.124 323.862 590.234 324.145C590.348 324.428 590.404 324.738 590.404 325.075C590.404 325.425 590.346 325.747 590.229 326.04C590.113 326.33 589.938 326.58 589.704 326.79C589.471 327 589.178 327.163 588.824 327.28C588.474 327.397 588.064 327.455 587.594 327.455H586.589V330H585.244V322.77H587.594Z" fill="white"/>
<circle cx="528" cy="212" r="50" fill="#2A94F4"/>
<path d="M517.657 224.999C515.056 224.999 512.741 223.335 511.9 220.853L511.844 220.665C511.646 220.007 511.561 219.456 511.561 218.903V207.825L507.622 220.987C507.115 222.923 508.27 224.931 510.208 225.465L535.336 232.195C535.648 232.278 535.963 232.314 536.27 232.314C537.888 232.314 539.368 231.242 539.78 229.657L541.242 225.002H517.657V224.999Z" fill="white"/>
<path d="M522.125 207.937C523.917 207.937 525.374 206.479 525.374 204.688C525.374 202.896 523.917 201.438 522.125 201.438C520.334 201.438 518.876 202.896 518.876 204.688C518.876 206.479 520.334 207.937 522.125 207.937Z" fill="white"/>
<path d="M542.437 196.563H518.062C515.822 196.563 513.999 198.387 513.999 200.627V218.501C513.999 220.741 515.822 222.564 518.062 222.564H542.437C544.677 222.564 546.5 220.741 546.5 218.501V200.627C546.5 198.384 544.677 196.563 542.437 196.563ZM518.062 199.813H542.437C542.885 199.813 543.249 200.176 543.249 200.624V212.161L538.115 206.172C537.572 205.533 536.782 205.192 535.936 205.173C535.095 205.178 534.303 205.551 533.764 206.199L527.731 213.443L525.767 211.479C524.655 210.367 522.847 210.367 521.735 211.479L517.25 215.964V200.624C517.25 200.176 517.613 199.813 518.062 199.813Z" fill="white"/>
<path d="M486.467 85H569.667V91C569.667 96.5228 565.19 101 559.667 101H496.467C490.944 101 486.467 96.5228 486.467 91V85Z" fill="#30485F"/>
<defs>
<linearGradient id="paint0_linear" x1="581.103" y1="314.965" x2="497.65" y2="379.34" gradientUnits="userSpaceOnUse">
<stop stop-color="#010101" stop-opacity="0"/>
<stop offset="0.95" stop-color="#010101"/>
</linearGradient>
<linearGradient id="paint1_linear" x1="33246.8" y1="36922.9" x2="21964.9" y2="39973.9" gradientUnits="userSpaceOnUse">
<stop stop-color="#010101" stop-opacity="0"/>
<stop offset="0.95" stop-color="#010101"/>
</linearGradient>
<linearGradient id="paint2_linear" x1="6859.76" y1="30256.3" x2="12784.3" y2="31525" gradientUnits="userSpaceOnUse">
<stop stop-color="#010101" stop-opacity="0"/>
<stop offset="0.95" stop-color="#010101"/>
</linearGradient>
<linearGradient id="paint3_linear" x1="8126.32" y1="35157.8" x2="21226.8" y2="37569.5" gradientUnits="userSpaceOnUse">
<stop stop-color="#010101" stop-opacity="0"/>
<stop offset="0.95" stop-color="#010101"/>
</linearGradient>
<linearGradient id="paint4_linear" x1="132497" y1="7639.3" x2="132508" y2="5342.35" gradientUnits="userSpaceOnUse">
<stop stop-color="#2A94F4"/>
<stop offset="0.95" stop-color="#30485F"/>
</linearGradient>
<clipPath id="clip0">
<rect width="687" height="522" fill="white"/>
</clipPath>
<clipPath id="clip1">
<rect width="39.98" height="39.98" fill="white" transform="translate(302 218)"/>
</clipPath>
<clipPath id="clip2">
<rect width="22" height="22" fill="white" transform="translate(471 364)"/>
</clipPath>
</defs>
</svg>
