<svg width="500" height="346" viewBox="0 0 500 346" fill="none" xmlns="http://www.w3.org/2000/svg">
<g filter="url(#filter0_d)">
<rect x="327" y="8" width="160.273" height="322" rx="13" fill="white" stroke="black" stroke-width="4"/>
<path d="M359.388 164.628L362.728 158.203H364.644L360.231 166.228V171H358.544V166.228L354.132 158.203H356.065L359.388 164.628ZM365.03 166.157C365.03 165.226 365.212 164.388 365.575 163.644C365.944 162.899 366.454 162.325 367.104 161.921C367.761 161.517 368.508 161.314 369.346 161.314C370.641 161.314 371.687 161.763 372.483 162.659C373.286 163.556 373.688 164.748 373.688 166.236V166.351C373.688 167.276 373.509 168.108 373.151 168.847C372.8 169.579 372.293 170.15 371.631 170.561C370.975 170.971 370.219 171.176 369.363 171.176C368.074 171.176 367.028 170.728 366.226 169.831C365.429 168.935 365.03 167.748 365.03 166.271V166.157ZM366.665 166.351C366.665 167.405 366.908 168.252 367.395 168.891C367.887 169.529 368.543 169.849 369.363 169.849C370.189 169.849 370.846 169.526 371.332 168.882C371.818 168.231 372.062 167.323 372.062 166.157C372.062 165.114 371.812 164.271 371.314 163.626C370.822 162.976 370.166 162.65 369.346 162.65C368.543 162.65 367.896 162.97 367.403 163.608C366.911 164.247 366.665 165.161 366.665 166.351ZM381.598 170.06C380.965 170.804 380.036 171.176 378.812 171.176C377.798 171.176 377.024 170.883 376.491 170.297C375.964 169.705 375.697 168.832 375.691 167.678V161.49H377.317V167.634C377.317 169.075 377.903 169.796 379.075 169.796C380.317 169.796 381.144 169.333 381.554 168.407V161.49H383.18V171H381.633L381.598 170.06ZM390.255 162.949C390.009 162.908 389.742 162.888 389.455 162.888C388.389 162.888 387.665 163.342 387.284 164.25V171H385.658V161.49H387.24L387.267 162.589C387.8 161.739 388.556 161.314 389.534 161.314C389.851 161.314 390.091 161.355 390.255 161.438V162.949ZM399.237 166.966L399.483 168.653L399.844 167.133L402.375 158.203H403.799L406.269 167.133L406.62 168.68L406.893 166.957L408.879 158.203H410.575L407.473 171H405.935L403.298 161.675L403.096 160.699L402.894 161.675L400.16 171H398.622L395.528 158.203H397.216L399.237 166.966ZM415.866 171.176C414.577 171.176 413.528 170.754 412.72 169.91C411.911 169.061 411.507 167.927 411.507 166.509V166.21C411.507 165.267 411.686 164.426 412.043 163.688C412.406 162.943 412.91 162.363 413.555 161.947C414.205 161.525 414.908 161.314 415.664 161.314C416.9 161.314 417.861 161.722 418.547 162.536C419.232 163.351 419.575 164.517 419.575 166.034V166.711H413.133C413.156 167.648 413.429 168.407 413.95 168.987C414.478 169.562 415.146 169.849 415.954 169.849C416.528 169.849 417.015 169.731 417.413 169.497C417.812 169.263 418.16 168.952 418.459 168.565L419.452 169.339C418.655 170.563 417.46 171.176 415.866 171.176ZM415.664 162.65C415.008 162.65 414.457 162.891 414.012 163.371C413.566 163.846 413.291 164.514 413.186 165.375H417.949V165.252C417.902 164.426 417.68 163.787 417.281 163.336C416.883 162.879 416.344 162.65 415.664 162.65ZM429.516 166.351C429.516 167.804 429.182 168.973 428.514 169.857C427.846 170.736 426.949 171.176 425.824 171.176C424.623 171.176 423.694 170.751 423.038 169.901L422.959 171H421.465V157.5H423.091V162.536C423.747 161.722 424.652 161.314 425.807 161.314C426.961 161.314 427.866 161.751 428.522 162.624C429.185 163.497 429.516 164.692 429.516 166.21V166.351ZM427.89 166.166C427.89 165.059 427.676 164.203 427.248 163.6C426.82 162.996 426.205 162.694 425.402 162.694C424.33 162.694 423.56 163.192 423.091 164.188V168.302C423.589 169.298 424.365 169.796 425.42 169.796C426.199 169.796 426.806 169.494 427.239 168.891C427.673 168.287 427.89 167.379 427.89 166.166ZM437.109 168.478C437.109 168.038 436.942 167.698 436.608 167.458C436.28 167.212 435.703 167.001 434.877 166.825C434.057 166.649 433.403 166.438 432.917 166.192C432.437 165.946 432.079 165.653 431.845 165.313C431.616 164.974 431.502 164.569 431.502 164.101C431.502 163.321 431.83 162.662 432.486 162.123C433.148 161.584 433.992 161.314 435.018 161.314C436.096 161.314 436.969 161.593 437.637 162.149C438.311 162.706 438.647 163.418 438.647 164.285H437.013C437.013 163.84 436.822 163.456 436.441 163.134C436.066 162.812 435.592 162.65 435.018 162.65C434.426 162.65 433.963 162.779 433.629 163.037C433.295 163.295 433.128 163.632 433.128 164.048C433.128 164.44 433.283 164.736 433.594 164.936C433.904 165.135 434.464 165.325 435.272 165.507C436.087 165.688 436.746 165.905 437.25 166.157C437.754 166.409 438.126 166.714 438.366 167.071C438.612 167.423 438.735 167.854 438.735 168.363C438.735 169.213 438.396 169.896 437.716 170.411C437.036 170.921 436.154 171.176 435.07 171.176C434.309 171.176 433.635 171.041 433.049 170.771C432.463 170.502 432.003 170.127 431.669 169.646C431.341 169.16 431.177 168.636 431.177 168.073H432.803C432.832 168.618 433.049 169.052 433.453 169.374C433.863 169.69 434.402 169.849 435.07 169.849C435.686 169.849 436.178 169.726 436.547 169.479C436.922 169.228 437.109 168.894 437.109 168.478ZM442.62 171H440.994V161.49H442.62V171ZM440.862 158.968C440.862 158.704 440.941 158.481 441.1 158.3C441.264 158.118 441.504 158.027 441.82 158.027C442.137 158.027 442.377 158.118 442.541 158.3C442.705 158.481 442.787 158.704 442.787 158.968C442.787 159.231 442.705 159.451 442.541 159.627C442.377 159.803 442.137 159.891 441.82 159.891C441.504 159.891 441.264 159.803 441.1 159.627C440.941 159.451 440.862 159.231 440.862 158.968ZM447.437 159.188V161.49H449.212V162.747H447.437V168.645C447.437 169.025 447.516 169.312 447.674 169.506C447.832 169.693 448.102 169.787 448.482 169.787C448.67 169.787 448.928 169.752 449.256 169.682V171C448.828 171.117 448.412 171.176 448.008 171.176C447.281 171.176 446.733 170.956 446.364 170.517C445.995 170.077 445.811 169.453 445.811 168.645V162.747H444.079V161.49H445.811V159.188H447.437ZM455.065 171.176C453.776 171.176 452.728 170.754 451.919 169.91C451.11 169.061 450.706 167.927 450.706 166.509V166.21C450.706 165.267 450.885 164.426 451.242 163.688C451.605 162.943 452.109 162.363 452.754 161.947C453.404 161.525 454.107 161.314 454.863 161.314C456.1 161.314 457.061 161.722 457.746 162.536C458.432 163.351 458.774 164.517 458.774 166.034V166.711H452.332C452.355 167.648 452.628 168.407 453.149 168.987C453.677 169.562 454.345 169.849 455.153 169.849C455.728 169.849 456.214 169.731 456.612 169.497C457.011 169.263 457.359 168.952 457.658 168.565L458.651 169.339C457.854 170.563 456.659 171.176 455.065 171.176ZM454.863 162.65C454.207 162.65 453.656 162.891 453.211 163.371C452.766 163.846 452.49 164.514 452.385 165.375H457.148V165.252C457.102 164.426 456.879 163.787 456.48 163.336C456.082 162.879 455.543 162.65 454.863 162.65Z" fill="#C4C4C4"/>
<rect x="372.117" y="317.992" width="70.0391" height="3.82031" rx="1.91016" fill="#C4C4C4"/>
<path d="M368.297 6H447.25V8.73438C447.25 14.2572 442.773 18.7344 437.25 18.7344H378.297C372.774 18.7344 368.297 14.2572 368.297 8.73438V6Z" fill="black"/>
<g clip-path="url(#clip0)">
<path d="M477.665 26.8412C478.286 27.4629 478.286 28.4707 477.665 29.0924C477.043 29.714 476.035 29.714 475.413 29.0924C474.792 28.4707 474.792 27.4629 475.413 26.8412C476.035 26.2196 477.043 26.2196 477.665 26.8412Z" fill="#97A3AF"/>
<path d="M477.665 31.6166C478.286 32.2382 478.286 33.2461 477.665 33.8677C477.043 34.4894 476.035 34.4894 475.413 33.8677C474.792 33.2461 474.792 32.2382 475.413 31.6166C476.035 30.995 477.043 30.995 477.665 31.6166Z" fill="#97A3AF"/>
<path d="M477.665 36.392C478.286 37.0136 478.286 38.0215 477.665 38.6431C477.043 39.2648 476.035 39.2648 475.413 38.6431C474.792 38.0215 474.792 37.0136 475.413 36.392C476.035 35.7704 477.043 35.7704 477.665 36.392Z" fill="#97A3AF"/>
</g>
<rect x="356.836" y="26.375" width="109.516" height="12.7344" fill="#F5F5F5"/>
<g clip-path="url(#clip1)">
<path d="M349.195 31.8326H340.099L343.283 28.6491L341.919 27.2847L336.461 32.7422L341.919 38.1998L343.283 36.8354L340.099 33.6518H349.195V31.8326Z" fill="#97A3AF"/>
</g>
</g>
<g filter="url(#filter1_d)">
<circle cx="449.848" cy="286.848" r="23.8477" fill="#0F8DFF"/>
<path d="M465.591 297.095L472.287 308.274H458.895L465.591 297.095Z" fill="#0F8DFF"/>
<g clip-path="url(#clip2)">
<path d="M449.251 274.138L446.038 274.704C445.595 274.782 445.294 275.18 445.367 275.593C445.44 276.007 445.858 276.278 446.302 276.199L449.514 275.633C449.958 275.555 450.258 275.157 450.186 274.744C450.113 274.331 449.695 274.059 449.251 274.138Z" fill="white"/>
<path d="M453.27 270.859L441.307 272.969C439.658 273.259 438.553 274.838 438.843 276.487L443.062 300.413C443.353 302.061 444.931 303.167 446.58 302.876L458.543 300.767C460.192 300.476 461.297 298.897 461.006 297.249L456.788 273.323C456.497 271.674 454.918 270.569 453.27 270.859ZM459.511 297.512C459.657 298.338 459.105 299.126 458.279 299.271L446.316 301.381C445.49 301.526 444.703 300.975 444.557 300.149L440.339 276.223C440.193 275.397 440.744 274.61 441.57 274.464L453.533 272.355C454.359 272.209 455.147 272.76 455.292 273.586L459.511 297.512Z" fill="white"/>
<rect x="439.916" y="281.924" width="13.9733" height="8.75659" transform="rotate(43 439.916 281.924)" fill="#0F8DFF"/>
<rect x="450.712" y="283.256" width="13.9733" height="8.75659" transform="rotate(-43 450.712 283.256)" fill="#0F8DFF"/>
</g>
<path d="M462.39 281.728L448.284 295.832C447.239 296.877 445.545 296.877 444.5 295.832L437.218 288.55C436.173 287.506 436.173 285.811 437.218 284.766C438.263 283.721 439.957 283.721 441.002 284.766L446.392 290.156L458.605 277.943C459.65 276.898 461.345 276.899 462.389 277.943C463.434 278.988 463.434 280.682 462.39 281.728Z" fill="white"/>
<path d="M462.39 281.728L448.284 295.832C447.239 296.877 445.545 296.877 444.5 295.832L437.218 288.55C436.173 287.506 436.173 285.811 437.218 284.766C438.263 283.721 439.957 283.721 441.002 284.766L446.392 290.156L458.605 277.943C459.65 276.898 461.345 276.899 462.389 277.943C463.434 278.988 463.434 280.682 462.39 281.728Z" stroke="#0F8DFF"/>
<path d="M289.407 163.711L438.553 276.001L123.229 248.788L289.407 163.711Z" fill="#F5F5F5"/>
<circle cx="160" cy="158" r="150" fill="white"/>
<circle cx="160" cy="158" r="145" stroke="#2A94F4" stroke-opacity="0.3" stroke-width="10"/>
<circle cx="211.848" cy="234.848" r="23.8477" fill="#0F8DFF"/>
<path d="M227.591 245.095L234.287 256.274H220.895L227.591 245.095Z" fill="#0F8DFF"/>
<g clip-path="url(#clip3)">
<path d="M211.251 222.138L208.038 222.704C207.595 222.782 207.294 223.18 207.367 223.593C207.44 224.007 207.858 224.278 208.302 224.199L211.514 223.633C211.958 223.555 212.258 223.157 212.186 222.744C212.113 222.331 211.695 222.059 211.251 222.138Z" fill="white"/>
<path d="M215.27 218.859L203.307 220.969C201.658 221.259 200.553 222.838 200.843 224.487L205.062 248.413C205.353 250.061 206.931 251.167 208.58 250.876L220.543 248.767C222.192 248.476 223.297 246.897 223.006 245.249L218.788 221.323C218.497 219.674 216.918 218.569 215.27 218.859ZM221.511 245.512C221.657 246.338 221.105 247.126 220.279 247.271L208.316 249.381C207.49 249.526 206.703 248.975 206.557 248.149L202.339 224.223C202.193 223.397 202.744 222.61 203.57 222.464L215.533 220.355C216.359 220.209 217.147 220.76 217.292 221.586L221.511 245.512Z" fill="white"/>
<rect x="201.916" y="229.924" width="13.9733" height="8.75659" transform="rotate(43 201.916 229.924)" fill="#0F8DFF"/>
<rect x="212.712" y="231.256" width="13.9733" height="8.75659" transform="rotate(-43 212.712 231.256)" fill="#0F8DFF"/>
</g>
<path d="M224.39 229.728L210.284 243.832C209.239 244.877 207.545 244.877 206.5 243.832L199.218 236.55C198.173 235.506 198.173 233.811 199.218 232.766C200.263 231.721 201.957 231.721 203.002 232.766L208.392 238.156L220.605 225.943C221.65 224.898 223.345 224.899 224.389 225.943C225.434 226.988 225.434 228.682 224.39 229.728Z" fill="white"/>
<path d="M224.39 229.728L210.284 243.832C209.239 244.877 207.545 244.877 206.5 243.832L199.218 236.55C198.173 235.506 198.173 233.811 199.218 232.766C200.263 231.721 201.957 231.721 203.002 232.766L208.392 238.156L220.605 225.943C221.65 224.898 223.345 224.899 224.389 225.943C225.434 226.988 225.434 228.682 224.39 229.728Z" stroke="#0F8DFF"/>
<g filter="url(#filter2_d)">
<path d="M202.432 218.695L210.735 196.785L185.412 202.592L202.432 218.695Z" fill="white"/>
<rect x="74" y="64" width="168" height="139" rx="15" fill="white"/>
<path d="M101.875 89.3711H99.4102V91.3867H102.273V92H98.6602V86.3125H102.234V86.9297H99.4102V88.7578H101.875V89.3711ZM105.555 90.8789C105.555 90.6836 105.48 90.5326 105.332 90.4258C105.186 90.3164 104.93 90.2227 104.562 90.1445C104.198 90.0664 103.908 89.9727 103.691 89.8633C103.478 89.7539 103.319 89.6237 103.215 89.4727C103.113 89.3216 103.062 89.1419 103.062 88.9336C103.062 88.5872 103.208 88.2943 103.5 88.0547C103.794 87.8151 104.169 87.6953 104.625 87.6953C105.104 87.6953 105.492 87.819 105.789 88.0664C106.089 88.3138 106.238 88.6302 106.238 89.0156H105.512C105.512 88.8177 105.427 88.6471 105.258 88.5039C105.091 88.3607 104.88 88.2891 104.625 88.2891C104.362 88.2891 104.156 88.3464 104.008 88.4609C103.859 88.5755 103.785 88.7253 103.785 88.9102C103.785 89.0846 103.854 89.2161 103.992 89.3047C104.13 89.3932 104.379 89.4779 104.738 89.5586C105.1 89.6393 105.393 89.7357 105.617 89.8477C105.841 89.9596 106.007 90.0951 106.113 90.2539C106.223 90.4102 106.277 90.6016 106.277 90.8281C106.277 91.2057 106.126 91.5091 105.824 91.7383C105.522 91.9648 105.13 92.0781 104.648 92.0781C104.31 92.0781 104.01 92.0182 103.75 91.8984C103.49 91.7786 103.285 91.612 103.137 91.3984C102.991 91.1823 102.918 90.9492 102.918 90.6992H103.641C103.654 90.9414 103.75 91.1341 103.93 91.2773C104.112 91.418 104.352 91.4883 104.648 91.4883C104.922 91.4883 105.141 91.4336 105.305 91.3242C105.471 91.2122 105.555 91.0638 105.555 90.8789ZM108.914 91.4883C109.172 91.4883 109.397 91.4102 109.59 91.2539C109.783 91.0977 109.889 90.9023 109.91 90.668H110.594C110.581 90.9102 110.497 91.1406 110.344 91.3594C110.19 91.5781 109.984 91.7526 109.727 91.8828C109.471 92.013 109.201 92.0781 108.914 92.0781C108.339 92.0781 107.88 91.8867 107.539 91.5039C107.201 91.1185 107.031 90.5924 107.031 89.9258V89.8047C107.031 89.3932 107.107 89.0273 107.258 88.707C107.409 88.3867 107.625 88.138 107.906 87.9609C108.19 87.7839 108.525 87.6953 108.91 87.6953C109.384 87.6953 109.777 87.8372 110.09 88.1211C110.405 88.4049 110.573 88.7734 110.594 89.2266H109.91C109.889 88.9531 109.785 88.7292 109.598 88.5547C109.413 88.3776 109.184 88.2891 108.91 88.2891C108.543 88.2891 108.258 88.4219 108.055 88.6875C107.854 88.9505 107.754 89.332 107.754 89.832V89.9688C107.754 90.4557 107.854 90.8307 108.055 91.0938C108.255 91.3568 108.542 91.4883 108.914 91.4883ZM114.016 92C113.974 91.9167 113.94 91.7682 113.914 91.5547C113.578 91.9036 113.177 92.0781 112.711 92.0781C112.294 92.0781 111.952 91.9609 111.684 91.7266C111.418 91.4896 111.285 91.1901 111.285 90.8281C111.285 90.388 111.452 90.0469 111.785 89.8047C112.121 89.5599 112.592 89.4375 113.199 89.4375H113.902V89.1055C113.902 88.8529 113.827 88.6523 113.676 88.5039C113.525 88.3529 113.302 88.2773 113.008 88.2773C112.75 88.2773 112.534 88.3424 112.359 88.4727C112.185 88.6029 112.098 88.7604 112.098 88.9453H111.371C111.371 88.7344 111.445 88.5312 111.594 88.3359C111.745 88.138 111.948 87.9818 112.203 87.8672C112.461 87.7526 112.743 87.6953 113.051 87.6953C113.538 87.6953 113.919 87.8177 114.195 88.0625C114.471 88.3047 114.615 88.6393 114.625 89.0664V91.0117C114.625 91.3997 114.674 91.7083 114.773 91.9375V92H114.016ZM112.816 91.4492C113.043 91.4492 113.258 91.3906 113.461 91.2734C113.664 91.1562 113.811 91.0039 113.902 90.8164V89.9492H113.336C112.451 89.9492 112.008 90.2083 112.008 90.7266C112.008 90.9531 112.083 91.1302 112.234 91.2578C112.385 91.3854 112.579 91.4492 112.816 91.4492ZM116.441 87.7734L116.465 88.3047C116.788 87.8984 117.21 87.6953 117.73 87.6953C118.624 87.6953 119.074 88.1992 119.082 89.207V92H118.359V89.2031C118.357 88.8984 118.286 88.6732 118.148 88.5273C118.013 88.3815 117.801 88.3086 117.512 88.3086C117.277 88.3086 117.072 88.3711 116.895 88.4961C116.717 88.6211 116.579 88.7852 116.48 88.9883V92H115.758V87.7734H116.441ZM121.926 92.0781C121.353 92.0781 120.887 91.8906 120.527 91.5156C120.168 91.138 119.988 90.6341 119.988 90.0039V89.8711C119.988 89.4518 120.068 89.0781 120.227 88.75C120.388 88.4193 120.612 88.1615 120.898 87.9766C121.188 87.7891 121.5 87.6953 121.836 87.6953C122.385 87.6953 122.812 87.8763 123.117 88.2383C123.422 88.6003 123.574 89.1185 123.574 89.793V90.0938H120.711C120.721 90.5104 120.842 90.8477 121.074 91.1055C121.309 91.3607 121.605 91.4883 121.965 91.4883C122.22 91.4883 122.436 91.4362 122.613 91.332C122.79 91.2279 122.945 91.0898 123.078 90.918L123.52 91.2617C123.165 91.806 122.634 92.0781 121.926 92.0781ZM121.836 88.2891C121.544 88.2891 121.299 88.3958 121.102 88.6094C120.904 88.8203 120.781 89.1172 120.734 89.5H122.852V89.4453C122.831 89.0781 122.732 88.7943 122.555 88.5938C122.378 88.3906 122.138 88.2891 121.836 88.2891ZM127.023 92C126.982 91.9167 126.948 91.7682 126.922 91.5547C126.586 91.9036 126.185 92.0781 125.719 92.0781C125.302 92.0781 124.96 91.9609 124.691 91.7266C124.426 91.4896 124.293 91.1901 124.293 90.8281C124.293 90.388 124.46 90.0469 124.793 89.8047C125.129 89.5599 125.6 89.4375 126.207 89.4375H126.91V89.1055C126.91 88.8529 126.835 88.6523 126.684 88.5039C126.533 88.3529 126.31 88.2773 126.016 88.2773C125.758 88.2773 125.542 88.3424 125.367 88.4727C125.193 88.6029 125.105 88.7604 125.105 88.9453H124.379C124.379 88.7344 124.453 88.5312 124.602 88.3359C124.753 88.138 124.956 87.9818 125.211 87.8672C125.469 87.7526 125.751 87.6953 126.059 87.6953C126.546 87.6953 126.927 87.8177 127.203 88.0625C127.479 88.3047 127.622 88.6393 127.633 89.0664V91.0117C127.633 91.3997 127.682 91.7083 127.781 91.9375V92H127.023ZM125.824 91.4492C126.051 91.4492 126.266 91.3906 126.469 91.2734C126.672 91.1562 126.819 91.0039 126.91 90.8164V89.9492H126.344C125.458 89.9492 125.016 90.2083 125.016 90.7266C125.016 90.9531 125.091 91.1302 125.242 91.2578C125.393 91.3854 125.587 91.4492 125.824 91.4492ZM132.504 92.0781C131.931 92.0781 131.465 91.8906 131.105 91.5156C130.746 91.138 130.566 90.6341 130.566 90.0039V89.8711C130.566 89.4518 130.646 89.0781 130.805 88.75C130.966 88.4193 131.19 88.1615 131.477 87.9766C131.766 87.7891 132.078 87.6953 132.414 87.6953C132.964 87.6953 133.391 87.8763 133.695 88.2383C134 88.6003 134.152 89.1185 134.152 89.793V90.0938H131.289C131.299 90.5104 131.421 90.8477 131.652 91.1055C131.887 91.3607 132.184 91.4883 132.543 91.4883C132.798 91.4883 133.014 91.4362 133.191 91.332C133.368 91.2279 133.523 91.0898 133.656 90.918L134.098 91.2617C133.743 91.806 133.212 92.0781 132.504 92.0781ZM132.414 88.2891C132.122 88.2891 131.878 88.3958 131.68 88.6094C131.482 88.8203 131.359 89.1172 131.312 89.5H133.43V89.4453C133.409 89.0781 133.31 88.7943 133.133 88.5938C132.956 88.3906 132.716 88.2891 132.414 88.2891ZM135.777 92H135.055V86H135.777V92ZM140.617 91.4883C140.875 91.4883 141.1 91.4102 141.293 91.2539C141.486 91.0977 141.592 90.9023 141.613 90.668H142.297C142.284 90.9102 142.201 91.1406 142.047 91.3594C141.893 91.5781 141.688 91.7526 141.43 91.8828C141.174 92.013 140.904 92.0781 140.617 92.0781C140.042 92.0781 139.583 91.8867 139.242 91.5039C138.904 91.1185 138.734 90.5924 138.734 89.9258V89.8047C138.734 89.3932 138.81 89.0273 138.961 88.707C139.112 88.3867 139.328 88.138 139.609 87.9609C139.893 87.7839 140.228 87.6953 140.613 87.6953C141.087 87.6953 141.48 87.8372 141.793 88.1211C142.108 88.4049 142.276 88.7734 142.297 89.2266H141.613C141.592 88.9531 141.488 88.7292 141.301 88.5547C141.116 88.3776 140.887 88.2891 140.613 88.2891C140.246 88.2891 139.961 88.4219 139.758 88.6875C139.557 88.9505 139.457 89.332 139.457 89.832V89.9688C139.457 90.4557 139.557 90.8307 139.758 91.0938C139.958 91.3568 140.245 91.4883 140.617 91.4883ZM142.918 89.8477C142.918 89.4336 142.999 89.0612 143.16 88.7305C143.324 88.3997 143.551 88.1445 143.84 87.9648C144.132 87.7852 144.464 87.6953 144.836 87.6953C145.411 87.6953 145.876 87.8945 146.23 88.293C146.587 88.6914 146.766 89.2214 146.766 89.8828V89.9336C146.766 90.3451 146.686 90.7148 146.527 91.043C146.371 91.3685 146.146 91.6224 145.852 91.8047C145.56 91.987 145.224 92.0781 144.844 92.0781C144.271 92.0781 143.806 91.8789 143.449 91.4805C143.095 91.082 142.918 90.5547 142.918 89.8984V89.8477ZM143.645 89.9336C143.645 90.4023 143.753 90.7786 143.969 91.0625C144.188 91.3464 144.479 91.4883 144.844 91.4883C145.211 91.4883 145.503 91.3451 145.719 91.0586C145.935 90.7695 146.043 90.3659 146.043 89.8477C146.043 89.3841 145.932 89.0091 145.711 88.7227C145.492 88.4336 145.201 88.2891 144.836 88.2891C144.479 88.2891 144.191 88.431 143.973 88.7148C143.754 88.9987 143.645 89.4049 143.645 89.9336ZM147.496 89.8516C147.496 89.2031 147.65 88.6823 147.957 88.2891C148.264 87.8932 148.667 87.6953 149.164 87.6953C149.659 87.6953 150.051 87.8646 150.34 88.2031V86H151.062V92H150.398L150.363 91.5469C150.074 91.901 149.672 92.0781 149.156 92.0781C148.667 92.0781 148.267 91.8776 147.957 91.4766C147.65 91.0755 147.496 90.5521 147.496 89.9062V89.8516ZM148.219 89.9336C148.219 90.4128 148.318 90.7878 148.516 91.0586C148.714 91.3294 148.987 91.4648 149.336 91.4648C149.794 91.4648 150.129 91.2591 150.34 90.8477V88.9062C150.124 88.5078 149.792 88.3086 149.344 88.3086C148.99 88.3086 148.714 88.4453 148.516 88.7188C148.318 88.9922 148.219 89.3971 148.219 89.9336ZM152.973 92H152.25V87.7734H152.973V92ZM152.191 86.6523C152.191 86.5352 152.227 86.4362 152.297 86.3555C152.37 86.2747 152.477 86.2344 152.617 86.2344C152.758 86.2344 152.865 86.2747 152.938 86.3555C153.01 86.4362 153.047 86.5352 153.047 86.6523C153.047 86.7695 153.01 86.8672 152.938 86.9453C152.865 87.0234 152.758 87.0625 152.617 87.0625C152.477 87.0625 152.37 87.0234 152.297 86.9453C152.227 86.8672 152.191 86.7695 152.191 86.6523ZM153.961 89.8516C153.961 89.1927 154.113 88.6693 154.418 88.2812C154.723 87.8906 155.126 87.6953 155.629 87.6953C156.145 87.6953 156.547 87.8776 156.836 88.2422L156.871 87.7734H157.531V91.8984C157.531 92.4453 157.368 92.8763 157.043 93.1914C156.72 93.5065 156.285 93.6641 155.738 93.6641C155.434 93.6641 155.135 93.599 154.844 93.4688C154.552 93.3385 154.329 93.1602 154.176 92.9336L154.551 92.5C154.861 92.8828 155.24 93.0742 155.688 93.0742C156.039 93.0742 156.312 92.9753 156.508 92.7773C156.706 92.5794 156.805 92.3008 156.805 91.9414V91.5781C156.516 91.9115 156.121 92.0781 155.621 92.0781C155.126 92.0781 154.725 91.8789 154.418 91.4805C154.113 91.082 153.961 90.5391 153.961 89.8516ZM154.688 89.9336C154.688 90.4102 154.785 90.7852 154.98 91.0586C155.176 91.3294 155.449 91.4648 155.801 91.4648C156.257 91.4648 156.591 91.2578 156.805 90.8438V88.9141C156.583 88.5104 156.251 88.3086 155.809 88.3086C155.457 88.3086 155.182 88.4453 154.984 88.7188C154.786 88.9922 154.688 89.3971 154.688 89.9336ZM158.434 89.8477C158.434 89.4336 158.514 89.0612 158.676 88.7305C158.84 88.3997 159.066 88.1445 159.355 87.9648C159.647 87.7852 159.979 87.6953 160.352 87.6953C160.927 87.6953 161.392 87.8945 161.746 88.293C162.103 88.6914 162.281 89.2214 162.281 89.8828V89.9336C162.281 90.3451 162.202 90.7148 162.043 91.043C161.887 91.3685 161.661 91.6224 161.367 91.8047C161.076 91.987 160.74 92.0781 160.359 92.0781C159.786 92.0781 159.322 91.8789 158.965 91.4805C158.611 91.082 158.434 90.5547 158.434 89.8984V89.8477ZM159.16 89.9336C159.16 90.4023 159.268 90.7786 159.484 91.0625C159.703 91.3464 159.995 91.4883 160.359 91.4883C160.727 91.4883 161.018 91.3451 161.234 91.0586C161.451 90.7695 161.559 90.3659 161.559 89.8477C161.559 89.3841 161.448 89.0091 161.227 88.7227C161.008 88.4336 160.716 88.2891 160.352 88.2891C159.995 88.2891 159.707 88.431 159.488 88.7148C159.27 88.9987 159.16 89.4049 159.16 89.9336ZM164.996 89.8516C164.996 89.2031 165.15 88.6823 165.457 88.2891C165.764 87.8932 166.167 87.6953 166.664 87.6953C167.159 87.6953 167.551 87.8646 167.84 88.2031V86H168.562V92H167.898L167.863 91.5469C167.574 91.901 167.172 92.0781 166.656 92.0781C166.167 92.0781 165.767 91.8776 165.457 91.4766C165.15 91.0755 164.996 90.5521 164.996 89.9062V89.8516ZM165.719 89.9336C165.719 90.4128 165.818 90.7878 166.016 91.0586C166.214 91.3294 166.487 91.4648 166.836 91.4648C167.294 91.4648 167.629 91.2591 167.84 90.8477V88.9062C167.624 88.5078 167.292 88.3086 166.844 88.3086C166.49 88.3086 166.214 88.4453 166.016 88.7188C165.818 88.9922 165.719 89.3971 165.719 89.9336ZM171.441 92.0781C170.868 92.0781 170.402 91.8906 170.043 91.5156C169.684 91.138 169.504 90.6341 169.504 90.0039V89.8711C169.504 89.4518 169.583 89.0781 169.742 88.75C169.904 88.4193 170.128 88.1615 170.414 87.9766C170.703 87.7891 171.016 87.6953 171.352 87.6953C171.901 87.6953 172.328 87.8763 172.633 88.2383C172.938 88.6003 173.09 89.1185 173.09 89.793V90.0938H170.227C170.237 90.5104 170.358 90.8477 170.59 91.1055C170.824 91.3607 171.121 91.4883 171.48 91.4883C171.736 91.4883 171.952 91.4362 172.129 91.332C172.306 91.2279 172.461 91.0898 172.594 90.918L173.035 91.2617C172.681 91.806 172.15 92.0781 171.441 92.0781ZM171.352 88.2891C171.06 88.2891 170.815 88.3958 170.617 88.6094C170.419 88.8203 170.297 89.1172 170.25 89.5H172.367V89.4453C172.346 89.0781 172.247 88.7943 172.07 88.5938C171.893 88.3906 171.654 88.2891 171.352 88.2891ZM176.391 90.8789C176.391 90.6836 176.316 90.5326 176.168 90.4258C176.022 90.3164 175.766 90.2227 175.398 90.1445C175.034 90.0664 174.743 89.9727 174.527 89.8633C174.314 89.7539 174.155 89.6237 174.051 89.4727C173.949 89.3216 173.898 89.1419 173.898 88.9336C173.898 88.5872 174.044 88.2943 174.336 88.0547C174.63 87.8151 175.005 87.6953 175.461 87.6953C175.94 87.6953 176.328 87.819 176.625 88.0664C176.924 88.3138 177.074 88.6302 177.074 89.0156H176.348C176.348 88.8177 176.263 88.6471 176.094 88.5039C175.927 88.3607 175.716 88.2891 175.461 88.2891C175.198 88.2891 174.992 88.3464 174.844 88.4609C174.695 88.5755 174.621 88.7253 174.621 88.9102C174.621 89.0846 174.69 89.2161 174.828 89.3047C174.966 89.3932 175.215 89.4779 175.574 89.5586C175.936 89.6393 176.229 89.7357 176.453 89.8477C176.677 89.9596 176.842 90.0951 176.949 90.2539C177.059 90.4102 177.113 90.6016 177.113 90.8281C177.113 91.2057 176.962 91.5091 176.66 91.7383C176.358 91.9648 175.966 92.0781 175.484 92.0781C175.146 92.0781 174.846 92.0182 174.586 91.8984C174.326 91.7786 174.121 91.612 173.973 91.3984C173.827 91.1823 173.754 90.9492 173.754 90.6992H174.477C174.49 90.9414 174.586 91.1341 174.766 91.2773C174.948 91.418 175.188 91.4883 175.484 91.4883C175.758 91.4883 175.977 91.4336 176.141 91.3242C176.307 91.2122 176.391 91.0638 176.391 90.8789ZM177.879 89.8516C177.879 89.2031 178.033 88.6823 178.34 88.2891C178.647 87.8932 179.049 87.6953 179.547 87.6953C180.042 87.6953 180.434 87.8646 180.723 88.2031V86H181.445V92H180.781L180.746 91.5469C180.457 91.901 180.055 92.0781 179.539 92.0781C179.049 92.0781 178.65 91.8776 178.34 91.4766C178.033 91.0755 177.879 90.5521 177.879 89.9062V89.8516ZM178.602 89.9336C178.602 90.4128 178.701 90.7878 178.898 91.0586C179.096 91.3294 179.37 91.4648 179.719 91.4648C180.177 91.4648 180.512 91.2591 180.723 90.8477V88.9062C180.507 88.5078 180.174 88.3086 179.727 88.3086C179.372 88.3086 179.096 88.4453 178.898 88.7188C178.701 88.9922 178.602 89.3971 178.602 89.9336ZM184.324 92.0781C183.751 92.0781 183.285 91.8906 182.926 91.5156C182.566 91.138 182.387 90.6341 182.387 90.0039V89.8711C182.387 89.4518 182.466 89.0781 182.625 88.75C182.786 88.4193 183.01 88.1615 183.297 87.9766C183.586 87.7891 183.898 87.6953 184.234 87.6953C184.784 87.6953 185.211 87.8763 185.516 88.2383C185.82 88.6003 185.973 89.1185 185.973 89.793V90.0938H183.109C183.12 90.5104 183.241 90.8477 183.473 91.1055C183.707 91.3607 184.004 91.4883 184.363 91.4883C184.618 91.4883 184.835 91.4362 185.012 91.332C185.189 91.2279 185.344 91.0898 185.477 90.918L185.918 91.2617C185.564 91.806 185.033 92.0781 184.324 92.0781ZM184.234 88.2891C183.943 88.2891 183.698 88.3958 183.5 88.6094C183.302 88.8203 183.18 89.1172 183.133 89.5H185.25V89.4453C185.229 89.0781 185.13 88.7943 184.953 88.5938C184.776 88.3906 184.536 88.2891 184.234 88.2891ZM189.777 86.75V87.7734H190.566V88.332H189.777V90.9531C189.777 91.1224 189.812 91.25 189.883 91.3359C189.953 91.4193 190.073 91.4609 190.242 91.4609C190.326 91.4609 190.44 91.4453 190.586 91.4141V92C190.396 92.0521 190.211 92.0781 190.031 92.0781C189.708 92.0781 189.465 91.9805 189.301 91.7852C189.137 91.5898 189.055 91.3125 189.055 90.9531V88.332H188.285V87.7734H189.055V86.75H189.777ZM194.023 91.582C193.742 91.9128 193.329 92.0781 192.785 92.0781C192.335 92.0781 191.991 91.9479 191.754 91.6875C191.52 91.4245 191.401 91.0365 191.398 90.5234V87.7734H192.121V90.5039C192.121 91.1445 192.382 91.4648 192.902 91.4648C193.454 91.4648 193.822 91.2591 194.004 90.8477V87.7734H194.727V92H194.039L194.023 91.582ZM198.492 87.7734L198.512 88.2422C198.822 87.8776 199.24 87.6953 199.766 87.6953C200.357 87.6953 200.759 87.9219 200.973 88.375C201.113 88.1719 201.296 88.0078 201.52 87.8828C201.746 87.7578 202.013 87.6953 202.32 87.6953C203.247 87.6953 203.719 88.1862 203.734 89.168V92H203.012V89.2109C203.012 88.9089 202.943 88.6836 202.805 88.5352C202.667 88.3841 202.435 88.3086 202.109 88.3086C201.841 88.3086 201.618 88.3893 201.441 88.5508C201.264 88.7096 201.161 88.9245 201.133 89.1953V92H200.406V89.2305C200.406 88.6159 200.105 88.3086 199.504 88.3086C199.03 88.3086 198.706 88.5104 198.531 88.9141V92H197.809V87.7734H198.492ZM204.637 89.8477C204.637 89.4336 204.717 89.0612 204.879 88.7305C205.043 88.3997 205.27 88.1445 205.559 87.9648C205.85 87.7852 206.182 87.6953 206.555 87.6953C207.13 87.6953 207.595 87.8945 207.949 88.293C208.306 88.6914 208.484 89.2214 208.484 89.8828V89.9336C208.484 90.3451 208.405 90.7148 208.246 91.043C208.09 91.3685 207.865 91.6224 207.57 91.8047C207.279 91.987 206.943 92.0781 206.562 92.0781C205.99 92.0781 205.525 91.8789 205.168 91.4805C204.814 91.082 204.637 90.5547 204.637 89.8984V89.8477ZM205.363 89.9336C205.363 90.4023 205.471 90.7786 205.688 91.0625C205.906 91.3464 206.198 91.4883 206.562 91.4883C206.93 91.4883 207.221 91.3451 207.438 91.0586C207.654 90.7695 207.762 90.3659 207.762 89.8477C207.762 89.3841 207.651 89.0091 207.43 88.7227C207.211 88.4336 206.919 88.2891 206.555 88.2891C206.198 88.2891 205.91 88.431 205.691 88.7148C205.473 88.9987 205.363 89.4049 205.363 89.9336ZM210.723 91.0195L211.77 87.7734H212.508L210.992 92H210.441L208.91 87.7734H209.648L210.723 91.0195ZM213.988 92H213.266V87.7734H213.988V92ZM213.207 86.6523C213.207 86.5352 213.242 86.4362 213.312 86.3555C213.385 86.2747 213.492 86.2344 213.633 86.2344C213.773 86.2344 213.88 86.2747 213.953 86.3555C214.026 86.4362 214.062 86.5352 214.062 86.6523C214.062 86.7695 214.026 86.8672 213.953 86.9453C213.88 87.0234 213.773 87.0625 213.633 87.0625C213.492 87.0625 213.385 87.0234 213.312 86.9453C213.242 86.8672 213.207 86.7695 213.207 86.6523ZM215.934 92H215.211V86H215.934V92Z" fill="black"/>
<rect x="99" y="150" width="117.156" height="30.5625" rx="15.2812" fill="#0F8DFF"/>
<path d="M152.451 167.823H155.562V169H150.986V161.891H152.451V167.823ZM157.803 169H156.387V161.5H157.803V169ZM162.031 169C161.966 168.873 161.919 168.715 161.89 168.526C161.548 168.907 161.104 169.098 160.557 169.098C160.039 169.098 159.609 168.948 159.268 168.648C158.929 168.349 158.76 167.971 158.76 167.516C158.76 166.956 158.966 166.526 159.38 166.227C159.797 165.927 160.397 165.776 161.182 165.772H161.831V165.47C161.831 165.226 161.768 165.03 161.641 164.884C161.517 164.737 161.32 164.664 161.05 164.664C160.812 164.664 160.625 164.721 160.488 164.835C160.355 164.949 160.288 165.105 160.288 165.304H158.877C158.877 164.998 158.971 164.715 159.16 164.454C159.349 164.194 159.616 163.99 159.961 163.844C160.306 163.694 160.693 163.619 161.123 163.619C161.774 163.619 162.29 163.784 162.671 164.112C163.055 164.438 163.247 164.897 163.247 165.489V167.779C163.25 168.281 163.32 168.66 163.457 168.917V169H162.031ZM160.864 168.019C161.073 168.019 161.265 167.973 161.44 167.882C161.616 167.787 161.746 167.662 161.831 167.506V166.598H161.304C160.597 166.598 160.221 166.842 160.176 167.33L160.171 167.413C160.171 167.589 160.233 167.734 160.356 167.848C160.48 167.962 160.649 168.019 160.864 168.019ZM165.654 163.717L165.698 164.308C166.073 163.849 166.579 163.619 167.217 163.619C167.897 163.619 168.364 163.888 168.618 164.425C168.989 163.888 169.518 163.619 170.205 163.619C170.778 163.619 171.204 163.787 171.484 164.122C171.764 164.454 171.904 164.955 171.904 165.626V169H170.488V165.631C170.488 165.331 170.43 165.113 170.312 164.977C170.195 164.837 169.989 164.767 169.692 164.767C169.269 164.767 168.976 164.968 168.813 165.372L168.818 169H167.407V165.636C167.407 165.33 167.347 165.108 167.227 164.972C167.106 164.835 166.901 164.767 166.611 164.767C166.211 164.767 165.921 164.933 165.742 165.265V169H164.331V163.717H165.654ZM176.055 169C175.99 168.873 175.942 168.715 175.913 168.526C175.571 168.907 175.127 169.098 174.58 169.098C174.062 169.098 173.633 168.948 173.291 168.648C172.952 168.349 172.783 167.971 172.783 167.516C172.783 166.956 172.99 166.526 173.403 166.227C173.82 165.927 174.421 165.776 175.205 165.772H175.854V165.47C175.854 165.226 175.791 165.03 175.664 164.884C175.54 164.737 175.343 164.664 175.073 164.664C174.836 164.664 174.648 164.721 174.512 164.835C174.378 164.949 174.312 165.105 174.312 165.304H172.9C172.9 164.998 172.995 164.715 173.184 164.454C173.372 164.194 173.639 163.99 173.984 163.844C174.329 163.694 174.717 163.619 175.146 163.619C175.798 163.619 176.313 163.784 176.694 164.112C177.078 164.438 177.271 164.897 177.271 165.489V167.779C177.274 168.281 177.344 168.66 177.48 168.917V169H176.055ZM174.888 168.019C175.096 168.019 175.288 167.973 175.464 167.882C175.64 167.787 175.77 167.662 175.854 167.506V166.598H175.327C174.621 166.598 174.245 166.842 174.199 167.33L174.194 167.413C174.194 167.589 174.256 167.734 174.38 167.848C174.504 167.962 174.673 168.019 174.888 168.019ZM181.323 165.04C181.131 165.014 180.962 165.001 180.815 165.001C180.282 165.001 179.932 165.182 179.766 165.543V169H178.354V163.717H179.688L179.727 164.347C180.01 163.862 180.402 163.619 180.903 163.619C181.06 163.619 181.206 163.64 181.343 163.683L181.323 165.04Z" fill="white"/>
<g clip-path="url(#clip4)">
<path d="M138.815 167.601C138.48 167.862 138.002 167.839 137.696 167.533L135.204 165.041C134.898 164.735 134.876 164.25 135.137 163.922L131.981 160.758C130.608 162.34 130.682 164.743 132.182 166.243L136.495 170.555C138.024 172.084 140.453 172.1 141.979 170.757L138.815 167.601Z" fill="white"/>
<path d="M135.92 161.541L134.339 159.952C133.921 159.534 133.182 159.534 132.757 159.952L132.496 160.221L135.659 163.384L135.92 163.123C136.137 162.907 136.249 162.631 136.249 162.332C136.249 162.034 136.137 161.75 135.92 161.541Z" fill="white"/>
<path d="M142.785 168.399L141.196 166.817C140.778 166.392 140.039 166.392 139.614 166.817L139.353 167.078L142.516 170.242L142.785 169.981C142.994 169.772 143.106 169.488 143.106 169.19C143.106 168.891 142.994 168.608 142.785 168.399Z" fill="white"/>
<path d="M137.39 159C136.899 159 136.897 159.741 137.39 159.741C140.476 159.741 142.991 162.256 142.991 165.342C142.991 165.834 143.733 165.836 143.733 165.342C143.733 161.845 140.888 159 137.39 159Z" fill="white"/>
<path d="M137.39 160.492C136.899 160.492 136.897 161.233 137.39 161.233C139.653 161.233 141.499 163.079 141.499 165.342C141.499 165.834 142.24 165.836 142.24 165.342C142.24 162.668 140.065 160.492 137.39 160.492Z" fill="white"/>
<path d="M137.39 161.984C136.899 161.984 136.897 162.726 137.39 162.726C138.83 162.726 140.007 163.902 140.007 165.342C140.007 165.834 140.748 165.836 140.748 165.342C140.748 163.491 139.242 161.984 137.39 161.984Z" fill="white"/>
<path d="M137.39 163.477C136.899 163.477 136.897 164.223 137.39 164.223C138.008 164.223 138.51 164.725 138.51 165.342C138.51 165.834 139.256 165.836 139.256 165.342C139.256 164.314 138.419 163.477 137.39 163.477Z" fill="white"/>
</g>
<rect x="99" y="108" width="117.156" height="30.5625" rx="15.2812" fill="#29DA65"/>
<path d="M150.07 123.949L151.027 118.891H152.487L150.91 126H149.436L148.278 121.244L147.121 126H145.646L144.069 118.891H145.529L146.491 123.939L147.663 118.891H148.903L150.07 123.949ZM154.567 121.293C154.942 120.844 155.412 120.619 155.979 120.619C157.124 120.619 157.705 121.285 157.722 122.616V126H156.311V122.655C156.311 122.353 156.245 122.13 156.115 121.986C155.985 121.84 155.769 121.767 155.466 121.767C155.052 121.767 154.753 121.926 154.567 122.245V126H153.156V118.5H154.567V121.293ZM161.848 126C161.783 125.873 161.735 125.715 161.706 125.526C161.364 125.907 160.92 126.098 160.373 126.098C159.855 126.098 159.426 125.948 159.084 125.648C158.745 125.349 158.576 124.971 158.576 124.516C158.576 123.956 158.783 123.526 159.196 123.227C159.613 122.927 160.214 122.776 160.998 122.772H161.647V122.47C161.647 122.226 161.584 122.03 161.457 121.884C161.333 121.737 161.136 121.664 160.866 121.664C160.629 121.664 160.441 121.721 160.305 121.835C160.171 121.949 160.104 122.105 160.104 122.304H158.693C158.693 121.998 158.788 121.715 158.977 121.454C159.165 121.194 159.432 120.99 159.777 120.844C160.122 120.694 160.51 120.619 160.939 120.619C161.59 120.619 162.106 120.784 162.487 121.112C162.871 121.438 163.063 121.897 163.063 122.489V124.779C163.067 125.281 163.137 125.66 163.273 125.917V126H161.848ZM160.681 125.019C160.889 125.019 161.081 124.973 161.257 124.882C161.433 124.787 161.563 124.662 161.647 124.506V123.598H161.12C160.414 123.598 160.038 123.842 159.992 124.33L159.987 124.413C159.987 124.589 160.049 124.734 160.173 124.848C160.297 124.962 160.466 125.019 160.681 125.019ZM165.837 119.418V120.717H166.74V121.752H165.837V124.389C165.837 124.584 165.874 124.724 165.949 124.809C166.024 124.893 166.167 124.936 166.379 124.936C166.535 124.936 166.674 124.924 166.794 124.901V125.971C166.517 126.055 166.232 126.098 165.939 126.098C164.95 126.098 164.445 125.598 164.426 124.599V121.752H163.654V120.717H164.426V119.418H165.837ZM170.388 124.54C170.388 124.368 170.301 124.232 170.129 124.135C169.96 124.034 169.686 123.944 169.309 123.866C168.052 123.603 167.424 123.069 167.424 122.265C167.424 121.796 167.618 121.405 168.005 121.093C168.396 120.777 168.905 120.619 169.533 120.619C170.204 120.619 170.739 120.777 171.14 121.093C171.543 121.409 171.745 121.819 171.745 122.323H170.334C170.334 122.121 170.269 121.955 170.139 121.825C170.008 121.692 169.805 121.625 169.528 121.625C169.291 121.625 169.107 121.679 168.977 121.786C168.846 121.894 168.781 122.03 168.781 122.196C168.781 122.353 168.854 122.479 169.001 122.577C169.151 122.672 169.401 122.755 169.753 122.826C170.104 122.895 170.401 122.973 170.642 123.061C171.387 123.334 171.76 123.808 171.76 124.481C171.76 124.963 171.553 125.354 171.14 125.653C170.726 125.95 170.192 126.098 169.538 126.098C169.095 126.098 168.701 126.02 168.356 125.863C168.015 125.704 167.746 125.487 167.551 125.214C167.355 124.937 167.258 124.639 167.258 124.32H168.596C168.609 124.571 168.701 124.763 168.874 124.896C169.047 125.03 169.278 125.097 169.567 125.097C169.838 125.097 170.041 125.046 170.178 124.945C170.318 124.841 170.388 124.706 170.388 124.54ZM175.734 126C175.669 125.873 175.622 125.715 175.593 125.526C175.251 125.907 174.807 126.098 174.26 126.098C173.742 126.098 173.312 125.948 172.971 125.648C172.632 125.349 172.463 124.971 172.463 124.516C172.463 123.956 172.67 123.526 173.083 123.227C173.5 122.927 174.1 122.776 174.885 122.772H175.534V122.47C175.534 122.226 175.471 122.03 175.344 121.884C175.22 121.737 175.023 121.664 174.753 121.664C174.515 121.664 174.328 121.721 174.191 121.835C174.058 121.949 173.991 122.105 173.991 122.304H172.58C172.58 121.998 172.674 121.715 172.863 121.454C173.052 121.194 173.319 120.99 173.664 120.844C174.009 120.694 174.396 120.619 174.826 120.619C175.477 120.619 175.993 120.784 176.374 121.112C176.758 121.438 176.95 121.897 176.95 122.489V124.779C176.953 125.281 177.023 125.66 177.16 125.917V126H175.734ZM174.567 125.019C174.776 125.019 174.968 124.973 175.144 124.882C175.319 124.787 175.45 124.662 175.534 124.506V123.598H175.007C174.3 123.598 173.924 123.842 173.879 124.33L173.874 124.413C173.874 124.589 173.936 124.734 174.06 124.848C174.183 124.962 174.353 125.019 174.567 125.019ZM182.79 123.407C182.79 124.221 182.604 124.874 182.233 125.365C181.866 125.854 181.368 126.098 180.739 126.098C180.205 126.098 179.774 125.912 179.445 125.541V128.031H178.034V120.717H179.343L179.392 121.234C179.733 120.824 180.179 120.619 180.729 120.619C181.381 120.619 181.887 120.86 182.248 121.342C182.609 121.824 182.79 122.488 182.79 123.334V123.407ZM181.379 123.305C181.379 122.813 181.291 122.434 181.115 122.167C180.943 121.9 180.69 121.767 180.358 121.767C179.916 121.767 179.611 121.936 179.445 122.274V124.438C179.618 124.786 179.925 124.96 180.368 124.96C181.042 124.96 181.379 124.408 181.379 123.305ZM188.425 123.407C188.425 124.221 188.239 124.874 187.868 125.365C187.5 125.854 187.002 126.098 186.374 126.098C185.84 126.098 185.409 125.912 185.08 125.541V128.031H183.669V120.717H184.978L185.026 121.234C185.368 120.824 185.814 120.619 186.364 120.619C187.015 120.619 187.521 120.86 187.883 121.342C188.244 121.824 188.425 122.488 188.425 123.334V123.407ZM187.014 123.305C187.014 122.813 186.926 122.434 186.75 122.167C186.577 121.9 186.325 121.767 185.993 121.767C185.55 121.767 185.246 121.936 185.08 122.274V124.438C185.253 124.786 185.56 124.96 186.003 124.96C186.677 124.96 187.014 124.408 187.014 123.305Z" fill="white"/>
<path d="M131.369 116H131.366C127.855 116 125 118.856 125 122.367C125 123.76 125.449 125.051 126.212 126.099L125.419 128.465L127.866 127.682C128.873 128.349 130.074 128.734 131.369 128.734C134.879 128.734 137.734 125.878 137.734 122.367C137.734 118.856 134.879 116 131.369 116ZM135.074 124.991C134.92 125.425 134.31 125.785 133.824 125.89C133.491 125.961 133.057 126.017 131.594 125.411C129.723 124.635 128.518 122.734 128.424 122.611C128.334 122.487 127.668 121.604 127.668 120.69C127.668 119.777 128.132 119.332 128.319 119.141C128.473 118.984 128.726 118.912 128.97 118.912C129.049 118.912 129.12 118.916 129.183 118.919C129.37 118.927 129.464 118.938 129.588 119.234C129.741 119.604 130.115 120.518 130.16 120.611C130.205 120.705 130.251 120.833 130.187 120.956C130.127 121.083 130.075 121.14 129.981 121.248C129.887 121.356 129.798 121.439 129.704 121.555C129.618 121.656 129.521 121.765 129.629 121.952C129.737 122.135 130.111 122.745 130.662 123.236C131.373 123.868 131.949 124.07 132.155 124.156C132.309 124.22 132.492 124.205 132.604 124.086C132.746 123.932 132.922 123.677 133.101 123.427C133.229 123.247 133.39 123.224 133.558 123.288C133.73 123.348 134.64 123.797 134.827 123.891C135.014 123.984 135.137 124.029 135.183 124.108C135.227 124.187 135.227 124.557 135.074 124.991Z" fill="white"/>
</g>
</g>
<defs>
<filter id="filter0_d" x="315" y="0" width="184.273" height="346" filterUnits="userSpaceOnUse" color-interpolation-filters="sRGB">
<feFlood flood-opacity="0" result="BackgroundImageFix"/>
<feColorMatrix in="SourceAlpha" type="matrix" values="0 0 0 0 0 0 0 0 0 0 0 0 0 0 0 0 0 0 127 0"/>
<feOffset dy="4"/>
<feGaussianBlur stdDeviation="5"/>
<feColorMatrix type="matrix" values="0 0 0 0 0 0 0 0 0 0 0 0 0 0 0 0 0 0 0.25 0"/>
<feBlend mode="normal" in2="BackgroundImageFix" result="effect1_dropShadow"/>
<feBlend mode="normal" in="SourceGraphic" in2="effect1_dropShadow" result="shape"/>
</filter>
<filter id="filter1_d" x="0" y="2" width="483.695" height="322.695" filterUnits="userSpaceOnUse" color-interpolation-filters="sRGB">
<feFlood flood-opacity="0" result="BackgroundImageFix"/>
<feColorMatrix in="SourceAlpha" type="matrix" values="0 0 0 0 0 0 0 0 0 0 0 0 0 0 0 0 0 0 127 0"/>
<feOffset dy="4"/>
<feGaussianBlur stdDeviation="5"/>
<feColorMatrix type="matrix" values="0 0 0 0 0 0 0 0 0 0 0 0 0 0 0 0 0 0 0.25 0"/>
<feBlend mode="normal" in2="BackgroundImageFix" result="effect1_dropShadow"/>
<feBlend mode="normal" in="SourceGraphic" in2="effect1_dropShadow" result="shape"/>
</filter>
<filter id="filter2_d" x="64" y="58" width="188" height="177.599" filterUnits="userSpaceOnUse" color-interpolation-filters="sRGB">
<feFlood flood-opacity="0" result="BackgroundImageFix"/>
<feColorMatrix in="SourceAlpha" type="matrix" values="0 0 0 0 0 0 0 0 0 0 0 0 0 0 0 0 0 0 127 0"/>
<feOffset dy="4"/>
<feGaussianBlur stdDeviation="5"/>
<feColorMatrix type="matrix" values="0 0 0 0 0 0 0 0 0 0 0 0 0 0 0 0 0 0 0.25 0"/>
<feBlend mode="normal" in2="BackgroundImageFix" result="effect1_dropShadow"/>
<feBlend mode="normal" in="SourceGraphic" in2="effect1_dropShadow" result="shape"/>
</filter>
<clipPath id="clip0">
<rect width="12.7344" height="12.7344" fill="white" transform="translate(470.172 26.375)"/>
</clipPath>
<clipPath id="clip1">
<rect width="12.7344" height="12.7344" fill="white" transform="translate(336.461 26.375)"/>
</clipPath>
<clipPath id="clip2">
<rect width="30.3686" height="30.3686" fill="white" transform="translate(432.334 274.551) rotate(-10)"/>
</clipPath>
<clipPath id="clip3">
<rect width="30.3686" height="30.3686" fill="white" transform="translate(194.334 222.551) rotate(-10)"/>
</clipPath>
<clipPath id="clip4">
<rect width="12.7344" height="12.7344" fill="white" transform="translate(131 159)"/>
</clipPath>
</defs>
</svg>
