<svg width="397" height="300" viewBox="0 0 397 300" fill="none" xmlns="http://www.w3.org/2000/svg">
<g clip-path="url(#clip0)">
<path opacity="0.24" d="M18.3157 246.757C11.4807 238.701 5.57648 229.633 2.51639 219.537C-4.31854 196.918 3.84168 172.63 13.9303 151.225C23.6094 130.72 40.5925 104.028 40.9424 80.8428C41.0094 76.6584 39.9149 72.5485 39.2597 68.4089C37.9123 59.3964 38.6412 50.1952 41.3909 41.5074C44.1406 32.8195 48.8385 24.8745 55.126 18.2786C65.1865 8.08451 78.5524 1.81207 92.8224 0.588133C137.547 -3.48453 185.891 14.8983 214.131 18.6359C246.661 22.9469 279.942 12.6796 312.344 17.8914C341.181 22.515 369.123 9.04618 384.148 34.0927C399.173 59.1392 400.737 122.321 389.532 149.296C385.392 159.266 379.465 168.535 376.658 178.959C373.576 190.425 374.477 202.598 376.524 214.295C378.155 223.632 380.508 233.073 379.249 242.469C377.76 253.637 371.231 263.599 363.242 271.543C341.129 293.537 308.071 301.623 276.941 299.732C245.812 297.841 215.97 287.075 186.851 275.959C179.852 273.278 172.816 270.553 165.423 269.31C156.972 267.895 148.299 268.468 139.788 269.198C115.874 271.216 90.8642 278.55 67.0909 278.944C48.4549 279.257 29.5881 260.055 18.3157 246.757Z" fill="#A500FF"/>
<path d="M332.343 162.847C333.326 160.219 332.961 157.285 333.393 154.508C333.544 153.182 334.037 151.917 334.822 150.838C335.478 150.03 336.353 149.428 337.342 149.104C338.331 148.781 339.392 148.749 340.399 149.013C343.057 149.758 344.747 152.52 345.045 155.26C345.343 158 344.531 160.725 343.638 163.331C341.769 168.744 339.535 174.023 337.629 179.421C336.058 183.888 335.046 189.666 338.709 192.666C339.647 193.411 340.823 193.925 341.62 194.84C342.277 195.681 342.7 196.68 342.848 197.737C344.285 205.338 338.873 212.724 332.425 216.953C330.28 218.353 327.89 219.559 325.337 219.626C321.301 219.723 317.631 216.857 315.762 213.275C313.893 209.694 313.528 205.532 313.603 201.497C313.772 196.363 314.245 191.244 315.017 186.166C315.553 182.116 316.104 177.976 317.623 174.254C318.777 171.38 321.152 166.808 324.458 166.138C327.764 165.468 330.563 167.612 332.343 162.847Z" fill="#A500FF"/>
<path d="M330.95 162.691C331.933 160.055 331.568 157.129 332 154.352C332.152 153.023 332.644 151.756 333.43 150.674C334.086 149.867 334.962 149.267 335.951 148.945C336.94 148.622 338 148.592 339.006 148.857C341.664 149.602 343.354 152.364 343.652 155.096C343.95 157.829 343.139 160.561 342.245 163.167C340.376 168.58 338.143 173.859 336.237 179.264C334.666 183.732 333.653 189.502 337.316 192.502C338.254 193.247 339.431 193.768 340.227 194.684C340.884 195.522 341.308 196.519 341.456 197.573C342.893 205.182 337.48 212.56 331.032 216.797C328.888 218.197 326.498 219.403 323.944 219.462C319.909 219.567 316.238 216.693 314.369 213.119C312.5 209.545 312.136 205.368 312.21 201.333C312.381 196.199 312.853 191.08 313.625 186.003C314.161 181.952 314.712 177.857 316.231 174.09C317.385 171.223 319.76 166.689 323.073 165.982C326.386 165.274 329.171 167.441 330.95 162.691Z" fill="url(#paint0_linear)"/>
<path d="M339.759 128.851C332.015 141.702 334.182 159.057 325.277 171.141C322.575 174.812 318.978 177.783 316.551 181.647C314.124 185.511 313.141 190.857 315.941 194.453C323.475 190.083 326.104 180.739 329.856 172.861C330.114 172.199 330.534 171.613 331.077 171.156C333.11 169.719 335.634 172.534 335.857 175.013C336.46 181.617 330.861 186.993 328.546 193.202C325.642 200.99 327.719 210.759 322.21 216.983C321.093 218.241 319.589 219.314 317.899 219.321C316.665 219.249 315.473 218.851 314.444 218.167C310.394 215.807 306.954 212.528 304.403 208.595C301.851 204.663 300.259 200.186 299.754 195.525C298.958 187.588 299.888 178.282 304.75 171.96C308.719 166.801 308.592 161.328 311.019 155.134C313.557 148.706 317.527 142.941 322.627 138.277C325.057 136.051 327.738 134.115 330.616 132.507C332.239 131.621 339.036 130.087 339.759 128.851Z" fill="#A500FF"/>
<path d="M338.717 128.851C330.973 141.702 333.132 159.057 324.235 171.141C321.532 174.812 317.936 177.783 315.509 181.647C313.082 185.511 312.099 190.857 314.891 194.453C322.433 190.083 325.054 180.739 328.814 172.861C329.069 172.198 329.489 171.611 330.035 171.156C332.068 169.719 334.592 172.534 334.815 175.013C335.418 181.617 329.819 186.993 327.504 193.202C324.6 200.99 326.677 210.759 321.168 216.983C320.051 218.241 318.539 219.314 316.857 219.321C315.621 219.248 314.427 218.85 313.395 218.167C309.346 215.804 305.908 212.525 303.357 208.593C300.806 204.661 299.212 200.185 298.705 195.525C297.915 187.588 298.846 178.282 303.701 171.96C307.676 166.801 307.55 161.328 309.977 155.134C312.515 148.706 316.485 142.941 321.585 138.277C324.015 136.051 326.696 134.115 329.574 132.507C331.204 131.621 337.994 130.087 338.717 128.851Z" fill="url(#paint1_linear)"/>
<path d="M62.2741 177.381C60.7851 172.913 60.1894 168.245 58.7822 163.778C57.375 159.311 54.9106 154.88 50.8007 152.647C46.6908 150.413 40.6972 151.247 38.4338 155.35C37.5356 157.117 37.2103 159.121 37.5031 161.083C38.3221 167.999 44.0849 173.412 45.6186 180.21C46.5344 184.245 45.8718 188.482 46.4674 192.584C46.8987 195.451 47.9267 198.195 49.4849 200.64C51.0432 203.084 53.097 205.174 55.5137 206.775C58.2685 208.577 61.4254 209.694 64.2398 211.406C67.9419 213.674 70.9541 216.91 72.9509 220.765C75.2881 218.646 77.1326 216.041 78.3546 213.133C79.5767 210.224 80.1465 207.083 80.0241 203.931C79.3913 190.239 66.1458 188.787 62.2741 177.381Z" fill="#A500FF"/>
<path d="M62.2741 177.381C60.7851 172.913 60.1894 168.245 58.7822 163.778C57.375 159.311 54.9106 154.88 50.8007 152.647C46.6908 150.413 40.6972 151.247 38.4338 155.35C37.5356 157.117 37.2103 159.121 37.5031 161.083C38.3221 167.999 44.0849 173.412 45.6186 180.21C46.5344 184.245 45.8718 188.482 46.4674 192.584C46.8987 195.451 47.9267 198.195 49.4849 200.64C51.0432 203.084 53.097 205.174 55.5137 206.775C58.2685 208.577 61.4254 209.694 64.2398 211.406C67.9419 213.674 70.9541 216.91 72.9509 220.765C75.2881 218.646 77.1326 216.041 78.3546 213.133C79.5767 210.224 80.1465 207.083 80.0241 203.931C79.3913 190.239 66.1458 188.787 62.2741 177.381Z" fill="url(#paint2_linear)"/>
<path d="M78.1403 152.803C77.5372 149.892 77.5596 146.847 76.6512 144.01C75.7429 141.173 73.5837 138.419 70.6204 138.121C67.2104 137.778 64.2471 140.943 63.5547 144.3C62.8622 147.658 63.8301 151.113 64.798 154.404L68.5729 167.285C69.7493 171.283 70.464 176.569 66.8977 178.728C66.0526 179.151 65.1824 179.522 64.2918 179.838C62.8052 180.528 61.5542 181.64 60.6938 183.035C59.8335 184.43 59.4018 186.047 59.4522 187.685C59.6458 191.75 62.7208 194.989 65.4086 198.057C68.0964 201.124 70.6725 205.026 69.645 208.964C68.9005 211.883 66.1978 214.414 66.7562 217.378C67.2104 219.835 69.8907 221.361 72.3924 221.383C74.8941 221.406 77.2469 220.296 79.5028 219.209L90.2764 213.997C93.7386 212.322 97.3794 210.498 99.4492 207.252C100.735 205.002 101.479 202.483 101.623 199.896C102.553 190.061 99.9102 180.221 94.1778 172.176C88.9065 164.842 80.2176 162.802 78.1403 152.803Z" fill="#A500FF"/>
<path d="M78.1403 152.803C77.5372 149.892 77.5596 146.847 76.6512 144.01C75.7429 141.173 73.5837 138.419 70.6204 138.121C67.2104 137.778 64.2471 140.943 63.5547 144.3C62.8622 147.658 63.8301 151.113 64.798 154.404L68.5729 167.285C69.7493 171.283 70.464 176.569 66.8977 178.728C66.0526 179.151 65.1824 179.522 64.2918 179.838C62.8052 180.528 61.5542 181.64 60.6938 183.035C59.8335 184.43 59.4018 186.047 59.4522 187.685C59.6458 191.75 62.7208 194.989 65.4086 198.057C68.0964 201.124 70.6725 205.026 69.645 208.964C68.9005 211.883 66.1978 214.414 66.7562 217.378C67.2104 219.835 69.8907 221.361 72.3924 221.383C74.8941 221.406 77.2469 220.296 79.5028 219.209L90.2764 213.997C93.7386 212.322 97.3794 210.498 99.4492 207.252C100.735 205.002 101.479 202.483 101.623 199.896C102.553 190.061 99.9102 180.221 94.1778 172.176C88.9065 164.842 80.2176 162.802 78.1403 152.803Z" fill="url(#paint3_linear)"/>
<path d="M299.009 60.5391H99.9549C93.4209 60.5391 88.124 65.8359 88.124 72.3699V192.636C88.124 199.17 93.4209 204.467 99.9549 204.467H299.009C305.543 204.467 310.84 199.17 310.84 192.636V72.3699C310.84 65.8359 305.543 60.5391 299.009 60.5391Z" fill="#A500FF"/>
<path d="M292.458 66.1083H104.624C98.4597 66.1083 93.4629 71.1051 93.4629 77.269V190.753C93.4629 196.917 98.4597 201.914 104.624 201.914H292.458C298.622 201.914 303.619 196.917 303.619 190.753V77.269C303.619 71.1051 298.622 66.1083 292.458 66.1083Z" fill="white"/>
<g opacity="0.52">
<path opacity="0.52" d="M165.825 95.6221H123.564V98.7194H165.825V95.6221Z" fill="#A500FF"/>
<path opacity="0.52" d="M149.356 101.616H123.564V104.527H149.356V101.616Z" fill="#A500FF"/>
<path opacity="0.52" d="M240.935 101.616H159.765V104.542H240.935V101.616Z" fill="#A500FF"/>
<path opacity="0.52" d="M172.444 107.632H136.974V110.699H172.444V107.632Z" fill="#A500FF"/>
<path opacity="0.52" d="M190.618 113.625H148.357V116.723H190.618V113.625Z" fill="#A500FF"/>
<path opacity="0.52" d="M228.791 113.625H193.373V117.065H228.791V113.625Z" fill="#A500FF"/>
<path opacity="0.52" d="M180.931 119.626H148.298V122.537H180.931V119.626Z" fill="#A500FF"/>
<path opacity="0.52" d="M251.395 119.626H184.059V122.85H251.395V119.626Z" fill="#A500FF"/>
<path opacity="0.52" d="M165.825 127.742H123.564V130.839H165.825V127.742Z" fill="#A500FF"/>
<path opacity="0.52" d="M149.356 133.735H123.564V136.647H149.356V133.735Z" fill="#A500FF"/>
<path opacity="0.52" d="M240.935 133.735H159.765V136.661H240.935V133.735Z" fill="#A500FF"/>
<path opacity="0.52" d="M172.444 139.736H136.974V142.804H172.444V139.736Z" fill="#A500FF"/>
<path opacity="0.52" d="M190.618 145.745H148.357V148.842H190.618V145.745Z" fill="#A500FF"/>
<path opacity="0.52" d="M228.791 145.745H193.373V149.185H228.791V145.745Z" fill="#A500FF"/>
<path opacity="0.52" d="M180.931 151.746H148.298V154.657H180.931V151.746Z" fill="#A500FF"/>
<path opacity="0.52" d="M251.395 151.746H184.059V154.97H251.395V151.746Z" fill="#A500FF"/>
<path opacity="0.52" d="M165.825 159.862H123.564V162.959H165.825V159.862Z" fill="#A500FF"/>
<path opacity="0.52" d="M149.356 165.855H123.564V168.766H149.356V165.855Z" fill="#A500FF"/>
<path opacity="0.52" d="M240.935 165.855H159.765V168.781H240.935V165.855Z" fill="#A500FF"/>
<path opacity="0.52" d="M172.444 171.856H136.974V174.924H172.444V171.856Z" fill="#A500FF"/>
<path opacity="0.52" d="M190.618 177.85H148.357V180.947H190.618V177.85Z" fill="#A500FF"/>
<path opacity="0.52" d="M228.791 177.85H193.373V181.29H228.791V177.85Z" fill="#A500FF"/>
<path opacity="0.52" d="M180.931 183.866H148.298V186.777H180.931V183.866Z" fill="#A500FF"/>
<path opacity="0.52" d="M251.395 183.866H184.059V187.09H251.395V183.866Z" fill="#A500FF"/>
</g>
<path opacity="0.24" d="M49.7952 138.27H126.089C131.953 138.27 136.706 133.516 136.706 127.652V113.111C136.706 107.248 131.953 102.494 126.089 102.494H49.7952C43.9314 102.494 39.178 107.248 39.178 113.111V127.652C39.178 133.516 43.9314 138.27 49.7952 138.27Z" fill="#A500FF"/>
<path d="M95.2567 203.38L53.8525 234.554H343.719L303.238 202.919L95.2567 203.38Z" fill="#A500FF"/>
<path d="M95.2567 203.38L53.8525 234.554H343.719L303.238 202.919L95.2567 203.38Z" fill="url(#paint4_linear)"/>
<path d="M283.843 216C285.392 216.499 286.568 218.427 285.69 219.805C285.02 220.855 283.33 221.54 283.672 222.738L287.633 224.734C288.077 224.901 288.454 225.21 288.705 225.612C289.271 226.841 287.425 227.719 286.077 227.846L255.007 230.34C250.838 230.675 246.594 231.003 242.521 230.05C239.762 229.296 237.092 228.25 234.554 226.93L223.163 221.517C221.473 220.713 219.708 219.85 218.591 218.346C217.474 216.842 217.251 214.489 218.591 213.216C219.559 212.322 220.981 212.188 222.314 212.114C232.944 211.518 243.604 211.727 254.203 212.739C259.355 213.235 264.488 213.92 269.6 214.794C272.146 215.226 274.901 216.164 277.463 216.283C279.532 216.372 281.818 215.338 283.843 216Z" fill="url(#paint5_linear)"/>
<path d="M65.7132 245.953L53.8525 234.554H343.719L333.013 246.653L65.7132 245.953Z" fill="#A500FF"/>
<path d="M65.7132 245.953L53.8525 234.554H343.719L333.013 246.653L65.7132 245.953Z" fill="url(#paint6_linear)"/>
<path opacity="0.58" d="M166.213 229.67L178.543 219.894L223.677 219.664L236.707 229.432L166.213 229.67Z" fill="#A500FF"/>
<path opacity="0.58" d="M80.374 218.115L314.869 217.802L302.308 207.565H94.7959L80.374 218.115Z" fill="#A500FF"/>
<path d="M224.689 216.611C226.296 218.259 228.144 219.655 230.169 220.751C231.241 221.398 232.678 222.024 233.646 221.235C234.614 220.445 234.331 219.001 233.839 217.936C232.581 215.174 229.618 212.211 226.483 211.719C222.977 211.168 222.634 214.28 224.689 216.611Z" fill="#606161"/>
<path d="M224.689 216.611C226.296 218.259 228.144 219.655 230.169 220.751C231.241 221.398 232.678 222.024 233.646 221.235C234.614 220.445 234.331 219.001 233.839 217.936C232.581 215.174 229.618 212.211 226.483 211.719C222.977 211.168 222.634 214.28 224.689 216.611Z" fill="url(#paint7_linear)"/>
<path d="M241.375 174.358L232.544 195.034L219.143 198.518L217.579 206.865L239.677 202.517L250.101 189.993C250.101 189.993 251.59 175.326 249.17 169.637C248.053 166.972 242.507 171.692 241.375 174.358Z" fill="#A500FF"/>
<g opacity="0.24">
<path opacity="0.24" d="M368.379 27.3621H253.071C247.82 27.3621 243.563 31.6189 243.563 36.8699V79.793C243.563 85.0441 247.82 89.3009 253.071 89.3009H368.379C373.63 89.3009 377.887 85.0441 377.887 79.793V36.8699C377.887 31.6189 373.63 27.3621 368.379 27.3621Z" fill="#A500FF"/>
<path opacity="0.24" d="M243.563 102.062V79.5623H262.587L243.563 102.062Z" fill="#A500FF"/>
</g>
<path d="M368.379 21.6812H253.071C247.82 21.6812 243.563 25.938 243.563 31.189V74.1121C243.563 79.3631 247.82 83.62 253.071 83.62H368.379C373.63 83.62 377.887 79.3631 377.887 74.1121V31.189C377.887 25.938 373.63 21.6812 368.379 21.6812Z" fill="white"/>
<path d="M243.563 96.3815V73.8813H262.587L243.563 96.3815Z" fill="white"/>
<path d="M48.053 135.135H124.347C130.21 135.135 134.964 130.382 134.964 124.518V109.977C134.964 104.113 130.21 99.3597 124.347 99.3597H48.053C42.1892 99.3597 37.4357 104.113 37.4357 109.977V124.518C37.4357 130.382 42.1892 135.135 48.053 135.135Z" fill="white"/>
<g opacity="0.52">
<path opacity="0.52" d="M75.184 107.244H52.4902V108.912H75.184V107.244Z" fill="#A500FF"/>
<path opacity="0.52" d="M66.3462 110.461H52.4902V112.024H66.3462V110.461Z" fill="#A500FF"/>
<path opacity="0.52" d="M115.531 110.461H71.9375V112.032H115.531V110.461Z" fill="#A500FF"/>
<path opacity="0.52" d="M78.7428 113.692H59.6973V115.338H78.7428V113.692Z" fill="#A500FF"/>
<path opacity="0.52" d="M88.5043 116.916H65.8105V118.584H88.5043V116.916Z" fill="#A500FF"/>
<path opacity="0.52" d="M109.009 116.916H89.9854V118.762H109.009V116.916Z" fill="#A500FF"/>
<path opacity="0.52" d="M83.3069 120.132H65.7803V121.696H83.3069V120.132Z" fill="#A500FF"/>
<path opacity="0.52" d="M121.145 120.132H84.9824V121.867H121.145V120.132Z" fill="#A500FF"/>
<path opacity="0.52" d="M75.184 124.488H52.4902V126.156H75.184V124.488Z" fill="#A500FF"/>
<path opacity="0.52" d="M66.3462 127.712H52.4902V129.275H66.3462V127.712Z" fill="#A500FF"/>
<path opacity="0.52" d="M115.531 127.712H71.9375V129.283H115.531V127.712Z" fill="#A500FF"/>
</g>
<path opacity="0.24" d="M184.648 84.6251L185.05 82.5478C185.124 82.1606 185.191 81.766 185.266 81.3342C185.921 81.4459 186.546 81.5427 187.172 81.6692C187.214 81.6856 187.258 81.6931 187.303 81.6913C187.348 81.6895 187.392 81.6785 187.433 81.659C187.474 81.6394 187.51 81.6117 187.539 81.5776C187.568 81.5435 187.59 81.5037 187.604 81.4608C187.886 80.9098 188.199 80.3737 188.534 79.8525C188.565 79.8233 188.59 79.7881 188.606 79.7491C188.623 79.71 188.632 79.668 188.632 79.6254C188.632 79.5829 188.623 79.5409 188.606 79.5018C188.59 79.4628 188.565 79.4276 188.534 79.3984C188.117 78.9144 187.708 78.4156 187.276 77.9093L189.986 75.631C190.41 76.1298 190.827 76.6138 191.222 77.12C191.246 77.1614 191.279 77.1972 191.318 77.2255C191.356 77.2537 191.4 77.2737 191.447 77.2841C191.494 77.2946 191.542 77.2954 191.589 77.2863C191.637 77.2773 191.681 77.2587 191.721 77.2317C192.265 76.9896 192.825 76.7831 193.396 76.6138C193.664 76.5393 193.724 76.4351 193.716 76.1894C193.716 75.5639 193.716 74.946 193.716 74.3057H197.26C197.26 74.9385 197.26 75.5639 197.26 76.1968C197.26 76.45 197.327 76.5393 197.58 76.6138C198.151 76.7852 198.71 76.9916 199.256 77.2317C199.296 77.2584 199.341 77.2766 199.388 77.285C199.436 77.2935 199.484 77.2921 199.531 77.2809C199.578 77.2698 199.622 77.249 199.66 77.2201C199.699 77.1911 199.731 77.1545 199.755 77.1126C200.149 76.6212 200.559 76.1447 200.983 75.6235L203.701 77.9018L202.308 79.5622C202.681 80.262 203.053 80.9247 203.41 81.5724C203.454 81.6121 203.506 81.6414 203.563 81.6581C203.62 81.6749 203.679 81.6787 203.738 81.6692L205.674 81.3342L206.292 84.8187C205.629 84.9378 204.989 85.042 204.356 85.1686C204.252 85.1686 204.095 85.2877 204.08 85.3696C203.954 86.1142 203.85 86.8587 203.738 87.6033L205.607 88.6903L203.835 91.7578L201.951 90.6782C201.34 91.1622 200.752 91.6238 200.179 92.1078C200.146 92.1489 200.123 92.1975 200.113 92.2494C200.102 92.3012 200.105 92.3548 200.119 92.4056C200.335 93.031 200.566 93.6564 200.797 94.3042L197.469 95.5178C197.268 94.9519 197.044 94.401 196.866 93.8351C196.761 93.5075 196.62 93.4107 196.263 93.4405C195.688 93.4815 195.11 93.4815 194.535 93.4405C194.327 93.4405 194.245 93.4852 194.185 93.6788C193.977 94.2818 193.746 94.8849 193.508 95.5252L190.142 94.3489L190.887 92.2939L188.996 90.6931L187.097 91.7876L185.325 88.7201C185.906 88.385 186.457 88.0574 187.015 87.7447C187.055 87.73 187.092 87.7073 187.122 87.6781C187.153 87.6488 187.178 87.6136 187.194 87.5746C187.211 87.5356 187.22 87.4936 187.22 87.4512C187.219 87.4087 187.211 87.3668 187.194 87.3278C187.06 86.7552 186.956 86.1762 186.881 85.593C186.881 85.3101 186.785 85.176 186.464 85.1388C185.854 85.0644 185.243 84.9378 184.633 84.8261L184.648 84.6251ZM195.496 80.3961C194.601 80.3844 193.724 80.638 192.974 81.1246C192.223 81.6113 191.634 82.3093 191.28 83.1306C190.926 83.9519 190.823 84.8596 190.984 85.7392C191.146 86.6189 191.564 87.431 192.186 88.0732C192.809 88.7154 193.608 89.1588 194.482 89.3475C195.356 89.5361 196.267 89.4617 197.098 89.1334C197.93 88.8052 198.646 88.2379 199.156 87.5031C199.666 86.7683 199.947 85.899 199.963 85.0048C199.979 83.8021 199.518 82.642 198.681 81.7783C197.844 80.9146 196.698 80.4176 195.496 80.3961V80.3961Z" fill="#A500FF"/>
<path d="M270.277 52.6544L284.029 45.5663V47.6138L272.437 53.3989V53.451L284.029 59.2659V61.3134L270.277 54.2254V52.6544Z" fill="#A500FF"/>
<path d="M288.162 40.265H290.768V49.1996H290.828C291.271 48.4275 291.917 47.7915 292.696 47.3605C293.508 46.8853 294.429 46.6287 295.369 46.616C297.29 46.616 300.373 47.7998 300.373 52.7511V61.3133H297.767V53.0712C297.767 50.7557 296.911 48.7975 294.446 48.7975C293.662 48.809 292.901 49.0678 292.273 49.5371C291.644 50.0064 291.18 50.6622 290.947 51.4109C290.803 51.8089 290.742 52.232 290.768 52.6543V61.3133H288.162V40.265Z" fill="#A500FF"/>
<path d="M307.647 42.8412V46.966H311.369V48.9316H307.647V56.6823C307.647 58.4618 308.153 59.4743 309.605 59.4743C310.107 59.4794 310.607 59.4193 311.094 59.2957L311.213 61.2538C310.468 61.5076 309.684 61.6261 308.898 61.6037C308.377 61.6358 307.856 61.5545 307.37 61.3655C306.884 61.1766 306.445 60.8844 306.083 60.5093C305.339 59.7647 305.071 58.4618 305.071 56.7865V48.9316H302.837V46.966H305.071V43.5262L307.647 42.8412Z" fill="#A500FF"/>
<path d="M314.325 50.8451C314.325 49.356 314.288 48.1498 314.198 46.966H316.484L316.603 49.2741H316.692C317.123 48.4583 317.773 47.7792 318.569 47.3134C319.365 46.8476 320.275 46.6138 321.197 46.6384C322.088 46.6313 322.959 46.9052 323.686 47.421C324.413 47.9369 324.96 48.6686 325.247 49.5123H325.307C325.701 48.7821 326.247 48.1448 326.908 47.6435C327.814 46.9459 328.937 46.59 330.079 46.6384C331.971 46.6384 334.792 47.8818 334.792 52.8628V61.3134H332.239V53.1904C332.239 50.4281 331.233 48.7678 329.126 48.7678C328.431 48.8035 327.763 49.0528 327.214 49.4818C326.665 49.9109 326.262 50.4987 326.059 51.1652C325.922 51.5861 325.852 52.0257 325.85 52.4682V61.3134H323.304V52.7139C323.304 50.4281 322.291 48.7678 320.326 48.7678C319.373 48.8776 318.494 49.3347 317.857 50.0516C317.219 50.7685 316.869 51.6951 316.871 52.6543V61.3134H314.325V50.8451Z" fill="#A500FF"/>
<path d="M339.059 40.265H341.665V61.3133H339.059V40.265Z" fill="#A500FF"/>
<path d="M359.608 54.255L345.856 61.3133V59.2658L357.531 53.4509V53.3988L345.856 47.5839V45.5364L359.608 52.5947V54.255Z" fill="#A500FF"/>
<path d="M224.875 199.702C222.567 200.134 220.326 202.226 220.356 204.862C220.356 206.976 221.778 208.711 223.118 210.193C231.397 219.321 241.732 227.414 253.347 227.407C257.144 227.407 260.896 226.521 264.693 226.275C267.21 226.111 269.816 226.215 272.139 225.091C275.594 223.416 277.619 219.425 279.398 215.688L285.042 203.916C286.367 201.139 287.685 197.692 286.218 194.982C284.878 192.532 281.863 192.093 279.331 192.502C274.253 193.321 269.734 196.419 265.103 198.913C259.31 202.04 251.552 206.016 244.948 205.309C238.344 204.601 231.658 198.429 224.875 199.702Z" fill="#606161"/>
<path d="M242.603 200.283C243.541 204.475 244.971 208.823 248.239 211.608C251.329 214.251 255.588 215.07 259.653 215.219C263.182 215.345 266.846 215.003 269.928 213.283C274.507 210.714 272.832 198.012 273.271 192.778C273.71 187.544 279.049 188.035 277.448 183.032C275.713 177.626 271.097 173.844 267.143 169.772C266.074 168.624 264.814 167.67 263.421 166.95C260.316 165.461 256.675 165.58 253.213 165.781C251.851 165.855 247.167 168.305 246.378 169.399C239.186 179.279 239.968 188.594 242.603 200.283Z" fill="#A500FF"/>
<path d="M245.618 151.91C245.192 152.271 244.829 152.701 244.546 153.183C244.399 153.599 244.345 154.043 244.391 154.482C244.436 154.921 244.578 155.344 244.807 155.722C245.271 156.471 245.682 157.252 246.035 158.06C246.541 159.586 246.258 161.581 247.584 162.482C248.522 163.115 249.929 162.884 250.696 163.711C251.597 164.694 251.031 166.57 252.118 167.337C252.501 167.558 252.934 167.678 253.376 167.687C254.624 167.891 255.896 167.891 257.144 167.687C257.768 167.58 258.359 167.328 258.867 166.95C259.376 166.572 259.788 166.08 260.07 165.513C260.317 164.815 260.428 164.077 260.397 163.338L260.658 152.773C260.763 151.101 260.673 149.422 260.39 147.77C260.106 146.103 259.247 144.589 257.963 143.489C256.772 142.621 255.354 142.119 253.883 142.044C252.529 141.837 251.146 142.125 249.989 142.856C247.174 144.933 248.09 149.401 245.618 151.91Z" fill="url(#paint8_linear)"/>
<path d="M249.952 146.668C250.83 147.256 251.858 147.591 252.751 148.157C253.513 148.656 254.159 149.313 254.645 150.084C255.131 150.855 255.445 151.722 255.565 152.625C256.018 151.989 256.516 151.387 257.055 150.823C257.646 151.332 258.13 151.955 258.477 152.654C258.64 153.009 258.695 153.405 258.632 153.791C258.57 154.177 258.394 154.536 258.127 154.821C257.784 155.126 257.285 155.283 257.084 155.7C256.727 156.444 257.613 157.144 258.037 157.851C258.529 158.685 258.395 159.72 258.41 160.688C258.425 161.656 258.73 162.788 259.638 163.123C260.844 163.562 261.954 162.289 262.616 161.179C263.816 159.338 264.741 157.331 265.364 155.223C265.982 153.081 265.736 150.782 264.679 148.82C264.068 147.8 263.19 146.959 262.646 145.894C261.805 144.211 261.969 142.171 261.075 140.488C259.668 137.845 253.399 135.701 250.488 136.587C246.08 137.935 246.69 144.516 249.952 146.668Z" fill="#606161"/>
<path d="M212.152 200.305C210.49 200.711 208.916 201.415 207.506 202.383C206.324 203.318 205.252 204.384 204.311 205.562C204.156 205.696 204.035 205.865 203.958 206.055C203.882 206.246 203.852 206.452 203.872 206.656C203.919 206.779 203.99 206.89 204.081 206.985C204.172 207.08 204.28 207.155 204.401 207.207C205.488 207.773 206.806 207.371 207.982 207.021C209.206 206.647 210.448 206.339 211.705 206.098C212.375 205.964 213.231 205.934 213.559 206.53C213.693 206.775 213.7 207.073 213.842 207.319C213.984 207.512 214.184 207.654 214.413 207.725C214.643 207.796 214.888 207.792 215.115 207.713C215.561 207.535 215.965 207.263 216.299 206.917L219.202 204.251C219.572 203.942 219.898 203.584 220.17 203.187C220.628 202.355 220.75 201.38 220.513 200.462C220.059 199.069 220.215 199.397 218.733 199.315C216.502 199.31 214.283 199.644 212.152 200.305V200.305Z" fill="url(#paint9_linear)"/>
<path d="M242.283 199.129L248.634 187.961L248.225 211.578C248.225 211.578 244.025 209.828 242.283 199.129Z" fill="url(#paint10_linear)"/>
</g>
<defs>
<linearGradient id="paint0_linear" x1="335.678" y1="181.014" x2="287.655" y2="218.249" gradientUnits="userSpaceOnUse">
<stop stop-color="#010101" stop-opacity="0"/>
<stop offset="0.95" stop-color="#010101"/>
</linearGradient>
<linearGradient id="paint1_linear" x1="19205.3" y1="21220.1" x2="12692.8" y2="22990.3" gradientUnits="userSpaceOnUse">
<stop stop-color="#010101" stop-opacity="0"/>
<stop offset="0.95" stop-color="#010101"/>
</linearGradient>
<linearGradient id="paint2_linear" x1="3962.59" y1="17388.7" x2="7383.4" y2="18125" gradientUnits="userSpaceOnUse">
<stop stop-color="#010101" stop-opacity="0"/>
<stop offset="0.95" stop-color="#010101"/>
</linearGradient>
<linearGradient id="paint3_linear" x1="4694.23" y1="20205.6" x2="12259.3" y2="21605.4" gradientUnits="userSpaceOnUse">
<stop stop-color="#010101" stop-opacity="0"/>
<stop offset="0.95" stop-color="#010101"/>
</linearGradient>
<linearGradient id="paint4_linear" x1="198.361" y1="188.452" x2="198.831" y2="239.491" gradientUnits="userSpaceOnUse">
<stop stop-color="white" stop-opacity="0"/>
<stop offset="0.95" stop-color="white"/>
</linearGradient>
<linearGradient id="paint5_linear" x1="26072.8" y1="6272.66" x2="26095.1" y2="4220.64" gradientUnits="userSpaceOnUse">
<stop stop-color="#010101" stop-opacity="0"/>
<stop offset="0.95" stop-color="#010101"/>
</linearGradient>
<linearGradient id="paint6_linear" x1="76538.1" y1="4390.39" x2="76544.1" y2="3070.31" gradientUnits="userSpaceOnUse">
<stop stop-color="#010101" stop-opacity="0"/>
<stop offset="0.95" stop-color="#010101"/>
</linearGradient>
<linearGradient id="paint7_linear" x1="3747.12" y1="3138.87" x2="3905.46" y2="3138.87" gradientUnits="userSpaceOnUse">
<stop stop-color="#010101" stop-opacity="0"/>
<stop offset="0.95" stop-color="#010101"/>
</linearGradient>
<linearGradient id="paint8_linear" x1="244.36" y1="154.925" x2="260.68" y2="154.925" gradientUnits="userSpaceOnUse">
<stop stop-color="#E5C6D6"/>
<stop offset="0.42" stop-color="#EAD4D0"/>
<stop offset="1" stop-color="#F0E9CB"/>
</linearGradient>
<linearGradient id="paint9_linear" x1="5198.8" y1="2539.87" x2="5577.18" y2="2539.87" gradientUnits="userSpaceOnUse">
<stop stop-color="#E5C6D6"/>
<stop offset="0.42" stop-color="#EAD4D0"/>
<stop offset="1" stop-color="#F0E9CB"/>
</linearGradient>
<linearGradient id="paint10_linear" x1="2452.43" y1="6770.5" x2="2710.14" y2="6720.49" gradientUnits="userSpaceOnUse">
<stop stop-color="#010101" stop-opacity="0"/>
<stop offset="0.95" stop-color="#010101"/>
</linearGradient>
<clipPath id="clip0">
<rect width="396.851" height="300" fill="white"/>
</clipPath>
</defs>
</svg>
