<svg width="480" height="326" viewBox="0 0 480 326" fill="none" xmlns="http://www.w3.org/2000/svg">
<rect x="317" y="2" width="160.273" height="322" rx="13" fill="white" stroke="black" stroke-width="4"/>
<path d="M358.327 153.592H354.214V165H352.535V153.592H348.431V152.203H358.327V153.592ZM364.998 164.06C364.365 164.804 363.437 165.176 362.212 165.176C361.198 165.176 360.425 164.883 359.892 164.297C359.364 163.705 359.098 162.832 359.092 161.678V155.49H360.718V161.634C360.718 163.075 361.304 163.796 362.476 163.796C363.718 163.796 364.544 163.333 364.954 162.407V155.49H366.58V165H365.033L364.998 164.06ZM379.061 162.478C379.061 162.038 378.894 161.698 378.56 161.458C378.231 161.212 377.654 161.001 376.828 160.825C376.008 160.649 375.354 160.438 374.868 160.192C374.388 159.946 374.03 159.653 373.796 159.313C373.567 158.974 373.453 158.569 373.453 158.101C373.453 157.321 373.781 156.662 374.438 156.123C375.1 155.584 375.943 155.314 376.969 155.314C378.047 155.314 378.92 155.593 379.588 156.149C380.262 156.706 380.599 157.418 380.599 158.285H378.964C378.964 157.84 378.773 157.456 378.393 157.134C378.018 156.812 377.543 156.65 376.969 156.65C376.377 156.65 375.914 156.779 375.58 157.037C375.246 157.295 375.079 157.632 375.079 158.048C375.079 158.44 375.234 158.736 375.545 158.936C375.855 159.135 376.415 159.325 377.224 159.507C378.038 159.688 378.697 159.905 379.201 160.157C379.705 160.409 380.077 160.714 380.317 161.071C380.563 161.423 380.687 161.854 380.687 162.363C380.687 163.213 380.347 163.896 379.667 164.411C378.987 164.921 378.105 165.176 377.021 165.176C376.26 165.176 375.586 165.041 375 164.771C374.414 164.502 373.954 164.127 373.62 163.646C373.292 163.16 373.128 162.636 373.128 162.073H374.754C374.783 162.618 375 163.052 375.404 163.374C375.814 163.69 376.354 163.849 377.021 163.849C377.637 163.849 378.129 163.726 378.498 163.479C378.873 163.228 379.061 162.894 379.061 162.478ZM384.571 165H382.945V155.49H384.571V165ZM382.813 152.968C382.813 152.704 382.893 152.481 383.051 152.3C383.215 152.118 383.455 152.027 383.771 152.027C384.088 152.027 384.328 152.118 384.492 152.3C384.656 152.481 384.738 152.704 384.738 152.968C384.738 153.231 384.656 153.451 384.492 153.627C384.328 153.803 384.088 153.891 383.771 153.891C383.455 153.891 383.215 153.803 383.051 153.627C382.893 153.451 382.813 153.231 382.813 152.968ZM389.388 153.188V155.49H391.163V156.747H389.388V162.645C389.388 163.025 389.467 163.312 389.625 163.506C389.783 163.693 390.053 163.787 390.434 163.787C390.621 163.787 390.879 163.752 391.207 163.682V165C390.779 165.117 390.363 165.176 389.959 165.176C389.232 165.176 388.685 164.956 388.315 164.517C387.946 164.077 387.762 163.453 387.762 162.645V156.747H386.03V155.49H387.762V153.188H389.388ZM394.837 165H393.211V155.49H394.837V165ZM393.079 152.968C393.079 152.704 393.158 152.481 393.316 152.3C393.48 152.118 393.721 152.027 394.037 152.027C394.354 152.027 394.594 152.118 394.758 152.3C394.922 152.481 395.004 152.704 395.004 152.968C395.004 153.231 394.922 153.451 394.758 153.627C394.594 153.803 394.354 153.891 394.037 153.891C393.721 153.891 393.48 153.803 393.316 153.627C393.158 153.451 393.079 153.231 393.079 152.968ZM397.017 160.157C397.017 159.226 397.198 158.388 397.562 157.644C397.931 156.899 398.44 156.325 399.091 155.921C399.747 155.517 400.494 155.314 401.332 155.314C402.627 155.314 403.673 155.763 404.47 156.659C405.272 157.556 405.674 158.748 405.674 160.236V160.351C405.674 161.276 405.495 162.108 405.138 162.847C404.786 163.579 404.279 164.15 403.617 164.561C402.961 164.971 402.205 165.176 401.35 165.176C400.061 165.176 399.015 164.728 398.212 163.831C397.415 162.935 397.017 161.748 397.017 160.271V160.157ZM398.651 160.351C398.651 161.405 398.895 162.252 399.381 162.891C399.873 163.529 400.529 163.849 401.35 163.849C402.176 163.849 402.832 163.526 403.318 162.882C403.805 162.231 404.048 161.323 404.048 160.157C404.048 159.114 403.799 158.271 403.301 157.626C402.809 156.976 402.152 156.65 401.332 156.65C400.529 156.65 399.882 156.97 399.39 157.608C398.897 158.247 398.651 159.161 398.651 160.351ZM420.598 162.759L422.426 155.49H424.052L421.283 165H419.965L417.653 157.793L415.403 165H414.085L411.325 155.49H412.942L414.814 162.609L417.029 155.49H418.339L420.598 162.759ZM429.659 165.176C428.37 165.176 427.321 164.754 426.513 163.91C425.704 163.061 425.3 161.927 425.3 160.509V160.21C425.3 159.267 425.479 158.426 425.836 157.688C426.199 156.943 426.703 156.363 427.348 155.947C427.998 155.525 428.701 155.314 429.457 155.314C430.693 155.314 431.654 155.722 432.34 156.536C433.025 157.351 433.368 158.517 433.368 160.034V160.711H426.926C426.949 161.648 427.222 162.407 427.743 162.987C428.271 163.562 428.938 163.849 429.747 163.849C430.321 163.849 430.808 163.731 431.206 163.497C431.604 163.263 431.953 162.952 432.252 162.565L433.245 163.339C432.448 164.563 431.253 165.176 429.659 165.176ZM429.457 156.65C428.801 156.65 428.25 156.891 427.805 157.371C427.359 157.846 427.084 158.514 426.979 159.375H431.742V159.252C431.695 158.426 431.473 157.787 431.074 157.336C430.676 156.879 430.137 156.65 429.457 156.65ZM443.309 160.351C443.309 161.804 442.975 162.973 442.307 163.857C441.639 164.736 440.742 165.176 439.617 165.176C438.416 165.176 437.487 164.751 436.831 163.901L436.752 165H435.258V151.5H436.884V156.536C437.54 155.722 438.445 155.314 439.6 155.314C440.754 155.314 441.659 155.751 442.315 156.624C442.978 157.497 443.309 158.692 443.309 160.21V160.351ZM441.683 160.166C441.683 159.059 441.469 158.203 441.041 157.6C440.613 156.996 439.998 156.694 439.195 156.694C438.123 156.694 437.353 157.192 436.884 158.188V162.302C437.382 163.298 438.158 163.796 439.213 163.796C439.992 163.796 440.599 163.494 441.032 162.891C441.466 162.287 441.683 161.379 441.683 160.166Z" fill="#C4C4C4"/>
<rect x="362.117" y="311.992" width="70.0391" height="3.82031" rx="1.91016" fill="#C4C4C4"/>
<path d="M358.297 0H437.25V2.73438C437.25 8.25722 432.773 12.7344 427.25 12.7344H368.297C362.774 12.7344 358.297 8.25722 358.297 2.73438V0Z" fill="black"/>
<g clip-path="url(#clip0)">
<path d="M467.665 20.8412C468.286 21.4629 468.286 22.4707 467.665 23.0924C467.043 23.714 466.035 23.714 465.413 23.0924C464.792 22.4707 464.792 21.4629 465.413 20.8412C466.035 20.2196 467.043 20.2196 467.665 20.8412Z" fill="#97A3AF"/>
<path d="M467.665 25.6166C468.286 26.2382 468.286 27.2461 467.665 27.8677C467.043 28.4894 466.035 28.4894 465.413 27.8677C464.792 27.2461 464.792 26.2382 465.413 25.6166C466.035 24.995 467.043 24.995 467.665 25.6166Z" fill="#97A3AF"/>
<path d="M467.665 30.392C468.286 31.0136 468.286 32.0215 467.665 32.6431C467.043 33.2648 466.035 33.2648 465.413 32.6431C464.792 32.0215 464.792 31.0136 465.413 30.392C466.035 29.7704 467.043 29.7704 467.665 30.392Z" fill="#97A3AF"/>
</g>
<rect x="346.836" y="20.375" width="109.516" height="12.7344" fill="#F5F5F5"/>
<g clip-path="url(#clip1)">
<path d="M339.195 25.8326H330.099L333.283 22.6491L331.919 21.2847L326.461 26.7422L331.919 32.1998L333.283 30.8354L330.099 27.6518H339.195V25.8326Z" fill="#97A3AF"/>
</g>
<g filter="url(#filter0_d)">
<circle cx="439.848" cy="280.848" r="23.8477" fill="#0F8DFF"/>
<path d="M455.592 291.095L462.288 302.274H448.896L455.592 291.095Z" fill="#0F8DFF"/>
<g clip-path="url(#clip2)">
<path d="M439.251 268.138L436.038 268.704C435.595 268.782 435.294 269.18 435.367 269.593C435.44 270.007 435.858 270.278 436.302 270.199L439.514 269.633C439.958 269.555 440.258 269.157 440.186 268.744C440.113 268.331 439.695 268.059 439.251 268.138Z" fill="white"/>
<path d="M443.27 264.859L431.307 266.969C429.658 267.259 428.553 268.838 428.843 270.487L433.062 294.413C433.353 296.061 434.931 297.167 436.58 296.876L448.543 294.767C450.192 294.476 451.297 292.897 451.006 291.249L446.788 267.323C446.497 265.674 444.918 264.569 443.27 264.859ZM449.511 291.512C449.657 292.338 449.105 293.126 448.279 293.271L436.316 295.381C435.49 295.526 434.703 294.975 434.557 294.149L430.339 270.223C430.193 269.397 430.744 268.61 431.57 268.464L443.533 266.355C444.359 266.209 445.147 266.76 445.292 267.586L449.511 291.512Z" fill="white"/>
<rect x="429.916" y="275.924" width="13.9733" height="8.75659" transform="rotate(43 429.916 275.924)" fill="#0F8DFF"/>
<rect x="440.712" y="277.256" width="13.9733" height="8.75659" transform="rotate(-43 440.712 277.256)" fill="#0F8DFF"/>
</g>
<path d="M452.39 275.728L438.284 289.832C437.239 290.877 435.545 290.877 434.499 289.832L427.218 282.55C426.173 281.506 426.173 279.811 427.218 278.766C428.263 277.721 429.957 277.721 431.002 278.766L436.392 284.156L448.605 271.943C449.65 270.898 451.344 270.899 452.389 271.943C453.434 272.988 453.434 274.682 452.39 275.728Z" fill="white"/>
<path d="M452.39 275.728L438.284 289.832C437.239 290.877 435.545 290.877 434.499 289.832L427.218 282.55C426.173 281.506 426.173 279.811 427.218 278.766C428.263 277.721 429.957 277.721 431.002 278.766L436.392 284.156L448.605 271.943C449.65 270.898 451.344 270.899 452.389 271.943C453.434 272.988 453.434 274.682 452.39 275.728Z" stroke="#0F8DFF"/>
<path d="M279.407 157.711L428.553 270.001L113.229 242.788L279.407 157.711Z" fill="#F5F5F5"/>
<circle cx="150" cy="152" r="150" fill="white"/>
<circle cx="150" cy="152" r="145" stroke="#2A94F4" stroke-opacity="0.3" stroke-width="10"/>
<circle cx="201.848" cy="228.848" r="23.8477" fill="#0F8DFF"/>
<path d="M217.592 239.095L224.288 250.274H210.896L217.592 239.095Z" fill="#0F8DFF"/>
<g clip-path="url(#clip3)">
<path d="M201.251 216.138L198.038 216.704C197.595 216.782 197.294 217.18 197.367 217.593C197.44 218.007 197.858 218.278 198.302 218.199L201.514 217.633C201.958 217.555 202.258 217.157 202.186 216.744C202.113 216.331 201.695 216.059 201.251 216.138Z" fill="white"/>
<path d="M205.27 212.859L193.307 214.969C191.658 215.259 190.553 216.838 190.843 218.487L195.062 242.413C195.353 244.061 196.931 245.167 198.58 244.876L210.543 242.767C212.192 242.476 213.297 240.897 213.006 239.249L208.788 215.323C208.497 213.674 206.918 212.569 205.27 212.859ZM211.511 239.512C211.657 240.338 211.105 241.126 210.279 241.271L198.316 243.381C197.49 243.526 196.703 242.975 196.557 242.149L192.339 218.223C192.193 217.397 192.744 216.61 193.57 216.464L205.533 214.355C206.359 214.209 207.147 214.76 207.292 215.586L211.511 239.512Z" fill="white"/>
<rect x="191.916" y="223.924" width="13.9733" height="8.75659" transform="rotate(43 191.916 223.924)" fill="#0F8DFF"/>
<rect x="202.712" y="225.256" width="13.9733" height="8.75659" transform="rotate(-43 202.712 225.256)" fill="#0F8DFF"/>
</g>
<path d="M214.39 223.728L200.284 237.832C199.239 238.877 197.545 238.877 196.499 237.832L189.218 230.55C188.173 229.506 188.173 227.811 189.218 226.766C190.263 225.721 191.957 225.721 193.002 226.766L198.392 232.156L210.605 219.943C211.65 218.898 213.344 218.899 214.389 219.943C215.434 220.988 215.434 222.682 214.39 223.728Z" fill="white"/>
<path d="M214.39 223.728L200.284 237.832C199.239 238.877 197.545 238.877 196.499 237.832L189.218 230.55C188.173 229.506 188.173 227.811 189.218 226.766C190.263 225.721 191.957 225.721 193.002 226.766L198.392 232.156L210.605 219.943C211.65 218.898 213.344 218.899 214.389 219.943C215.434 220.988 215.434 222.682 214.39 223.728Z" stroke="#0F8DFF"/>
<g filter="url(#filter1_d)">
<path d="M192.432 212.695L200.735 190.785L175.412 196.592L192.432 212.695Z" fill="white"/>
<rect x="64" y="58" width="168" height="139" rx="15" fill="white"/>
<path d="M92.2656 86.293C92.1602 87.1953 91.8262 87.8926 91.2637 88.3848C90.7051 88.873 89.9609 89.1172 89.0312 89.1172C88.0234 89.1172 87.2148 88.7559 86.6055 88.0332C86 87.3105 85.6973 86.3438 85.6973 85.1328V84.3125C85.6973 83.5195 85.8379 82.8223 86.1191 82.2207C86.4043 81.6191 86.8066 81.1582 87.3262 80.8379C87.8457 80.5137 88.4473 80.3516 89.1309 80.3516C90.0371 80.3516 90.7637 80.6055 91.3105 81.1133C91.8574 81.6172 92.1758 82.3164 92.2656 83.2109H91.1348C91.0371 82.5312 90.8242 82.0391 90.4961 81.7344C90.1719 81.4297 89.7168 81.2773 89.1309 81.2773C88.4121 81.2773 87.8477 81.543 87.4375 82.0742C87.0312 82.6055 86.8281 83.3613 86.8281 84.3418V85.168C86.8281 86.0938 87.0215 86.8301 87.4082 87.377C87.7949 87.9238 88.3359 88.1973 89.0312 88.1973C89.6562 88.1973 90.1348 88.0566 90.4668 87.7754C90.8027 87.4902 91.0254 86.9961 91.1348 86.293H92.2656ZM93.3496 85.7715C93.3496 85.1504 93.4707 84.5918 93.7129 84.0957C93.959 83.5996 94.2988 83.2168 94.7324 82.9473C95.1699 82.6777 95.668 82.543 96.2266 82.543C97.0898 82.543 97.7871 82.8418 98.3184 83.4395C98.8535 84.0371 99.1211 84.832 99.1211 85.8242V85.9004C99.1211 86.5176 99.002 87.0723 98.7637 87.5645C98.5293 88.0527 98.1914 88.4336 97.75 88.707C97.3125 88.9805 96.8086 89.1172 96.2383 89.1172C95.3789 89.1172 94.6816 88.8184 94.1465 88.2207C93.6152 87.623 93.3496 86.832 93.3496 85.8477V85.7715ZM94.4395 85.9004C94.4395 86.6035 94.6016 87.168 94.9258 87.5938C95.2539 88.0195 95.6914 88.2324 96.2383 88.2324C96.7891 88.2324 97.2266 88.0176 97.5508 87.5879C97.875 87.1543 98.0371 86.5488 98.0371 85.7715C98.0371 85.0762 97.8711 84.5137 97.5391 84.084C97.2109 83.6504 96.7734 83.4336 96.2266 83.4336C95.6914 83.4336 95.2598 83.6465 94.9316 84.0723C94.6035 84.498 94.4395 85.1074 94.4395 85.9004ZM101.506 82.6602L101.541 83.457C102.025 82.8477 102.658 82.543 103.439 82.543C104.779 82.543 105.455 83.2988 105.467 84.8105V89H104.383V84.8047C104.379 84.3477 104.273 84.0098 104.066 83.791C103.863 83.5723 103.545 83.4629 103.111 83.4629C102.76 83.4629 102.451 83.5566 102.186 83.7441C101.92 83.9316 101.713 84.1777 101.564 84.4824V89H100.48V82.6602H101.506ZM108.572 81.125V82.6602H109.756V83.498H108.572V87.4297C108.572 87.6836 108.625 87.875 108.73 88.0039C108.836 88.1289 109.016 88.1914 109.27 88.1914C109.395 88.1914 109.566 88.168 109.785 88.1211V89C109.5 89.0781 109.223 89.1172 108.953 89.1172C108.469 89.1172 108.104 88.9707 107.857 88.6777C107.611 88.3848 107.488 87.9688 107.488 87.4297V83.498H106.334V82.6602H107.488V81.125H108.572ZM114.941 89C114.879 88.875 114.828 88.6523 114.789 88.332C114.285 88.8555 113.684 89.1172 112.984 89.1172C112.359 89.1172 111.846 88.9414 111.443 88.5898C111.045 88.2344 110.846 87.7852 110.846 87.2422C110.846 86.582 111.096 86.0703 111.596 85.707C112.1 85.3398 112.807 85.1562 113.717 85.1562H114.771V84.6582C114.771 84.2793 114.658 83.9785 114.432 83.7559C114.205 83.5293 113.871 83.416 113.43 83.416C113.043 83.416 112.719 83.5137 112.457 83.709C112.195 83.9043 112.064 84.1406 112.064 84.418H110.975C110.975 84.1016 111.086 83.7969 111.309 83.5039C111.535 83.207 111.84 82.9727 112.223 82.8008C112.609 82.6289 113.033 82.543 113.494 82.543C114.225 82.543 114.797 82.7266 115.211 83.0938C115.625 83.457 115.84 83.959 115.855 84.5996V87.5176C115.855 88.0996 115.93 88.5625 116.078 88.9062V89H114.941ZM113.143 88.1738C113.482 88.1738 113.805 88.0859 114.109 87.9102C114.414 87.7344 114.635 87.5059 114.771 87.2246V85.9238H113.922C112.594 85.9238 111.93 86.3125 111.93 87.0898C111.93 87.4297 112.043 87.6953 112.27 87.8867C112.496 88.0781 112.787 88.1738 113.143 88.1738ZM114.145 80H115.457L113.887 81.7227H113.014L114.145 80ZM120.098 88.2324C120.484 88.2324 120.822 88.1152 121.111 87.8809C121.4 87.6465 121.561 87.3535 121.592 87.002H122.617C122.598 87.3652 122.473 87.7109 122.242 88.0391C122.012 88.3672 121.703 88.6289 121.316 88.8242C120.934 89.0195 120.527 89.1172 120.098 89.1172C119.234 89.1172 118.547 88.8301 118.035 88.2559C117.527 87.6777 117.273 86.8887 117.273 85.8887V85.707C117.273 85.0898 117.387 84.541 117.613 84.0605C117.84 83.5801 118.164 83.207 118.586 82.9414C119.012 82.6758 119.514 82.543 120.092 82.543C120.803 82.543 121.393 82.7559 121.861 83.1816C122.334 83.6074 122.586 84.1602 122.617 84.8398H121.592C121.561 84.4297 121.404 84.0938 121.123 83.832C120.846 83.5664 120.502 83.4336 120.092 83.4336C119.541 83.4336 119.113 83.6328 118.809 84.0312C118.508 84.4258 118.357 84.998 118.357 85.748V85.9531C118.357 86.6836 118.508 87.2461 118.809 87.6406C119.109 88.0352 119.539 88.2324 120.098 88.2324ZM125.307 81.125V82.6602H126.49V83.498H125.307V87.4297C125.307 87.6836 125.359 87.875 125.465 88.0039C125.57 88.1289 125.75 88.1914 126.004 88.1914C126.129 88.1914 126.301 88.168 126.52 88.1211V89C126.234 89.0781 125.957 89.1172 125.688 89.1172C125.203 89.1172 124.838 88.9707 124.592 88.6777C124.346 88.3848 124.223 87.9688 124.223 87.4297V83.498H123.068V82.6602H124.223V81.125H125.307ZM130.393 89.1172C129.533 89.1172 128.834 88.8359 128.295 88.2734C127.756 87.707 127.486 86.9512 127.486 86.0059V85.8066C127.486 85.1777 127.605 84.6172 127.844 84.125C128.086 83.6289 128.422 83.2422 128.852 82.9648C129.285 82.6836 129.754 82.543 130.258 82.543C131.082 82.543 131.723 82.8145 132.18 83.3574C132.637 83.9004 132.865 84.6777 132.865 85.6895V86.1406H128.57C128.586 86.7656 128.768 87.2715 129.115 87.6582C129.467 88.041 129.912 88.2324 130.451 88.2324C130.834 88.2324 131.158 88.1543 131.424 87.998C131.689 87.8418 131.922 87.6348 132.121 87.377L132.783 87.8926C132.252 88.709 131.455 89.1172 130.393 89.1172ZM130.258 83.4336C129.82 83.4336 129.453 83.5938 129.156 83.9141C128.859 84.2305 128.676 84.6758 128.605 85.25H131.781V85.168C131.75 84.6172 131.602 84.1914 131.336 83.8906C131.07 83.5859 130.711 83.4336 130.258 83.4336ZM135.15 82.6602L135.186 83.457C135.67 82.8477 136.303 82.543 137.084 82.543C138.424 82.543 139.1 83.2988 139.111 84.8105V89H138.027V84.8047C138.023 84.3477 137.918 84.0098 137.711 83.791C137.508 83.5723 137.189 83.4629 136.756 83.4629C136.404 83.4629 136.096 83.5566 135.83 83.7441C135.564 83.9316 135.357 84.1777 135.209 84.4824V89H134.125V82.6602H135.15ZM140.459 85.7715C140.459 85.1504 140.58 84.5918 140.822 84.0957C141.068 83.5996 141.408 83.2168 141.842 82.9473C142.279 82.6777 142.777 82.543 143.336 82.543C144.199 82.543 144.896 82.8418 145.428 83.4395C145.963 84.0371 146.23 84.832 146.23 85.8242V85.9004C146.23 86.5176 146.111 87.0723 145.873 87.5645C145.639 88.0527 145.301 88.4336 144.859 88.707C144.422 88.9805 143.918 89.1172 143.348 89.1172C142.488 89.1172 141.791 88.8184 141.256 88.2207C140.725 87.623 140.459 86.832 140.459 85.8477V85.7715ZM141.549 85.9004C141.549 86.6035 141.711 87.168 142.035 87.5938C142.363 88.0195 142.801 88.2324 143.348 88.2324C143.898 88.2324 144.336 88.0176 144.66 87.5879C144.984 87.1543 145.146 86.5488 145.146 85.7715C145.146 85.0762 144.98 84.5137 144.648 84.084C144.32 83.6504 143.883 83.4336 143.336 83.4336C142.801 83.4336 142.369 83.6465 142.041 84.0723C141.713 84.498 141.549 85.1074 141.549 85.9004ZM151.281 87.3184C151.281 87.0254 151.17 86.7988 150.947 86.6387C150.729 86.4746 150.344 86.334 149.793 86.2168C149.246 86.0996 148.811 85.959 148.486 85.7949C148.166 85.6309 147.928 85.4355 147.771 85.209C147.619 84.9824 147.543 84.7129 147.543 84.4004C147.543 83.8809 147.762 83.4414 148.199 83.082C148.641 82.7227 149.203 82.543 149.887 82.543C150.605 82.543 151.188 82.7285 151.633 83.0996C152.082 83.4707 152.307 83.9453 152.307 84.5234H151.217C151.217 84.2266 151.09 83.9707 150.836 83.7559C150.586 83.541 150.27 83.4336 149.887 83.4336C149.492 83.4336 149.184 83.5195 148.961 83.6914C148.738 83.8633 148.627 84.0879 148.627 84.3652C148.627 84.627 148.73 84.8242 148.938 84.957C149.145 85.0898 149.518 85.2168 150.057 85.3379C150.6 85.459 151.039 85.6035 151.375 85.7715C151.711 85.9395 151.959 86.1426 152.119 86.3809C152.283 86.6152 152.365 86.9023 152.365 87.2422C152.365 87.8086 152.139 88.2637 151.686 88.6074C151.232 88.9473 150.645 89.1172 149.922 89.1172C149.414 89.1172 148.965 89.0273 148.574 88.8477C148.184 88.668 147.877 88.418 147.654 88.0977C147.436 87.7734 147.326 87.4238 147.326 87.0488H148.41C148.43 87.4121 148.574 87.7012 148.844 87.916C149.117 88.127 149.477 88.2324 149.922 88.2324C150.332 88.2324 150.66 88.1504 150.906 87.9863C151.156 87.8184 151.281 87.5957 151.281 87.3184Z" fill="#97A3AF"/>
<rect x="85" y="144" width="124" height="30" rx="15" fill="#30485F"/>
<path d="M122.1 161.823H125.21V163H120.635V155.891H122.1V161.823ZM127.451 163H126.035V155.5H127.451V163ZM131.68 163C131.615 162.873 131.567 162.715 131.538 162.526C131.196 162.907 130.752 163.098 130.205 163.098C129.688 163.098 129.258 162.948 128.916 162.648C128.577 162.349 128.408 161.971 128.408 161.516C128.408 160.956 128.615 160.526 129.028 160.227C129.445 159.927 130.046 159.776 130.83 159.772H131.479V159.47C131.479 159.226 131.416 159.03 131.289 158.884C131.165 158.737 130.968 158.664 130.698 158.664C130.461 158.664 130.273 158.721 130.137 158.835C130.003 158.949 129.937 159.105 129.937 159.304H128.525C128.525 158.998 128.62 158.715 128.809 158.454C128.997 158.194 129.264 157.99 129.609 157.844C129.954 157.694 130.342 157.619 130.771 157.619C131.423 157.619 131.938 157.784 132.319 158.112C132.703 158.438 132.896 158.897 132.896 159.489V161.779C132.899 162.281 132.969 162.66 133.105 162.917V163H131.68ZM130.513 162.019C130.721 162.019 130.913 161.973 131.089 161.882C131.265 161.787 131.395 161.662 131.479 161.506V160.598H130.952C130.246 160.598 129.87 160.842 129.824 161.33L129.819 161.413C129.819 161.589 129.881 161.734 130.005 161.848C130.129 161.962 130.298 162.019 130.513 162.019ZM135.303 157.717L135.347 158.308C135.721 157.849 136.227 157.619 136.865 157.619C137.546 157.619 138.013 157.888 138.267 158.425C138.638 157.888 139.167 157.619 139.854 157.619C140.426 157.619 140.853 157.787 141.133 158.122C141.413 158.454 141.553 158.955 141.553 159.626V163H140.137V159.631C140.137 159.331 140.078 159.113 139.961 158.977C139.844 158.837 139.637 158.767 139.341 158.767C138.918 158.767 138.625 158.968 138.462 159.372L138.467 163H137.056V159.636C137.056 159.33 136.995 159.108 136.875 158.972C136.755 158.835 136.549 158.767 136.26 158.767C135.859 158.767 135.57 158.933 135.391 159.265V163H133.979V157.717H135.303ZM145.703 163C145.638 162.873 145.591 162.715 145.562 162.526C145.22 162.907 144.775 163.098 144.229 163.098C143.711 163.098 143.281 162.948 142.939 162.648C142.601 162.349 142.432 161.971 142.432 161.516C142.432 160.956 142.638 160.526 143.052 160.227C143.468 159.927 144.069 159.776 144.854 159.772H145.503V159.47C145.503 159.226 145.439 159.03 145.312 158.884C145.189 158.737 144.992 158.664 144.722 158.664C144.484 158.664 144.297 158.721 144.16 158.835C144.027 158.949 143.96 159.105 143.96 159.304H142.549C142.549 158.998 142.643 158.715 142.832 158.454C143.021 158.194 143.288 157.99 143.633 157.844C143.978 157.694 144.365 157.619 144.795 157.619C145.446 157.619 145.962 157.784 146.343 158.112C146.727 158.438 146.919 158.897 146.919 159.489V161.779C146.922 162.281 146.992 162.66 147.129 162.917V163H145.703ZM144.536 162.019C144.744 162.019 144.937 161.973 145.112 161.882C145.288 161.787 145.418 161.662 145.503 161.506V160.598H144.976C144.269 160.598 143.893 160.842 143.848 161.33L143.843 161.413C143.843 161.589 143.905 161.734 144.028 161.848C144.152 161.962 144.321 162.019 144.536 162.019ZM150.972 159.04C150.78 159.014 150.61 159.001 150.464 159.001C149.93 159.001 149.58 159.182 149.414 159.543V163H148.003V157.717H149.336L149.375 158.347C149.658 157.862 150.05 157.619 150.552 157.619C150.708 157.619 150.854 157.64 150.991 157.683L150.972 159.04ZM158.252 161.535H155.684L155.195 163H153.638L156.284 155.891H157.642L160.303 163H158.745L158.252 161.535ZM156.079 160.349H157.856L156.963 157.688L156.079 160.349ZM162.251 158.293C162.625 157.844 163.096 157.619 163.662 157.619C164.808 157.619 165.389 158.285 165.405 159.616V163H163.994V159.655C163.994 159.353 163.929 159.13 163.799 158.986C163.669 158.84 163.452 158.767 163.149 158.767C162.736 158.767 162.437 158.926 162.251 159.245V163H160.84V155.5H162.251V158.293ZM166.25 160.31C166.25 159.785 166.351 159.318 166.553 158.908C166.755 158.498 167.044 158.181 167.422 157.956C167.803 157.731 168.244 157.619 168.745 157.619C169.458 157.619 170.039 157.837 170.488 158.273C170.941 158.71 171.193 159.302 171.245 160.051L171.255 160.412C171.255 161.223 171.029 161.874 170.576 162.365C170.124 162.854 169.517 163.098 168.755 163.098C167.993 163.098 167.384 162.854 166.929 162.365C166.476 161.877 166.25 161.213 166.25 160.373V160.31ZM167.661 160.412C167.661 160.913 167.756 161.298 167.944 161.564C168.133 161.828 168.403 161.96 168.755 161.96C169.097 161.96 169.364 161.83 169.556 161.569C169.748 161.306 169.844 160.886 169.844 160.31C169.844 159.818 169.748 159.437 169.556 159.167C169.364 158.897 169.093 158.762 168.745 158.762C168.4 158.762 168.133 158.897 167.944 159.167C167.756 159.434 167.661 159.849 167.661 160.412ZM175.093 159.04C174.901 159.014 174.731 159.001 174.585 159.001C174.051 159.001 173.701 159.182 173.535 159.543V163H172.124V157.717H173.457L173.496 158.347C173.779 157.862 174.172 157.619 174.673 157.619C174.829 157.619 174.976 157.64 175.112 157.683L175.093 159.04ZM178.691 163C178.626 162.873 178.579 162.715 178.55 162.526C178.208 162.907 177.764 163.098 177.217 163.098C176.699 163.098 176.27 162.948 175.928 162.648C175.589 162.349 175.42 161.971 175.42 161.516C175.42 160.956 175.627 160.526 176.04 160.227C176.457 159.927 177.057 159.776 177.842 159.772H178.491V159.47C178.491 159.226 178.428 159.03 178.301 158.884C178.177 158.737 177.98 158.664 177.71 158.664C177.472 158.664 177.285 158.721 177.148 158.835C177.015 158.949 176.948 159.105 176.948 159.304H175.537C175.537 158.998 175.632 158.715 175.82 158.454C176.009 158.194 176.276 157.99 176.621 157.844C176.966 157.694 177.354 157.619 177.783 157.619C178.434 157.619 178.95 157.784 179.331 158.112C179.715 158.438 179.907 158.897 179.907 159.489V161.779C179.91 162.281 179.98 162.66 180.117 162.917V163H178.691ZM177.524 162.019C177.733 162.019 177.925 161.973 178.101 161.882C178.276 161.787 178.407 161.662 178.491 161.506V160.598H177.964C177.257 160.598 176.882 160.842 176.836 161.33L176.831 161.413C176.831 161.589 176.893 161.734 177.017 161.848C177.14 161.962 177.31 162.019 177.524 162.019Z" fill="white"/>
<g clip-path="url(#clip4)">
<path d="M108.816 161.601C108.48 161.862 108.002 161.839 107.697 161.533L105.204 159.041C104.898 158.735 104.876 158.25 105.137 157.922L101.981 154.758C100.608 156.34 100.683 158.743 102.182 160.243L106.495 164.555C108.024 166.084 110.454 166.1 111.979 164.757L108.816 161.601Z" fill="white"/>
<path d="M105.92 155.541L104.339 153.952C103.921 153.534 103.182 153.534 102.757 153.952L102.496 154.221L105.659 157.384L105.92 157.123C106.137 156.907 106.249 156.631 106.249 156.332C106.249 156.034 106.137 155.75 105.92 155.541Z" fill="white"/>
<path d="M112.785 162.399L111.196 160.817C110.778 160.392 110.039 160.392 109.614 160.817L109.353 161.078L112.517 164.242L112.785 163.981C112.994 163.772 113.106 163.488 113.106 163.19C113.106 162.891 112.994 162.608 112.785 162.399Z" fill="white"/>
<path d="M107.391 153C106.899 153 106.897 153.741 107.391 153.741C110.476 153.741 112.992 156.256 112.992 159.342C112.992 159.834 113.733 159.836 113.733 159.342C113.733 155.845 110.888 153 107.391 153Z" fill="white"/>
<path d="M107.391 154.492C106.899 154.492 106.897 155.233 107.391 155.233C109.653 155.233 111.499 157.079 111.499 159.342C111.499 159.834 112.241 159.836 112.241 159.342C112.241 156.668 110.065 154.492 107.391 154.492Z" fill="white"/>
<path d="M107.391 155.984C106.899 155.984 106.897 156.726 107.391 156.726C108.83 156.726 110.007 157.902 110.007 159.342C110.007 159.834 110.748 159.836 110.748 159.342C110.748 157.491 109.242 155.984 107.391 155.984Z" fill="white"/>
<path d="M107.391 157.477C106.899 157.477 106.897 158.223 107.391 158.223C108.008 158.223 108.51 158.725 108.51 159.342C108.51 159.834 109.256 159.836 109.256 159.342C109.256 158.314 108.419 157.477 107.391 157.477Z" fill="white"/>
</g>
<rect x="85" y="102" width="126" height="30" rx="15" fill="#29DA65"/>
<path d="M123.912 116.919H121.1V118.823H124.4V120H119.635V112.891H124.391V114.077H121.1V115.771H123.912V116.919ZM126.466 114.717L126.51 115.327C126.887 114.855 127.394 114.619 128.028 114.619C128.588 114.619 129.005 114.784 129.278 115.112C129.552 115.441 129.692 115.933 129.698 116.587V120H128.287V116.621C128.287 116.322 128.222 116.105 128.092 115.972C127.962 115.835 127.745 115.767 127.442 115.767C127.045 115.767 126.747 115.936 126.549 116.274V120H125.138V114.717H126.466ZM132.75 118.276L133.731 114.717H135.206L133.424 120H132.076L130.294 114.717H131.769L132.75 118.276ZM137.32 120H135.904V114.717H137.32V120ZM135.821 113.35C135.821 113.138 135.891 112.964 136.031 112.827C136.174 112.69 136.368 112.622 136.612 112.622C136.853 112.622 137.045 112.69 137.188 112.827C137.332 112.964 137.403 113.138 137.403 113.35C137.403 113.564 137.33 113.74 137.184 113.877C137.04 114.014 136.85 114.082 136.612 114.082C136.375 114.082 136.183 114.014 136.036 113.877C135.893 113.74 135.821 113.564 135.821 113.35ZM141.549 120C141.484 119.873 141.437 119.715 141.407 119.526C141.065 119.907 140.621 120.098 140.074 120.098C139.557 120.098 139.127 119.948 138.785 119.648C138.447 119.349 138.277 118.971 138.277 118.516C138.277 117.956 138.484 117.526 138.897 117.227C139.314 116.927 139.915 116.776 140.699 116.772H141.349V116.47C141.349 116.226 141.285 116.03 141.158 115.884C141.035 115.737 140.838 115.664 140.567 115.664C140.33 115.664 140.143 115.721 140.006 115.835C139.872 115.949 139.806 116.105 139.806 116.304H138.395C138.395 115.998 138.489 115.715 138.678 115.454C138.867 115.194 139.133 114.99 139.479 114.844C139.824 114.694 140.211 114.619 140.641 114.619C141.292 114.619 141.808 114.784 142.188 115.112C142.573 115.438 142.765 115.897 142.765 116.489V118.779C142.768 119.281 142.838 119.66 142.975 119.917V120H141.549ZM140.382 119.019C140.59 119.019 140.782 118.973 140.958 118.882C141.134 118.787 141.264 118.662 141.349 118.506V117.598H140.821C140.115 117.598 139.739 117.842 139.693 118.33L139.688 118.413C139.688 118.589 139.75 118.734 139.874 118.848C139.998 118.962 140.167 119.019 140.382 119.019ZM146.817 116.04C146.625 116.014 146.456 116.001 146.31 116.001C145.776 116.001 145.426 116.182 145.26 116.543V120H143.849V114.717H145.182L145.221 115.347C145.504 114.862 145.896 114.619 146.397 114.619C146.554 114.619 146.7 114.64 146.837 114.683L146.817 116.04ZM155.621 117.949L156.578 112.891H158.038L156.461 120H154.986L153.829 115.244L152.672 120H151.197L149.62 112.891H151.08L152.042 117.939L153.214 112.891H154.454L155.621 117.949ZM160.118 115.293C160.493 114.844 160.963 114.619 161.529 114.619C162.675 114.619 163.256 115.285 163.272 116.616V120H161.861V116.655C161.861 116.353 161.796 116.13 161.666 115.986C161.536 115.84 161.319 115.767 161.017 115.767C160.603 115.767 160.304 115.926 160.118 116.245V120H158.707V112.5H160.118V115.293ZM167.398 120C167.333 119.873 167.286 119.715 167.257 119.526C166.915 119.907 166.471 120.098 165.924 120.098C165.406 120.098 164.977 119.948 164.635 119.648C164.296 119.349 164.127 118.971 164.127 118.516C164.127 117.956 164.334 117.526 164.747 117.227C165.164 116.927 165.764 116.776 166.549 116.772H167.198V116.47C167.198 116.226 167.135 116.03 167.008 115.884C166.884 115.737 166.687 115.664 166.417 115.664C166.179 115.664 165.992 115.721 165.855 115.835C165.722 115.949 165.655 116.105 165.655 116.304H164.244C164.244 115.998 164.339 115.715 164.527 115.454C164.716 115.194 164.983 114.99 165.328 114.844C165.673 114.694 166.061 114.619 166.49 114.619C167.141 114.619 167.657 114.784 168.038 115.112C168.422 115.438 168.614 115.897 168.614 116.489V118.779C168.618 119.281 168.688 119.66 168.824 119.917V120H167.398ZM166.231 119.019C166.44 119.019 166.632 118.973 166.808 118.882C166.983 118.787 167.114 118.662 167.198 118.506V117.598H166.671C165.965 117.598 165.589 117.842 165.543 118.33L165.538 118.413C165.538 118.589 165.6 118.734 165.724 118.848C165.847 118.962 166.017 119.019 166.231 119.019ZM171.388 113.418V114.717H172.291V115.752H171.388V118.389C171.388 118.584 171.425 118.724 171.5 118.809C171.575 118.893 171.718 118.936 171.93 118.936C172.086 118.936 172.224 118.924 172.345 118.901V119.971C172.068 120.055 171.783 120.098 171.49 120.098C170.501 120.098 169.996 119.598 169.977 118.599V115.752H169.205V114.717H169.977V113.418H171.388ZM175.938 118.54C175.938 118.368 175.852 118.232 175.68 118.135C175.51 118.034 175.237 117.944 174.859 117.866C173.603 117.603 172.975 117.069 172.975 116.265C172.975 115.796 173.168 115.405 173.556 115.093C173.946 114.777 174.456 114.619 175.084 114.619C175.755 114.619 176.29 114.777 176.69 115.093C177.094 115.409 177.296 115.819 177.296 116.323H175.885C175.885 116.121 175.82 115.955 175.689 115.825C175.559 115.692 175.356 115.625 175.079 115.625C174.841 115.625 174.658 115.679 174.527 115.786C174.397 115.894 174.332 116.03 174.332 116.196C174.332 116.353 174.405 116.479 174.552 116.577C174.701 116.672 174.952 116.755 175.304 116.826C175.655 116.895 175.951 116.973 176.192 117.061C176.938 117.334 177.311 117.808 177.311 118.481C177.311 118.963 177.104 119.354 176.69 119.653C176.277 119.95 175.743 120.098 175.089 120.098C174.646 120.098 174.252 120.02 173.907 119.863C173.565 119.704 173.297 119.487 173.102 119.214C172.906 118.937 172.809 118.639 172.809 118.32H174.146C174.16 118.571 174.252 118.763 174.425 118.896C174.597 119.03 174.828 119.097 175.118 119.097C175.388 119.097 175.592 119.046 175.729 118.945C175.868 118.841 175.938 118.706 175.938 118.54ZM181.285 120C181.22 119.873 181.173 119.715 181.144 119.526C180.802 119.907 180.357 120.098 179.811 120.098C179.293 120.098 178.863 119.948 178.521 119.648C178.183 119.349 178.014 118.971 178.014 118.516C178.014 117.956 178.22 117.526 178.634 117.227C179.05 116.927 179.651 116.776 180.436 116.772H181.085V116.47C181.085 116.226 181.021 116.03 180.895 115.884C180.771 115.737 180.574 115.664 180.304 115.664C180.066 115.664 179.879 115.721 179.742 115.835C179.609 115.949 179.542 116.105 179.542 116.304H178.131C178.131 115.998 178.225 115.715 178.414 115.454C178.603 115.194 178.87 114.99 179.215 114.844C179.56 114.694 179.947 114.619 180.377 114.619C181.028 114.619 181.544 114.784 181.925 115.112C182.309 115.438 182.501 115.897 182.501 116.489V118.779C182.504 119.281 182.574 119.66 182.711 119.917V120H181.285ZM180.118 119.019C180.326 119.019 180.519 118.973 180.694 118.882C180.87 118.787 181 118.662 181.085 118.506V117.598H180.558C179.851 117.598 179.475 117.842 179.43 118.33L179.425 118.413C179.425 118.589 179.487 118.734 179.61 118.848C179.734 118.962 179.903 119.019 180.118 119.019ZM188.341 117.407C188.341 118.221 188.155 118.874 187.784 119.365C187.416 119.854 186.918 120.098 186.29 120.098C185.756 120.098 185.325 119.912 184.996 119.541V122.031H183.585V114.717H184.894L184.942 115.234C185.284 114.824 185.73 114.619 186.28 114.619C186.931 114.619 187.438 114.86 187.799 115.342C188.16 115.824 188.341 116.488 188.341 117.334V117.407ZM186.93 117.305C186.93 116.813 186.842 116.434 186.666 116.167C186.493 115.9 186.241 115.767 185.909 115.767C185.466 115.767 185.162 115.936 184.996 116.274V118.438C185.169 118.786 185.476 118.96 185.919 118.96C186.593 118.96 186.93 118.408 186.93 117.305ZM193.976 117.407C193.976 118.221 193.79 118.874 193.419 119.365C193.051 119.854 192.553 120.098 191.925 120.098C191.391 120.098 190.96 119.912 190.631 119.541V122.031H189.22V114.717H190.528L190.577 115.234C190.919 114.824 191.365 114.619 191.915 114.619C192.566 114.619 193.072 114.86 193.434 115.342C193.795 115.824 193.976 116.488 193.976 117.334V117.407ZM192.564 117.305C192.564 116.813 192.477 116.434 192.301 116.167C192.128 115.9 191.876 115.767 191.544 115.767C191.101 115.767 190.797 115.936 190.631 116.274V118.438C190.803 118.786 191.111 118.96 191.554 118.96C192.228 118.96 192.564 118.408 192.564 117.305Z" fill="white"/>
<path d="M107.369 110H107.366C103.855 110 101 112.856 101 116.367C101 117.76 101.449 119.051 102.212 120.099L101.419 122.465L103.866 121.682C104.873 122.349 106.074 122.734 107.369 122.734C110.879 122.734 113.734 119.878 113.734 116.367C113.734 112.856 110.879 110 107.369 110ZM111.074 118.991C110.92 119.425 110.31 119.785 109.824 119.89C109.491 119.961 109.057 120.017 107.594 119.411C105.723 118.635 104.518 116.734 104.424 116.611C104.334 116.487 103.668 115.604 103.668 114.69C103.668 113.777 104.132 113.332 104.319 113.141C104.473 112.984 104.726 112.912 104.97 112.912C105.049 112.912 105.12 112.916 105.183 112.919C105.37 112.927 105.464 112.938 105.588 113.234C105.741 113.604 106.115 114.518 106.16 114.611C106.205 114.705 106.251 114.833 106.187 114.956C106.127 115.083 106.075 115.14 105.981 115.248C105.887 115.356 105.798 115.439 105.704 115.555C105.618 115.656 105.521 115.765 105.629 115.952C105.737 116.135 106.111 116.745 106.662 117.236C107.373 117.868 107.949 118.07 108.155 118.156C108.309 118.22 108.492 118.205 108.604 118.086C108.746 117.932 108.922 117.677 109.101 117.427C109.229 117.247 109.39 117.224 109.558 117.288C109.73 117.348 110.64 117.797 110.827 117.891C111.014 117.984 111.137 118.029 111.183 118.108C111.227 118.187 111.227 118.557 111.074 118.991Z" fill="white"/>
</g>
</g>
<defs>
<filter id="filter0_d" x="0" y="2" width="463.695" height="306.695" filterUnits="userSpaceOnUse" color-interpolation-filters="sRGB">
<feFlood flood-opacity="0" result="BackgroundImageFix"/>
<feColorMatrix in="SourceAlpha" type="matrix" values="0 0 0 0 0 0 0 0 0 0 0 0 0 0 0 0 0 0 127 0"/>
<feOffset dy="4"/>
<feColorMatrix type="matrix" values="0 0 0 0 0 0 0 0 0 0 0 0 0 0 0 0 0 0 0.15 0"/>
<feBlend mode="normal" in2="BackgroundImageFix" result="effect1_dropShadow"/>
<feBlend mode="normal" in="SourceGraphic" in2="effect1_dropShadow" result="shape"/>
</filter>
<filter id="filter1_d" x="54" y="52" width="188" height="174.695" filterUnits="userSpaceOnUse" color-interpolation-filters="sRGB">
<feFlood flood-opacity="0" result="BackgroundImageFix"/>
<feColorMatrix in="SourceAlpha" type="matrix" values="0 0 0 0 0 0 0 0 0 0 0 0 0 0 0 0 0 0 127 0"/>
<feOffset dy="4"/>
<feGaussianBlur stdDeviation="5"/>
<feColorMatrix type="matrix" values="0 0 0 0 0 0 0 0 0 0 0 0 0 0 0 0 0 0 0.25 0"/>
<feBlend mode="normal" in2="BackgroundImageFix" result="effect1_dropShadow"/>
<feBlend mode="normal" in="SourceGraphic" in2="effect1_dropShadow" result="shape"/>
</filter>
<clipPath id="clip0">
<rect width="12.7344" height="12.7344" fill="white" transform="translate(460.172 20.375)"/>
</clipPath>
<clipPath id="clip1">
<rect width="12.7344" height="12.7344" fill="white" transform="translate(326.461 20.375)"/>
</clipPath>
<clipPath id="clip2">
<rect width="30.3686" height="30.3686" fill="white" transform="translate(422.334 268.551) rotate(-10)"/>
</clipPath>
<clipPath id="clip3">
<rect width="30.3686" height="30.3686" fill="white" transform="translate(184.334 216.551) rotate(-10)"/>
</clipPath>
<clipPath id="clip4">
<rect width="12.7344" height="12.7344" fill="white" transform="translate(101 153)"/>
</clipPath>
</defs>
</svg>
