<svg width="236" height="200" viewBox="0 0 236 200" fill="none" xmlns="http://www.w3.org/2000/svg">
<g clip-path="url(#clip0)">
<path opacity="0.18" d="M196.356 21.9151C194.092 17.8941 191.19 14.2673 187.765 11.1759C179.674 4.01639 168.713 0.765985 157.924 0.128792C147.135 -0.508402 136.367 1.24567 125.706 2.99258C119.75 4.01639 113.685 5.0044 108.33 7.83239C99.6744 12.4288 94.3405 21.0345 90.2453 29.6187C86.1501 38.2029 83.5584 47.725 73.9718 51.813C67.9364 54.3976 60.7912 55.2424 54.5052 57.4261C42.3341 61.6645 30.5138 67.4493 20.5836 75.7901C10.9469 83.8803 5.46279 100.583 2.42717 112.475C-0.608449 124.367 -1.08813 137.233 2.71355 148.989C8.8349 167.897 25.4807 181.987 43.9163 189.404C62.352 196.821 82.5775 198.41 102.424 199.048C119.606 199.599 137.548 200.702 154.688 199.384C161.432 198.869 167.661 198.26 174.555 198.181C182.74 198.2 190.886 197.04 198.74 194.738C211.291 190.879 222.932 183.003 229.297 171.548C237.888 156.012 235.661 136.61 229.826 119.828C223.992 103.046 214.906 87.4458 210.095 70.3418C207.195 60.0178 205.9 49.3001 203.107 38.9403C201.597 32.9989 199.328 27.2768 196.356 21.9151Z" fill="#A500FF"/>
<path opacity="0.18" d="M78.4748 179.13C76.1122 180.154 73.6206 182.495 74.5657 184.894C84.9326 188.667 96.2374 188.667 107.27 188.616C134.011 188.495 160.751 188.38 187.456 188.137C189.683 188.137 192.01 188.072 193.964 187.006C195.919 185.939 197.322 183.505 196.47 181.45C195.668 179.531 193.392 178.772 191.365 178.285C184.677 176.673 177.871 175.601 171.011 175.078C165.441 174.648 159.148 174.269 155.532 170.009C154.165 168.398 153.349 166.372 151.952 164.797C143.597 155.382 123.945 159.578 116.814 167.596C105.953 179.839 92.0062 173.252 78.4748 179.13Z" fill="#A500FF"/>
<path d="M104.614 105.974C103.025 110.521 101.65 115.225 101.622 120.043C101.593 124.861 103.053 129.851 106.454 133.259C111.43 138.271 119.177 138.822 126.214 139.101L135.522 139.474C139.18 139.617 142.874 139.76 146.461 139.03C150.048 138.3 153.556 136.574 155.769 133.639C157.192 131.556 158.144 129.189 158.561 126.701C161.081 114.466 156.993 101.428 149.311 91.5768C147.077 88.5847 144.351 85.9942 141.249 83.9161C136.08 80.6299 120.694 75.7042 115.64 81.2098C113.342 83.7085 111.888 88.7702 110.435 91.8345C108.245 96.4411 106.302 101.161 104.614 105.974Z" fill="white"/>
<path d="M109.389 103.369C108.101 107.049 106.991 110.85 106.97 114.752C106.948 118.654 108.129 122.685 110.879 125.441C114.902 129.472 121.174 129.937 126.859 130.166L134.397 130.467C137.349 130.701 140.317 130.578 143.239 130.102C146.139 129.508 148.967 128.119 150.743 125.742C151.899 124.062 152.671 122.148 153.005 120.136C155.045 110.234 151.738 99.6957 145.523 91.7272C143.718 89.3046 141.512 87.2078 139.001 85.5271C134.82 82.871 122.377 78.8903 118.289 83.3363C116.434 85.3625 115.253 89.4577 114.086 91.9277C112.318 95.6549 110.75 99.474 109.389 103.369Z" fill="url(#paint0_linear)"/>
<path d="M118.389 168.634C117.673 169.88 116.878 171.076 116.198 172.329C115.16 174.276 114.444 176.574 115.132 178.665C115.228 179.029 115.424 179.358 115.697 179.617C116.063 179.874 116.49 180.03 116.936 180.068C118.383 180.295 119.845 180.414 121.31 180.426C123.315 180.426 125.477 180.19 126.966 178.844C129.952 176.13 129.751 169.45 128.04 166.171C127.874 165.754 127.589 165.395 127.219 165.14C126.85 164.886 126.413 164.746 125.964 164.739C124.611 164.476 123.228 164.402 121.854 164.518C120.315 164.689 119.907 165.062 119.37 166.529C119.099 167.256 118.771 167.96 118.389 168.634Z" fill="#A500FF"/>
<path d="M122.32 168.921C122.679 168.985 123.043 169.021 123.408 169.028C124.525 169.078 125.792 169.071 126.587 168.276C127.381 167.482 127.396 166.315 127.396 165.233V161.038C127.396 158.267 124.804 158.647 122.771 158.99C122.298 159.046 121.846 159.216 121.453 159.484C120.737 160.05 120.659 161.081 120.63 161.983L120.487 166.4C120.424 166.93 120.503 167.466 120.716 167.954C120.893 168.226 121.129 168.454 121.407 168.621C121.685 168.789 121.997 168.891 122.32 168.921Z" fill="#FDBAAC"/>
<path d="M144.586 168.634C145.302 169.88 146.096 171.076 146.734 172.329C147.779 174.276 148.495 176.574 147.8 178.665C147.704 179.029 147.508 179.358 147.235 179.617C146.87 179.877 146.442 180.033 145.996 180.068C144.551 180.294 143.091 180.414 141.629 180.426C139.624 180.426 137.455 180.19 135.973 178.844C132.98 176.13 133.181 169.45 134.892 166.171C135.036 165.861 135.235 165.58 135.479 165.341C135.91 165.009 136.426 164.806 136.968 164.754C138.324 164.491 139.709 164.416 141.085 164.532C142.617 164.704 143.025 165.076 143.562 166.544C143.844 167.268 144.187 167.967 144.586 168.634Z" fill="#A500FF"/>
<path d="M140.655 168.921C140.296 168.984 139.932 169.02 139.567 169.028C138.443 169.078 137.183 169.071 136.388 168.276C135.593 167.482 135.572 166.315 135.572 165.233V161.038C135.572 158.267 138.171 158.647 140.197 158.99C140.672 159.045 141.127 159.215 141.521 159.484C142.237 160.05 142.309 161.081 142.337 161.983L142.481 166.4C142.546 166.929 142.469 167.465 142.259 167.954C142.082 168.226 141.845 168.454 141.568 168.621C141.29 168.789 140.978 168.891 140.655 168.921Z" fill="#FDBAAC"/>
<path d="M138.679 60.2255C138.679 60.2255 147.414 64.0057 148.438 64.8648C149.354 65.6309 146.87 118.067 146.676 120.63C146.483 123.193 132.508 123.601 126.465 122.448C122.433 121.627 118.488 120.429 114.681 118.869C114.681 118.869 112.769 64.7073 113.965 63.7408C115.16 62.7742 126.708 59.2017 126.708 59.2017L138.679 60.2255Z" fill="#A500FF"/>
<path d="M109.948 124.897C109.297 127.288 108.903 129.98 110.148 132.114C110.979 133.42 112.221 134.413 113.678 134.935C115.127 135.445 116.636 135.765 118.167 135.887C127.549 136.957 137.043 136.442 146.254 134.362C147.539 134.187 148.745 133.642 149.726 132.794C150.54 131.8 151.012 130.569 151.072 129.286C151.618 124.736 150.676 120.132 148.387 116.162C148.228 115.837 147.98 115.564 147.671 115.375C147.375 115.244 147.05 115.189 146.726 115.217L122.892 115.296C121.162 115.339 119.431 115.275 117.709 115.103C116.37 114.945 114.845 114.093 113.886 115.239C111.845 117.63 110.75 121.919 109.948 124.897Z" fill="#473F47"/>
<path d="M109.948 124.897C109.297 127.288 108.903 129.98 110.148 132.114C110.979 133.42 112.221 134.413 113.678 134.935C115.127 135.445 116.636 135.765 118.167 135.887C127.549 136.957 137.043 136.442 146.254 134.362C147.539 134.187 148.745 133.642 149.726 132.794C150.54 131.8 151.012 130.569 151.072 129.286C151.618 124.736 150.676 120.132 148.387 116.162C148.228 115.837 147.98 115.564 147.671 115.375C147.375 115.244 147.05 115.189 146.726 115.217L122.892 115.296C121.162 115.339 119.431 115.275 117.709 115.103C116.37 114.945 114.845 114.093 113.886 115.239C111.845 117.63 110.75 121.919 109.948 124.897Z" fill="url(#paint1_linear)"/>
<path d="M138.35 162.599L139.746 162.735C143.97 163.157 145.674 159.556 146.096 155.332C146.196 154.451 146.404 153.564 146.554 152.69L149.339 136.467L150.628 128.949C150.757 128.19 150.893 127.439 151.015 126.68C151.387 124.475 150.721 122.348 150.299 120.136C150.048 118.797 149.726 117.358 148.695 116.47C147.664 115.583 146.239 115.504 144.908 115.439C141.371 115.282 137.784 115.117 134.34 115.94C134.128 115.968 133.933 116.069 133.789 116.227C133.693 116.409 133.66 116.618 133.696 116.821C133.947 120.186 134.484 123.522 134.412 126.887L133.803 153.922C133.374 158.124 134.126 162.176 138.35 162.599Z" fill="#473F47"/>
<path d="M125.14 163.673L123.708 163.809C119.492 164.231 117.78 160.63 117.358 156.406L112.812 129.916C112.447 127.811 112.139 125.785 111.981 123.644C111.806 122.197 111.855 120.731 112.124 119.298C112.264 118.583 112.565 117.909 113.004 117.327C113.443 116.745 114.009 116.271 114.659 115.941C115.346 115.68 116.072 115.539 116.807 115.525C119.225 115.367 121.653 115.483 124.045 115.869C124.904 115.942 125.731 116.235 126.443 116.721C127.149 117.407 127.645 118.278 127.875 119.234C128.591 121.296 129.515 123.573 129.307 125.778C129.136 127.186 129.055 128.604 129.064 130.023L129.271 139.402L129.622 154.745C129.615 154.831 129.615 154.917 129.622 155.003C130.088 159.177 129.336 163.229 125.14 163.673Z" fill="#473F47"/>
<path d="M198.611 108.387V109.934C198.612 110.231 198.554 110.525 198.441 110.799C198.329 111.073 198.163 111.323 197.953 111.533C197.744 111.743 197.495 111.91 197.221 112.024C196.946 112.138 196.653 112.196 196.356 112.196H64.1991C63.9023 112.196 63.6085 112.138 63.3344 112.024C63.0603 111.91 62.8114 111.743 62.6019 111.533C62.3924 111.323 62.2264 111.073 62.1135 110.799C62.0006 110.525 61.9429 110.231 61.9439 109.934V108.387C61.9439 107.789 62.1815 107.216 62.6044 106.793C63.0273 106.37 63.601 106.132 64.1991 106.132H196.356C196.954 106.132 197.528 106.37 197.951 106.793C198.373 107.216 198.611 107.789 198.611 108.387Z" fill="#473F47"/>
<path d="M157.501 82.1621C157.501 82.1621 163.172 93.9752 162.563 97.197C162.141 99.4666 157.795 101.457 156.077 102.488C154.358 103.519 152.633 104.786 150.85 105.488C149.068 106.189 147.034 105.917 145.223 105.86L135.916 105.559C135.472 105.559 134.877 105.395 134.877 104.944C134.877 104.679 135.107 104.471 135.328 104.321C136.025 103.835 136.833 103.535 137.677 103.447C139.688 103.32 141.675 102.94 143.591 102.316L154.301 94.9418L151.717 90.1521L157.501 82.1621Z" fill="#FDBAAC"/>
<path d="M114.473 63.4832C112.612 64.2922 111.337 65.4091 110.893 67.3206C110.177 70.2775 108.71 72.7547 107.314 75.4395C106.48 77.0696 105.763 78.7563 105.166 80.4869C104.934 81.0129 104.85 81.592 104.922 82.1622C105.046 82.5934 105.255 82.9952 105.538 83.3435C107.194 85.6537 108.917 87.9137 110.707 90.1236C111.787 89.6237 112.82 89.0271 113.793 88.3409C114.172 87.7395 114.022 86.2932 114.079 85.5916C114.184 84.1597 114.28 82.7111 114.366 81.2458L114.473 63.4832Z" fill="#A500FF"/>
<path d="M135.493 53.6532C135.562 53.9932 135.608 54.3378 135.629 54.6842C135.722 56.0731 135.579 57.4978 135.994 58.8224C136.155 59.2996 136.371 59.7562 136.638 60.1826C137.634 61.7577 136.402 64.328 135.529 65.7599C134.419 67.5712 132.665 69.3396 130.438 69.5544C127.639 69.805 126.422 66.6906 125.906 64.4783C125.606 63.2039 125.348 62.2875 125.828 61.0275C126.307 59.7674 127.052 58.5646 127.431 57.2329C127.75 55.6984 127.932 54.1387 127.975 52.5721C127.994 52.1549 128.104 51.7468 128.298 51.3765C128.461 51.1343 128.673 50.9282 128.919 50.7706C129.165 50.613 129.441 50.5073 129.73 50.4601C130.295 50.361 130.871 50.3441 131.441 50.41C132.322 50.4079 133.191 50.6244 133.968 51.04C134.382 51.3529 134.731 51.7451 134.992 52.1937C135.254 52.6423 135.424 53.1384 135.493 53.6532Z" fill="#FDBAAC"/>
<path d="M127.725 56.0085C127.725 56.0085 128.863 63.1322 131.892 61.8507C134.92 60.5691 135.658 56.4811 135.658 56.4811L127.725 56.0085Z" fill="#DEA095"/>
<path d="M136.725 60.1325C136.725 60.1325 134.047 68.3802 131.226 69.4828C131.226 69.4828 130.474 69.9768 132.694 71.0507C134.913 72.1246 140.24 65.273 138.98 60.7196C138.837 60.1372 138.546 59.6014 138.136 59.1638C137.726 58.7262 137.211 58.4015 136.639 58.2209L136.725 60.1325Z" fill="white"/>
<path d="M126.121 59.3307C126.121 59.3307 125.713 65.2587 128.434 69.0747C128.434 69.0747 127.568 70.6641 126.723 70.7429C125.878 70.8216 123.322 65.9532 123.859 62.0871C124.11 59.8605 125.642 58.7722 126.121 59.3307Z" fill="white"/>
<path d="M123.766 40.1146C123.766 40.1146 123.909 51.1331 125.019 54.004C126.128 56.875 128.885 59.1803 131.405 58.9512C133.925 58.7221 137.533 56.2736 138.879 52.3358C140.225 48.3981 140.225 39.055 139.688 37.8307C139.151 36.6065 136.259 32.8549 129.586 34.072C124.997 34.9097 123.615 38.4321 123.766 40.1146Z" fill="#FDBAAC"/>
<path d="M157.716 76.449C158.647 77.7663 159.306 78.7185 159.463 78.9405C159.706 79.2419 159.888 79.587 160 79.9571C160.042 80.2964 160.013 80.6406 159.916 80.9683C159.819 81.296 159.655 81.6001 159.435 81.8615C158.439 83.2934 156.972 84.2671 155.69 85.4413C154.248 86.869 152.955 88.4403 151.831 90.1307C150.962 89.51 150.169 88.7891 149.469 87.9829C148.797 87.4739 148.271 86.7969 147.945 86.0202C147.618 85.2435 147.501 84.3944 147.607 83.5583L147.478 74.3226L147.407 69.7047C147.407 68.91 146.383 65.316 146.877 64.6931C148.051 63.2254 154.495 71.9528 157.716 76.449Z" fill="#A500FF"/>
<path d="M122.37 44.1954C122.288 44.1705 122.201 44.1705 122.119 44.1954C122.04 44.2468 121.976 44.3185 121.933 44.4031C121.642 44.9205 121.543 45.5239 121.654 46.107C121.775 46.587 121.957 47.0491 122.198 47.4816C122.443 48.1841 122.879 48.8041 123.458 49.2715C123.574 49.3549 123.717 49.3931 123.859 49.3789C123.962 49.3609 124.058 49.3108 124.131 49.2357C124.503 48.7969 124.697 48.2351 124.675 47.6606C124.83 46.8581 124.682 46.0266 124.26 45.3266C124.048 45.0101 123.769 44.7445 123.442 44.549C123.115 44.3534 122.749 44.2326 122.37 44.1954Z" fill="#FDBAAC"/>
<path d="M141.149 44.0165C141.232 43.9987 141.317 43.9987 141.4 44.0165C141.478 44.0696 141.542 44.1408 141.586 44.2242C141.873 44.7454 141.972 45.3498 141.865 45.9353C141.736 46.4124 141.553 46.8734 141.321 47.3099C141.075 48.0099 140.639 48.6274 140.061 49.0926C139.943 49.1791 139.798 49.2198 139.653 49.2072C139.553 49.1842 139.462 49.1348 139.388 49.064C139.018 48.6245 138.824 48.0632 138.844 47.4889C138.684 46.6863 138.832 45.8531 139.259 45.1549C139.47 44.8371 139.749 44.5701 140.076 44.3732C140.403 44.1764 140.77 44.0545 141.149 44.0165Z" fill="#FDBAAC"/>
<path d="M121.876 39.098C121.647 37.6661 121.597 36.0122 122.592 34.9598C122.8 34.7378 123.05 34.5589 123.265 34.3441C123.48 34.1293 123.809 33.6926 124.088 33.3632C124.921 32.4619 125.934 31.7456 127.061 31.2609C128.188 30.7762 129.405 30.5338 130.632 30.5495C133.08 30.5987 135.501 31.0661 137.791 31.9313C139.08 32.3514 140.359 32.8072 141.629 33.2988C142.122 33.4542 142.578 33.7102 142.968 34.0505C143.244 34.3557 143.429 34.7316 143.504 35.1362C143.578 35.5407 143.539 35.9581 143.39 36.3416C143.175 36.9501 142.731 37.4656 142.553 38.0813C142.445 38.5676 142.402 39.0658 142.424 39.5633C142.378 40.8869 142.031 42.1825 141.407 43.3507C141.063 44.0942 140.488 44.7068 139.767 45.0976C139.824 43.3088 139.582 41.5231 139.052 39.8139C137.534 41.038 135.688 41.7853 133.746 41.9618C131.813 42.128 129.866 41.9065 128.019 41.3102C127.568 41.1159 127.071 41.0562 126.587 41.1384C126.121 41.2673 125.749 41.8544 126.014 42.241C125.923 42.1831 125.821 42.1438 125.715 42.1254C125.609 42.107 125.5 42.1099 125.395 42.1339C125.29 42.1578 125.19 42.2024 125.102 42.265C125.014 42.3277 124.94 42.4071 124.883 42.4987C124.674 42.8822 124.572 43.3152 124.589 43.7516L124.468 46.4866C122.828 44.5607 122.277 41.5966 121.876 39.098Z" fill="#FC682D"/>
<path d="M104.908 82.1621C103.734 84.6035 102.652 87.1021 101.693 89.6366C100.974 91.3945 100.404 93.2099 99.9891 95.0635C99.8388 95.7794 99.4879 96.7603 99.7528 97.4834C100.161 98.5931 101.843 99.4594 102.788 100.032C105.8 101.877 108.936 103.511 112.175 104.922C113.43 105.523 114.758 105.956 116.127 106.211C117.2 106.342 118.283 106.373 119.363 106.304L125.577 106.089C126.143 106.089 126.88 105.896 126.93 105.33C126.93 104.936 126.594 104.614 126.257 104.407C125.149 103.705 123.942 103.172 122.677 102.824C121.439 102.488 119.907 102.717 118.74 102.302C117.422 101.836 115.955 100.362 114.788 99.5525L108.108 94.9418L110.693 90.1521L104.908 82.1621Z" fill="#FDBAAC"/>
<path d="M148.122 103.612H113.291L110.234 80.1433L150.592 80.7017L148.122 103.612Z" fill="#A500FF"/>
<path d="M73.1626 106.132L72.1603 112.196L60.5905 183.433C60.5415 183.889 60.3405 184.316 60.0198 184.645C59.6991 184.973 59.2773 185.184 58.8222 185.244C58.006 185.244 57.4762 184.428 57.6408 183.433L69.2106 112.196L70.1914 106.132H73.1626Z" fill="#473F47"/>
<path d="M188.452 106.132L189.433 112.196L201.031 183.433C201.08 183.889 201.281 184.316 201.602 184.645C201.922 184.973 202.344 185.184 202.799 185.244C203.615 185.244 204.145 184.428 203.981 183.433L192.411 112.196L191.43 106.132H188.452Z" fill="#473F47"/>
<path d="M148.122 103.605H113.12V106.161H148.122V103.605Z" fill="#A500FF"/>
<path d="M148.122 103.605H113.12V106.161H148.122V103.605Z" fill="url(#paint2_linear)"/>
<path d="M86.0284 106.132H68.7383C69.3679 104.342 70.5377 102.791 72.0862 101.694C73.6348 100.597 75.4857 100.008 77.3834 100.008C79.281 100.008 81.1319 100.597 82.6805 101.694C84.229 102.791 85.3988 104.342 86.0284 106.132Z" fill="#A500FF"/>
<path d="M67.947 73.2991C67.7134 72.6142 66.9689 72.2484 66.284 72.4819C65.5991 72.7155 65.2333 73.46 65.4668 74.1448L74.7701 101.426C75.0037 102.111 75.7482 102.477 76.4331 102.243C77.1179 102.01 77.4838 101.265 77.2502 100.58L67.947 73.2991Z" fill="#A500FF"/>
<path d="M66.3269 72.4434C65.6366 72.6602 65.2528 73.3956 65.4696 74.086C65.6865 74.7763 66.4219 75.1601 67.1123 74.9433L94.6113 66.3045C95.3016 66.0876 95.6855 65.3522 95.4686 64.6619C95.2517 63.9715 94.5163 63.5877 93.826 63.8046L66.3269 72.4434Z" fill="#A500FF"/>
<path d="M86.0284 106.132H68.7383C69.3679 104.342 70.5377 102.791 72.0862 101.694C73.6348 100.597 75.4857 100.008 77.3834 100.008C79.281 100.008 81.1319 100.597 82.6805 101.694C84.229 102.791 85.3988 104.342 86.0284 106.132Z" fill="url(#paint3_linear)"/>
<path d="M67.947 73.2991C67.7134 72.6142 66.9689 72.2484 66.284 72.4819C65.5991 72.7155 65.2333 73.46 65.4668 74.1448L74.7701 101.426C75.0037 102.111 75.7482 102.477 76.4331 102.243C77.1179 102.01 77.4838 101.265 77.2502 100.58L67.947 73.2991Z" fill="url(#paint4_linear)"/>
<path d="M66.3269 72.4434C65.6366 72.6602 65.2528 73.3956 65.4696 74.086C65.6865 74.7763 66.4219 75.1601 67.1123 74.9433L94.6113 66.3045C95.3016 66.0876 95.6855 65.3522 95.4686 64.6619C95.2517 63.9715 94.5163 63.5877 93.826 63.8046L66.3269 72.4434Z" fill="url(#paint5_linear)"/>
<path d="M105.481 67.292C103.261 70.4708 100.634 72.5041 99.5098 71.9529C99.4595 71.9261 99.4116 71.8949 99.3666 71.8598L99.2163 71.7667C95.9372 69.4685 92.9088 63.3901 95.207 60.1039C97.5052 56.8177 104.257 57.5695 107.536 59.8677L107.679 59.9751C107.727 60.0044 107.773 60.0379 107.815 60.0753C108.717 60.9416 107.707 64.1061 105.481 67.292Z" fill="#A500FF"/>
<path d="M105.481 67.2919C103.261 70.4707 100.634 72.504 99.5097 71.9527L99.4095 71.8954C99.3918 71.8882 99.3768 71.8757 99.3665 71.8596C98.3714 71.0649 99.3665 67.8503 101.643 64.6071C103.92 61.3639 106.59 59.3162 107.679 59.9749H107.729L107.815 60.0465C108.717 60.9414 107.707 64.1059 105.481 67.2919Z" fill="#A500FF"/>
<path d="M105.481 67.2919C103.261 70.4707 100.634 72.504 99.5097 71.9527L99.4095 71.8954C99.3918 71.8882 99.3768 71.8757 99.3665 71.8596C98.3714 71.0649 99.3665 67.8503 101.643 64.6071C103.92 61.3639 106.59 59.3162 107.679 59.9749H107.729L107.815 60.0465C108.717 60.9414 107.707 64.1059 105.481 67.2919Z" fill="white"/>
<path d="M179.345 82.155H175.15C174.193 82.155 173.417 82.9307 173.417 83.8876V104.593C173.417 105.55 174.193 106.325 175.15 106.325H179.345C180.302 106.325 181.078 105.55 181.078 104.593V83.8876C181.078 82.9307 180.302 82.155 179.345 82.155Z" fill="#A500FF"/>
<path d="M186.781 82.0407L182.595 82.3289C181.641 82.3947 180.92 83.2219 180.986 84.1765L182.408 104.833C182.474 105.787 183.301 106.508 184.256 106.442L188.442 106.154C189.396 106.088 190.117 105.261 190.051 104.306L188.628 83.6501C188.563 82.6955 187.735 81.9749 186.781 82.0407Z" fill="#A500FF"/>
<path d="M148.158 103.612H113.328L110.271 80.1433L150.628 80.7017L148.158 103.612Z" fill="url(#paint6_linear)"/>
<path d="M111.795 78.9834L110.271 80.1432L150.628 80.7017L149.24 79.3414L111.795 78.9834Z" fill="url(#paint7_linear)"/>
<path d="M185.316 40.3581C185.105 42.9682 183.997 45.4248 182.18 47.3099C180.548 48.9194 179.386 50.9446 178.822 53.1664C178.665 53.8465 178.579 54.5481 178.457 55.3142H168.434C168.362 54.8059 168.312 54.2976 168.212 53.8036C167.79 51.6554 166.77 49.6701 165.269 48.076C163.943 46.7252 162.899 45.1237 162.198 43.3651C161.602 41.7101 161.377 39.9447 161.538 38.1933C161.7 36.4419 162.243 34.7472 163.131 33.2288C164.018 31.7104 165.228 30.4052 166.675 29.4054C168.122 28.4056 169.771 27.7355 171.505 27.4424C171.827 27.3923 172.142 27.3565 172.45 27.3278C174.192 27.1828 175.945 27.4217 177.584 28.0278C179.224 28.6339 180.711 29.5924 181.94 30.8356C183.169 32.0788 184.11 33.5765 184.697 35.2231C185.284 36.8697 185.502 38.625 185.337 40.3652L185.316 40.3581Z" fill="white"/>
<path d="M183.354 40.3579C183.149 42.968 182.043 45.4256 180.226 47.3097C178.591 48.9188 177.428 50.9439 176.861 53.1662C176.703 53.8463 176.624 54.548 176.495 55.314H168.441C168.369 54.8057 168.319 54.2974 168.219 53.8034C167.797 51.6552 166.777 49.6699 165.277 48.0758C163.95 46.725 162.906 45.1236 162.205 43.3649C161.61 41.71 161.385 39.9445 161.546 38.1931C161.707 36.4417 162.25 34.747 163.138 33.2286C164.026 31.7102 165.236 30.4051 166.683 29.4052C168.129 28.4054 169.778 27.7353 171.512 27.4422C171.835 27.3921 172.15 27.3563 172.457 27.3276C174.034 27.457 175.569 27.8982 176.973 28.6257C178.378 29.3532 179.624 30.3523 180.639 31.5653C181.654 32.7782 182.418 34.1807 182.886 35.6913C183.355 37.2019 183.519 38.7906 183.369 40.365L183.354 40.3579Z" fill="url(#paint8_linear)"/>
<path d="M178.686 55.2927H168.749C168.029 55.2927 167.446 55.8761 167.446 56.5957V56.6029C167.446 57.3225 168.029 57.9059 168.749 57.9059H178.686C179.406 57.9059 179.989 57.3225 179.989 56.6029V56.5957C179.989 55.8761 179.406 55.2927 178.686 55.2927Z" fill="#A500FF"/>
<path d="M177.927 57.4834H169.049C168.405 57.4834 167.882 58.0059 167.882 58.6504C167.882 59.2949 168.405 59.8174 169.049 59.8174H177.927C178.572 59.8174 179.094 59.2949 179.094 58.6504C179.094 58.0059 178.572 57.4834 177.927 57.4834Z" fill="#A500FF"/>
<path d="M177.348 59.395H169.637C169.079 59.395 168.627 59.847 168.627 60.4045V60.4117C168.627 60.9692 169.079 61.4212 169.637 61.4212H177.348C177.905 61.4212 178.357 60.9692 178.357 60.4117V60.4045C178.357 59.847 177.905 59.395 177.348 59.395Z" fill="#A500FF"/>
<path d="M178.686 55.2927H168.749C168.029 55.2927 167.446 55.8761 167.446 56.5957V56.6029C167.446 57.3225 168.029 57.9059 168.749 57.9059H178.686C179.406 57.9059 179.989 57.3225 179.989 56.6029V56.5957C179.989 55.8761 179.406 55.2927 178.686 55.2927Z" fill="url(#paint9_linear)"/>
<path d="M177.927 57.4834H169.049C168.405 57.4834 167.882 58.0059 167.882 58.6504C167.882 59.2949 168.405 59.8174 169.049 59.8174H177.927C178.572 59.8174 179.094 59.2949 179.094 58.6504C179.094 58.0059 178.572 57.4834 177.927 57.4834Z" fill="url(#paint10_linear)"/>
<path d="M177.348 59.395H169.637C169.079 59.395 168.627 59.847 168.627 60.4045V60.4117C168.627 60.9692 169.079 61.4212 169.637 61.4212H177.348C177.905 61.4212 178.357 60.9692 178.357 60.4117V60.4045C178.357 59.847 177.905 59.395 177.348 59.395Z" fill="url(#paint11_linear)"/>
<path d="M170.961 55.257C170.884 53.4256 170.645 51.6047 170.245 49.8158C169.939 48.3307 169.717 46.8296 169.579 45.3196C169.422 43.0357 169.873 41.4392 170.961 40.4369C171.149 40.2369 171.404 40.1122 171.677 40.086C171.824 40.0847 171.97 40.1125 172.107 40.1678C172.243 40.2231 172.367 40.3048 172.472 40.4082C172.508 40.3653 172.536 40.3223 172.572 40.2865C172.756 40.0529 173.005 39.8786 173.288 39.7853C173.431 39.7437 173.582 39.7324 173.73 39.7521C173.878 39.7718 174.02 39.8222 174.147 39.8999C174.331 40.0077 174.49 40.1543 174.612 40.3295C174.763 40.2333 174.931 40.1679 175.106 40.1372C175.282 40.1064 175.462 40.111 175.636 40.1505C176.288 40.3151 176.739 40.9309 176.932 41.926C177.397 44.3173 176.889 46.73 176.395 49.0855C175.877 51.051 175.652 53.0825 175.729 55.1138L175.013 55.1782C174.927 53.0773 175.156 50.9753 175.694 48.9423C176.195 46.5725 176.667 44.3388 176.23 42.0907C176.152 41.6898 175.951 40.9953 175.464 40.8736C175.29 40.8419 175.11 40.8805 174.963 40.981C175.014 41.1066 175.054 41.2358 175.085 41.3676C175.255 42.0707 175.34 42.792 175.336 43.5154C175.342 43.6289 175.324 43.7425 175.284 43.8487C175.243 43.9549 175.18 44.0511 175.099 44.1311C175.026 44.1974 174.936 44.2429 174.839 44.263C174.742 44.2831 174.642 44.2771 174.548 44.2457C174.388 44.1757 174.247 44.0682 174.138 43.9324C174.028 43.7966 173.953 43.6364 173.918 43.4653C173.694 42.7987 173.652 42.0845 173.796 41.3962C173.856 41.1874 173.953 40.991 174.083 40.8163C174.007 40.694 173.904 40.5911 173.782 40.5156C173.739 40.4879 173.69 40.4697 173.64 40.4623C173.589 40.4549 173.538 40.4584 173.488 40.4727C173.342 40.5273 173.215 40.6246 173.123 40.7519C173.066 40.8163 173.023 40.8807 172.973 40.9452C173.563 41.746 173.819 42.7442 173.689 43.7302C173.617 44.2242 173.324 44.6968 172.808 44.6968C172.63 44.6775 172.462 44.607 172.324 44.4939C172.185 44.3808 172.082 44.2299 172.028 44.0595C171.813 43.5808 171.707 43.0607 171.715 42.5362C171.724 42.0116 171.848 41.4953 172.078 41.0239H172.042C171.87 40.8593 171.763 40.8235 171.72 40.8306C171.621 40.8588 171.532 40.9132 171.462 40.9881C170.553 41.8258 170.166 43.2792 170.31 45.2838C170.447 46.7645 170.665 48.2367 170.961 49.6941C171.366 51.5256 171.605 53.3898 171.677 55.2641L170.961 55.257ZM172.593 41.654C172.363 42.3333 172.397 43.0742 172.687 43.7302C172.721 43.8154 172.775 43.8914 172.844 43.9522C172.928 43.8562 172.978 43.7356 172.987 43.6085C173.062 42.9402 172.922 42.2655 172.586 41.6826L172.593 41.654ZM174.433 41.7256C174.383 42.2445 174.439 42.7683 174.598 43.2649C174.588 42.7571 174.53 42.2513 174.426 41.7542L174.433 41.7256Z" fill="#A500FF"/>
</g>
<defs>
<linearGradient id="paint0_linear" x1="131.691" y1="145.187" x2="126.851" y2="39.3557" gradientUnits="userSpaceOnUse">
<stop offset="0.01"/>
<stop offset="0.08" stop-opacity="0.69"/>
<stop offset="0.21" stop-opacity="0.32"/>
<stop offset="1" stop-opacity="0"/>
</linearGradient>
<linearGradient id="paint1_linear" x1="11798.7" y1="6224.11" x2="11751.8" y2="4487.31" gradientUnits="userSpaceOnUse">
<stop offset="0.01"/>
<stop offset="0.08" stop-opacity="0.69"/>
<stop offset="0.21" stop-opacity="0.32"/>
<stop offset="1" stop-opacity="0"/>
</linearGradient>
<linearGradient id="paint2_linear" x1="6507.41" y1="450.395" x2="6507.28" y2="531.764" gradientUnits="userSpaceOnUse">
<stop offset="0.01"/>
<stop offset="0.08" stop-opacity="0.69"/>
<stop offset="0.21" stop-opacity="0.32"/>
<stop offset="1" stop-opacity="0"/>
</linearGradient>
<linearGradient id="paint3_linear" x1="3392.25" y1="1504.49" x2="3809.81" y2="1504.49" gradientUnits="userSpaceOnUse">
<stop offset="0.01"/>
<stop offset="0.08" stop-opacity="0.69"/>
<stop offset="0.21" stop-opacity="0.32"/>
<stop offset="1" stop-opacity="0"/>
</linearGradient>
<linearGradient id="paint4_linear" x1="561.53" y1="6593.84" x2="605.186" y2="6593.84" gradientUnits="userSpaceOnUse">
<stop offset="0.01"/>
<stop offset="0.08" stop-opacity="0.69"/>
<stop offset="0.21" stop-opacity="0.32"/>
<stop offset="1" stop-opacity="0"/>
</linearGradient>
<linearGradient id="paint5_linear" x1="570.634" y1="5785.34" x2="680.873" y2="5785.34" gradientUnits="userSpaceOnUse">
<stop offset="0.01"/>
<stop offset="0.08" stop-opacity="0.69"/>
<stop offset="0.21" stop-opacity="0.32"/>
<stop offset="1" stop-opacity="0"/>
</linearGradient>
<linearGradient id="paint6_linear" x1="7170.9" y1="2473.25" x2="7825.64" y2="5679.69" gradientUnits="userSpaceOnUse">
<stop offset="0.01"/>
<stop offset="0.08" stop-opacity="0.69"/>
<stop offset="0.21" stop-opacity="0.32"/>
<stop offset="1" stop-opacity="0"/>
</linearGradient>
<linearGradient id="paint7_linear" x1="7487.3" y1="256.361" x2="7487.1" y2="332.618" gradientUnits="userSpaceOnUse">
<stop offset="0.01"/>
<stop offset="0.08" stop-opacity="0.69"/>
<stop offset="0.21" stop-opacity="0.32"/>
<stop offset="1" stop-opacity="0"/>
</linearGradient>
<linearGradient id="paint8_linear" x1="207.195" y1="64.5211" x2="153.442" y2="29.3037" gradientUnits="userSpaceOnUse">
<stop offset="0.01"/>
<stop offset="0.13" stop-opacity="0.69"/>
<stop offset="0.25" stop-opacity="0.32"/>
<stop offset="1" stop-opacity="0"/>
</linearGradient>
<linearGradient id="paint9_linear" x1="3211.23" y1="243.574" x2="3211.2" y2="279.532" gradientUnits="userSpaceOnUse">
<stop offset="0.01"/>
<stop offset="0.13" stop-opacity="0.69"/>
<stop offset="0.25" stop-opacity="0.32"/>
<stop offset="1" stop-opacity="0"/>
</linearGradient>
<linearGradient id="paint10_linear" x1="2889.31" y1="233.49" x2="2888.88" y2="266.286" gradientUnits="userSpaceOnUse">
<stop offset="0.01"/>
<stop offset="0.13" stop-opacity="0.69"/>
<stop offset="0.25" stop-opacity="0.32"/>
<stop offset="1" stop-opacity="0"/>
</linearGradient>
<linearGradient id="paint11_linear" x1="2528.48" y1="219.885" x2="2528.28" y2="242.656" gradientUnits="userSpaceOnUse">
<stop offset="0.01"/>
<stop offset="0.13" stop-opacity="0.69"/>
<stop offset="0.25" stop-opacity="0.32"/>
<stop offset="1" stop-opacity="0"/>
</linearGradient>
<clipPath id="clip0">
<rect width="235.003" height="200" fill="white"/>
</clipPath>
</defs>
</svg>
