<svg width="359" height="312" viewBox="0 0 359 312" fill="none" xmlns="http://www.w3.org/2000/svg">
<path opacity="0.18" d="M120.969 28.0127C113.694 43.5116 112.157 61.1067 102.11 75.3341C86.8686 96.9225 56.4249 105.267 34.1802 121.384C12.0676 137.419 -1.97803 162.705 0.227027 187.936C2.43208 213.168 22.2155 237.196 49.6156 244.399C59.1113 246.901 69.4145 247.526 77.963 251.959C97.0243 261.843 99.9049 286.139 116.971 298.552C132.235 309.652 154.674 308.278 173.557 303.164C192.44 298.05 210.585 289.748 230.298 288.696C242.053 288.071 253.878 290.071 265.587 288.992C280.51 287.617 294.221 281.335 307.343 274.888C330.162 263.671 354.705 248.674 358.502 225.814C362.85 199.476 337.29 175.592 337.694 148.973C337.88 136.601 343.75 124.69 344.293 112.298C345.07 95.2043 334.728 78.0696 318.283 69.0933C304.827 61.7391 288.429 59.8421 274.368 53.4432C255.307 44.7693 242.193 28.7 226.02 16.2734C196.756 -6.20853 137.927 -8.13988 120.969 28.0127Z" fill="#A500FF"/>
<g clip-path="url(#clip0)">
<path d="M234.061 126.117C235.651 123.847 238.998 123.47 241.61 124.411C244.222 125.352 246.316 127.294 248.485 129.021C250.654 130.747 253.15 132.347 255.923 132.393C257.03 132.393 258.153 132.171 259.245 132.362C260.25 132.574 261.15 133.128 261.792 133.929C262.435 134.73 262.779 135.729 262.768 136.756C254.804 136.3 246.825 137.323 239.235 139.776C235.495 140.983 231.182 142.478 227.876 140.334C226.643 139.529 225.692 138.271 224.313 137.763C221.469 136.716 218.273 139.272 215.39 138.311C214.147 137.888 213.221 136.872 212.123 136.142C208.495 133.731 203.457 134.753 199.622 132.685C199.297 132.545 199.004 132.339 198.764 132.078C198.524 131.818 198.341 131.51 198.228 131.175C198.027 130.218 198.872 129.303 199.813 129.026C200.755 128.749 201.756 128.91 202.732 128.98C205.239 129.148 207.745 128.647 209.995 127.531C210.941 127.058 211.922 126.459 212.969 126.61C215.047 126.907 216.577 129.992 218.445 129.046C217.081 129.735 217.589 125.146 217.831 124.703C218.616 123.288 221.172 122.292 222.647 121.915C226.824 120.832 231.691 122.448 234.061 126.117Z" fill="#A500FF"/>
<path d="M234.061 126.117C235.651 123.847 238.998 123.47 241.61 124.411C244.222 125.352 246.316 127.294 248.485 129.021C250.654 130.747 253.15 132.347 255.923 132.393C257.03 132.393 258.153 132.171 259.245 132.362C260.25 132.574 261.15 133.128 261.792 133.929C262.435 134.73 262.779 135.729 262.768 136.756C254.804 136.3 246.825 137.323 239.235 139.776C235.495 140.983 231.182 142.478 227.876 140.334C226.643 139.529 225.692 138.271 224.313 137.763C221.469 136.716 218.273 139.272 215.39 138.311C214.147 137.888 213.221 136.872 212.123 136.142C208.495 133.731 203.457 134.753 199.622 132.685C199.297 132.545 199.004 132.339 198.764 132.078C198.524 131.818 198.341 131.51 198.228 131.175C198.027 130.218 198.872 129.303 199.813 129.026C200.755 128.749 201.756 128.91 202.732 128.98C205.239 129.148 207.745 128.647 209.995 127.531C210.941 127.058 211.922 126.459 212.969 126.61C215.047 126.907 216.577 129.992 218.445 129.046C217.081 129.735 217.589 125.146 217.831 124.703C218.616 123.288 221.172 122.292 222.647 121.915C226.824 120.832 231.691 122.448 234.061 126.117Z" fill="url(#paint0_linear)"/>
<path d="M205.068 12L151.152 69.4384H176.009V125.951H230.745V68.9753H254.328L205.068 12Z" fill="#A500FF"/>
<path d="M86.2559 121.839L119.527 85.3217L153.896 121.124H132.788V167.229H103.488V121.839H86.2559Z" fill="#A500FF"/>
<path d="M252.798 103.273L286.069 66.7559L320.438 102.559H299.33V148.663H270.03V103.273H252.798Z" fill="#A500FF"/>
<path d="M197.127 171.789C197.127 171.789 197.167 216.836 195.164 221.054C193.589 224.37 179.809 229.252 173.996 231.19C172.421 231.718 171.424 232.025 171.424 232.025L172.542 210.525C172.084 213.436 171.367 216.299 170.398 219.081C169.044 222.76 167.006 226.031 164.147 225.12C158.143 223.213 156.452 222.101 156.452 222.101L153.896 213.042C153.896 213.042 163.508 208.704 163.689 203.434C163.87 198.165 166.945 182.393 175.295 178.91L177.016 178.19L183.644 175.427C183.644 175.427 189.18 158.351 187.982 144.018C186.784 129.685 187.982 127.536 187.982 127.536H196.417C196.417 127.536 196.981 142.216 197.127 146.313C197.272 150.41 197.127 171.789 197.127 171.789Z" fill="#3F3D56"/>
<path d="M190.891 163.943C189.96 167.672 188.49 171.24 187.026 174.793C186.271 176.303 185.818 179.604 184.278 180.581C182.637 181.623 179.613 179.408 178.067 178.714C177.72 178.553 177.363 178.387 177.016 178.21L183.644 175.447C183.644 175.447 189.18 158.371 187.982 144.038C186.784 129.705 187.982 127.556 187.982 127.556H188.837C188.974 127.623 189.101 127.707 189.215 127.808C190.045 128.517 190.166 129.735 190.221 130.827C190.413 133.968 190.599 137.149 189.99 140.234C189.614 141.676 189.317 143.138 189.099 144.612C188.968 146.097 189.23 147.697 190.216 148.814C190.679 149.318 191.293 149.74 191.626 150.354C191.883 150.898 192.012 151.494 192.003 152.096C192.225 156.078 191.85 160.071 190.891 163.943V163.943Z" fill="#25233A"/>
<path d="M176.598 226.65C176.183 227.319 175.845 228.034 175.591 228.779C175.523 229.125 175.417 229.463 175.274 229.786C175.124 230.042 174.936 230.275 174.716 230.475L173.991 231.21C172.416 231.738 171.419 232.045 171.419 232.045L172.537 210.546C172.079 213.456 171.362 216.319 170.393 219.101C170.77 215.357 172.043 209.926 172.094 207.727C172.179 204.573 172.727 201.448 173.719 198.452C174.529 199.021 174.796 200.077 174.947 201.049C175.541 204.823 175.34 208.739 176.457 212.393C177.187 214.783 178.47 217.048 178.636 219.549C178.802 222.05 177.806 224.461 176.598 226.65Z" fill="#25233A"/>
<path d="M175.843 214.652L171.752 218.583C171.54 218.786 171.268 218.915 170.977 218.95L146.351 221.97C146.036 222.011 145.717 221.939 145.449 221.767C145.182 221.594 144.985 221.333 144.892 221.029L139.24 202.634C139.183 202.444 139.168 202.243 139.197 202.046C139.225 201.85 139.296 201.662 139.405 201.495C139.514 201.329 139.658 201.188 139.827 201.083C139.996 200.978 140.185 200.912 140.383 200.888L163.231 198.286C163.545 198.25 163.861 198.325 164.125 198.498C164.389 198.67 164.584 198.93 164.676 199.232L168.405 211.366C168.576 211.935 168.717 212.322 168.717 212.322H174.917C175.186 212.325 175.449 212.407 175.671 212.559C175.892 212.711 176.064 212.926 176.164 213.176C176.263 213.426 176.285 213.7 176.228 213.963C176.171 214.226 176.037 214.466 175.843 214.652V214.652Z" fill="#A500FF"/>
<path d="M187.68 123.595C187.649 123.433 187.657 123.266 187.703 123.108C187.749 122.949 187.833 122.804 187.947 122.684C188.077 122.603 188.231 122.565 188.384 122.576C188.538 122.587 188.684 122.646 188.802 122.745C189.04 122.943 189.229 123.192 189.356 123.475L190.015 124.667C190.169 124.999 190.394 125.293 190.674 125.528C191.153 125.79 191.704 125.889 192.245 125.81L194.932 125.694C195.047 125.681 195.164 125.7 195.269 125.749C195.341 125.81 195.395 125.889 195.427 125.977C195.459 126.065 195.467 126.16 195.45 126.253C195.441 126.69 195.334 127.12 195.138 127.511L192.119 127.622C191.288 127.652 189.99 127.954 189.2 127.702C188.002 127.304 187.735 124.662 187.68 123.595Z" fill="url(#paint1_linear)"/>
<path d="M196.135 271.109C195.853 272.805 193.115 280.641 193.115 280.641L191.052 279.302L188.349 277.551C188.349 277.551 193.266 255.055 192.828 252.755C192.39 250.455 188.968 244.511 188.968 244.511L186.623 298.648L180.584 300.978C180.584 300.978 170.861 242.569 171.409 232.03L195.148 221.059C195.148 221.059 202.194 241.799 203.04 246.182C203.885 250.566 196.422 269.413 196.135 271.109Z" fill="#A500FF"/>
<path d="M187.272 283.57L197.841 290.244C197.841 290.244 199.084 288.2 197.121 285.623C195.159 283.047 193.095 280.641 193.095 280.641L188.319 277.551L187.272 283.57Z" fill="#3F3D56"/>
<path d="M180.598 300.978C180.598 300.978 177.211 307.335 178.48 310.722C179.748 314.109 182.611 309.967 184.272 307.476C185.681 305.352 187.262 300.978 187.262 300.978L186.622 298.648L180.598 300.978Z" fill="#3F3D56"/>
<path d="M198.219 249.715L191.052 279.302L188.35 277.551C188.35 277.551 193.267 255.055 192.829 252.755C192.391 250.455 188.969 244.511 188.969 244.511C188.969 244.511 191.757 239.569 192.748 240.626C193.74 241.683 198.219 249.715 198.219 249.715Z" fill="url(#paint2_linear)"/>
<path d="M175.496 230.143L181.847 300.495L180.599 300.999C180.599 300.999 170.891 242.322 171.425 232.05L175.496 230.143Z" fill="url(#paint3_linear)"/>
<path d="M174.907 212.302L170.141 216.701L168.404 211.366C168.575 211.935 168.716 212.322 168.716 212.322L174.907 212.302Z" fill="url(#paint4_linear)"/>
<path d="M139.24 202.654L161.943 200.173C162.327 200.131 162.715 200.22 163.042 200.427C163.37 200.634 163.617 200.945 163.745 201.31L169.99 219.071L146.336 221.99L139.24 202.654Z" fill="url(#paint5_linear)"/>
<path d="M182.873 170.988C182.289 172.287 183.643 175.447 183.643 175.447C183.643 175.447 185.108 178.251 184.614 181.079C184.614 181.215 184.559 181.356 184.529 181.492C183.794 184.456 174.383 181.321 174.67 177.179C174.957 173.037 170.377 162.478 170.377 162.478C173.064 150.616 181.872 154.375 182.657 155.01C183.442 155.644 186.371 165.02 185.571 167.148C185.343 167.765 185.015 168.34 184.599 168.85C183.945 169.675 183.256 170.138 182.873 170.988Z" fill="url(#paint6_linear)"/>
<path d="M182.657 155.02C182.657 155.02 183.976 151.738 182.657 150.571C181.339 149.403 179.135 149.091 176.643 148.985C174.152 148.88 173.372 148.452 171.424 150.571C169.477 152.69 168.822 156.006 167.615 156.575C166.407 157.143 165.35 159.056 165.984 160.943C166.618 162.83 168.208 165.835 168.526 165.936C168.843 166.036 171.017 168.366 171.122 169.745C171.228 171.124 174.031 171.789 174.031 171.789L173.875 166.353C173.875 166.353 173.558 167.783 172.235 166.565C170.911 165.347 172.869 163.918 173.025 163.973C173.181 164.028 171.515 161.185 172.043 159.796C172.572 158.407 175.607 150.903 182.657 155.02Z" fill="#3F3D56"/>
<path d="M184.615 181.099C184.531 181.311 184.404 181.503 184.242 181.663C183.991 181.874 183.687 182.014 183.363 182.067C183.039 182.12 182.706 182.085 182.4 181.965C181.794 181.711 181.263 181.308 180.855 180.792C179.933 179.724 179.266 178.461 178.904 177.097C178.542 175.734 178.495 174.305 178.767 172.921C178.852 172.417 179.037 171.934 179.31 171.502C179.975 170.535 181.218 170.188 182.305 169.74C183.392 169.292 184.187 168.563 184.6 168.87C183.946 169.685 183.256 170.148 182.874 170.998C182.29 172.297 183.644 175.457 183.644 175.457C183.644 175.457 185.108 178.251 184.615 181.099Z" fill="url(#paint7_linear)"/>
<path d="M234.172 156.691C233.166 161.22 235.904 166.253 240.242 167.838C243.891 169.172 247.927 168.2 251.817 168.205C258.621 168.205 265.088 171.285 271.877 171.728C276.372 172.016 280.866 171.15 284.932 169.212C287.283 168.09 289.542 166.6 292.124 166.273C294.288 165.996 296.548 166.57 298.641 165.946C302.2 164.889 303.976 160.364 302.693 156.887C301.409 153.409 297.741 151.18 294.042 150.848C290.448 150.546 286.734 151.774 283.282 150.737C279.421 149.579 276.774 145.845 272.939 144.597C267.323 142.775 261.641 146.791 257.096 150.566C256.611 149.203 255.728 148.018 254.561 147.162C253.395 146.306 251.999 145.819 250.554 145.765C247.585 145.704 244.65 148.17 241.953 149.287C238.36 150.827 235.129 152.478 234.172 156.691Z" fill="#A500FF"/>
<path d="M234.172 156.691C233.166 161.22 235.904 166.253 240.242 167.838C243.891 169.172 247.927 168.2 251.817 168.205C258.621 168.205 265.088 171.285 271.877 171.728C276.372 172.016 280.866 171.15 284.932 169.212C287.283 168.09 289.542 166.6 292.124 166.273C294.288 165.996 296.548 166.57 298.641 165.946C302.2 164.889 303.976 160.364 302.693 156.887C301.409 153.409 297.741 151.18 294.042 150.848C290.448 150.546 286.734 151.774 283.282 150.737C279.421 149.579 276.774 145.845 272.939 144.597C267.323 142.775 261.641 146.791 257.096 150.566C256.611 149.203 255.728 148.018 254.561 147.162C253.395 146.306 251.999 145.819 250.554 145.765C247.585 145.704 244.65 148.17 241.953 149.287C238.36 150.827 235.129 152.478 234.172 156.691Z" fill="url(#paint8_linear)"/>
<path d="M60.2016 164.149C59.1951 168.678 61.9329 173.711 66.2761 175.296C69.9248 176.63 73.956 175.654 77.8513 175.664C84.6505 175.664 91.1176 178.739 97.9067 179.187C102.403 179.474 106.899 178.608 110.967 176.67C113.317 175.553 115.572 174.058 118.158 173.731C120.322 173.459 122.582 174.033 124.676 173.409C128.229 172.352 130.01 167.823 128.727 164.35C127.444 160.878 123.77 158.638 120.076 158.311C116.482 158.004 112.768 159.232 109.316 158.2C105.451 157.043 102.804 153.303 98.9736 152.06C93.3571 150.234 87.6752 154.255 83.1307 158.024C82.644 156.663 81.7607 155.478 80.5946 154.623C79.4285 153.768 78.033 153.282 76.5881 153.228C73.6188 153.168 70.6848 155.629 67.9872 156.751C64.3888 158.286 61.1679 159.962 60.2016 164.149Z" fill="#A500FF"/>
<path d="M60.2016 164.149C59.1951 168.678 61.9329 173.711 66.2761 175.296C69.9248 176.63 73.956 175.654 77.8513 175.664C84.6505 175.664 91.1176 178.739 97.9067 179.187C102.403 179.474 106.899 178.608 110.967 176.67C113.317 175.553 115.572 174.058 118.158 173.731C120.322 173.459 122.582 174.033 124.676 173.409C128.229 172.352 130.01 167.823 128.727 164.35C127.444 160.878 123.77 158.638 120.076 158.311C116.482 158.004 112.768 159.232 109.316 158.2C105.451 157.043 102.804 153.303 98.9736 152.06C93.3571 150.234 87.6752 154.255 83.1307 158.024C82.644 156.663 81.7607 155.478 80.5946 154.623C79.4285 153.768 78.033 153.282 76.5881 153.228C73.6188 153.168 70.6848 155.629 67.9872 156.751C64.3888 158.286 61.1679 159.962 60.2016 164.149Z" fill="url(#paint9_linear)"/>
<path d="M154.625 221.94C155.137 222.044 155.662 222.062 156.18 221.995L158.983 221.799C159.345 221.785 159.703 221.726 160.05 221.623C160.358 221.509 160.633 221.323 160.853 221.079C161.072 220.835 161.228 220.541 161.308 220.223C161.336 220.13 161.336 220.03 161.308 219.937C161.213 219.65 160.805 219.67 160.538 219.841C160.271 220.012 160.09 220.279 159.793 220.344C159.634 220.358 159.473 220.339 159.32 220.289L157.735 219.886C157.646 219.856 157.552 219.846 157.458 219.856C157.111 219.911 157.081 220.395 157.136 220.742C157.029 220.6 156.892 220.483 156.734 220.4C156.577 220.318 156.403 220.271 156.225 220.264C156.047 220.265 155.876 220.336 155.75 220.463C155.624 220.589 155.552 220.76 155.551 220.938L154.927 220.435C154.841 220.369 154.725 220.299 154.63 220.354C154.584 220.391 154.552 220.443 154.539 220.5L154.328 221.039C154.383 220.898 153.533 220.535 153.477 221.039C153.447 221.472 154.338 221.864 154.625 221.94Z" fill="url(#paint10_linear)"/>
</g>
<defs>
<linearGradient id="paint0_linear" x1="234.172" y1="119.861" x2="227.765" y2="144.069" gradientUnits="userSpaceOnUse">
<stop stop-color="white" stop-opacity="0"/>
<stop offset="0.06" stop-color="white" stop-opacity="0.13"/>
<stop offset="0.16" stop-color="white" stop-opacity="0.33"/>
<stop offset="0.26" stop-color="white" stop-opacity="0.51"/>
<stop offset="0.37" stop-color="white" stop-opacity="0.66"/>
<stop offset="0.48" stop-color="white" stop-opacity="0.79"/>
<stop offset="0.59" stop-color="white" stop-opacity="0.88"/>
<stop offset="0.71" stop-color="white" stop-opacity="0.95"/>
<stop offset="0.84" stop-color="white" stop-opacity="0.99"/>
<stop offset="1" stop-color="white"/>
</linearGradient>
<linearGradient id="paint1_linear" x1="187.675" y1="125.181" x2="195.45" y2="125.181" gradientUnits="userSpaceOnUse">
<stop stop-color="#ECC4D7"/>
<stop offset="0.42" stop-color="#EFD4D1"/>
<stop offset="1" stop-color="#F2EAC9"/>
</linearGradient>
<linearGradient id="paint2_linear" x1="209.935" y1="251.507" x2="113.201" y2="295.784" gradientUnits="userSpaceOnUse">
<stop stop-opacity="0.07"/>
<stop offset="0.08" stop-opacity="0.25"/>
<stop offset="1"/>
</linearGradient>
<linearGradient id="paint3_linear" x1="3927.57" y1="36200.7" x2="5994" y2="36156.7" gradientUnits="userSpaceOnUse">
<stop stop-opacity="0.07"/>
<stop offset="0.08" stop-opacity="0.25"/>
<stop offset="1"/>
</linearGradient>
<linearGradient id="paint4_linear" x1="2628.08" y1="2308.96" x2="2374.21" y2="2576.06" gradientUnits="userSpaceOnUse">
<stop stop-opacity="0.07"/>
<stop offset="0.08" stop-opacity="0.25"/>
<stop offset="1"/>
</linearGradient>
<linearGradient id="paint5_linear" x1="156.437" y1="219.091" x2="164.57" y2="255.845" gradientUnits="userSpaceOnUse">
<stop stop-opacity="0.07"/>
<stop offset="0.52" stop-opacity="0.83"/>
<stop offset="0.56" stop-opacity="0.87"/>
<stop offset="1"/>
</linearGradient>
<linearGradient id="paint6_linear" x1="5856.91" y1="9072.25" x2="6323.89" y2="9072.25" gradientUnits="userSpaceOnUse">
<stop stop-color="#ECC4D7"/>
<stop offset="0.42" stop-color="#EFD4D1"/>
<stop offset="1" stop-color="#F2EAC9"/>
</linearGradient>
<linearGradient id="paint7_linear" x1="2543.71" y1="4282.21" x2="3171.12" y2="4729.52" gradientUnits="userSpaceOnUse">
<stop stop-color="#ECC4D7"/>
<stop offset="0.42" stop-color="#EFD4D1"/>
<stop offset="1" stop-color="#F2EAC9"/>
</linearGradient>
<linearGradient id="paint8_linear" x1="271.545" y1="142.881" x2="263.951" y2="183.228" gradientUnits="userSpaceOnUse">
<stop offset="0.02" stop-color="white" stop-opacity="0"/>
<stop offset="0.06" stop-color="white" stop-opacity="0.13"/>
<stop offset="0.13" stop-color="white" stop-opacity="0.33"/>
<stop offset="0.2" stop-color="white" stop-opacity="0.51"/>
<stop offset="0.27" stop-color="white" stop-opacity="0.66"/>
<stop offset="0.35" stop-color="white" stop-opacity="0.79"/>
<stop offset="0.43" stop-color="white" stop-opacity="0.88"/>
<stop offset="0.51" stop-color="white" stop-opacity="0.95"/>
<stop offset="0.6" stop-color="white" stop-opacity="0.99"/>
<stop offset="0.71" stop-color="white"/>
</linearGradient>
<linearGradient id="paint9_linear" x1="15261.8" y1="7662.79" x2="15272.7" y2="9716.91" gradientUnits="userSpaceOnUse">
<stop stop-color="white" stop-opacity="0"/>
<stop offset="0.06" stop-color="white" stop-opacity="0.13"/>
<stop offset="0.16" stop-color="white" stop-opacity="0.33"/>
<stop offset="0.26" stop-color="white" stop-opacity="0.51"/>
<stop offset="0.37" stop-color="white" stop-opacity="0.66"/>
<stop offset="0.48" stop-color="white" stop-opacity="0.79"/>
<stop offset="0.59" stop-color="white" stop-opacity="0.88"/>
<stop offset="0.71" stop-color="white" stop-opacity="0.95"/>
<stop offset="0.84" stop-color="white" stop-opacity="0.99"/>
<stop offset="1" stop-color="white"/>
</linearGradient>
<linearGradient id="paint10_linear" x1="2802.61" y1="1182.04" x2="2925.03" y2="1182.04" gradientUnits="userSpaceOnUse">
<stop stop-color="#ECC4D7"/>
<stop offset="0.42" stop-color="#EFD4D1"/>
<stop offset="1" stop-color="#F2EAC9"/>
</linearGradient>
<clipPath id="clip0">
<rect width="260.438" height="300" fill="white" transform="translate(60 12)"/>
</clipPath>
</defs>
</svg>
