<svg width="766" height="582" viewBox="0 0 766 582" fill="none" xmlns="http://www.w3.org/2000/svg">
<path opacity="0.24" d="M96.0827 476.183C84.1128 462.139 73.7728 446.329 68.4137 428.728C56.4439 389.294 70.7347 346.953 88.4026 309.635C105.353 273.888 135.096 227.354 135.708 186.933C135.826 179.639 133.909 172.474 132.762 165.257C130.402 149.545 131.678 133.504 136.494 118.358C141.309 103.211 149.537 89.3604 160.548 77.8613C178.167 60.0893 201.574 49.1542 226.565 47.0204C304.89 39.9203 389.553 71.9683 439.01 78.4843C495.978 85.9998 554.263 68.1002 611.009 77.1863C661.509 85.247 710.445 61.7659 736.758 105.431C763.071 149.096 765.809 259.246 746.185 306.273C738.935 323.653 728.556 339.814 723.64 357.986C718.242 377.975 719.82 399.198 723.406 419.59C726.261 435.867 730.382 452.326 728.178 468.707C725.57 488.177 714.135 505.544 700.144 519.394C661.418 557.737 603.524 571.834 549.008 568.537C494.492 565.24 442.231 546.471 391.235 527.091C378.978 522.418 366.657 517.668 353.709 515.5C338.909 513.034 323.719 514.033 308.815 515.305C266.934 518.823 223.135 531.608 181.502 532.296C148.865 532.842 115.824 499.366 96.0827 476.183Z" fill="#CEBDFF"/>
<path d="M641.459 315.924C643.356 310.825 642.652 305.134 643.486 299.746C643.779 297.173 644.729 294.72 646.245 292.625C647.511 291.058 649.199 289.89 651.108 289.263C653.017 288.635 655.066 288.574 657.008 289.086C662.139 290.531 665.401 295.889 665.976 301.205C666.55 306.52 664.984 311.807 663.26 316.862C659.652 327.363 655.341 337.604 651.662 348.076C648.63 356.743 646.676 367.951 653.746 373.772C655.557 375.217 657.827 376.214 659.365 377.99C660.633 379.621 661.45 381.559 661.736 383.609C664.51 398.357 654.062 412.685 641.617 420.89C637.479 423.605 632.866 425.945 627.937 426.075C620.148 426.263 613.063 420.702 609.456 413.754C605.849 406.806 605.145 398.732 605.289 390.903C605.616 380.944 606.528 371.014 608.019 361.163C609.054 353.305 610.117 345.274 613.049 338.052C615.276 332.477 619.86 323.608 626.241 322.308C632.621 321.008 638.025 325.168 641.459 315.924Z" fill="#2A94F4"/>
<path d="M638.772 315.62C640.669 310.507 639.965 304.831 640.798 299.443C641.091 296.865 642.041 294.407 643.557 292.307C644.825 290.743 646.514 289.578 648.423 288.953C650.332 288.328 652.38 288.269 654.321 288.783C659.451 290.227 662.713 295.586 663.288 300.887C663.863 306.188 662.297 311.489 660.572 316.545C656.965 327.046 652.654 337.287 648.975 347.773C645.943 356.44 643.988 367.634 651.059 373.455C652.869 374.899 655.14 375.91 656.678 377.687C657.945 379.313 658.762 381.246 659.049 383.291C661.822 398.053 651.375 412.368 638.93 420.586C634.791 423.302 630.178 425.642 625.249 425.757C617.46 425.96 610.376 420.384 606.769 413.451C603.162 406.518 602.457 398.414 602.601 390.586C602.93 380.627 603.842 370.696 605.332 360.845C606.366 352.988 607.43 345.043 610.361 337.734C612.589 332.173 617.173 323.377 623.568 322.005C629.963 320.633 635.337 324.836 638.772 315.62Z" fill="url(#paint0_linear)"/>
<path d="M655.772 249.971C640.827 274.902 645.009 308.571 627.821 332.014C622.605 339.135 615.664 344.898 610.979 352.395C606.294 359.892 604.397 370.262 609.801 377.239C624.344 368.76 629.416 350.633 636.659 335.351C637.156 334.067 637.967 332.929 639.016 332.043C642.939 329.255 647.811 334.715 648.242 339.525C649.406 352.337 638.599 362.766 634.13 374.812C628.525 389.921 632.535 408.872 621.901 420.947C619.745 423.388 616.842 425.468 613.58 425.483C611.199 425.343 608.898 424.57 606.912 423.244C599.095 418.665 592.456 412.304 587.532 404.675C582.607 397.046 579.534 388.36 578.559 379.319C577.021 363.921 578.818 345.866 588.202 333.603C595.861 323.593 595.617 312.977 600.302 300.959C605.201 288.489 612.862 277.306 622.705 268.258C627.397 263.939 632.572 260.183 638.125 257.063C641.258 255.344 654.378 252.369 655.772 249.971Z" fill="#2A94F4"/>
<path d="M653.76 249.971C638.815 274.902 642.982 308.571 625.81 332.014C620.593 339.135 613.652 344.898 608.967 352.395C604.283 359.892 602.386 370.262 607.775 377.239C622.332 368.76 627.39 350.633 634.648 335.351C635.139 334.064 635.95 332.925 637.004 332.043C640.927 329.255 645.799 334.715 646.23 339.525C647.394 352.337 636.588 362.766 632.118 374.812C626.514 389.921 630.523 408.872 619.889 420.947C617.733 423.388 614.816 425.468 611.568 425.483C609.184 425.341 606.879 424.568 604.886 423.244C597.072 418.66 590.437 412.299 585.513 404.67C580.589 397.042 577.513 388.359 576.533 379.319C575.01 363.921 576.806 345.866 586.176 333.603C593.849 323.593 593.605 312.977 598.29 300.959C603.189 288.489 610.851 277.306 620.694 268.258C625.385 263.939 630.56 260.183 636.113 257.063C639.26 255.344 652.366 252.369 653.76 249.971Z" fill="url(#paint1_linear)"/>
<path d="M577.122 117.446H192.925C180.313 117.446 170.09 127.722 170.09 140.398V373.715C170.09 386.391 180.313 396.667 192.925 396.667H577.122C589.733 396.667 599.957 386.391 599.957 373.715V140.398C599.957 127.722 589.733 117.446 577.122 117.446Z" fill="#E5E5E5"/>
<path d="M566.439 129H203.561C191.653 129 182 138.456 182 150.121V364.879C182 376.544 191.653 386 203.561 386H566.439C578.347 386 588 376.544 588 364.879V150.121C588 138.456 578.347 129 566.439 129Z" fill="#34306A"/>
<path d="M183.857 394.558L103.942 455.035H663.417L585.285 393.662L183.857 394.558Z" fill="#2A94F4"/>
<path d="M183.857 394.558L103.942 455.035H663.417L585.285 393.662L183.857 394.558Z" fill="#E5E5E5"/>
<path d="M126.835 477.15L103.942 455.036H663.417L642.752 478.507L126.835 477.15Z" fill="#2A94F4"/>
<path d="M126.835 477.15L103.942 455.036H663.417L642.752 478.507L126.835 477.15Z" fill="url(#paint2_linear)"/>
<path opacity="0.58" d="M320.809 445.56L344.606 426.595L431.721 426.147L456.869 445.098L320.809 445.56Z" fill="#C2C2C2"/>
<path opacity="0.58" d="M155.13 423.143L607.731 422.536L583.488 402.675H182.966L155.13 423.143Z" fill="#C2C2C2"/>
<ellipse cx="359.834" cy="260.604" rx="92.2478" ry="92.2478" fill="#0F8DFF"/>
<g clip-path="url(#clip0)">
<g clip-path="url(#clip1)">
<path d="M556.42 565.938C551.236 565.938 546.002 564.93 541.006 562.855C525.994 556.629 516.299 542.113 516.299 525.879V433.957C428.682 433.957 346.314 399.84 284.361 337.887C222.408 275.934 188.291 193.562 188.291 105.949V73.9531C188.291 62.9062 197.244 53.9531 208.291 53.9531C219.338 53.9531 228.291 62.9062 228.291 73.9531V105.949C228.291 264.758 357.49 393.957 516.295 393.957C538.354 393.957 556.299 411.898 556.299 433.957V525.879V525.891C556.33 525.906 556.369 525.922 556.404 525.934C556.416 525.918 556.432 525.906 556.447 525.891L654.408 428.137C658.201 424.352 660.291 419.313 660.291 413.957C660.291 408.598 658.201 403.562 654.408 399.777L556.447 302.02C556.432 302.004 556.416 301.992 556.4 301.977C556.369 301.988 556.33 302.004 556.299 302.02V302.031V323.953C556.299 335 547.342 343.953 536.299 343.953C525.252 343.953 516.299 335 516.299 323.953V302.031C516.299 285.797 525.994 271.281 541.006 265.055C556.033 258.82 573.186 262.215 584.701 273.707L682.662 371.461C694.029 382.805 700.291 397.898 700.291 413.957C700.291 430.016 694.029 445.105 682.662 456.449L584.701 554.203C577.018 561.875 566.818 565.938 556.42 565.938V565.938Z" fill="black"/>
</g>
</g>
<path d="M420.733 300.242L446.634 343.483H394.831L420.733 300.242Z" fill="#0F8DFF"/>
<g clip-path="url(#clip2)">
<path d="M357.521 211.441L345.095 213.632C343.378 213.935 342.217 215.473 342.499 217.072C342.781 218.67 344.398 219.719 346.115 219.416L358.541 217.225C360.258 216.923 361.419 215.384 361.137 213.785C360.855 212.187 359.238 211.138 357.521 211.441Z" fill="white"/>
<path d="M373.067 198.759L326.792 206.919C320.414 208.043 316.138 214.149 317.263 220.527L333.582 313.077C334.707 319.455 340.812 323.73 347.191 322.606L393.465 314.446C399.844 313.322 404.119 307.216 402.994 300.838L386.675 208.288C385.551 201.91 379.445 197.634 373.067 198.759ZM397.21 301.858C397.773 305.053 395.641 308.099 392.446 308.662L346.171 316.821C342.976 317.385 339.93 315.252 339.366 312.057L323.047 219.507C322.484 216.312 324.617 213.266 327.812 212.703L374.087 204.543C377.282 203.98 380.328 206.113 380.891 209.308L397.21 301.858Z" fill="white"/>
<rect x="321.413" y="241.559" width="54.0515" height="33.8723" transform="rotate(43 321.413 241.559)" fill="#0F8DFF"/>
<rect x="363.173" y="246.712" width="54.0515" height="33.8723" transform="rotate(-43 363.173 246.712)" fill="#0F8DFF"/>
</g>
<path d="M408.348 240.798L353.784 295.358C349.743 299.399 343.189 299.399 339.145 295.358L310.978 267.189C306.936 263.148 306.936 256.593 310.978 252.551C315.021 248.508 321.575 248.508 325.616 252.549L346.466 273.4L393.708 226.158C397.751 222.116 404.305 222.119 408.346 226.158C412.387 230.2 412.387 236.753 408.348 240.798Z" fill="white"/>
<path d="M408.348 240.798L353.784 295.358C349.743 299.399 343.189 299.399 339.145 295.358L310.978 267.189C306.936 263.148 306.936 256.593 310.978 252.551C315.021 248.508 321.575 248.508 325.616 252.549L346.466 273.4L393.708 226.158C397.751 222.116 404.305 222.119 408.346 226.158C412.387 230.2 412.387 236.753 408.348 240.798Z" stroke="#0F8DFF"/>
<path d="M442.998 452.666C441.925 452.666 440.842 452.486 439.808 452.116C436.701 451.004 434.695 448.412 434.695 445.513V429.099C416.563 429.099 399.518 423.006 386.697 411.943C373.877 400.88 366.816 386.171 366.816 370.526V364.813C366.816 362.84 368.669 361.241 370.955 361.241C373.241 361.241 375.094 362.84 375.094 364.813V370.526C375.094 398.885 401.831 421.956 434.694 421.956C439.259 421.956 442.973 425.16 442.973 429.099V445.513V445.515C442.979 445.518 442.987 445.521 442.994 445.523C442.997 445.52 443 445.518 443.003 445.515L463.275 428.059C464.06 427.383 464.493 426.484 464.493 425.527C464.493 424.57 464.06 423.671 463.275 422.995L443.003 405.539C443 405.536 442.997 405.534 442.994 405.531C442.987 405.533 442.979 405.536 442.973 405.539V405.541V409.455C442.973 411.428 441.119 413.027 438.834 413.027C436.548 413.027 434.695 411.428 434.695 409.455V405.541C434.695 402.642 436.701 400.05 439.808 398.938C442.918 397.824 446.467 398.431 448.85 400.483L469.122 417.939C471.475 419.964 472.771 422.66 472.771 425.527C472.771 428.395 471.475 431.089 469.122 433.115L448.85 450.571C447.26 451.941 445.149 452.666 442.998 452.666V452.666Z" fill="#0F8DFF"/>
<rect x="480.541" y="91.4248" width="214.069" height="400.264" rx="20" fill="#E5E5E5"/>
<rect x="489.461" y="100.345" width="196.23" height="383.54" rx="20" fill="white"/>
<rect x="498.378" y="394.69" width="178.391" height="46.8276" rx="23.4138" fill="#4A6988"/>
<g clip-path="url(#clip3)">
<path d="M531.272 422.405C530.625 422.908 529.705 422.865 529.116 422.276L524.316 417.475C523.727 416.886 523.683 415.952 524.186 415.319L518.107 409.226C515.462 412.273 515.606 416.9 518.495 419.789L526.802 428.096C529.747 431.042 534.427 431.071 537.366 428.485L531.272 422.405Z" fill="white"/>
<path d="M525.695 410.735L522.649 407.673C521.844 406.869 520.421 406.869 519.602 407.673L519.099 408.191L525.192 414.285L525.695 413.782C526.112 413.365 526.328 412.833 526.328 412.258C526.328 411.683 526.112 411.137 525.695 410.735Z" fill="white"/>
<path d="M538.918 423.943L535.857 420.896C535.052 420.076 533.629 420.076 532.81 420.896L532.307 421.399L538.4 427.493L538.918 426.99C539.32 426.587 539.536 426.041 539.536 425.466C539.536 424.891 539.32 424.345 538.918 423.943Z" fill="white"/>
<path d="M528.527 405.839C527.58 405.839 527.576 407.267 528.527 407.267C534.471 407.267 539.316 412.111 539.316 418.055C539.316 419.003 540.743 419.006 540.743 418.055C540.743 411.319 535.263 405.839 528.527 405.839Z" fill="white"/>
<path d="M528.527 408.713C527.58 408.713 527.576 410.141 528.527 410.141C532.886 410.141 536.441 413.697 536.441 418.055C536.441 419.003 537.869 419.007 537.869 418.055C537.869 412.904 533.678 408.713 528.527 408.713Z" fill="white"/>
<path d="M528.527 411.588C527.58 411.588 527.576 413.016 528.527 413.016C531.3 413.016 533.567 415.282 533.567 418.055C533.567 419.003 534.994 419.007 534.994 418.055C534.994 414.489 532.093 411.588 528.527 411.588Z" fill="white"/>
<path d="M528.527 414.462C527.58 414.462 527.576 415.9 528.527 415.9C529.716 415.9 530.683 416.867 530.683 418.055C530.683 419.003 532.12 419.007 532.12 418.055C532.12 416.074 530.508 414.462 528.527 414.462Z" fill="white"/>
</g>
<rect x="498.378" y="341.174" width="178.391" height="46.8276" rx="23.4138" fill="#29DA65"/>
<rect x="554.126" y="354.551" width="96" height="18.954" fill="#4CF786"/>
<rect x="554" y="408" width="96" height="19" fill="#5E84A8"/>
<g clip-path="url(#clip4)">
<path d="M528.485 351.208H528.479C521.717 351.208 516.218 356.709 516.218 363.472C516.218 366.155 517.082 368.642 518.553 370.661L517.024 375.217L521.738 373.71C523.678 374.995 525.991 375.737 528.485 375.737C535.247 375.737 540.747 370.235 540.747 363.472C540.747 356.71 535.247 351.208 528.485 351.208ZM535.622 368.527C535.326 369.362 534.151 370.055 533.215 370.258C532.574 370.394 531.737 370.503 528.919 369.335C525.315 367.842 522.994 364.179 522.813 363.941C522.64 363.704 521.357 362.002 521.357 360.242C521.357 358.482 522.25 357.625 522.611 357.257C522.906 356.955 523.395 356.817 523.865 356.817C524.016 356.817 524.153 356.825 524.275 356.831C524.636 356.847 524.817 356.868 525.054 357.437C525.35 358.15 526.071 359.91 526.157 360.09C526.244 360.271 526.331 360.517 526.209 360.754C526.094 361 525.992 361.108 525.812 361.317C525.631 361.525 525.459 361.685 525.278 361.909C525.113 362.103 524.925 362.312 525.134 362.672C525.342 363.025 526.063 364.201 527.124 365.145C528.493 366.364 529.603 366.753 530 366.919C530.296 367.041 530.648 367.012 530.864 366.782C531.139 366.486 531.478 365.996 531.823 365.513C532.068 365.166 532.378 365.123 532.703 365.246C533.034 365.361 534.786 366.227 535.146 366.407C535.507 366.588 535.744 366.673 535.832 366.825C535.917 366.977 535.917 367.69 535.622 368.527Z" fill="white"/>
</g>
<path d="M542.383 94.7705H635.146V102.61C635.146 108.132 630.669 112.61 625.146 112.61H552.383C546.86 112.61 542.383 108.132 542.383 102.61V94.7705Z" fill="#E5E5E5"/>
<g clip-path="url(#clip5)">
<path d="M566.11 224.719C571.216 235.987 582.147 240.891 587.573 240.891C591.14 240.891 597.088 238.769 602.195 234.114C600.327 234.244 598.332 234.31 596.199 234.31C595.699 234.31 595.174 234.306 594.612 234.297C593.537 235.125 592.206 235.592 590.824 235.592L586.28 235.592C582.855 235.592 580.069 232.806 580.069 229.381C580.069 225.957 582.855 223.171 586.28 223.171L590.824 223.171C592.465 223.171 594.001 223.811 595.139 224.914C595.518 224.919 595.891 224.921 596.257 224.921C602.123 224.921 605.988 224.382 608.517 223.734C608.189 222.935 608.011 222.062 608.011 221.15L608.011 205.404C608.011 203.766 608.619 202.196 609.67 200.983C609.109 196.616 608.091 193.282 606.571 190.823C603.44 185.755 597.403 183.395 587.573 183.395C579.418 183.395 573.787 185.088 570.357 188.57C567.699 191.27 566.159 195.122 565.438 200.939C566.513 202.156 567.135 203.743 567.135 205.404L567.135 221.15C567.135 222.46 566.759 223.683 566.11 224.719Z" fill="#30485F"/>
<path d="M554.938 224.867L560.389 224.867C562.441 224.867 564.106 223.203 564.106 221.15L564.106 205.404C564.106 204.032 563.361 202.837 562.256 202.193C563.473 189.3 568.449 180.365 587.573 180.365C598.556 180.365 605.412 183.183 609.149 189.231C611.323 192.75 612.369 197.296 612.858 202.213C611.77 202.861 611.04 204.046 611.04 205.404L611.04 221.15C611.04 222.92 612.279 224.398 613.935 224.773C611.532 226.344 606.558 227.95 596.257 227.95C595.422 227.95 594.553 227.939 593.647 227.917C593.117 226.898 592.053 226.2 590.824 226.2L586.28 226.2C584.524 226.2 583.099 227.624 583.099 229.381C583.099 231.138 584.524 232.562 586.28 232.562L590.824 232.562C591.886 232.562 592.824 232.04 593.401 231.241C594.358 231.265 595.294 231.28 596.2 231.28C607.811 231.28 615.192 229.298 618.181 225.366C618.308 225.199 618.424 225.032 618.53 224.867L620.209 224.867C622.262 224.867 623.926 223.203 623.926 221.15L623.926 205.404C623.926 203.351 622.262 201.687 620.209 201.687L618.159 201.687C617.582 195.747 616.303 190.69 613.673 186.435C608.939 178.772 600.401 175.047 587.573 175.047C574.744 175.047 566.207 178.772 561.472 186.435C558.842 190.691 557.564 195.747 556.987 201.687L554.938 201.687C552.885 201.687 551.22 203.351 551.22 205.404L551.22 221.15C551.22 223.203 552.885 224.867 554.938 224.867Z" fill="#30485F"/>
<path d="M632.513 271.169C631.277 263.484 628.733 253.586 623.63 250.068C620.15 247.669 608.003 241.178 602.815 238.407L602.706 238.349C602.112 238.032 601.388 238.095 600.859 238.511C598.138 240.647 595.159 242.086 592.005 242.788C591.447 242.912 590.989 243.308 590.787 243.842L587.573 252.312L584.359 243.842C584.156 243.308 583.699 242.912 583.141 242.788C579.987 242.086 577.008 240.647 574.286 238.511C573.757 238.095 573.032 238.031 572.439 238.349C567.31 241.089 555.004 247.716 551.53 250.058C545.654 254.017 543.087 268.339 542.632 271.169C542.587 271.45 542.613 271.737 542.708 272.005C542.918 272.599 548.309 286.541 587.573 286.541C626.836 286.541 632.227 272.599 632.437 272.006C632.532 271.737 632.559 271.45 632.513 271.169ZM614.232 262.345L598.68 262.345L598.68 259.069L614.232 259.069L614.232 262.345Z" fill="#30485F"/>
</g>
<defs>
<linearGradient id="paint0_linear" x1="647.897" y1="351.168" x2="554.852" y2="422.943" gradientUnits="userSpaceOnUse">
<stop stop-color="#010101" stop-opacity="0"/>
<stop offset="0.95" stop-color="#010101"/>
</linearGradient>
<linearGradient id="paint1_linear" x1="37068.2" y1="41166.9" x2="24489.7" y2="44568.5" gradientUnits="userSpaceOnUse">
<stop stop-color="#010101" stop-opacity="0"/>
<stop offset="0.95" stop-color="#010101"/>
</linearGradient>
<linearGradient id="paint2_linear" x1="147727" y1="8517.37" x2="147739" y2="5956.4" gradientUnits="userSpaceOnUse">
<stop stop-color="#C4C4C4"/>
<stop offset="0.95" stop-color="#97A3AF"/>
</linearGradient>
<clipPath id="clip0">
<rect width="59.8169" height="46.8446" fill="white" transform="translate(390.824 300.242)"/>
</clipPath>
<clipPath id="clip1">
<rect width="512" height="512" fill="white" transform="translate(188.291 52.9531)"/>
</clipPath>
<clipPath id="clip2">
<rect width="117.472" height="117.472" fill="white" transform="translate(292.086 213.039) rotate(-10)"/>
</clipPath>
<clipPath id="clip3">
<rect width="24.5287" height="24.5287" fill="white" transform="translate(516.218 405.839)"/>
</clipPath>
<clipPath id="clip4">
<rect width="24.5287" height="24.5287" fill="white" transform="translate(516.218 351.208)"/>
</clipPath>
<clipPath id="clip5">
<rect width="111.494" height="111.494" fill="white" transform="translate(531.826 175.047)"/>
</clipPath>
</defs>
</svg>
