<svg width="1040" height="220" viewBox="0 0 1040 220" fill="none" xmlns="http://www.w3.org/2000/svg">
<g filter="url(#filter0_d)">
<rect x="670" y="6" width="360" height="200" rx="10" fill="#45FFBC"/>
<path d="M295 16C295 10.4772 299.477 6 305 6H673.645C677.693 6 681.342 8.44019 682.887 12.1812L718.483 98.3289C719.457 100.687 719.494 103.328 718.584 105.711L682.788 199.564C681.31 203.439 677.593 206 673.445 206H305C299.477 206 295 201.523 295 196V16Z" fill="#17FEAB"/>
<path d="M10 16C10 10.4772 14.4772 6 20 6H328.392C332.645 6 336.432 8.68959 337.833 12.7047L367.894 98.8319C368.612 100.888 368.639 103.121 367.971 105.194L337.727 199.067C336.396 203.199 332.55 206 328.209 206H20C14.4772 206 10 201.523 10 196V16Z" fill="#0FEEB8"/>
<path d="M419.559 81.9824V91H414.285V65.4062H424.27C426.191 65.4062 427.879 65.7578 429.332 66.4609C430.797 67.1641 431.922 68.166 432.707 69.4668C433.492 70.7559 433.885 72.2266 433.885 73.8789C433.885 76.3867 433.023 78.3672 431.301 79.8203C429.59 81.2617 427.217 81.9824 424.182 81.9824H419.559ZM419.559 77.7109H424.27C425.664 77.7109 426.725 77.3828 427.451 76.7266C428.189 76.0703 428.559 75.1328 428.559 73.9141C428.559 72.6602 428.189 71.6465 427.451 70.873C426.713 70.0996 425.693 69.7012 424.393 69.6777H419.559V77.7109ZM448.844 85.7266H439.598L437.84 91H432.232L441.76 65.4062H446.646L456.227 91H450.619L448.844 85.7266ZM441.021 81.4551H447.42L444.203 71.875L441.021 81.4551ZM471.889 84.2852C471.889 83.2891 471.537 82.5273 470.834 82C470.131 81.4609 468.865 80.8984 467.037 80.3125C465.209 79.7148 463.762 79.1289 462.695 78.5547C459.789 76.9844 458.336 74.8691 458.336 72.209C458.336 70.8262 458.723 69.5957 459.496 68.5176C460.281 67.4277 461.4 66.5781 462.854 65.9688C464.318 65.3594 465.959 65.0547 467.775 65.0547C469.604 65.0547 471.232 65.3887 472.662 66.0566C474.092 66.7129 475.199 67.6445 475.984 68.8516C476.781 70.0586 477.18 71.4297 477.18 72.9648H471.906C471.906 71.793 471.537 70.8848 470.799 70.2402C470.061 69.584 469.023 69.2559 467.688 69.2559C466.398 69.2559 465.396 69.5312 464.682 70.082C463.967 70.6211 463.609 71.3359 463.609 72.2266C463.609 73.0586 464.025 73.7559 464.857 74.3184C465.701 74.8809 466.938 75.4082 468.566 75.9004C471.566 76.8027 473.752 77.9219 475.123 79.2578C476.494 80.5938 477.18 82.2578 477.18 84.25C477.18 86.4648 476.342 88.2051 474.666 89.4707C472.99 90.7246 470.734 91.3516 467.898 91.3516C465.93 91.3516 464.137 90.9941 462.52 90.2793C460.902 89.5527 459.666 88.5625 458.811 87.3086C457.967 86.0547 457.545 84.6016 457.545 82.9492H462.836C462.836 85.7734 464.523 87.1855 467.898 87.1855C469.152 87.1855 470.131 86.9336 470.834 86.4297C471.537 85.9141 471.889 85.1992 471.889 84.2852ZM501.789 78.7832C501.789 81.3027 501.344 83.5117 500.453 85.4102C499.562 87.3086 498.285 88.7734 496.621 89.8047C494.969 90.8359 493.07 91.3516 490.926 91.3516C488.805 91.3516 486.912 90.8418 485.248 89.8223C483.584 88.8027 482.295 87.3496 481.381 85.4629C480.467 83.5645 480.004 81.3848 479.992 78.9238V77.6582C479.992 75.1387 480.443 72.9238 481.346 71.0137C482.26 69.0918 483.543 67.6211 485.195 66.6016C486.859 65.5703 488.758 65.0547 490.891 65.0547C493.023 65.0547 494.916 65.5703 496.568 66.6016C498.232 67.6211 499.516 69.0918 500.418 71.0137C501.332 72.9238 501.789 75.1328 501.789 77.6406V78.7832ZM496.445 77.623C496.445 74.9395 495.965 72.9004 495.004 71.5059C494.043 70.1113 492.672 69.4141 490.891 69.4141C489.121 69.4141 487.756 70.1055 486.795 71.4883C485.834 72.8594 485.348 74.875 485.336 77.5352V78.7832C485.336 81.3965 485.816 83.4238 486.777 84.8652C487.738 86.3066 489.121 87.0273 490.926 87.0273C492.695 87.0273 494.055 86.3359 495.004 84.9531C495.953 83.5586 496.434 81.5312 496.445 78.8711V77.623ZM531.584 91H514.041V87.5195L522.32 78.6953C523.457 77.4531 524.295 76.3691 524.834 75.4434C525.385 74.5176 525.66 73.6387 525.66 72.8066C525.66 71.6699 525.373 70.7793 524.799 70.1348C524.225 69.4785 523.404 69.1504 522.338 69.1504C521.189 69.1504 520.281 69.5488 519.613 70.3457C518.957 71.1309 518.629 72.168 518.629 73.457H513.531C513.531 71.8984 513.9 70.4746 514.639 69.1855C515.389 67.8965 516.443 66.8887 517.803 66.1621C519.162 65.4238 520.703 65.0547 522.426 65.0547C525.062 65.0547 527.107 65.6875 528.561 66.9531C530.025 68.2188 530.758 70.0059 530.758 72.3145C530.758 73.5801 530.43 74.8691 529.773 76.1816C529.117 77.4941 527.992 79.0234 526.398 80.7695L520.58 86.9043H531.584V91ZM423.156 111.484H416.992L415.82 115H412.082L418.434 97.9375H421.691L428.078 115H424.34L423.156 111.484ZM417.941 108.637H422.207L420.062 102.25L417.941 108.637ZM438.52 110.523C438.52 109.859 438.285 109.352 437.816 109C437.348 108.641 436.504 108.266 435.285 107.875C434.066 107.477 433.102 107.086 432.391 106.703C430.453 105.656 429.484 104.246 429.484 102.473C429.484 101.551 429.742 100.73 430.258 100.012C430.781 99.2852 431.527 98.7188 432.496 98.3125C433.473 97.9062 434.566 97.7031 435.777 97.7031C436.996 97.7031 438.082 97.9258 439.035 98.3711C439.988 98.8086 440.727 99.4297 441.25 100.234C441.781 101.039 442.047 101.953 442.047 102.977H438.531C438.531 102.195 438.285 101.59 437.793 101.16C437.301 100.723 436.609 100.504 435.719 100.504C434.859 100.504 434.191 100.688 433.715 101.055C433.238 101.414 433 101.891 433 102.484C433 103.039 433.277 103.504 433.832 103.879C434.395 104.254 435.219 104.605 436.305 104.934C438.305 105.535 439.762 106.281 440.676 107.172C441.59 108.062 442.047 109.172 442.047 110.5C442.047 111.977 441.488 113.137 440.371 113.98C439.254 114.816 437.75 115.234 435.859 115.234C434.547 115.234 433.352 114.996 432.273 114.52C431.195 114.035 430.371 113.375 429.801 112.539C429.238 111.703 428.957 110.734 428.957 109.633H432.484C432.484 111.516 433.609 112.457 435.859 112.457C436.695 112.457 437.348 112.289 437.816 111.953C438.285 111.609 438.52 111.133 438.52 110.523ZM448.176 115H444.66V97.9375H448.176V115ZM456.039 97.9375L460.422 110.312L464.781 97.9375H469.398V115H465.871V110.336L466.223 102.285L461.617 115H459.203L454.609 102.297L454.961 110.336V115H451.445V97.9375H456.039ZM476.207 115H472.691V97.9375H476.207V115ZM482.992 112.176H490.457V115H479.477V97.9375H482.992V112.176ZM502.352 111.484H496.188L495.016 115H491.277L497.629 97.9375H500.887L507.273 115H503.535L502.352 111.484ZM497.137 108.637H501.402L499.258 102.25L497.137 108.637ZM517.715 110.523C517.715 109.859 517.48 109.352 517.012 109C516.543 108.641 515.699 108.266 514.48 107.875C513.262 107.477 512.297 107.086 511.586 106.703C509.648 105.656 508.68 104.246 508.68 102.473C508.68 101.551 508.938 100.73 509.453 100.012C509.977 99.2852 510.723 98.7188 511.691 98.3125C512.668 97.9062 513.762 97.7031 514.973 97.7031C516.191 97.7031 517.277 97.9258 518.23 98.3711C519.184 98.8086 519.922 99.4297 520.445 100.234C520.977 101.039 521.242 101.953 521.242 102.977H517.727C517.727 102.195 517.48 101.59 516.988 101.16C516.496 100.723 515.805 100.504 514.914 100.504C514.055 100.504 513.387 100.688 512.91 101.055C512.434 101.414 512.195 101.891 512.195 102.484C512.195 103.039 512.473 103.504 513.027 103.879C513.59 104.254 514.414 104.605 515.5 104.934C517.5 105.535 518.957 106.281 519.871 107.172C520.785 108.062 521.242 109.172 521.242 110.5C521.242 111.977 520.684 113.137 519.566 113.98C518.449 114.816 516.945 115.234 515.055 115.234C513.742 115.234 512.547 114.996 511.469 114.52C510.391 114.035 509.566 113.375 508.996 112.539C508.434 111.703 508.152 110.734 508.152 109.633H511.68C511.68 111.516 512.805 112.457 515.055 112.457C515.891 112.457 516.543 112.289 517.012 111.953C517.48 111.609 517.715 111.133 517.715 110.523ZM426.918 133.316C426.785 135.152 426.105 136.598 424.879 137.652C423.66 138.707 422.051 139.234 420.051 139.234C417.863 139.234 416.141 138.5 414.883 137.031C413.633 135.555 413.008 133.531 413.008 130.961V129.918C413.008 128.277 413.297 126.832 413.875 125.582C414.453 124.332 415.277 123.375 416.348 122.711C417.426 122.039 418.676 121.703 420.098 121.703C422.066 121.703 423.652 122.23 424.855 123.285C426.059 124.34 426.754 125.82 426.941 127.727H423.426C423.34 126.625 423.031 125.828 422.5 125.336C421.977 124.836 421.176 124.586 420.098 124.586C418.926 124.586 418.047 125.008 417.461 125.852C416.883 126.688 416.586 127.988 416.57 129.754V131.043C416.57 132.887 416.848 134.234 417.402 135.086C417.965 135.938 418.848 136.363 420.051 136.363C421.137 136.363 421.945 136.117 422.477 135.625C423.016 135.125 423.324 134.355 423.402 133.316H426.918ZM443.242 130.855C443.242 132.535 442.945 134.008 442.352 135.273C441.758 136.539 440.906 137.516 439.797 138.203C438.695 138.891 437.43 139.234 436 139.234C434.586 139.234 433.324 138.895 432.215 138.215C431.105 137.535 430.246 136.566 429.637 135.309C429.027 134.043 428.719 132.59 428.711 130.949V130.105C428.711 128.426 429.012 126.949 429.613 125.676C430.223 124.395 431.078 123.414 432.18 122.734C433.289 122.047 434.555 121.703 435.977 121.703C437.398 121.703 438.66 122.047 439.762 122.734C440.871 123.414 441.727 124.395 442.328 125.676C442.938 126.949 443.242 128.422 443.242 130.094V130.855ZM439.68 130.082C439.68 128.293 439.359 126.934 438.719 126.004C438.078 125.074 437.164 124.609 435.977 124.609C434.797 124.609 433.887 125.07 433.246 125.992C432.605 126.906 432.281 128.25 432.273 130.023V130.855C432.273 132.598 432.594 133.949 433.234 134.91C433.875 135.871 434.797 136.352 436 136.352C437.18 136.352 438.086 135.891 438.719 134.969C439.352 134.039 439.672 132.688 439.68 130.914V130.082ZM459.672 139H456.156L449.312 127.773V139H445.797V121.938H449.312L456.168 133.188V121.938H459.672V139ZM471.59 134.523C471.59 133.859 471.355 133.352 470.887 133C470.418 132.641 469.574 132.266 468.355 131.875C467.137 131.477 466.172 131.086 465.461 130.703C463.523 129.656 462.555 128.246 462.555 126.473C462.555 125.551 462.812 124.73 463.328 124.012C463.852 123.285 464.598 122.719 465.566 122.312C466.543 121.906 467.637 121.703 468.848 121.703C470.066 121.703 471.152 121.926 472.105 122.371C473.059 122.809 473.797 123.43 474.32 124.234C474.852 125.039 475.117 125.953 475.117 126.977H471.602C471.602 126.195 471.355 125.59 470.863 125.16C470.371 124.723 469.68 124.504 468.789 124.504C467.93 124.504 467.262 124.688 466.785 125.055C466.309 125.414 466.07 125.891 466.07 126.484C466.07 127.039 466.348 127.504 466.902 127.879C467.465 128.254 468.289 128.605 469.375 128.934C471.375 129.535 472.832 130.281 473.746 131.172C474.66 132.062 475.117 133.172 475.117 134.5C475.117 135.977 474.559 137.137 473.441 137.98C472.324 138.816 470.82 139.234 468.93 139.234C467.617 139.234 466.422 138.996 465.344 138.52C464.266 138.035 463.441 137.375 462.871 136.539C462.309 135.703 462.027 134.734 462.027 133.633H465.555C465.555 135.516 466.68 136.457 468.93 136.457C469.766 136.457 470.418 136.289 470.887 135.953C471.355 135.609 471.59 135.133 471.59 134.523ZM490.902 133.316C490.77 135.152 490.09 136.598 488.863 137.652C487.645 138.707 486.035 139.234 484.035 139.234C481.848 139.234 480.125 138.5 478.867 137.031C477.617 135.555 476.992 133.531 476.992 130.961V129.918C476.992 128.277 477.281 126.832 477.859 125.582C478.438 124.332 479.262 123.375 480.332 122.711C481.41 122.039 482.66 121.703 484.082 121.703C486.051 121.703 487.637 122.23 488.84 123.285C490.043 124.34 490.738 125.82 490.926 127.727H487.41C487.324 126.625 487.016 125.828 486.484 125.336C485.961 124.836 485.16 124.586 484.082 124.586C482.91 124.586 482.031 125.008 481.445 125.852C480.867 126.688 480.57 127.988 480.555 129.754V131.043C480.555 132.887 480.832 134.234 481.387 135.086C481.949 135.938 482.832 136.363 484.035 136.363C485.121 136.363 485.93 136.117 486.461 135.625C487 135.125 487.309 134.355 487.387 133.316H490.902ZM496.949 139H493.434V121.938H496.949V139ZM510.484 131.605H503.734V136.176H511.656V139H500.219V121.938H511.633V124.785H503.734V128.852H510.484V131.605ZM527.594 139H524.078L517.234 127.773V139H513.719V121.938H517.234L524.09 133.188V121.938H527.594V139ZM543.156 124.785H537.93V139H534.414V124.785H529.258V121.938H543.156V124.785ZM555.438 131.605H548.688V136.176H556.609V139H545.172V121.938H556.586V124.785H548.688V128.852H555.438V131.605ZM563.266 121.938L567.648 134.312L572.008 121.938H576.625V139H573.098V134.336L573.449 126.285L568.844 139H566.43L561.836 126.297L562.188 134.336V139H558.672V121.938H563.266ZM589.961 131.605H583.211V136.176H591.133V139H579.695V121.938H591.109V124.785H583.211V128.852H589.961V131.605ZM607.07 139H603.555L596.711 127.773V139H593.195V121.938H596.711L603.566 133.188V121.938H607.07V139ZM622.633 124.785H617.406V139H613.891V124.785H608.734V121.938H622.633V124.785ZM634.914 131.605H628.164V136.176H636.086V139H624.648V121.938H636.062V124.785H628.164V128.852H634.914V131.605Z" fill="#60347B"/>
<path d="M760.559 68.9824V78H755.285V52.4062H765.27C767.191 52.4062 768.879 52.7578 770.332 53.4609C771.797 54.1641 772.922 55.166 773.707 56.4668C774.492 57.7559 774.885 59.2266 774.885 60.8789C774.885 63.3867 774.023 65.3672 772.301 66.8203C770.59 68.2617 768.217 68.9824 765.182 68.9824H760.559ZM760.559 64.7109H765.27C766.664 64.7109 767.725 64.3828 768.451 63.7266C769.189 63.0703 769.559 62.1328 769.559 60.9141C769.559 59.6602 769.189 58.6465 768.451 57.873C767.713 57.0996 766.693 56.7012 765.393 56.6777H760.559V64.7109ZM789.844 72.7266H780.598L778.84 78H773.232L782.76 52.4062H787.646L797.227 78H791.619L789.844 72.7266ZM782.021 68.4551H788.42L785.203 58.875L782.021 68.4551ZM812.889 71.2852C812.889 70.2891 812.537 69.5273 811.834 69C811.131 68.4609 809.865 67.8984 808.037 67.3125C806.209 66.7148 804.762 66.1289 803.695 65.5547C800.789 63.9844 799.336 61.8691 799.336 59.209C799.336 57.8262 799.723 56.5957 800.496 55.5176C801.281 54.4277 802.4 53.5781 803.854 52.9688C805.318 52.3594 806.959 52.0547 808.775 52.0547C810.604 52.0547 812.232 52.3887 813.662 53.0566C815.092 53.7129 816.199 54.6445 816.984 55.8516C817.781 57.0586 818.18 58.4297 818.18 59.9648H812.906C812.906 58.793 812.537 57.8848 811.799 57.2402C811.061 56.584 810.023 56.2559 808.688 56.2559C807.398 56.2559 806.396 56.5312 805.682 57.082C804.967 57.6211 804.609 58.3359 804.609 59.2266C804.609 60.0586 805.025 60.7559 805.857 61.3184C806.701 61.8809 807.938 62.4082 809.566 62.9004C812.566 63.8027 814.752 64.9219 816.123 66.2578C817.494 67.5938 818.18 69.2578 818.18 71.25C818.18 73.4648 817.342 75.2051 815.666 76.4707C813.99 77.7246 811.734 78.3516 808.898 78.3516C806.93 78.3516 805.137 77.9941 803.52 77.2793C801.902 76.5527 800.666 75.5625 799.811 74.3086C798.967 73.0547 798.545 71.6016 798.545 69.9492H803.836C803.836 72.7734 805.523 74.1855 808.898 74.1855C810.152 74.1855 811.131 73.9336 811.834 73.4297C812.537 72.9141 812.889 72.1992 812.889 71.2852ZM842.789 65.7832C842.789 68.3027 842.344 70.5117 841.453 72.4102C840.562 74.3086 839.285 75.7734 837.621 76.8047C835.969 77.8359 834.07 78.3516 831.926 78.3516C829.805 78.3516 827.912 77.8418 826.248 76.8223C824.584 75.8027 823.295 74.3496 822.381 72.4629C821.467 70.5645 821.004 68.3848 820.992 65.9238V64.6582C820.992 62.1387 821.443 59.9238 822.346 58.0137C823.26 56.0918 824.543 54.6211 826.195 53.6016C827.859 52.5703 829.758 52.0547 831.891 52.0547C834.023 52.0547 835.916 52.5703 837.568 53.6016C839.232 54.6211 840.516 56.0918 841.418 58.0137C842.332 59.9238 842.789 62.1328 842.789 64.6406V65.7832ZM837.445 64.623C837.445 61.9395 836.965 59.9004 836.004 58.5059C835.043 57.1113 833.672 56.4141 831.891 56.4141C830.121 56.4141 828.756 57.1055 827.795 58.4883C826.834 59.8594 826.348 61.875 826.336 64.5352V65.7832C826.336 68.3965 826.816 70.4238 827.777 71.8652C828.738 73.3066 830.121 74.0273 831.926 74.0273C833.695 74.0273 835.055 73.3359 836.004 71.9531C836.953 70.5586 837.434 68.5312 837.445 65.8711V64.623ZM860.209 62.9531H862.916C864.205 62.9531 865.16 62.6309 865.781 61.9863C866.402 61.3418 866.713 60.4863 866.713 59.4199C866.713 58.3887 866.402 57.5859 865.781 57.0117C865.172 56.4375 864.328 56.1504 863.25 56.1504C862.277 56.1504 861.463 56.4199 860.807 56.959C860.15 57.4863 859.822 58.1777 859.822 59.0332H854.742C854.742 57.6973 855.1 56.502 855.814 55.4473C856.541 54.3809 857.549 53.5488 858.838 52.9512C860.139 52.3535 861.568 52.0547 863.127 52.0547C865.834 52.0547 867.955 52.7051 869.49 54.0059C871.025 55.2949 871.793 57.0762 871.793 59.3496C871.793 60.5215 871.436 61.5996 870.721 62.584C870.006 63.5684 869.068 64.3242 867.908 64.8516C869.35 65.3672 870.422 66.1406 871.125 67.1719C871.84 68.2031 872.197 69.4219 872.197 70.8281C872.197 73.1016 871.365 74.9238 869.701 76.2949C868.049 77.666 865.857 78.3516 863.127 78.3516C860.572 78.3516 858.48 77.6777 856.852 76.3301C855.234 74.9824 854.426 73.2012 854.426 70.9863H859.506C859.506 71.9473 859.863 72.7324 860.578 73.3418C861.305 73.9512 862.195 74.2559 863.25 74.2559C864.457 74.2559 865.4 73.9395 866.08 73.3066C866.771 72.6621 867.117 71.8125 867.117 70.7578C867.117 68.2031 865.711 66.9258 862.898 66.9258H860.209V62.9531ZM764.156 98.4844H757.992L756.82 102H753.082L759.434 84.9375H762.691L769.078 102H765.34L764.156 98.4844ZM758.941 95.6367H763.207L761.062 89.25L758.941 95.6367ZM774.188 95.9883V102H770.672V84.9375H777.328C778.609 84.9375 779.734 85.1719 780.703 85.6406C781.68 86.1094 782.43 86.7773 782.953 87.6445C783.477 88.5039 783.738 89.4844 783.738 90.5859C783.738 92.2578 783.164 93.5781 782.016 94.5469C780.875 95.5078 779.293 95.9883 777.27 95.9883H774.188ZM774.188 93.1406H777.328C778.258 93.1406 778.965 92.9219 779.449 92.4844C779.941 92.0469 780.188 91.4219 780.188 90.6094C780.188 89.7734 779.941 89.0977 779.449 88.582C778.957 88.0664 778.277 87.8008 777.41 87.7852H774.188V93.1406ZM789.68 99.1758H797.145V102H786.164V84.9375H789.68V99.1758ZM802.91 102H799.395V84.9375H802.91V102ZM819.574 96.3164C819.441 98.1523 818.762 99.5977 817.535 100.652C816.316 101.707 814.707 102.234 812.707 102.234C810.52 102.234 808.797 101.5 807.539 100.031C806.289 98.5547 805.664 96.5312 805.664 93.9609V92.918C805.664 91.2773 805.953 89.832 806.531 88.582C807.109 87.332 807.934 86.375 809.004 85.7109C810.082 85.0391 811.332 84.7031 812.754 84.7031C814.723 84.7031 816.309 85.2305 817.512 86.2852C818.715 87.3398 819.41 88.8203 819.598 90.7266H816.082C815.996 89.625 815.688 88.8281 815.156 88.3359C814.633 87.8359 813.832 87.5859 812.754 87.5859C811.582 87.5859 810.703 88.0078 810.117 88.8516C809.539 89.6875 809.242 90.9883 809.227 92.7539V94.043C809.227 95.8867 809.504 97.2344 810.059 98.0859C810.621 98.9375 811.504 99.3633 812.707 99.3633C813.793 99.3633 814.602 99.1172 815.133 98.625C815.672 98.125 815.98 97.3555 816.059 96.3164H819.574ZM831.516 98.4844H825.352L824.18 102H820.441L826.793 84.9375H830.051L836.438 102H832.699L831.516 98.4844ZM826.301 95.6367H830.566L828.422 89.25L826.301 95.6367ZM846.879 97.5234C846.879 96.8594 846.645 96.3516 846.176 96C845.707 95.6406 844.863 95.2656 843.645 94.875C842.426 94.4766 841.461 94.0859 840.75 93.7031C838.812 92.6562 837.844 91.2461 837.844 89.4727C837.844 88.5508 838.102 87.7305 838.617 87.0117C839.141 86.2852 839.887 85.7188 840.855 85.3125C841.832 84.9062 842.926 84.7031 844.137 84.7031C845.355 84.7031 846.441 84.9258 847.395 85.3711C848.348 85.8086 849.086 86.4297 849.609 87.2344C850.141 88.0391 850.406 88.9531 850.406 89.9766H846.891C846.891 89.1953 846.645 88.5898 846.152 88.1602C845.66 87.7227 844.969 87.5039 844.078 87.5039C843.219 87.5039 842.551 87.6875 842.074 88.0547C841.598 88.4141 841.359 88.8906 841.359 89.4844C841.359 90.0391 841.637 90.5039 842.191 90.8789C842.754 91.2539 843.578 91.6055 844.664 91.9336C846.664 92.5352 848.121 93.2812 849.035 94.1719C849.949 95.0625 850.406 96.1719 850.406 97.5C850.406 98.9766 849.848 100.137 848.73 100.98C847.613 101.816 846.109 102.234 844.219 102.234C842.906 102.234 841.711 101.996 840.633 101.52C839.555 101.035 838.73 100.375 838.16 99.5391C837.598 98.7031 837.316 97.7344 837.316 96.6328H840.844C840.844 98.5156 841.969 99.457 844.219 99.457C845.055 99.457 845.707 99.2891 846.176 98.9531C846.645 98.6094 846.879 98.1328 846.879 97.5234ZM764.156 122.484H757.992L756.82 126H753.082L759.434 108.938H762.691L769.078 126H765.34L764.156 122.484ZM758.941 119.637H763.207L761.062 113.25L758.941 119.637ZM783.375 108.938V120.176C783.375 122.043 782.789 123.52 781.617 124.605C780.453 125.691 778.859 126.234 776.836 126.234C774.844 126.234 773.262 125.707 772.09 124.652C770.918 123.598 770.32 122.148 770.297 120.305V108.938H773.812V120.199C773.812 121.316 774.078 122.133 774.609 122.648C775.148 123.156 775.891 123.41 776.836 123.41C778.812 123.41 779.816 122.371 779.848 120.293V108.938H783.375ZM799.102 111.785H793.875V126H790.359V111.785H785.203V108.938H799.102V111.785ZM814.805 117.855C814.805 119.535 814.508 121.008 813.914 122.273C813.32 123.539 812.469 124.516 811.359 125.203C810.258 125.891 808.992 126.234 807.562 126.234C806.148 126.234 804.887 125.895 803.777 125.215C802.668 124.535 801.809 123.566 801.199 122.309C800.59 121.043 800.281 119.59 800.273 117.949V117.105C800.273 115.426 800.574 113.949 801.176 112.676C801.785 111.395 802.641 110.414 803.742 109.734C804.852 109.047 806.117 108.703 807.539 108.703C808.961 108.703 810.223 109.047 811.324 109.734C812.434 110.414 813.289 111.395 813.891 112.676C814.5 113.949 814.805 115.422 814.805 117.094V117.855ZM811.242 117.082C811.242 115.293 810.922 113.934 810.281 113.004C809.641 112.074 808.727 111.609 807.539 111.609C806.359 111.609 805.449 112.07 804.809 112.992C804.168 113.906 803.844 115.25 803.836 117.023V117.855C803.836 119.598 804.156 120.949 804.797 121.91C805.438 122.871 806.359 123.352 807.562 123.352C808.742 123.352 809.648 122.891 810.281 121.969C810.914 121.039 811.234 119.688 811.242 117.914V117.082ZM821.953 108.938L826.336 121.312L830.695 108.938H835.312V126H831.785V121.336L832.137 113.285L827.531 126H825.117L820.523 113.297L820.875 121.336V126H817.359V108.938H821.953ZM848.227 122.484H842.062L840.891 126H837.152L843.504 108.938H846.762L853.148 126H849.41L848.227 122.484ZM843.012 119.637H847.277L845.133 113.25L843.012 119.637ZM866.18 111.785H860.953V126H857.438V111.785H852.281V108.938H866.18V111.785ZM871.934 126H868.418V108.938H871.934V126ZM888.598 120.316C888.465 122.152 887.785 123.598 886.559 124.652C885.34 125.707 883.73 126.234 881.73 126.234C879.543 126.234 877.82 125.5 876.562 124.031C875.312 122.555 874.688 120.531 874.688 117.961V116.918C874.688 115.277 874.977 113.832 875.555 112.582C876.133 111.332 876.957 110.375 878.027 109.711C879.105 109.039 880.355 108.703 881.777 108.703C883.746 108.703 885.332 109.23 886.535 110.285C887.738 111.34 888.434 112.82 888.621 114.727H885.105C885.02 113.625 884.711 112.828 884.18 112.336C883.656 111.836 882.855 111.586 881.777 111.586C880.605 111.586 879.727 112.008 879.141 112.852C878.562 113.688 878.266 114.988 878.25 116.754V118.043C878.25 119.887 878.527 121.234 879.082 122.086C879.645 122.938 880.527 123.363 881.73 123.363C882.816 123.363 883.625 123.117 884.156 122.625C884.695 122.125 885.004 121.355 885.082 120.316H888.598ZM900.539 122.484H894.375L893.203 126H889.465L895.816 108.938H899.074L905.461 126H901.723L900.539 122.484ZM895.324 119.637H899.59L897.445 113.25L895.324 119.637ZM911.648 108.938L916.031 121.312L920.391 108.938H925.008V126H921.48V121.336L921.832 113.285L917.227 126H914.812L910.219 113.297L910.57 121.336V126H907.055V108.938H911.648ZM938.344 118.605H931.594V123.176H939.516V126H928.078V108.938H939.492V111.785H931.594V115.852H938.344V118.605ZM955.453 126H951.938L945.094 114.773V126H941.578V108.938H945.094L951.949 120.188V108.938H955.453V126ZM971.016 111.785H965.789V126H962.273V111.785H957.117V108.938H971.016V111.785ZM983.297 118.605H976.547V123.176H984.469V126H973.031V108.938H984.445V111.785H976.547V115.852H983.297V118.605ZM755.939 144.353H760.294V146H753.889V136.047H755.939V144.353ZM761.039 142.233C761.039 141.5 761.18 140.846 761.463 140.271C761.745 139.697 762.151 139.253 762.68 138.938C763.213 138.624 763.83 138.467 764.532 138.467C765.53 138.467 766.344 138.772 766.973 139.383C767.606 139.993 767.959 140.823 768.032 141.871L768.046 142.377C768.046 143.512 767.729 144.423 767.096 145.111C766.462 145.795 765.612 146.137 764.546 146.137C763.479 146.137 762.627 145.795 761.989 145.111C761.356 144.428 761.039 143.498 761.039 142.322V142.233ZM763.015 142.377C763.015 143.079 763.147 143.617 763.411 143.99C763.675 144.359 764.054 144.544 764.546 144.544C765.024 144.544 765.398 144.362 765.667 143.997C765.936 143.628 766.07 143.04 766.07 142.233C766.07 141.545 765.936 141.012 765.667 140.634C765.398 140.256 765.02 140.066 764.532 140.066C764.049 140.066 763.675 140.256 763.411 140.634C763.147 141.007 763.015 141.589 763.015 142.377ZM772.441 142.233C772.441 141.071 772.699 140.153 773.214 139.479C773.733 138.804 774.444 138.467 775.347 138.467C776.14 138.467 776.771 138.77 777.24 139.376L777.37 138.604H779.106V148.844H777.124V145.364C776.668 145.879 776.071 146.137 775.333 146.137C774.453 146.137 773.752 145.795 773.228 145.111C772.703 144.428 772.441 143.468 772.441 142.233ZM774.417 142.377C774.417 143.083 774.54 143.621 774.786 143.99C775.037 144.359 775.388 144.544 775.839 144.544C776.445 144.544 776.873 144.302 777.124 143.819V140.764C776.878 140.299 776.454 140.066 775.853 140.066C775.397 140.066 775.044 140.251 774.793 140.62C774.542 140.989 774.417 141.575 774.417 142.377ZM785.095 145.248C784.607 145.84 783.933 146.137 783.071 146.137C782.278 146.137 781.672 145.909 781.253 145.453C780.838 144.997 780.626 144.33 780.617 143.45V138.604H782.593V143.382C782.593 144.152 782.944 144.537 783.646 144.537C784.315 144.537 784.776 144.305 785.026 143.84V138.604H787.009V146H785.149L785.095 145.248ZM791.903 146.137C790.819 146.137 789.935 145.804 789.251 145.139C788.572 144.473 788.232 143.587 788.232 142.479V142.288C788.232 141.545 788.376 140.882 788.663 140.299C788.95 139.711 789.356 139.26 789.88 138.945C790.409 138.626 791.01 138.467 791.685 138.467C792.696 138.467 793.492 138.786 794.07 139.424C794.654 140.062 794.945 140.966 794.945 142.138V142.944H790.235C790.299 143.427 790.491 143.815 790.81 144.106C791.133 144.398 791.541 144.544 792.033 144.544C792.794 144.544 793.389 144.268 793.817 143.717L794.788 144.804C794.492 145.223 794.091 145.551 793.585 145.788C793.079 146.021 792.519 146.137 791.903 146.137ZM791.678 140.066C791.286 140.066 790.967 140.199 790.721 140.463C790.479 140.727 790.324 141.105 790.256 141.598H793.004V141.44C792.995 141.003 792.876 140.666 792.648 140.429C792.421 140.187 792.097 140.066 791.678 140.066ZM803.846 146C803.755 145.822 803.688 145.601 803.647 145.337C803.169 145.87 802.547 146.137 801.781 146.137C801.057 146.137 800.455 145.927 799.977 145.508C799.503 145.089 799.266 144.56 799.266 143.922C799.266 143.138 799.555 142.536 800.134 142.117C800.717 141.698 801.558 141.486 802.656 141.481H803.565V141.058C803.565 140.716 803.477 140.442 803.299 140.237C803.126 140.032 802.85 139.93 802.472 139.93C802.139 139.93 801.877 140.009 801.686 140.169C801.499 140.328 801.405 140.547 801.405 140.825H799.43C799.43 140.397 799.562 140 799.826 139.636C800.09 139.271 800.464 138.986 800.947 138.781C801.43 138.572 801.973 138.467 802.574 138.467C803.486 138.467 804.208 138.697 804.741 139.157C805.279 139.613 805.548 140.256 805.548 141.085V144.291C805.552 144.993 805.65 145.524 805.842 145.884V146H803.846ZM802.212 144.626C802.504 144.626 802.772 144.562 803.019 144.435C803.265 144.302 803.447 144.127 803.565 143.908V142.637H802.827C801.838 142.637 801.312 142.979 801.248 143.662L801.241 143.778C801.241 144.024 801.328 144.227 801.501 144.387C801.674 144.546 801.911 144.626 802.212 144.626ZM811.071 143.956C811.071 143.715 810.951 143.525 810.709 143.389C810.472 143.247 810.089 143.122 809.561 143.013C807.801 142.644 806.922 141.896 806.922 140.771C806.922 140.114 807.193 139.567 807.735 139.13C808.282 138.688 808.995 138.467 809.875 138.467C810.814 138.467 811.563 138.688 812.124 139.13C812.689 139.572 812.972 140.146 812.972 140.853H810.996C810.996 140.57 810.905 140.338 810.723 140.155C810.54 139.968 810.256 139.875 809.868 139.875C809.535 139.875 809.278 139.95 809.096 140.101C808.913 140.251 808.822 140.442 808.822 140.675C808.822 140.894 808.925 141.071 809.13 141.208C809.34 141.34 809.69 141.456 810.183 141.557C810.675 141.652 811.09 141.762 811.427 141.885C812.47 142.268 812.992 142.931 812.992 143.874C812.992 144.549 812.703 145.095 812.124 145.515C811.545 145.929 810.798 146.137 809.882 146.137C809.262 146.137 808.711 146.027 808.228 145.809C807.749 145.585 807.373 145.282 807.1 144.899C806.826 144.512 806.689 144.095 806.689 143.648H808.562C808.581 143.999 808.711 144.268 808.952 144.455C809.194 144.642 809.517 144.735 809.923 144.735C810.301 144.735 810.586 144.665 810.777 144.523C810.973 144.378 811.071 144.188 811.071 143.956ZM816.355 146H814.373V138.604H816.355V146ZM814.257 136.689C814.257 136.393 814.355 136.149 814.551 135.958C814.751 135.767 815.022 135.671 815.364 135.671C815.701 135.671 815.97 135.767 816.171 135.958C816.371 136.149 816.472 136.393 816.472 136.689C816.472 136.99 816.369 137.236 816.164 137.428C815.964 137.619 815.697 137.715 815.364 137.715C815.032 137.715 814.763 137.619 814.558 137.428C814.357 137.236 814.257 136.99 814.257 136.689ZM819.842 138.604L819.903 139.431C820.427 138.788 821.136 138.467 822.029 138.467C822.982 138.467 823.636 138.843 823.991 139.595C824.511 138.843 825.251 138.467 826.213 138.467C827.015 138.467 827.612 138.701 828.004 139.171C828.396 139.636 828.592 140.338 828.592 141.276V146H826.609V141.283C826.609 140.864 826.527 140.559 826.363 140.367C826.199 140.171 825.91 140.073 825.495 140.073C824.903 140.073 824.493 140.356 824.265 140.921L824.271 146H822.296V141.29C822.296 140.862 822.212 140.552 822.043 140.36C821.874 140.169 821.587 140.073 821.182 140.073C820.621 140.073 820.215 140.306 819.965 140.771V146H817.989V138.604H819.842ZM832.201 146H830.219V138.604H832.201V146ZM830.103 136.689C830.103 136.393 830.201 136.149 830.396 135.958C830.597 135.767 830.868 135.671 831.21 135.671C831.547 135.671 831.816 135.767 832.017 135.958C832.217 136.149 832.317 136.393 832.317 136.689C832.317 136.99 832.215 137.236 832.01 137.428C831.809 137.619 831.543 137.715 831.21 137.715C830.877 137.715 830.608 137.619 830.403 137.428C830.203 137.236 830.103 136.99 830.103 136.689ZM835.92 146H833.938V135.5H835.92V146ZM841.84 146C841.749 145.822 841.683 145.601 841.642 145.337C841.163 145.87 840.541 146.137 839.775 146.137C839.051 146.137 838.449 145.927 837.971 145.508C837.497 145.089 837.26 144.56 837.26 143.922C837.26 143.138 837.549 142.536 838.128 142.117C838.711 141.698 839.552 141.486 840.65 141.481H841.56V141.058C841.56 140.716 841.471 140.442 841.293 140.237C841.12 140.032 840.844 139.93 840.466 139.93C840.133 139.93 839.871 140.009 839.68 140.169C839.493 140.328 839.399 140.547 839.399 140.825H837.424C837.424 140.397 837.556 140 837.82 139.636C838.085 139.271 838.458 138.986 838.941 138.781C839.424 138.572 839.967 138.467 840.568 138.467C841.48 138.467 842.202 138.697 842.735 139.157C843.273 139.613 843.542 140.256 843.542 141.085V144.291C843.547 144.993 843.645 145.524 843.836 145.884V146H841.84ZM840.206 144.626C840.498 144.626 840.767 144.562 841.013 144.435C841.259 144.302 841.441 144.127 841.56 143.908V142.637H840.821C839.832 142.637 839.306 142.979 839.242 143.662L839.235 143.778C839.235 144.024 839.322 144.227 839.495 144.387C839.668 144.546 839.905 144.626 840.206 144.626ZM849.065 143.956C849.065 143.715 848.945 143.525 848.703 143.389C848.466 143.247 848.083 143.122 847.555 143.013C845.796 142.644 844.916 141.896 844.916 140.771C844.916 140.114 845.187 139.567 845.729 139.13C846.276 138.688 846.99 138.467 847.869 138.467C848.808 138.467 849.558 138.688 850.118 139.13C850.683 139.572 850.966 140.146 850.966 140.853H848.99C848.99 140.57 848.899 140.338 848.717 140.155C848.535 139.968 848.25 139.875 847.862 139.875C847.53 139.875 847.272 139.95 847.09 140.101C846.908 140.251 846.816 140.442 846.816 140.675C846.816 140.894 846.919 141.071 847.124 141.208C847.334 141.34 847.685 141.456 848.177 141.557C848.669 141.652 849.084 141.762 849.421 141.885C850.465 142.268 850.986 142.931 850.986 143.874C850.986 144.549 850.697 145.095 850.118 145.515C849.539 145.929 848.792 146.137 847.876 146.137C847.256 146.137 846.705 146.027 846.222 145.809C845.743 145.585 845.367 145.282 845.094 144.899C844.82 144.512 844.684 144.095 844.684 143.648H846.557C846.575 143.999 846.705 144.268 846.946 144.455C847.188 144.642 847.511 144.735 847.917 144.735C848.295 144.735 848.58 144.665 848.771 144.523C848.967 144.378 849.065 144.188 849.065 143.956ZM857.836 146H855.854V135.5H857.836V146ZM859.162 142.233C859.162 141.5 859.303 140.846 859.586 140.271C859.868 139.697 860.274 139.253 860.803 138.938C861.336 138.624 861.953 138.467 862.655 138.467C863.653 138.467 864.467 138.772 865.096 139.383C865.729 139.993 866.082 140.823 866.155 141.871L866.169 142.377C866.169 143.512 865.852 144.423 865.219 145.111C864.585 145.795 863.735 146.137 862.669 146.137C861.603 146.137 860.75 145.795 860.112 145.111C859.479 144.428 859.162 143.498 859.162 142.322V142.233ZM861.138 142.377C861.138 143.079 861.27 143.617 861.534 143.99C861.799 144.359 862.177 144.544 862.669 144.544C863.147 144.544 863.521 144.362 863.79 143.997C864.059 143.628 864.193 143.04 864.193 142.233C864.193 141.545 864.059 141.012 863.79 140.634C863.521 140.256 863.143 140.066 862.655 140.066C862.172 140.066 861.799 140.256 861.534 140.634C861.27 141.007 861.138 141.589 861.138 142.377ZM875.158 146C875.067 145.822 875.001 145.601 874.96 145.337C874.481 145.87 873.859 146.137 873.094 146.137C872.369 146.137 871.768 145.927 871.289 145.508C870.815 145.089 870.578 144.56 870.578 143.922C870.578 143.138 870.868 142.536 871.446 142.117C872.03 141.698 872.87 141.486 873.969 141.481H874.878V141.058C874.878 140.716 874.789 140.442 874.611 140.237C874.438 140.032 874.162 139.93 873.784 139.93C873.451 139.93 873.189 140.009 872.998 140.169C872.811 140.328 872.718 140.547 872.718 140.825H870.742C870.742 140.397 870.874 140 871.139 139.636C871.403 139.271 871.777 138.986 872.26 138.781C872.743 138.572 873.285 138.467 873.887 138.467C874.798 138.467 875.521 138.697 876.054 139.157C876.591 139.613 876.86 140.256 876.86 141.085V144.291C876.865 144.993 876.963 145.524 877.154 145.884V146H875.158ZM873.524 144.626C873.816 144.626 874.085 144.562 874.331 144.435C874.577 144.302 874.759 144.127 874.878 143.908V142.637H874.14C873.151 142.637 872.624 142.979 872.561 143.662L872.554 143.778C872.554 144.024 872.64 144.227 872.813 144.387C872.987 144.546 873.224 144.626 873.524 144.626ZM885.036 142.37C885.036 143.509 884.776 144.423 884.257 145.111C883.742 145.795 883.045 146.137 882.165 146.137C881.418 146.137 880.814 145.877 880.354 145.357V148.844H878.378V138.604H880.21L880.278 139.328C880.757 138.754 881.381 138.467 882.151 138.467C883.063 138.467 883.771 138.804 884.277 139.479C884.783 140.153 885.036 141.083 885.036 142.268V142.37ZM883.061 142.227C883.061 141.538 882.938 141.007 882.691 140.634C882.45 140.26 882.097 140.073 881.632 140.073C881.012 140.073 880.586 140.31 880.354 140.784V143.812C880.595 144.3 881.026 144.544 881.646 144.544C882.589 144.544 883.061 143.771 883.061 142.227ZM888.352 146H886.369V135.5H888.352V146ZM892.07 146H890.088V138.604H892.07V146ZM889.972 136.689C889.972 136.393 890.07 136.149 890.266 135.958C890.466 135.767 890.737 135.671 891.079 135.671C891.416 135.671 891.685 135.767 891.886 135.958C892.086 136.149 892.187 136.393 892.187 136.689C892.187 136.99 892.084 137.236 891.879 137.428C891.678 137.619 891.412 137.715 891.079 137.715C890.746 137.715 890.478 137.619 890.272 137.428C890.072 137.236 889.972 136.99 889.972 136.689ZM896.78 144.544C897.145 144.544 897.441 144.444 897.669 144.243C897.897 144.043 898.015 143.776 898.024 143.443H899.877C899.872 143.945 899.736 144.405 899.467 144.824C899.198 145.239 898.829 145.562 898.359 145.795C897.895 146.023 897.38 146.137 896.814 146.137C895.757 146.137 894.923 145.802 894.312 145.132C893.702 144.457 893.396 143.528 893.396 142.343V142.213C893.396 141.074 893.7 140.164 894.306 139.485C894.912 138.806 895.743 138.467 896.801 138.467C897.726 138.467 898.466 138.731 899.022 139.26C899.583 139.784 899.868 140.483 899.877 141.358H898.024C898.015 140.976 897.897 140.666 897.669 140.429C897.441 140.187 897.14 140.066 896.767 140.066C896.306 140.066 895.958 140.235 895.721 140.572C895.488 140.905 895.372 141.447 895.372 142.199V142.404C895.372 143.165 895.488 143.712 895.721 144.045C895.953 144.378 896.306 144.544 896.78 144.544ZM905.291 146C905.2 145.822 905.134 145.601 905.093 145.337C904.614 145.87 903.992 146.137 903.227 146.137C902.502 146.137 901.9 145.927 901.422 145.508C900.948 145.089 900.711 144.56 900.711 143.922C900.711 143.138 901 142.536 901.579 142.117C902.162 141.698 903.003 141.486 904.102 141.481H905.011V141.058C905.011 140.716 904.922 140.442 904.744 140.237C904.571 140.032 904.295 139.93 903.917 139.93C903.584 139.93 903.322 140.009 903.131 140.169C902.944 140.328 902.851 140.547 902.851 140.825H900.875C900.875 140.397 901.007 140 901.271 139.636C901.536 139.271 901.91 138.986 902.393 138.781C902.876 138.572 903.418 138.467 904.02 138.467C904.931 138.467 905.653 138.697 906.187 139.157C906.724 139.613 906.993 140.256 906.993 141.085V144.291C906.998 144.993 907.096 145.524 907.287 145.884V146H905.291ZM903.657 144.626C903.949 144.626 904.218 144.562 904.464 144.435C904.71 144.302 904.892 144.127 905.011 143.908V142.637H904.272C903.284 142.637 902.757 142.979 902.693 143.662L902.687 143.778C902.687 144.024 902.773 144.227 902.946 144.387C903.119 144.546 903.356 144.626 903.657 144.626ZM912.517 143.956C912.517 143.715 912.396 143.525 912.154 143.389C911.917 143.247 911.535 143.122 911.006 143.013C909.247 142.644 908.367 141.896 908.367 140.771C908.367 140.114 908.638 139.567 909.181 139.13C909.728 138.688 910.441 138.467 911.32 138.467C912.259 138.467 913.009 138.688 913.569 139.13C914.134 139.572 914.417 140.146 914.417 140.853H912.441C912.441 140.57 912.35 140.338 912.168 140.155C911.986 139.968 911.701 139.875 911.313 139.875C910.981 139.875 910.723 139.95 910.541 140.101C910.359 140.251 910.268 140.442 910.268 140.675C910.268 140.894 910.37 141.071 910.575 141.208C910.785 141.34 911.136 141.456 911.628 141.557C912.12 141.652 912.535 141.762 912.872 141.885C913.916 142.268 914.438 142.931 914.438 143.874C914.438 144.549 914.148 145.095 913.569 145.515C912.991 145.929 912.243 146.137 911.327 146.137C910.707 146.137 910.156 146.027 909.673 145.809C909.194 145.585 908.818 145.282 908.545 144.899C908.271 144.512 908.135 144.095 908.135 143.648H910.008C910.026 143.999 910.156 144.268 910.397 144.455C910.639 144.642 910.963 144.735 911.368 144.735C911.746 144.735 912.031 144.665 912.223 144.523C912.419 144.378 912.517 144.188 912.517 143.956ZM918.895 142.247C918.895 141.094 919.152 140.176 919.667 139.492C920.187 138.809 920.895 138.467 921.793 138.467C922.513 138.467 923.108 138.736 923.577 139.273V135.5H925.56V146H923.775L923.68 145.214C923.188 145.829 922.554 146.137 921.779 146.137C920.909 146.137 920.209 145.795 919.681 145.111C919.157 144.423 918.895 143.468 918.895 142.247ZM920.87 142.391C920.87 143.083 920.991 143.614 921.232 143.983C921.474 144.353 921.825 144.537 922.285 144.537C922.896 144.537 923.326 144.28 923.577 143.765V140.846C923.331 140.331 922.905 140.073 922.299 140.073C921.346 140.073 920.87 140.846 920.87 142.391ZM930.495 146.137C929.41 146.137 928.526 145.804 927.843 145.139C927.164 144.473 926.824 143.587 926.824 142.479V142.288C926.824 141.545 926.968 140.882 927.255 140.299C927.542 139.711 927.948 139.26 928.472 138.945C929 138.626 929.602 138.467 930.276 138.467C931.288 138.467 932.083 138.786 932.662 139.424C933.245 140.062 933.537 140.966 933.537 142.138V142.944H928.827C928.891 143.427 929.082 143.815 929.401 144.106C929.725 144.398 930.133 144.544 930.625 144.544C931.386 144.544 931.981 144.268 932.409 143.717L933.38 144.804C933.084 145.223 932.683 145.551 932.177 145.788C931.671 146.021 931.11 146.137 930.495 146.137ZM930.27 140.066C929.878 140.066 929.559 140.199 929.312 140.463C929.071 140.727 928.916 141.105 928.848 141.598H931.596V141.44C931.587 141.003 931.468 140.666 931.24 140.429C931.012 140.187 930.689 140.066 930.27 140.066ZM940.004 138.604L940.065 139.431C940.59 138.788 941.298 138.467 942.191 138.467C943.144 138.467 943.798 138.843 944.153 139.595C944.673 138.843 945.413 138.467 946.375 138.467C947.177 138.467 947.774 138.701 948.166 139.171C948.558 139.636 948.754 140.338 948.754 141.276V146H946.771V141.283C946.771 140.864 946.689 140.559 946.525 140.367C946.361 140.171 946.072 140.073 945.657 140.073C945.065 140.073 944.655 140.356 944.427 140.921L944.434 146H942.458V141.29C942.458 140.862 942.374 140.552 942.205 140.36C942.036 140.169 941.749 140.073 941.344 140.073C940.783 140.073 940.378 140.306 940.127 140.771V146H938.151V138.604H940.004ZM954.564 146C954.473 145.822 954.407 145.601 954.366 145.337C953.888 145.87 953.266 146.137 952.5 146.137C951.775 146.137 951.174 145.927 950.695 145.508C950.221 145.089 949.984 144.56 949.984 143.922C949.984 143.138 950.274 142.536 950.853 142.117C951.436 141.698 952.277 141.486 953.375 141.481H954.284V141.058C954.284 140.716 954.195 140.442 954.018 140.237C953.844 140.032 953.569 139.93 953.19 139.93C952.858 139.93 952.596 140.009 952.404 140.169C952.217 140.328 952.124 140.547 952.124 140.825H950.148C950.148 140.397 950.281 140 950.545 139.636C950.809 139.271 951.183 138.986 951.666 138.781C952.149 138.572 952.691 138.467 953.293 138.467C954.204 138.467 954.927 138.697 955.46 139.157C955.998 139.613 956.267 140.256 956.267 141.085V144.291C956.271 144.993 956.369 145.524 956.561 145.884V146H954.564ZM952.931 144.626C953.222 144.626 953.491 144.562 953.737 144.435C953.983 144.302 954.166 144.127 954.284 143.908V142.637H953.546C952.557 142.637 952.031 142.979 951.967 143.662L951.96 143.778C951.96 144.024 952.047 144.227 952.22 144.387C952.393 144.546 952.63 144.626 952.931 144.626ZM959.603 138.604L959.664 139.458C960.193 138.797 960.901 138.467 961.79 138.467C962.574 138.467 963.157 138.697 963.54 139.157C963.923 139.618 964.119 140.306 964.128 141.222V146H962.152V141.27C962.152 140.85 962.061 140.547 961.879 140.36C961.697 140.169 961.394 140.073 960.97 140.073C960.414 140.073 959.997 140.31 959.719 140.784V146H957.743V138.604H959.603ZM969.036 146.137C967.951 146.137 967.067 145.804 966.384 145.139C965.705 144.473 965.365 143.587 965.365 142.479V142.288C965.365 141.545 965.509 140.882 965.796 140.299C966.083 139.711 966.489 139.26 967.013 138.945C967.541 138.626 968.143 138.467 968.817 138.467C969.829 138.467 970.624 138.786 971.203 139.424C971.786 140.062 972.078 140.966 972.078 142.138V142.944H967.368C967.432 143.427 967.623 143.815 967.942 144.106C968.266 144.398 968.674 144.544 969.166 144.544C969.927 144.544 970.522 144.268 970.95 143.717L971.921 144.804C971.625 145.223 971.224 145.551 970.718 145.788C970.212 146.021 969.651 146.137 969.036 146.137ZM968.811 140.066C968.419 140.066 968.1 140.199 967.854 140.463C967.612 140.727 967.457 141.105 967.389 141.598H970.137V141.44C970.128 141.003 970.009 140.666 969.781 140.429C969.553 140.187 969.23 140.066 968.811 140.066ZM977.362 140.456C977.093 140.42 976.856 140.401 976.651 140.401C975.904 140.401 975.414 140.654 975.182 141.16V146H973.206V138.604H975.072L975.127 139.485C975.523 138.806 976.073 138.467 976.774 138.467C976.993 138.467 977.198 138.496 977.39 138.556L977.362 140.456ZM982.4 146C982.309 145.822 982.243 145.601 982.202 145.337C981.724 145.87 981.102 146.137 980.336 146.137C979.611 146.137 979.01 145.927 978.531 145.508C978.057 145.089 977.82 144.56 977.82 143.922C977.82 143.138 978.11 142.536 978.688 142.117C979.272 141.698 980.113 141.486 981.211 141.481H982.12V141.058C982.12 140.716 982.031 140.442 981.854 140.237C981.68 140.032 981.405 139.93 981.026 139.93C980.694 139.93 980.432 140.009 980.24 140.169C980.053 140.328 979.96 140.547 979.96 140.825H977.984C977.984 140.397 978.117 140 978.381 139.636C978.645 139.271 979.019 138.986 979.502 138.781C979.985 138.572 980.527 138.467 981.129 138.467C982.04 138.467 982.763 138.697 983.296 139.157C983.834 139.613 984.103 140.256 984.103 141.085V144.291C984.107 144.993 984.205 145.524 984.396 145.884V146H982.4ZM980.767 144.626C981.058 144.626 981.327 144.562 981.573 144.435C981.819 144.302 982.002 144.127 982.12 143.908V142.637H981.382C980.393 142.637 979.867 142.979 979.803 143.662L979.796 143.778C979.796 144.024 979.882 144.227 980.056 144.387C980.229 144.546 980.466 144.626 980.767 144.626ZM755.844 166H753.861V158.604H755.844V166ZM753.745 156.689C753.745 156.393 753.843 156.149 754.039 155.958C754.24 155.767 754.511 155.671 754.853 155.671C755.19 155.671 755.459 155.767 755.659 155.958C755.86 156.149 755.96 156.393 755.96 156.689C755.96 156.99 755.857 157.236 755.652 157.428C755.452 157.619 755.185 157.715 754.853 157.715C754.52 157.715 754.251 157.619 754.046 157.428C753.845 157.236 753.745 156.99 753.745 156.689ZM759.296 158.604L759.357 159.458C759.886 158.797 760.595 158.467 761.483 158.467C762.267 158.467 762.851 158.697 763.233 159.157C763.616 159.618 763.812 160.306 763.821 161.222V166H761.846V161.27C761.846 160.85 761.755 160.547 761.572 160.36C761.39 160.169 761.087 160.073 760.663 160.073C760.107 160.073 759.69 160.31 759.412 160.784V166H757.437V158.604H759.296ZM768.401 164.544C768.766 164.544 769.062 164.444 769.29 164.243C769.518 164.043 769.636 163.776 769.646 163.443H771.498C771.493 163.945 771.357 164.405 771.088 164.824C770.819 165.239 770.45 165.562 769.98 165.795C769.516 166.023 769.001 166.137 768.436 166.137C767.378 166.137 766.544 165.802 765.934 165.132C765.323 164.457 765.018 163.528 765.018 162.343V162.213C765.018 161.074 765.321 160.164 765.927 159.485C766.533 158.806 767.365 158.467 768.422 158.467C769.347 158.467 770.088 158.731 770.644 159.26C771.204 159.784 771.489 160.483 771.498 161.358H769.646C769.636 160.976 769.518 160.666 769.29 160.429C769.062 160.187 768.761 160.066 768.388 160.066C767.927 160.066 767.579 160.235 767.342 160.572C767.109 160.905 766.993 161.447 766.993 162.199V162.404C766.993 163.165 767.109 163.712 767.342 164.045C767.574 164.378 767.927 164.544 768.401 164.544ZM772.318 162.233C772.318 161.5 772.46 160.846 772.742 160.271C773.025 159.697 773.43 159.253 773.959 158.938C774.492 158.624 775.11 158.467 775.812 158.467C776.81 158.467 777.623 158.772 778.252 159.383C778.885 159.993 779.239 160.823 779.312 161.871L779.325 162.377C779.325 163.512 779.008 164.423 778.375 165.111C777.742 165.795 776.892 166.137 775.825 166.137C774.759 166.137 773.907 165.795 773.269 165.111C772.635 164.428 772.318 163.498 772.318 162.322V162.233ZM774.294 162.377C774.294 163.079 774.426 163.617 774.69 163.99C774.955 164.359 775.333 164.544 775.825 164.544C776.304 164.544 776.677 164.362 776.946 163.997C777.215 163.628 777.35 163.04 777.35 162.233C777.35 161.545 777.215 161.012 776.946 160.634C776.677 160.256 776.299 160.066 775.812 160.066C775.328 160.066 774.955 160.256 774.69 160.634C774.426 161.007 774.294 161.589 774.294 162.377ZM782.36 158.604L782.422 159.458C782.951 158.797 783.659 158.467 784.548 158.467C785.332 158.467 785.915 158.697 786.298 159.157C786.681 159.618 786.877 160.306 786.886 161.222V166H784.91V161.27C784.91 160.85 784.819 160.547 784.637 160.36C784.454 160.169 784.151 160.073 783.728 160.073C783.172 160.073 782.755 160.31 782.477 160.784V166H780.501V158.604H782.36ZM792.396 163.956C792.396 163.715 792.275 163.525 792.033 163.389C791.796 163.247 791.413 163.122 790.885 163.013C789.126 162.644 788.246 161.896 788.246 160.771C788.246 160.114 788.517 159.567 789.06 159.13C789.606 158.688 790.32 158.467 791.199 158.467C792.138 158.467 792.888 158.688 793.448 159.13C794.013 159.572 794.296 160.146 794.296 160.853H792.32C792.32 160.57 792.229 160.338 792.047 160.155C791.865 159.968 791.58 159.875 791.192 159.875C790.86 159.875 790.602 159.95 790.42 160.101C790.238 160.251 790.146 160.442 790.146 160.675C790.146 160.894 790.249 161.071 790.454 161.208C790.664 161.34 791.015 161.456 791.507 161.557C791.999 161.652 792.414 161.762 792.751 161.885C793.795 162.268 794.316 162.931 794.316 163.874C794.316 164.549 794.027 165.095 793.448 165.515C792.869 165.929 792.122 166.137 791.206 166.137C790.586 166.137 790.035 166.027 789.552 165.809C789.073 165.585 788.697 165.282 788.424 164.899C788.15 164.512 788.014 164.095 788.014 163.648H789.887C789.905 163.999 790.035 164.268 790.276 164.455C790.518 164.642 790.841 164.735 791.247 164.735C791.625 164.735 791.91 164.665 792.102 164.523C792.298 164.378 792.396 164.188 792.396 163.956ZM798.671 164.544C799.035 164.544 799.332 164.444 799.56 164.243C799.787 164.043 799.906 163.776 799.915 163.443H801.768C801.763 163.945 801.626 164.405 801.357 164.824C801.089 165.239 800.719 165.562 800.25 165.795C799.785 166.023 799.27 166.137 798.705 166.137C797.648 166.137 796.814 165.802 796.203 165.132C795.592 164.457 795.287 163.528 795.287 162.343V162.213C795.287 161.074 795.59 160.164 796.196 159.485C796.802 158.806 797.634 158.467 798.691 158.467C799.617 158.467 800.357 158.731 800.913 159.26C801.474 159.784 801.758 160.483 801.768 161.358H799.915C799.906 160.976 799.787 160.666 799.56 160.429C799.332 160.187 799.031 160.066 798.657 160.066C798.197 160.066 797.848 160.235 797.611 160.572C797.379 160.905 797.263 161.447 797.263 162.199V162.404C797.263 163.165 797.379 163.712 797.611 164.045C797.844 164.378 798.197 164.544 798.671 164.544ZM804.98 166H802.998V158.604H804.98V166ZM802.882 156.689C802.882 156.393 802.98 156.149 803.176 155.958C803.376 155.767 803.647 155.671 803.989 155.671C804.326 155.671 804.595 155.767 804.796 155.958C804.996 156.149 805.097 156.393 805.097 156.689C805.097 156.99 804.994 157.236 804.789 157.428C804.589 157.619 804.322 157.715 803.989 157.715C803.657 157.715 803.388 157.619 803.183 157.428C802.982 157.236 802.882 156.99 802.882 156.689ZM810.019 166.137C808.934 166.137 808.05 165.804 807.366 165.139C806.687 164.473 806.348 163.587 806.348 162.479V162.288C806.348 161.545 806.491 160.882 806.778 160.299C807.065 159.711 807.471 159.26 807.995 158.945C808.524 158.626 809.125 158.467 809.8 158.467C810.812 158.467 811.607 158.786 812.186 159.424C812.769 160.062 813.061 160.966 813.061 162.138V162.944H808.351C808.414 163.427 808.606 163.815 808.925 164.106C809.248 164.398 809.656 164.544 810.148 164.544C810.91 164.544 811.504 164.268 811.933 163.717L812.903 164.804C812.607 165.223 812.206 165.551 811.7 165.788C811.194 166.021 810.634 166.137 810.019 166.137ZM809.793 160.066C809.401 160.066 809.082 160.199 808.836 160.463C808.594 160.727 808.439 161.105 808.371 161.598H811.119V161.44C811.11 161.003 810.992 160.666 810.764 160.429C810.536 160.187 810.212 160.066 809.793 160.066ZM816.007 158.604L816.068 159.458C816.597 158.797 817.306 158.467 818.194 158.467C818.978 158.467 819.562 158.697 819.944 159.157C820.327 159.618 820.523 160.306 820.532 161.222V166H818.557V161.27C818.557 160.85 818.465 160.547 818.283 160.36C818.101 160.169 817.798 160.073 817.374 160.073C816.818 160.073 816.401 160.31 816.123 160.784V166H814.147V158.604H816.007ZM824.401 156.785V158.604H825.666V160.053H824.401V163.744C824.401 164.018 824.454 164.214 824.559 164.332C824.663 164.451 824.864 164.51 825.16 164.51C825.379 164.51 825.573 164.494 825.741 164.462V165.959C825.354 166.077 824.955 166.137 824.545 166.137C823.16 166.137 822.453 165.437 822.426 164.038V160.053H821.346V158.604H822.426V156.785H824.401ZM830.171 166.137C829.086 166.137 828.202 165.804 827.519 165.139C826.84 164.473 826.5 163.587 826.5 162.479V162.288C826.5 161.545 826.644 160.882 826.931 160.299C827.218 159.711 827.623 159.26 828.147 158.945C828.676 158.626 829.278 158.467 829.952 158.467C830.964 158.467 831.759 158.786 832.338 159.424C832.921 160.062 833.213 160.966 833.213 162.138V162.944H828.503C828.567 163.427 828.758 163.815 829.077 164.106C829.401 164.398 829.809 164.544 830.301 164.544C831.062 164.544 831.657 164.268 832.085 163.717L833.056 164.804C832.759 165.223 832.358 165.551 831.853 165.788C831.347 166.021 830.786 166.137 830.171 166.137ZM829.945 160.066C829.553 160.066 829.234 160.199 828.988 160.463C828.747 160.727 828.592 161.105 828.523 161.598H831.271V161.44C831.262 161.003 831.144 160.666 830.916 160.429C830.688 160.187 830.365 160.066 829.945 160.066Z" fill="#60347B"/>
<path d="M68.5586 80.9824V90H63.2852V64.4062H73.2695C75.1914 64.4062 76.8789 64.7578 78.332 65.4609C79.7969 66.1641 80.9219 67.166 81.707 68.4668C82.4922 69.7559 82.8848 71.2266 82.8848 72.8789C82.8848 75.3867 82.0234 77.3672 80.3008 78.8203C78.5898 80.2617 76.2168 80.9824 73.1816 80.9824H68.5586ZM68.5586 76.7109H73.2695C74.6641 76.7109 75.7246 76.3828 76.4512 75.7266C77.1895 75.0703 77.5586 74.1328 77.5586 72.9141C77.5586 71.6602 77.1895 70.6465 76.4512 69.873C75.7129 69.0996 74.6934 68.7012 73.3926 68.6777H68.5586V76.7109ZM97.8438 84.7266H88.5977L86.8398 90H81.2324L90.7598 64.4062H95.6465L105.227 90H99.6191L97.8438 84.7266ZM90.0215 80.4551H96.4199L93.2031 70.875L90.0215 80.4551ZM120.889 83.2852C120.889 82.2891 120.537 81.5273 119.834 81C119.131 80.4609 117.865 79.8984 116.037 79.3125C114.209 78.7148 112.762 78.1289 111.695 77.5547C108.789 75.9844 107.336 73.8691 107.336 71.209C107.336 69.8262 107.723 68.5957 108.496 67.5176C109.281 66.4277 110.4 65.5781 111.854 64.9688C113.318 64.3594 114.959 64.0547 116.775 64.0547C118.604 64.0547 120.232 64.3887 121.662 65.0566C123.092 65.7129 124.199 66.6445 124.984 67.8516C125.781 69.0586 126.18 70.4297 126.18 71.9648H120.906C120.906 70.793 120.537 69.8848 119.799 69.2402C119.061 68.584 118.023 68.2559 116.688 68.2559C115.398 68.2559 114.396 68.5312 113.682 69.082C112.967 69.6211 112.609 70.3359 112.609 71.2266C112.609 72.0586 113.025 72.7559 113.857 73.3184C114.701 73.8809 115.938 74.4082 117.566 74.9004C120.566 75.8027 122.752 76.9219 124.123 78.2578C125.494 79.5938 126.18 81.2578 126.18 83.25C126.18 85.4648 125.342 87.2051 123.666 88.4707C121.99 89.7246 119.734 90.3516 116.898 90.3516C114.93 90.3516 113.137 89.9941 111.52 89.2793C109.902 88.5527 108.666 87.5625 107.811 86.3086C106.967 85.0547 106.545 83.6016 106.545 81.9492H111.836C111.836 84.7734 113.523 86.1855 116.898 86.1855C118.152 86.1855 119.131 85.9336 119.834 85.4297C120.537 84.9141 120.889 84.1992 120.889 83.2852ZM150.789 77.7832C150.789 80.3027 150.344 82.5117 149.453 84.4102C148.562 86.3086 147.285 87.7734 145.621 88.8047C143.969 89.8359 142.07 90.3516 139.926 90.3516C137.805 90.3516 135.912 89.8418 134.248 88.8223C132.584 87.8027 131.295 86.3496 130.381 84.4629C129.467 82.5645 129.004 80.3848 128.992 77.9238V76.6582C128.992 74.1387 129.443 71.9238 130.346 70.0137C131.26 68.0918 132.543 66.6211 134.195 65.6016C135.859 64.5703 137.758 64.0547 139.891 64.0547C142.023 64.0547 143.916 64.5703 145.568 65.6016C147.232 66.6211 148.516 68.0918 149.418 70.0137C150.332 71.9238 150.789 74.1328 150.789 76.6406V77.7832ZM145.445 76.623C145.445 73.9395 144.965 71.9004 144.004 70.5059C143.043 69.1113 141.672 68.4141 139.891 68.4141C138.121 68.4141 136.756 69.1055 135.795 70.4883C134.834 71.8594 134.348 73.875 134.336 76.5352V77.7832C134.336 80.3965 134.816 82.4238 135.777 83.8652C136.738 85.3066 138.121 86.0273 139.926 86.0273C141.695 86.0273 143.055 85.3359 144.004 83.9531C144.953 82.5586 145.434 80.5312 145.445 77.8711V76.623ZM175.381 90H170.301V70.418L164.236 72.2988V68.168L174.836 64.3711H175.381V90ZM69.3672 105.363H64.7441L63.8652 108H61.0615L65.8252 95.2031H68.2686L73.0586 108H70.2549L69.3672 105.363ZM65.4561 103.228H68.6553L67.0469 98.4375L65.4561 103.228ZM76.8906 103.491V108H74.2539V95.2031H79.2461C80.207 95.2031 81.0508 95.3789 81.7773 95.7305C82.5098 96.082 83.0723 96.583 83.4648 97.2334C83.8574 97.8779 84.0537 98.6133 84.0537 99.4395C84.0537 100.693 83.623 101.684 82.7617 102.41C81.9062 103.131 80.7197 103.491 79.2021 103.491H76.8906ZM76.8906 101.355H79.2461C79.9434 101.355 80.4736 101.191 80.8369 100.863C81.2061 100.535 81.3906 100.066 81.3906 99.457C81.3906 98.8301 81.2061 98.3232 80.8369 97.9365C80.4678 97.5498 79.958 97.3506 79.3076 97.3389H76.8906V101.355ZM90.6104 103.315H88.5098V108H85.873V95.2031H90.6279C92.1396 95.2031 93.3057 95.54 94.126 96.2139C94.9463 96.8877 95.3564 97.8398 95.3564 99.0703C95.3564 99.9434 95.166 100.673 94.7852 101.259C94.4102 101.839 93.8389 102.302 93.0713 102.647L95.8398 107.877V108H93.0098L90.6104 103.315ZM88.5098 101.18H90.6367C91.2988 101.18 91.8115 101.013 92.1748 100.679C92.5381 100.339 92.7197 99.873 92.7197 99.2812C92.7197 98.6777 92.5469 98.2031 92.2012 97.8574C91.8613 97.5117 91.3369 97.3389 90.6279 97.3389H88.5098V101.18ZM105.068 102.454H100.006V105.882H105.947V108H97.3691V95.2031H105.93V97.3389H100.006V100.389H105.068V102.454ZM117.9 108H115.264L110.131 99.5801V108H107.494V95.2031H110.131L115.272 103.641V95.2031H117.9V108ZM120.203 108V95.2031H124.141C125.266 95.2031 126.271 95.458 127.155 95.9678C128.046 96.4717 128.74 97.1924 129.238 98.1299C129.736 99.0615 129.985 100.122 129.985 101.312V101.9C129.985 103.09 129.739 104.147 129.247 105.073C128.761 105.999 128.072 106.717 127.182 107.227C126.291 107.736 125.286 107.994 124.167 108H120.203ZM122.84 97.3389V105.882H124.114C125.146 105.882 125.934 105.545 126.479 104.871C127.023 104.197 127.302 103.233 127.313 101.979V101.303C127.313 100.002 127.044 99.0176 126.505 98.3496C125.966 97.6758 125.178 97.3389 124.141 97.3389H122.84ZM139.609 102.454H134.547V105.882H140.488V108H131.91V95.2031H140.471V97.3389H134.547V100.389H139.609V102.454ZM148.671 104.643C148.671 104.145 148.495 103.764 148.144 103.5C147.792 103.23 147.159 102.949 146.245 102.656C145.331 102.357 144.607 102.064 144.074 101.777C142.621 100.992 141.895 99.9346 141.895 98.6045C141.895 97.9131 142.088 97.2979 142.475 96.7588C142.867 96.2139 143.427 95.7891 144.153 95.4844C144.886 95.1797 145.706 95.0273 146.614 95.0273C147.528 95.0273 148.343 95.1943 149.058 95.5283C149.772 95.8564 150.326 96.3223 150.719 96.9258C151.117 97.5293 151.316 98.2148 151.316 98.9824H148.68C148.68 98.3965 148.495 97.9424 148.126 97.6201C147.757 97.292 147.238 97.1279 146.57 97.1279C145.926 97.1279 145.425 97.2656 145.067 97.541C144.71 97.8105 144.531 98.168 144.531 98.6133C144.531 99.0293 144.739 99.3779 145.155 99.6592C145.577 99.9404 146.195 100.204 147.01 100.45C148.51 100.901 149.603 101.461 150.288 102.129C150.974 102.797 151.316 103.629 151.316 104.625C151.316 105.732 150.897 106.603 150.06 107.235C149.222 107.862 148.094 108.176 146.676 108.176C145.691 108.176 144.795 107.997 143.986 107.64C143.178 107.276 142.56 106.781 142.132 106.154C141.71 105.527 141.499 104.801 141.499 103.975H144.145C144.145 105.387 144.988 106.093 146.676 106.093C147.303 106.093 147.792 105.967 148.144 105.715C148.495 105.457 148.671 105.1 148.671 104.643ZM72.1885 121.737C72.0889 123.114 71.5791 124.198 70.6592 124.989C69.7451 125.78 68.5381 126.176 67.0381 126.176C65.3975 126.176 64.1055 125.625 63.1621 124.523C62.2246 123.416 61.7559 121.898 61.7559 119.971V119.188C61.7559 117.958 61.9727 116.874 62.4062 115.937C62.8398 114.999 63.458 114.281 64.2607 113.783C65.0693 113.279 66.0068 113.027 67.0732 113.027C68.5498 113.027 69.7393 113.423 70.6416 114.214C71.5439 115.005 72.0654 116.115 72.2061 117.545H69.5693C69.5049 116.719 69.2734 116.121 68.875 115.752C68.4824 115.377 67.8818 115.189 67.0732 115.189C66.1943 115.189 65.5352 115.506 65.0957 116.139C64.6621 116.766 64.4395 117.741 64.4277 119.065V120.032C64.4277 121.415 64.6357 122.426 65.0518 123.064C65.4736 123.703 66.1357 124.022 67.0381 124.022C67.8525 124.022 68.459 123.838 68.8574 123.469C69.2617 123.094 69.4932 122.517 69.5518 121.737H72.1885ZM84.4316 119.892C84.4316 121.151 84.209 122.256 83.7637 123.205C83.3184 124.154 82.6797 124.887 81.8477 125.402C81.0215 125.918 80.0723 126.176 79 126.176C77.9395 126.176 76.9932 125.921 76.1611 125.411C75.3291 124.901 74.6846 124.175 74.2275 123.231C73.7705 122.282 73.5391 121.192 73.5332 119.962V119.329C73.5332 118.069 73.7588 116.962 74.21 116.007C74.667 115.046 75.3086 114.311 76.1348 113.801C76.9668 113.285 77.916 113.027 78.9824 113.027C80.0488 113.027 80.9951 113.285 81.8213 113.801C82.6533 114.311 83.2949 115.046 83.7461 116.007C84.2031 116.962 84.4316 118.066 84.4316 119.32V119.892ZM81.7598 119.312C81.7598 117.97 81.5195 116.95 81.0391 116.253C80.5586 115.556 79.873 115.207 78.9824 115.207C78.0977 115.207 77.415 115.553 76.9346 116.244C76.4541 116.93 76.2109 117.938 76.2051 119.268V119.892C76.2051 121.198 76.4453 122.212 76.9258 122.933C77.4062 123.653 78.0977 124.014 79 124.014C79.8848 124.014 80.5645 123.668 81.0391 122.977C81.5137 122.279 81.7539 121.266 81.7598 119.936V119.312ZM96.7539 126H94.1172L88.9844 117.58V126H86.3477V113.203H88.9844L94.126 121.641V113.203H96.7539V126ZM105.692 122.643C105.692 122.145 105.517 121.764 105.165 121.5C104.813 121.23 104.181 120.949 103.267 120.656C102.353 120.357 101.629 120.064 101.096 119.777C99.6426 118.992 98.916 117.935 98.916 116.604C98.916 115.913 99.1094 115.298 99.4961 114.759C99.8887 114.214 100.448 113.789 101.175 113.484C101.907 113.18 102.728 113.027 103.636 113.027C104.55 113.027 105.364 113.194 106.079 113.528C106.794 113.856 107.348 114.322 107.74 114.926C108.139 115.529 108.338 116.215 108.338 116.982H105.701C105.701 116.396 105.517 115.942 105.147 115.62C104.778 115.292 104.26 115.128 103.592 115.128C102.947 115.128 102.446 115.266 102.089 115.541C101.731 115.811 101.553 116.168 101.553 116.613C101.553 117.029 101.761 117.378 102.177 117.659C102.599 117.94 103.217 118.204 104.031 118.45C105.531 118.901 106.624 119.461 107.31 120.129C107.995 120.797 108.338 121.629 108.338 122.625C108.338 123.732 107.919 124.603 107.081 125.235C106.243 125.862 105.115 126.176 103.697 126.176C102.713 126.176 101.816 125.997 101.008 125.64C100.199 125.276 99.5811 124.781 99.1533 124.154C98.7314 123.527 98.5205 122.801 98.5205 121.975H101.166C101.166 123.387 102.01 124.093 103.697 124.093C104.324 124.093 104.813 123.967 105.165 123.715C105.517 123.457 105.692 123.1 105.692 122.643ZM120.177 121.737C120.077 123.114 119.567 124.198 118.647 124.989C117.733 125.78 116.526 126.176 115.026 126.176C113.386 126.176 112.094 125.625 111.15 124.523C110.213 123.416 109.744 121.898 109.744 119.971V119.188C109.744 117.958 109.961 116.874 110.395 115.937C110.828 114.999 111.446 114.281 112.249 113.783C113.058 113.279 113.995 113.027 115.062 113.027C116.538 113.027 117.728 113.423 118.63 114.214C119.532 115.005 120.054 116.115 120.194 117.545H117.558C117.493 116.719 117.262 116.121 116.863 115.752C116.471 115.377 115.87 115.189 115.062 115.189C114.183 115.189 113.523 115.506 113.084 116.139C112.65 116.766 112.428 117.741 112.416 119.065V120.032C112.416 121.415 112.624 122.426 113.04 123.064C113.462 123.703 114.124 124.022 115.026 124.022C115.841 124.022 116.447 123.838 116.846 123.469C117.25 123.094 117.481 122.517 117.54 121.737H120.177ZM124.712 126H122.075V113.203H124.712V126ZM134.863 120.454H129.801V123.882H135.742V126H127.164V113.203H135.725V115.339H129.801V118.389H134.863V120.454ZM147.695 126H145.059L139.926 117.58V126H137.289V113.203H139.926L145.067 121.641V113.203H147.695V126ZM159.367 115.339H155.447V126H152.811V115.339H148.943V113.203H159.367V115.339ZM168.578 120.454H163.516V123.882H169.457V126H160.879V113.203H169.439V115.339H163.516V118.389H168.578V120.454ZM174.449 113.203L177.736 122.484L181.006 113.203H184.469V126H181.823V122.502L182.087 116.464L178.633 126H176.822L173.377 116.473L173.641 122.502V126H171.004V113.203H174.449ZM194.471 120.454H189.408V123.882H195.35V126H186.771V113.203H195.332V115.339H189.408V118.389H194.471V120.454ZM207.303 126H204.666L199.533 117.58V126H196.896V113.203H199.533L204.675 121.641V113.203H207.303V126ZM218.975 115.339H215.055V126H212.418V115.339H208.551V113.203H218.975V115.339ZM228.186 120.454H223.123V123.882H229.064V126H220.486V113.203H229.047V115.339H223.123V118.389H228.186V120.454ZM239.506 118.969L242.169 113.203H245.052L240.851 121.359V126H238.17V121.359L233.969 113.203H236.86L239.506 118.969ZM255.186 126V113.203H259.123C260.248 113.203 261.253 113.458 262.138 113.968C263.028 114.472 263.723 115.192 264.221 116.13C264.719 117.062 264.968 118.122 264.968 119.312V119.9C264.968 121.09 264.722 122.147 264.229 123.073C263.743 123.999 263.055 124.717 262.164 125.227C261.273 125.736 260.269 125.994 259.149 126H255.186ZM257.822 115.339V123.882H259.097C260.128 123.882 260.916 123.545 261.461 122.871C262.006 122.197 262.284 121.233 262.296 119.979V119.303C262.296 118.002 262.026 117.018 261.487 116.35C260.948 115.676 260.16 115.339 259.123 115.339H257.822ZM274.592 120.454H269.529V123.882H275.471V126H266.893V113.203H275.453V115.339H269.529V118.389H274.592V120.454ZM65.5879 131.203L68.875 140.484L72.1445 131.203H75.6074V144H72.9619V140.502L73.2256 134.464L69.7715 144H67.9609L64.5156 134.473L64.7793 140.502V144H62.1426V131.203H65.5879ZM85.293 141.363H80.6699L79.791 144H76.9873L81.751 131.203H84.1943L88.9844 144H86.1807L85.293 141.363ZM81.3818 139.228H84.5811L82.9727 134.438L81.3818 139.228ZM100.586 144H97.9492L92.8164 135.58V144H90.1797V131.203H92.8164L97.958 139.641V131.203H100.586V144ZM110.588 138.454H105.525V141.882H111.467V144H102.889V131.203H111.449V133.339H105.525V136.389H110.588V138.454ZM117.751 139.315H115.65V144H113.014V131.203H117.769C119.28 131.203 120.446 131.54 121.267 132.214C122.087 132.888 122.497 133.84 122.497 135.07C122.497 135.943 122.307 136.673 121.926 137.259C121.551 137.839 120.979 138.302 120.212 138.647L122.98 143.877V144H120.15L117.751 139.315ZM115.65 137.18H117.777C118.439 137.18 118.952 137.013 119.315 136.679C119.679 136.339 119.86 135.873 119.86 135.281C119.86 134.678 119.688 134.203 119.342 133.857C119.002 133.512 118.478 133.339 117.769 133.339H115.65V137.18ZM131.734 141.363H127.111L126.232 144H123.429L128.192 131.203H130.636L135.426 144H132.622L131.734 141.363ZM127.823 139.228H131.022L129.414 134.438L127.823 139.228ZM148.328 141.363H143.705L142.826 144H140.022L144.786 131.203H147.229L152.02 144H149.216L148.328 141.363ZM144.417 139.228H147.616L146.008 134.438L144.417 139.228ZM163.146 142.383C162.672 142.951 162.001 143.394 161.134 143.71C160.267 144.021 159.306 144.176 158.251 144.176C157.144 144.176 156.171 143.936 155.333 143.455C154.501 142.969 153.856 142.266 153.399 141.346C152.948 140.426 152.717 139.345 152.705 138.103V137.232C152.705 135.955 152.919 134.851 153.347 133.919C153.78 132.981 154.401 132.267 155.21 131.774C156.024 131.276 156.977 131.027 158.066 131.027C159.584 131.027 160.771 131.391 161.626 132.117C162.481 132.838 162.988 133.89 163.146 135.272H160.58C160.463 134.54 160.202 134.004 159.798 133.664C159.399 133.324 158.849 133.154 158.146 133.154C157.249 133.154 156.566 133.491 156.098 134.165C155.629 134.839 155.392 135.841 155.386 137.171V137.988C155.386 139.33 155.641 140.344 156.15 141.029C156.66 141.715 157.407 142.058 158.392 142.058C159.382 142.058 160.088 141.847 160.51 141.425V139.219H158.11V137.276H163.146V142.383ZM170.028 139.315H167.928V144H165.291V131.203H170.046C171.558 131.203 172.724 131.54 173.544 132.214C174.364 132.888 174.774 133.84 174.774 135.07C174.774 135.943 174.584 136.673 174.203 137.259C173.828 137.839 173.257 138.302 172.489 138.647L175.258 143.877V144H172.428L170.028 139.315ZM167.928 137.18H170.055C170.717 137.18 171.229 137.013 171.593 136.679C171.956 136.339 172.138 135.873 172.138 135.281C172.138 134.678 171.965 134.203 171.619 133.857C171.279 133.512 170.755 133.339 170.046 133.339H167.928V137.18ZM184.012 141.363H179.389L178.51 144H175.706L180.47 131.203H182.913L187.703 144H184.899L184.012 141.363ZM180.101 139.228H183.3L181.691 134.438L180.101 139.228ZM188.898 144V131.203H192.836C193.961 131.203 194.966 131.458 195.851 131.968C196.741 132.472 197.436 133.192 197.934 134.13C198.432 135.062 198.681 136.122 198.681 137.312V137.9C198.681 139.09 198.435 140.147 197.942 141.073C197.456 141.999 196.768 142.717 195.877 143.227C194.986 143.736 193.981 143.994 192.862 144H188.898ZM191.535 133.339V141.882H192.81C193.841 141.882 194.629 141.545 195.174 140.871C195.719 140.197 195.997 139.233 196.009 137.979V137.303C196.009 136.002 195.739 135.018 195.2 134.35C194.661 133.676 193.873 133.339 192.836 133.339H191.535ZM207.637 141.363H203.014L202.135 144H199.331L204.095 131.203H206.538L211.328 144H208.524L207.637 141.363ZM203.726 139.228H206.925L205.316 134.438L203.726 139.228ZM212.523 144V131.203H217.006C218.559 131.203 219.736 131.502 220.539 132.1C221.342 132.691 221.743 133.562 221.743 134.71C221.743 135.337 221.582 135.891 221.26 136.371C220.938 136.846 220.489 137.194 219.915 137.417C220.571 137.581 221.087 137.912 221.462 138.41C221.843 138.908 222.033 139.518 222.033 140.238C222.033 141.469 221.641 142.4 220.855 143.033C220.07 143.666 218.951 143.988 217.498 144H212.523ZM215.16 138.428V141.882H217.419C218.04 141.882 218.523 141.735 218.869 141.442C219.221 141.144 219.396 140.733 219.396 140.212C219.396 139.04 218.79 138.445 217.577 138.428H215.16ZM215.16 136.564H217.111C218.441 136.541 219.106 136.011 219.106 134.974C219.106 134.394 218.937 133.978 218.597 133.726C218.263 133.468 217.732 133.339 217.006 133.339H215.16V136.564ZM226.656 141.882H232.255V144H224.02V131.203H226.656V141.882ZM241.475 138.454H236.412V141.882H242.354V144H233.775V131.203H242.336V133.339H236.412V136.389H241.475V138.454Z" fill="#60347B"/>
</g>
<defs>
<filter id="filter0_d" x="0" y="0" width="1040" height="220" filterUnits="userSpaceOnUse" color-interpolation-filters="sRGB">
<feFlood flood-opacity="0" result="BackgroundImageFix"/>
<feColorMatrix in="SourceAlpha" type="matrix" values="0 0 0 0 0 0 0 0 0 0 0 0 0 0 0 0 0 0 127 0"/>
<feOffset dy="4"/>
<feGaussianBlur stdDeviation="5"/>
<feColorMatrix type="matrix" values="0 0 0 0 0 0 0 0 0 0 0 0 0 0 0 0 0 0 0.15 0"/>
<feBlend mode="normal" in2="BackgroundImageFix" result="effect1_dropShadow"/>
<feBlend mode="normal" in="SourceGraphic" in2="effect1_dropShadow" result="shape"/>
</filter>
</defs>
</svg>
