<svg width="522" height="416" viewBox="0 0 522 416" fill="none" xmlns="http://www.w3.org/2000/svg">
<g clip-path="url(#clip0)">
<path d="M116.372 45.2039C98.5602 66.1285 87.4681 92.1443 72.1171 115.001C60.7599 132.08 46.9043 147.371 35.3579 164.378C12.3408 198.247 -1.55277 239.537 0.983649 280.79C3.52007 322.044 23.6979 362.773 57.3339 385.359C77.9849 399.242 102.422 405.832 126.726 410.111C208.554 424.554 296.628 413.433 366.55 367.377C378.551 359.469 390.041 350.551 403.063 344.557C436.51 329.139 479.894 332.713 504.142 304.405C518.736 287.362 521.953 262.989 521.461 240.259C520.875 212.961 515.272 184.292 497.839 163.819C475.124 136.972 438.024 129.787 407.322 113.267C377.396 97.2535 353.262 72.0682 327.558 49.573C265.718 -4.57087 176.754 -25.7301 116.372 45.2039Z" fill="#7D4C98"/>
<path d="M413.051 269.275C413.054 270.946 412.698 272.599 412.005 274.134C411.311 275.668 410.295 277.05 409.019 278.194C406.834 280.174 404.013 281.395 401.012 281.66C400.451 281.706 399.888 281.706 399.327 281.66L305.309 279.855C301.705 279.818 298.258 278.44 295.702 276.016C293.146 273.592 291.683 270.312 291.624 266.874C291.617 265.204 291.968 263.55 292.655 262.013C293.342 260.476 294.35 259.089 295.618 257.937C298.229 255.57 301.708 254.274 305.309 254.327H308.508C307.847 252.113 307.509 249.822 307.505 247.52C307.5 244.23 308.199 240.973 309.559 237.949C310.92 234.926 312.913 232.199 315.417 229.936C317.627 227.92 320.189 226.289 322.989 225.115C326.615 223.608 330.542 222.869 334.497 222.949L342.485 223.111C347.454 223.208 352.305 224.576 356.531 227.072C360.756 229.568 364.201 233.101 366.505 237.302C368.809 236.257 371.338 235.743 373.887 235.803H375.951C380.23 235.845 384.323 237.477 387.36 240.353C390.396 243.23 392.137 247.122 392.21 251.203V251.943C392.209 253.35 391.992 254.749 391.567 256.096L399.346 256.24C402.959 256.287 406.411 257.674 408.969 260.107C411.528 262.541 412.992 265.829 413.051 269.275Z" fill="white"/>
<path d="M401.012 281.66C400.452 281.706 399.888 281.706 399.327 281.66L305.309 279.855C301.705 279.818 298.258 278.44 295.702 276.016C293.146 273.592 291.683 270.312 291.624 266.874C291.617 265.204 291.968 263.55 292.655 262.013C293.342 260.476 294.35 259.089 295.618 257.937C291.832 280.09 316.155 276.912 316.155 276.912H377.238L401.012 281.66Z" fill="url(#paint0_linear)"/>
<path d="M315.398 256.999L308.565 254.525C307.903 252.311 307.566 250.021 307.562 247.719C307.556 244.428 308.255 241.172 309.616 238.148C310.976 235.124 312.97 232.397 315.474 230.134C317.684 228.119 320.246 226.487 323.045 225.314C304.135 240.768 315.398 256.999 315.398 256.999Z" fill="url(#paint1_linear)"/>
<path opacity="0.23" d="M201.335 395.328C267.759 395.328 321.607 348.94 321.607 291.716C321.607 234.493 267.759 188.105 201.335 188.105C134.911 188.105 81.063 234.493 81.063 291.716C81.063 348.94 134.911 395.328 201.335 395.328Z" fill="#A500FF"/>
<path d="M350.662 274.547C350.694 298.602 342.485 322.007 327.285 341.202L327.039 341.527C310.383 362.465 286.467 377.073 259.561 382.744C232.655 388.414 204.511 384.777 180.157 372.483C155.803 360.189 136.824 340.037 126.609 315.628C116.395 291.218 115.61 264.14 124.396 239.23C133.181 214.32 150.964 193.199 174.569 179.641C198.175 166.082 226.064 160.969 253.258 165.213C280.451 169.458 305.177 182.784 323.02 202.812C340.862 222.84 350.66 248.265 350.662 274.547Z" fill="#A500FF"/>
<path d="M197.114 220.042C190.735 222.552 183.693 223.147 177.144 225.205C170.595 227.264 164.026 231.416 162.342 237.843C161.471 241.075 161.925 244.668 160.26 247.592C158.045 251.528 152.859 253.009 149.717 256.258C143.735 262.541 147.672 273.319 154.979 278.176C162.285 283.032 171.617 283.773 180.362 285.199C182.755 285.381 185.036 286.242 186.911 287.672C192.003 292.312 186.362 300.707 188.52 307.098C189.731 310.709 193.309 313.182 194.937 316.649C198.06 323.257 193.328 330.55 190.205 337.158C184.571 349.213 184.062 362.883 188.785 375.288C188.567 375.587 188.327 375.871 188.066 376.137C175.609 370.923 164.201 363.677 154.354 354.725C144.757 341.888 137.167 327.896 137.962 312.515C138.397 304.174 141.312 296.121 141.861 287.817C142.77 274.33 137.659 259.689 144.587 247.917C148.373 241.4 155.755 234.25 151.628 227.932C144.341 228.943 136.485 229.105 129.804 226.686C138.003 210.395 150.253 196.262 165.489 185.519C180.724 174.777 198.482 167.749 217.216 165.05C224.408 184.656 218.692 211.376 197.114 220.042Z" fill="url(#paint2_linear)"/>
<path d="M350.662 274.547C350.67 281.557 349.979 288.551 348.599 295.436C345.512 297.829 342.621 300.443 339.948 303.253C330.768 313.508 328.78 327.734 327.285 341.166C327.285 341.455 327.285 341.744 327.19 342.015C327.19 341.834 327.19 341.672 327.039 341.491C326.309 338.042 324.732 334.806 322.439 332.049C319.827 329.359 315.19 328.023 312.01 330.135C310.496 326.525 308.975 322.944 307.448 319.393C297.984 319.393 288.217 319.393 279.32 316.198C270.424 313.002 263.061 306.882 255.943 300.906C256.878 290.551 256.675 280.131 255.338 269.817C282.985 266.955 308.557 254.48 327.172 234.774C310.524 233.982 294.018 238.044 279.85 246.419C276.822 248.224 273.755 250.246 270.216 250.535C267.973 250.589 265.736 250.296 263.591 249.669L240.706 244.126C237.848 230.08 248.05 215.98 261.168 209.029C271.011 203.83 282.955 204.841 292.4 200.291C298.873 197.186 300.766 191.751 306.426 187.761H306.539C320.288 198.11 331.4 211.294 339.042 226.325C346.684 241.356 350.656 257.842 350.662 274.547Z" fill="url(#paint3_linear)"/>
<path d="M270.443 252.106C269.761 254.236 269.118 256.728 270.443 258.515C271.094 259.279 271.951 259.86 272.922 260.194C274.053 260.709 275.311 260.916 276.557 260.791C277.803 260.667 278.988 260.217 279.983 259.49C281.022 258.406 281.757 257.09 282.122 255.663C283.891 250.482 285.158 245.158 285.907 239.757C286.05 239.261 286.05 238.737 285.907 238.24C285.611 237.72 285.137 237.312 284.563 237.085C281.554 235.55 276.841 234.323 275.099 237.717C272.96 242.086 271.957 247.484 270.443 252.106Z" fill="#FBC4D6"/>
<path d="M279.547 254.579C280.183 254.496 280.83 254.552 281.44 254.742C281.856 254.961 282.217 255.263 282.5 255.626L289.03 262.613C290.299 263.967 291.624 265.827 290.734 267.434C290.421 267.881 290.006 268.255 289.522 268.53C289.037 268.805 288.494 268.973 287.933 269.022C284.77 269.298 281.59 268.703 278.771 267.307C276.765 266.477 274.777 265.502 272.828 264.599C271.379 263.972 270.112 263.018 269.137 261.819C267.641 259.652 267.244 254.453 269.856 252.792C271.2 251.979 272.373 252.557 273.642 253.117C275.455 254.059 277.483 254.561 279.547 254.579Z" fill="#A500FF"/>
<path d="M306.634 275.901C306.685 276.303 306.64 276.71 306.502 277.093C306.276 277.464 305.949 277.77 305.555 277.977C304.314 278.793 302.859 279.262 301.353 279.331C300.601 279.358 299.853 279.219 299.167 278.925C298.481 278.63 297.875 278.189 297.397 277.634C296.7 276.584 296.278 275.389 296.167 274.15C295.612 271.487 295.339 268.777 295.353 266.062C295.32 265.902 295.324 265.738 295.364 265.58C295.404 265.422 295.48 265.274 295.587 265.147C295.693 265.02 295.827 264.916 295.979 264.843C296.132 264.771 296.299 264.73 296.47 264.726C298.817 264.256 303.492 263.083 304.685 265.827C305.9 269.063 306.558 272.465 306.634 275.901Z" fill="#FBC4D6"/>
<path d="M316.572 275.63C318.589 275.734 320.582 276.098 322.496 276.713C323.448 277.028 324.322 277.524 325.064 278.173C325.807 278.822 326.401 279.61 326.812 280.487C327.194 281.345 327.241 282.306 326.945 283.195C326.291 284.514 325.143 285.551 323.727 286.102C316.999 289.512 309.41 291.068 301.807 290.597C299.857 290.672 297.951 290.025 296.488 288.792C295.433 287.301 294.939 285.512 295.088 283.718L294.823 275.233C296.536 275.306 298.207 275.757 299.706 276.551C302.508 277.454 303.606 275.287 305.915 274.746C308.925 274.078 313.505 275.341 316.572 275.63Z" fill="#A500FF"/>
<path d="M279.547 254.579C280.183 254.496 280.83 254.552 281.44 254.742C281.856 254.961 282.217 255.263 282.5 255.626L289.03 262.613C290.299 263.967 291.624 265.827 290.734 267.434C290.421 267.881 290.006 268.255 289.522 268.53C289.037 268.805 288.494 268.973 287.933 269.022C284.77 269.298 281.59 268.703 278.771 267.307C276.765 266.477 274.777 265.502 272.828 264.599C271.379 263.972 270.112 263.018 269.137 261.819C267.641 259.652 267.244 254.453 269.856 252.792C271.2 251.979 272.373 252.557 273.642 253.117C275.455 254.059 277.483 254.561 279.547 254.579Z" fill="url(#paint4_linear)"/>
<path d="M316.572 275.63C318.589 275.734 320.582 276.098 322.496 276.713C323.448 277.028 324.322 277.524 325.064 278.173C325.807 278.822 326.401 279.61 326.812 280.487C327.194 281.345 327.241 282.306 326.945 283.195C326.291 284.514 325.143 285.551 323.727 286.102C316.999 289.512 309.41 291.068 301.807 290.597C299.857 290.672 297.951 290.025 296.488 288.792C295.433 287.301 294.939 285.512 295.088 283.718L294.823 275.233C296.536 275.306 298.207 275.757 299.706 276.551C302.508 277.454 303.606 275.287 305.915 274.746C308.925 274.078 313.505 275.341 316.572 275.63Z" fill="url(#paint5_linear)"/>
<path d="M208.736 183.699C204.664 183.362 200.567 183.423 196.508 183.88C195.977 183.906 195.463 184.061 195.013 184.331C194.754 184.563 194.547 184.843 194.404 185.153C194.261 185.463 194.185 185.798 194.18 186.137C193.612 191.372 197.966 195.922 202.66 198.684C215.361 206.195 231.375 205.906 245.401 210.816C246.739 211.155 247.927 211.895 248.789 212.929C249.374 214.049 249.66 215.289 249.622 216.539C250.246 223.599 254.354 229.954 255.717 236.904C257.079 243.855 255.622 251.131 256.739 258.136C261.338 253.46 269.175 252.72 273.774 248.098C278.09 243.837 278.942 237.482 279.585 231.597L281.327 215.456C281.65 214.292 281.516 213.056 280.952 211.979C280.387 210.902 279.43 210.059 278.26 209.607C257.553 196.843 233.286 185.721 208.736 183.699Z" fill="url(#paint6_linear)"/>
<path d="M292.476 182.074C294.389 182.44 296.162 183.295 297.605 184.548C299.086 186.514 299.759 188.929 299.498 191.336C299.453 208.467 296.058 225.439 289.485 241.382C289.423 241.942 289.218 242.48 288.889 242.947C288.559 243.414 288.114 243.798 287.593 244.063C287.072 244.328 286.49 244.468 285.899 244.47C285.309 244.471 284.727 244.335 284.204 244.072C280.268 243.059 276.389 241.853 272.582 240.461L277.73 207.964C277.976 207.062 277.923 206.11 277.579 205.238C277.199 204.619 276.666 204.099 276.027 203.721C270.154 199.647 263.952 196.025 257.477 192.889C252.309 190.397 246.385 187.473 244.984 182.201C244.693 181.3 244.635 180.346 244.812 179.419C244.99 178.492 245.4 177.619 246.006 176.875C246.825 176.108 247.788 175.495 248.845 175.069C252.271 173.463 256.587 171.459 260.524 171.784C263.685 172.091 264.897 173.824 267.528 175.106C274.834 178.572 284.545 179.872 292.476 182.074Z" fill="#282328"/>
<path d="M257.306 130.386C259.843 137.048 261.092 144.107 263.326 150.841C263.815 152.626 264.692 154.293 265.9 155.734C267.506 157.203 269.451 158.291 271.578 158.911C274.544 160.006 277.56 160.963 280.626 161.782C282.671 162.305 285.112 163.208 285.34 165.194C285.388 165.856 285.244 166.518 284.923 167.108C284.132 168.453 282.993 169.582 281.615 170.388C280.236 171.194 278.664 171.65 277.049 171.711C273.824 171.794 270.613 171.292 267.585 170.231C264.827 169.699 262.298 168.398 260.316 166.494C259.189 164.91 258.399 163.132 257.988 161.258C254.881 150.741 250.571 140.582 245.135 130.964C243.509 128.424 242.237 125.693 241.35 122.839C240.1 117.856 240.081 106.049 245.476 110.382C249.83 113.885 255.395 125.439 257.306 130.386Z" fill="#FBC4D6"/>
<path d="M236.655 181.443C239.846 180.263 242.951 178.882 245.949 177.308C257.306 171.314 248.012 168.372 244.227 161.168C241.52 156.059 242.618 149.938 244.018 144.396C246.498 134.647 249.811 124.536 247.426 114.805C247.127 113.226 246.482 111.725 245.533 110.4C244.838 109.578 244.037 108.844 243.148 108.216C240.75 106.24 237.991 104.704 235.008 103.684C229.33 101.879 222.894 103.197 217.5 105.778C196.3 115.925 191.776 141.543 192.627 162.035C192.855 167.722 193.782 173.734 197.625 178.085C201.467 182.436 206.9 184.097 212.465 184.746C220.69 185.548 228.996 184.414 236.655 181.443Z" fill="white"/>
<path d="M205.045 169.852C205.216 171.775 205.865 173.632 206.938 175.268C208.83 177.814 212.313 178.753 215.512 179.493L229.917 182.887C231.672 183.394 233.496 183.656 235.33 183.663C239.268 183.483 242.656 181.081 245.779 178.771C246.577 178.25 247.27 177.595 247.823 176.839C239.873 176.117 231.942 175.358 224.03 174.257C219.374 173.607 214.452 172.704 211.026 169.653C209.256 167.986 207.909 165.954 207.089 163.714C206.521 162.323 206.256 158.785 204.609 158.478C204.195 162.27 204.341 166.099 205.045 169.852Z" fill="url(#paint7_linear)"/>
<path d="M233.475 119.554C233.474 120.123 233.236 120.668 232.813 121.07C232.419 121.291 231.959 121.38 231.507 121.323C230.023 121.256 228.572 120.888 227.251 120.241C225.93 119.595 224.769 118.686 223.847 117.576C222.925 116.465 222.263 115.18 221.906 113.805C221.549 112.43 221.505 110.998 221.778 109.606C222.118 107.8 222.932 106.248 223.443 104.551C224.446 101.156 224.276 97.329 226.529 94.5307C228.479 98.7865 230.704 102.923 233.191 106.916C233.827 107.71 234.269 108.629 234.485 109.607C234.702 110.584 234.686 111.595 234.441 112.567L233.475 119.554Z" fill="#FBC4D6"/>
<path d="M234.592 110.815L233.74 116.232C233.74 116.232 223.992 111.628 225.26 103.088C226.529 94.5488 234.592 110.815 234.592 110.815Z" fill="url(#paint8_linear)"/>
<path d="M245.987 105.544C245.488 107.279 244.428 108.82 242.959 109.949C242.258 110.402 241.475 110.726 240.65 110.906C237.751 111.442 234.749 111.09 232.073 109.9C229.397 108.71 227.185 106.742 225.753 104.28C224.403 101.785 223.633 99.0424 223.496 96.2383C223.359 93.4342 223.857 90.6348 224.958 88.0313C225.859 85.1758 227.897 82.771 230.636 81.3332C232.134 80.77 233.754 80.5692 235.353 80.7488C236.951 80.9283 238.479 81.4827 239.798 82.3623C243.383 84.75 246.154 88.0899 247.767 91.967C249.149 95.9208 247.407 101.77 245.987 105.544Z" fill="#FBC4D6"/>
<path d="M288.784 204.768C291.21 207.715 293.127 211.012 294.463 214.536C301.907 231.658 306.745 249.708 308.83 268.138C302.752 268.86 296.604 268.86 290.526 268.138C290.05 255.127 287.947 242.218 284.261 229.683C283.609 226.985 282.49 224.41 280.948 222.064C278.241 218.327 273.793 216.16 269.591 214.138C259.758 209.581 249.482 205.953 238.908 203.306C234.441 202.132 229.936 201.049 225.544 199.695C221.853 198.504 211.499 194.135 208.509 191.769C206.941 190.636 205.63 189.212 204.655 187.583C203.679 185.955 203.058 184.154 202.83 182.291C202.83 183.23 231.677 185.108 233.74 184.891C240.687 184.187 248.883 180.395 255.735 183.086C261.092 185.18 265.995 189.549 270.878 192.564C276.803 196.102 284.033 199.533 288.784 204.768Z" fill="#473F47"/>
<path d="M257.174 203.378L221.967 186.967L263.25 170.267L298.476 184.945L257.174 203.378Z" fill="#A500FF"/>
<path d="M203.55 126.324C203.55 126.956 203.379 127.569 203.304 128.129C202.262 137.373 203.209 146.436 203.569 155.625C203.796 161.312 204.572 172.145 210.913 175.051C222.762 180.468 245.628 178.41 245.628 178.41C248.279 178.004 250.988 178.109 253.597 178.716C255.016 179.132 256.322 179.836 257.704 180.341C262.701 182.147 268.285 181.244 273.547 180.341C274.454 180.239 275.33 179.962 276.122 179.529C277.04 178.751 277.6 177.66 277.682 176.491C277.763 175.322 277.359 174.169 276.557 173.282C274.849 171.57 272.627 170.404 270.197 169.942C263.552 167.873 256.434 167.611 249.641 169.184C248.772 169.463 247.887 169.692 246.991 169.87C245.939 170.033 244.875 170.105 243.811 170.087H235.747C226.472 170.087 217.727 170.195 216.326 159.85C215.809 156.019 215.708 152.147 216.023 148.295C216.572 141.345 218.484 134.448 218.087 127.497C218.063 125.293 217.485 123.126 216.402 121.178C215.853 120.211 215.053 119.395 214.079 118.807C213.105 118.219 211.988 117.879 210.837 117.82C209.645 117.905 208.496 118.282 207.501 118.915C206.506 119.547 205.699 120.414 205.158 121.431C204.321 122.957 203.776 124.614 203.55 126.324Z" fill="#FBC4D6"/>
<path d="M312.975 151.834L263.761 175.719L257.174 203.378L298.476 184.945L312.975 151.834Z" fill="#A500FF"/>
<path d="M248.41 95.5778C248.356 93.859 247.688 92.2093 246.517 90.9018C245.923 90.2438 245.219 89.6827 244.435 89.2409C243.337 88.627 243.072 88.5729 242.353 89.5658C241.426 90.8477 241.123 92.3461 240.271 93.6821C239.339 95.1639 238.039 96.404 236.485 97.2929C234.739 98.3262 232.708 98.8357 230.655 98.7553C229.84 98.6378 229.01 98.6378 228.194 98.7553C227.921 98.8047 227.661 98.9113 227.436 99.0673C227.21 99.2234 227.023 99.4251 226.888 99.658C226.693 100.333 226.623 101.036 226.68 101.734C226.51 103.54 224.636 104.821 223.595 106.392C222.554 107.963 222.251 110.292 221.002 111.971C220.77 112.308 220.45 112.581 220.074 112.765C219.185 113.126 218.181 112.657 217.254 112.494C214.509 112.043 212.295 114.48 209.947 115.961C205.234 118.922 199.064 118.163 193.499 117.279C191.795 117.082 190.134 116.631 188.577 115.943C186.896 114.996 185.403 113.774 184.167 112.332C182.104 110.165 180.059 107.963 178.034 105.76C177.281 105.055 176.683 104.214 176.274 103.287C176.057 102.64 175.999 101.955 176.103 101.283C176.288 100.029 176.678 98.8107 177.258 97.6721C178.734 94.5126 180.457 91.0824 183.788 89.6561C187.12 88.2298 191.057 89.295 194.729 88.9339C195.176 88.933 195.612 88.8006 195.978 88.5548C196.271 88.2399 196.478 87.862 196.584 87.4535C198.117 82.597 200.029 77.3252 204.61 74.8157C208.139 73.1985 212.118 72.6988 215.967 73.3895C219.777 74.0762 223.664 74.2886 227.532 74.0213C229.425 73.7325 231.318 73.1367 233.211 72.7756C237.637 71.8375 242.27 72.4798 246.233 74.581C248.189 75.6911 249.826 77.2473 250.995 79.1096C252.165 80.972 252.831 83.0823 252.934 85.2509C252.858 86.0979 252.858 86.9495 252.934 87.7965C253.067 88.5909 253.426 89.3672 253.559 90.1616C253.636 90.8482 253.56 91.5427 253.336 92.1994C253.112 92.8561 252.745 93.4601 252.259 93.9717C251.772 94.4833 251.178 94.891 250.515 95.1678C249.851 95.4446 249.134 95.5843 248.41 95.5778Z" fill="#FF681C"/>
<path d="M201.827 131.451C201.243 136.561 201.18 141.712 201.638 146.833C201.615 147.277 201.733 147.718 201.978 148.097C202.381 148.517 202.936 148.775 203.53 148.819C206.596 149.363 209.706 149.647 212.824 149.668C213.262 149.801 213.725 149.841 214.18 149.784C214.636 149.727 215.072 149.575 215.459 149.339C215.846 149.103 216.173 148.788 216.418 148.417C216.663 148.047 216.819 147.629 216.875 147.194C218.579 140.406 220.263 133.618 221.55 126.739C222.061 123.977 222.421 120.871 220.68 118.633C218.162 115.383 211.367 115.022 208.092 117.387C204.136 120.294 202.451 127.082 201.827 131.451Z" fill="white"/>
<path d="M255.395 122.785L260.752 135.026C261.017 135.502 261.122 136.044 261.055 136.578C260.918 137.017 260.656 137.411 260.297 137.716C257.681 140.355 254.575 142.51 251.136 144.071C247.966 141.369 245.392 138.092 243.565 134.43C241.785 130.079 242.183 125.241 242.713 120.601C243.035 117.658 242.921 108.198 248.164 111.863C251.817 114.372 253.748 119.012 255.395 122.785Z" fill="white"/>
<path d="M158.5 237.609C158.502 239.277 158.147 240.929 157.457 242.462C156.767 243.996 155.756 245.379 154.487 246.527C152.299 248.504 149.48 249.724 146.48 249.994C145.919 250.021 145.357 250.021 144.796 249.994L50.7775 248.188C47.1681 248.151 43.7163 246.772 41.1568 244.344C38.5973 241.916 37.1322 238.632 37.0732 235.189C37.0715 233.521 37.4265 231.869 38.1164 230.336C38.8064 228.802 39.8169 227.419 41.0861 226.271C42.3731 225.09 43.8916 224.164 45.5546 223.544C47.2176 222.925 48.9925 222.624 50.7775 222.66H53.9764C53.3058 220.442 52.9681 218.144 52.9732 215.835C52.9668 212.545 53.6653 209.288 55.0259 206.264C56.3864 203.24 58.3804 200.513 60.8853 198.251C63.0924 196.237 65.6557 194.611 68.4568 193.448C72.083 191.939 76.0098 191.2 79.9653 191.282L87.9531 191.444C92.8916 191.532 97.7165 192.873 101.931 195.329C106.147 197.785 109.6 201.267 111.936 205.418C114.245 204.39 116.77 203.878 119.318 203.92H121.381C125.659 203.971 129.747 205.609 132.779 208.488C135.811 211.366 137.548 215.258 137.622 219.338V220.078C137.629 221.478 137.419 222.871 136.997 224.212L144.777 224.375C148.432 224.408 151.925 225.818 154.495 228.297C157.066 230.775 158.505 234.122 158.5 237.609Z" fill="white"/>
<path d="M146.48 249.994C145.919 250.021 145.357 250.021 144.796 249.994L50.7775 248.188C47.1681 248.151 43.7163 246.772 41.1568 244.344C38.5973 241.916 37.1322 238.632 37.0732 235.189C37.0715 233.521 37.4265 231.869 38.1164 230.336C38.8064 228.802 39.8169 227.419 41.0861 226.271C37.395 248.405 61.6236 245.245 61.6236 245.245H122.706L146.48 249.994Z" fill="url(#paint9_linear)"/>
<path d="M60.7907 225.332L53.9764 222.858C53.3058 220.64 52.9681 218.343 52.9732 216.034C52.9668 212.744 53.6653 209.486 55.0259 206.463C56.3864 203.439 58.3804 200.712 60.8853 198.449C63.0924 196.435 65.6557 194.809 68.4568 193.647C49.585 209.101 60.7907 225.332 60.7907 225.332Z" fill="url(#paint10_linear)"/>
<path d="M406.501 132.679C406.503 134.349 406.146 136.002 405.453 137.536C404.759 139.07 403.744 140.452 402.47 141.597C400.275 143.574 397.45 144.794 394.444 145.064C393.883 145.11 393.32 145.11 392.759 145.064L298.76 143.258C295.182 143.213 291.761 141.846 289.216 139.446C286.671 137.046 285.2 133.798 285.113 130.386C285.093 128.7 285.437 127.029 286.124 125.476C286.812 123.923 287.827 122.521 289.107 121.359C291.725 118.993 295.21 117.697 298.817 117.748H301.997C301.335 115.534 300.998 113.244 300.994 110.942C300.988 107.651 301.687 104.395 303.048 101.371C304.408 98.3473 306.402 95.6204 308.906 93.3572C311.113 91.3389 313.676 89.7072 316.477 88.5368C320.103 87.026 324.03 86.2867 327.986 86.3703L335.974 86.5328C340.912 86.6198 345.737 87.9624 349.949 90.4221C354.162 92.8818 357.61 96.3693 359.937 100.525C362.241 99.4817 364.77 98.9685 367.319 99.0262H369.382C373.662 99.0679 377.755 100.7 380.792 103.576C383.828 106.453 385.568 110.345 385.642 114.426V115.166C385.641 116.573 385.424 117.972 384.999 119.319L392.778 119.463C396.427 119.506 399.911 120.916 402.479 123.389C405.047 125.861 406.492 129.198 406.501 132.679Z" fill="white"/>
<path d="M394.463 145.064C393.902 145.11 393.339 145.11 392.778 145.064L298.779 143.258C295.197 143.217 291.772 141.853 289.223 139.452C286.674 137.052 285.201 133.802 285.113 130.386C285.093 128.7 285.437 127.029 286.124 125.476C286.812 123.923 287.827 122.521 289.107 121.359C285.321 143.511 309.644 140.334 309.644 140.334H370.726L394.463 145.064Z" fill="url(#paint11_linear)"/>
<path d="M308.792 120.402L301.959 117.929C301.297 115.715 300.96 113.424 300.956 111.122C300.95 107.832 301.649 104.575 303.01 101.552C304.37 98.5278 306.364 95.8009 308.868 93.5377C311.075 91.5194 313.638 89.8877 316.439 88.7173C297.586 104.171 308.792 120.402 308.792 120.402Z" fill="url(#paint12_linear)"/>
<path d="M228.327 98.7914C228.053 98.8409 227.794 98.9474 227.568 99.1035C227.342 99.2595 227.156 99.4612 227.021 99.6941C226.826 100.369 226.755 101.072 226.813 101.77C226.642 103.576 224.768 104.858 223.727 106.428C222.686 107.999 222.383 110.328 221.134 112.007C220.902 112.344 220.583 112.618 220.207 112.801C219.317 113.162 218.314 112.693 217.386 112.531C214.642 112.079 212.427 114.516 210.08 115.997C205.367 118.958 199.196 118.199 193.631 117.315C191.88 117.12 190.173 116.657 188.577 115.943C186.896 114.996 185.403 113.774 184.167 112.332C182.104 110.165 180.059 107.963 178.034 105.76C177.281 105.055 176.683 104.214 176.274 103.287C176.057 102.64 175.999 101.955 176.103 101.283C176.986 100.775 177.903 100.322 178.848 99.9288C181.749 98.4435 185.141 98.0876 188.312 98.9359C190.849 99.8747 192.647 102.023 194.824 103.558C197.859 105.585 201.552 106.516 205.241 106.186C208.931 105.855 212.377 104.284 214.964 101.752C215.917 100.554 217.038 99.4846 218.295 98.5748C220.547 97.4013 225.128 97.5818 228.327 98.7914Z" fill="url(#paint13_linear)"/>
</g>
<defs>
<linearGradient id="paint0_linear" x1="350.17" y1="321.921" x2="342.365" y2="216.501" gradientUnits="userSpaceOnUse">
<stop offset="0.01"/>
<stop offset="0.13" stop-opacity="0.69"/>
<stop offset="0.25" stop-opacity="0.32"/>
<stop offset="1" stop-opacity="0"/>
</linearGradient>
<linearGradient id="paint1_linear" x1="2806.33" y1="4999.26" x2="3722.06" y2="4791.05" gradientUnits="userSpaceOnUse">
<stop offset="0.01"/>
<stop offset="0.13" stop-opacity="0.69"/>
<stop offset="0.25" stop-opacity="0.32"/>
<stop offset="1" stop-opacity="0"/>
</linearGradient>
<linearGradient id="paint2_linear" x1="11147" y1="55075.1" x2="921.506" y2="-22390.4" gradientUnits="userSpaceOnUse">
<stop offset="0.01"/>
<stop offset="0.13" stop-opacity="0.69"/>
<stop offset="0.25" stop-opacity="0.32"/>
<stop offset="1" stop-opacity="0"/>
</linearGradient>
<linearGradient id="paint3_linear" x1="20533.4" y1="39775.4" x2="16014.1" y2="-17464.4" gradientUnits="userSpaceOnUse">
<stop offset="0.01"/>
<stop offset="0.13" stop-opacity="0.69"/>
<stop offset="0.25" stop-opacity="0.32"/>
<stop offset="1" stop-opacity="0"/>
</linearGradient>
<linearGradient id="paint4_linear" x1="-20247.9" y1="2683.09" x2="-20624.4" y2="2941.16" gradientUnits="userSpaceOnUse">
<stop offset="0.01"/>
<stop offset="0.13" stop-opacity="0.69"/>
<stop offset="0.25" stop-opacity="0.32"/>
<stop offset="1" stop-opacity="0"/>
</linearGradient>
<linearGradient id="paint5_linear" x1="-28598.8" y1="3025.52" x2="-28701.4" y2="2562.96" gradientUnits="userSpaceOnUse">
<stop offset="0.01"/>
<stop offset="0.13" stop-opacity="0.69"/>
<stop offset="0.25" stop-opacity="0.32"/>
<stop offset="1" stop-opacity="0"/>
</linearGradient>
<linearGradient id="paint6_linear" x1="-81803.6" y1="6638.56" x2="-86781.4" y2="14713.3" gradientUnits="userSpaceOnUse">
<stop offset="0.01"/>
<stop offset="0.13" stop-opacity="0.69"/>
<stop offset="0.25" stop-opacity="0.32"/>
<stop offset="1" stop-opacity="0"/>
</linearGradient>
<linearGradient id="paint7_linear" x1="6927.32" y1="2083.14" x2="6121.56" y2="4107.7" gradientUnits="userSpaceOnUse">
<stop offset="0.01"/>
<stop offset="0.13" stop-opacity="0.69"/>
<stop offset="0.25" stop-opacity="0.32"/>
<stop offset="1" stop-opacity="0"/>
</linearGradient>
<linearGradient id="paint8_linear" x1="-7456.45" y1="982.78" x2="-7638.83" y2="1223.75" gradientUnits="userSpaceOnUse">
<stop offset="0.01"/>
<stop offset="0.13" stop-opacity="0.69"/>
<stop offset="0.25" stop-opacity="0.32"/>
<stop offset="1" stop-opacity="0"/>
</linearGradient>
<linearGradient id="paint9_linear" x1="7903.43" y1="4133.27" x2="7879.9" y2="2739.37" gradientUnits="userSpaceOnUse">
<stop offset="0.01"/>
<stop offset="0.13" stop-opacity="0.69"/>
<stop offset="0.25" stop-opacity="0.32"/>
<stop offset="1" stop-opacity="0"/>
</linearGradient>
<linearGradient id="paint10_linear" x1="469.483" y1="4411.53" x2="1385.24" y2="4203.44" gradientUnits="userSpaceOnUse">
<stop offset="0.01"/>
<stop offset="0.13" stop-opacity="0.69"/>
<stop offset="0.25" stop-opacity="0.32"/>
<stop offset="1" stop-opacity="0"/>
</linearGradient>
<linearGradient id="paint11_linear" x1="22474.6" y1="2647.93" x2="22451.1" y2="1254.52" gradientUnits="userSpaceOnUse">
<stop offset="0.01"/>
<stop offset="0.13" stop-opacity="0.69"/>
<stop offset="0.25" stop-opacity="0.32"/>
<stop offset="1" stop-opacity="0"/>
</linearGradient>
<linearGradient id="paint12_linear" x1="2746.13" y1="2465.39" x2="3661.85" y2="2257.18" gradientUnits="userSpaceOnUse">
<stop offset="0.01"/>
<stop offset="0.13" stop-opacity="0.69"/>
<stop offset="0.25" stop-opacity="0.32"/>
<stop offset="1" stop-opacity="0"/>
</linearGradient>
<linearGradient id="paint13_linear" x1="8220.02" y1="1731.51" x2="7211.95" y2="-245.497" gradientUnits="userSpaceOnUse">
<stop offset="0.01"/>
<stop offset="0.13" stop-opacity="0.69"/>
<stop offset="0.25" stop-opacity="0.32"/>
<stop offset="1" stop-opacity="0"/>
</linearGradient>
<clipPath id="clip0">
<rect width="520.819" height="416" fill="white" transform="translate(0.692383)"/>
</clipPath>
</defs>
</svg>
