<svg width="834" height="230" viewBox="0 0 834 230" fill="none" xmlns="http://www.w3.org/2000/svg">
<path d="M286.619 57.0596C439.423 -21.3239 598.259 48.9905 598.259 48.9905L834 144H74C74 144 133.815 135.443 286.619 57.0596Z" fill="#FF0099"/>
<line x1="52.9998" y1="145.018" x2="833.999" y2="145.018" stroke="#CCD0D4"/>
<line x1="75.5" y1="230" x2="75.5" stroke="#CCD0D4"/>
<line x1="258.5" y1="230" x2="258.5" stroke="#CCD0D4"/>
<line x1="400.5" y1="230" x2="400.5" stroke="#CCD0D4"/>
<line x1="640.5" y1="230" x2="640.5" stroke="#CCD0D4"/>
<path d="M168.956 169H166.98V161.385L164.622 162.116V160.51L168.744 159.033H168.956V169ZM141.195 186.949H137.6L136.916 189H134.735L138.44 179.047H140.341L144.066 189H141.886L141.195 186.949ZM138.153 185.288H140.642L139.391 181.562L138.153 185.288ZM147.047 185.493V189H144.996V179.047H148.879C149.626 179.047 150.283 179.184 150.848 179.457C151.417 179.73 151.855 180.12 152.16 180.626C152.465 181.127 152.618 181.699 152.618 182.342C152.618 183.317 152.283 184.087 151.613 184.652C150.948 185.213 150.025 185.493 148.845 185.493H147.047ZM147.047 183.832H148.879C149.421 183.832 149.834 183.704 150.116 183.449C150.403 183.194 150.547 182.829 150.547 182.355C150.547 181.868 150.403 181.474 150.116 181.173C149.829 180.872 149.433 180.717 148.927 180.708H147.047V183.832ZM157.718 185.356H156.084V189H154.033V179.047H157.731C158.907 179.047 159.814 179.309 160.452 179.833C161.09 180.357 161.409 181.098 161.409 182.055C161.409 182.734 161.261 183.301 160.965 183.757C160.673 184.208 160.229 184.568 159.632 184.837L161.785 188.904V189H159.584L157.718 185.356ZM156.084 183.695H157.738C158.253 183.695 158.652 183.565 158.935 183.306C159.217 183.041 159.358 182.679 159.358 182.219C159.358 181.749 159.224 181.38 158.955 181.111C158.691 180.842 158.283 180.708 157.731 180.708H156.084V183.695ZM168.963 184.687H165.025V187.353H169.646V189H162.975V179.047H169.633V180.708H165.025V183.08H168.963V184.687ZM178.943 189H176.893L172.9 182.451V189H170.85V179.047H172.9L176.899 185.609V179.047H178.943V189ZM180.734 189V179.047H183.797C184.672 179.047 185.453 179.245 186.142 179.642C186.834 180.034 187.374 180.594 187.762 181.323C188.149 182.048 188.343 182.873 188.343 183.798V184.256C188.343 185.181 188.151 186.004 187.769 186.724C187.39 187.444 186.855 188.002 186.162 188.398C185.469 188.795 184.688 188.995 183.817 189H180.734ZM182.785 180.708V187.353H183.776C184.578 187.353 185.191 187.09 185.615 186.566C186.039 186.042 186.256 185.293 186.265 184.317V183.791C186.265 182.779 186.055 182.014 185.636 181.494C185.216 180.97 184.604 180.708 183.797 180.708H182.785ZM195.828 184.687H191.891V187.353H196.512V189H189.84V179.047H196.498V180.708H191.891V183.08H195.828V184.687ZM122.222 200.632C122.166 201.397 121.883 201.999 121.372 202.438C120.864 202.878 120.194 203.098 119.36 203.098C118.449 203.098 117.731 202.792 117.207 202.18C116.686 201.564 116.426 200.721 116.426 199.65V199.216C116.426 198.532 116.546 197.93 116.787 197.409C117.028 196.888 117.371 196.49 117.817 196.213C118.267 195.933 118.787 195.793 119.38 195.793C120.2 195.793 120.861 196.013 121.362 196.452C121.864 196.892 122.153 197.508 122.231 198.303H120.767C120.731 197.844 120.602 197.512 120.381 197.307C120.163 197.098 119.829 196.994 119.38 196.994C118.892 196.994 118.525 197.17 118.281 197.521C118.04 197.87 117.917 198.412 117.91 199.147V199.685C117.91 200.453 118.026 201.014 118.257 201.369C118.491 201.724 118.859 201.901 119.36 201.901C119.813 201.901 120.15 201.799 120.371 201.594C120.596 201.385 120.724 201.065 120.757 200.632H122.222ZM129.023 199.606C129.023 200.306 128.9 200.92 128.652 201.447C128.405 201.975 128.05 202.382 127.588 202.668C127.129 202.954 126.602 203.098 126.006 203.098C125.417 203.098 124.891 202.956 124.429 202.673C123.966 202.39 123.608 201.986 123.354 201.462C123.101 200.935 122.972 200.329 122.969 199.646V199.294C122.969 198.594 123.094 197.979 123.345 197.448C123.599 196.914 123.955 196.506 124.414 196.223C124.876 195.936 125.404 195.793 125.996 195.793C126.589 195.793 127.114 195.936 127.573 196.223C128.035 196.506 128.392 196.914 128.643 197.448C128.896 197.979 129.023 198.592 129.023 199.289V199.606ZM127.539 199.284C127.539 198.539 127.406 197.972 127.139 197.585C126.872 197.198 126.491 197.004 125.996 197.004C125.505 197.004 125.125 197.196 124.858 197.58C124.591 197.961 124.456 198.521 124.453 199.26V199.606C124.453 200.332 124.587 200.896 124.854 201.296C125.12 201.696 125.505 201.896 126.006 201.896C126.497 201.896 126.875 201.704 127.139 201.32C127.402 200.933 127.536 200.37 127.539 199.631V199.284ZM135.869 203H134.404L131.553 198.322V203H130.088V195.891H131.553L134.409 200.578V195.891H135.869V203ZM140.835 201.135C140.835 200.858 140.737 200.646 140.542 200.5C140.347 200.35 139.995 200.194 139.487 200.031C138.979 199.865 138.577 199.702 138.281 199.543C137.474 199.107 137.07 198.519 137.07 197.78C137.07 197.396 137.178 197.054 137.393 196.755C137.611 196.452 137.922 196.216 138.325 196.047C138.732 195.878 139.188 195.793 139.692 195.793C140.2 195.793 140.653 195.886 141.05 196.071C141.447 196.254 141.755 196.512 141.973 196.848C142.194 197.183 142.305 197.564 142.305 197.99H140.84C140.84 197.665 140.737 197.412 140.532 197.233C140.327 197.051 140.039 196.96 139.668 196.96C139.31 196.96 139.032 197.036 138.833 197.189C138.634 197.339 138.535 197.538 138.535 197.785C138.535 198.016 138.651 198.21 138.882 198.366C139.116 198.522 139.46 198.669 139.912 198.806C140.745 199.056 141.353 199.367 141.733 199.738C142.114 200.109 142.305 200.572 142.305 201.125C142.305 201.74 142.072 202.224 141.606 202.575C141.141 202.924 140.514 203.098 139.727 203.098C139.18 203.098 138.682 202.998 138.232 202.8C137.783 202.598 137.44 202.323 137.202 201.975C136.968 201.626 136.851 201.223 136.851 200.764H138.32C138.32 201.548 138.789 201.94 139.727 201.94C140.075 201.94 140.347 201.87 140.542 201.73C140.737 201.587 140.835 201.389 140.835 201.135ZM148.882 200.632C148.826 201.397 148.543 201.999 148.032 202.438C147.524 202.878 146.854 203.098 146.021 203.098C145.109 203.098 144.391 202.792 143.867 202.18C143.346 201.564 143.086 200.721 143.086 199.65V199.216C143.086 198.532 143.206 197.93 143.447 197.409C143.688 196.888 144.032 196.49 144.478 196.213C144.927 195.933 145.448 195.793 146.04 195.793C146.86 195.793 147.521 196.013 148.022 196.452C148.524 196.892 148.813 197.508 148.892 198.303H147.427C147.391 197.844 147.262 197.512 147.041 197.307C146.823 197.098 146.489 196.994 146.04 196.994C145.552 196.994 145.186 197.17 144.941 197.521C144.701 197.87 144.577 198.412 144.57 199.147V199.685C144.57 200.453 144.686 201.014 144.917 201.369C145.151 201.724 145.519 201.901 146.021 201.901C146.473 201.901 146.81 201.799 147.031 201.594C147.256 201.385 147.384 201.065 147.417 200.632H148.882ZM151.401 203H149.937V195.891H151.401V203ZM157.041 199.919H154.229V201.823H157.529V203H152.764V195.891H157.52V197.077H154.229V198.771H157.041V199.919ZM164.17 203H162.705L159.854 198.322V203H158.389V195.891H159.854L162.71 200.578V195.891H164.17V203ZM170.654 197.077H168.477V203H167.012V197.077H164.863V195.891H170.654V197.077ZM175.771 199.919H172.959V201.823H176.26V203H171.494V195.891H176.25V197.077H172.959V198.771H175.771V199.919ZM179.033 195.891L180.859 201.047L182.676 195.891H184.6V203H183.13V201.057L183.276 197.702L181.357 203H180.352L178.438 197.707L178.584 201.057V203H177.119V195.891H179.033ZM190.156 199.919H187.344V201.823H190.645V203H185.879V195.891H190.635V197.077H187.344V198.771H190.156V199.919ZM197.285 203H195.82L192.969 198.322V203H191.504V195.891H192.969L195.825 200.578V195.891H197.285V203ZM203.77 197.077H201.592V203H200.127V197.077H197.979V195.891H203.77V197.077ZM208.887 199.919H206.074V201.823H209.375V203H204.609V195.891H209.365V197.077H206.074V198.771H208.887V199.919ZM218.564 199.606C218.564 200.306 218.441 200.92 218.193 201.447C217.946 201.975 217.591 202.382 217.129 202.668C216.67 202.954 216.143 203.098 215.547 203.098C214.958 203.098 214.432 202.956 213.97 202.673C213.507 202.39 213.149 201.986 212.896 201.462C212.642 200.935 212.513 200.329 212.51 199.646V199.294C212.51 198.594 212.635 197.979 212.886 197.448C213.14 196.914 213.496 196.506 213.955 196.223C214.417 195.936 214.945 195.793 215.537 195.793C216.13 195.793 216.655 195.936 217.114 196.223C217.576 196.506 217.933 196.914 218.184 197.448C218.438 197.979 218.564 198.592 218.564 199.289V199.606ZM217.08 199.284C217.08 198.539 216.947 197.972 216.68 197.585C216.413 197.198 216.032 197.004 215.537 197.004C215.046 197.004 214.666 197.196 214.399 197.58C214.132 197.961 213.997 198.521 213.994 199.26V199.606C213.994 200.332 214.128 200.896 214.395 201.296C214.661 201.696 215.046 201.896 215.547 201.896C216.038 201.896 216.416 201.704 216.68 201.32C216.943 200.933 217.077 200.37 217.08 199.631V199.284ZM117.905 217H116.44V209.891H117.905V217ZM125.049 217H123.584L120.732 212.322V217H119.268V209.891H120.732L123.589 214.578V209.891H125.049V217ZM131.909 214.632C131.854 215.397 131.571 215.999 131.06 216.438C130.552 216.878 129.881 217.098 129.048 217.098C128.136 217.098 127.419 216.792 126.895 216.18C126.374 215.564 126.113 214.721 126.113 213.65V213.216C126.113 212.532 126.234 211.93 126.475 211.409C126.715 210.888 127.059 210.49 127.505 210.213C127.954 209.933 128.475 209.793 129.067 209.793C129.888 209.793 130.549 210.013 131.05 210.452C131.551 210.892 131.841 211.508 131.919 212.303H130.454C130.418 211.844 130.29 211.512 130.068 211.307C129.85 211.098 129.517 210.994 129.067 210.994C128.579 210.994 128.213 211.17 127.969 211.521C127.728 211.87 127.604 212.412 127.598 213.147V213.685C127.598 214.453 127.713 215.014 127.944 215.369C128.179 215.724 128.547 215.901 129.048 215.901C129.5 215.901 129.837 215.799 130.059 215.594C130.283 215.385 130.412 215.065 130.444 214.632H131.909ZM138.711 213.606C138.711 214.306 138.587 214.92 138.34 215.447C138.092 215.975 137.738 216.382 137.275 216.668C136.816 216.954 136.289 217.098 135.693 217.098C135.104 217.098 134.578 216.956 134.116 216.673C133.654 216.39 133.296 215.986 133.042 215.462C132.788 214.935 132.66 214.329 132.656 213.646V213.294C132.656 212.594 132.782 211.979 133.032 211.448C133.286 210.914 133.643 210.506 134.102 210.223C134.564 209.936 135.091 209.793 135.684 209.793C136.276 209.793 136.802 209.936 137.261 210.223C137.723 210.506 138.079 210.914 138.33 211.448C138.584 211.979 138.711 212.592 138.711 213.289V213.606ZM137.227 213.284C137.227 212.539 137.093 211.972 136.826 211.585C136.559 211.198 136.178 211.004 135.684 211.004C135.192 211.004 134.813 211.196 134.546 211.58C134.279 211.961 134.144 212.521 134.141 213.26V213.606C134.141 214.332 134.274 214.896 134.541 215.296C134.808 215.696 135.192 215.896 135.693 215.896C136.185 215.896 136.562 215.704 136.826 215.32C137.09 214.933 137.223 214.37 137.227 213.631V213.284ZM145.557 217H144.092L141.24 212.322V217H139.775V209.891H141.24L144.097 214.578V209.891H145.557V217ZM150.522 215.135C150.522 214.858 150.425 214.646 150.229 214.5C150.034 214.35 149.683 214.194 149.175 214.031C148.667 213.865 148.265 213.702 147.969 213.543C147.161 213.107 146.758 212.519 146.758 211.78C146.758 211.396 146.865 211.054 147.08 210.755C147.298 210.452 147.609 210.216 148.013 210.047C148.42 209.878 148.875 209.793 149.38 209.793C149.888 209.793 150.34 209.886 150.737 210.071C151.134 210.254 151.442 210.512 151.66 210.848C151.882 211.183 151.992 211.564 151.992 211.99H150.527C150.527 211.665 150.425 211.412 150.22 211.233C150.015 211.051 149.727 210.96 149.355 210.96C148.997 210.96 148.719 211.036 148.521 211.189C148.322 211.339 148.223 211.538 148.223 211.785C148.223 212.016 148.338 212.21 148.569 212.366C148.804 212.522 149.147 212.669 149.6 212.806C150.433 213.056 151.04 213.367 151.421 213.738C151.802 214.109 151.992 214.572 151.992 215.125C151.992 215.74 151.759 216.224 151.294 216.575C150.828 216.924 150.202 217.098 149.414 217.098C148.867 217.098 148.369 216.998 147.92 216.8C147.471 216.598 147.127 216.323 146.89 215.975C146.655 215.626 146.538 215.223 146.538 214.764H148.008C148.008 215.548 148.477 215.94 149.414 215.94C149.762 215.94 150.034 215.87 150.229 215.73C150.425 215.587 150.522 215.389 150.522 215.135ZM158.569 214.632C158.514 215.397 158.231 215.999 157.72 216.438C157.212 216.878 156.541 217.098 155.708 217.098C154.797 217.098 154.079 216.792 153.555 216.18C153.034 215.564 152.773 214.721 152.773 213.65V213.216C152.773 212.532 152.894 211.93 153.135 211.409C153.376 210.888 153.719 210.49 154.165 210.213C154.614 209.933 155.135 209.793 155.728 209.793C156.548 209.793 157.209 210.013 157.71 210.452C158.211 210.892 158.501 211.508 158.579 212.303H157.114C157.078 211.844 156.95 211.512 156.729 211.307C156.51 211.098 156.177 210.994 155.728 210.994C155.239 210.994 154.873 211.17 154.629 211.521C154.388 211.87 154.264 212.412 154.258 213.147V213.685C154.258 214.453 154.373 215.014 154.604 215.369C154.839 215.724 155.207 215.901 155.708 215.901C156.16 215.901 156.497 215.799 156.719 215.594C156.943 215.385 157.072 215.065 157.104 214.632H158.569ZM161.089 217H159.624V209.891H161.089V217ZM166.729 213.919H163.916V215.823H167.217V217H162.451V209.891H167.207V211.077H163.916V212.771H166.729V213.919ZM173.857 217H172.393L169.541 212.322V217H168.076V209.891H169.541L172.397 214.578V209.891H173.857V217ZM180.342 211.077H178.164V217H176.699V211.077H174.551V209.891H180.342V211.077ZM185.459 213.919H182.646V215.823H185.947V217H181.182V209.891H185.938V211.077H182.646V212.771H185.459V213.919ZM188.721 209.891L190.547 215.047L192.363 209.891H194.287V217H192.817V215.057L192.964 211.702L191.045 217H190.039L188.125 211.707L188.271 215.057V217H186.807V209.891H188.721ZM199.844 213.919H197.031V215.823H200.332V217H195.566V209.891H200.322V211.077H197.031V212.771H199.844V213.919ZM206.973 217H205.508L202.656 212.322V217H201.191V209.891H202.656L205.513 214.578V209.891H206.973V217ZM213.457 211.077H211.279V217H209.814V211.077H207.666V209.891H213.457V211.077ZM218.574 213.919H215.762V215.823H219.062V217H214.297V209.891H219.053V211.077H215.762V212.771H218.574V213.919Z" fill="#60347B"/>
<path d="M332.979 169H326.157V167.646L329.377 164.215C329.819 163.732 330.145 163.31 330.354 162.95C330.569 162.59 330.676 162.248 330.676 161.925C330.676 161.483 330.564 161.136 330.341 160.886C330.118 160.631 329.799 160.503 329.384 160.503C328.937 160.503 328.584 160.658 328.324 160.968C328.069 161.273 327.941 161.676 327.941 162.178H325.959C325.959 161.572 326.103 161.018 326.39 160.517C326.681 160.015 327.091 159.623 327.62 159.341C328.149 159.054 328.748 158.91 329.418 158.91C330.443 158.91 331.239 159.156 331.804 159.648C332.373 160.141 332.658 160.836 332.658 161.733C332.658 162.226 332.531 162.727 332.275 163.237C332.02 163.748 331.583 164.342 330.963 165.021L328.7 167.407H332.979V169ZM306.456 186.949H302.86L302.177 189H299.996L303.701 179.047H305.602L309.327 189H307.146L306.456 186.949ZM303.414 185.288H305.902L304.651 181.562L303.414 185.288ZM315.418 186.389C315.418 186.001 315.281 185.705 315.008 185.5C314.734 185.29 314.242 185.072 313.531 184.844C312.82 184.611 312.257 184.383 311.843 184.16C310.713 183.549 310.147 182.727 310.147 181.692C310.147 181.155 310.298 180.676 310.599 180.257C310.904 179.833 311.339 179.503 311.904 179.266C312.474 179.029 313.112 178.91 313.818 178.91C314.529 178.91 315.163 179.04 315.719 179.3C316.275 179.555 316.705 179.917 317.011 180.387C317.321 180.856 317.476 181.389 317.476 181.986H315.425C315.425 181.531 315.281 181.177 314.994 180.927C314.707 180.672 314.304 180.544 313.784 180.544C313.283 180.544 312.893 180.651 312.615 180.865C312.337 181.075 312.198 181.353 312.198 181.699C312.198 182.023 312.36 182.294 312.684 182.513C313.012 182.731 313.493 182.937 314.126 183.128C315.293 183.479 316.143 183.914 316.676 184.434C317.209 184.953 317.476 185.6 317.476 186.375C317.476 187.236 317.15 187.913 316.498 188.405C315.846 188.893 314.969 189.137 313.866 189.137C313.101 189.137 312.403 188.998 311.774 188.72C311.146 188.437 310.665 188.052 310.332 187.564C310.004 187.077 309.84 186.512 309.84 185.869H311.897C311.897 186.967 312.554 187.517 313.866 187.517C314.354 187.517 314.734 187.419 315.008 187.223C315.281 187.022 315.418 186.744 315.418 186.389ZM321.051 189H319V179.047H321.051V189ZM325.638 179.047L328.194 186.266L330.737 179.047H333.431V189H331.373V186.279L331.578 181.583L328.892 189H327.483L324.804 181.59L325.009 186.279V189H322.958V179.047H325.638ZM337.402 189H335.352V179.047H337.402V189ZM341.36 187.353H345.715V189H339.31V179.047H341.36V187.353ZM352.653 186.949H349.058L348.374 189H346.193L349.898 179.047H351.799L355.524 189H353.344L352.653 186.949ZM349.611 185.288H352.1L350.849 181.562L349.611 185.288ZM284.222 200.632C284.166 201.397 283.883 201.999 283.372 202.438C282.864 202.878 282.194 203.098 281.36 203.098C280.449 203.098 279.731 202.792 279.207 202.18C278.686 201.564 278.426 200.721 278.426 199.65V199.216C278.426 198.532 278.546 197.93 278.787 197.409C279.028 196.888 279.371 196.49 279.817 196.213C280.267 195.933 280.787 195.793 281.38 195.793C282.2 195.793 282.861 196.013 283.362 196.452C283.864 196.892 284.153 197.508 284.231 198.303H282.767C282.731 197.844 282.602 197.512 282.381 197.307C282.163 197.098 281.829 196.994 281.38 196.994C280.892 196.994 280.525 197.17 280.281 197.521C280.04 197.87 279.917 198.412 279.91 199.147V199.685C279.91 200.453 280.026 201.014 280.257 201.369C280.491 201.724 280.859 201.901 281.36 201.901C281.813 201.901 282.15 201.799 282.371 201.594C282.596 201.385 282.724 201.065 282.757 200.632H284.222ZM291.023 199.606C291.023 200.306 290.9 200.92 290.652 201.447C290.405 201.975 290.05 202.382 289.588 202.668C289.129 202.954 288.602 203.098 288.006 203.098C287.417 203.098 286.891 202.956 286.429 202.673C285.966 202.39 285.608 201.986 285.354 201.462C285.101 200.935 284.972 200.329 284.969 199.646V199.294C284.969 198.594 285.094 197.979 285.345 197.448C285.599 196.914 285.955 196.506 286.414 196.223C286.876 195.936 287.404 195.793 287.996 195.793C288.589 195.793 289.114 195.936 289.573 196.223C290.035 196.506 290.392 196.914 290.643 197.448C290.896 197.979 291.023 198.592 291.023 199.289V199.606ZM289.539 199.284C289.539 198.539 289.406 197.972 289.139 197.585C288.872 197.198 288.491 197.004 287.996 197.004C287.505 197.004 287.125 197.196 286.858 197.58C286.591 197.961 286.456 198.521 286.453 199.26V199.606C286.453 200.332 286.587 200.896 286.854 201.296C287.12 201.696 287.505 201.896 288.006 201.896C288.497 201.896 288.875 201.704 289.139 201.32C289.402 200.933 289.536 200.37 289.539 199.631V199.284ZM297.869 203H296.404L293.553 198.322V203H292.088V195.891H293.553L296.409 200.578V195.891H297.869V203ZM302.835 201.135C302.835 200.858 302.737 200.646 302.542 200.5C302.347 200.35 301.995 200.194 301.487 200.031C300.979 199.865 300.577 199.702 300.281 199.543C299.474 199.107 299.07 198.519 299.07 197.78C299.07 197.396 299.178 197.054 299.393 196.755C299.611 196.452 299.922 196.216 300.325 196.047C300.732 195.878 301.188 195.793 301.692 195.793C302.2 195.793 302.653 195.886 303.05 196.071C303.447 196.254 303.755 196.512 303.973 196.848C304.194 197.183 304.305 197.564 304.305 197.99H302.84C302.84 197.665 302.737 197.412 302.532 197.233C302.327 197.051 302.039 196.96 301.668 196.96C301.31 196.96 301.032 197.036 300.833 197.189C300.634 197.339 300.535 197.538 300.535 197.785C300.535 198.016 300.651 198.21 300.882 198.366C301.116 198.522 301.46 198.669 301.912 198.806C302.745 199.056 303.353 199.367 303.733 199.738C304.114 200.109 304.305 200.572 304.305 201.125C304.305 201.74 304.072 202.224 303.606 202.575C303.141 202.924 302.514 203.098 301.727 203.098C301.18 203.098 300.682 202.998 300.232 202.8C299.783 202.598 299.44 202.323 299.202 201.975C298.968 201.626 298.851 201.223 298.851 200.764H300.32C300.32 201.548 300.789 201.94 301.727 201.94C302.075 201.94 302.347 201.87 302.542 201.73C302.737 201.587 302.835 201.389 302.835 201.135ZM310.882 200.632C310.826 201.397 310.543 201.999 310.032 202.438C309.524 202.878 308.854 203.098 308.021 203.098C307.109 203.098 306.391 202.792 305.867 202.18C305.346 201.564 305.086 200.721 305.086 199.65V199.216C305.086 198.532 305.206 197.93 305.447 197.409C305.688 196.888 306.032 196.49 306.478 196.213C306.927 195.933 307.448 195.793 308.04 195.793C308.86 195.793 309.521 196.013 310.022 196.452C310.524 196.892 310.813 197.508 310.892 198.303H309.427C309.391 197.844 309.262 197.512 309.041 197.307C308.823 197.098 308.489 196.994 308.04 196.994C307.552 196.994 307.186 197.17 306.941 197.521C306.701 197.87 306.577 198.412 306.57 199.147V199.685C306.57 200.453 306.686 201.014 306.917 201.369C307.151 201.724 307.519 201.901 308.021 201.901C308.473 201.901 308.81 201.799 309.031 201.594C309.256 201.385 309.384 201.065 309.417 200.632H310.882ZM313.401 203H311.937V195.891H313.401V203ZM319.041 199.919H316.229V201.823H319.529V203H314.764V195.891H319.52V197.077H316.229V198.771H319.041V199.919ZM326.17 203H324.705L321.854 198.322V203H320.389V195.891H321.854L324.71 200.578V195.891H326.17V203ZM332.654 197.077H330.477V203H329.012V197.077H326.863V195.891H332.654V197.077ZM337.771 199.919H334.959V201.823H338.26V203H333.494V195.891H338.25V197.077H334.959V198.771H337.771V199.919ZM341.033 195.891L342.859 201.047L344.676 195.891H346.6V203H345.13V201.057L345.276 197.702L343.357 203H342.352L340.438 197.707L340.584 201.057V203H339.119V195.891H341.033ZM352.156 199.919H349.344V201.823H352.645V203H347.879V195.891H352.635V197.077H349.344V198.771H352.156V199.919ZM359.285 203H357.82L354.969 198.322V203H353.504V195.891H354.969L357.825 200.578V195.891H359.285V203ZM365.77 197.077H363.592V203H362.127V197.077H359.979V195.891H365.77V197.077ZM370.887 199.919H368.074V201.823H371.375V203H366.609V195.891H371.365V197.077H368.074V198.771H370.887V199.919ZM380.564 199.606C380.564 200.306 380.441 200.92 380.193 201.447C379.946 201.975 379.591 202.382 379.129 202.668C378.67 202.954 378.143 203.098 377.547 203.098C376.958 203.098 376.432 202.956 375.97 202.673C375.507 202.39 375.149 201.986 374.896 201.462C374.642 200.935 374.513 200.329 374.51 199.646V199.294C374.51 198.594 374.635 197.979 374.886 197.448C375.14 196.914 375.496 196.506 375.955 196.223C376.417 195.936 376.945 195.793 377.537 195.793C378.13 195.793 378.655 195.936 379.114 196.223C379.576 196.506 379.933 196.914 380.184 197.448C380.438 197.979 380.564 198.592 380.564 199.289V199.606ZM379.08 199.284C379.08 198.539 378.947 197.972 378.68 197.585C378.413 197.198 378.032 197.004 377.537 197.004C377.046 197.004 376.666 197.196 376.399 197.58C376.132 197.961 375.997 198.521 375.994 199.26V199.606C375.994 200.332 376.128 200.896 376.395 201.296C376.661 201.696 377.046 201.896 377.547 201.896C378.038 201.896 378.416 201.704 378.68 201.32C378.943 200.933 379.077 200.37 379.08 199.631V199.284ZM279.905 217H278.44V209.891H279.905V217ZM287.049 217H285.584L282.732 212.322V217H281.268V209.891H282.732L285.589 214.578V209.891H287.049V217ZM293.909 214.632C293.854 215.397 293.571 215.999 293.06 216.438C292.552 216.878 291.881 217.098 291.048 217.098C290.136 217.098 289.419 216.792 288.895 216.18C288.374 215.564 288.113 214.721 288.113 213.65V213.216C288.113 212.532 288.234 211.93 288.475 211.409C288.715 210.888 289.059 210.49 289.505 210.213C289.954 209.933 290.475 209.793 291.067 209.793C291.888 209.793 292.549 210.013 293.05 210.452C293.551 210.892 293.841 211.508 293.919 212.303H292.454C292.418 211.844 292.29 211.512 292.068 211.307C291.85 211.098 291.517 210.994 291.067 210.994C290.579 210.994 290.213 211.17 289.969 211.521C289.728 211.87 289.604 212.412 289.598 213.147V213.685C289.598 214.453 289.713 215.014 289.944 215.369C290.179 215.724 290.547 215.901 291.048 215.901C291.5 215.901 291.837 215.799 292.059 215.594C292.283 215.385 292.412 215.065 292.444 214.632H293.909ZM300.711 213.606C300.711 214.306 300.587 214.92 300.34 215.447C300.092 215.975 299.738 216.382 299.275 216.668C298.816 216.954 298.289 217.098 297.693 217.098C297.104 217.098 296.578 216.956 296.116 216.673C295.654 216.39 295.296 215.986 295.042 215.462C294.788 214.935 294.66 214.329 294.656 213.646V213.294C294.656 212.594 294.782 211.979 295.032 211.448C295.286 210.914 295.643 210.506 296.102 210.223C296.564 209.936 297.091 209.793 297.684 209.793C298.276 209.793 298.802 209.936 299.261 210.223C299.723 210.506 300.079 210.914 300.33 211.448C300.584 211.979 300.711 212.592 300.711 213.289V213.606ZM299.227 213.284C299.227 212.539 299.093 211.972 298.826 211.585C298.559 211.198 298.178 211.004 297.684 211.004C297.192 211.004 296.813 211.196 296.546 211.58C296.279 211.961 296.144 212.521 296.141 213.26V213.606C296.141 214.332 296.274 214.896 296.541 215.296C296.808 215.696 297.192 215.896 297.693 215.896C298.185 215.896 298.562 215.704 298.826 215.32C299.09 214.933 299.223 214.37 299.227 213.631V213.284ZM307.557 217H306.092L303.24 212.322V217H301.775V209.891H303.24L306.097 214.578V209.891H307.557V217ZM312.522 215.135C312.522 214.858 312.425 214.646 312.229 214.5C312.034 214.35 311.683 214.194 311.175 214.031C310.667 213.865 310.265 213.702 309.969 213.543C309.161 213.107 308.758 212.519 308.758 211.78C308.758 211.396 308.865 211.054 309.08 210.755C309.298 210.452 309.609 210.216 310.013 210.047C310.42 209.878 310.875 209.793 311.38 209.793C311.888 209.793 312.34 209.886 312.737 210.071C313.134 210.254 313.442 210.512 313.66 210.848C313.882 211.183 313.992 211.564 313.992 211.99H312.527C312.527 211.665 312.425 211.412 312.22 211.233C312.015 211.051 311.727 210.96 311.355 210.96C310.997 210.96 310.719 211.036 310.521 211.189C310.322 211.339 310.223 211.538 310.223 211.785C310.223 212.016 310.338 212.21 310.569 212.366C310.804 212.522 311.147 212.669 311.6 212.806C312.433 213.056 313.04 213.367 313.421 213.738C313.802 214.109 313.992 214.572 313.992 215.125C313.992 215.74 313.759 216.224 313.294 216.575C312.828 216.924 312.202 217.098 311.414 217.098C310.867 217.098 310.369 216.998 309.92 216.8C309.471 216.598 309.127 216.323 308.89 215.975C308.655 215.626 308.538 215.223 308.538 214.764H310.008C310.008 215.548 310.477 215.94 311.414 215.94C311.762 215.94 312.034 215.87 312.229 215.73C312.425 215.587 312.522 215.389 312.522 215.135ZM320.569 214.632C320.514 215.397 320.231 215.999 319.72 216.438C319.212 216.878 318.541 217.098 317.708 217.098C316.797 217.098 316.079 216.792 315.555 216.18C315.034 215.564 314.773 214.721 314.773 213.65V213.216C314.773 212.532 314.894 211.93 315.135 211.409C315.376 210.888 315.719 210.49 316.165 210.213C316.614 209.933 317.135 209.793 317.728 209.793C318.548 209.793 319.209 210.013 319.71 210.452C320.211 210.892 320.501 211.508 320.579 212.303H319.114C319.078 211.844 318.95 211.512 318.729 211.307C318.51 211.098 318.177 210.994 317.728 210.994C317.239 210.994 316.873 211.17 316.629 211.521C316.388 211.87 316.264 212.412 316.258 213.147V213.685C316.258 214.453 316.373 215.014 316.604 215.369C316.839 215.724 317.207 215.901 317.708 215.901C318.16 215.901 318.497 215.799 318.719 215.594C318.943 215.385 319.072 215.065 319.104 214.632H320.569ZM323.089 217H321.624V209.891H323.089V217ZM328.729 213.919H325.916V215.823H329.217V217H324.451V209.891H329.207V211.077H325.916V212.771H328.729V213.919ZM335.857 217H334.393L331.541 212.322V217H330.076V209.891H331.541L334.397 214.578V209.891H335.857V217ZM342.342 211.077H340.164V217H338.699V211.077H336.551V209.891H342.342V211.077ZM347.459 213.919H344.646V215.823H347.947V217H343.182V209.891H347.938V211.077H344.646V212.771H347.459V213.919ZM350.721 209.891L352.547 215.047L354.363 209.891H356.287V217H354.817V215.057L354.964 211.702L353.045 217H352.039L350.125 211.707L350.271 215.057V217H348.807V209.891H350.721ZM361.844 213.919H359.031V215.823H362.332V217H357.566V209.891H362.322V211.077H359.031V212.771H361.844V213.919ZM368.973 217H367.508L364.656 212.322V217H363.191V209.891H364.656L367.513 214.578V209.891H368.973V217ZM375.457 211.077H373.279V217H371.814V211.077H369.666V209.891H375.457V211.077ZM380.574 213.919H377.762V215.823H381.062V217H376.297V209.891H381.053V211.077H377.762V212.771H380.574V213.919Z" fill="#60347B"/>
<path d="M518.924 163.148H519.977C520.478 163.148 520.849 163.023 521.091 162.772C521.332 162.522 521.453 162.189 521.453 161.774C521.453 161.373 521.332 161.061 521.091 160.838C520.854 160.615 520.526 160.503 520.106 160.503C519.728 160.503 519.411 160.608 519.156 160.817C518.901 161.022 518.773 161.291 518.773 161.624H516.798C516.798 161.104 516.937 160.64 517.215 160.229C517.497 159.815 517.889 159.491 518.391 159.259C518.896 159.026 519.452 158.91 520.059 158.91C521.111 158.91 521.936 159.163 522.533 159.669C523.13 160.17 523.429 160.863 523.429 161.747C523.429 162.203 523.29 162.622 523.012 163.005C522.734 163.388 522.369 163.682 521.918 163.887C522.479 164.087 522.896 164.388 523.169 164.789C523.447 165.19 523.586 165.664 523.586 166.211C523.586 167.095 523.262 167.804 522.615 168.337C521.973 168.87 521.12 169.137 520.059 169.137C519.065 169.137 518.252 168.875 517.618 168.351C516.989 167.826 516.675 167.134 516.675 166.272H518.65C518.65 166.646 518.789 166.951 519.067 167.188C519.35 167.425 519.696 167.544 520.106 167.544C520.576 167.544 520.943 167.421 521.207 167.175C521.476 166.924 521.61 166.594 521.61 166.184C521.61 165.19 521.063 164.693 519.97 164.693H518.924V163.148ZM504.151 186.949H500.556L499.872 189H497.691L501.396 179.047H503.297L507.022 189H504.842L504.151 186.949ZM501.109 185.288H503.598L502.347 181.562L501.109 185.288ZM510.003 185.493V189H507.952V179.047H511.835C512.582 179.047 513.239 179.184 513.804 179.457C514.373 179.73 514.811 180.12 515.116 180.626C515.422 181.127 515.574 181.699 515.574 182.342C515.574 183.317 515.239 184.087 514.569 184.652C513.904 185.213 512.981 185.493 511.801 185.493H510.003ZM510.003 183.832H511.835C512.377 183.832 512.79 183.704 513.072 183.449C513.359 183.194 513.503 182.829 513.503 182.355C513.503 181.868 513.359 181.474 513.072 181.173C512.785 180.872 512.389 180.717 511.883 180.708H510.003V183.832ZM519.04 187.353H523.395V189H516.989V179.047H519.04V187.353ZM526.758 189H524.707V179.047H526.758V189ZM536.479 185.685C536.401 186.756 536.005 187.599 535.289 188.214C534.578 188.829 533.639 189.137 532.473 189.137C531.197 189.137 530.192 188.708 529.458 187.852C528.729 186.99 528.364 185.81 528.364 184.311V183.702C528.364 182.745 528.533 181.902 528.87 181.173C529.207 180.444 529.688 179.885 530.312 179.498C530.941 179.106 531.671 178.91 532.5 178.91C533.648 178.91 534.574 179.218 535.275 179.833C535.977 180.448 536.383 181.312 536.492 182.424H534.441C534.391 181.781 534.211 181.316 533.901 181.029C533.596 180.738 533.129 180.592 532.5 180.592C531.816 180.592 531.304 180.838 530.962 181.33C530.625 181.818 530.451 182.576 530.442 183.606V184.358C530.442 185.434 530.604 186.22 530.928 186.717C531.256 187.214 531.771 187.462 532.473 187.462C533.106 187.462 533.578 187.318 533.888 187.031C534.202 186.74 534.382 186.291 534.428 185.685H536.479ZM543.444 186.949H539.849L539.165 189H536.984L540.689 179.047H542.59L546.315 189H544.135L543.444 186.949ZM540.402 185.288H542.891L541.64 181.562L540.402 185.288ZM459.096 206.949H455.5L454.816 209H452.636L456.341 199.047H458.241L461.967 209H459.786L459.096 206.949ZM456.054 205.288H458.542L457.291 201.562L456.054 205.288ZM470.307 199.047V205.603C470.307 206.692 469.965 207.553 469.281 208.187C468.602 208.82 467.673 209.137 466.492 209.137C465.33 209.137 464.407 208.829 463.724 208.214C463.04 207.599 462.691 206.753 462.678 205.678V199.047H464.729V205.616C464.729 206.268 464.883 206.744 465.193 207.045C465.508 207.341 465.941 207.489 466.492 207.489C467.645 207.489 468.231 206.883 468.249 205.671V199.047H470.307ZM479.48 200.708H476.432V209H474.381V200.708H471.373V199.047H479.48V200.708ZM488.641 204.249C488.641 205.229 488.467 206.088 488.121 206.826C487.775 207.564 487.278 208.134 486.631 208.535C485.988 208.936 485.25 209.137 484.416 209.137C483.591 209.137 482.855 208.938 482.208 208.542C481.561 208.146 481.06 207.58 480.704 206.847C480.349 206.108 480.169 205.261 480.164 204.304V203.812C480.164 202.832 480.34 201.97 480.69 201.228C481.046 200.48 481.545 199.908 482.188 199.512C482.835 199.111 483.573 198.91 484.402 198.91C485.232 198.91 485.968 199.111 486.61 199.512C487.257 199.908 487.757 200.48 488.107 201.228C488.463 201.97 488.641 202.829 488.641 203.805V204.249ZM486.562 203.798C486.562 202.754 486.376 201.961 486.002 201.419C485.628 200.877 485.095 200.605 484.402 200.605C483.714 200.605 483.183 200.874 482.81 201.412C482.436 201.945 482.247 202.729 482.242 203.764V204.249C482.242 205.265 482.429 206.054 482.803 206.614C483.176 207.175 483.714 207.455 484.416 207.455C485.104 207.455 485.633 207.186 486.002 206.648C486.371 206.106 486.558 205.318 486.562 204.283V203.798ZM492.811 199.047L495.367 206.266L497.91 199.047H500.604V209H498.546V206.279L498.751 201.583L496.064 209H494.656L491.977 201.59L492.182 206.279V209H490.131V199.047H492.811ZM508.137 206.949H504.541L503.857 209H501.677L505.382 199.047H507.282L511.008 209H508.827L508.137 206.949ZM505.095 205.288H507.583L506.332 201.562L505.095 205.288ZM518.609 200.708H515.561V209H513.51V200.708H510.502V199.047H518.609V200.708ZM521.966 209H519.915V199.047H521.966V209ZM531.687 205.685C531.609 206.756 531.213 207.599 530.497 208.214C529.786 208.829 528.847 209.137 527.681 209.137C526.405 209.137 525.4 208.708 524.666 207.852C523.937 206.99 523.572 205.81 523.572 204.311V203.702C523.572 202.745 523.741 201.902 524.078 201.173C524.415 200.444 524.896 199.885 525.521 199.498C526.149 199.106 526.879 198.91 527.708 198.91C528.856 198.91 529.782 199.218 530.483 199.833C531.185 200.448 531.591 201.312 531.7 202.424H529.649C529.599 201.781 529.419 201.316 529.109 201.029C528.804 200.738 528.337 200.592 527.708 200.592C527.024 200.592 526.512 200.838 526.17 201.33C525.833 201.818 525.66 202.576 525.65 203.606V204.358C525.65 205.434 525.812 206.22 526.136 206.717C526.464 207.214 526.979 207.462 527.681 207.462C528.314 207.462 528.786 207.318 529.096 207.031C529.41 206.74 529.59 206.291 529.636 205.685H531.687ZM538.652 206.949H535.057L534.373 209H532.192L535.897 199.047H537.798L541.523 209H539.343L538.652 206.949ZM535.61 205.288H538.099L536.848 201.562L535.61 205.288ZM545.133 199.047L547.689 206.266L550.232 199.047H552.926V209H550.868V206.279L551.073 201.583L548.387 209H546.979L544.299 201.59L544.504 206.279V209H542.453V199.047H545.133ZM560.705 204.687H556.768V207.353H561.389V209H554.717V199.047H561.375V200.708H556.768V203.08H560.705V204.687ZM570.686 209H568.635L564.643 202.451V209H562.592V199.047H564.643L568.642 205.609V199.047H570.686V209ZM579.764 200.708H576.715V209H574.664V200.708H571.656V199.047H579.764V200.708ZM586.928 204.687H582.99V207.353H587.611V209H580.939V199.047H587.598V200.708H582.99V203.08H586.928V204.687ZM472.405 223H470.94V215.891H472.405V223ZM479.549 223H478.084L475.232 218.322V223H473.768V215.891H475.232L478.089 220.578V215.891H479.549V223ZM486.409 220.632C486.354 221.397 486.071 221.999 485.56 222.438C485.052 222.878 484.381 223.098 483.548 223.098C482.636 223.098 481.919 222.792 481.395 222.18C480.874 221.564 480.613 220.721 480.613 219.65V219.216C480.613 218.532 480.734 217.93 480.975 217.409C481.215 216.888 481.559 216.49 482.005 216.213C482.454 215.933 482.975 215.793 483.567 215.793C484.388 215.793 485.049 216.013 485.55 216.452C486.051 216.892 486.341 217.508 486.419 218.303H484.954C484.918 217.844 484.79 217.512 484.568 217.307C484.35 217.098 484.017 216.994 483.567 216.994C483.079 216.994 482.713 217.17 482.469 217.521C482.228 217.87 482.104 218.412 482.098 219.147V219.685C482.098 220.453 482.213 221.014 482.444 221.369C482.679 221.724 483.047 221.901 483.548 221.901C484 221.901 484.337 221.799 484.559 221.594C484.783 221.385 484.912 221.065 484.944 220.632H486.409ZM493.211 219.606C493.211 220.306 493.087 220.92 492.84 221.447C492.592 221.975 492.238 222.382 491.775 222.668C491.316 222.954 490.789 223.098 490.193 223.098C489.604 223.098 489.078 222.956 488.616 222.673C488.154 222.39 487.796 221.986 487.542 221.462C487.288 220.935 487.16 220.329 487.156 219.646V219.294C487.156 218.594 487.282 217.979 487.532 217.448C487.786 216.914 488.143 216.506 488.602 216.223C489.064 215.936 489.591 215.793 490.184 215.793C490.776 215.793 491.302 215.936 491.761 216.223C492.223 216.506 492.579 216.914 492.83 217.448C493.084 217.979 493.211 218.592 493.211 219.289V219.606ZM491.727 219.284C491.727 218.539 491.593 217.972 491.326 217.585C491.059 217.198 490.678 217.004 490.184 217.004C489.692 217.004 489.313 217.196 489.046 217.58C488.779 217.961 488.644 218.521 488.641 219.26V219.606C488.641 220.332 488.774 220.896 489.041 221.296C489.308 221.696 489.692 221.896 490.193 221.896C490.685 221.896 491.062 221.704 491.326 221.32C491.59 220.933 491.723 220.37 491.727 219.631V219.284ZM500.057 223H498.592L495.74 218.322V223H494.275V215.891H495.74L498.597 220.578V215.891H500.057V223ZM505.022 221.135C505.022 220.858 504.925 220.646 504.729 220.5C504.534 220.35 504.183 220.194 503.675 220.031C503.167 219.865 502.765 219.702 502.469 219.543C501.661 219.107 501.258 218.519 501.258 217.78C501.258 217.396 501.365 217.054 501.58 216.755C501.798 216.452 502.109 216.216 502.513 216.047C502.92 215.878 503.375 215.793 503.88 215.793C504.388 215.793 504.84 215.886 505.237 216.071C505.634 216.254 505.942 216.512 506.16 216.848C506.382 217.183 506.492 217.564 506.492 217.99H505.027C505.027 217.665 504.925 217.412 504.72 217.233C504.515 217.051 504.227 216.96 503.855 216.96C503.497 216.96 503.219 217.036 503.021 217.189C502.822 217.339 502.723 217.538 502.723 217.785C502.723 218.016 502.838 218.21 503.069 218.366C503.304 218.522 503.647 218.669 504.1 218.806C504.933 219.056 505.54 219.367 505.921 219.738C506.302 220.109 506.492 220.572 506.492 221.125C506.492 221.74 506.259 222.224 505.794 222.575C505.328 222.924 504.702 223.098 503.914 223.098C503.367 223.098 502.869 222.998 502.42 222.8C501.971 222.598 501.627 222.323 501.39 221.975C501.155 221.626 501.038 221.223 501.038 220.764H502.508C502.508 221.548 502.977 221.94 503.914 221.94C504.262 221.94 504.534 221.87 504.729 221.73C504.925 221.587 505.022 221.389 505.022 221.135ZM513.069 220.632C513.014 221.397 512.731 221.999 512.22 222.438C511.712 222.878 511.041 223.098 510.208 223.098C509.297 223.098 508.579 222.792 508.055 222.18C507.534 221.564 507.273 220.721 507.273 219.65V219.216C507.273 218.532 507.394 217.93 507.635 217.409C507.876 216.888 508.219 216.49 508.665 216.213C509.114 215.933 509.635 215.793 510.228 215.793C511.048 215.793 511.709 216.013 512.21 216.452C512.711 216.892 513.001 217.508 513.079 218.303H511.614C511.578 217.844 511.45 217.512 511.229 217.307C511.01 217.098 510.677 216.994 510.228 216.994C509.739 216.994 509.373 217.17 509.129 217.521C508.888 217.87 508.764 218.412 508.758 219.147V219.685C508.758 220.453 508.873 221.014 509.104 221.369C509.339 221.724 509.707 221.901 510.208 221.901C510.66 221.901 510.997 221.799 511.219 221.594C511.443 221.385 511.572 221.065 511.604 220.632H513.069ZM515.589 223H514.124V215.891H515.589V223ZM521.229 219.919H518.416V221.823H521.717V223H516.951V215.891H521.707V217.077H518.416V218.771H521.229V219.919ZM528.357 223H526.893L524.041 218.322V223H522.576V215.891H524.041L526.897 220.578V215.891H528.357V223ZM534.842 217.077H532.664V223H531.199V217.077H529.051V215.891H534.842V217.077ZM539.959 219.919H537.146V221.823H540.447V223H535.682V215.891H540.438V217.077H537.146V218.771H539.959V219.919ZM543.221 215.891L545.047 221.047L546.863 215.891H548.787V223H547.317V221.057L547.464 217.702L545.545 223H544.539L542.625 217.707L542.771 221.057V223H541.307V215.891H543.221ZM554.344 219.919H551.531V221.823H554.832V223H550.066V215.891H554.822V217.077H551.531V218.771H554.344V219.919ZM561.473 223H560.008L557.156 218.322V223H555.691V215.891H557.156L560.013 220.578V215.891H561.473V223ZM567.957 217.077H565.779V223H564.314V217.077H562.166V215.891H567.957V217.077ZM573.074 219.919H570.262V221.823H573.562V223H568.797V215.891H573.553V217.077H570.262V218.771H573.074V219.919Z" fill="#60347B"/>
<path d="M740.502 165.254H741.63V166.847H740.502V169H738.526V166.847H734.445L734.356 165.603L738.506 159.047H740.502V165.254ZM736.325 165.254H738.526V161.74L738.396 161.966L736.325 165.254ZM693.792 185.356H692.158V189H690.107V179.047H693.806C694.981 179.047 695.888 179.309 696.526 179.833C697.164 180.357 697.483 181.098 697.483 182.055C697.483 182.734 697.335 183.301 697.039 183.757C696.747 184.208 696.303 184.568 695.706 184.837L697.859 188.904V189H695.658L693.792 185.356ZM692.158 183.695H693.812C694.327 183.695 694.726 183.565 695.009 183.306C695.291 183.041 695.433 182.679 695.433 182.219C695.433 181.749 695.298 181.38 695.029 181.111C694.765 180.842 694.357 180.708 693.806 180.708H692.158V183.695ZM705.037 184.687H701.1V187.353H705.721V189H699.049V179.047H705.707V180.708H701.1V183.08H705.037V184.687ZM706.924 189V179.047H709.986C710.861 179.047 711.643 179.245 712.331 179.642C713.024 180.034 713.564 180.594 713.951 181.323C714.339 182.048 714.532 182.873 714.532 183.798V184.256C714.532 185.181 714.341 186.004 713.958 186.724C713.58 187.444 713.044 188.002 712.352 188.398C711.659 188.795 710.877 188.995 710.007 189H706.924ZM708.975 180.708V187.353H709.966C710.768 187.353 711.381 187.09 711.805 186.566C712.229 186.042 712.445 185.293 712.454 184.317V183.791C712.454 182.779 712.244 182.014 711.825 181.494C711.406 180.97 710.793 180.708 709.986 180.708H708.975ZM723.562 179.047V185.603C723.562 186.692 723.221 187.553 722.537 188.187C721.858 188.82 720.928 189.137 719.748 189.137C718.586 189.137 717.663 188.829 716.979 188.214C716.296 187.599 715.947 186.753 715.934 185.678V179.047H717.984V185.616C717.984 186.268 718.139 186.744 718.449 187.045C718.764 187.341 719.197 187.489 719.748 187.489C720.901 187.489 721.487 186.883 721.505 185.671V179.047H723.562ZM733.058 185.685C732.98 186.756 732.584 187.599 731.868 188.214C731.157 188.829 730.218 189.137 729.052 189.137C727.776 189.137 726.771 188.708 726.037 187.852C725.308 186.99 724.943 185.81 724.943 184.311V183.702C724.943 182.745 725.112 181.902 725.449 181.173C725.786 180.444 726.267 179.885 726.892 179.498C727.521 179.106 728.25 178.91 729.079 178.91C730.228 178.91 731.153 179.218 731.854 179.833C732.556 180.448 732.962 181.312 733.071 182.424H731.021C730.97 181.781 730.79 181.316 730.48 181.029C730.175 180.738 729.708 180.592 729.079 180.592C728.396 180.592 727.883 180.838 727.541 181.33C727.204 181.818 727.031 182.576 727.021 183.606V184.358C727.021 185.434 727.183 186.22 727.507 186.717C727.835 187.214 728.35 187.462 729.052 187.462C729.685 187.462 730.157 187.318 730.467 187.031C730.781 186.74 730.961 186.291 731.007 185.685H733.058ZM742.218 185.685C742.14 186.756 741.744 187.599 741.028 188.214C740.317 188.829 739.379 189.137 738.212 189.137C736.936 189.137 735.931 188.708 735.197 187.852C734.468 186.99 734.104 185.81 734.104 184.311V183.702C734.104 182.745 734.272 181.902 734.609 181.173C734.947 180.444 735.427 179.885 736.052 179.498C736.681 179.106 737.41 178.91 738.239 178.91C739.388 178.91 740.313 179.218 741.015 179.833C741.716 180.448 742.122 181.312 742.231 182.424H740.181C740.131 181.781 739.951 181.316 739.641 181.029C739.335 180.738 738.868 180.592 738.239 180.592C737.556 180.592 737.043 180.838 736.701 181.33C736.364 181.818 736.191 182.576 736.182 183.606V184.358C736.182 185.434 736.343 186.22 736.667 186.717C736.995 187.214 737.51 187.462 738.212 187.462C738.845 187.462 739.317 187.318 739.627 187.031C739.941 186.74 740.121 186.291 740.167 185.685H742.218ZM745.745 189H743.694V179.047H745.745V189ZM755.828 184.249C755.828 185.229 755.655 186.088 755.309 186.826C754.962 187.564 754.465 188.134 753.818 188.535C753.176 188.936 752.438 189.137 751.604 189.137C750.779 189.137 750.043 188.938 749.396 188.542C748.748 188.146 748.247 187.58 747.892 186.847C747.536 186.108 747.356 185.261 747.352 184.304V183.812C747.352 182.832 747.527 181.97 747.878 181.228C748.233 180.48 748.732 179.908 749.375 179.512C750.022 179.111 750.76 178.91 751.59 178.91C752.419 178.91 753.155 179.111 753.798 179.512C754.445 179.908 754.944 180.48 755.295 181.228C755.65 181.97 755.828 182.829 755.828 183.805V184.249ZM753.75 183.798C753.75 182.754 753.563 181.961 753.189 181.419C752.816 180.877 752.283 180.605 751.59 180.605C750.902 180.605 750.371 180.874 749.997 181.412C749.623 181.945 749.434 182.729 749.43 183.764V184.249C749.43 185.265 749.617 186.054 749.99 186.614C750.364 187.175 750.902 187.455 751.604 187.455C752.292 187.455 752.82 187.186 753.189 186.648C753.559 186.106 753.745 185.318 753.75 184.283V183.798ZM765.412 189H763.361L759.369 182.451V189H757.318V179.047H759.369L763.368 185.609V179.047H765.412V189ZM770.689 189V179.047H773.752C774.627 179.047 775.409 179.245 776.097 179.642C776.789 180.034 777.329 180.594 777.717 181.323C778.104 182.048 778.298 182.873 778.298 183.798V184.256C778.298 185.181 778.106 186.004 777.724 186.724C777.345 187.444 776.81 188.002 776.117 188.398C775.424 188.795 774.643 188.995 773.772 189H770.689ZM772.74 180.708V187.353H773.731C774.534 187.353 775.146 187.09 775.57 186.566C775.994 186.042 776.211 185.293 776.22 184.317V183.791C776.22 182.779 776.01 182.014 775.591 181.494C775.172 180.97 774.559 180.708 773.752 180.708H772.74ZM785.783 184.687H781.846V187.353H786.467V189H779.795V179.047H786.453V180.708H781.846V183.08H785.783V184.687ZM707.621 204.687H703.684V207.353H708.305V209H701.633V199.047H708.291V200.708H703.684V203.08H707.621V204.687ZM714.669 206.389C714.669 206.001 714.532 205.705 714.259 205.5C713.985 205.29 713.493 205.072 712.782 204.844C712.071 204.611 711.508 204.383 711.094 204.16C709.964 203.549 709.398 202.727 709.398 201.692C709.398 201.155 709.549 200.676 709.85 200.257C710.155 199.833 710.59 199.503 711.155 199.266C711.725 199.029 712.363 198.91 713.069 198.91C713.78 198.91 714.414 199.04 714.97 199.3C715.526 199.555 715.956 199.917 716.262 200.387C716.572 200.856 716.727 201.389 716.727 201.986H714.676C714.676 201.531 714.532 201.177 714.245 200.927C713.958 200.672 713.555 200.544 713.035 200.544C712.534 200.544 712.144 200.651 711.866 200.865C711.588 201.075 711.449 201.353 711.449 201.699C711.449 202.023 711.611 202.294 711.935 202.513C712.263 202.731 712.743 202.937 713.377 203.128C714.544 203.479 715.394 203.914 715.927 204.434C716.46 204.953 716.727 205.6 716.727 206.375C716.727 207.236 716.401 207.913 715.749 208.405C715.097 208.893 714.22 209.137 713.117 209.137C712.352 209.137 711.654 208.998 711.025 208.72C710.396 208.437 709.916 208.052 709.583 207.564C709.255 207.077 709.091 206.512 709.091 205.869H711.148C711.148 206.967 711.805 207.517 713.117 207.517C713.605 207.517 713.985 207.419 714.259 207.223C714.532 207.022 714.669 206.744 714.669 206.389ZM725.613 200.708H722.564V209H720.514V200.708H717.506V199.047H725.613V200.708ZM728.97 209H726.919V199.047H728.97V209ZM733.557 199.047L736.113 206.266L738.656 199.047H741.35V209H739.292V206.279L739.497 201.583L736.811 209H735.402L732.723 201.59L732.928 206.279V209H730.877V199.047H733.557ZM750.674 199.047V205.603C750.674 206.692 750.332 207.553 749.648 208.187C748.969 208.82 748.04 209.137 746.859 209.137C745.697 209.137 744.774 208.829 744.091 208.214C743.407 207.599 743.059 206.753 743.045 205.678V199.047H745.096V205.616C745.096 206.268 745.251 206.744 745.561 207.045C745.875 207.341 746.308 207.489 746.859 207.489C748.012 207.489 748.598 206.883 748.616 205.671V199.047H750.674ZM754.406 207.353H758.761V209H752.355V199.047H754.406V207.353ZM767.682 204.249C767.682 205.229 767.508 206.088 767.162 206.826C766.816 207.564 766.319 208.134 765.672 208.535C765.029 208.936 764.291 209.137 763.457 209.137C762.632 209.137 761.896 208.938 761.249 208.542C760.602 208.146 760.101 207.58 759.745 206.847C759.39 206.108 759.21 205.261 759.205 204.304V203.812C759.205 202.832 759.381 201.97 759.731 201.228C760.087 200.48 760.586 199.908 761.229 199.512C761.876 199.111 762.614 198.91 763.443 198.91C764.273 198.91 765.009 199.111 765.651 199.512C766.299 199.908 766.798 200.48 767.148 201.228C767.504 201.97 767.682 202.829 767.682 203.805V204.249ZM765.604 203.798C765.604 202.754 765.417 201.961 765.043 201.419C764.669 200.877 764.136 200.605 763.443 200.605C762.755 200.605 762.224 200.874 761.851 201.412C761.477 201.945 761.288 202.729 761.283 203.764V204.249C761.283 205.265 761.47 206.054 761.844 206.614C762.217 207.175 762.755 207.455 763.457 207.455C764.145 207.455 764.674 207.186 765.043 206.648C765.412 206.106 765.599 205.318 765.604 204.283V203.798ZM688.405 223H686.94V215.891H688.405V223ZM695.549 223H694.084L691.232 218.322V223H689.768V215.891H691.232L694.089 220.578V215.891H695.549V223ZM702.409 220.632C702.354 221.397 702.071 221.999 701.56 222.438C701.052 222.878 700.381 223.098 699.548 223.098C698.636 223.098 697.919 222.792 697.395 222.18C696.874 221.564 696.613 220.721 696.613 219.65V219.216C696.613 218.532 696.734 217.93 696.975 217.409C697.215 216.888 697.559 216.49 698.005 216.213C698.454 215.933 698.975 215.793 699.567 215.793C700.388 215.793 701.049 216.013 701.55 216.452C702.051 216.892 702.341 217.508 702.419 218.303H700.954C700.918 217.844 700.79 217.512 700.568 217.307C700.35 217.098 700.017 216.994 699.567 216.994C699.079 216.994 698.713 217.17 698.469 217.521C698.228 217.87 698.104 218.412 698.098 219.147V219.685C698.098 220.453 698.213 221.014 698.444 221.369C698.679 221.724 699.047 221.901 699.548 221.901C700 221.901 700.337 221.799 700.559 221.594C700.783 221.385 700.912 221.065 700.944 220.632H702.409ZM709.211 219.606C709.211 220.306 709.087 220.92 708.84 221.447C708.592 221.975 708.238 222.382 707.775 222.668C707.316 222.954 706.789 223.098 706.193 223.098C705.604 223.098 705.078 222.956 704.616 222.673C704.154 222.39 703.796 221.986 703.542 221.462C703.288 220.935 703.16 220.329 703.156 219.646V219.294C703.156 218.594 703.282 217.979 703.532 217.448C703.786 216.914 704.143 216.506 704.602 216.223C705.064 215.936 705.591 215.793 706.184 215.793C706.776 215.793 707.302 215.936 707.761 216.223C708.223 216.506 708.579 216.914 708.83 217.448C709.084 217.979 709.211 218.592 709.211 219.289V219.606ZM707.727 219.284C707.727 218.539 707.593 217.972 707.326 217.585C707.059 217.198 706.678 217.004 706.184 217.004C705.692 217.004 705.313 217.196 705.046 217.58C704.779 217.961 704.644 218.521 704.641 219.26V219.606C704.641 220.332 704.774 220.896 705.041 221.296C705.308 221.696 705.692 221.896 706.193 221.896C706.685 221.896 707.062 221.704 707.326 221.32C707.59 220.933 707.723 220.37 707.727 219.631V219.284ZM716.057 223H714.592L711.74 218.322V223H710.275V215.891H711.74L714.597 220.578V215.891H716.057V223ZM721.022 221.135C721.022 220.858 720.925 220.646 720.729 220.5C720.534 220.35 720.183 220.194 719.675 220.031C719.167 219.865 718.765 219.702 718.469 219.543C717.661 219.107 717.258 218.519 717.258 217.78C717.258 217.396 717.365 217.054 717.58 216.755C717.798 216.452 718.109 216.216 718.513 216.047C718.92 215.878 719.375 215.793 719.88 215.793C720.388 215.793 720.84 215.886 721.237 216.071C721.634 216.254 721.942 216.512 722.16 216.848C722.382 217.183 722.492 217.564 722.492 217.99H721.027C721.027 217.665 720.925 217.412 720.72 217.233C720.515 217.051 720.227 216.96 719.855 216.96C719.497 216.96 719.219 217.036 719.021 217.189C718.822 217.339 718.723 217.538 718.723 217.785C718.723 218.016 718.838 218.21 719.069 218.366C719.304 218.522 719.647 218.669 720.1 218.806C720.933 219.056 721.54 219.367 721.921 219.738C722.302 220.109 722.492 220.572 722.492 221.125C722.492 221.74 722.259 222.224 721.794 222.575C721.328 222.924 720.702 223.098 719.914 223.098C719.367 223.098 718.869 222.998 718.42 222.8C717.971 222.598 717.627 222.323 717.39 221.975C717.155 221.626 717.038 221.223 717.038 220.764H718.508C718.508 221.548 718.977 221.94 719.914 221.94C720.262 221.94 720.534 221.87 720.729 221.73C720.925 221.587 721.022 221.389 721.022 221.135ZM729.069 220.632C729.014 221.397 728.731 221.999 728.22 222.438C727.712 222.878 727.041 223.098 726.208 223.098C725.297 223.098 724.579 222.792 724.055 222.18C723.534 221.564 723.273 220.721 723.273 219.65V219.216C723.273 218.532 723.394 217.93 723.635 217.409C723.876 216.888 724.219 216.49 724.665 216.213C725.114 215.933 725.635 215.793 726.228 215.793C727.048 215.793 727.709 216.013 728.21 216.452C728.711 216.892 729.001 217.508 729.079 218.303H727.614C727.578 217.844 727.45 217.512 727.229 217.307C727.01 217.098 726.677 216.994 726.228 216.994C725.739 216.994 725.373 217.17 725.129 217.521C724.888 217.87 724.764 218.412 724.758 219.147V219.685C724.758 220.453 724.873 221.014 725.104 221.369C725.339 221.724 725.707 221.901 726.208 221.901C726.66 221.901 726.997 221.799 727.219 221.594C727.443 221.385 727.572 221.065 727.604 220.632H729.069ZM731.589 223H730.124V215.891H731.589V223ZM737.229 219.919H734.416V221.823H737.717V223H732.951V215.891H737.707V217.077H734.416V218.771H737.229V219.919ZM744.357 223H742.893L740.041 218.322V223H738.576V215.891H740.041L742.897 220.578V215.891H744.357V223ZM750.842 217.077H748.664V223H747.199V217.077H745.051V215.891H750.842V217.077ZM755.959 219.919H753.146V221.823H756.447V223H751.682V215.891H756.438V217.077H753.146V218.771H755.959V219.919ZM759.221 215.891L761.047 221.047L762.863 215.891H764.787V223H763.317V221.057L763.464 217.702L761.545 223H760.539L758.625 217.707L758.771 221.057V223H757.307V215.891H759.221ZM770.344 219.919H767.531V221.823H770.832V223H766.066V215.891H770.822V217.077H767.531V218.771H770.344V219.919ZM777.473 223H776.008L773.156 218.322V223H771.691V215.891H773.156L776.013 220.578V215.891H777.473V223ZM783.957 217.077H781.779V223H780.314V217.077H778.166V215.891H783.957V217.077ZM789.074 219.919H786.262V221.823H789.562V223H784.797V215.891H789.553V217.077H786.262V218.771H789.074V219.919Z" fill="#60347B"/>
<path d="M10.293 129.734C11.1953 129.84 11.8926 130.174 12.3848 130.736C12.873 131.295 13.1172 132.039 13.1172 132.969C13.1172 133.977 12.7559 134.785 12.0332 135.395C11.3105 136 10.3438 136.303 9.13281 136.303H8.3125C7.51953 136.303 6.82227 136.162 6.2207 135.881C5.61914 135.596 5.1582 135.193 4.83789 134.674C4.51367 134.154 4.35156 133.553 4.35156 132.869C4.35156 131.963 4.60547 131.236 5.11328 130.689C5.61719 130.143 6.31641 129.824 7.21094 129.734L7.21094 130.865C6.53125 130.963 6.03906 131.176 5.73438 131.504C5.42969 131.828 5.27734 132.283 5.27734 132.869C5.27734 133.588 5.54297 134.152 6.07422 134.562C6.60547 134.969 7.36133 135.172 8.3418 135.172H9.16797C10.0938 135.172 10.8301 134.979 11.377 134.592C11.9238 134.205 12.1973 133.664 12.1973 132.969C12.1973 132.344 12.0566 131.865 11.7754 131.533C11.4902 131.197 10.9961 130.975 10.293 130.865V129.734ZM13 126.986V128.111H4.46875V126.986H13ZM10.293 118.648C11.1953 118.754 11.8926 119.088 12.3848 119.65C12.873 120.209 13.1172 120.953 13.1172 121.883C13.1172 122.891 12.7559 123.699 12.0332 124.309C11.3105 124.914 10.3438 125.217 9.13281 125.217H8.3125C7.51953 125.217 6.82227 125.076 6.2207 124.795C5.61914 124.51 5.1582 124.107 4.83789 123.588C4.51367 123.068 4.35156 122.467 4.35156 121.783C4.35156 120.877 4.60547 120.15 5.11328 119.604C5.61719 119.057 6.31641 118.738 7.21094 118.648V119.779C6.53125 119.877 6.03906 120.09 5.73438 120.418C5.42969 120.742 5.27734 121.197 5.27734 121.783C5.27734 122.502 5.54297 123.066 6.07422 123.477C6.60547 123.883 7.36133 124.086 8.3418 124.086H9.16797C10.0938 124.086 10.8301 123.893 11.377 123.506C11.9238 123.119 12.1973 122.578 12.1973 121.883C12.1973 121.258 12.0566 120.779 11.7754 120.447C11.4902 120.111 10.9961 119.889 10.293 119.779V118.648ZM12.0801 115.977V111.934H13V117.107H4.46875V115.977H12.0801ZM9.00977 104.475C9.8457 104.475 10.5762 104.615 11.2012 104.896C11.8223 105.178 12.2969 105.576 12.625 106.092C12.9531 106.607 13.1172 107.209 13.1172 107.896C13.1172 108.568 12.9531 109.164 12.625 109.684C12.293 110.203 11.8223 110.607 11.2129 110.896C10.5996 111.182 9.89063 111.328 9.08594 111.336H8.4707C7.65039 111.336 6.92578 111.193 6.29688 110.908C5.66797 110.623 5.1875 110.221 4.85547 109.701C4.51953 109.178 4.35156 108.58 4.35156 107.908C4.35156 107.225 4.51758 106.623 4.84961 106.104C5.17773 105.58 5.65625 105.178 6.28516 104.896C6.91016 104.615 7.63867 104.475 8.4707 104.475H9.00977ZM8.45898 105.594C7.44727 105.594 6.67188 105.797 6.13281 106.203C5.58984 106.609 5.31836 107.178 5.31836 107.908C5.31836 108.619 5.58984 109.18 6.13281 109.59C6.67188 109.996 7.42188 110.205 8.38281 110.217H9.00977C9.99023 110.217 10.7617 110.012 11.3242 109.602C11.8828 109.188 12.1621 108.619 12.1621 107.896C12.1621 107.17 11.8984 106.607 11.3711 106.209C10.8398 105.811 10.0801 105.605 9.0918 105.594H8.45898ZM13 99.8105H4.46875V97.4023C4.46875 96.6602 4.63281 96.0039 4.96094 95.4336C5.28906 94.8633 5.75586 94.4238 6.36133 94.1152C6.9668 93.8027 7.66211 93.6445 8.44727 93.6406H8.99219C9.79688 93.6406 10.502 93.7969 11.1074 94.1094C11.7129 94.418 12.1777 94.8613 12.502 95.4395C12.8262 96.0137 12.9922 96.6836 13 97.4492V99.8105ZM5.39453 98.6855H12.0801V97.502C12.0801 96.6348 11.8105 95.9609 11.2715 95.4805C10.7324 94.9961 9.96484 94.7539 8.96875 94.7539H8.4707C7.50195 94.7539 6.75 94.9824 6.21484 95.4395C5.67578 95.8926 5.40234 96.5371 5.39453 97.373V98.6855ZM9.05664 87.1133V90.8105H12.0801V86.5156H13V91.9355H4.46875V86.5742H5.39453V90.8105H8.13672V87.1133H9.05664ZM10.293 75.8633C11.1953 75.9688 11.8926 76.3027 12.3848 76.8652C12.873 77.4238 13.1172 78.168 13.1172 79.0977C13.1172 80.1055 12.7559 80.9141 12.0332 81.5234C11.3105 82.1289 10.3438 82.4316 9.13281 82.4316H8.3125C7.51953 82.4316 6.82227 82.291 6.2207 82.0098C5.61914 81.7246 5.1582 81.3223 4.83789 80.8027C4.51367 80.2832 4.35156 79.6816 4.35156 78.998C4.35156 78.0918 4.60547 77.3652 5.11328 76.8184C5.61719 76.2715 6.31641 75.9531 7.21094 75.8633V76.9941C6.53125 77.0918 6.03906 77.3047 5.73438 77.6328C5.42969 77.957 5.27734 78.4121 5.27734 78.998C5.27734 79.7168 5.54297 80.2812 6.07422 80.6914C6.60547 81.0977 7.36133 81.3008 8.3418 81.3008H9.16797C10.0938 81.3008 10.8301 81.1074 11.377 80.7207C11.9238 80.334 12.1973 79.793 12.1973 79.0977C12.1973 78.4727 12.0566 77.9941 11.7754 77.6621C11.4902 77.3262 10.9961 77.1035 10.293 76.9941V75.8633ZM9.05664 69.5V73.1973H12.0801V68.9023H13V74.3223H4.46875L4.46875 68.9609H5.39453L5.39453 73.1973H8.13672V69.5H9.05664ZM9.54883 64.373L9.54883 66.377H13V67.5078H4.46875V64.6836C4.46875 63.7227 4.6875 62.9844 5.125 62.4688C5.5625 61.9492 6.19922 61.6895 7.03516 61.6895C7.56641 61.6895 8.0293 61.834 8.42383 62.123C8.81836 62.4082 9.11328 62.8066 9.30859 63.3184L12.9297 61.3145H13V62.5215L9.54883 64.373ZM8.62891 66.377V64.6484C8.62891 64.0898 8.48438 63.6465 8.19531 63.3184C7.90625 62.9863 7.51953 62.8203 7.03516 62.8203C6.50781 62.8203 6.10352 62.9785 5.82227 63.2949C5.54102 63.6074 5.39844 64.0605 5.39453 64.6543V66.377H8.62891ZM9.05664 55.2852V58.9824H12.0801V54.6875H13V60.1074H4.46875L4.46875 54.7461H5.39453L5.39453 58.9824H8.13672V55.2852H9.05664ZM13 53.2871H4.46875V50.498C4.46875 49.5723 4.66016 48.877 5.04297 48.4121C5.42578 47.9434 5.99219 47.709 6.74219 47.709C7.14063 47.709 7.49414 47.8223 7.80273 48.0488C8.10742 48.2754 8.34375 48.584 8.51172 48.9746C8.64063 48.5137 8.88672 48.1504 9.25 47.8848C9.60938 47.6152 10.0391 47.4805 10.5391 47.4805C11.3047 47.4805 11.9063 47.7285 12.3438 48.2246C12.7813 48.7207 13 49.4219 13 50.3281V53.2871ZM9.00977 52.1621H12.0801V50.3047C12.0801 49.7812 11.9453 49.3691 11.6758 49.0684C11.4023 48.7637 11.0273 48.6113 10.5508 48.6113C9.52344 48.6113 9.00977 49.1699 9.00977 50.2871V52.1621ZM8.10742 52.1621V50.4629C8.10742 49.9707 7.98438 49.5781 7.73828 49.2852C7.49219 48.9883 7.1582 48.8398 6.73633 48.8398C6.26758 48.8398 5.92773 48.9766 5.7168 49.25C5.50195 49.5234 5.39453 49.9395 5.39453 50.498V52.1621H8.10742ZM9.54883 42.6816V44.6855H13V45.8164H4.46875V42.9922C4.46875 42.0312 4.6875 41.293 5.125 40.7773C5.5625 40.2578 6.19922 39.998 7.03516 39.998C7.56641 39.998 8.0293 40.1426 8.42383 40.4316C8.81836 40.7168 9.11328 41.1152 9.30859 41.627L12.9297 39.623H13V40.8301L9.54883 42.6816ZM8.62891 44.6855V42.957C8.62891 42.3984 8.48438 41.9551 8.19531 41.627C7.90625 41.2949 7.51953 41.1289 7.03516 41.1289C6.50781 41.1289 6.10352 41.2871 5.82227 41.6035C5.54102 41.916 5.39844 42.3691 5.39453 42.9629V44.6855H8.62891ZM9.00977 31.8535C9.8457 31.8535 10.5762 31.9941 11.2012 32.2754C11.8223 32.5566 12.2969 32.9551 12.625 33.4707C12.9531 33.9863 13.1172 34.5879 13.1172 35.2754C13.1172 35.9473 12.9531 36.543 12.625 37.0625C12.293 37.582 11.8223 37.9863 11.2129 38.2754C10.5996 38.5605 9.89063 38.707 9.08594 38.7148H8.4707C7.65039 38.7148 6.92578 38.5723 6.29688 38.2871C5.66797 38.002 5.1875 37.5996 4.85547 37.0801C4.51953 36.5566 4.35156 35.959 4.35156 35.2871C4.35156 34.6035 4.51758 34.002 4.84961 33.4824C5.17773 32.959 5.65625 32.5566 6.28516 32.2754C6.91016 31.9941 7.63867 31.8535 8.4707 31.8535H9.00977ZM8.45898 32.9727C7.44727 32.9727 6.67188 33.1758 6.13281 33.582C5.58984 33.9883 5.31836 34.5566 5.31836 35.2871C5.31836 35.998 5.58984 36.5586 6.13281 36.9688C6.67188 37.375 7.42188 37.584 8.38281 37.5957H9.00977C9.99023 37.5957 10.7617 37.3906 11.3242 36.9805C11.8828 36.5664 12.1621 35.998 12.1621 35.2754C12.1621 34.5488 11.8984 33.9863 11.3711 33.5879C10.8398 33.1895 10.0801 32.9844 9.0918 32.9727H8.45898ZM27.293 129.734C28.1953 129.84 28.8926 130.174 29.3848 130.736C29.873 131.295 30.1172 132.039 30.1172 132.969C30.1172 133.977 29.7559 134.785 29.0332 135.395C28.3105 136 27.3438 136.303 26.1328 136.303H25.3125C24.5195 136.303 23.8223 136.162 23.2207 135.881C22.6191 135.596 22.1582 135.193 21.8379 134.674C21.5137 134.154 21.3516 133.553 21.3516 132.869C21.3516 131.963 21.6055 131.236 22.1133 130.689C22.6172 130.143 23.3164 129.824 24.2109 129.734V130.865C23.5312 130.963 23.0391 131.176 22.7344 131.504C22.4297 131.828 22.2773 132.283 22.2773 132.869C22.2773 133.588 22.543 134.152 23.0742 134.562C23.6055 134.969 24.3613 135.172 25.3418 135.172H26.168C27.0938 135.172 27.8301 134.979 28.377 134.592C28.9238 134.205 29.1973 133.664 29.1973 132.969C29.1973 132.344 29.0566 131.865 28.7754 131.533C28.4902 131.197 27.9961 130.975 27.293 130.865V129.734ZM26.0098 121.631C26.8457 121.631 27.5762 121.771 28.2012 122.053C28.8223 122.334 29.2969 122.732 29.625 123.248C29.9531 123.764 30.1172 124.365 30.1172 125.053C30.1172 125.725 29.9531 126.32 29.625 126.84C29.293 127.359 28.8223 127.764 28.2129 128.053C27.5996 128.338 26.8906 128.484 26.0859 128.492H25.4707C24.6504 128.492 23.9258 128.35 23.2969 128.064C22.668 127.779 22.1875 127.377 21.8555 126.857C21.5195 126.334 21.3516 125.736 21.3516 125.064C21.3516 124.381 21.5176 123.779 21.8496 123.26C22.1777 122.736 22.6562 122.334 23.2852 122.053C23.9102 121.771 24.6387 121.631 25.4707 121.631H26.0098ZM25.459 122.75C24.4473 122.75 23.6719 122.953 23.1328 123.359C22.5898 123.766 22.3184 124.334 22.3184 125.064C22.3184 125.775 22.5898 126.336 23.1328 126.746C23.6719 127.152 24.4219 127.361 25.3828 127.373H26.0098C26.9902 127.373 27.7617 127.168 28.3242 126.758C28.8828 126.344 29.1621 125.775 29.1621 125.053C29.1621 124.326 28.8984 123.764 28.3711 123.365C27.8398 122.967 27.0801 122.762 26.0918 122.75H25.459ZM30 113.387V114.518L23.4258 118.812H30V119.943H21.4688V118.812L28.0723 114.506H21.4688V113.387H30ZM26.2324 106.684L26.2324 110.264H30V111.389H21.4688L21.4688 106.104H22.3945L22.3945 110.264H25.3125L25.3125 106.684H26.2324ZM26.0098 98.1934C26.8457 98.1934 27.5762 98.334 28.2012 98.6152C28.8223 98.8965 29.2969 99.2949 29.625 99.8105C29.9531 100.326 30.1172 100.928 30.1172 101.615C30.1172 102.287 29.9531 102.883 29.625 103.402C29.293 103.922 28.8223 104.326 28.2129 104.615C27.5996 104.9 26.8906 105.047 26.0859 105.055H25.4707C24.6504 105.055 23.9258 104.912 23.2969 104.627C22.668 104.342 22.1875 103.939 21.8555 103.42C21.5195 102.896 21.3516 102.299 21.3516 101.627C21.3516 100.943 21.5176 100.342 21.8496 99.8223C22.1777 99.2988 22.6563 98.8965 23.2852 98.6152C23.9102 98.334 24.6387 98.1934 25.4707 98.1934H26.0098ZM25.459 99.3125C24.4473 99.3125 23.6719 99.5156 23.1328 99.9219C22.5898 100.328 22.3184 100.896 22.3184 101.627C22.3184 102.338 22.5898 102.898 23.1328 103.309C23.6719 103.715 24.4219 103.924 25.3828 103.936H26.0098C26.9902 103.936 27.7617 103.73 28.3242 103.32C28.8828 102.906 29.1621 102.338 29.1621 101.615C29.1621 100.889 28.8984 100.326 28.3711 99.9277C27.8398 99.5293 27.0801 99.3242 26.0918 99.3125H25.459ZM26.5488 93.377V95.3809H30V96.5117H21.4688V93.6875C21.4688 92.7266 21.6875 91.9883 22.125 91.4727C22.5625 90.9531 23.1992 90.6934 24.0352 90.6934C24.5664 90.6934 25.0293 90.8379 25.4238 91.127C25.8184 91.4121 26.1133 91.8105 26.3086 92.3223L29.9297 90.3184H30V91.5254L26.5488 93.377ZM25.6289 95.3809V93.6523C25.6289 93.0938 25.4844 92.6504 25.1953 92.3223C24.9063 91.9902 24.5195 91.8242 24.0352 91.8242C23.5078 91.8242 23.1035 91.9824 22.8223 92.2988C22.541 92.6113 22.3984 93.0645 22.3945 93.6582V95.3809H25.6289ZM22.3945 83.6855V86.4277H30V87.5469H22.3945V90.2832H21.4688V83.6855H22.3945ZM27.7734 78.1777V81.752L30 82.5547V83.7148L21.4688 80.457V79.4727L30 76.209V77.3633L27.7734 78.1777ZM26.8477 81.4121V78.5117L22.8574 79.9648L26.8477 81.4121ZM30 75.0605H21.4688V72.2715C21.4688 71.3457 21.6602 70.6504 22.043 70.1855C22.4258 69.7168 22.9922 69.4824 23.7422 69.4824C24.1406 69.4824 24.4941 69.5957 24.8027 69.8223C25.1074 70.0488 25.3438 70.3574 25.5117 70.748C25.6406 70.2871 25.8867 69.9238 26.25 69.6582C26.6094 69.3887 27.0391 69.2539 27.5391 69.2539C28.3047 69.2539 28.9063 69.502 29.3438 69.998C29.7813 70.4941 30 71.1953 30 72.1016V75.0605ZM26.0098 73.9355H29.0801V72.0781C29.0801 71.5547 28.9453 71.1426 28.6758 70.8418C28.4023 70.5371 28.0273 70.3848 27.5508 70.3848C26.5234 70.3848 26.0098 70.9434 26.0098 72.0605V73.9355ZM25.1074 73.9355V72.2363C25.1074 71.7441 24.9844 71.3516 24.7383 71.0586C24.4922 70.7617 24.1582 70.6133 23.7363 70.6133C23.2676 70.6133 22.9277 70.75 22.7168 71.0234C22.502 71.2969 22.3945 71.7129 22.3945 72.2715V73.9355H25.1074ZM29.0801 66.4531V62.4102H30V67.584H21.4688V66.4531H29.0801ZM26.0566 56.3047V60.002H29.0801V55.707H30V61.127H21.4688V55.7656H22.3945V60.002H25.1367V56.3047H26.0566Z" fill="#60347B"/>
<path d="M62.832 32.8047L63.3242 28.4688H68.1055V29.8809H64.7129L64.502 31.7148C64.9043 31.5 65.332 31.3926 65.7852 31.3926C66.5977 31.3926 67.2344 31.6445 67.6953 32.1484C68.1562 32.6523 68.3867 33.3574 68.3867 34.2637C68.3867 34.8145 68.2695 35.3086 68.0352 35.7461C67.8047 36.1797 67.4727 36.5176 67.0391 36.7598C66.6055 36.998 66.0938 37.1172 65.5039 37.1172C64.9883 37.1172 64.5098 37.0137 64.0684 36.8066C63.627 36.5957 63.2773 36.3008 63.0195 35.9219C62.7656 35.543 62.6309 35.1113 62.6152 34.627H64.291C64.3262 34.9824 64.4492 35.2598 64.6602 35.459C64.875 35.6543 65.1543 35.752 65.498 35.752C65.8809 35.752 66.1758 35.6152 66.3828 35.3418C66.5898 35.0645 66.6934 34.6738 66.6934 34.1699C66.6934 33.6855 66.5742 33.3145 66.3359 33.0566C66.0977 32.7988 65.7598 32.6699 65.3223 32.6699C64.9199 32.6699 64.5938 32.7754 64.3438 32.9863L64.1797 33.1387L62.832 32.8047ZM67.5898 58.7891H68.5566V60.1543H67.5898V62H65.8965V60.1543H62.3984L62.3223 59.0879L65.8789 53.4688H67.5898V58.7891ZM64.0098 58.7891H65.8965V55.7773L65.7852 55.9707L64.0098 58.7891ZM64.3027 81.9844H65.2051C65.6348 81.9844 65.9531 81.877 66.1602 81.6621C66.3672 81.4473 66.4707 81.1621 66.4707 80.8066C66.4707 80.4629 66.3672 80.1953 66.1602 80.0039C65.957 79.8125 65.6758 79.7168 65.3164 79.7168C64.9922 79.7168 64.7207 79.8066 64.502 79.9863C64.2832 80.1621 64.1738 80.3926 64.1738 80.6777H62.4805C62.4805 80.2324 62.5996 79.834 62.8379 79.4824C63.0801 79.127 63.416 78.8496 63.8457 78.6504C64.2793 78.4512 64.7559 78.3516 65.2754 78.3516C66.1777 78.3516 66.8848 78.5684 67.3965 79.002C67.9082 79.4316 68.1641 80.0254 68.1641 80.7832C68.1641 81.1738 68.0449 81.5332 67.8066 81.8613C67.5684 82.1895 67.2559 82.4414 66.8691 82.6172C67.3496 82.7891 67.707 83.0469 67.9414 83.3906C68.1797 83.7344 68.2988 84.1406 68.2988 84.6094C68.2988 85.3672 68.0215 85.9746 67.4668 86.4316C66.916 86.8887 66.1855 87.1172 65.2754 87.1172C64.4238 87.1172 63.7266 86.8926 63.1836 86.4434C62.6445 85.9941 62.375 85.4004 62.375 84.6621H64.0684C64.0684 84.9824 64.1875 85.2441 64.4258 85.4473C64.668 85.6504 64.9648 85.752 65.3164 85.752C65.7188 85.752 66.0332 85.6465 66.2598 85.4355C66.4902 85.2207 66.6055 84.9375 66.6055 84.5859C66.6055 83.7344 66.1367 83.3086 65.1992 83.3086H64.3027V81.9844ZM68.4277 112H62.5801V110.84L65.3398 107.898C65.7188 107.484 65.998 107.123 66.1777 106.814C66.3613 106.506 66.4531 106.213 66.4531 105.936C66.4531 105.557 66.3574 105.26 66.166 105.045C65.9746 104.826 65.7012 104.717 65.3457 104.717C64.9629 104.717 64.6602 104.85 64.4375 105.115C64.2188 105.377 64.1094 105.723 64.1094 106.152H62.4102C62.4102 105.633 62.5332 105.158 62.7793 104.729C63.0293 104.299 63.3809 103.963 63.834 103.721C64.2871 103.475 64.8008 103.352 65.375 103.352C66.2539 103.352 66.9355 103.562 67.4199 103.984C67.9082 104.406 68.1523 105.002 68.1523 105.771C68.1523 106.193 68.043 106.623 67.8242 107.061C67.6055 107.498 67.2305 108.008 66.6992 108.59L64.7598 110.635H68.4277V112ZM66.6934 137H65V130.473L62.9785 131.1V129.723L66.5117 128.457H66.6934V137Z" fill="#60347B"/>
<path d="M442.563 99V89.0469H446.05C447.257 89.0469 448.174 89.2793 448.798 89.7441C449.422 90.2044 449.734 90.8812 449.734 91.7744C449.734 92.262 449.609 92.6927 449.358 93.0664C449.108 93.4355 448.759 93.7067 448.312 93.8799C448.823 94.0075 449.224 94.265 449.516 94.6523C449.812 95.0397 449.96 95.5137 449.96 96.0742C449.96 97.0312 449.655 97.7559 449.044 98.248C448.433 98.7402 447.563 98.9909 446.433 99H442.563ZM444.614 94.666V97.3525H446.371C446.854 97.3525 447.23 97.2386 447.499 97.0107C447.772 96.7783 447.909 96.4593 447.909 96.0537C447.909 95.1423 447.438 94.6797 446.494 94.666H444.614ZM444.614 93.2168H446.132C447.166 93.1986 447.684 92.7861 447.684 91.9795C447.684 91.5283 447.551 91.2048 447.287 91.0088C447.027 90.8083 446.615 90.708 446.05 90.708H444.614V93.2168ZM457.124 96.9492H453.528L452.845 99H450.664L454.369 89.0469H456.27L459.995 99H457.814L457.124 96.9492ZM454.082 95.2881H456.57L455.319 91.5625L454.082 95.2881ZM464.938 89.0469H466.988V95.9375C466.988 96.571 466.847 97.1315 466.564 97.6191C466.286 98.1022 465.892 98.4759 465.382 98.7402C464.871 99.0046 464.295 99.1367 463.652 99.1367C462.6 99.1367 461.779 98.8701 461.191 98.3369C460.604 97.7992 460.31 97.0404 460.31 96.0605H462.374C462.374 96.5482 462.477 96.9082 462.682 97.1406C462.887 97.373 463.21 97.4893 463.652 97.4893C464.044 97.4893 464.356 97.3548 464.589 97.0859C464.821 96.8171 464.938 96.4342 464.938 95.9375V89.0469ZM474.214 96.9492H470.618L469.935 99H467.754L471.459 89.0469H473.359L477.085 99H474.904L474.214 96.9492ZM471.172 95.2881H473.66L472.409 91.5625L471.172 95.2881ZM489.314 95.6846C489.237 96.7555 488.84 97.5986 488.125 98.2139C487.414 98.8291 486.475 99.1367 485.309 99.1367C484.033 99.1367 483.028 98.7083 482.294 97.8516C481.565 96.9902 481.2 95.8099 481.2 94.3105V93.7021C481.2 92.7451 481.369 91.902 481.706 91.1729C482.043 90.4437 482.524 89.8854 483.148 89.498C483.777 89.1061 484.507 88.9102 485.336 88.9102C486.484 88.9102 487.41 89.2178 488.111 89.833C488.813 90.4482 489.219 91.3118 489.328 92.4238H487.277C487.227 91.7812 487.047 91.3164 486.737 91.0293C486.432 90.7376 485.965 90.5918 485.336 90.5918C484.652 90.5918 484.14 90.8379 483.798 91.3301C483.461 91.8177 483.287 92.5765 483.278 93.6064V94.3584C483.278 95.4339 483.44 96.2201 483.764 96.7168C484.092 97.2135 484.607 97.4619 485.309 97.4619C485.942 97.4619 486.414 97.3184 486.724 97.0312C487.038 96.7396 487.218 96.2907 487.264 95.6846H489.314ZM496.28 96.9492H492.685L492.001 99H489.82L493.525 89.0469H495.426L499.151 99H496.971L496.28 96.9492ZM493.238 95.2881H495.727L494.476 91.5625L493.238 95.2881ZM503.766 95.3564H502.132V99H500.081V89.0469H503.779C504.955 89.0469 505.862 89.3089 506.5 89.833C507.138 90.3571 507.457 91.0977 507.457 92.0547C507.457 92.7337 507.309 93.3011 507.013 93.7568C506.721 94.208 506.277 94.568 505.68 94.8369L507.833 98.9043V99H505.632L503.766 95.3564ZM502.132 93.6953H503.786C504.301 93.6953 504.7 93.5654 504.982 93.3057C505.265 93.0413 505.406 92.679 505.406 92.2188C505.406 91.7493 505.272 91.3802 505.003 91.1113C504.739 90.8424 504.331 90.708 503.779 90.708H502.132V93.6953ZM516.897 97.7422C516.528 98.1842 516.007 98.5283 515.332 98.7744C514.658 99.016 513.91 99.1367 513.09 99.1367C512.229 99.1367 511.472 98.9499 510.82 98.5762C510.173 98.1979 509.672 97.651 509.316 96.9355C508.965 96.2201 508.785 95.3792 508.776 94.4131V93.7363C508.776 92.7428 508.943 91.8838 509.275 91.1592C509.613 90.43 510.096 89.874 510.725 89.4912C511.358 89.1038 512.099 88.9102 512.946 88.9102C514.127 88.9102 515.049 89.1927 515.715 89.7578C516.38 90.3184 516.774 91.1364 516.897 92.2119H514.901C514.81 91.6423 514.607 91.2253 514.293 90.9609C513.983 90.6966 513.555 90.5645 513.008 90.5645C512.311 90.5645 511.78 90.8265 511.415 91.3506C511.05 91.8747 510.866 92.654 510.861 93.6885V94.3242C510.861 95.3678 511.06 96.1562 511.456 96.6895C511.853 97.2227 512.434 97.4893 513.199 97.4893C513.969 97.4893 514.519 97.3252 514.847 96.9971V95.2812H512.98V93.7705H516.897V97.7422ZM524.185 96.9492H520.589L519.905 99H517.725L521.43 89.0469H523.33L527.056 99H524.875L524.185 96.9492ZM521.143 95.2881H523.631L522.38 91.5625L521.143 95.2881ZM539.285 95.6846C539.208 96.7555 538.811 97.5986 538.096 98.2139C537.385 98.8291 536.446 99.1367 535.279 99.1367C534.003 99.1367 532.998 98.7083 532.265 97.8516C531.535 96.9902 531.171 95.8099 531.171 94.3105V93.7021C531.171 92.7451 531.34 91.902 531.677 91.1729C532.014 90.4437 532.495 89.8854 533.119 89.498C533.748 89.1061 534.477 88.9102 535.307 88.9102C536.455 88.9102 537.38 89.2178 538.082 89.833C538.784 90.4482 539.189 91.3118 539.299 92.4238H537.248C537.198 91.7812 537.018 91.3164 536.708 91.0293C536.403 90.7376 535.936 90.5918 535.307 90.5918C534.623 90.5918 534.11 90.8379 533.769 91.3301C533.431 91.8177 533.258 92.5765 533.249 93.6064V94.3584C533.249 95.4339 533.411 96.2201 533.734 96.7168C534.062 97.2135 534.577 97.4619 535.279 97.4619C535.913 97.4619 536.384 97.3184 536.694 97.0312C537.009 96.7396 537.189 96.2907 537.234 95.6846H539.285ZM546.62 94.6865H542.683V97.3525H547.304V99H540.632V89.0469H547.29V90.708H542.683V93.0801H546.62V94.6865ZM552.191 95.3564H550.558V99H548.507V89.0469H552.205C553.381 89.0469 554.288 89.3089 554.926 89.833C555.564 90.3571 555.883 91.0977 555.883 92.0547C555.883 92.7337 555.735 93.3011 555.438 93.7568C555.147 94.208 554.702 94.568 554.105 94.8369L556.259 98.9043V99H554.058L552.191 95.3564ZM550.558 93.6953H552.212C552.727 93.6953 553.126 93.5654 553.408 93.3057C553.691 93.0413 553.832 92.679 553.832 92.2188C553.832 91.7493 553.698 91.3802 553.429 91.1113C553.164 90.8424 552.757 90.708 552.205 90.708H550.558V93.6953ZM563.437 94.6865H559.499V97.3525H564.12V99H557.448V89.0469H564.106V90.708H559.499V93.0801H563.437V94.6865ZM565.323 99V89.0469H568.81C570.017 89.0469 570.933 89.2793 571.558 89.7441C572.182 90.2044 572.494 90.8812 572.494 91.7744C572.494 92.262 572.369 92.6927 572.118 93.0664C571.868 93.4355 571.519 93.7067 571.072 93.8799C571.583 94.0075 571.984 94.265 572.275 94.6523C572.572 95.0397 572.72 95.5137 572.72 96.0742C572.72 97.0312 572.414 97.7559 571.804 98.248C571.193 98.7402 570.323 98.9909 569.192 99H565.323ZM567.374 94.666V97.3525H569.131C569.614 97.3525 569.99 97.2386 570.259 97.0107C570.532 96.7783 570.669 96.4593 570.669 96.0537C570.669 95.1423 570.197 94.6797 569.254 94.666H567.374ZM567.374 93.2168H568.892C569.926 93.1986 570.443 92.7861 570.443 91.9795C570.443 91.5283 570.311 91.2048 570.047 91.0088C569.787 90.8083 569.375 90.708 568.81 90.708H567.374V93.2168ZM577.949 95.3564H576.315V99H574.265V89.0469H577.963C579.139 89.0469 580.046 89.3089 580.684 89.833C581.322 90.3571 581.641 91.0977 581.641 92.0547C581.641 92.7337 581.493 93.3011 581.196 93.7568C580.905 94.208 580.46 94.568 579.863 94.8369L582.017 98.9043V99H579.815L577.949 95.3564ZM576.315 93.6953H577.97C578.485 93.6953 578.883 93.5654 579.166 93.3057C579.449 93.0413 579.59 92.679 579.59 92.2188C579.59 91.7493 579.455 91.3802 579.187 91.1113C578.922 90.8424 578.514 90.708 577.963 90.708H576.315V93.6953ZM588.825 96.9492H585.229L584.546 99H582.365L586.07 89.0469H587.971L591.696 99H589.516L588.825 96.9492ZM585.783 95.2881H588.271L587.021 91.5625L585.783 95.2881ZM594.677 97.3525H599.031V99H592.626V89.0469H594.677V97.3525Z" fill="white"/>
</svg>
