<svg width="245" height="200" viewBox="0 0 245 200" fill="none" xmlns="http://www.w3.org/2000/svg">
<g clip-path="url(#clip0)">
<path opacity="0.27" d="M0.222979 142.871C0.222979 142.871 -4.60587 61.8607 30.6304 50.2943C65.8667 38.7279 80.1247 25.0814 85.3021 16.9438C90.4796 8.80621 118.961 -8.05189 143.088 4.49739C167.215 17.0467 165.29 37.4936 188.462 39.0937C211.635 40.6937 235.505 45.1169 235.505 65.0666C235.505 85.0163 244.351 128.584 244.351 128.584C244.351 128.584 45.1455 180.376 0.222979 142.871Z" fill="#A500FF"/>
<path d="M197.097 77.3872V92.5824L235.516 84.9991V73.5699C235.513 71.9318 235.141 70.3155 234.429 68.8404C233.717 67.3653 232.682 66.0691 231.402 65.0475C230.121 64.026 228.627 63.3053 227.031 62.9386C225.435 62.572 223.776 62.5688 222.178 62.9293L205.606 66.7066C203.184 67.2538 201.022 68.6102 199.475 70.5519C197.928 72.4936 197.089 74.9047 197.097 77.3872Z" fill="#A500FF"/>
<path d="M230.613 85.9821L227.093 100.177C227.093 100.177 218.647 115.961 204.097 110.166C189.548 104.372 200.314 88.6451 200.314 88.6451L230.613 85.9821Z" fill="#A500FF"/>
<path d="M218.184 130.425L216.475 110.166L220.407 107.4L221.327 134.208L218.184 135.225V130.425Z" fill="#A500FF"/>
<path d="M218.184 130.425L216.475 110.166L220.407 107.4L221.327 134.208L218.184 135.225V130.425Z" fill="url(#paint0_linear)"/>
<path d="M197.097 77.3872V92.5824L235.516 84.9991V73.5699C235.513 71.9318 235.141 70.3155 234.429 68.8404C233.717 67.3653 232.682 66.0691 231.402 65.0475C230.121 64.026 228.627 63.3053 227.031 62.9386C225.435 62.572 223.776 62.5688 222.178 62.9293L205.606 66.7066C203.184 67.2538 201.022 68.6102 199.475 70.5519C197.928 72.4936 197.089 74.9047 197.097 77.3872Z" fill="url(#paint1_linear)"/>
<path d="M230.613 85.9821L227.093 100.177C227.093 100.177 218.647 115.961 204.097 110.166C189.548 104.372 200.314 88.6451 200.314 88.6451L230.613 85.9821Z" fill="url(#paint2_linear)"/>
<path d="M105.646 86.7535L100.531 94.2225L93.0795 89.5308L89.1821 92.6339L100.131 100.954L109.183 97.4856L105.646 86.7535Z" fill="#A500FF"/>
<path opacity="0.25" d="M105.646 86.7535L100.531 94.2225L93.0795 89.5308L89.1821 92.6339L100.131 100.954L109.183 97.4856L105.646 86.7535Z" fill="url(#paint3_linear)"/>
<path d="M82.1133 83.7991C82.1133 83.7991 85.5421 83.5705 86.4278 84.3705C87.4042 85.4037 88.3237 86.4892 89.1823 87.6222L92.3882 90.2452L89.4394 91.9024L84.7991 88.7194L82.1133 83.7991Z" fill="url(#paint4_linear)"/>
<path d="M244.151 147.494C243.591 150.96 242.721 154.368 241.551 157.678C236.013 173.353 221.978 190.554 188.011 195.925C127.247 205.52 37.0362 200.211 7.42878 157.518C6.10892 155.613 4.90845 153.628 3.83429 151.574C2.37264 148.787 1.16392 145.874 0.222656 142.871C0.222656 142.871 13.2863 139.768 26.0527 141.237C38.8192 142.705 58.8374 137.379 72.9125 138.905C86.9876 140.431 104.697 140.288 104.697 140.288C104.697 140.288 202.931 131.51 221.315 134.213C239.699 136.916 244.339 128.584 244.339 128.584C245.276 134.858 245.212 141.24 244.151 147.494V147.494Z" fill="#A500FF"/>
<path d="M51.123 98.5656C51.123 98.5656 109.332 122.658 215.03 95.3026C215.03 95.3026 209.458 128.19 180.136 136.448C150.814 144.705 104.806 145.328 86.085 136.448C54.1175 121.27 51.123 98.5656 51.123 98.5656Z" fill="#A500FF"/>
<path opacity="0.25" d="M51.123 98.5656C51.123 98.5656 109.332 122.658 215.03 95.3026C215.03 95.3026 209.458 128.19 180.136 136.448C150.814 144.705 104.806 145.328 86.085 136.448C54.1175 121.27 51.123 98.5656 51.123 98.5656Z" fill="url(#paint5_linear)"/>
<path d="M51.123 98.5656L45.8599 95.7426V88.6451C45.8599 88.6451 51.7516 102.44 93.9826 102.44C108.029 102.44 119.23 103.777 133.133 102.44C178.079 98.1142 220.407 86.7535 220.407 86.7535L219.487 93.3996L215.03 95.3026C215.03 95.3026 96.1599 126.453 51.123 98.5656Z" fill="#A500FF"/>
<path opacity="0.25" d="M51.123 98.5656L45.8599 95.7426V88.6451C45.8599 88.6451 66.9525 103.126 109.183 103.126C168.644 103.126 220.407 86.7535 220.407 86.7535L219.487 93.3996L215.03 95.3026C215.03 95.3026 96.1599 126.453 51.123 98.5656Z" fill="url(#paint6_linear)"/>
<path d="M100.263 66.6553C100.263 66.6553 101.057 72.1356 100.263 72.9413C99.4683 73.7471 102.108 74.4329 102.394 75.8786C102.68 77.3244 104.6 78.3416 107.349 77.5587C108.119 77.3367 108.94 77.3748 109.686 77.6672C110.432 77.9596 111.061 78.4899 111.475 79.176C111.475 79.176 113.995 78.1016 115.258 76.6501C115.258 76.6501 113.463 70.2326 113.366 67.941C113.269 65.6495 104.966 61.1978 100.263 66.6553Z" fill="url(#paint7_linear)"/>
<path d="M99.0857 66.0438C99.5143 66.0438 117.904 70.7012 117.904 70.7012C117.904 70.7012 115.79 62.7007 116.481 58.9862C117.172 55.2717 105.623 53.9174 104.48 54.4145C103.337 54.9117 102.509 58.8719 100.423 59.8491C98.3371 60.8263 94.4512 65.0837 94.4512 65.0837L99.0857 66.0438Z" fill="#A500FF"/>
<path opacity="0.25" d="M117.91 70.7012C117.91 70.7012 99.5202 66.0438 99.0916 66.0438L94.4399 65.0666L94.5485 64.9466L96.2229 65.3009C96.6515 65.3009 115.041 69.9583 115.041 69.9583C115.041 69.9583 112.927 61.9578 113.618 58.2433C113.904 56.7118 112.104 55.586 109.812 54.8146C113.241 55.4889 116.887 56.8433 116.487 58.9862C115.795 62.695 117.91 70.7012 117.91 70.7012Z" fill="url(#paint8_linear)"/>
<path d="M94.4396 65.0666C94.4396 65.0666 92.5195 65.8609 100.383 67.5982C100.383 67.5982 99.9828 66.4952 100.531 66.3638L94.4396 65.0666Z" fill="#A500FF"/>
<path d="M117.909 70.7012C117.909 70.7012 118.727 71.4155 116.801 71.5927C115.868 71.7184 114.922 71.7184 113.989 71.5927L113.583 69.604L117.909 70.7012Z" fill="#A500FF"/>
<path d="M94.4396 65.0666C94.4396 65.0666 92.5195 65.8609 100.383 67.5982C100.383 67.5982 99.9828 66.4952 100.531 66.3638L94.4396 65.0666Z" fill="url(#paint9_linear)"/>
<path d="M117.909 70.7012C117.909 70.7012 118.727 71.4155 116.801 71.5927C115.868 71.7184 114.922 71.7184 113.989 71.5927L113.583 69.604L117.909 70.7012Z" fill="url(#paint10_linear)"/>
<path d="M109.184 68.501L109.366 70.8269C109.366 70.8269 110.069 68.9925 111.081 69.604C112.092 70.2154 110.138 72.8899 110.138 72.8899L112.755 74.2957L113.384 73.9356L114.378 74.2957L114.744 73.9356L115.058 73.3299C115.058 73.3299 113.967 71.2212 114.087 70.7012C114.159 70.3934 114.203 70.0797 114.218 69.764L109.184 68.501Z" fill="#232E30"/>
<path d="M115.258 76.6215C115.258 76.6215 106.898 80.3646 106.115 82.3761C105.332 84.3877 104.732 103.074 104.732 103.074L133.151 102.44C133.151 102.44 130.253 80.336 115.258 76.6215Z" fill="#A500FF"/>
<path d="M116.486 78.1187L111.692 81.0217C111.692 81.0217 106.692 89.7079 106.177 91.7309C105.663 93.7539 105.497 101.794 105.497 101.794L103.829 98.4627C103.829 98.4627 104.663 90.5366 105.663 88.3536C106.914 85.6844 108.418 83.1412 110.155 80.7589C111.475 79.1473 112.641 77.7415 112.641 77.7415L115.835 75.6443L116.904 77.1187L116.486 78.1187Z" fill="#A500FF"/>
<path opacity="0.25" d="M116.486 78.1187L111.692 81.0217C111.692 81.0217 106.692 89.7079 106.177 91.7309C105.663 93.7539 105.497 101.794 105.497 101.794L103.829 98.4627C103.829 98.4627 104.663 90.5366 105.663 88.3536C106.914 85.6844 108.418 83.1412 110.155 80.7589C111.475 79.1473 112.641 77.7415 112.641 77.7415L115.835 75.6443L116.904 77.1187L116.486 78.1187Z" fill="url(#paint11_linear)"/>
<path d="M116.041 81.0217C116.041 81.0217 109.818 89.3251 109.475 93.2167C109.132 97.1084 103.04 98.7085 103.04 98.7085L91.794 91.9309L87.731 97.1084L93.9827 102.44H113.372C113.372 102.44 121.156 94.2225 121.47 91.7309C121.784 89.2393 122.676 82.4104 116.041 81.0217Z" fill="#A500FF"/>
<path opacity="0.25" d="M121.464 91.7309C121.15 94.2225 117.91 102.017 117.91 102.017L93.9827 102.463L87.731 97.1541L88.611 96.0112L91.794 91.9538L103.04 98.7313C103.04 98.7313 109.126 97.1312 109.475 93.2396C109.824 89.3479 116.041 81.0446 116.041 81.0446C119.013 81.6675 120.47 83.3819 121.15 85.302C121.99 87.6564 121.641 90.3537 121.464 91.7309Z" fill="url(#paint12_linear)"/>
<path d="M120.99 89.5137C120.67 92.0053 110.132 102.252 110.132 102.252L96.7657 102.423L88.6167 95.9712L91.7997 91.9138L103.046 98.6914C103.046 98.6914 109.132 97.0913 109.481 93.1996C109.829 89.308 116.047 81.0046 116.047 81.0046C119.018 81.6275 120.476 83.3419 121.156 85.262C121.258 86.681 121.202 88.107 120.99 89.5137Z" fill="#A500FF"/>
<path d="M91.0507 92.371C91.0507 92.371 88.2391 89.268 87.7305 87.4221C87.2219 85.5763 84.1646 85.2392 83.9703 84.9991C83.776 84.7591 79.9701 84.7077 79.9701 84.7077C79.9701 84.7077 79.53 84.9477 79.4386 86.1649C79.3472 87.3821 80.1643 90.1252 81.5244 91.7595C82.8845 93.3939 85.6961 93.5368 85.839 93.5368C85.9818 93.5368 88.3934 96.2627 88.3934 96.2627C88.3934 96.2627 91.7822 94.234 91.0507 92.371Z" fill="url(#paint13_linear)"/>
<path d="M82.5589 84.7649C82.5589 84.7649 77.7186 71.5927 53.3172 65.7238C28.9158 59.8549 13.6807 66.3524 13.6807 66.3524C13.6807 66.3524 35.3962 61.5121 57.1917 67.8667C76.2957 73.4328 80.8445 84.7306 80.8445 84.7306L82.5589 84.7649Z" fill="#A500FF"/>
<path d="M13.6807 66.3295L14.6121 145.334H15.3836L14.0235 66.2609C14.0235 66.2609 13.9378 66.0152 13.6807 66.3295Z" fill="#A500FF"/>
<path opacity="0.25" d="M123.641 101.994L124.453 102.063L105.823 102.44L105.783 102.354L123.641 101.994Z" fill="url(#paint14_linear)"/>
<path opacity="0.25" d="M133.151 102.44L128.916 102.086C128.607 99.9486 126.527 88.4622 117.213 79.5131L113.149 77.3473C114.007 76.7156 114.906 76.1429 115.841 75.6329L116.91 77.1072L121.378 79.5131C131.693 89.4222 133.151 102.44 133.151 102.44Z" fill="url(#paint15_linear)"/>
<path opacity="0.25" d="M128.951 102.44L124.453 102.063L127.825 101.994L128.899 102.086C128.939 102.297 128.951 102.44 128.951 102.44Z" fill="url(#paint16_linear)"/>
<path d="M211.389 105.755C211.389 105.755 210.966 107.138 210.246 109.081C208.681 113.252 205.675 120.013 202.36 121.31C202.36 121.31 129.139 144.603 72.6957 128.573C72.6957 128.573 62.4094 121.298 58.0205 114.755C57.2728 113.697 56.6944 112.528 56.3062 111.292C56.3062 111.292 106.972 126.23 183.091 113.698L211.389 105.755Z" fill="#A500FF"/>
<path opacity="0.25" d="M210.235 109.081C208.669 113.252 205.663 120.013 202.349 121.31C202.349 121.31 129.128 144.603 72.6844 128.573C72.6844 128.573 62.3981 121.298 58.0093 114.755C67.4498 117.178 115.155 127.899 183.091 116.704L210.235 109.081Z" fill="url(#paint17_linear)"/>
<path d="M109.532 71.5926C109.532 71.5926 110.063 71.4898 110.046 71.0783C110.029 70.6669 110.418 69.8097 110.675 69.9811C110.932 70.1525 110.84 71.6498 110.006 72.1927C109.172 72.7356 109.532 71.5926 109.532 71.5926Z" fill="url(#paint18_linear)"/>
<path opacity="0.25" d="M244.151 147.494C241.294 165.021 229.619 189.348 187.999 195.925C124.527 205.955 28.9161 199.708 3.82324 151.557C4.78832 151.384 5.76964 151.319 6.74912 151.363C9.66929 151.477 12.8466 151.986 15.321 150.42C16.7668 149.5 17.7498 147.98 19.1898 147.048C22.0071 145.225 25.6816 146.094 28.9904 146.643C46.54 149.569 64.9924 141.722 82.0734 146.705C84.525 147.426 86.9137 148.42 89.4453 148.751C92.2626 149.146 95.1199 148.751 97.9372 148.368C113.904 146.22 130.425 144.723 145.883 149.231C154.872 151.849 164.912 156.363 172.976 151.614C174.816 150.529 176.376 149.026 178.119 147.808C181.713 145.311 186.011 144.065 190.217 142.865C199.177 140.345 209.201 136.899 218.647 137.619C225.824 138.191 233.219 142.991 239.877 145.62C241.288 146.185 242.734 146.803 244.151 147.494Z" fill="url(#paint19_linear)"/>
<path opacity="0.25" d="M241.551 157.678C236.014 173.353 221.979 190.554 188.011 195.925C127.247 205.52 37.0366 200.211 7.4292 157.518C23.4301 158.506 40.0025 152.512 55.4834 157.02C57.9349 157.74 60.3236 158.735 62.8552 159.066C65.6725 159.461 68.5298 159.066 71.3471 158.683C87.3138 156.535 103.835 155.037 119.293 159.546C128.282 162.164 138.322 166.678 146.386 161.929C148.226 160.843 149.786 159.341 151.529 158.123C155.123 155.626 159.421 154.38 163.627 153.18C172.587 150.66 182.611 147.214 192.057 147.934C199.234 148.506 206.629 153.306 213.287 155.935C214.121 156.26 229.219 156.992 241.551 157.678Z" fill="url(#paint20_linear)"/>
<path d="M240.539 126.373C238.688 126.441 236.99 127.384 235.396 128.344C233.802 129.305 232.19 130.327 230.35 130.579C226.824 131.07 223.493 128.63 219.915 128.704C216.572 128.779 213.561 131.059 210.2 131.036C208.32 131.036 206.497 130.276 204.617 130.339C202.251 130.413 199.965 131.767 197.628 131.35C196.84 131.213 196.097 130.87 195.314 130.699C191.788 129.922 188.502 132.55 185.027 133.476C182.056 134.259 178.907 133.79 175.833 133.962C169.295 134.322 163.289 137.562 156.9 138.985C152.3 140.014 147.557 140.094 142.848 140.208C142.184 140.153 141.521 140.32 140.962 140.682C140.128 141.368 140.316 142.791 141.076 143.54C141.906 144.248 142.952 144.651 144.042 144.683C149.477 145.254 154.814 143.322 160.157 142.174C162.66 141.631 165.192 141.259 167.724 140.894L175.993 139.694C185.302 138.356 194.742 137.031 204.08 138.128C207.394 138.516 210.692 139.208 214.029 139.174C219.572 139.111 224.978 137.036 230.522 137.242C232.59 137.322 234.647 137.716 236.716 137.694C238.785 137.671 240.968 137.122 242.431 135.682C245.242 132.87 246.054 126.167 240.539 126.373Z" fill="#A500FF"/>
<path opacity="0.25" d="M242.442 135.659C240.974 137.122 238.791 137.642 236.728 137.671C234.665 137.699 232.602 137.299 230.533 137.219C226.367 137.065 222.276 138.202 218.144 138.797C216.786 139.006 215.415 139.124 214.041 139.151C210.703 139.185 207.406 138.494 204.092 138.105C194.754 137.008 185.313 138.334 176.004 139.671L167.735 140.871L167.387 140.922C164.975 141.271 162.569 141.637 160.186 142.151C154.843 143.294 149.506 145.231 144.071 144.66C143.355 144.607 142.652 144.437 141.991 144.157C141.664 144.003 141.365 143.797 141.105 143.545C140.345 142.791 140.157 141.368 140.991 140.688C141.55 140.326 142.213 140.159 142.877 140.214C147.586 140.099 152.329 140.019 156.929 138.991C162.375 137.779 167.541 135.248 172.993 134.305C173.938 134.135 174.892 134.023 175.85 133.968C176.422 133.933 176.993 133.928 177.564 133.928C179.556 134.013 181.551 133.963 183.536 133.779C184.049 133.711 184.556 133.612 185.056 133.482C188.554 132.556 191.84 129.927 195.343 130.705C196.125 130.876 196.868 131.219 197.657 131.356C199.994 131.773 202.28 130.419 204.646 130.345C206.526 130.282 208.349 131.03 210.229 131.042C210.895 131.04 211.558 130.963 212.206 130.813C213.64 130.424 215.054 129.962 216.441 129.43C217.56 129.014 218.735 128.772 219.927 128.71C223.487 128.636 226.836 131.076 230.362 130.585C232.202 130.333 233.825 129.31 235.408 128.35C236.991 127.39 238.688 126.447 240.551 126.379C246.054 126.167 245.243 132.87 242.442 135.659Z" fill="url(#paint21_linear)"/>
<path opacity="0.25" d="M218.224 138.716L218.138 138.796C216.78 139.006 215.409 139.124 214.035 139.151C210.698 139.185 207.4 138.494 204.086 138.105C194.748 137.008 185.308 138.334 175.998 139.671L167.729 140.871L167.381 140.922C162.175 141.242 156.969 141.985 151.803 142.728C149.043 143.128 146.288 143.522 143.534 143.928L141.985 144.157C141.658 144.003 141.359 143.797 141.099 143.545C140.339 142.791 140.151 141.368 140.985 140.688C141.544 140.326 142.207 140.159 142.871 140.214C147.58 140.099 152.323 140.019 156.923 138.991C162.369 137.779 167.535 135.248 172.987 134.305C173.143 134.35 173.301 134.386 173.461 134.413C174.833 134.659 176.193 134.293 177.559 133.928C178.499 133.642 179.469 133.464 180.45 133.396C181.488 133.406 182.522 133.535 183.53 133.779C184.351 133.962 185.187 134.07 186.028 134.099C189.371 134.099 192.388 131.813 195.742 131.768C199.297 131.688 202.651 134.128 206.177 133.642C208.012 133.39 209.606 132.368 211.218 131.407C211.549 131.207 211.892 131.002 212.235 130.836C213.476 130.053 214.887 129.579 216.349 129.453H216.469C221.83 129.316 221.007 135.945 218.224 138.716Z" fill="white"/>
<path d="M92.3882 100.943L132.556 99.4L133.128 102.429L123.224 102.954L111.435 103.103H103.435L93.954 102.457L92.3882 100.943Z" fill="url(#paint22_linear)"/>
</g>
<defs>
<linearGradient id="paint0_linear" x1="216.475" y1="121.31" x2="221.327" y2="121.31" gradientUnits="userSpaceOnUse">
<stop stop-opacity="0"/>
<stop offset="0.91" stop-opacity="0.8"/>
<stop offset="1"/>
</linearGradient>
<linearGradient id="paint1_linear" x1="16336.2" y1="-5513.85" x2="12600.4" y2="-3828.05" gradientUnits="userSpaceOnUse">
<stop stop-opacity="0"/>
<stop offset="0.91" stop-opacity="0.8"/>
<stop offset="1"/>
</linearGradient>
<linearGradient id="paint2_linear" x1="14073.2" y1="-3317.77" x2="13131.6" y2="-3437.26" gradientUnits="userSpaceOnUse">
<stop stop-opacity="0"/>
<stop offset="0.91" stop-opacity="0.8"/>
<stop offset="1"/>
</linearGradient>
<linearGradient id="paint3_linear" x1="3581.38" y1="2749.83" x2="3562.13" y2="2596.99" gradientUnits="userSpaceOnUse">
<stop stop-opacity="0"/>
<stop offset="0.91" stop-opacity="0.8"/>
<stop offset="1"/>
</linearGradient>
<linearGradient id="paint4_linear" x1="88.0622" y1="85.4963" x2="83.2733" y2="94.5083" gradientUnits="userSpaceOnUse">
<stop stop-color="#ECC4D7"/>
<stop offset="0.42" stop-color="#EFD4D1"/>
<stop offset="1" stop-color="#F2EAC9"/>
</linearGradient>
<linearGradient id="paint5_linear" x1="14650.5" y1="-4688.23" x2="61662.2" y2="-4688.23" gradientUnits="userSpaceOnUse">
<stop stop-opacity="0"/>
<stop offset="0.91" stop-opacity="0.8"/>
<stop offset="1"/>
</linearGradient>
<linearGradient id="paint6_linear" x1="40637" y1="-3460.57" x2="40638.2" y2="-2607.99" gradientUnits="userSpaceOnUse">
<stop stop-opacity="0"/>
<stop offset="0.91" stop-opacity="0.8"/>
<stop offset="1"/>
</linearGradient>
<linearGradient id="paint7_linear" x1="3017.36" y1="2859.35" x2="2863.85" y2="2803.88" gradientUnits="userSpaceOnUse">
<stop stop-color="#ECC4D7"/>
<stop offset="0.42" stop-color="#EFD4D1"/>
<stop offset="1" stop-color="#F2EAC9"/>
</linearGradient>
<linearGradient id="paint8_linear" x1="3964.15" y1="-3037.01" x2="4928.06" y2="-3037.01" gradientUnits="userSpaceOnUse">
<stop stop-opacity="0"/>
<stop offset="0.91" stop-opacity="0.8"/>
<stop offset="1"/>
</linearGradient>
<linearGradient id="paint9_linear" x1="1173.58" y1="-384.62" x2="1170.43" y2="-365.463" gradientUnits="userSpaceOnUse">
<stop stop-opacity="0"/>
<stop offset="0.91" stop-opacity="0.8"/>
<stop offset="1"/>
</linearGradient>
<linearGradient id="paint10_linear" x1="1023.83" y1="-285.719" x2="1023.83" y2="-271.638" gradientUnits="userSpaceOnUse">
<stop stop-opacity="0"/>
<stop offset="0.91" stop-opacity="0.8"/>
<stop offset="1"/>
</linearGradient>
<linearGradient id="paint11_linear" x1="2460.57" y1="-4441.79" x2="2839.51" y2="-4148.63" gradientUnits="userSpaceOnUse">
<stop stop-opacity="0"/>
<stop offset="0.91" stop-opacity="0.8"/>
<stop offset="1"/>
</linearGradient>
<linearGradient id="paint12_linear" x1="5895.75" y1="-3535.5" x2="6426.96" y2="-2027.84" gradientUnits="userSpaceOnUse">
<stop stop-opacity="0"/>
<stop offset="0.91" stop-opacity="0.8"/>
<stop offset="1"/>
</linearGradient>
<linearGradient id="paint13_linear" x1="1756.92" y1="1808.24" x2="1862.28" y2="1840.04" gradientUnits="userSpaceOnUse">
<stop stop-color="#ECC4D7"/>
<stop offset="0.42" stop-color="#EFD4D1"/>
<stop offset="1" stop-color="#F2EAC9"/>
</linearGradient>
<linearGradient id="paint14_linear" x1="3561.72" y1="177.388" x2="4171.66" y2="177.388" gradientUnits="userSpaceOnUse">
<stop stop-opacity="0"/>
<stop offset="0.91" stop-opacity="0.8"/>
<stop offset="1"/>
</linearGradient>
<linearGradient id="paint15_linear" x1="4065.6" y1="-3996.2" x2="4765.24" y2="-3996.2" gradientUnits="userSpaceOnUse">
<stop stop-opacity="0"/>
<stop offset="0.91" stop-opacity="0.8"/>
<stop offset="1"/>
</linearGradient>
<linearGradient id="paint16_linear" x1="1102.36" y1="16.542" x2="1137.76" y2="16.542" gradientUnits="userSpaceOnUse">
<stop stop-opacity="0"/>
<stop offset="0.91" stop-opacity="0.8"/>
<stop offset="1"/>
</linearGradient>
<linearGradient id="paint17_linear" x1="35443.1" y1="-2463.3" x2="35416.9" y2="-1428.62" gradientUnits="userSpaceOnUse">
<stop stop-opacity="0"/>
<stop offset="0.91" stop-opacity="0.8"/>
<stop offset="1"/>
</linearGradient>
<linearGradient id="paint18_linear" x1="371.07" y1="-331.942" x2="359.724" y2="-331.805" gradientUnits="userSpaceOnUse">
<stop stop-opacity="0"/>
<stop offset="0.91" stop-opacity="0.8"/>
<stop offset="1"/>
</linearGradient>
<linearGradient id="paint19_linear" x1="1518.11" y1="-793.941" x2="102588" y2="-793.941" gradientUnits="userSpaceOnUse">
<stop stop-opacity="0"/>
<stop offset="0.91" stop-opacity="0.8"/>
<stop offset="1"/>
</linearGradient>
<linearGradient id="paint20_linear" x1="50620.1" y1="-5093.93" x2="50659.4" y2="4029.2" gradientUnits="userSpaceOnUse">
<stop stop-opacity="0"/>
<stop offset="0.91" stop-opacity="0.8"/>
<stop offset="1"/>
</linearGradient>
<linearGradient id="paint21_linear" x1="34955.2" y1="-1447.78" x2="34972.4" y2="-1003.38" gradientUnits="userSpaceOnUse">
<stop stop-opacity="0"/>
<stop offset="0.91" stop-opacity="0.8"/>
<stop offset="1"/>
</linearGradient>
<linearGradient id="paint22_linear" x1="8114.62" y1="-414.01" x2="8114.66" y2="-375.271" gradientUnits="userSpaceOnUse">
<stop stop-opacity="0"/>
<stop offset="0.91" stop-opacity="0.8"/>
<stop offset="1"/>
</linearGradient>
<clipPath id="clip0">
<rect width="244.997" height="200" fill="white"/>
</clipPath>
</defs>
</svg>
