<svg width="600" height="335" viewBox="0 0 600 335" fill="none" xmlns="http://www.w3.org/2000/svg">
<path d="M57 44.5H440C444.142 44.5 447.5 47.8579 447.5 52V299.5H49.5V52C49.5 47.8579 52.8579 44.5 57 44.5Z" fill="white" stroke="black" stroke-width="15"/>
<path d="M95.3271 163.592H91.2139V175H89.5352V163.592H85.4307V162.203H95.3271V163.592ZM101.998 174.06C101.365 174.804 100.437 175.176 99.2119 175.176C98.1982 175.176 97.4248 174.883 96.8916 174.297C96.3643 173.705 96.0977 172.832 96.0918 171.678V165.49H97.7178V171.634C97.7178 173.075 98.3037 173.796 99.4756 173.796C100.718 173.796 101.544 173.333 101.954 172.407V165.49H103.58V175H102.033L101.998 174.06ZM116.061 172.478C116.061 172.038 115.894 171.698 115.56 171.458C115.231 171.212 114.654 171.001 113.828 170.825C113.008 170.649 112.354 170.438 111.868 170.192C111.388 169.946 111.03 169.653 110.796 169.313C110.567 168.974 110.453 168.569 110.453 168.101C110.453 167.321 110.781 166.662 111.438 166.123C112.1 165.584 112.943 165.314 113.969 165.314C115.047 165.314 115.92 165.593 116.588 166.149C117.262 166.706 117.599 167.418 117.599 168.285H115.964C115.964 167.84 115.773 167.456 115.393 167.134C115.018 166.812 114.543 166.65 113.969 166.65C113.377 166.65 112.914 166.779 112.58 167.037C112.246 167.295 112.079 167.632 112.079 168.048C112.079 168.44 112.234 168.736 112.545 168.936C112.855 169.135 113.415 169.325 114.224 169.507C115.038 169.688 115.697 169.905 116.201 170.157C116.705 170.409 117.077 170.714 117.317 171.071C117.563 171.423 117.687 171.854 117.687 172.363C117.687 173.213 117.347 173.896 116.667 174.411C115.987 174.921 115.105 175.176 114.021 175.176C113.26 175.176 112.586 175.041 112 174.771C111.414 174.502 110.954 174.127 110.62 173.646C110.292 173.16 110.128 172.636 110.128 172.073H111.754C111.783 172.618 112 173.052 112.404 173.374C112.814 173.69 113.354 173.849 114.021 173.849C114.637 173.849 115.129 173.726 115.498 173.479C115.873 173.228 116.061 172.894 116.061 172.478ZM121.571 175H119.945V165.49H121.571V175ZM119.813 162.968C119.813 162.704 119.893 162.481 120.051 162.3C120.215 162.118 120.455 162.027 120.771 162.027C121.088 162.027 121.328 162.118 121.492 162.3C121.656 162.481 121.738 162.704 121.738 162.968C121.738 163.231 121.656 163.451 121.492 163.627C121.328 163.803 121.088 163.891 120.771 163.891C120.455 163.891 120.215 163.803 120.051 163.627C119.893 163.451 119.813 163.231 119.813 162.968ZM126.388 163.188V165.49H128.163V166.747H126.388V172.645C126.388 173.025 126.467 173.312 126.625 173.506C126.783 173.693 127.053 173.787 127.434 173.787C127.621 173.787 127.879 173.752 128.207 173.682V175C127.779 175.117 127.363 175.176 126.959 175.176C126.232 175.176 125.685 174.956 125.315 174.517C124.946 174.077 124.762 173.453 124.762 172.645V166.747H123.03V165.49H124.762V163.188H126.388ZM131.837 175H130.211V165.49H131.837V175ZM130.079 162.968C130.079 162.704 130.158 162.481 130.316 162.3C130.48 162.118 130.721 162.027 131.037 162.027C131.354 162.027 131.594 162.118 131.758 162.3C131.922 162.481 132.004 162.704 132.004 162.968C132.004 163.231 131.922 163.451 131.758 163.627C131.594 163.803 131.354 163.891 131.037 163.891C130.721 163.891 130.48 163.803 130.316 163.627C130.158 163.451 130.079 163.231 130.079 162.968ZM134.017 170.157C134.017 169.226 134.198 168.388 134.562 167.644C134.931 166.899 135.44 166.325 136.091 165.921C136.747 165.517 137.494 165.314 138.332 165.314C139.627 165.314 140.673 165.763 141.47 166.659C142.272 167.556 142.674 168.748 142.674 170.236V170.351C142.674 171.276 142.495 172.108 142.138 172.847C141.786 173.579 141.279 174.15 140.617 174.561C139.961 174.971 139.205 175.176 138.35 175.176C137.061 175.176 136.015 174.728 135.212 173.831C134.415 172.935 134.017 171.748 134.017 170.271V170.157ZM135.651 170.351C135.651 171.405 135.895 172.252 136.381 172.891C136.873 173.529 137.529 173.849 138.35 173.849C139.176 173.849 139.832 173.526 140.318 172.882C140.805 172.231 141.048 171.323 141.048 170.157C141.048 169.114 140.799 168.271 140.301 167.626C139.809 166.976 139.152 166.65 138.332 166.65C137.529 166.65 136.882 166.97 136.39 167.608C135.897 168.247 135.651 169.161 135.651 170.351ZM157.598 172.759L159.426 165.49H161.052L158.283 175H156.965L154.653 167.793L152.403 175H151.085L148.325 165.49H149.942L151.814 172.609L154.029 165.49H155.339L157.598 172.759ZM166.659 175.176C165.37 175.176 164.321 174.754 163.513 173.91C162.704 173.061 162.3 171.927 162.3 170.509V170.21C162.3 169.267 162.479 168.426 162.836 167.688C163.199 166.943 163.703 166.363 164.348 165.947C164.998 165.525 165.701 165.314 166.457 165.314C167.693 165.314 168.654 165.722 169.34 166.536C170.025 167.351 170.368 168.517 170.368 170.034V170.711H163.926C163.949 171.648 164.222 172.407 164.743 172.987C165.271 173.562 165.938 173.849 166.747 173.849C167.321 173.849 167.808 173.731 168.206 173.497C168.604 173.263 168.953 172.952 169.252 172.565L170.245 173.339C169.448 174.563 168.253 175.176 166.659 175.176ZM166.457 166.65C165.801 166.65 165.25 166.891 164.805 167.371C164.359 167.846 164.084 168.514 163.979 169.375H168.742V169.252C168.695 168.426 168.473 167.787 168.074 167.336C167.676 166.879 167.137 166.65 166.457 166.65ZM180.309 170.351C180.309 171.804 179.975 172.973 179.307 173.857C178.639 174.736 177.742 175.176 176.617 175.176C175.416 175.176 174.487 174.751 173.831 173.901L173.752 175H172.258V161.5H173.884V166.536C174.54 165.722 175.445 165.314 176.6 165.314C177.754 165.314 178.659 165.751 179.315 166.624C179.978 167.497 180.309 168.692 180.309 170.21V170.351ZM178.683 170.166C178.683 169.059 178.469 168.203 178.041 167.6C177.613 166.996 176.998 166.694 176.195 166.694C175.123 166.694 174.353 167.192 173.884 168.188V172.302C174.382 173.298 175.158 173.796 176.213 173.796C176.992 173.796 177.599 173.494 178.032 172.891C178.466 172.287 178.683 171.379 178.683 170.166Z" fill="#C4C4C4"/>
<path d="M0 312C0 309.239 2.23858 307 5 307H491C493.761 307 496 309.239 496 312V315H0V312Z" fill="#E5E5E5"/>
<path d="M0 315H496V319C496 324.523 491.523 329 486 329H9.99999C4.47714 329 0 324.523 0 319V315Z" fill="#C4C4C4"/>
<path d="M430.884 58.3664C431.372 58.8545 431.372 59.646 430.884 60.1341C430.396 60.6223 429.604 60.6223 429.116 60.1341C428.628 59.646 428.628 58.8545 429.116 58.3664C429.604 57.8782 430.396 57.8782 430.884 58.3664Z" fill="#97A3AF"/>
<path d="M430.884 62.1162C431.372 62.6044 431.372 63.3958 430.884 63.884C430.396 64.3721 429.604 64.3721 429.116 63.884C428.628 63.3958 428.628 62.6044 429.116 62.1162C429.604 61.6281 430.396 61.6281 430.884 62.1162" fill="#97A3AF"/>
<path d="M430.884 65.8661C431.372 66.3543 431.372 67.1457 430.884 67.6339C430.396 68.122 429.604 68.122 429.116 67.6339C428.628 67.1457 428.628 66.3543 429.116 65.8661C429.604 65.378 430.396 65.378 430.884 65.8661" fill="#97A3AF"/>
<rect x="81" y="58" width="339" height="10" fill="#F5F5F5"/>
<g clip-path="url(#clip0)">
<path d="M75 62.2858H67.8571L70.3572 59.7858L69.2857 58.7144L65 63.0001L69.2857 67.2858L70.3571 66.2143L67.8571 63.7143H75V62.2858Z" fill="#97A3AF"/>
</g>
<g filter="url(#filter0_d)">
<circle cx="328" cy="150" r="150" fill="white"/>
<circle cx="328" cy="150" r="145" stroke="#2A94F4" stroke-opacity="0.3" stroke-width="10"/>
<circle cx="370.694" cy="237.694" r="25.5511" fill="#0F8DFF"/>
<path d="M387.562 248.673L394.737 260.65H380.388L387.562 248.673Z" fill="#0F8DFF"/>
<g clip-path="url(#clip1)">
<path d="M370.054 224.076L366.612 224.683C366.137 224.767 365.815 225.193 365.893 225.636C365.971 226.079 366.419 226.369 366.895 226.285L370.337 225.678C370.812 225.594 371.134 225.168 371.056 224.726C370.978 224.283 370.53 223.992 370.054 224.076Z" fill="white"/>
<path d="M374.36 220.564L361.543 222.824C359.776 223.135 358.592 224.826 358.903 226.593L363.423 252.228C363.735 253.994 365.426 255.179 367.193 254.867L380.01 252.607C381.777 252.296 382.961 250.604 382.65 248.838L378.129 223.203C377.818 221.436 376.127 220.252 374.36 220.564ZM381.047 249.12C381.203 250.005 380.613 250.849 379.728 251.005L366.91 253.265C366.025 253.421 365.182 252.83 365.026 251.945L360.506 226.311C360.35 225.426 360.94 224.582 361.825 224.426L374.643 222.166C375.528 222.01 376.371 222.6 376.527 223.485L381.047 249.12Z" fill="white"/>
<rect x="360.053" y="232.418" width="14.9714" height="9.38206" transform="rotate(43 360.053 232.418)" fill="#0F8DFF"/>
<rect x="371.62" y="233.846" width="14.9714" height="9.38206" transform="rotate(-43 371.62 233.846)" fill="#0F8DFF"/>
</g>
<path d="M384.132 232.208L369.018 247.321C367.899 248.44 366.084 248.44 364.964 247.321L357.162 239.518C356.042 238.399 356.042 236.583 357.162 235.464C358.282 234.344 360.097 234.344 361.216 235.463L366.992 241.239L380.077 228.153C381.197 227.034 383.012 227.035 384.131 228.153C385.251 229.273 385.251 231.088 384.132 232.208Z" fill="white"/>
<path d="M384.132 232.208L369.018 247.321C367.899 248.44 366.084 248.44 364.964 247.321L357.162 239.518C356.042 238.399 356.042 236.583 357.162 235.464C358.282 234.344 360.097 234.344 361.216 235.463L366.992 241.239L380.077 228.153C381.197 227.034 383.012 227.035 384.131 228.153C385.251 229.273 385.251 231.088 384.132 232.208Z" stroke="#0F8DFF"/>
<g filter="url(#filter1_d)">
<path d="M363.357 230.357L387.482 209.464H339.232L363.357 230.357Z" fill="white"/>
<rect x="235.857" y="61.0714" width="180" height="148.929" rx="15" fill="white"/>
</g>
<path d="M265.446 93.2283H262.982V95.2439H265.845V95.8572H262.232V90.1697H265.806V90.7869H262.982V92.615H265.446V93.2283ZM269.126 94.7361C269.126 94.5408 269.052 94.3897 268.903 94.283C268.758 94.1736 268.501 94.0798 268.134 94.0017C267.769 93.9236 267.479 93.8298 267.263 93.7205C267.049 93.6111 266.89 93.4809 266.786 93.3298C266.685 93.1788 266.634 92.9991 266.634 92.7908C266.634 92.4444 266.78 92.1514 267.071 91.9119C267.366 91.6723 267.741 91.5525 268.196 91.5525C268.676 91.5525 269.064 91.6762 269.36 91.9236C269.66 92.171 269.81 92.4874 269.81 92.8728H269.083C269.083 92.6749 268.998 92.5043 268.829 92.3611C268.663 92.2179 268.452 92.1462 268.196 92.1462C267.933 92.1462 267.728 92.2035 267.579 92.3181C267.431 92.4327 267.357 92.5824 267.357 92.7673C267.357 92.9418 267.426 93.0733 267.564 93.1619C267.702 93.2504 267.95 93.335 268.31 93.4158C268.672 93.4965 268.965 93.5929 269.189 93.7048C269.413 93.8168 269.578 93.9522 269.685 94.1111C269.794 94.2673 269.849 94.4587 269.849 94.6853C269.849 95.0629 269.698 95.3663 269.396 95.5955C269.094 95.822 268.702 95.9353 268.22 95.9353C267.881 95.9353 267.582 95.8754 267.321 95.7556C267.061 95.6358 266.857 95.4692 266.708 95.2556C266.562 95.0395 266.489 94.8064 266.489 94.5564H267.212C267.225 94.7986 267.321 94.9913 267.501 95.1345C267.683 95.2751 267.923 95.3455 268.22 95.3455C268.493 95.3455 268.712 95.2908 268.876 95.1814C269.043 95.0694 269.126 94.921 269.126 94.7361ZM272.485 95.3455C272.743 95.3455 272.969 95.2673 273.161 95.1111C273.354 94.9548 273.461 94.7595 273.482 94.5251H274.165C274.152 94.7673 274.069 94.9978 273.915 95.2166C273.762 95.4353 273.556 95.6098 273.298 95.74C273.043 95.8702 272.772 95.9353 272.485 95.9353C271.91 95.9353 271.452 95.7439 271.11 95.3611C270.772 94.9757 270.603 94.4496 270.603 93.783V93.6619C270.603 93.2504 270.678 92.8845 270.829 92.5642C270.98 92.2439 271.196 91.9952 271.478 91.8181C271.762 91.641 272.096 91.5525 272.482 91.5525C272.956 91.5525 273.349 91.6944 273.661 91.9783C273.976 92.2621 274.144 92.6306 274.165 93.0837H273.482C273.461 92.8103 273.357 92.5863 273.169 92.4119C272.984 92.2348 272.755 92.1462 272.482 92.1462C272.114 92.1462 271.829 92.2791 271.626 92.5447C271.426 92.8077 271.325 93.1892 271.325 93.6892V93.8259C271.325 94.3129 271.426 94.6879 271.626 94.9509C271.827 95.2139 272.113 95.3455 272.485 95.3455ZM277.587 95.8572C277.545 95.7738 277.512 95.6254 277.485 95.4119C277.15 95.7608 276.748 95.9353 276.282 95.9353C275.866 95.9353 275.523 95.8181 275.255 95.5837C274.989 95.3468 274.857 95.0473 274.857 94.6853C274.857 94.2452 275.023 93.9041 275.357 93.6619C275.693 93.4171 276.164 93.2947 276.771 93.2947H277.474V92.9626C277.474 92.71 277.398 92.5095 277.247 92.3611C277.096 92.21 276.873 92.1345 276.579 92.1345C276.321 92.1345 276.105 92.1996 275.931 92.3298C275.756 92.46 275.669 92.6176 275.669 92.8025H274.943C274.943 92.5916 275.017 92.3884 275.165 92.1931C275.316 91.9952 275.519 91.8389 275.775 91.7244C276.032 91.6098 276.315 91.5525 276.622 91.5525C277.109 91.5525 277.491 91.6749 277.767 91.9197C278.043 92.1619 278.186 92.4965 278.196 92.9236V94.8689C278.196 95.2569 278.246 95.5655 278.345 95.7947V95.8572H277.587ZM276.388 95.3064C276.614 95.3064 276.829 95.2478 277.032 95.1306C277.235 95.0134 277.383 94.8611 277.474 94.6736V93.8064H276.907C276.022 93.8064 275.579 94.0655 275.579 94.5837C275.579 94.8103 275.655 94.9874 275.806 95.115C275.957 95.2426 276.151 95.3064 276.388 95.3064ZM280.013 91.6306L280.036 92.1619C280.359 91.7556 280.781 91.5525 281.302 91.5525C282.195 91.5525 282.646 92.0564 282.653 93.0642V95.8572H281.931V93.0603C281.928 92.7556 281.858 92.5304 281.72 92.3845C281.584 92.2387 281.372 92.1658 281.083 92.1658C280.849 92.1658 280.643 92.2283 280.466 92.3533C280.289 92.4783 280.151 92.6423 280.052 92.8455V95.8572H279.329V91.6306H280.013ZM285.497 95.9353C284.924 95.9353 284.458 95.7478 284.099 95.3728C283.739 94.9952 283.56 94.4913 283.56 93.8611V93.7283C283.56 93.309 283.639 92.9353 283.798 92.6072C283.959 92.2764 284.183 92.0186 284.47 91.8337C284.759 91.6462 285.071 91.5525 285.407 91.5525C285.957 91.5525 286.384 91.7335 286.689 92.0955C286.993 92.4574 287.146 92.9757 287.146 93.6501V93.9509H284.282C284.293 94.3676 284.414 94.7048 284.646 94.9626C284.88 95.2179 285.177 95.3455 285.536 95.3455C285.791 95.3455 286.008 95.2934 286.185 95.1892C286.362 95.085 286.517 94.947 286.65 94.7751L287.091 95.1189C286.737 95.6632 286.206 95.9353 285.497 95.9353ZM285.407 92.1462C285.116 92.1462 284.871 92.253 284.673 92.4666C284.475 92.6775 284.353 92.9744 284.306 93.3572H286.423V93.3025C286.402 92.9353 286.303 92.6514 286.126 92.4509C285.949 92.2478 285.709 92.1462 285.407 92.1462ZM290.595 95.8572C290.553 95.7738 290.519 95.6254 290.493 95.4119C290.157 95.7608 289.756 95.9353 289.29 95.9353C288.873 95.9353 288.531 95.8181 288.263 95.5837C287.997 95.3468 287.864 95.0473 287.864 94.6853C287.864 94.2452 288.031 93.9041 288.364 93.6619C288.7 93.4171 289.172 93.2947 289.778 93.2947H290.482V92.9626C290.482 92.71 290.406 92.5095 290.255 92.3611C290.104 92.21 289.881 92.1345 289.587 92.1345C289.329 92.1345 289.113 92.1996 288.939 92.3298C288.764 92.46 288.677 92.6176 288.677 92.8025H287.95C287.95 92.5916 288.025 92.3884 288.173 92.1931C288.324 91.9952 288.527 91.8389 288.782 91.7244C289.04 91.6098 289.323 91.5525 289.63 91.5525C290.117 91.5525 290.498 91.6749 290.775 91.9197C291.051 92.1619 291.194 92.4965 291.204 92.9236V94.8689C291.204 95.2569 291.254 95.5655 291.353 95.7947V95.8572H290.595ZM289.396 95.3064C289.622 95.3064 289.837 95.2478 290.04 95.1306C290.243 95.0134 290.39 94.8611 290.482 94.6736V93.8064H289.915C289.03 93.8064 288.587 94.0655 288.587 94.5837C288.587 94.8103 288.663 94.9874 288.814 95.115C288.965 95.2426 289.159 95.3064 289.396 95.3064ZM296.075 95.9353C295.502 95.9353 295.036 95.7478 294.677 95.3728C294.318 94.9952 294.138 94.4913 294.138 93.8611V93.7283C294.138 93.309 294.217 92.9353 294.376 92.6072C294.538 92.2764 294.762 92.0186 295.048 91.8337C295.337 91.6462 295.65 91.5525 295.985 91.5525C296.535 91.5525 296.962 91.7335 297.267 92.0955C297.571 92.4574 297.724 92.9757 297.724 93.6501V93.9509H294.86C294.871 94.3676 294.992 94.7048 295.224 94.9626C295.458 95.2179 295.755 95.3455 296.114 95.3455C296.37 95.3455 296.586 95.2934 296.763 95.1892C296.94 95.085 297.095 94.947 297.228 94.7751L297.669 95.1189C297.315 95.6632 296.784 95.9353 296.075 95.9353ZM295.985 92.1462C295.694 92.1462 295.449 92.253 295.251 92.4666C295.053 92.6775 294.931 92.9744 294.884 93.3572H297.001V93.3025C296.98 92.9353 296.881 92.6514 296.704 92.4509C296.527 92.2478 296.288 92.1462 295.985 92.1462ZM299.349 95.8572H298.626V89.8572H299.349V95.8572ZM304.189 95.3455C304.446 95.3455 304.672 95.2673 304.864 95.1111C305.057 94.9548 305.164 94.7595 305.185 94.5251H305.868C305.855 94.7673 305.772 94.9978 305.618 95.2166C305.465 95.4353 305.259 95.6098 305.001 95.74C304.746 95.8702 304.475 95.9353 304.189 95.9353C303.613 95.9353 303.155 95.7439 302.814 95.3611C302.475 94.9757 302.306 94.4496 302.306 93.783V93.6619C302.306 93.2504 302.381 92.8845 302.532 92.5642C302.683 92.2439 302.9 91.9952 303.181 91.8181C303.465 91.641 303.799 91.5525 304.185 91.5525C304.659 91.5525 305.052 91.6944 305.364 91.9783C305.679 92.2621 305.847 92.6306 305.868 93.0837H305.185C305.164 92.8103 305.06 92.5863 304.872 92.4119C304.687 92.2348 304.458 92.1462 304.185 92.1462C303.818 92.1462 303.532 92.2791 303.329 92.5447C303.129 92.8077 303.028 93.1892 303.028 93.6892V93.8259C303.028 94.3129 303.129 94.6879 303.329 94.9509C303.53 95.2139 303.816 95.3455 304.189 95.3455ZM306.489 93.7048C306.489 93.2908 306.57 92.9184 306.732 92.5876C306.896 92.2569 307.122 92.0017 307.411 91.822C307.703 91.6423 308.035 91.5525 308.407 91.5525C308.983 91.5525 309.448 91.7517 309.802 92.1501C310.159 92.5486 310.337 93.0785 310.337 93.74V93.7908C310.337 94.2022 310.258 94.572 310.099 94.9001C309.943 95.2257 309.717 95.4796 309.423 95.6619C309.131 95.8442 308.795 95.9353 308.415 95.9353C307.842 95.9353 307.377 95.7361 307.021 95.3376C306.666 94.9392 306.489 94.4119 306.489 93.7556V93.7048ZM307.216 93.7908C307.216 94.2595 307.324 94.6358 307.54 94.9197C307.759 95.2035 308.051 95.3455 308.415 95.3455C308.782 95.3455 309.074 95.2022 309.29 94.9158C309.506 94.6267 309.614 94.2231 309.614 93.7048C309.614 93.2413 309.504 92.8663 309.282 92.5798C309.064 92.2908 308.772 92.1462 308.407 92.1462C308.051 92.1462 307.763 92.2882 307.544 92.572C307.325 92.8559 307.216 93.2621 307.216 93.7908ZM308.735 89.8572H309.61L308.564 91.0056H307.982L308.735 89.8572ZM311.068 93.7087C311.068 93.0603 311.221 92.5395 311.528 92.1462C311.836 91.7504 312.238 91.5525 312.735 91.5525C313.23 91.5525 313.622 91.7218 313.911 92.0603V89.8572H314.634V95.8572H313.97L313.935 95.4041C313.646 95.7582 313.243 95.9353 312.728 95.9353C312.238 95.9353 311.838 95.7348 311.528 95.3337C311.221 94.9327 311.068 94.4093 311.068 93.7634V93.7087ZM311.79 93.7908C311.79 94.2699 311.889 94.6449 312.087 94.9158C312.285 95.1866 312.558 95.322 312.907 95.322C313.366 95.322 313.7 95.1163 313.911 94.7048V92.7634C313.695 92.365 313.363 92.1658 312.915 92.1658C312.561 92.1658 312.285 92.3025 312.087 92.5759C311.889 92.8494 311.79 93.2543 311.79 93.7908ZM316.544 95.8572H315.821V91.6306H316.544V95.8572ZM315.763 90.5095C315.763 90.3923 315.798 90.2934 315.868 90.2126C315.941 90.1319 316.048 90.0916 316.189 90.0916C316.329 90.0916 316.436 90.1319 316.509 90.2126C316.582 90.2934 316.618 90.3923 316.618 90.5095C316.618 90.6267 316.582 90.7244 316.509 90.8025C316.436 90.8806 316.329 90.9197 316.189 90.9197C316.048 90.9197 315.941 90.8806 315.868 90.8025C315.798 90.7244 315.763 90.6267 315.763 90.5095ZM317.532 93.7087C317.532 93.0499 317.685 92.5264 317.989 92.1384C318.294 91.7478 318.698 91.5525 319.2 91.5525C319.716 91.5525 320.118 91.7348 320.407 92.0994L320.443 91.6306H321.103V95.7556C321.103 96.3025 320.94 96.7335 320.614 97.0486C320.291 97.3637 319.857 97.5212 319.31 97.5212C319.005 97.5212 318.707 97.4561 318.415 97.3259C318.123 97.1957 317.901 97.0173 317.747 96.7908L318.122 96.3572C318.432 96.74 318.811 96.9314 319.259 96.9314C319.61 96.9314 319.884 96.8324 320.079 96.6345C320.277 96.4366 320.376 96.158 320.376 95.7986V95.4353C320.087 95.7686 319.693 95.9353 319.193 95.9353C318.698 95.9353 318.297 95.7361 317.989 95.3376C317.685 94.9392 317.532 94.3962 317.532 93.7087ZM318.259 93.7908C318.259 94.2673 318.357 94.6423 318.552 94.9158C318.747 95.1866 319.021 95.322 319.372 95.322C319.828 95.322 320.163 95.115 320.376 94.7009V92.7712C320.155 92.3676 319.823 92.1658 319.38 92.1658C319.028 92.1658 318.754 92.3025 318.556 92.5759C318.358 92.8494 318.259 93.2543 318.259 93.7908ZM322.005 93.7048C322.005 93.2908 322.086 92.9184 322.247 92.5876C322.411 92.2569 322.638 92.0017 322.927 91.822C323.219 91.6423 323.551 91.5525 323.923 91.5525C324.498 91.5525 324.963 91.7517 325.318 92.1501C325.674 92.5486 325.853 93.0785 325.853 93.74V93.7908C325.853 94.2022 325.773 94.572 325.614 94.9001C325.458 95.2257 325.233 95.4796 324.939 95.6619C324.647 95.8442 324.311 95.9353 323.931 95.9353C323.358 95.9353 322.893 95.7361 322.536 95.3376C322.182 94.9392 322.005 94.4119 322.005 93.7556V93.7048ZM322.732 93.7908C322.732 94.2595 322.84 94.6358 323.056 94.9197C323.275 95.2035 323.566 95.3455 323.931 95.3455C324.298 95.3455 324.59 95.2022 324.806 94.9158C325.022 94.6267 325.13 94.2231 325.13 93.7048C325.13 93.2413 325.019 92.8663 324.798 92.5798C324.579 92.2908 324.288 92.1462 323.923 92.1462C323.566 92.1462 323.278 92.2882 323.06 92.572C322.841 92.8559 322.732 93.2621 322.732 93.7908ZM328.568 93.7087C328.568 93.0603 328.721 92.5395 329.028 92.1462C329.336 91.7504 329.738 91.5525 330.235 91.5525C330.73 91.5525 331.122 91.7218 331.411 92.0603V89.8572H332.134V95.8572H331.47L331.435 95.4041C331.146 95.7582 330.743 95.9353 330.228 95.9353C329.738 95.9353 329.338 95.7348 329.028 95.3337C328.721 94.9327 328.568 94.4093 328.568 93.7634V93.7087ZM329.29 93.7908C329.29 94.2699 329.389 94.6449 329.587 94.9158C329.785 95.1866 330.058 95.322 330.407 95.322C330.866 95.322 331.2 95.1163 331.411 94.7048V92.7634C331.195 92.365 330.863 92.1658 330.415 92.1658C330.061 92.1658 329.785 92.3025 329.587 92.5759C329.389 92.8494 329.29 93.2543 329.29 93.7908ZM335.013 95.9353C334.44 95.9353 333.974 95.7478 333.614 95.3728C333.255 94.9952 333.075 94.4913 333.075 93.8611V93.7283C333.075 93.309 333.155 92.9353 333.314 92.6072C333.475 92.2764 333.699 92.0186 333.985 91.8337C334.275 91.6462 334.587 91.5525 334.923 91.5525C335.472 91.5525 335.9 91.7335 336.204 92.0955C336.509 92.4574 336.661 92.9757 336.661 93.6501V93.9509H333.798C333.808 94.3676 333.929 94.7048 334.161 94.9626C334.396 95.2179 334.693 95.3455 335.052 95.3455C335.307 95.3455 335.523 95.2934 335.7 95.1892C335.877 95.085 336.032 94.947 336.165 94.7751L336.607 95.1189C336.252 95.6632 335.721 95.9353 335.013 95.9353ZM334.923 92.1462C334.631 92.1462 334.387 92.253 334.189 92.4666C333.991 92.6775 333.868 92.9744 333.821 93.3572H335.939V93.3025C335.918 92.9353 335.819 92.6514 335.642 92.4509C335.465 92.2478 335.225 92.1462 334.923 92.1462ZM339.962 94.7361C339.962 94.5408 339.888 94.3897 339.739 94.283C339.594 94.1736 339.337 94.0798 338.97 94.0017C338.605 93.9236 338.315 93.8298 338.099 93.7205C337.885 93.6111 337.726 93.4809 337.622 93.3298C337.521 93.1788 337.47 92.9991 337.47 92.7908C337.47 92.4444 337.616 92.1514 337.907 91.9119C338.202 91.6723 338.577 91.5525 339.032 91.5525C339.512 91.5525 339.9 91.6762 340.196 91.9236C340.496 92.171 340.646 92.4874 340.646 92.8728H339.919C339.919 92.6749 339.834 92.5043 339.665 92.3611C339.498 92.2179 339.288 92.1462 339.032 92.1462C338.769 92.1462 338.564 92.2035 338.415 92.3181C338.267 92.4327 338.193 92.5824 338.193 92.7673C338.193 92.9418 338.262 93.0733 338.4 93.1619C338.538 93.2504 338.786 93.335 339.146 93.4158C339.508 93.4965 339.801 93.5929 340.025 93.7048C340.248 93.8168 340.414 93.9522 340.521 94.1111C340.63 94.2673 340.685 94.4587 340.685 94.6853C340.685 95.0629 340.534 95.3663 340.232 95.5955C339.929 95.822 339.538 95.9353 339.056 95.9353C338.717 95.9353 338.418 95.8754 338.157 95.7556C337.897 95.6358 337.693 95.4692 337.544 95.2556C337.398 95.0395 337.325 94.8064 337.325 94.5564H338.048C338.061 94.7986 338.157 94.9913 338.337 95.1345C338.519 95.2751 338.759 95.3455 339.056 95.3455C339.329 95.3455 339.548 95.2908 339.712 95.1814C339.879 95.0694 339.962 94.921 339.962 94.7361ZM341.45 93.7087C341.45 93.0603 341.604 92.5395 341.911 92.1462C342.219 91.7504 342.621 91.5525 343.118 91.5525C343.613 91.5525 344.005 91.7218 344.294 92.0603V89.8572H345.017V95.8572H344.353L344.318 95.4041C344.028 95.7582 343.626 95.9353 343.11 95.9353C342.621 95.9353 342.221 95.7348 341.911 95.3337C341.604 94.9327 341.45 94.4093 341.45 93.7634V93.7087ZM342.173 93.7908C342.173 94.2699 342.272 94.6449 342.47 94.9158C342.668 95.1866 342.941 95.322 343.29 95.322C343.748 95.322 344.083 95.1163 344.294 94.7048V92.7634C344.078 92.365 343.746 92.1658 343.298 92.1658C342.944 92.1658 342.668 92.3025 342.47 92.5759C342.272 92.8494 342.173 93.2543 342.173 93.7908ZM347.896 95.9353C347.323 95.9353 346.857 95.7478 346.497 95.3728C346.138 94.9952 345.958 94.4913 345.958 93.8611V93.7283C345.958 93.309 346.038 92.9353 346.196 92.6072C346.358 92.2764 346.582 92.0186 346.868 91.8337C347.157 91.6462 347.47 91.5525 347.806 91.5525C348.355 91.5525 348.782 91.7335 349.087 92.0955C349.392 92.4574 349.544 92.9757 349.544 93.6501V93.9509H346.681C346.691 94.3676 346.812 94.7048 347.044 94.9626C347.278 95.2179 347.575 95.3455 347.935 95.3455C348.19 95.3455 348.406 95.2934 348.583 95.1892C348.76 95.085 348.915 94.947 349.048 94.7751L349.489 95.1189C349.135 95.6632 348.604 95.9353 347.896 95.9353ZM347.806 92.1462C347.514 92.1462 347.269 92.253 347.071 92.4666C346.873 92.6775 346.751 92.9744 346.704 93.3572H348.821V93.3025C348.801 92.9353 348.702 92.6514 348.525 92.4509C348.347 92.2478 348.108 92.1462 347.806 92.1462ZM353.349 90.6072V91.6306H354.138V92.1892H353.349V94.8103C353.349 94.9796 353.384 95.1072 353.454 95.1931C353.525 95.2764 353.644 95.3181 353.814 95.3181C353.897 95.3181 354.012 95.3025 354.157 95.2712V95.8572C353.967 95.9093 353.782 95.9353 353.603 95.9353C353.28 95.9353 353.036 95.8376 352.872 95.6423C352.708 95.447 352.626 95.1697 352.626 94.8103V92.1892H351.857V91.6306H352.626V90.6072H353.349ZM357.595 95.4392C357.314 95.7699 356.901 95.9353 356.357 95.9353C355.906 95.9353 355.562 95.8051 355.325 95.5447C355.091 95.2817 354.972 94.8936 354.97 94.3806V91.6306H355.693V94.3611C355.693 95.0017 355.953 95.322 356.474 95.322C357.026 95.322 357.393 95.1163 357.575 94.7048V91.6306H358.298V95.8572H357.61L357.595 95.4392ZM362.064 91.6306L362.083 92.0994C362.393 91.7348 362.811 91.5525 363.337 91.5525C363.928 91.5525 364.331 91.7791 364.544 92.2322C364.685 92.0291 364.867 91.865 365.091 91.74C365.318 91.615 365.584 91.5525 365.892 91.5525C366.819 91.5525 367.29 92.0434 367.306 93.0251V95.8572H366.583V93.0681C366.583 92.766 366.514 92.5408 366.376 92.3923C366.238 92.2413 366.006 92.1658 365.681 92.1658C365.413 92.1658 365.19 92.2465 365.013 92.408C364.836 92.5668 364.733 92.7817 364.704 93.0525V95.8572H363.978V93.0876C363.978 92.4731 363.677 92.1658 363.075 92.1658C362.601 92.1658 362.277 92.3676 362.103 92.7712V95.8572H361.38V91.6306H362.064ZM368.208 93.7048C368.208 93.2908 368.289 92.9184 368.45 92.5876C368.614 92.2569 368.841 92.0017 369.13 91.822C369.422 91.6423 369.754 91.5525 370.126 91.5525C370.702 91.5525 371.166 91.7517 371.521 92.1501C371.877 92.5486 372.056 93.0785 372.056 93.74V93.7908C372.056 94.2022 371.976 94.572 371.818 94.9001C371.661 95.2257 371.436 95.4796 371.142 95.6619C370.85 95.8442 370.514 95.9353 370.134 95.9353C369.561 95.9353 369.096 95.7361 368.739 95.3376C368.385 94.9392 368.208 94.4119 368.208 93.7556V93.7048ZM368.935 93.7908C368.935 94.2595 369.043 94.6358 369.259 94.9197C369.478 95.2035 369.769 95.3455 370.134 95.3455C370.501 95.3455 370.793 95.2022 371.009 94.9158C371.225 94.6267 371.333 94.2231 371.333 93.7048C371.333 93.2413 371.222 92.8663 371.001 92.5798C370.782 92.2908 370.491 92.1462 370.126 92.1462C369.769 92.1462 369.482 92.2882 369.263 92.572C369.044 92.8559 368.935 93.2621 368.935 93.7908ZM370.454 89.8572H371.329L370.282 91.0056H369.7L370.454 89.8572ZM374.294 94.8767L375.341 91.6306H376.079L374.564 95.8572H374.013L372.482 91.6306H373.22L374.294 94.8767ZM377.56 95.8572H376.837V91.6306H377.56V95.8572ZM376.778 90.5095C376.778 90.3923 376.814 90.2934 376.884 90.2126C376.957 90.1319 377.064 90.0916 377.204 90.0916C377.345 90.0916 377.452 90.1319 377.525 90.2126C377.597 90.2934 377.634 90.3923 377.634 90.5095C377.634 90.6267 377.597 90.7244 377.525 90.8025C377.452 90.8806 377.345 90.9197 377.204 90.9197C377.064 90.9197 376.957 90.8806 376.884 90.8025C376.814 90.7244 376.778 90.6267 376.778 90.5095ZM379.505 95.8572H378.782V89.8572H379.505V95.8572Z" fill="#C4C4C4"/>
<g clip-path="url(#clip2)">
<path d="M292.643 112.5V134.556H314.699V112.5H292.643ZM309.509 129.367H297.833V117.69H309.509V129.367Z" fill="#30485F"/>
<path d="M306.266 120.933H301.076V126.123H306.266V120.933Z" fill="#30485F"/>
<path d="M337.015 112.5V134.556H359.071V112.5H337.015ZM353.882 129.367H342.205V117.69H353.882V129.367Z" fill="#30485F"/>
<path d="M350.638 120.933H345.448V126.123H350.638V120.933Z" fill="#30485F"/>
<path d="M292.643 156.872V178.929H314.699V156.872H292.643ZM309.509 173.739H297.833V162.062H309.509V173.739Z" fill="#30485F"/>
<path d="M306.266 165.306H301.076V170.495H306.266V165.306Z" fill="#30485F"/>
<path d="M303.022 138.059H297.833V143.249H303.022V138.059Z" fill="#30485F"/>
<path d="M308.212 148.439V143.249H303.022V148.439H308.082V153.629H313.272V148.439H308.212Z" fill="#30485F"/>
<path d="M334.161 122.49H328.971V127.68H334.161V122.49Z" fill="#30485F"/>
<path d="M323.781 117.69H318.591V127.68H323.781V117.69Z" fill="#30485F"/>
<path d="M328.971 112.5H323.781V117.69H328.971V112.5Z" fill="#30485F"/>
<path d="M323.781 127.68V132.87H318.591V138.059H328.971V127.68H323.781Z" fill="#30485F"/>
<path d="M328.971 158.559V153.499H323.781V143.249H318.591V153.629H323.781V158.689H328.971V163.749H339.35V158.559H328.971Z" fill="#30485F"/>
<path d="M334.161 138.059H328.971V148.439H334.161V138.059Z" fill="#30485F"/>
<path d="M353.882 143.119V138.059H344.41V143.249H339.35V148.439H344.54V153.499H359.071V143.119H353.882ZM353.882 148.309H344.54V143.249H353.882V148.309Z" fill="#30485F"/>
<path d="M359.071 158.559H353.882V168.938H359.071V158.559Z" fill="#30485F"/>
<path d="M339.35 148.439H334.161V153.629H339.35V148.439Z" fill="#30485F"/>
<path d="M344.54 163.749H339.35V168.938H344.54V163.749Z" fill="#30485F"/>
<path d="M349.73 158.559H344.54V163.749H349.73V158.559Z" fill="#30485F"/>
<path d="M344.54 168.938V178.929H349.73V174.128H353.882V168.938H344.54Z" fill="#30485F"/>
<path d="M323.781 158.689H318.591V168.549H323.781V158.689Z" fill="#30485F"/>
<path d="M334.161 173.739V168.549H323.781V178.929H328.971V173.739H334.031V178.929H339.221V173.739H334.161Z" fill="#30485F"/>
<path d="M318.592 138.059H308.212V143.249H318.592V138.059Z" fill="#30485F"/>
<path d="M297.833 143.249H292.643V153.629H297.833V143.249Z" fill="#30485F"/>
</g>
</g>
<rect x="437" y="11" width="160.273" height="322" rx="13" fill="white" stroke="black" stroke-width="4"/>
<rect x="482.117" y="320.992" width="70.0391" height="3.82031" rx="1.91016" fill="#C4C4C4"/>
<path d="M478.297 9H557.25V11.7344C557.25 17.2572 552.773 21.7344 547.25 21.7344H488.297C482.774 21.7344 478.297 17.2572 478.297 11.7344V9Z" fill="black"/>
<g filter="url(#filter2_d)">
<rect x="452" y="163" width="130" height="30" rx="5" fill="#2A94F4"/>
</g>
<path d="M489.1 180.823H492.21V182H487.635V174.891H489.1V180.823ZM494.451 182H493.035V174.5H494.451V182ZM498.68 182C498.615 181.873 498.567 181.715 498.538 181.526C498.196 181.907 497.752 182.098 497.205 182.098C496.688 182.098 496.258 181.948 495.916 181.648C495.577 181.349 495.408 180.971 495.408 180.516C495.408 179.956 495.615 179.526 496.028 179.227C496.445 178.927 497.046 178.776 497.83 178.772H498.479V178.47C498.479 178.226 498.416 178.03 498.289 177.884C498.165 177.737 497.968 177.664 497.698 177.664C497.461 177.664 497.273 177.721 497.137 177.835C497.003 177.949 496.937 178.105 496.937 178.304H495.525C495.525 177.998 495.62 177.715 495.809 177.454C495.997 177.194 496.264 176.99 496.609 176.844C496.954 176.694 497.342 176.619 497.771 176.619C498.423 176.619 498.938 176.784 499.319 177.112C499.703 177.438 499.896 177.897 499.896 178.489V180.779C499.899 181.281 499.969 181.66 500.105 181.917V182H498.68ZM497.513 181.019C497.721 181.019 497.913 180.973 498.089 180.882C498.265 180.787 498.395 180.662 498.479 180.506V179.598H497.952C497.246 179.598 496.87 179.842 496.824 180.33L496.819 180.413C496.819 180.589 496.881 180.734 497.005 180.848C497.129 180.962 497.298 181.019 497.513 181.019ZM502.303 176.717L502.347 177.308C502.721 176.849 503.227 176.619 503.865 176.619C504.546 176.619 505.013 176.888 505.267 177.425C505.638 176.888 506.167 176.619 506.854 176.619C507.426 176.619 507.853 176.787 508.133 177.122C508.413 177.454 508.553 177.955 508.553 178.626V182H507.137V178.631C507.137 178.331 507.078 178.113 506.961 177.977C506.844 177.837 506.637 177.767 506.341 177.767C505.918 177.767 505.625 177.968 505.462 178.372L505.467 182H504.056V178.636C504.056 178.33 503.995 178.108 503.875 177.972C503.755 177.835 503.549 177.767 503.26 177.767C502.859 177.767 502.57 177.933 502.391 178.265V182H500.979V176.717H502.303ZM512.703 182C512.638 181.873 512.591 181.715 512.562 181.526C512.22 181.907 511.775 182.098 511.229 182.098C510.711 182.098 510.281 181.948 509.939 181.648C509.601 181.349 509.432 180.971 509.432 180.516C509.432 179.956 509.638 179.526 510.052 179.227C510.468 178.927 511.069 178.776 511.854 178.772H512.503V178.47C512.503 178.226 512.439 178.03 512.312 177.884C512.189 177.737 511.992 177.664 511.722 177.664C511.484 177.664 511.297 177.721 511.16 177.835C511.027 177.949 510.96 178.105 510.96 178.304H509.549C509.549 177.998 509.643 177.715 509.832 177.454C510.021 177.194 510.288 176.99 510.633 176.844C510.978 176.694 511.365 176.619 511.795 176.619C512.446 176.619 512.962 176.784 513.343 177.112C513.727 177.438 513.919 177.897 513.919 178.489V180.779C513.922 181.281 513.992 181.66 514.129 181.917V182H512.703ZM511.536 181.019C511.744 181.019 511.937 180.973 512.112 180.882C512.288 180.787 512.418 180.662 512.503 180.506V179.598H511.976C511.269 179.598 510.893 179.842 510.848 180.33L510.843 180.413C510.843 180.589 510.905 180.734 511.028 180.848C511.152 180.962 511.321 181.019 511.536 181.019ZM517.972 178.04C517.78 178.014 517.61 178.001 517.464 178.001C516.93 178.001 516.58 178.182 516.414 178.543V182H515.003V176.717H516.336L516.375 177.347C516.658 176.862 517.05 176.619 517.552 176.619C517.708 176.619 517.854 176.64 517.991 176.683L517.972 178.04ZM525.252 180.535H522.684L522.195 182H520.638L523.284 174.891H524.642L527.303 182H525.745L525.252 180.535ZM523.079 179.349H524.856L523.963 176.688L523.079 179.349ZM529.251 177.293C529.625 176.844 530.096 176.619 530.662 176.619C531.808 176.619 532.389 177.285 532.405 178.616V182H530.994V178.655C530.994 178.353 530.929 178.13 530.799 177.986C530.669 177.84 530.452 177.767 530.149 177.767C529.736 177.767 529.437 177.926 529.251 178.245V182H527.84V174.5H529.251V177.293ZM533.25 179.31C533.25 178.785 533.351 178.318 533.553 177.908C533.755 177.498 534.044 177.181 534.422 176.956C534.803 176.731 535.244 176.619 535.745 176.619C536.458 176.619 537.039 176.837 537.488 177.273C537.941 177.71 538.193 178.302 538.245 179.051L538.255 179.412C538.255 180.223 538.029 180.874 537.576 181.365C537.124 181.854 536.517 182.098 535.755 182.098C534.993 182.098 534.384 181.854 533.929 181.365C533.476 180.877 533.25 180.213 533.25 179.373V179.31ZM534.661 179.412C534.661 179.913 534.756 180.298 534.944 180.564C535.133 180.828 535.403 180.96 535.755 180.96C536.097 180.96 536.364 180.83 536.556 180.569C536.748 180.306 536.844 179.886 536.844 179.31C536.844 178.818 536.748 178.437 536.556 178.167C536.364 177.897 536.093 177.762 535.745 177.762C535.4 177.762 535.133 177.897 534.944 178.167C534.756 178.434 534.661 178.849 534.661 179.412ZM542.093 178.04C541.901 178.014 541.731 178.001 541.585 178.001C541.051 178.001 540.701 178.182 540.535 178.543V182H539.124V176.717H540.457L540.496 177.347C540.779 176.862 541.172 176.619 541.673 176.619C541.829 176.619 541.976 176.64 542.112 176.683L542.093 178.04ZM545.691 182C545.626 181.873 545.579 181.715 545.55 181.526C545.208 181.907 544.764 182.098 544.217 182.098C543.699 182.098 543.27 181.948 542.928 181.648C542.589 181.349 542.42 180.971 542.42 180.516C542.42 179.956 542.627 179.526 543.04 179.227C543.457 178.927 544.057 178.776 544.842 178.772H545.491V178.47C545.491 178.226 545.428 178.03 545.301 177.884C545.177 177.737 544.98 177.664 544.71 177.664C544.472 177.664 544.285 177.721 544.148 177.835C544.015 177.949 543.948 178.105 543.948 178.304H542.537C542.537 177.998 542.632 177.715 542.82 177.454C543.009 177.194 543.276 176.99 543.621 176.844C543.966 176.694 544.354 176.619 544.783 176.619C545.434 176.619 545.95 176.784 546.331 177.112C546.715 177.438 546.907 177.897 546.907 178.489V180.779C546.91 181.281 546.98 181.66 547.117 181.917V182H545.691ZM544.524 181.019C544.733 181.019 544.925 180.973 545.101 180.882C545.276 180.787 545.407 180.662 545.491 180.506V179.598H544.964C544.257 179.598 543.882 179.842 543.836 180.33L543.831 180.413C543.831 180.589 543.893 180.734 544.017 180.848C544.14 180.962 544.31 181.019 544.524 181.019Z" fill="white"/>
<g clip-path="url(#clip3)">
<path d="M475.815 180.702C475.48 180.963 475.002 180.941 474.696 180.635L472.204 178.143C471.898 177.837 471.876 177.352 472.137 177.024L468.981 173.86C467.608 175.442 467.682 177.844 469.182 179.344L473.495 183.657C475.024 185.186 477.453 185.201 478.979 183.858L475.815 180.702Z" fill="white"/>
<path d="M472.92 174.643L471.339 173.054C470.921 172.636 470.182 172.636 469.757 173.054L469.496 173.322L472.659 176.486L472.92 176.225C473.137 176.008 473.249 175.732 473.249 175.434C473.249 175.135 473.137 174.852 472.92 174.643Z" fill="white"/>
<path d="M479.785 181.501L478.196 179.919C477.778 179.493 477.039 179.493 476.614 179.919L476.353 180.18L479.516 183.344L479.785 183.082C479.994 182.873 480.106 182.59 480.106 182.291C480.106 181.993 479.994 181.709 479.785 181.501Z" fill="white"/>
<path d="M474.39 172.102C473.899 172.102 473.897 172.843 474.39 172.843C477.476 172.843 479.991 175.358 479.991 178.444C479.991 178.936 480.733 178.938 480.733 178.444C480.733 174.947 477.888 172.102 474.39 172.102Z" fill="white"/>
<path d="M474.39 173.594C473.899 173.594 473.897 174.335 474.39 174.335C476.653 174.335 478.499 176.181 478.499 178.444C478.499 178.936 479.24 178.938 479.24 178.444C479.24 175.77 477.065 173.594 474.39 173.594Z" fill="white"/>
<path d="M474.39 175.086C473.899 175.086 473.897 175.827 474.39 175.827C475.83 175.827 477.007 177.004 477.007 178.444C477.007 178.936 477.748 178.938 477.748 178.444C477.748 176.592 476.242 175.086 474.39 175.086Z" fill="white"/>
<path d="M474.39 176.578C473.899 176.578 473.897 177.325 474.39 177.325C475.008 177.325 475.51 177.827 475.51 178.444C475.51 178.936 476.256 178.938 476.256 178.444C476.256 177.415 475.419 176.578 474.39 176.578Z" fill="white"/>
</g>
<g filter="url(#filter3_d)">
<rect x="452" y="206" width="130" height="30" rx="5" fill="#FF1686"/>
<path d="M491.912 220.919H489.1V222.823H492.4V224H487.635V216.891H492.391V218.077H489.1V219.771H491.912V220.919ZM494.466 218.717L494.51 219.327C494.887 218.855 495.394 218.619 496.028 218.619C496.588 218.619 497.005 218.784 497.278 219.112C497.552 219.441 497.692 219.933 497.698 220.587V224H496.287V220.621C496.287 220.322 496.222 220.105 496.092 219.972C495.962 219.835 495.745 219.767 495.442 219.767C495.045 219.767 494.747 219.936 494.549 220.274V224H493.138V218.717H494.466ZM500.75 222.276L501.731 218.717H503.206L501.424 224H500.076L498.294 218.717H499.769L500.75 222.276ZM505.32 224H503.904V218.717H505.32V224ZM503.821 217.35C503.821 217.138 503.891 216.964 504.031 216.827C504.174 216.69 504.368 216.622 504.612 216.622C504.853 216.622 505.045 216.69 505.188 216.827C505.332 216.964 505.403 217.138 505.403 217.35C505.403 217.564 505.33 217.74 505.184 217.877C505.04 218.014 504.85 218.082 504.612 218.082C504.375 218.082 504.183 218.014 504.036 217.877C503.893 217.74 503.821 217.564 503.821 217.35ZM509.549 224C509.484 223.873 509.437 223.715 509.407 223.526C509.065 223.907 508.621 224.098 508.074 224.098C507.557 224.098 507.127 223.948 506.785 223.648C506.447 223.349 506.277 222.971 506.277 222.516C506.277 221.956 506.484 221.526 506.897 221.227C507.314 220.927 507.915 220.776 508.699 220.772H509.349V220.47C509.349 220.226 509.285 220.03 509.158 219.884C509.035 219.737 508.838 219.664 508.567 219.664C508.33 219.664 508.143 219.721 508.006 219.835C507.872 219.949 507.806 220.105 507.806 220.304H506.395C506.395 219.998 506.489 219.715 506.678 219.454C506.867 219.194 507.133 218.99 507.479 218.844C507.824 218.694 508.211 218.619 508.641 218.619C509.292 218.619 509.808 218.784 510.188 219.112C510.573 219.438 510.765 219.897 510.765 220.489V222.779C510.768 223.281 510.838 223.66 510.975 223.917V224H509.549ZM508.382 223.019C508.59 223.019 508.782 222.973 508.958 222.882C509.134 222.787 509.264 222.662 509.349 222.506V221.598H508.821C508.115 221.598 507.739 221.842 507.693 222.33L507.688 222.413C507.688 222.589 507.75 222.734 507.874 222.848C507.998 222.962 508.167 223.019 508.382 223.019ZM514.817 220.04C514.625 220.014 514.456 220.001 514.31 220.001C513.776 220.001 513.426 220.182 513.26 220.543V224H511.849V218.717H513.182L513.221 219.347C513.504 218.862 513.896 218.619 514.397 218.619C514.554 218.619 514.7 218.64 514.837 218.683L514.817 220.04ZM522.361 220.919H519.549V222.823H522.85V224H518.084V216.891H522.84V218.077H519.549V219.771H522.361V220.919ZM524.939 218.717L524.983 219.308C525.358 218.849 525.864 218.619 526.502 218.619C527.182 218.619 527.649 218.888 527.903 219.425C528.274 218.888 528.803 218.619 529.49 218.619C530.063 218.619 530.49 218.787 530.77 219.122C531.049 219.454 531.189 219.955 531.189 220.626V224H529.773V220.631C529.773 220.331 529.715 220.113 529.598 219.977C529.48 219.837 529.274 219.767 528.978 219.767C528.554 219.767 528.261 219.968 528.099 220.372L528.104 224H526.692V220.636C526.692 220.33 526.632 220.108 526.512 219.972C526.391 219.835 526.186 219.767 525.896 219.767C525.496 219.767 525.206 219.933 525.027 220.265V224H523.616V218.717H524.939ZM535.34 224C535.275 223.873 535.228 223.715 535.198 223.526C534.856 223.907 534.412 224.098 533.865 224.098C533.348 224.098 532.918 223.948 532.576 223.648C532.238 223.349 532.068 222.971 532.068 222.516C532.068 221.956 532.275 221.526 532.688 221.227C533.105 220.927 533.706 220.776 534.49 220.772H535.14V220.47C535.14 220.226 535.076 220.03 534.949 219.884C534.826 219.737 534.629 219.664 534.358 219.664C534.121 219.664 533.934 219.721 533.797 219.835C533.663 219.949 533.597 220.105 533.597 220.304H532.186C532.186 219.998 532.28 219.715 532.469 219.454C532.658 219.194 532.924 218.99 533.27 218.844C533.615 218.694 534.002 218.619 534.432 218.619C535.083 218.619 535.599 218.784 535.979 219.112C536.364 219.438 536.556 219.897 536.556 220.489V222.779C536.559 223.281 536.629 223.66 536.766 223.917V224H535.34ZM534.173 223.019C534.381 223.019 534.573 222.973 534.749 222.882C534.925 222.787 535.055 222.662 535.14 222.506V221.598H534.612C533.906 221.598 533.53 221.842 533.484 222.33L533.479 222.413C533.479 222.589 533.541 222.734 533.665 222.848C533.789 222.962 533.958 223.019 534.173 223.019ZM539.129 224H537.713V218.717H539.129V224ZM537.63 217.35C537.63 217.138 537.7 216.964 537.84 216.827C537.983 216.69 538.177 216.622 538.421 216.622C538.662 216.622 538.854 216.69 538.997 216.827C539.14 216.964 539.212 217.138 539.212 217.35C539.212 217.564 539.139 217.74 538.992 217.877C538.849 218.014 538.659 218.082 538.421 218.082C538.183 218.082 537.991 218.014 537.845 217.877C537.701 217.74 537.63 217.564 537.63 217.35ZM541.785 224H540.369V216.5H541.785V224Z" fill="white"/>
<path d="M476.707 226.379C475.673 226.845 474.776 227 473.552 227C470.69 227 468.172 224.948 468.172 221.569C468.172 218.052 470.724 215 474.621 215C477.655 215 479.828 217.086 479.828 219.983C479.828 222.5 478.414 224.086 476.552 224.086C475.742 224.086 475.155 223.672 475.069 222.759H475.035C474.5 223.638 473.724 224.086 472.811 224.086C471.69 224.086 470.879 223.259 470.879 221.845C470.879 219.741 472.431 217.827 474.914 217.827C475.673 217.827 476.534 218.017 476.966 218.259L476.449 221.448C476.276 222.465 476.397 222.931 476.88 222.948C477.621 222.965 478.552 222.017 478.552 220.034C478.552 217.793 477.104 216.051 474.431 216.051C471.793 216.051 469.483 218.121 469.483 221.414C469.483 224.293 471.328 225.931 473.897 225.931C474.776 225.931 475.707 225.741 476.397 225.379L476.707 226.379ZM475.172 219.259C475.034 219.224 474.862 219.19 474.638 219.19C473.5 219.19 472.603 220.31 472.603 221.638C472.603 222.293 472.897 222.707 473.465 222.707C474.103 222.707 474.776 221.896 474.931 220.896L475.172 219.259Z" fill="white"/>
</g>
<g filter="url(#filter4_d)">
<rect x="452" y="121" width="130" height="30" rx="5" fill="#29DA65"/>
</g>
<path d="M491.912 135.919H489.1V137.823H492.4V139H487.635V131.891H492.391V133.077H489.1V134.771H491.912V135.919ZM494.466 133.717L494.51 134.327C494.887 133.855 495.394 133.619 496.028 133.619C496.588 133.619 497.005 133.784 497.278 134.112C497.552 134.441 497.692 134.933 497.698 135.587V139H496.287V135.621C496.287 135.322 496.222 135.105 496.092 134.972C495.962 134.835 495.745 134.767 495.442 134.767C495.045 134.767 494.747 134.936 494.549 135.274V139H493.138V133.717H494.466ZM500.75 137.276L501.731 133.717H503.206L501.424 139H500.076L498.294 133.717H499.769L500.75 137.276ZM505.32 139H503.904V133.717H505.32V139ZM503.821 132.35C503.821 132.138 503.891 131.964 504.031 131.827C504.174 131.69 504.368 131.622 504.612 131.622C504.853 131.622 505.045 131.69 505.188 131.827C505.332 131.964 505.403 132.138 505.403 132.35C505.403 132.564 505.33 132.74 505.184 132.877C505.04 133.014 504.85 133.082 504.612 133.082C504.375 133.082 504.183 133.014 504.036 132.877C503.893 132.74 503.821 132.564 503.821 132.35ZM509.549 139C509.484 138.873 509.437 138.715 509.407 138.526C509.065 138.907 508.621 139.098 508.074 139.098C507.557 139.098 507.127 138.948 506.785 138.648C506.447 138.349 506.277 137.971 506.277 137.516C506.277 136.956 506.484 136.526 506.897 136.227C507.314 135.927 507.915 135.776 508.699 135.772H509.349V135.47C509.349 135.226 509.285 135.03 509.158 134.884C509.035 134.737 508.838 134.664 508.567 134.664C508.33 134.664 508.143 134.721 508.006 134.835C507.872 134.949 507.806 135.105 507.806 135.304H506.395C506.395 134.998 506.489 134.715 506.678 134.454C506.867 134.194 507.133 133.99 507.479 133.844C507.824 133.694 508.211 133.619 508.641 133.619C509.292 133.619 509.808 133.784 510.188 134.112C510.573 134.438 510.765 134.897 510.765 135.489V137.779C510.768 138.281 510.838 138.66 510.975 138.917V139H509.549ZM508.382 138.019C508.59 138.019 508.782 137.973 508.958 137.882C509.134 137.787 509.264 137.662 509.349 137.506V136.598H508.821C508.115 136.598 507.739 136.842 507.693 137.33L507.688 137.413C507.688 137.589 507.75 137.734 507.874 137.848C507.998 137.962 508.167 138.019 508.382 138.019ZM514.817 135.04C514.625 135.014 514.456 135.001 514.31 135.001C513.776 135.001 513.426 135.182 513.26 135.543V139H511.849V133.717H513.182L513.221 134.347C513.504 133.862 513.896 133.619 514.397 133.619C514.554 133.619 514.7 133.64 514.837 133.683L514.817 135.04ZM523.621 136.949L524.578 131.891H526.038L524.461 139H522.986L521.829 134.244L520.672 139H519.197L517.62 131.891H519.08L520.042 136.939L521.214 131.891H522.454L523.621 136.949ZM528.118 134.293C528.493 133.844 528.963 133.619 529.529 133.619C530.675 133.619 531.256 134.285 531.272 135.616V139H529.861V135.655C529.861 135.353 529.796 135.13 529.666 134.986C529.536 134.84 529.319 134.767 529.017 134.767C528.603 134.767 528.304 134.926 528.118 135.245V139H526.707V131.5H528.118V134.293ZM535.398 139C535.333 138.873 535.286 138.715 535.257 138.526C534.915 138.907 534.471 139.098 533.924 139.098C533.406 139.098 532.977 138.948 532.635 138.648C532.296 138.349 532.127 137.971 532.127 137.516C532.127 136.956 532.334 136.526 532.747 136.227C533.164 135.927 533.764 135.776 534.549 135.772H535.198V135.47C535.198 135.226 535.135 135.03 535.008 134.884C534.884 134.737 534.687 134.664 534.417 134.664C534.179 134.664 533.992 134.721 533.855 134.835C533.722 134.949 533.655 135.105 533.655 135.304H532.244C532.244 134.998 532.339 134.715 532.527 134.454C532.716 134.194 532.983 133.99 533.328 133.844C533.673 133.694 534.061 133.619 534.49 133.619C535.141 133.619 535.657 133.784 536.038 134.112C536.422 134.438 536.614 134.897 536.614 135.489V137.779C536.618 138.281 536.688 138.66 536.824 138.917V139H535.398ZM534.231 138.019C534.44 138.019 534.632 137.973 534.808 137.882C534.983 137.787 535.114 137.662 535.198 137.506V136.598H534.671C533.965 136.598 533.589 136.842 533.543 137.33L533.538 137.413C533.538 137.589 533.6 137.734 533.724 137.848C533.847 137.962 534.017 138.019 534.231 138.019ZM539.388 132.418V133.717H540.291V134.752H539.388V137.389C539.388 137.584 539.425 137.724 539.5 137.809C539.575 137.893 539.718 137.936 539.93 137.936C540.086 137.936 540.224 137.924 540.345 137.901V138.971C540.068 139.055 539.783 139.098 539.49 139.098C538.501 139.098 537.996 138.598 537.977 137.599V134.752H537.205V133.717H537.977V132.418H539.388ZM543.938 137.54C543.938 137.368 543.852 137.232 543.68 137.135C543.51 137.034 543.237 136.944 542.859 136.866C541.603 136.603 540.975 136.069 540.975 135.265C540.975 134.796 541.168 134.405 541.556 134.093C541.946 133.777 542.456 133.619 543.084 133.619C543.755 133.619 544.29 133.777 544.69 134.093C545.094 134.409 545.296 134.819 545.296 135.323H543.885C543.885 135.121 543.82 134.955 543.689 134.825C543.559 134.692 543.356 134.625 543.079 134.625C542.841 134.625 542.658 134.679 542.527 134.786C542.397 134.894 542.332 135.03 542.332 135.196C542.332 135.353 542.405 135.479 542.552 135.577C542.701 135.672 542.952 135.755 543.304 135.826C543.655 135.895 543.951 135.973 544.192 136.061C544.938 136.334 545.311 136.808 545.311 137.481C545.311 137.963 545.104 138.354 544.69 138.653C544.277 138.95 543.743 139.098 543.089 139.098C542.646 139.098 542.252 139.02 541.907 138.863C541.565 138.704 541.297 138.487 541.102 138.214C540.906 137.937 540.809 137.639 540.809 137.32H542.146C542.16 137.571 542.252 137.763 542.425 137.896C542.597 138.03 542.828 138.097 543.118 138.097C543.388 138.097 543.592 138.046 543.729 137.945C543.868 137.841 543.938 137.706 543.938 137.54ZM549.285 139C549.22 138.873 549.173 138.715 549.144 138.526C548.802 138.907 548.357 139.098 547.811 139.098C547.293 139.098 546.863 138.948 546.521 138.648C546.183 138.349 546.014 137.971 546.014 137.516C546.014 136.956 546.22 136.526 546.634 136.227C547.05 135.927 547.651 135.776 548.436 135.772H549.085V135.47C549.085 135.226 549.021 135.03 548.895 134.884C548.771 134.737 548.574 134.664 548.304 134.664C548.066 134.664 547.879 134.721 547.742 134.835C547.609 134.949 547.542 135.105 547.542 135.304H546.131C546.131 134.998 546.225 134.715 546.414 134.454C546.603 134.194 546.87 133.99 547.215 133.844C547.56 133.694 547.947 133.619 548.377 133.619C549.028 133.619 549.544 133.784 549.925 134.112C550.309 134.438 550.501 134.897 550.501 135.489V137.779C550.504 138.281 550.574 138.66 550.711 138.917V139H549.285ZM548.118 138.019C548.326 138.019 548.519 137.973 548.694 137.882C548.87 137.787 549 137.662 549.085 137.506V136.598H548.558C547.851 136.598 547.475 136.842 547.43 137.33L547.425 137.413C547.425 137.589 547.487 137.734 547.61 137.848C547.734 137.962 547.903 138.019 548.118 138.019ZM556.341 136.407C556.341 137.221 556.155 137.874 555.784 138.365C555.416 138.854 554.918 139.098 554.29 139.098C553.756 139.098 553.325 138.912 552.996 138.541V141.031H551.585V133.717H552.894L552.942 134.234C553.284 133.824 553.73 133.619 554.28 133.619C554.931 133.619 555.438 133.86 555.799 134.342C556.16 134.824 556.341 135.488 556.341 136.334V136.407ZM554.93 136.305C554.93 135.813 554.842 135.434 554.666 135.167C554.493 134.9 554.241 134.767 553.909 134.767C553.466 134.767 553.162 134.936 552.996 135.274V137.438C553.169 137.786 553.476 137.96 553.919 137.96C554.593 137.96 554.93 137.408 554.93 136.305ZM561.976 136.407C561.976 137.221 561.79 137.874 561.419 138.365C561.051 138.854 560.553 139.098 559.925 139.098C559.391 139.098 558.96 138.912 558.631 138.541V141.031H557.22V133.717H558.528L558.577 134.234C558.919 133.824 559.365 133.619 559.915 133.619C560.566 133.619 561.072 133.86 561.434 134.342C561.795 134.824 561.976 135.488 561.976 136.334V136.407ZM560.564 136.305C560.564 135.813 560.477 135.434 560.301 135.167C560.128 134.9 559.876 134.767 559.544 134.767C559.101 134.767 558.797 134.936 558.631 135.274V137.438C558.803 137.786 559.111 137.96 559.554 137.96C560.228 137.96 560.564 137.408 560.564 136.305Z" fill="white"/>
<path d="M474.369 129.078H474.366C470.855 129.078 468 131.934 468 135.445C468 136.838 468.449 138.129 469.212 139.177L468.419 141.543L470.866 140.76C471.873 141.427 473.074 141.812 474.369 141.812C477.879 141.812 480.734 138.956 480.734 135.445C480.734 131.935 477.879 129.078 474.369 129.078ZM478.074 138.069C477.92 138.503 477.31 138.863 476.824 138.968C476.491 139.039 476.057 139.095 474.594 138.489C472.723 137.714 471.518 135.812 471.424 135.689C471.334 135.565 470.668 134.682 470.668 133.768C470.668 132.855 471.132 132.41 471.319 132.219C471.473 132.062 471.726 131.99 471.97 131.99C472.049 131.99 472.12 131.994 472.183 131.997C472.37 132.005 472.464 132.017 472.588 132.312C472.741 132.682 473.115 133.596 473.16 133.69C473.205 133.783 473.251 133.911 473.187 134.034C473.127 134.162 473.075 134.218 472.981 134.326C472.887 134.435 472.798 134.517 472.704 134.633C472.618 134.735 472.521 134.843 472.629 135.03C472.737 135.213 473.111 135.823 473.662 136.314C474.373 136.946 474.949 137.149 475.155 137.234C475.309 137.298 475.492 137.283 475.604 137.164C475.746 137.01 475.922 136.755 476.101 136.505C476.229 136.325 476.39 136.302 476.558 136.366C476.73 136.426 477.64 136.876 477.827 136.969C478.014 137.063 478.137 137.107 478.183 137.186C478.227 137.265 478.227 137.635 478.074 138.069Z" fill="white"/>
<g clip-path="url(#clip4)">
<path d="M587.665 29.8415C588.286 30.4631 588.286 31.471 587.665 32.0926C587.043 32.7142 586.035 32.7142 585.413 32.0926C584.792 31.471 584.792 30.4631 585.413 29.8415C586.035 29.2198 587.043 29.2198 587.665 29.8415Z" fill="#97A3AF"/>
<path d="M587.665 34.6167C588.286 35.2384 588.286 36.2462 587.665 36.8679C587.043 37.4895 586.035 37.4895 585.413 36.8679C584.792 36.2462 584.792 35.2384 585.413 34.6167C586.035 33.9951 587.043 33.9951 587.665 34.6167" fill="#97A3AF"/>
<path d="M587.665 39.392C588.286 40.0136 588.286 41.0215 587.665 41.6431C587.043 42.2648 586.035 42.2648 585.413 41.6431C584.792 41.0215 584.792 40.0136 585.413 39.392C586.035 38.7704 587.043 38.7704 587.665 39.392" fill="#97A3AF"/>
</g>
<rect x="466.836" y="29.375" width="109.516" height="12.7344" fill="#F5F5F5"/>
<g clip-path="url(#clip5)">
<path d="M459.195 34.8326H450.099L453.283 31.6491L451.919 30.2847L446.461 35.7422L451.919 41.1998L453.283 39.8354L450.099 36.6518H459.195V34.8326Z" fill="#97A3AF"/>
</g>
<defs>
<filter id="filter0_d" x="178" y="0" width="300" height="304" filterUnits="userSpaceOnUse" color-interpolation-filters="sRGB">
<feFlood flood-opacity="0" result="BackgroundImageFix"/>
<feColorMatrix in="SourceAlpha" type="matrix" values="0 0 0 0 0 0 0 0 0 0 0 0 0 0 0 0 0 0 127 0"/>
<feOffset dy="4"/>
<feColorMatrix type="matrix" values="0 0 0 0 0 0 0 0 0 0 0 0 0 0 0 0 0 0 0.15 0"/>
<feBlend mode="normal" in2="BackgroundImageFix" result="effect1_dropShadow"/>
<feBlend mode="normal" in="SourceGraphic" in2="effect1_dropShadow" result="shape"/>
</filter>
<filter id="filter1_d" x="225.857" y="55.0714" width="200" height="189.286" filterUnits="userSpaceOnUse" color-interpolation-filters="sRGB">
<feFlood flood-opacity="0" result="BackgroundImageFix"/>
<feColorMatrix in="SourceAlpha" type="matrix" values="0 0 0 0 0 0 0 0 0 0 0 0 0 0 0 0 0 0 127 0"/>
<feOffset dy="4"/>
<feGaussianBlur stdDeviation="5"/>
<feColorMatrix type="matrix" values="0 0 0 0 0 0 0 0 0 0 0 0 0 0 0 0 0 0 0.25 0"/>
<feBlend mode="normal" in2="BackgroundImageFix" result="effect1_dropShadow"/>
<feBlend mode="normal" in="SourceGraphic" in2="effect1_dropShadow" result="shape"/>
</filter>
<filter id="filter2_d" x="450" y="162" width="134" height="34" filterUnits="userSpaceOnUse" color-interpolation-filters="sRGB">
<feFlood flood-opacity="0" result="BackgroundImageFix"/>
<feColorMatrix in="SourceAlpha" type="matrix" values="0 0 0 0 0 0 0 0 0 0 0 0 0 0 0 0 0 0 127 0"/>
<feOffset dy="1"/>
<feGaussianBlur stdDeviation="1"/>
<feColorMatrix type="matrix" values="0 0 0 0 0 0 0 0 0 0 0 0 0 0 0 0 0 0 0.25 0"/>
<feBlend mode="normal" in2="BackgroundImageFix" result="effect1_dropShadow"/>
<feBlend mode="normal" in="SourceGraphic" in2="effect1_dropShadow" result="shape"/>
</filter>
<filter id="filter3_d" x="450" y="205" width="134" height="34" filterUnits="userSpaceOnUse" color-interpolation-filters="sRGB">
<feFlood flood-opacity="0" result="BackgroundImageFix"/>
<feColorMatrix in="SourceAlpha" type="matrix" values="0 0 0 0 0 0 0 0 0 0 0 0 0 0 0 0 0 0 127 0"/>
<feOffset dy="1"/>
<feGaussianBlur stdDeviation="1"/>
<feColorMatrix type="matrix" values="0 0 0 0 0 0 0 0 0 0 0 0 0 0 0 0 0 0 0.25 0"/>
<feBlend mode="normal" in2="BackgroundImageFix" result="effect1_dropShadow"/>
<feBlend mode="normal" in="SourceGraphic" in2="effect1_dropShadow" result="shape"/>
</filter>
<filter id="filter4_d" x="450" y="120" width="134" height="34" filterUnits="userSpaceOnUse" color-interpolation-filters="sRGB">
<feFlood flood-opacity="0" result="BackgroundImageFix"/>
<feColorMatrix in="SourceAlpha" type="matrix" values="0 0 0 0 0 0 0 0 0 0 0 0 0 0 0 0 0 0 127 0"/>
<feOffset dy="1"/>
<feGaussianBlur stdDeviation="1"/>
<feColorMatrix type="matrix" values="0 0 0 0 0 0 0 0 0 0 0 0 0 0 0 0 0 0 0.25 0"/>
<feBlend mode="normal" in2="BackgroundImageFix" result="effect1_dropShadow"/>
<feBlend mode="normal" in="SourceGraphic" in2="effect1_dropShadow" result="shape"/>
</filter>
<clipPath id="clip0">
<rect width="10" height="10" fill="white" transform="translate(65 58)"/>
</clipPath>
<clipPath id="clip1">
<rect width="32.5378" height="32.5378" fill="white" transform="translate(351.93 224.519) rotate(-10)"/>
</clipPath>
<clipPath id="clip2">
<rect width="66.4286" height="66.4286" fill="white" transform="translate(292.643 112.5)"/>
</clipPath>
<clipPath id="clip3">
<rect width="12.7344" height="12.7344" fill="white" transform="translate(468 172.102)"/>
</clipPath>
<clipPath id="clip4">
<rect width="12.7344" height="12.7344" fill="white" transform="translate(580.172 29.375)"/>
</clipPath>
<clipPath id="clip5">
<rect width="12.7344" height="12.7344" fill="white" transform="translate(446.461 29.375)"/>
</clipPath>
</defs>
</svg>
