<svg width="600" height="345" viewBox="0 0 600 345" fill="none" xmlns="http://www.w3.org/2000/svg">
<path d="M49.5 62C49.5 57.8579 52.8579 54.5 57 54.5H440C444.142 54.5 447.5 57.8579 447.5 62V309.5H49.5V62Z" fill="white" stroke="black" stroke-width="15"/>
<path d="M95.3271 173.592H91.2139V185H89.5352V173.592H85.4307V172.203H95.3271V173.592ZM101.998 184.06C101.365 184.804 100.437 185.176 99.2119 185.176C98.1982 185.176 97.4248 184.883 96.8916 184.297C96.3643 183.705 96.0977 182.832 96.0918 181.678V175.49H97.7178V181.634C97.7178 183.075 98.3037 183.796 99.4756 183.796C100.718 183.796 101.544 183.333 101.954 182.407V175.49H103.58V185H102.033L101.998 184.06ZM116.061 182.478C116.061 182.038 115.894 181.698 115.56 181.458C115.231 181.212 114.654 181.001 113.828 180.825C113.008 180.649 112.354 180.438 111.868 180.192C111.388 179.946 111.03 179.653 110.796 179.313C110.567 178.974 110.453 178.569 110.453 178.101C110.453 177.321 110.781 176.662 111.438 176.123C112.1 175.584 112.943 175.314 113.969 175.314C115.047 175.314 115.92 175.593 116.588 176.149C117.262 176.706 117.599 177.418 117.599 178.285H115.964C115.964 177.84 115.773 177.456 115.393 177.134C115.018 176.812 114.543 176.65 113.969 176.65C113.377 176.65 112.914 176.779 112.58 177.037C112.246 177.295 112.079 177.632 112.079 178.048C112.079 178.44 112.234 178.736 112.545 178.936C112.855 179.135 113.415 179.325 114.224 179.507C115.038 179.688 115.697 179.905 116.201 180.157C116.705 180.409 117.077 180.714 117.317 181.071C117.563 181.423 117.687 181.854 117.687 182.363C117.687 183.213 117.347 183.896 116.667 184.411C115.987 184.921 115.105 185.176 114.021 185.176C113.26 185.176 112.586 185.041 112 184.771C111.414 184.502 110.954 184.127 110.62 183.646C110.292 183.16 110.128 182.636 110.128 182.073H111.754C111.783 182.618 112 183.052 112.404 183.374C112.814 183.69 113.354 183.849 114.021 183.849C114.637 183.849 115.129 183.726 115.498 183.479C115.873 183.228 116.061 182.894 116.061 182.478ZM121.571 185H119.945V175.49H121.571V185ZM119.813 172.968C119.813 172.704 119.893 172.481 120.051 172.3C120.215 172.118 120.455 172.027 120.771 172.027C121.088 172.027 121.328 172.118 121.492 172.3C121.656 172.481 121.738 172.704 121.738 172.968C121.738 173.231 121.656 173.451 121.492 173.627C121.328 173.803 121.088 173.891 120.771 173.891C120.455 173.891 120.215 173.803 120.051 173.627C119.893 173.451 119.813 173.231 119.813 172.968ZM126.388 173.188V175.49H128.163V176.747H126.388V182.645C126.388 183.025 126.467 183.312 126.625 183.506C126.783 183.693 127.053 183.787 127.434 183.787C127.621 183.787 127.879 183.752 128.207 183.682V185C127.779 185.117 127.363 185.176 126.959 185.176C126.232 185.176 125.685 184.956 125.315 184.517C124.946 184.077 124.762 183.453 124.762 182.645V176.747H123.03V175.49H124.762V173.188H126.388ZM131.837 185H130.211V175.49H131.837V185ZM130.079 172.968C130.079 172.704 130.158 172.481 130.316 172.3C130.48 172.118 130.721 172.027 131.037 172.027C131.354 172.027 131.594 172.118 131.758 172.3C131.922 172.481 132.004 172.704 132.004 172.968C132.004 173.231 131.922 173.451 131.758 173.627C131.594 173.803 131.354 173.891 131.037 173.891C130.721 173.891 130.48 173.803 130.316 173.627C130.158 173.451 130.079 173.231 130.079 172.968ZM134.017 180.157C134.017 179.226 134.198 178.388 134.562 177.644C134.931 176.899 135.44 176.325 136.091 175.921C136.747 175.517 137.494 175.314 138.332 175.314C139.627 175.314 140.673 175.763 141.47 176.659C142.272 177.556 142.674 178.748 142.674 180.236V180.351C142.674 181.276 142.495 182.108 142.138 182.847C141.786 183.579 141.279 184.15 140.617 184.561C139.961 184.971 139.205 185.176 138.35 185.176C137.061 185.176 136.015 184.728 135.212 183.831C134.415 182.935 134.017 181.748 134.017 180.271V180.157ZM135.651 180.351C135.651 181.405 135.895 182.252 136.381 182.891C136.873 183.529 137.529 183.849 138.35 183.849C139.176 183.849 139.832 183.526 140.318 182.882C140.805 182.231 141.048 181.323 141.048 180.157C141.048 179.114 140.799 178.271 140.301 177.626C139.809 176.976 139.152 176.65 138.332 176.65C137.529 176.65 136.882 176.97 136.39 177.608C135.897 178.247 135.651 179.161 135.651 180.351ZM157.598 182.759L159.426 175.49H161.052L158.283 185H156.965L154.653 177.793L152.403 185H151.085L148.325 175.49H149.942L151.814 182.609L154.029 175.49H155.339L157.598 182.759ZM166.659 185.176C165.37 185.176 164.321 184.754 163.513 183.91C162.704 183.061 162.3 181.927 162.3 180.509V180.21C162.3 179.267 162.479 178.426 162.836 177.688C163.199 176.943 163.703 176.363 164.348 175.947C164.998 175.525 165.701 175.314 166.457 175.314C167.693 175.314 168.654 175.722 169.34 176.536C170.025 177.351 170.368 178.517 170.368 180.034V180.711H163.926C163.949 181.648 164.222 182.407 164.743 182.987C165.271 183.562 165.938 183.849 166.747 183.849C167.321 183.849 167.808 183.731 168.206 183.497C168.604 183.263 168.953 182.952 169.252 182.565L170.245 183.339C169.448 184.563 168.253 185.176 166.659 185.176ZM166.457 176.65C165.801 176.65 165.25 176.891 164.805 177.371C164.359 177.846 164.084 178.514 163.979 179.375H168.742V179.252C168.695 178.426 168.473 177.787 168.074 177.336C167.676 176.879 167.137 176.65 166.457 176.65ZM180.309 180.351C180.309 181.804 179.975 182.973 179.307 183.857C178.639 184.736 177.742 185.176 176.617 185.176C175.416 185.176 174.487 184.751 173.831 183.901L173.752 185H172.258V171.5H173.884V176.536C174.54 175.722 175.445 175.314 176.6 175.314C177.754 175.314 178.659 175.751 179.315 176.624C179.978 177.497 180.309 178.692 180.309 180.21V180.351ZM178.683 180.166C178.683 179.059 178.469 178.203 178.041 177.6C177.613 176.996 176.998 176.694 176.195 176.694C175.123 176.694 174.353 177.192 173.884 178.188V182.302C174.382 183.298 175.158 183.796 176.213 183.796C176.992 183.796 177.599 183.494 178.032 182.891C178.466 182.287 178.683 181.379 178.683 180.166Z" fill="#C4C4C4"/>
<path d="M0 322C0 319.239 2.23858 317 5 317H491C493.761 317 496 319.239 496 322V325H0V322Z" fill="#E5E5E5"/>
<path d="M0 325H496V329C496 334.523 491.523 339 486 339H9.99999C4.47714 339 0 334.523 0 329V325Z" fill="#C4C4C4"/>
<path d="M430.884 68.3661C431.372 68.8543 431.372 69.6457 430.884 70.1339C430.396 70.622 429.604 70.622 429.116 70.1339C428.628 69.6457 428.628 68.8543 429.116 68.3661C429.604 67.878 430.396 67.878 430.884 68.3661Z" fill="#97A3AF"/>
<path d="M430.884 72.1161C431.372 72.6043 431.372 73.3957 430.884 73.8839C430.396 74.372 429.604 74.372 429.116 73.8839C428.628 73.3957 428.628 72.6043 429.116 72.1161C429.604 71.628 430.396 71.628 430.884 72.1161Z" fill="#97A3AF"/>
<path d="M430.884 75.8661C431.372 76.3543 431.372 77.1457 430.884 77.6339C430.396 78.122 429.604 78.122 429.116 77.6339C428.628 77.1457 428.628 76.3543 429.116 75.8661C429.604 75.378 430.396 75.378 430.884 75.8661Z" fill="#97A3AF"/>
<rect x="81" y="68" width="339" height="10" fill="#F5F5F5"/>
<g clip-path="url(#clip0)">
<path d="M75 72.2858H67.8571L70.3572 69.7858L69.2857 68.7144L65 73.0001L69.2857 77.2858L70.3571 76.2143L67.8571 73.7143H75V72.2858Z" fill="#97A3AF"/>
</g>
<g filter="url(#filter0_d)">
<circle cx="414" cy="285" r="11" fill="#2A94F4"/>
<path d="M401.684 194.2L409.414 278.771L335.94 247.956L401.684 194.2Z" fill="#F5F5F5"/>
<circle cx="353" cy="140" r="140" fill="white"/>
<circle cx="353" cy="140" r="135" stroke="#2A94F4" stroke-opacity="0.3" stroke-width="10"/>
<circle cx="392.848" cy="221.848" r="23.8477" fill="#0F8DFF"/>
<path d="M408.592 232.095L415.288 243.274H401.896L408.592 232.095Z" fill="#0F8DFF"/>
<g clip-path="url(#clip1)">
<path d="M392.251 209.138L389.038 209.704C388.595 209.782 388.294 210.18 388.367 210.593C388.44 211.007 388.858 211.278 389.302 211.199L392.514 210.633C392.958 210.555 393.258 210.157 393.186 209.744C393.113 209.331 392.695 209.059 392.251 209.138Z" fill="white"/>
<path d="M396.27 205.859L384.307 207.969C382.658 208.259 381.553 209.838 381.843 211.487L386.062 235.413C386.353 237.061 387.931 238.167 389.58 237.876L401.543 235.767C403.192 235.476 404.297 233.897 404.006 232.249L399.788 208.323C399.497 206.674 397.918 205.569 396.27 205.859ZM402.511 232.512C402.657 233.338 402.105 234.126 401.279 234.271L389.316 236.381C388.49 236.526 387.703 235.975 387.557 235.149L383.339 211.223C383.193 210.397 383.744 209.61 384.57 209.464L396.533 207.355C397.359 207.209 398.147 207.76 398.292 208.586L402.511 232.512Z" fill="white"/>
<rect x="382.916" y="216.924" width="13.9733" height="8.75659" transform="rotate(43 382.916 216.924)" fill="#0F8DFF"/>
<rect x="393.712" y="218.256" width="13.9733" height="8.75659" transform="rotate(-43 393.712 218.256)" fill="#0F8DFF"/>
</g>
<path d="M405.39 216.728L391.284 230.832C390.239 231.877 388.545 231.877 387.499 230.832L380.218 223.55C379.173 222.506 379.173 220.811 380.218 219.766C381.263 218.721 382.957 218.721 384.002 219.766L389.392 225.156L401.605 212.943C402.65 211.898 404.344 211.899 405.389 212.943C406.434 213.988 406.434 215.682 405.39 216.728Z" fill="white"/>
<path d="M405.39 216.728L391.284 230.832C390.239 231.877 388.545 231.877 387.499 230.832L380.218 223.55C379.173 222.506 379.173 220.811 380.218 219.766C381.263 218.721 382.957 218.721 384.002 219.766L389.392 225.156L401.605 212.943C402.65 211.898 404.344 211.899 405.389 212.943C406.434 213.988 406.434 215.682 405.39 216.728Z" stroke="#0F8DFF"/>
<g filter="url(#filter1_d)">
<path d="M386 215L408.517 195.5H363.483L386 215Z" fill="white"/>
<rect x="267" y="57" width="168" height="139" rx="15" fill="white"/>
</g>
<path d="M294.875 87.3711H292.41V89.3867H295.273V90H291.66V84.3125H295.234V84.9297H292.41V86.7578H294.875V87.3711ZM298.555 88.8789C298.555 88.6836 298.48 88.5326 298.332 88.4258C298.186 88.3164 297.93 88.2227 297.562 88.1445C297.198 88.0664 296.908 87.9727 296.691 87.8633C296.478 87.7539 296.319 87.6237 296.215 87.4727C296.113 87.3216 296.062 87.1419 296.062 86.9336C296.062 86.5872 296.208 86.2943 296.5 86.0547C296.794 85.8151 297.169 85.6953 297.625 85.6953C298.104 85.6953 298.492 85.819 298.789 86.0664C299.089 86.3138 299.238 86.6302 299.238 87.0156H298.512C298.512 86.8177 298.427 86.6471 298.258 86.5039C298.091 86.3607 297.88 86.2891 297.625 86.2891C297.362 86.2891 297.156 86.3464 297.008 86.4609C296.859 86.5755 296.785 86.7253 296.785 86.9102C296.785 87.0846 296.854 87.2161 296.992 87.3047C297.13 87.3932 297.379 87.4779 297.738 87.5586C298.1 87.6393 298.393 87.7357 298.617 87.8477C298.841 87.9596 299.007 88.0951 299.113 88.2539C299.223 88.4102 299.277 88.6016 299.277 88.8281C299.277 89.2057 299.126 89.5091 298.824 89.7383C298.522 89.9648 298.13 90.0781 297.648 90.0781C297.31 90.0781 297.01 90.0182 296.75 89.8984C296.49 89.7786 296.285 89.612 296.137 89.3984C295.991 89.1823 295.918 88.9492 295.918 88.6992H296.641C296.654 88.9414 296.75 89.1341 296.93 89.2773C297.112 89.418 297.352 89.4883 297.648 89.4883C297.922 89.4883 298.141 89.4336 298.305 89.3242C298.471 89.2122 298.555 89.0638 298.555 88.8789ZM301.914 89.4883C302.172 89.4883 302.397 89.4102 302.59 89.2539C302.783 89.0977 302.889 88.9023 302.91 88.668H303.594C303.581 88.9102 303.497 89.1406 303.344 89.3594C303.19 89.5781 302.984 89.7526 302.727 89.8828C302.471 90.013 302.201 90.0781 301.914 90.0781C301.339 90.0781 300.88 89.8867 300.539 89.5039C300.201 89.1185 300.031 88.5924 300.031 87.9258V87.8047C300.031 87.3932 300.107 87.0273 300.258 86.707C300.409 86.3867 300.625 86.138 300.906 85.9609C301.19 85.7839 301.525 85.6953 301.91 85.6953C302.384 85.6953 302.777 85.8372 303.09 86.1211C303.405 86.4049 303.573 86.7734 303.594 87.2266H302.91C302.889 86.9531 302.785 86.7292 302.598 86.5547C302.413 86.3776 302.184 86.2891 301.91 86.2891C301.543 86.2891 301.258 86.4219 301.055 86.6875C300.854 86.9505 300.754 87.332 300.754 87.832V87.9688C300.754 88.4557 300.854 88.8307 301.055 89.0938C301.255 89.3568 301.542 89.4883 301.914 89.4883ZM307.016 90C306.974 89.9167 306.94 89.7682 306.914 89.5547C306.578 89.9036 306.177 90.0781 305.711 90.0781C305.294 90.0781 304.952 89.9609 304.684 89.7266C304.418 89.4896 304.285 89.1901 304.285 88.8281C304.285 88.388 304.452 88.0469 304.785 87.8047C305.121 87.5599 305.592 87.4375 306.199 87.4375H306.902V87.1055C306.902 86.8529 306.827 86.6523 306.676 86.5039C306.525 86.3529 306.302 86.2773 306.008 86.2773C305.75 86.2773 305.534 86.3424 305.359 86.4727C305.185 86.6029 305.098 86.7604 305.098 86.9453H304.371C304.371 86.7344 304.445 86.5312 304.594 86.3359C304.745 86.138 304.948 85.9818 305.203 85.8672C305.461 85.7526 305.743 85.6953 306.051 85.6953C306.538 85.6953 306.919 85.8177 307.195 86.0625C307.471 86.3047 307.615 86.6393 307.625 87.0664V89.0117C307.625 89.3997 307.674 89.7083 307.773 89.9375V90H307.016ZM305.816 89.4492C306.043 89.4492 306.258 89.3906 306.461 89.2734C306.664 89.1562 306.811 89.0039 306.902 88.8164V87.9492H306.336C305.451 87.9492 305.008 88.2083 305.008 88.7266C305.008 88.9531 305.083 89.1302 305.234 89.2578C305.385 89.3854 305.579 89.4492 305.816 89.4492ZM309.441 85.7734L309.465 86.3047C309.788 85.8984 310.21 85.6953 310.73 85.6953C311.624 85.6953 312.074 86.1992 312.082 87.207V90H311.359V87.2031C311.357 86.8984 311.286 86.6732 311.148 86.5273C311.013 86.3815 310.801 86.3086 310.512 86.3086C310.277 86.3086 310.072 86.3711 309.895 86.4961C309.717 86.6211 309.579 86.7852 309.48 86.9883V90H308.758V85.7734H309.441ZM314.926 90.0781C314.353 90.0781 313.887 89.8906 313.527 89.5156C313.168 89.138 312.988 88.6341 312.988 88.0039V87.8711C312.988 87.4518 313.068 87.0781 313.227 86.75C313.388 86.4193 313.612 86.1615 313.898 85.9766C314.188 85.7891 314.5 85.6953 314.836 85.6953C315.385 85.6953 315.812 85.8763 316.117 86.2383C316.422 86.6003 316.574 87.1185 316.574 87.793V88.0938H313.711C313.721 88.5104 313.842 88.8477 314.074 89.1055C314.309 89.3607 314.605 89.4883 314.965 89.4883C315.22 89.4883 315.436 89.4362 315.613 89.332C315.79 89.2279 315.945 89.0898 316.078 88.918L316.52 89.2617C316.165 89.806 315.634 90.0781 314.926 90.0781ZM314.836 86.2891C314.544 86.2891 314.299 86.3958 314.102 86.6094C313.904 86.8203 313.781 87.1172 313.734 87.5H315.852V87.4453C315.831 87.0781 315.732 86.7943 315.555 86.5938C315.378 86.3906 315.138 86.2891 314.836 86.2891ZM320.023 90C319.982 89.9167 319.948 89.7682 319.922 89.5547C319.586 89.9036 319.185 90.0781 318.719 90.0781C318.302 90.0781 317.96 89.9609 317.691 89.7266C317.426 89.4896 317.293 89.1901 317.293 88.8281C317.293 88.388 317.46 88.0469 317.793 87.8047C318.129 87.5599 318.6 87.4375 319.207 87.4375H319.91V87.1055C319.91 86.8529 319.835 86.6523 319.684 86.5039C319.533 86.3529 319.31 86.2773 319.016 86.2773C318.758 86.2773 318.542 86.3424 318.367 86.4727C318.193 86.6029 318.105 86.7604 318.105 86.9453H317.379C317.379 86.7344 317.453 86.5312 317.602 86.3359C317.753 86.138 317.956 85.9818 318.211 85.8672C318.469 85.7526 318.751 85.6953 319.059 85.6953C319.546 85.6953 319.927 85.8177 320.203 86.0625C320.479 86.3047 320.622 86.6393 320.633 87.0664V89.0117C320.633 89.3997 320.682 89.7083 320.781 89.9375V90H320.023ZM318.824 89.4492C319.051 89.4492 319.266 89.3906 319.469 89.2734C319.672 89.1562 319.819 89.0039 319.91 88.8164V87.9492H319.344C318.458 87.9492 318.016 88.2083 318.016 88.7266C318.016 88.9531 318.091 89.1302 318.242 89.2578C318.393 89.3854 318.587 89.4492 318.824 89.4492ZM325.504 90.0781C324.931 90.0781 324.465 89.8906 324.105 89.5156C323.746 89.138 323.566 88.6341 323.566 88.0039V87.8711C323.566 87.4518 323.646 87.0781 323.805 86.75C323.966 86.4193 324.19 86.1615 324.477 85.9766C324.766 85.7891 325.078 85.6953 325.414 85.6953C325.964 85.6953 326.391 85.8763 326.695 86.2383C327 86.6003 327.152 87.1185 327.152 87.793V88.0938H324.289C324.299 88.5104 324.421 88.8477 324.652 89.1055C324.887 89.3607 325.184 89.4883 325.543 89.4883C325.798 89.4883 326.014 89.4362 326.191 89.332C326.368 89.2279 326.523 89.0898 326.656 88.918L327.098 89.2617C326.743 89.806 326.212 90.0781 325.504 90.0781ZM325.414 86.2891C325.122 86.2891 324.878 86.3958 324.68 86.6094C324.482 86.8203 324.359 87.1172 324.312 87.5H326.43V87.4453C326.409 87.0781 326.31 86.7943 326.133 86.5938C325.956 86.3906 325.716 86.2891 325.414 86.2891ZM328.777 90H328.055V84H328.777V90ZM333.617 89.4883C333.875 89.4883 334.1 89.4102 334.293 89.2539C334.486 89.0977 334.592 88.9023 334.613 88.668H335.297C335.284 88.9102 335.201 89.1406 335.047 89.3594C334.893 89.5781 334.688 89.7526 334.43 89.8828C334.174 90.013 333.904 90.0781 333.617 90.0781C333.042 90.0781 332.583 89.8867 332.242 89.5039C331.904 89.1185 331.734 88.5924 331.734 87.9258V87.8047C331.734 87.3932 331.81 87.0273 331.961 86.707C332.112 86.3867 332.328 86.138 332.609 85.9609C332.893 85.7839 333.228 85.6953 333.613 85.6953C334.087 85.6953 334.48 85.8372 334.793 86.1211C335.108 86.4049 335.276 86.7734 335.297 87.2266H334.613C334.592 86.9531 334.488 86.7292 334.301 86.5547C334.116 86.3776 333.887 86.2891 333.613 86.2891C333.246 86.2891 332.961 86.4219 332.758 86.6875C332.557 86.9505 332.457 87.332 332.457 87.832V87.9688C332.457 88.4557 332.557 88.8307 332.758 89.0938C332.958 89.3568 333.245 89.4883 333.617 89.4883ZM335.918 87.8477C335.918 87.4336 335.999 87.0612 336.16 86.7305C336.324 86.3997 336.551 86.1445 336.84 85.9648C337.132 85.7852 337.464 85.6953 337.836 85.6953C338.411 85.6953 338.876 85.8945 339.23 86.293C339.587 86.6914 339.766 87.2214 339.766 87.8828V87.9336C339.766 88.3451 339.686 88.7148 339.527 89.043C339.371 89.3685 339.146 89.6224 338.852 89.8047C338.56 89.987 338.224 90.0781 337.844 90.0781C337.271 90.0781 336.806 89.8789 336.449 89.4805C336.095 89.082 335.918 88.5547 335.918 87.8984V87.8477ZM336.645 87.9336C336.645 88.4023 336.753 88.7786 336.969 89.0625C337.188 89.3464 337.479 89.4883 337.844 89.4883C338.211 89.4883 338.503 89.3451 338.719 89.0586C338.935 88.7695 339.043 88.3659 339.043 87.8477C339.043 87.3841 338.932 87.0091 338.711 86.7227C338.492 86.4336 338.201 86.2891 337.836 86.2891C337.479 86.2891 337.191 86.431 336.973 86.7148C336.754 86.9987 336.645 87.4049 336.645 87.9336ZM338.164 84H339.039L337.992 85.1484H337.41L338.164 84ZM340.496 87.8516C340.496 87.2031 340.65 86.6823 340.957 86.2891C341.264 85.8932 341.667 85.6953 342.164 85.6953C342.659 85.6953 343.051 85.8646 343.34 86.2031V84H344.062V90H343.398L343.363 89.5469C343.074 89.901 342.672 90.0781 342.156 90.0781C341.667 90.0781 341.267 89.8776 340.957 89.4766C340.65 89.0755 340.496 88.5521 340.496 87.9062V87.8516ZM341.219 87.9336C341.219 88.4128 341.318 88.7878 341.516 89.0586C341.714 89.3294 341.987 89.4648 342.336 89.4648C342.794 89.4648 343.129 89.2591 343.34 88.8477V86.9062C343.124 86.5078 342.792 86.3086 342.344 86.3086C341.99 86.3086 341.714 86.4453 341.516 86.7188C341.318 86.9922 341.219 87.3971 341.219 87.9336ZM345.973 90H345.25V85.7734H345.973V90ZM345.191 84.6523C345.191 84.5352 345.227 84.4362 345.297 84.3555C345.37 84.2747 345.477 84.2344 345.617 84.2344C345.758 84.2344 345.865 84.2747 345.938 84.3555C346.01 84.4362 346.047 84.5352 346.047 84.6523C346.047 84.7695 346.01 84.8672 345.938 84.9453C345.865 85.0234 345.758 85.0625 345.617 85.0625C345.477 85.0625 345.37 85.0234 345.297 84.9453C345.227 84.8672 345.191 84.7695 345.191 84.6523ZM346.961 87.8516C346.961 87.1927 347.113 86.6693 347.418 86.2812C347.723 85.8906 348.126 85.6953 348.629 85.6953C349.145 85.6953 349.547 85.8776 349.836 86.2422L349.871 85.7734H350.531V89.8984C350.531 90.4453 350.368 90.8763 350.043 91.1914C349.72 91.5065 349.285 91.6641 348.738 91.6641C348.434 91.6641 348.135 91.599 347.844 91.4688C347.552 91.3385 347.329 91.1602 347.176 90.9336L347.551 90.5C347.861 90.8828 348.24 91.0742 348.688 91.0742C349.039 91.0742 349.312 90.9753 349.508 90.7773C349.706 90.5794 349.805 90.3008 349.805 89.9414V89.5781C349.516 89.9115 349.121 90.0781 348.621 90.0781C348.126 90.0781 347.725 89.8789 347.418 89.4805C347.113 89.082 346.961 88.5391 346.961 87.8516ZM347.688 87.9336C347.688 88.4102 347.785 88.7852 347.98 89.0586C348.176 89.3294 348.449 89.4648 348.801 89.4648C349.257 89.4648 349.591 89.2578 349.805 88.8438V86.9141C349.583 86.5104 349.251 86.3086 348.809 86.3086C348.457 86.3086 348.182 86.4453 347.984 86.7188C347.786 86.9922 347.688 87.3971 347.688 87.9336ZM351.434 87.8477C351.434 87.4336 351.514 87.0612 351.676 86.7305C351.84 86.3997 352.066 86.1445 352.355 85.9648C352.647 85.7852 352.979 85.6953 353.352 85.6953C353.927 85.6953 354.392 85.8945 354.746 86.293C355.103 86.6914 355.281 87.2214 355.281 87.8828V87.9336C355.281 88.3451 355.202 88.7148 355.043 89.043C354.887 89.3685 354.661 89.6224 354.367 89.8047C354.076 89.987 353.74 90.0781 353.359 90.0781C352.786 90.0781 352.322 89.8789 351.965 89.4805C351.611 89.082 351.434 88.5547 351.434 87.8984V87.8477ZM352.16 87.9336C352.16 88.4023 352.268 88.7786 352.484 89.0625C352.703 89.3464 352.995 89.4883 353.359 89.4883C353.727 89.4883 354.018 89.3451 354.234 89.0586C354.451 88.7695 354.559 88.3659 354.559 87.8477C354.559 87.3841 354.448 87.0091 354.227 86.7227C354.008 86.4336 353.716 86.2891 353.352 86.2891C352.995 86.2891 352.707 86.431 352.488 86.7148C352.27 86.9987 352.16 87.4049 352.16 87.9336ZM357.996 87.8516C357.996 87.2031 358.15 86.6823 358.457 86.2891C358.764 85.8932 359.167 85.6953 359.664 85.6953C360.159 85.6953 360.551 85.8646 360.84 86.2031V84H361.562V90H360.898L360.863 89.5469C360.574 89.901 360.172 90.0781 359.656 90.0781C359.167 90.0781 358.767 89.8776 358.457 89.4766C358.15 89.0755 357.996 88.5521 357.996 87.9062V87.8516ZM358.719 87.9336C358.719 88.4128 358.818 88.7878 359.016 89.0586C359.214 89.3294 359.487 89.4648 359.836 89.4648C360.294 89.4648 360.629 89.2591 360.84 88.8477V86.9062C360.624 86.5078 360.292 86.3086 359.844 86.3086C359.49 86.3086 359.214 86.4453 359.016 86.7188C358.818 86.9922 358.719 87.3971 358.719 87.9336ZM364.441 90.0781C363.868 90.0781 363.402 89.8906 363.043 89.5156C362.684 89.138 362.504 88.6341 362.504 88.0039V87.8711C362.504 87.4518 362.583 87.0781 362.742 86.75C362.904 86.4193 363.128 86.1615 363.414 85.9766C363.703 85.7891 364.016 85.6953 364.352 85.6953C364.901 85.6953 365.328 85.8763 365.633 86.2383C365.938 86.6003 366.09 87.1185 366.09 87.793V88.0938H363.227C363.237 88.5104 363.358 88.8477 363.59 89.1055C363.824 89.3607 364.121 89.4883 364.48 89.4883C364.736 89.4883 364.952 89.4362 365.129 89.332C365.306 89.2279 365.461 89.0898 365.594 88.918L366.035 89.2617C365.681 89.806 365.15 90.0781 364.441 90.0781ZM364.352 86.2891C364.06 86.2891 363.815 86.3958 363.617 86.6094C363.419 86.8203 363.297 87.1172 363.25 87.5H365.367V87.4453C365.346 87.0781 365.247 86.7943 365.07 86.5938C364.893 86.3906 364.654 86.2891 364.352 86.2891ZM369.391 88.8789C369.391 88.6836 369.316 88.5326 369.168 88.4258C369.022 88.3164 368.766 88.2227 368.398 88.1445C368.034 88.0664 367.743 87.9727 367.527 87.8633C367.314 87.7539 367.155 87.6237 367.051 87.4727C366.949 87.3216 366.898 87.1419 366.898 86.9336C366.898 86.5872 367.044 86.2943 367.336 86.0547C367.63 85.8151 368.005 85.6953 368.461 85.6953C368.94 85.6953 369.328 85.819 369.625 86.0664C369.924 86.3138 370.074 86.6302 370.074 87.0156H369.348C369.348 86.8177 369.263 86.6471 369.094 86.5039C368.927 86.3607 368.716 86.2891 368.461 86.2891C368.198 86.2891 367.992 86.3464 367.844 86.4609C367.695 86.5755 367.621 86.7253 367.621 86.9102C367.621 87.0846 367.69 87.2161 367.828 87.3047C367.966 87.3932 368.215 87.4779 368.574 87.5586C368.936 87.6393 369.229 87.7357 369.453 87.8477C369.677 87.9596 369.842 88.0951 369.949 88.2539C370.059 88.4102 370.113 88.6016 370.113 88.8281C370.113 89.2057 369.962 89.5091 369.66 89.7383C369.358 89.9648 368.966 90.0781 368.484 90.0781C368.146 90.0781 367.846 90.0182 367.586 89.8984C367.326 89.7786 367.121 89.612 366.973 89.3984C366.827 89.1823 366.754 88.9492 366.754 88.6992H367.477C367.49 88.9414 367.586 89.1341 367.766 89.2773C367.948 89.418 368.188 89.4883 368.484 89.4883C368.758 89.4883 368.977 89.4336 369.141 89.3242C369.307 89.2122 369.391 89.0638 369.391 88.8789ZM370.879 87.8516C370.879 87.2031 371.033 86.6823 371.34 86.2891C371.647 85.8932 372.049 85.6953 372.547 85.6953C373.042 85.6953 373.434 85.8646 373.723 86.2031V84H374.445V90H373.781L373.746 89.5469C373.457 89.901 373.055 90.0781 372.539 90.0781C372.049 90.0781 371.65 89.8776 371.34 89.4766C371.033 89.0755 370.879 88.5521 370.879 87.9062V87.8516ZM371.602 87.9336C371.602 88.4128 371.701 88.7878 371.898 89.0586C372.096 89.3294 372.37 89.4648 372.719 89.4648C373.177 89.4648 373.512 89.2591 373.723 88.8477V86.9062C373.507 86.5078 373.174 86.3086 372.727 86.3086C372.372 86.3086 372.096 86.4453 371.898 86.7188C371.701 86.9922 371.602 87.3971 371.602 87.9336ZM377.324 90.0781C376.751 90.0781 376.285 89.8906 375.926 89.5156C375.566 89.138 375.387 88.6341 375.387 88.0039V87.8711C375.387 87.4518 375.466 87.0781 375.625 86.75C375.786 86.4193 376.01 86.1615 376.297 85.9766C376.586 85.7891 376.898 85.6953 377.234 85.6953C377.784 85.6953 378.211 85.8763 378.516 86.2383C378.82 86.6003 378.973 87.1185 378.973 87.793V88.0938H376.109C376.12 88.5104 376.241 88.8477 376.473 89.1055C376.707 89.3607 377.004 89.4883 377.363 89.4883C377.618 89.4883 377.835 89.4362 378.012 89.332C378.189 89.2279 378.344 89.0898 378.477 88.918L378.918 89.2617C378.564 89.806 378.033 90.0781 377.324 90.0781ZM377.234 86.2891C376.943 86.2891 376.698 86.3958 376.5 86.6094C376.302 86.8203 376.18 87.1172 376.133 87.5H378.25V87.4453C378.229 87.0781 378.13 86.7943 377.953 86.5938C377.776 86.3906 377.536 86.2891 377.234 86.2891ZM382.777 84.75V85.7734H383.566V86.332H382.777V88.9531C382.777 89.1224 382.812 89.25 382.883 89.3359C382.953 89.4193 383.073 89.4609 383.242 89.4609C383.326 89.4609 383.44 89.4453 383.586 89.4141V90C383.396 90.0521 383.211 90.0781 383.031 90.0781C382.708 90.0781 382.465 89.9805 382.301 89.7852C382.137 89.5898 382.055 89.3125 382.055 88.9531V86.332H381.285V85.7734H382.055V84.75H382.777ZM387.023 89.582C386.742 89.9128 386.329 90.0781 385.785 90.0781C385.335 90.0781 384.991 89.9479 384.754 89.6875C384.52 89.4245 384.401 89.0365 384.398 88.5234V85.7734H385.121V88.5039C385.121 89.1445 385.382 89.4648 385.902 89.4648C386.454 89.4648 386.822 89.2591 387.004 88.8477V85.7734H387.727V90H387.039L387.023 89.582ZM391.492 85.7734L391.512 86.2422C391.822 85.8776 392.24 85.6953 392.766 85.6953C393.357 85.6953 393.759 85.9219 393.973 86.375C394.113 86.1719 394.296 86.0078 394.52 85.8828C394.746 85.7578 395.013 85.6953 395.32 85.6953C396.247 85.6953 396.719 86.1862 396.734 87.168V90H396.012V87.2109C396.012 86.9089 395.943 86.6836 395.805 86.5352C395.667 86.3841 395.435 86.3086 395.109 86.3086C394.841 86.3086 394.618 86.3893 394.441 86.5508C394.264 86.7096 394.161 86.9245 394.133 87.1953V90H393.406V87.2305C393.406 86.6159 393.105 86.3086 392.504 86.3086C392.03 86.3086 391.706 86.5104 391.531 86.9141V90H390.809V85.7734H391.492ZM397.637 87.8477C397.637 87.4336 397.717 87.0612 397.879 86.7305C398.043 86.3997 398.27 86.1445 398.559 85.9648C398.85 85.7852 399.182 85.6953 399.555 85.6953C400.13 85.6953 400.595 85.8945 400.949 86.293C401.306 86.6914 401.484 87.2214 401.484 87.8828V87.9336C401.484 88.3451 401.405 88.7148 401.246 89.043C401.09 89.3685 400.865 89.6224 400.57 89.8047C400.279 89.987 399.943 90.0781 399.562 90.0781C398.99 90.0781 398.525 89.8789 398.168 89.4805C397.814 89.082 397.637 88.5547 397.637 87.8984V87.8477ZM398.363 87.9336C398.363 88.4023 398.471 88.7786 398.688 89.0625C398.906 89.3464 399.198 89.4883 399.562 89.4883C399.93 89.4883 400.221 89.3451 400.438 89.0586C400.654 88.7695 400.762 88.3659 400.762 87.8477C400.762 87.3841 400.651 87.0091 400.43 86.7227C400.211 86.4336 399.919 86.2891 399.555 86.2891C399.198 86.2891 398.91 86.431 398.691 86.7148C398.473 86.9987 398.363 87.4049 398.363 87.9336ZM399.883 84H400.758L399.711 85.1484H399.129L399.883 84ZM403.723 89.0195L404.77 85.7734H405.508L403.992 90H403.441L401.91 85.7734H402.648L403.723 89.0195ZM406.988 90H406.266V85.7734H406.988V90ZM406.207 84.6523C406.207 84.5352 406.242 84.4362 406.312 84.3555C406.385 84.2747 406.492 84.2344 406.633 84.2344C406.773 84.2344 406.88 84.2747 406.953 84.3555C407.026 84.4362 407.062 84.5352 407.062 84.6523C407.062 84.7695 407.026 84.8672 406.953 84.9453C406.88 85.0234 406.773 85.0625 406.633 85.0625C406.492 85.0625 406.385 85.0234 406.312 84.9453C406.242 84.8672 406.207 84.7695 406.207 84.6523ZM408.934 90H408.211V84H408.934V90Z" fill="#C4C4C4"/>
<path d="M320 105V125.586H340.586V105H320ZM335.742 120.742H324.844V109.844H335.742V120.742Z" fill="#30485F"/>
<path d="M332.715 112.871H327.871V117.715H332.715V112.871Z" fill="#30485F"/>
<path d="M361.414 105V125.586H382V105H361.414ZM377.156 120.742H366.258V109.844H377.156V120.742Z" fill="#30485F"/>
<path d="M374.129 112.871H369.285V117.715H374.129V112.871Z" fill="#30485F"/>
<path d="M320 146.414V167H340.586V146.414H320ZM335.742 162.156H324.844V151.258H335.742V162.156Z" fill="#30485F"/>
<path d="M332.715 154.285H327.871V159.129H332.715V154.285Z" fill="#30485F"/>
<path d="M329.688 128.855H324.844V133.699H329.688V128.855Z" fill="#30485F"/>
<path d="M334.531 138.543V133.699H329.688V138.543H334.41V143.387H339.254V138.543H334.531Z" fill="#30485F"/>
<path d="M358.75 114.324H353.906V119.168H358.75V114.324Z" fill="#30485F"/>
<path d="M349.062 109.844H344.219V119.168H349.062V109.844Z" fill="#30485F"/>
<path d="M353.906 105H349.062V109.844H353.906V105Z" fill="#30485F"/>
<path d="M349.062 119.168V124.012H344.219V128.855H353.906V119.168H349.062Z" fill="#30485F"/>
<path d="M353.906 147.988V143.266H349.062V133.699H344.219V143.387H349.062V148.109H353.906V152.832H363.594V147.988H353.906Z" fill="#30485F"/>
<path d="M358.75 128.855H353.906V138.543H358.75V128.855Z" fill="#30485F"/>
<path d="M377.156 133.578V128.855H368.316V133.699H363.594V138.543H368.438V143.266H382V133.578H377.156ZM377.156 138.422H368.438V133.699H377.156V138.422Z" fill="#30485F"/>
<path d="M382 147.988H377.156V157.676H382V147.988Z" fill="#30485F"/>
<path d="M363.594 138.543H358.75V143.387H363.594V138.543Z" fill="#30485F"/>
<path d="M368.438 152.832H363.594V157.676H368.438V152.832Z" fill="#30485F"/>
<path d="M373.281 147.988H368.438V152.832H373.281V147.988Z" fill="#30485F"/>
<path d="M368.438 157.676V167H373.281V162.52H377.156V157.676H368.438Z" fill="#30485F"/>
<path d="M349.062 148.109H344.219V157.312H349.062V148.109Z" fill="#30485F"/>
<path d="M358.75 162.156V157.312H349.062V167H353.906V162.156H358.629V167H363.473V162.156H358.75Z" fill="#30485F"/>
<path d="M344.219 128.855H334.531V133.699H344.219V128.855Z" fill="#30485F"/>
<path d="M324.844 133.699H320V143.387H324.844V133.699Z" fill="#30485F"/>
</g>
<rect x="437" y="21" width="160.273" height="322" rx="13" fill="white" stroke="black" stroke-width="4"/>
<rect x="482.117" y="330.992" width="70.0391" height="3.82031" rx="1.91016" fill="#C4C4C4"/>
<path d="M478.297 19H557.25V21.7344C557.25 27.2572 552.773 31.7344 547.25 31.7344H488.297C482.774 31.7344 478.297 27.2572 478.297 21.7344V19Z" fill="black"/>
<rect x="452" y="173" width="130" height="30" rx="15" fill="#4A6988"/>
<path d="M489.1 190.823H492.21V192H487.635V184.891H489.1V190.823ZM494.451 192H493.035V184.5H494.451V192ZM498.68 192C498.615 191.873 498.567 191.715 498.538 191.526C498.196 191.907 497.752 192.098 497.205 192.098C496.688 192.098 496.258 191.948 495.916 191.648C495.577 191.349 495.408 190.971 495.408 190.516C495.408 189.956 495.615 189.526 496.028 189.227C496.445 188.927 497.046 188.776 497.83 188.772H498.479V188.47C498.479 188.226 498.416 188.03 498.289 187.884C498.165 187.737 497.968 187.664 497.698 187.664C497.461 187.664 497.273 187.721 497.137 187.835C497.003 187.949 496.937 188.105 496.937 188.304H495.525C495.525 187.998 495.62 187.715 495.809 187.454C495.997 187.194 496.264 186.99 496.609 186.844C496.954 186.694 497.342 186.619 497.771 186.619C498.423 186.619 498.938 186.784 499.319 187.112C499.703 187.438 499.896 187.897 499.896 188.489V190.779C499.899 191.281 499.969 191.66 500.105 191.917V192H498.68ZM497.513 191.019C497.721 191.019 497.913 190.973 498.089 190.882C498.265 190.787 498.395 190.662 498.479 190.506V189.598H497.952C497.246 189.598 496.87 189.842 496.824 190.33L496.819 190.413C496.819 190.589 496.881 190.734 497.005 190.848C497.129 190.962 497.298 191.019 497.513 191.019ZM502.303 186.717L502.347 187.308C502.721 186.849 503.227 186.619 503.865 186.619C504.546 186.619 505.013 186.888 505.267 187.425C505.638 186.888 506.167 186.619 506.854 186.619C507.426 186.619 507.853 186.787 508.133 187.122C508.413 187.454 508.553 187.955 508.553 188.626V192H507.137V188.631C507.137 188.331 507.078 188.113 506.961 187.977C506.844 187.837 506.637 187.767 506.341 187.767C505.918 187.767 505.625 187.968 505.462 188.372L505.467 192H504.056V188.636C504.056 188.33 503.995 188.108 503.875 187.972C503.755 187.835 503.549 187.767 503.26 187.767C502.859 187.767 502.57 187.933 502.391 188.265V192H500.979V186.717H502.303ZM512.703 192C512.638 191.873 512.591 191.715 512.562 191.526C512.22 191.907 511.775 192.098 511.229 192.098C510.711 192.098 510.281 191.948 509.939 191.648C509.601 191.349 509.432 190.971 509.432 190.516C509.432 189.956 509.638 189.526 510.052 189.227C510.468 188.927 511.069 188.776 511.854 188.772H512.503V188.47C512.503 188.226 512.439 188.03 512.312 187.884C512.189 187.737 511.992 187.664 511.722 187.664C511.484 187.664 511.297 187.721 511.16 187.835C511.027 187.949 510.96 188.105 510.96 188.304H509.549C509.549 187.998 509.643 187.715 509.832 187.454C510.021 187.194 510.288 186.99 510.633 186.844C510.978 186.694 511.365 186.619 511.795 186.619C512.446 186.619 512.962 186.784 513.343 187.112C513.727 187.438 513.919 187.897 513.919 188.489V190.779C513.922 191.281 513.992 191.66 514.129 191.917V192H512.703ZM511.536 191.019C511.744 191.019 511.937 190.973 512.112 190.882C512.288 190.787 512.418 190.662 512.503 190.506V189.598H511.976C511.269 189.598 510.893 189.842 510.848 190.33L510.843 190.413C510.843 190.589 510.905 190.734 511.028 190.848C511.152 190.962 511.321 191.019 511.536 191.019ZM517.972 188.04C517.78 188.014 517.61 188.001 517.464 188.001C516.93 188.001 516.58 188.182 516.414 188.543V192H515.003V186.717H516.336L516.375 187.347C516.658 186.862 517.05 186.619 517.552 186.619C517.708 186.619 517.854 186.64 517.991 186.683L517.972 188.04ZM525.252 190.535H522.684L522.195 192H520.638L523.284 184.891H524.642L527.303 192H525.745L525.252 190.535ZM523.079 189.349H524.856L523.963 186.688L523.079 189.349ZM529.251 187.293C529.625 186.844 530.096 186.619 530.662 186.619C531.808 186.619 532.389 187.285 532.405 188.616V192H530.994V188.655C530.994 188.353 530.929 188.13 530.799 187.986C530.669 187.84 530.452 187.767 530.149 187.767C529.736 187.767 529.437 187.926 529.251 188.245V192H527.84V184.5H529.251V187.293ZM533.25 189.31C533.25 188.785 533.351 188.318 533.553 187.908C533.755 187.498 534.044 187.181 534.422 186.956C534.803 186.731 535.244 186.619 535.745 186.619C536.458 186.619 537.039 186.837 537.488 187.273C537.941 187.71 538.193 188.302 538.245 189.051L538.255 189.412C538.255 190.223 538.029 190.874 537.576 191.365C537.124 191.854 536.517 192.098 535.755 192.098C534.993 192.098 534.384 191.854 533.929 191.365C533.476 190.877 533.25 190.213 533.25 189.373V189.31ZM534.661 189.412C534.661 189.913 534.756 190.298 534.944 190.564C535.133 190.828 535.403 190.96 535.755 190.96C536.097 190.96 536.364 190.83 536.556 190.569C536.748 190.306 536.844 189.886 536.844 189.31C536.844 188.818 536.748 188.437 536.556 188.167C536.364 187.897 536.093 187.762 535.745 187.762C535.4 187.762 535.133 187.897 534.944 188.167C534.756 188.434 534.661 188.849 534.661 189.412ZM542.093 188.04C541.901 188.014 541.731 188.001 541.585 188.001C541.051 188.001 540.701 188.182 540.535 188.543V192H539.124V186.717H540.457L540.496 187.347C540.779 186.862 541.172 186.619 541.673 186.619C541.829 186.619 541.976 186.64 542.112 186.683L542.093 188.04ZM545.691 192C545.626 191.873 545.579 191.715 545.55 191.526C545.208 191.907 544.764 192.098 544.217 192.098C543.699 192.098 543.27 191.948 542.928 191.648C542.589 191.349 542.42 190.971 542.42 190.516C542.42 189.956 542.627 189.526 543.04 189.227C543.457 188.927 544.057 188.776 544.842 188.772H545.491V188.47C545.491 188.226 545.428 188.03 545.301 187.884C545.177 187.737 544.98 187.664 544.71 187.664C544.472 187.664 544.285 187.721 544.148 187.835C544.015 187.949 543.948 188.105 543.948 188.304H542.537C542.537 187.998 542.632 187.715 542.82 187.454C543.009 187.194 543.276 186.99 543.621 186.844C543.966 186.694 544.354 186.619 544.783 186.619C545.434 186.619 545.95 186.784 546.331 187.112C546.715 187.438 546.907 187.897 546.907 188.489V190.779C546.91 191.281 546.98 191.66 547.117 191.917V192H545.691ZM544.524 191.019C544.733 191.019 544.925 190.973 545.101 190.882C545.276 190.787 545.407 190.662 545.491 190.506V189.598H544.964C544.257 189.598 543.882 189.842 543.836 190.33L543.831 190.413C543.831 190.589 543.893 190.734 544.017 190.848C544.14 190.962 544.31 191.019 544.524 191.019Z" fill="white"/>
<g clip-path="url(#clip2)">
<path d="M475.816 190.702C475.48 190.963 475.002 190.941 474.697 190.635L472.204 188.143C471.898 187.837 471.876 187.352 472.137 187.024L468.981 183.86C467.608 185.442 467.683 187.844 469.182 189.344L473.495 193.657C475.024 195.186 477.454 195.201 478.979 193.858L475.816 190.702Z" fill="white"/>
<path d="M472.92 184.643L471.339 183.054C470.921 182.636 470.182 182.636 469.757 183.054L469.496 183.322L472.659 186.486L472.92 186.225C473.137 186.008 473.249 185.732 473.249 185.434C473.249 185.135 473.137 184.852 472.92 184.643Z" fill="white"/>
<path d="M479.785 191.5L478.196 189.919C477.778 189.493 477.039 189.493 476.614 189.919L476.353 190.18L479.517 193.343L479.785 193.082C479.994 192.873 480.106 192.59 480.106 192.291C480.106 191.993 479.994 191.709 479.785 191.5Z" fill="white"/>
<path d="M474.39 182.102C473.898 182.102 473.896 182.843 474.39 182.843C477.476 182.843 479.991 185.358 479.991 188.444C479.991 188.936 480.732 188.938 480.732 188.444C480.732 184.947 477.887 182.102 474.39 182.102Z" fill="white"/>
<path d="M474.39 183.594C473.898 183.594 473.896 184.335 474.39 184.335C476.653 184.335 478.499 186.181 478.499 188.444C478.499 188.936 479.24 188.938 479.24 188.444C479.24 185.77 477.064 183.594 474.39 183.594Z" fill="white"/>
<path d="M474.39 185.086C473.898 185.086 473.896 185.828 474.39 185.828C475.83 185.828 477.007 187.004 477.007 188.444C477.007 188.936 477.748 188.938 477.748 188.444C477.748 186.593 476.242 185.086 474.39 185.086Z" fill="white"/>
<path d="M474.39 186.579C473.898 186.579 473.896 187.325 474.39 187.325C475.007 187.325 475.509 187.827 475.509 188.444C475.509 188.936 476.255 188.938 476.255 188.444C476.255 187.415 475.419 186.579 474.39 186.579Z" fill="white"/>
</g>
<rect x="452" y="216" width="130" height="30" rx="15" fill="#FF29AA"/>
<path d="M491.912 230.919H489.1V232.823H492.4V234H487.635V226.891H492.391V228.077H489.1V229.771H491.912V230.919ZM494.466 228.717L494.51 229.327C494.887 228.855 495.394 228.619 496.028 228.619C496.588 228.619 497.005 228.784 497.278 229.112C497.552 229.441 497.692 229.933 497.698 230.587V234H496.287V230.621C496.287 230.322 496.222 230.105 496.092 229.972C495.962 229.835 495.745 229.767 495.442 229.767C495.045 229.767 494.747 229.936 494.549 230.274V234H493.138V228.717H494.466ZM500.75 232.276L501.731 228.717H503.206L501.424 234H500.076L498.294 228.717H499.769L500.75 232.276ZM505.32 234H503.904V228.717H505.32V234ZM503.821 227.35C503.821 227.138 503.891 226.964 504.031 226.827C504.174 226.69 504.368 226.622 504.612 226.622C504.853 226.622 505.045 226.69 505.188 226.827C505.332 226.964 505.403 227.138 505.403 227.35C505.403 227.564 505.33 227.74 505.184 227.877C505.04 228.014 504.85 228.082 504.612 228.082C504.375 228.082 504.183 228.014 504.036 227.877C503.893 227.74 503.821 227.564 503.821 227.35ZM509.549 234C509.484 233.873 509.437 233.715 509.407 233.526C509.065 233.907 508.621 234.098 508.074 234.098C507.557 234.098 507.127 233.948 506.785 233.648C506.447 233.349 506.277 232.971 506.277 232.516C506.277 231.956 506.484 231.526 506.897 231.227C507.314 230.927 507.915 230.776 508.699 230.772H509.349V230.47C509.349 230.226 509.285 230.03 509.158 229.884C509.035 229.737 508.838 229.664 508.567 229.664C508.33 229.664 508.143 229.721 508.006 229.835C507.872 229.949 507.806 230.105 507.806 230.304H506.395C506.395 229.998 506.489 229.715 506.678 229.454C506.867 229.194 507.133 228.99 507.479 228.844C507.824 228.694 508.211 228.619 508.641 228.619C509.292 228.619 509.808 228.784 510.188 229.112C510.573 229.438 510.765 229.897 510.765 230.489V232.779C510.768 233.281 510.838 233.66 510.975 233.917V234H509.549ZM508.382 233.019C508.59 233.019 508.782 232.973 508.958 232.882C509.134 232.787 509.264 232.662 509.349 232.506V231.598H508.821C508.115 231.598 507.739 231.842 507.693 232.33L507.688 232.413C507.688 232.589 507.75 232.734 507.874 232.848C507.998 232.962 508.167 233.019 508.382 233.019ZM514.817 230.04C514.625 230.014 514.456 230.001 514.31 230.001C513.776 230.001 513.426 230.182 513.26 230.543V234H511.849V228.717H513.182L513.221 229.347C513.504 228.862 513.896 228.619 514.397 228.619C514.554 228.619 514.7 228.64 514.837 228.683L514.817 230.04ZM522.361 230.919H519.549V232.823H522.85V234H518.084V226.891H522.84V228.077H519.549V229.771H522.361V230.919ZM524.939 228.717L524.983 229.308C525.358 228.849 525.864 228.619 526.502 228.619C527.182 228.619 527.649 228.888 527.903 229.425C528.274 228.888 528.803 228.619 529.49 228.619C530.063 228.619 530.49 228.787 530.77 229.122C531.049 229.454 531.189 229.955 531.189 230.626V234H529.773V230.631C529.773 230.331 529.715 230.113 529.598 229.977C529.48 229.837 529.274 229.767 528.978 229.767C528.554 229.767 528.261 229.968 528.099 230.372L528.104 234H526.692V230.636C526.692 230.33 526.632 230.108 526.512 229.972C526.391 229.835 526.186 229.767 525.896 229.767C525.496 229.767 525.206 229.933 525.027 230.265V234H523.616V228.717H524.939ZM535.34 234C535.275 233.873 535.228 233.715 535.198 233.526C534.856 233.907 534.412 234.098 533.865 234.098C533.348 234.098 532.918 233.948 532.576 233.648C532.238 233.349 532.068 232.971 532.068 232.516C532.068 231.956 532.275 231.526 532.688 231.227C533.105 230.927 533.706 230.776 534.49 230.772H535.14V230.47C535.14 230.226 535.076 230.03 534.949 229.884C534.826 229.737 534.629 229.664 534.358 229.664C534.121 229.664 533.934 229.721 533.797 229.835C533.663 229.949 533.597 230.105 533.597 230.304H532.186C532.186 229.998 532.28 229.715 532.469 229.454C532.658 229.194 532.924 228.99 533.27 228.844C533.615 228.694 534.002 228.619 534.432 228.619C535.083 228.619 535.599 228.784 535.979 229.112C536.364 229.438 536.556 229.897 536.556 230.489V232.779C536.559 233.281 536.629 233.66 536.766 233.917V234H535.34ZM534.173 233.019C534.381 233.019 534.573 232.973 534.749 232.882C534.925 232.787 535.055 232.662 535.14 232.506V231.598H534.612C533.906 231.598 533.53 231.842 533.484 232.33L533.479 232.413C533.479 232.589 533.541 232.734 533.665 232.848C533.789 232.962 533.958 233.019 534.173 233.019ZM539.129 234H537.713V228.717H539.129V234ZM537.63 227.35C537.63 227.138 537.7 226.964 537.84 226.827C537.983 226.69 538.177 226.622 538.421 226.622C538.662 226.622 538.854 226.69 538.997 226.827C539.14 226.964 539.212 227.138 539.212 227.35C539.212 227.564 539.139 227.74 538.992 227.877C538.849 228.014 538.659 228.082 538.421 228.082C538.183 228.082 537.991 228.014 537.845 227.877C537.701 227.74 537.63 227.564 537.63 227.35ZM541.785 234H540.369V226.5H541.785V234Z" fill="white"/>
<g clip-path="url(#clip3)">
<path d="M475.816 232.702C475.48 232.963 475.002 232.941 474.697 232.635L472.204 230.143C471.898 229.837 471.876 229.352 472.137 229.024L468.981 225.86C467.608 227.442 467.683 229.844 469.182 231.344L473.495 235.657C475.024 237.186 477.454 237.201 478.979 235.858L475.816 232.702Z" fill="white"/>
<path d="M472.92 226.643L471.339 225.054C470.921 224.636 470.182 224.636 469.757 225.054L469.496 225.322L472.659 228.486L472.92 228.225C473.137 228.008 473.249 227.732 473.249 227.434C473.249 227.135 473.137 226.852 472.92 226.643Z" fill="white"/>
<path d="M479.785 233.5L478.196 231.919C477.778 231.493 477.039 231.493 476.614 231.919L476.353 232.18L479.517 235.343L479.785 235.082C479.994 234.873 480.106 234.59 480.106 234.291C480.106 233.993 479.994 233.709 479.785 233.5Z" fill="white"/>
<path d="M474.39 224.102C473.898 224.102 473.896 224.843 474.39 224.843C477.476 224.843 479.991 227.358 479.991 230.444C479.991 230.936 480.732 230.938 480.732 230.444C480.732 226.947 477.887 224.102 474.39 224.102Z" fill="white"/>
<path d="M474.39 225.594C473.898 225.594 473.896 226.335 474.39 226.335C476.653 226.335 478.499 228.181 478.499 230.444C478.499 230.936 479.24 230.938 479.24 230.444C479.24 227.77 477.064 225.594 474.39 225.594Z" fill="white"/>
<path d="M474.39 227.086C473.898 227.086 473.896 227.828 474.39 227.828C475.83 227.828 477.007 229.004 477.007 230.444C477.007 230.936 477.748 230.938 477.748 230.444C477.748 228.593 476.242 227.086 474.39 227.086Z" fill="white"/>
<path d="M474.39 228.579C473.898 228.579 473.896 229.325 474.39 229.325C475.007 229.325 475.509 229.827 475.509 230.444C475.509 230.936 476.255 230.938 476.255 230.444C476.255 229.415 475.419 228.579 474.39 228.579Z" fill="white"/>
</g>
<rect x="452" y="131" width="130" height="30" rx="15" fill="#29DA65"/>
<path d="M491.912 145.919H489.1V147.823H492.4V149H487.635V141.891H492.391V143.077H489.1V144.771H491.912V145.919ZM494.466 143.717L494.51 144.327C494.887 143.855 495.394 143.619 496.028 143.619C496.588 143.619 497.005 143.784 497.278 144.112C497.552 144.441 497.692 144.933 497.698 145.587V149H496.287V145.621C496.287 145.322 496.222 145.105 496.092 144.972C495.962 144.835 495.745 144.767 495.442 144.767C495.045 144.767 494.747 144.936 494.549 145.274V149H493.138V143.717H494.466ZM500.75 147.276L501.731 143.717H503.206L501.424 149H500.076L498.294 143.717H499.769L500.75 147.276ZM505.32 149H503.904V143.717H505.32V149ZM503.821 142.35C503.821 142.138 503.891 141.964 504.031 141.827C504.174 141.69 504.368 141.622 504.612 141.622C504.853 141.622 505.045 141.69 505.188 141.827C505.332 141.964 505.403 142.138 505.403 142.35C505.403 142.564 505.33 142.74 505.184 142.877C505.04 143.014 504.85 143.082 504.612 143.082C504.375 143.082 504.183 143.014 504.036 142.877C503.893 142.74 503.821 142.564 503.821 142.35ZM509.549 149C509.484 148.873 509.437 148.715 509.407 148.526C509.065 148.907 508.621 149.098 508.074 149.098C507.557 149.098 507.127 148.948 506.785 148.648C506.447 148.349 506.277 147.971 506.277 147.516C506.277 146.956 506.484 146.526 506.897 146.227C507.314 145.927 507.915 145.776 508.699 145.772H509.349V145.47C509.349 145.226 509.285 145.03 509.158 144.884C509.035 144.737 508.838 144.664 508.567 144.664C508.33 144.664 508.143 144.721 508.006 144.835C507.872 144.949 507.806 145.105 507.806 145.304H506.395C506.395 144.998 506.489 144.715 506.678 144.454C506.867 144.194 507.133 143.99 507.479 143.844C507.824 143.694 508.211 143.619 508.641 143.619C509.292 143.619 509.808 143.784 510.188 144.112C510.573 144.438 510.765 144.897 510.765 145.489V147.779C510.768 148.281 510.838 148.66 510.975 148.917V149H509.549ZM508.382 148.019C508.59 148.019 508.782 147.973 508.958 147.882C509.134 147.787 509.264 147.662 509.349 147.506V146.598H508.821C508.115 146.598 507.739 146.842 507.693 147.33L507.688 147.413C507.688 147.589 507.75 147.734 507.874 147.848C507.998 147.962 508.167 148.019 508.382 148.019ZM514.817 145.04C514.625 145.014 514.456 145.001 514.31 145.001C513.776 145.001 513.426 145.182 513.26 145.543V149H511.849V143.717H513.182L513.221 144.347C513.504 143.862 513.896 143.619 514.397 143.619C514.554 143.619 514.7 143.64 514.837 143.683L514.817 145.04ZM523.621 146.949L524.578 141.891H526.038L524.461 149H522.986L521.829 144.244L520.672 149H519.197L517.62 141.891H519.08L520.042 146.939L521.214 141.891H522.454L523.621 146.949ZM528.118 144.293C528.493 143.844 528.963 143.619 529.529 143.619C530.675 143.619 531.256 144.285 531.272 145.616V149H529.861V145.655C529.861 145.353 529.796 145.13 529.666 144.986C529.536 144.84 529.319 144.767 529.017 144.767C528.603 144.767 528.304 144.926 528.118 145.245V149H526.707V141.5H528.118V144.293ZM535.398 149C535.333 148.873 535.286 148.715 535.257 148.526C534.915 148.907 534.471 149.098 533.924 149.098C533.406 149.098 532.977 148.948 532.635 148.648C532.296 148.349 532.127 147.971 532.127 147.516C532.127 146.956 532.334 146.526 532.747 146.227C533.164 145.927 533.764 145.776 534.549 145.772H535.198V145.47C535.198 145.226 535.135 145.03 535.008 144.884C534.884 144.737 534.687 144.664 534.417 144.664C534.179 144.664 533.992 144.721 533.855 144.835C533.722 144.949 533.655 145.105 533.655 145.304H532.244C532.244 144.998 532.339 144.715 532.527 144.454C532.716 144.194 532.983 143.99 533.328 143.844C533.673 143.694 534.061 143.619 534.49 143.619C535.141 143.619 535.657 143.784 536.038 144.112C536.422 144.438 536.614 144.897 536.614 145.489V147.779C536.618 148.281 536.688 148.66 536.824 148.917V149H535.398ZM534.231 148.019C534.44 148.019 534.632 147.973 534.808 147.882C534.983 147.787 535.114 147.662 535.198 147.506V146.598H534.671C533.965 146.598 533.589 146.842 533.543 147.33L533.538 147.413C533.538 147.589 533.6 147.734 533.724 147.848C533.847 147.962 534.017 148.019 534.231 148.019ZM539.388 142.418V143.717H540.291V144.752H539.388V147.389C539.388 147.584 539.425 147.724 539.5 147.809C539.575 147.893 539.718 147.936 539.93 147.936C540.086 147.936 540.224 147.924 540.345 147.901V148.971C540.068 149.055 539.783 149.098 539.49 149.098C538.501 149.098 537.996 148.598 537.977 147.599V144.752H537.205V143.717H537.977V142.418H539.388ZM543.938 147.54C543.938 147.368 543.852 147.232 543.68 147.135C543.51 147.034 543.237 146.944 542.859 146.866C541.603 146.603 540.975 146.069 540.975 145.265C540.975 144.796 541.168 144.405 541.556 144.093C541.946 143.777 542.456 143.619 543.084 143.619C543.755 143.619 544.29 143.777 544.69 144.093C545.094 144.409 545.296 144.819 545.296 145.323H543.885C543.885 145.121 543.82 144.955 543.689 144.825C543.559 144.692 543.356 144.625 543.079 144.625C542.841 144.625 542.658 144.679 542.527 144.786C542.397 144.894 542.332 145.03 542.332 145.196C542.332 145.353 542.405 145.479 542.552 145.577C542.701 145.672 542.952 145.755 543.304 145.826C543.655 145.895 543.951 145.973 544.192 146.061C544.938 146.334 545.311 146.808 545.311 147.481C545.311 147.963 545.104 148.354 544.69 148.653C544.277 148.95 543.743 149.098 543.089 149.098C542.646 149.098 542.252 149.02 541.907 148.863C541.565 148.704 541.297 148.487 541.102 148.214C540.906 147.937 540.809 147.639 540.809 147.32H542.146C542.16 147.571 542.252 147.763 542.425 147.896C542.597 148.03 542.828 148.097 543.118 148.097C543.388 148.097 543.592 148.046 543.729 147.945C543.868 147.841 543.938 147.706 543.938 147.54ZM549.285 149C549.22 148.873 549.173 148.715 549.144 148.526C548.802 148.907 548.357 149.098 547.811 149.098C547.293 149.098 546.863 148.948 546.521 148.648C546.183 148.349 546.014 147.971 546.014 147.516C546.014 146.956 546.22 146.526 546.634 146.227C547.05 145.927 547.651 145.776 548.436 145.772H549.085V145.47C549.085 145.226 549.021 145.03 548.895 144.884C548.771 144.737 548.574 144.664 548.304 144.664C548.066 144.664 547.879 144.721 547.742 144.835C547.609 144.949 547.542 145.105 547.542 145.304H546.131C546.131 144.998 546.225 144.715 546.414 144.454C546.603 144.194 546.87 143.99 547.215 143.844C547.56 143.694 547.947 143.619 548.377 143.619C549.028 143.619 549.544 143.784 549.925 144.112C550.309 144.438 550.501 144.897 550.501 145.489V147.779C550.504 148.281 550.574 148.66 550.711 148.917V149H549.285ZM548.118 148.019C548.326 148.019 548.519 147.973 548.694 147.882C548.87 147.787 549 147.662 549.085 147.506V146.598H548.558C547.851 146.598 547.475 146.842 547.43 147.33L547.425 147.413C547.425 147.589 547.487 147.734 547.61 147.848C547.734 147.962 547.903 148.019 548.118 148.019ZM556.341 146.407C556.341 147.221 556.155 147.874 555.784 148.365C555.416 148.854 554.918 149.098 554.29 149.098C553.756 149.098 553.325 148.912 552.996 148.541V151.031H551.585V143.717H552.894L552.942 144.234C553.284 143.824 553.73 143.619 554.28 143.619C554.931 143.619 555.438 143.86 555.799 144.342C556.16 144.824 556.341 145.488 556.341 146.334V146.407ZM554.93 146.305C554.93 145.813 554.842 145.434 554.666 145.167C554.493 144.9 554.241 144.767 553.909 144.767C553.466 144.767 553.162 144.936 552.996 145.274V147.438C553.169 147.786 553.476 147.96 553.919 147.96C554.593 147.96 554.93 147.408 554.93 146.305ZM561.976 146.407C561.976 147.221 561.79 147.874 561.419 148.365C561.051 148.854 560.553 149.098 559.925 149.098C559.391 149.098 558.96 148.912 558.631 148.541V151.031H557.22V143.717H558.528L558.577 144.234C558.919 143.824 559.365 143.619 559.915 143.619C560.566 143.619 561.072 143.86 561.434 144.342C561.795 144.824 561.976 145.488 561.976 146.334V146.407ZM560.564 146.305C560.564 145.813 560.477 145.434 560.301 145.167C560.128 144.9 559.876 144.767 559.544 144.767C559.101 144.767 558.797 144.936 558.631 145.274V147.438C558.803 147.786 559.111 147.96 559.554 147.96C560.228 147.96 560.564 147.408 560.564 146.305Z" fill="white"/>
<path d="M474.369 139.078H474.366C470.855 139.078 468 141.934 468 145.445C468 146.838 468.449 148.129 469.212 149.177L468.419 151.543L470.866 150.76C471.873 151.427 473.074 151.812 474.369 151.812C477.879 151.812 480.734 148.956 480.734 145.445C480.734 141.935 477.879 139.078 474.369 139.078ZM478.074 148.069C477.92 148.503 477.31 148.863 476.824 148.968C476.491 149.039 476.057 149.095 474.594 148.489C472.723 147.714 471.518 145.812 471.424 145.689C471.334 145.565 470.668 144.682 470.668 143.768C470.668 142.855 471.132 142.41 471.319 142.219C471.473 142.062 471.726 141.99 471.97 141.99C472.049 141.99 472.12 141.994 472.183 141.997C472.37 142.005 472.464 142.017 472.588 142.312C472.741 142.682 473.115 143.596 473.16 143.69C473.205 143.783 473.251 143.911 473.187 144.034C473.127 144.162 473.075 144.218 472.981 144.326C472.887 144.435 472.798 144.517 472.704 144.633C472.618 144.735 472.521 144.843 472.629 145.03C472.737 145.213 473.111 145.823 473.662 146.314C474.373 146.946 474.949 147.149 475.155 147.234C475.309 147.298 475.492 147.283 475.604 147.164C475.746 147.01 475.922 146.755 476.101 146.505C476.229 146.325 476.39 146.302 476.558 146.366C476.73 146.426 477.64 146.876 477.827 146.969C478.014 147.063 478.137 147.107 478.183 147.186C478.227 147.265 478.227 147.635 478.074 148.069Z" fill="white"/>
<g clip-path="url(#clip4)">
<path d="M587.665 39.8412C588.286 40.4629 588.286 41.4707 587.665 42.0924C587.043 42.714 586.035 42.714 585.413 42.0924C584.792 41.4707 584.792 40.4629 585.413 39.8412C586.035 39.2196 587.043 39.2196 587.665 39.8412Z" fill="#97A3AF"/>
<path d="M587.665 44.6166C588.286 45.2382 588.286 46.2461 587.665 46.8677C587.043 47.4894 586.035 47.4894 585.413 46.8677C584.792 46.2461 584.792 45.2382 585.413 44.6166C586.035 43.995 587.043 43.995 587.665 44.6166Z" fill="#97A3AF"/>
<path d="M587.665 49.392C588.286 50.0136 588.286 51.0215 587.665 51.6431C587.043 52.2648 586.035 52.2648 585.413 51.6431C584.792 51.0215 584.792 50.0136 585.413 49.392C586.035 48.7704 587.043 48.7704 587.665 49.392Z" fill="#97A3AF"/>
</g>
<rect x="466.836" y="39.375" width="109.516" height="12.7344" fill="#F5F5F5"/>
<g clip-path="url(#clip5)">
<path d="M459.195 44.8326H450.099L453.283 41.6491L451.919 40.2847L446.461 45.7422L451.919 51.1998L453.283 49.8354L450.099 46.6518H459.195V44.8326Z" fill="#97A3AF"/>
</g>
<defs>
<filter id="filter0_d" x="213" y="0" width="280" height="300" filterUnits="userSpaceOnUse" color-interpolation-filters="sRGB">
<feFlood flood-opacity="0" result="BackgroundImageFix"/>
<feColorMatrix in="SourceAlpha" type="matrix" values="0 0 0 0 0 0 0 0 0 0 0 0 0 0 0 0 0 0 127 0"/>
<feOffset dy="4"/>
<feColorMatrix type="matrix" values="0 0 0 0 0 0 0 0 0 0 0 0 0 0 0 0 0 0 0.15 0"/>
<feBlend mode="normal" in2="BackgroundImageFix" result="effect1_dropShadow"/>
<feBlend mode="normal" in="SourceGraphic" in2="effect1_dropShadow" result="shape"/>
</filter>
<filter id="filter1_d" x="257" y="51" width="188" height="178" filterUnits="userSpaceOnUse" color-interpolation-filters="sRGB">
<feFlood flood-opacity="0" result="BackgroundImageFix"/>
<feColorMatrix in="SourceAlpha" type="matrix" values="0 0 0 0 0 0 0 0 0 0 0 0 0 0 0 0 0 0 127 0"/>
<feOffset dy="4"/>
<feGaussianBlur stdDeviation="5"/>
<feColorMatrix type="matrix" values="0 0 0 0 0 0 0 0 0 0 0 0 0 0 0 0 0 0 0.25 0"/>
<feBlend mode="normal" in2="BackgroundImageFix" result="effect1_dropShadow"/>
<feBlend mode="normal" in="SourceGraphic" in2="effect1_dropShadow" result="shape"/>
</filter>
<clipPath id="clip0">
<rect width="10" height="10" fill="white" transform="translate(65 68)"/>
</clipPath>
<clipPath id="clip1">
<rect width="30.3686" height="30.3686" fill="white" transform="translate(375.334 209.551) rotate(-10)"/>
</clipPath>
<clipPath id="clip2">
<rect width="12.7344" height="12.7344" fill="white" transform="translate(468 182.102)"/>
</clipPath>
<clipPath id="clip3">
<rect width="12.7344" height="12.7344" fill="white" transform="translate(468 224.102)"/>
</clipPath>
<clipPath id="clip4">
<rect width="12.7344" height="12.7344" fill="white" transform="translate(580.172 39.375)"/>
</clipPath>
<clipPath id="clip5">
<rect width="12.7344" height="12.7344" fill="white" transform="translate(446.461 39.375)"/>
</clipPath>
</defs>
</svg>
