<svg width="262" height="203" viewBox="0 0 262 203" fill="none" xmlns="http://www.w3.org/2000/svg">
<g clip-path="url(#clip0)">
<path opacity="0.18" d="M256.098 165.871C253.374 172.045 249.449 177.615 244.55 182.256C239.652 186.897 233.878 190.516 227.567 192.903C219.267 196.016 210.292 196.825 201.447 197.499C167.619 200.065 133.669 200.659 99.7718 199.279C73.1442 198.194 54.4276 188.385 30.6843 177.698C27.3934 176.313 24.2069 174.692 21.1496 172.848C7.79693 164.325 1.43702 148.078 0.202386 132.152C0.109011 130.948 0.0519483 129.75 0.0156356 128.552C-0.103678 123.743 0.166074 118.768 1.90908 114.25C8.39868 97.3748 32.5778 91.7774 37.2258 74.3058C39.6276 65.2588 35.9185 55.2987 38.9013 46.4333C41.6767 38.1955 49.5462 32.8575 57.2652 28.8735C89.5212 12.2111 128.402 8.87554 163.034 19.7745C185.491 26.8348 208.01 42.3974 212.04 65.5908C214.344 78.8501 210.38 93.4011 216.496 105.39C223.105 118.358 239.513 124.329 249.966 133.895C254.236 137.796 257.509 142.299 258.707 148.114C259.937 154.069 258.536 160.294 256.098 165.871Z" fill="#A500FF"/>
<path d="M256.098 165.871C253.374 172.045 249.449 177.615 244.55 182.256C239.652 186.897 233.878 190.517 227.566 192.903C219.266 196.016 210.292 196.825 201.447 197.5C167.619 200.065 133.669 200.66 99.7716 199.279C73.144 198.195 54.4274 188.385 30.6841 177.699C27.3932 176.314 24.2067 174.693 21.1494 172.848C7.79669 164.325 1.43678 148.078 0.202148 132.152C0.693091 131.983 1.20102 131.868 1.71691 131.81C9.44632 130.705 17.3262 129.61 25.0608 130.85C29.8644 131.633 34.4865 133.309 39.2746 134.186C52.7622 136.686 66.2757 132.738 79.8048 133.605C91.2433 134.336 102.511 136.79 114.1 137.137C126.301 137.511 138.517 137.086 150.713 136.531C175.094 135.415 199.647 133.667 224.003 136.354C227.38 136.722 230.746 137.179 234.149 136.873C236.878 136.619 239.534 135.867 242.211 135.26C244.78 134.674 247.377 134.22 249.992 133.9C254.261 137.801 257.535 142.304 258.733 148.119C259.937 154.07 258.536 160.295 256.098 165.871Z" fill="url(#paint0_linear)"/>
<path d="M48.7212 137.029C49.131 136.453 49.5564 135.753 49.3437 135.078C49.2482 134.845 49.1073 134.633 48.9292 134.455C48.7511 134.277 48.5393 134.136 48.3062 134.041C45.8421 132.832 42.74 134.077 40.9762 136.178C39.2124 138.279 38.4602 141.023 37.7599 143.679C37.9363 136.873 38.0349 129.725 34.8601 123.702C34.2534 122.396 33.3142 121.273 32.1366 120.444C30.9176 119.687 29.2576 119.51 28.0748 120.32C26.8921 121.129 26.5186 122.571 26.5186 123.951C26.5186 126.228 27.5561 128.36 28.2097 130.534C29.3613 134.274 29.5325 138.232 29.8956 142.133C30.5441 149.136 31.2859 156.238 33.2208 163.003C33.1482 162.754 36.0377 160.803 36.3334 160.212C37.485 157.986 37.5109 154.806 38.6107 152.394C41.1526 146.786 45.1937 142.019 48.7212 137.029Z" fill="#A500FF"/>
<path d="M48.7212 137.029C49.131 136.453 49.5564 135.753 49.3437 135.078C49.2482 134.845 49.1073 134.633 48.9292 134.455C48.7511 134.277 48.5393 134.136 48.3062 134.041C45.8421 132.832 42.74 134.077 40.9762 136.178C39.2124 138.279 38.4602 141.023 37.7599 143.679C37.9363 136.873 38.0349 129.725 34.8601 123.702C34.2534 122.396 33.3142 121.273 32.1366 120.444C30.9176 119.687 29.2576 119.51 28.0748 120.32C26.8921 121.129 26.5186 122.571 26.5186 123.951C26.5186 126.228 27.5561 128.36 28.2097 130.534C29.3613 134.274 29.5325 138.232 29.8956 142.133C30.5441 149.136 31.2859 156.238 33.2208 163.003C33.1482 162.754 36.0377 160.803 36.3334 160.212C37.485 157.986 37.5109 154.806 38.6107 152.394C41.1526 146.786 45.1937 142.019 48.7212 137.029Z" fill="url(#paint1_linear)"/>
<path d="M132.448 0.705567C135.924 -0.487565 139.819 -0.082938 143.228 1.30732C146.007 2.37544 148.416 4.23035 150.158 6.64529C151.014 7.85662 151.606 9.23478 151.893 10.6899C152.181 12.1451 152.159 13.6445 151.829 15.0906C151.31 17.0255 150.174 18.9086 150.532 20.8799C150.843 22.6125 152.28 23.9198 153.779 24.8431C155.278 25.7665 156.949 26.4461 158.261 27.6237C159.394 28.6744 160.191 30.0371 160.551 31.54C160.911 33.0429 160.818 34.6188 160.284 36.069C159.859 37.1635 159.169 38.2581 159.361 39.4201C159.553 40.5821 160.637 41.4484 161.752 41.8842C162.868 42.3199 164.082 42.4652 165.197 42.9217C166.251 43.3424 167.182 44.0223 167.903 44.8985C168.625 45.7747 169.113 46.8188 169.324 47.9341C169.534 49.0493 169.46 50.1997 169.108 51.2786C168.755 52.3574 168.136 53.3299 167.308 54.106C165.788 55.5378 163.703 56.181 161.685 56.6998C153.858 58.6666 145.755 59.2927 137.718 58.5517C131.53 57.9759 125.331 56.5856 119.152 57.3015C115.298 57.7476 111.573 59.0082 107.74 59.5114C103.906 60.0146 99.6784 59.6463 96.6436 57.2237C95.121 55.9172 93.8922 54.3031 93.0383 52.4875C91.5236 49.5047 90.5742 46.112 91.1293 42.8179C91.6844 39.5239 93.998 36.3958 97.2402 35.5554C98.6824 35.1871 100.202 35.2856 101.691 35.2078C104.635 35.0449 107.499 34.1824 110.043 32.6919C110.811 32.2406 111.599 31.6544 111.807 30.7984C112.149 29.377 110.806 28.2047 110.09 26.9182C108.658 24.3659 110.24 20.6568 113.073 19.9202C114.733 19.4896 116.766 19.8683 117.933 18.6129C119.396 17.0567 118.654 14.577 120.231 12.9378C121.642 11.4749 123.614 10.925 124.744 9.10418C126.96 5.51441 127.966 2.25145 132.448 0.705567Z" fill="#3F3D56"/>
<path d="M132.448 0.705567C135.924 -0.487565 139.819 -0.082938 143.228 1.30732C146.007 2.37544 148.416 4.23035 150.158 6.64529C151.014 7.85662 151.606 9.23478 151.893 10.6899C152.181 12.1451 152.159 13.6445 151.829 15.0906C151.31 17.0255 150.174 18.9086 150.532 20.8799C150.843 22.6125 152.28 23.9198 153.779 24.8431C155.278 25.7665 156.949 26.4461 158.261 27.6237C159.394 28.6744 160.191 30.0371 160.551 31.54C160.911 33.0429 160.818 34.6188 160.284 36.069C159.859 37.1635 159.169 38.2581 159.361 39.4201C159.553 40.5821 160.637 41.4484 161.752 41.8842C162.868 42.3199 164.082 42.4652 165.197 42.9217C166.251 43.3424 167.182 44.0223 167.903 44.8985C168.625 45.7747 169.113 46.8188 169.324 47.9341C169.534 49.0493 169.46 50.1997 169.108 51.2786C168.755 52.3574 168.136 53.3299 167.308 54.106C165.788 55.5378 163.703 56.181 161.685 56.6998C153.858 58.6666 145.755 59.2927 137.718 58.5517C131.53 57.9759 125.331 56.5856 119.152 57.3015C115.298 57.7476 111.573 59.0082 107.74 59.5114C103.906 60.0146 99.6784 59.6463 96.6436 57.2237C95.121 55.9172 93.8922 54.3031 93.0383 52.4875C91.5236 49.5047 90.5742 46.112 91.1293 42.8179C91.6844 39.5239 93.998 36.3958 97.2402 35.5554C98.6824 35.1871 100.202 35.2856 101.691 35.2078C104.635 35.0449 107.499 34.1824 110.043 32.6919C110.811 32.2406 111.599 31.6544 111.807 30.7984C112.149 29.377 110.806 28.2047 110.09 26.9182C108.658 24.3659 110.24 20.6568 113.073 19.9202C114.733 19.4896 116.766 19.8683 117.933 18.6129C119.396 17.0567 118.654 14.577 120.231 12.9378C121.642 11.4749 123.614 10.925 124.744 9.10418C126.96 5.51441 127.966 2.25145 132.448 0.705567Z" fill="url(#paint2_linear)"/>
<path d="M29.3045 164.953C38.3205 177.211 54.3914 182.176 69.4819 184.111C223.375 203.823 244.846 166.167 245.547 165.353C248.078 162.422 210.707 129.403 100.716 136.857C93.023 137.376 24.4179 158.308 29.3045 164.953Z" fill="#3F3D56"/>
<path d="M68.8956 145.993C67.8086 146.49 66.8595 147.245 66.1307 148.192C65.4719 149.183 65.3266 150.615 66.0995 151.517C66.6494 152.166 67.5261 152.415 68.3561 152.622C80.8185 155.688 93.8322 155.74 106.318 152.773C111.371 151.564 116.325 149.863 121.476 149.183C125.626 148.638 129.854 148.768 134.051 148.955C149.494 149.64 164.906 151.03 180.267 152.773C188.982 153.764 197.764 154.848 206.495 154.033C207.361 153.95 208.3 153.816 208.897 153.183C210.277 151.725 208.601 149.349 206.78 148.514C204.088 147.264 200.425 146.74 199.518 143.907C199.433 143.429 199.257 142.97 198.999 142.559C198.529 142.124 197.912 141.883 197.271 141.884C162.027 137.786 126.466 137.153 91.0982 139.996C82.8604 140.65 76.1685 142.05 68.8956 145.993Z" fill="url(#paint3_linear)"/>
<path d="M62.8521 111.594C62.8521 111.594 69.2587 99.3673 97.2143 108.975C125.17 118.582 165.067 135.768 165.067 135.768L161.867 148C161.867 148 96.0523 140.136 86.7303 134.891C77.4083 129.647 61.1039 129.071 62.8521 111.594Z" fill="#60347B"/>
<path d="M109.156 136.93C109.156 136.93 157.789 113.368 181.397 110.723C205.006 108.077 206.733 113.342 207.61 114.51C208.487 115.677 217.217 130.814 185.475 138.097C153.732 145.381 108.305 149.743 108.305 149.743C108.305 149.743 105.95 146.833 109.156 136.93Z" fill="#60347B"/>
<path d="M159.309 1.65503L159.978 0.98584" stroke="#3CB6D5" stroke-width="3.43" stroke-miterlimit="10"/>
<path d="M129.003 40.3693C126.988 41.6096 124.841 42.6222 122.602 43.3885C123.789 45.3287 125.403 46.9718 127.323 48.1921C130.119 49.8832 133.491 50.3449 136.759 50.3761C138.607 50.4495 140.454 50.227 142.232 49.7172C144.613 48.9495 146.651 47.388 148.555 45.7643C149.406 45.0277 150.329 44.0473 150.112 42.9475C148.37 43.0496 146.638 42.6188 145.147 41.7125C143.656 40.8062 142.476 39.4674 141.765 37.8741C141.479 37.1469 141.246 36.3996 141.07 35.6383C140.987 35.3167 140.67 33.2831 140.447 33.0445C140.176 32.7827 139.846 32.5885 139.486 32.4777C139.125 32.3668 138.744 32.3424 138.372 32.4064C136.702 32.7073 134.383 32.1367 133.185 33.501C131.784 35.0625 130.876 39.1865 129.003 40.3693Z" fill="#FDBAAC"/>
<path d="M134.368 39.1244C135.236 39.6909 136.271 39.9452 137.304 39.8454C138.341 39.7261 139.15 37.2517 139.648 36.3335C139.795 36.046 139.92 35.7477 140.022 35.4412C140.465 34.3519 140.736 33.2004 140.826 32.0278C140.826 32.3546 138.663 32.697 138.383 32.7385C137.48 32.8734 136.562 32.9201 135.654 33.0135C134.393 33.1432 131.872 33.2002 132.433 35.021C132.713 35.9496 133.553 38.616 134.368 39.1244Z" fill="#F7AD7E"/>
<path d="M122.607 43.3885C122.607 43.3885 115.563 44.177 113.669 48.1091C111.776 52.0413 84.1003 87.8611 83.9654 90.1903C83.8305 92.5195 97.0691 105.919 97.0691 105.919L103.185 92.81L101.292 88.7378L113.088 72.4282L112.621 114.551L137.433 124.459L160.129 115.734L160.969 72.283C160.969 72.283 170.872 86.2582 171.163 89.7546C171.453 93.251 170.001 95.2897 170.001 95.2897L178.446 107.517C178.446 107.517 191.55 93.832 190.678 87.4254C189.807 81.0188 162.722 48.3996 160.129 46.9678C157.535 45.5361 150.106 42.9683 150.106 42.9683L122.607 43.3885Z" fill="#A500FF"/>
<path d="M108.212 113.13C106.098 113.359 104.004 113.741 101.945 114.271C101.24 114.452 100.436 114.743 100.213 115.438C99.9066 116.382 100.903 117.223 101.81 117.627C107.439 120.133 114.027 118.053 120.117 119.028C125.336 119.868 129.927 122.908 134.985 124.459C135.225 124.55 135.48 124.596 135.737 124.594C136.305 124.604 136.873 124.559 137.433 124.459C139.851 123.624 141.884 122.633 144.54 122.332L154.531 121.207C158.707 120.735 162.136 118.711 166.291 118.094C168.06 117.83 169.923 117.996 171.567 117.259C172.169 116.984 172.781 116.284 172.397 115.749C172.233 115.564 172.016 115.435 171.775 115.381C169.975 114.795 168.045 114.836 166.157 114.862C146.875 115.205 127.39 111.055 108.212 113.13Z" fill="#A500FF"/>
<path d="M108.212 113.13C106.098 113.359 104.004 113.741 101.945 114.271C101.24 114.452 100.436 114.743 100.213 115.438C99.9066 116.382 100.903 117.223 101.81 117.627C107.439 120.133 114.027 118.053 120.117 119.028C125.336 119.868 129.927 122.908 134.985 124.459C135.225 124.55 135.48 124.596 135.737 124.594C136.305 124.604 136.873 124.559 137.433 124.459C139.851 123.624 141.884 122.633 144.54 122.332L154.531 121.207C158.707 120.735 162.136 118.711 166.291 118.094C168.06 117.83 169.923 117.996 171.567 117.259C172.169 116.984 172.781 116.284 172.397 115.749C172.233 115.564 172.016 115.435 171.775 115.381C169.975 114.795 168.045 114.836 166.157 114.862C146.875 115.205 127.39 111.055 108.212 113.13Z" fill="url(#paint4_linear)"/>
<path d="M160.699 64.9321L161.187 72.065L170.006 85.7549C170.76 86.9271 171.216 88.2661 171.333 89.6551C171.451 91.044 171.227 92.4406 170.68 93.7229L170.011 95.2792L174.56 99.1854L179.089 89.1838L160.699 64.9321Z" fill="url(#paint5_linear)"/>
<path d="M113.752 99.9847C114.65 100.298 115.5 100.735 116.278 101.282C118.25 102.791 118.898 105.463 119.059 107.942C119.123 108.399 119.064 108.865 118.888 109.291C118.68 109.608 118.389 109.863 118.047 110.026C117.705 110.19 117.325 110.257 116.948 110.22C115.122 110.22 113.493 108.985 111.672 108.809C110.738 108.715 109.784 108.902 108.865 108.715C106.707 108.274 105.504 106.054 104.197 104.296C102.99 102.708 101.487 101.37 99.7717 100.353C96.4257 98.3766 98.2154 94.5845 101.847 95.3211C105.862 96.146 109.929 98.4337 113.752 99.9847Z" fill="#FDBAAC"/>
<path d="M160.227 98.9209C159.386 99.0678 158.576 99.3554 157.83 99.7716C156.762 100.451 156.103 101.608 155.237 102.511C154.5 103.252 153.556 103.901 153.291 104.912C153.154 105.536 153.233 106.187 153.514 106.759C153.952 107.664 154.685 108.391 155.593 108.821C156.5 109.252 157.528 109.359 158.505 109.125C159.304 108.907 160.025 108.461 160.818 108.238C163.282 107.537 166.172 108.985 168.366 107.672C169.06 107.183 169.677 106.594 170.197 105.924C171.377 104.615 172.753 103.497 174.275 102.609C174.66 102.431 174.997 102.164 175.26 101.831C175.779 101.011 175.214 99.9428 174.591 99.1958C172.77 97.017 171.723 96.2545 168.978 96.8822C166.042 97.5462 163.137 98.2413 160.227 98.9209Z" fill="#FDBAAC"/>
<path d="M102.692 139.622C97.8005 140.11 92.8983 138.299 88.0013 138.761C86.2356 138.95 84.5021 139.368 82.8448 140.006C82.0399 140.252 81.297 140.668 80.6661 141.225C79.5767 142.299 79.364 144.006 79.6286 145.51C80.1473 148.446 82.3053 150.952 84.9717 152.285C86.6192 153.129 88.4696 153.498 90.3149 153.348C91.1916 153.243 92.0587 153.069 92.9087 152.83C94.8222 152.429 96.6843 151.813 98.4593 150.993C99.5798 150.423 100.612 149.696 101.738 149.146C103.336 148.368 105.094 147.969 106.666 147.144C106.788 147.091 106.899 147.016 106.993 146.921C107.09 146.8 107.162 146.66 107.205 146.511C107.988 144.309 108.369 141.985 108.331 139.648C108.331 139.316 108.44 138.611 108.098 138.429C107.833 138.294 106.692 138.813 106.386 138.896C105.177 139.238 103.941 139.481 102.692 139.622Z" fill="#FDBAAC"/>
<path d="M170.862 146.46C173.217 147.056 175.354 148.312 177.688 148.971C179.694 149.485 181.76 149.724 183.83 149.681C186.943 149.681 190.216 149.443 192.914 147.86C193.349 147.631 193.729 147.311 194.029 146.921C194.724 145.931 194.418 144.561 193.957 143.441C193.158 141.475 191.845 139.56 189.869 138.772C187.534 137.864 184.935 138.772 182.508 139.358C176.532 140.857 170.25 140.629 164.206 141.822C163.883 141.816 163.57 141.933 163.331 142.15C163.092 142.367 162.945 142.667 162.92 142.989C162.748 143.716 162.302 144.914 162.577 145.661C162.894 146.532 163.755 146.221 164.512 146.18C166.629 145.919 168.775 146.014 170.862 146.46Z" fill="#FDBAAC"/>
<path d="M175.769 143.7C175.556 144.12 175.306 144.521 175.022 144.898C174.592 145.515 174.408 146.269 174.503 147.014C174.624 147.453 174.832 147.863 175.114 148.219C175.397 148.576 175.748 148.872 176.148 149.089C178.42 150.573 181.257 150.848 183.97 150.941C185.424 151.031 186.883 150.966 188.323 150.75C189.349 150.548 190.362 150.277 191.352 149.94C192.357 149.693 193.304 149.251 194.138 148.638C194.775 148.074 195.263 147.361 195.559 146.563C195.96 145.654 196.069 144.642 195.871 143.669C195.647 142.923 195.277 142.23 194.781 141.63C194.272 140.948 193.717 140.302 193.121 139.695C192.686 139.209 192.156 138.818 191.565 138.543C190.854 138.315 190.103 138.235 189.36 138.31C185.097 138.413 180.848 138.859 176.656 139.643C176.328 139.681 176.016 139.802 175.748 139.996C175.203 140.468 175.748 141.096 175.852 141.64C176.037 142.319 176.008 143.038 175.769 143.7V143.7Z" fill="#A500FF"/>
<path d="M100.576 145.407C101.063 145.744 101.613 145.977 102.08 146.34C102.325 146.507 102.526 146.731 102.665 146.993C102.803 147.256 102.875 147.548 102.874 147.845C102.806 148.561 102.137 149.053 101.525 149.401C98.7099 151.103 95.6624 152.388 92.478 153.214C91.0882 153.631 89.6371 153.807 88.1879 153.733C87.0046 153.592 85.8489 153.275 84.7589 152.794C82.8447 152.005 80.9876 150.942 79.7011 149.323C78.4146 147.705 77.7921 145.448 78.5235 143.513C79.1408 141.874 80.5985 140.717 81.9888 139.664C82.6983 139.071 83.4988 138.596 84.3595 138.258C85.2028 138.021 86.0778 137.916 86.9532 137.947C89.2513 137.911 91.5442 137.916 93.8423 137.916C95.3985 137.916 98.4851 137.89 98.8431 139.918C99.0091 140.847 98.6148 141.78 98.8431 142.745C99.0663 143.818 99.6847 144.768 100.576 145.407V145.407Z" fill="#A500FF"/>
<path d="M175.769 143.7C175.556 144.12 175.306 144.521 175.022 144.898C174.592 145.515 174.408 146.269 174.503 147.014C174.624 147.453 174.832 147.863 175.114 148.219C175.397 148.576 175.748 148.872 176.148 149.089C178.42 150.573 181.257 150.848 183.97 150.941C185.424 151.031 186.883 150.966 188.323 150.75C189.349 150.548 190.362 150.277 191.352 149.94C192.357 149.693 193.304 149.251 194.138 148.638C194.775 148.074 195.263 147.361 195.559 146.563C195.96 145.654 196.069 144.642 195.871 143.669C195.647 142.923 195.277 142.23 194.781 141.63C194.272 140.948 193.717 140.302 193.121 139.695C192.686 139.209 192.156 138.818 191.565 138.543C190.854 138.315 190.103 138.235 189.36 138.31C185.097 138.413 180.848 138.859 176.656 139.643C176.328 139.681 176.016 139.802 175.748 139.996C175.203 140.468 175.748 141.096 175.852 141.64C176.037 142.319 176.008 143.038 175.769 143.7V143.7Z" fill="url(#paint6_linear)"/>
<path d="M100.576 145.407C101.063 145.744 101.613 145.977 102.08 146.34C102.325 146.507 102.526 146.731 102.665 146.993C102.803 147.256 102.875 147.548 102.874 147.845C102.806 148.561 102.137 149.053 101.525 149.401C98.7099 151.103 95.6624 152.388 92.478 153.214C91.0882 153.631 89.6371 153.807 88.1879 153.733C87.0046 153.592 85.8489 153.275 84.7589 152.794C82.8447 152.005 80.9876 150.942 79.7011 149.323C78.4146 147.705 77.7921 145.448 78.5235 143.513C79.1408 141.874 80.5985 140.717 81.9888 139.664C82.6983 139.071 83.4988 138.596 84.3595 138.258C85.2028 138.021 86.0778 137.916 86.9532 137.947C89.2513 137.911 91.5442 137.916 93.8423 137.916C95.3985 137.916 98.4851 137.89 98.8431 139.918C99.0091 140.847 98.6148 141.78 98.8431 142.745C99.0663 143.818 99.6847 144.768 100.576 145.407V145.407Z" fill="url(#paint7_linear)"/>
<path d="M127.063 17.9695C127.063 17.9695 126.628 36.3178 136.24 35.2959C145.853 34.2739 146.288 17.3989 146.288 17.3989C146.288 17.3989 142.356 7.4959 134.056 8.9536C125.756 10.4113 127.063 17.9695 127.063 17.9695Z" fill="#FDBAAC"/>
<path d="M131.883 9.99143C133.2 15.5006 138.907 19.5884 144.546 19.0748C145.516 18.9814 146.621 18.6598 146.994 17.7623C147.133 17.3505 147.178 16.9125 147.124 16.481C147 13.6684 146.077 10.9494 144.463 8.64268C143.65 7.50337 142.609 6.5459 141.406 5.83136C140.203 5.11681 138.864 4.66089 137.475 4.49265C133.449 4.11396 129.694 6.61435 126.96 9.61274C125.253 11.4958 120.092 20.076 125.72 20.3457C127.52 20.4287 129.263 19.1215 130.129 17.6378C131.499 15.2671 130.316 12.2117 131.883 9.99143Z" fill="#3F3D56"/>
<path d="M113.575 65.2954L113.088 72.4283L101.297 88.7327L103.185 92.8101L101.815 95.3208L95.1753 89.5575L113.575 65.2954Z" fill="url(#paint8_linear)"/>
<path d="M123.146 44.924C123.536 45.9615 124.838 46.252 125.922 46.5166C127.997 47.0353 129.958 48.0729 132.048 48.5916C134.234 49.0675 136.468 49.28 138.704 49.2245C141.526 49.2712 144.353 49.3179 147.17 49.1155C150.946 48.851 154.728 48.1559 158.494 48.5345C158.748 48.3478 158.453 47.9691 158.178 47.8135C156.217 46.7033 154.163 45.7748 152.134 44.7943C150.454 43.9747 149.022 44.0733 147.154 44.1822C142.045 44.4727 136.925 44.1822 131.81 44.2341C128.909 44.2484 126.013 44.479 123.146 44.924V44.924Z" fill="url(#paint9_linear)"/>
<path d="M168.237 70.4985H107.859V116.387H168.237V70.4985Z" fill="#A500FF"/>
<path d="M168.507 70.4985H108.129V73.7096H168.507V70.4985Z" fill="url(#paint10_linear)"/>
<path d="M168.507 73.772H108.129V116.097H168.507V73.772Z" fill="#A500FF"/>
</g>
<g filter="url(#filter0_d)">
<circle cx="219" cy="160" r="40" fill="white"/>
<path d="M214.231 177.384C213.827 177.779 213.275 178 212.701 178C212.128 178 211.576 177.779 211.171 177.384L198.951 165.501C197.683 164.268 197.683 162.269 198.951 161.038L200.481 159.55C201.75 158.317 203.804 158.317 205.072 159.55L212.701 166.968L233.317 146.925C234.585 145.692 236.641 145.692 237.908 146.925L239.438 148.413C240.706 149.646 240.706 151.645 239.438 152.876L214.231 177.384Z" fill="#A500FF"/>
</g>
<defs>
<filter id="filter0_d" x="179" y="120" width="83" height="83" filterUnits="userSpaceOnUse" color-interpolation-filters="sRGB">
<feFlood flood-opacity="0" result="BackgroundImageFix"/>
<feColorMatrix in="SourceAlpha" type="matrix" values="0 0 0 0 0 0 0 0 0 0 0 0 0 0 0 0 0 0 127 0"/>
<feOffset dx="3" dy="3"/>
<feColorMatrix type="matrix" values="0 0 0 0 0 0 0 0 0 0 0 0 0 0 0 0 0 0 0.1 0"/>
<feBlend mode="normal" in2="BackgroundImageFix" result="effect1_dropShadow"/>
<feBlend mode="normal" in="SourceGraphic" in2="effect1_dropShadow" result="shape"/>
</filter>
<linearGradient id="paint0_linear" x1="126.311" y1="177.123" x2="132.308" y2="116.6" gradientUnits="userSpaceOnUse">
<stop stop-color="white" stop-opacity="0"/>
<stop offset="0.76" stop-color="white" stop-opacity="0.76"/>
<stop offset="0.99" stop-color="white"/>
</linearGradient>
<linearGradient id="paint1_linear" x1="37.2101" y1="140.681" x2="34.6682" y2="179.032" gradientUnits="userSpaceOnUse">
<stop stop-opacity="0"/>
<stop offset="0.99"/>
</linearGradient>
<linearGradient id="paint2_linear" x1="20966" y1="4646.88" x2="20510.3" y2="10696.5" gradientUnits="userSpaceOnUse">
<stop stop-opacity="0"/>
<stop offset="0.99"/>
</linearGradient>
<linearGradient id="paint3_linear" x1="39159.6" y1="5032.57" x2="39187.1" y2="13245.7" gradientUnits="userSpaceOnUse">
<stop stop-opacity="0"/>
<stop offset="0.99"/>
</linearGradient>
<linearGradient id="paint4_linear" x1="17434.1" y1="2771.05" x2="17734.1" y2="6106.12" gradientUnits="userSpaceOnUse">
<stop stop-opacity="0"/>
<stop offset="0.99"/>
</linearGradient>
<linearGradient id="paint5_linear" x1="-92747.4" y1="7742.8" x2="-97896.3" y2="6766.88" gradientUnits="userSpaceOnUse">
<stop stop-opacity="0"/>
<stop offset="0.99"/>
</linearGradient>
<linearGradient id="paint6_linear" x1="7579.51" y1="4383.26" x2="8470.43" y2="4383.26" gradientUnits="userSpaceOnUse">
<stop stop-opacity="0"/>
<stop offset="0.99"/>
</linearGradient>
<linearGradient id="paint7_linear" x1="4001.67" y1="5467.63" x2="5174.34" y2="5467.63" gradientUnits="userSpaceOnUse">
<stop stop-opacity="0"/>
<stop offset="0.99"/>
</linearGradient>
<linearGradient id="paint8_linear" x1="3311.34" y1="5061.23" x2="8409.57" y2="3958.21" gradientUnits="userSpaceOnUse">
<stop stop-opacity="0"/>
<stop offset="0.99"/>
</linearGradient>
<linearGradient id="paint9_linear" x1="9716.96" y1="838.789" x2="9840.66" y2="32.9767" gradientUnits="userSpaceOnUse">
<stop stop-color="white" stop-opacity="0"/>
<stop offset="0.76" stop-color="white" stop-opacity="0.76"/>
<stop offset="0.99" stop-color="white"/>
</linearGradient>
<linearGradient id="paint10_linear" x1="16179.5" y1="550.974" x2="16179.6" y2="473.184" gradientUnits="userSpaceOnUse">
<stop stop-color="white" stop-opacity="0"/>
<stop offset="0.76" stop-color="white" stop-opacity="0.76"/>
<stop offset="0.99" stop-color="white"/>
</linearGradient>
<clipPath id="clip0">
<rect width="259.164" height="200" fill="white"/>
</clipPath>
</defs>
</svg>
