<svg width="840" height="230" viewBox="0 0 840 230" fill="none" xmlns="http://www.w3.org/2000/svg">
<path d="M273.276 59.04C453.484 9.77635 839 26.8681 839 26.8681V145H76C76 145 93.0671 108.304 273.276 59.04Z" fill="#4EE09A"/>
<path d="M76 0H416V230H76V0Z" fill="#89D5FF" fill-opacity="0.3"/>
<line x1="58" y1="145.018" x2="838.999" y2="145.018" stroke="#CCD0D4"/>
<line x1="75.5" y1="230" x2="75.5" stroke="#CCD0D4"/>
<line x1="245.5" y1="229" x2="245.5" y2="34" stroke="#CCD0D4"/>
<line x1="415.5" y1="230" x2="415.5" stroke="#CCD0D4"/>
<path d="M168.956 169H166.98V161.385L164.622 162.116V160.51L168.744 159.033H168.956V169ZM115.273 194.632C115.218 195.397 114.935 195.999 114.424 196.438C113.916 196.878 113.245 197.098 112.412 197.098C111.501 197.098 110.783 196.792 110.259 196.18C109.738 195.564 109.478 194.721 109.478 193.65V193.216C109.478 192.532 109.598 191.93 109.839 191.409C110.08 190.888 110.423 190.49 110.869 190.213C111.318 189.933 111.839 189.793 112.432 189.793C113.252 189.793 113.913 190.013 114.414 190.452C114.915 190.892 115.205 191.508 115.283 192.303H113.818C113.783 191.844 113.654 191.512 113.433 191.307C113.215 191.098 112.881 190.994 112.432 190.994C111.943 190.994 111.577 191.17 111.333 191.521C111.092 191.87 110.968 192.412 110.962 193.147V193.685C110.962 194.453 111.077 195.014 111.309 195.369C111.543 195.724 111.911 195.901 112.412 195.901C112.865 195.901 113.201 195.799 113.423 195.594C113.647 195.385 113.776 195.065 113.809 194.632H115.273ZM122.075 193.606C122.075 194.306 121.951 194.92 121.704 195.447C121.457 195.975 121.102 196.382 120.64 196.668C120.181 196.954 119.653 197.098 119.058 197.098C118.468 197.098 117.943 196.956 117.48 196.673C117.018 196.39 116.66 195.986 116.406 195.462C116.152 194.935 116.024 194.329 116.021 193.646V193.294C116.021 192.594 116.146 191.979 116.396 191.448C116.65 190.914 117.007 190.506 117.466 190.223C117.928 189.936 118.455 189.793 119.048 189.793C119.64 189.793 120.166 189.936 120.625 190.223C121.087 190.506 121.444 190.914 121.694 191.448C121.948 191.979 122.075 192.592 122.075 193.289V193.606ZM120.591 193.284C120.591 192.539 120.457 191.972 120.19 191.585C119.924 191.198 119.543 191.004 119.048 191.004C118.556 191.004 118.177 191.196 117.91 191.58C117.643 191.961 117.508 192.521 117.505 193.26V193.606C117.505 194.332 117.638 194.896 117.905 195.296C118.172 195.696 118.556 195.896 119.058 195.896C119.549 195.896 119.927 195.704 120.19 195.32C120.454 194.933 120.588 194.37 120.591 193.631V193.284ZM128.921 197H127.456L124.604 192.322V197H123.14V189.891H124.604L127.461 194.578V189.891H128.921V197ZM133.887 195.135C133.887 194.858 133.789 194.646 133.594 194.5C133.398 194.35 133.047 194.194 132.539 194.031C132.031 193.865 131.629 193.702 131.333 193.543C130.526 193.107 130.122 192.519 130.122 191.78C130.122 191.396 130.229 191.054 130.444 190.755C130.662 190.452 130.973 190.216 131.377 190.047C131.784 189.878 132.24 189.793 132.744 189.793C133.252 189.793 133.704 189.886 134.102 190.071C134.499 190.254 134.806 190.512 135.024 190.848C135.246 191.183 135.356 191.564 135.356 191.99H133.892C133.892 191.665 133.789 191.412 133.584 191.233C133.379 191.051 133.091 190.96 132.72 190.96C132.362 190.96 132.083 191.036 131.885 191.189C131.686 191.339 131.587 191.538 131.587 191.785C131.587 192.016 131.702 192.21 131.934 192.366C132.168 192.522 132.511 192.669 132.964 192.806C133.797 193.056 134.404 193.367 134.785 193.738C135.166 194.109 135.356 194.572 135.356 195.125C135.356 195.74 135.124 196.224 134.658 196.575C134.193 196.924 133.566 197.098 132.778 197.098C132.231 197.098 131.733 196.998 131.284 196.8C130.835 196.598 130.492 196.323 130.254 195.975C130.02 195.626 129.902 195.223 129.902 194.764H131.372C131.372 195.548 131.841 195.94 132.778 195.94C133.127 195.94 133.398 195.87 133.594 195.73C133.789 195.587 133.887 195.389 133.887 195.135ZM141.934 194.632C141.878 195.397 141.595 195.999 141.084 196.438C140.576 196.878 139.906 197.098 139.072 197.098C138.161 197.098 137.443 196.792 136.919 196.18C136.398 195.564 136.138 194.721 136.138 193.65V193.216C136.138 192.532 136.258 191.93 136.499 191.409C136.74 190.888 137.083 190.49 137.529 190.213C137.979 189.933 138.499 189.793 139.092 189.793C139.912 189.793 140.573 190.013 141.074 190.452C141.576 190.892 141.865 191.508 141.943 192.303H140.479C140.443 191.844 140.314 191.512 140.093 191.307C139.875 191.098 139.541 190.994 139.092 190.994C138.604 190.994 138.237 191.17 137.993 191.521C137.752 191.87 137.629 192.412 137.622 193.147V193.685C137.622 194.453 137.738 195.014 137.969 195.369C138.203 195.724 138.571 195.901 139.072 195.901C139.525 195.901 139.862 195.799 140.083 195.594C140.308 195.385 140.436 195.065 140.469 194.632H141.934ZM144.453 197H142.988V189.891H144.453V197ZM150.093 193.919H147.28V195.823H150.581V197H145.815V189.891H150.571V191.077H147.28V192.771H150.093V193.919ZM157.222 197H155.757L152.905 192.322V197H151.44V189.891H152.905L155.762 194.578V189.891H157.222V197ZM163.706 191.077H161.528V197H160.063V191.077H157.915V189.891H163.706V191.077ZM168.823 193.919H166.011V195.823H169.312V197H164.546V189.891H169.302V191.077H166.011V192.771H168.823V193.919ZM172.085 189.891L173.911 195.047L175.728 189.891H177.651V197H176.182V195.057L176.328 191.702L174.409 197H173.403L171.489 191.707L171.636 195.057V197H170.171V189.891H172.085ZM183.208 193.919H180.396V195.823H183.696V197H178.931V189.891H183.687V191.077H180.396V192.771H183.208V193.919ZM190.337 197H188.872L186.021 192.322V197H184.556V189.891H186.021L188.877 194.578V189.891H190.337V197ZM196.821 191.077H194.644V197H193.179V191.077H191.03V189.891H196.821V191.077ZM201.938 193.919H199.126V195.823H202.427V197H197.661V189.891H202.417V191.077H199.126V192.771H201.938V193.919ZM208.228 193.094L209.707 189.891H211.309L208.975 194.422V197H207.485V194.422L205.151 189.891H206.758L208.228 193.094ZM214.448 197V189.891H216.636C217.261 189.891 217.819 190.032 218.311 190.315C218.805 190.595 219.191 190.996 219.468 191.517C219.744 192.034 219.883 192.623 219.883 193.284V193.611C219.883 194.272 219.746 194.86 219.473 195.374C219.202 195.888 218.82 196.287 218.325 196.57C217.83 196.854 217.272 196.997 216.65 197H214.448ZM215.913 191.077V195.823H216.621C217.194 195.823 217.632 195.636 217.935 195.262C218.237 194.887 218.392 194.352 218.398 193.655V193.279C218.398 192.557 218.249 192.01 217.949 191.639C217.65 191.264 217.212 191.077 216.636 191.077H215.913ZM225.229 193.919H222.417V195.823H225.718V197H220.952V189.891H225.708V191.077H222.417V192.771H225.229V193.919ZM119.561 203.891L121.387 209.047L123.203 203.891H125.127V211H123.657V209.057L123.804 205.702L121.885 211H120.879L118.965 205.707L119.111 209.057V211H117.646V203.891H119.561ZM130.508 209.535H127.939L127.451 211H125.894L128.54 203.891H129.897L132.559 211H131.001L130.508 209.535ZM128.335 208.349H130.112L129.219 205.688L128.335 208.349ZM139.004 211H137.539L134.688 206.322V211H133.223V203.891H134.688L137.544 208.578V203.891H139.004V211ZM144.561 207.919H141.748V209.823H145.049V211H140.283V203.891H145.039V205.077H141.748V206.771H144.561V207.919ZM148.54 208.397H147.373V211H145.908V203.891H148.55C149.39 203.891 150.037 204.078 150.493 204.452C150.949 204.826 151.177 205.355 151.177 206.039C151.177 206.524 151.071 206.929 150.859 207.255C150.651 207.577 150.334 207.834 149.907 208.026L151.445 210.932V211H149.873L148.54 208.397ZM147.373 207.211H148.555C148.923 207.211 149.207 207.118 149.409 206.933C149.611 206.744 149.712 206.485 149.712 206.156C149.712 205.821 149.616 205.557 149.424 205.365C149.235 205.173 148.944 205.077 148.55 205.077H147.373V207.211ZM156.309 209.535H153.74L153.252 211H151.694L154.341 203.891H155.698L158.359 211H156.802L156.309 209.535ZM154.136 208.349H155.913L155.02 205.688L154.136 208.349ZM165.527 209.535H162.959L162.471 211H160.913L163.56 203.891H164.917L167.578 211H166.021L165.527 209.535ZM163.354 208.349H165.132L164.238 205.688L163.354 208.349ZM173.76 210.102C173.496 210.417 173.123 210.663 172.642 210.839C172.16 211.011 171.626 211.098 171.04 211.098C170.425 211.098 169.884 210.964 169.419 210.697C168.957 210.427 168.599 210.036 168.345 209.525C168.094 209.014 167.965 208.414 167.959 207.724V207.24C167.959 206.531 168.078 205.917 168.315 205.399C168.556 204.879 168.901 204.481 169.351 204.208C169.803 203.931 170.332 203.793 170.938 203.793C171.781 203.793 172.44 203.995 172.915 204.398C173.39 204.799 173.672 205.383 173.76 206.151H172.334C172.269 205.744 172.124 205.447 171.899 205.258C171.678 205.069 171.372 204.975 170.981 204.975C170.483 204.975 170.104 205.162 169.844 205.536C169.583 205.91 169.451 206.467 169.448 207.206V207.66C169.448 208.406 169.59 208.969 169.873 209.35C170.156 209.73 170.571 209.921 171.118 209.921C171.668 209.921 172.061 209.804 172.295 209.569V208.344H170.962V207.265H173.76V210.102ZM177.583 208.397H176.416V211H174.951V203.891H177.593C178.433 203.891 179.08 204.078 179.536 204.452C179.992 204.826 180.22 205.355 180.22 206.039C180.22 206.524 180.114 206.929 179.902 207.255C179.694 207.577 179.377 207.834 178.95 208.026L180.488 210.932V211H178.916L177.583 208.397ZM176.416 207.211H177.598C177.965 207.211 178.25 207.118 178.452 206.933C178.654 206.744 178.755 206.485 178.755 206.156C178.755 205.821 178.659 205.557 178.467 205.365C178.278 205.173 177.987 205.077 177.593 205.077H176.416V207.211ZM185.352 209.535H182.783L182.295 211H180.737L183.384 203.891H184.741L187.402 211H185.845L185.352 209.535ZM183.179 208.349H184.956L184.062 205.688L183.179 208.349ZM188.066 211V203.891H190.254C190.879 203.891 191.437 204.032 191.929 204.315C192.424 204.595 192.809 204.996 193.086 205.517C193.363 206.034 193.501 206.623 193.501 207.284V207.611C193.501 208.272 193.364 208.86 193.091 209.374C192.821 209.888 192.438 210.287 191.943 210.57C191.449 210.854 190.89 210.997 190.269 211H188.066ZM189.531 205.077V209.823H190.239C190.812 209.823 191.25 209.636 191.553 209.262C191.855 208.887 192.01 208.352 192.017 207.655V207.279C192.017 206.557 191.867 206.01 191.567 205.639C191.268 205.264 190.83 205.077 190.254 205.077H189.531ZM198.477 209.535H195.908L195.42 211H193.862L196.509 203.891H197.866L200.527 211H198.97L198.477 209.535ZM196.304 208.349H198.081L197.188 205.688L196.304 208.349ZM201.191 211V203.891H203.682C204.544 203.891 205.199 204.057 205.645 204.389C206.09 204.717 206.313 205.201 206.313 205.839C206.313 206.187 206.224 206.495 206.045 206.762C205.866 207.025 205.617 207.219 205.298 207.343C205.662 207.434 205.949 207.618 206.157 207.895C206.369 208.171 206.475 208.51 206.475 208.91C206.475 209.594 206.257 210.111 205.82 210.463C205.384 210.814 204.762 210.993 203.955 211H201.191ZM202.656 207.904V209.823H203.911C204.256 209.823 204.525 209.742 204.717 209.579C204.912 209.413 205.01 209.185 205.01 208.896C205.01 208.244 204.673 207.914 203.999 207.904H202.656ZM202.656 206.869H203.74C204.479 206.856 204.849 206.562 204.849 205.985C204.849 205.663 204.754 205.432 204.565 205.292C204.38 205.149 204.085 205.077 203.682 205.077H202.656V206.869ZM209.043 209.823H212.153V211H207.578V203.891H209.043V209.823ZM217.275 207.919H214.463V209.823H217.764V211H212.998V203.891H217.754V205.077H214.463V206.771H217.275V207.919Z" fill="#60347B"/>
<path d="M148.711 181.535H146.143L145.654 183H144.097L146.743 175.891H148.101L150.762 183H149.204L148.711 181.535ZM146.538 180.349H148.315L147.422 177.688L146.538 180.349ZM152.891 180.495V183H151.426V175.891H154.199C154.733 175.891 155.202 175.988 155.605 176.184C156.012 176.379 156.325 176.657 156.543 177.019C156.761 177.377 156.87 177.785 156.87 178.244C156.87 178.941 156.631 179.491 156.152 179.895C155.677 180.295 155.018 180.495 154.175 180.495H152.891ZM152.891 179.309H154.199C154.587 179.309 154.881 179.217 155.083 179.035C155.288 178.853 155.391 178.592 155.391 178.254C155.391 177.906 155.288 177.624 155.083 177.409C154.878 177.194 154.595 177.084 154.233 177.077H152.891V179.309ZM160.513 180.397H159.346V183H157.881V175.891H160.522C161.362 175.891 162.01 176.078 162.466 176.452C162.922 176.826 163.149 177.355 163.149 178.039C163.149 178.524 163.044 178.929 162.832 179.255C162.624 179.577 162.306 179.834 161.88 180.026L163.418 182.932V183H161.846L160.513 180.397ZM159.346 179.211H160.527C160.895 179.211 161.18 179.118 161.382 178.933C161.584 178.744 161.685 178.485 161.685 178.156C161.685 177.821 161.589 177.557 161.396 177.365C161.208 177.173 160.916 177.077 160.522 177.077H159.346V179.211ZM168.545 179.919H165.732V181.823H169.033V183H164.268V175.891H169.023V177.077H165.732V178.771H168.545V179.919ZM175.674 183H174.209L171.357 178.322V183H169.893V175.891H171.357L174.214 180.578V175.891H175.674V183ZM176.953 183V175.891H179.141C179.766 175.891 180.324 176.032 180.815 176.315C181.31 176.595 181.696 176.996 181.973 177.517C182.249 178.034 182.388 178.623 182.388 179.284V179.611C182.388 180.272 182.251 180.86 181.978 181.374C181.707 181.888 181.325 182.287 180.83 182.57C180.335 182.854 179.777 182.997 179.155 183H176.953ZM178.418 177.077V181.823H179.126C179.699 181.823 180.137 181.636 180.439 181.262C180.742 180.887 180.897 180.352 180.903 179.655V179.279C180.903 178.557 180.754 178.01 180.454 177.639C180.155 177.264 179.717 177.077 179.141 177.077H178.418ZM187.734 179.919H184.922V181.823H188.223V183H183.457V175.891H188.213V177.077H184.922V178.771H187.734V179.919Z" fill="#FF0099"/>
<path d="M332.979 169H326.157V167.646L329.377 164.215C329.819 163.732 330.145 163.31 330.354 162.95C330.569 162.59 330.676 162.248 330.676 161.925C330.676 161.483 330.564 161.136 330.341 160.886C330.118 160.631 329.799 160.503 329.384 160.503C328.937 160.503 328.584 160.658 328.324 160.968C328.069 161.273 327.941 161.676 327.941 162.178H325.959C325.959 161.572 326.103 161.018 326.39 160.517C326.681 160.015 327.091 159.623 327.62 159.341C328.149 159.054 328.748 158.91 329.418 158.91C330.443 158.91 331.239 159.156 331.804 159.648C332.373 160.141 332.658 160.836 332.658 161.733C332.658 162.226 332.531 162.727 332.275 163.237C332.02 163.748 331.583 164.342 330.963 165.021L328.7 167.407H332.979V169ZM288.919 194.632C288.864 195.397 288.58 195.999 288.069 196.438C287.562 196.878 286.891 197.098 286.058 197.098C285.146 197.098 284.428 196.792 283.904 196.18C283.383 195.564 283.123 194.721 283.123 193.65V193.216C283.123 192.532 283.243 191.93 283.484 191.409C283.725 190.888 284.069 190.49 284.515 190.213C284.964 189.933 285.485 189.793 286.077 189.793C286.897 189.793 287.558 190.013 288.06 190.452C288.561 190.892 288.851 191.508 288.929 192.303H287.464C287.428 191.844 287.299 191.512 287.078 191.307C286.86 191.098 286.526 190.994 286.077 190.994C285.589 190.994 285.223 191.17 284.979 191.521C284.738 191.87 284.614 192.412 284.607 193.147V193.685C284.607 194.453 284.723 195.014 284.954 195.369C285.188 195.724 285.556 195.901 286.058 195.901C286.51 195.901 286.847 195.799 287.068 195.594C287.293 195.385 287.422 195.065 287.454 194.632H288.919ZM295.721 193.606C295.721 194.306 295.597 194.92 295.35 195.447C295.102 195.975 294.747 196.382 294.285 196.668C293.826 196.954 293.299 197.098 292.703 197.098C292.114 197.098 291.588 196.956 291.126 196.673C290.664 196.39 290.306 195.986 290.052 195.462C289.798 194.935 289.669 194.329 289.666 193.646V193.294C289.666 192.594 289.791 191.979 290.042 191.448C290.296 190.914 290.652 190.506 291.111 190.223C291.574 189.936 292.101 189.793 292.693 189.793C293.286 189.793 293.812 189.936 294.271 190.223C294.733 190.506 295.089 190.914 295.34 191.448C295.594 191.979 295.721 192.592 295.721 193.289V193.606ZM294.236 193.284C294.236 192.539 294.103 191.972 293.836 191.585C293.569 191.198 293.188 191.004 292.693 191.004C292.202 191.004 291.823 191.196 291.556 191.58C291.289 191.961 291.154 192.521 291.15 193.26V193.606C291.15 194.332 291.284 194.896 291.551 195.296C291.818 195.696 292.202 195.896 292.703 195.896C293.195 195.896 293.572 195.704 293.836 195.32C294.1 194.933 294.233 194.37 294.236 193.631V193.284ZM302.566 197H301.102L298.25 192.322V197H296.785V189.891H298.25L301.106 194.578V189.891H302.566V197ZM307.532 195.135C307.532 194.858 307.435 194.646 307.239 194.5C307.044 194.35 306.692 194.194 306.185 194.031C305.677 193.865 305.275 193.702 304.979 193.543C304.171 193.107 303.768 192.519 303.768 191.78C303.768 191.396 303.875 191.054 304.09 190.755C304.308 190.452 304.619 190.216 305.022 190.047C305.429 189.878 305.885 189.793 306.39 189.793C306.897 189.793 307.35 189.886 307.747 190.071C308.144 190.254 308.452 190.512 308.67 190.848C308.891 191.183 309.002 191.564 309.002 191.99H307.537C307.537 191.665 307.435 191.412 307.229 191.233C307.024 191.051 306.736 190.96 306.365 190.96C306.007 190.96 305.729 191.036 305.53 191.189C305.332 191.339 305.232 191.538 305.232 191.785C305.232 192.016 305.348 192.21 305.579 192.366C305.813 192.522 306.157 192.669 306.609 192.806C307.443 193.056 308.05 193.367 308.431 193.738C308.812 194.109 309.002 194.572 309.002 195.125C309.002 195.74 308.769 196.224 308.304 196.575C307.838 196.924 307.212 197.098 306.424 197.098C305.877 197.098 305.379 196.998 304.93 196.8C304.48 196.598 304.137 196.323 303.899 195.975C303.665 195.626 303.548 195.223 303.548 194.764H305.018C305.018 195.548 305.486 195.94 306.424 195.94C306.772 195.94 307.044 195.87 307.239 195.73C307.435 195.587 307.532 195.389 307.532 195.135ZM315.579 194.632C315.524 195.397 315.241 195.999 314.729 196.438C314.222 196.878 313.551 197.098 312.718 197.098C311.806 197.098 311.089 196.792 310.564 196.18C310.044 195.564 309.783 194.721 309.783 193.65V193.216C309.783 192.532 309.904 191.93 310.145 191.409C310.385 190.888 310.729 190.49 311.175 190.213C311.624 189.933 312.145 189.793 312.737 189.793C313.558 189.793 314.218 190.013 314.72 190.452C315.221 190.892 315.511 191.508 315.589 192.303H314.124C314.088 191.844 313.96 191.512 313.738 191.307C313.52 191.098 313.187 190.994 312.737 190.994C312.249 190.994 311.883 191.17 311.639 191.521C311.398 191.87 311.274 192.412 311.268 193.147V193.685C311.268 194.453 311.383 195.014 311.614 195.369C311.849 195.724 312.216 195.901 312.718 195.901C313.17 195.901 313.507 195.799 313.729 195.594C313.953 195.385 314.082 195.065 314.114 194.632H315.579ZM318.099 197H316.634V189.891H318.099V197ZM323.738 193.919H320.926V195.823H324.227V197H319.461V189.891H324.217V191.077H320.926V192.771H323.738V193.919ZM330.867 197H329.402L326.551 192.322V197H325.086V189.891H326.551L329.407 194.578V189.891H330.867V197ZM337.352 191.077H335.174V197H333.709V191.077H331.561V189.891H337.352V191.077ZM342.469 193.919H339.656V195.823H342.957V197H338.191V189.891H342.947V191.077H339.656V192.771H342.469V193.919ZM345.73 189.891L347.557 195.047L349.373 189.891H351.297V197H349.827V195.057L349.974 191.702L348.055 197H347.049L345.135 191.707L345.281 195.057V197H343.816V189.891H345.73ZM356.854 193.919H354.041V195.823H357.342V197H352.576V189.891H357.332V191.077H354.041V192.771H356.854V193.919ZM363.982 197H362.518L359.666 192.322V197H358.201V189.891H359.666L362.522 194.578V189.891H363.982V197ZM370.467 191.077H368.289V197H366.824V191.077H364.676V189.891H370.467V191.077ZM375.584 193.919H372.771V195.823H376.072V197H371.307V189.891H376.062V191.077H372.771V192.771H375.584V193.919Z" fill="#60347B"/>
<path d="M313.04 181.535H310.472L309.983 183H308.426L311.072 175.891H312.43L315.091 183H313.533L313.04 181.535ZM310.867 180.349H312.645L311.751 177.688L310.867 180.349ZM319.441 181.135C319.441 180.858 319.344 180.646 319.148 180.5C318.953 180.35 318.602 180.194 318.094 180.031C317.586 179.865 317.184 179.702 316.888 179.543C316.08 179.107 315.677 178.519 315.677 177.78C315.677 177.396 315.784 177.054 315.999 176.755C316.217 176.452 316.528 176.216 316.932 176.047C317.339 175.878 317.794 175.793 318.299 175.793C318.807 175.793 319.259 175.886 319.656 176.071C320.053 176.254 320.361 176.512 320.579 176.848C320.8 177.183 320.911 177.564 320.911 177.99H319.446C319.446 177.665 319.344 177.412 319.139 177.233C318.934 177.051 318.646 176.96 318.274 176.96C317.916 176.96 317.638 177.036 317.439 177.189C317.241 177.339 317.142 177.538 317.142 177.785C317.142 178.016 317.257 178.21 317.488 178.366C317.723 178.522 318.066 178.669 318.519 178.806C319.352 179.056 319.959 179.367 320.34 179.738C320.721 180.109 320.911 180.572 320.911 181.125C320.911 181.74 320.678 182.224 320.213 182.575C319.747 182.924 319.121 183.098 318.333 183.098C317.786 183.098 317.288 182.998 316.839 182.8C316.39 182.598 316.046 182.323 315.809 181.975C315.574 181.626 315.457 181.223 315.457 180.764H316.927C316.927 181.548 317.396 181.94 318.333 181.94C318.681 181.94 318.953 181.87 319.148 181.73C319.344 181.587 319.441 181.389 319.441 181.135ZM323.465 183H322V175.891H323.465V183ZM326.741 175.891L328.567 181.047L330.384 175.891H332.308V183H330.838V181.057L330.984 177.702L329.065 183H328.06L326.146 177.707L326.292 181.057V183H324.827V175.891H326.741ZM335.145 183H333.68V175.891H335.145V183ZM337.972 181.823H341.082V183H336.507V175.891H337.972V181.823ZM346.038 181.535H343.47L342.981 183H341.424L344.07 175.891H345.428L348.089 183H346.531L346.038 181.535ZM343.865 180.349H345.643L344.749 177.688L343.865 180.349Z" fill="#FF0099"/>
<path d="M614.924 163.148H615.977C616.478 163.148 616.849 163.023 617.091 162.772C617.332 162.522 617.453 162.189 617.453 161.774C617.453 161.373 617.332 161.061 617.091 160.838C616.854 160.615 616.526 160.503 616.106 160.503C615.728 160.503 615.411 160.608 615.156 160.817C614.901 161.022 614.773 161.291 614.773 161.624H612.798C612.798 161.104 612.937 160.64 613.215 160.229C613.497 159.815 613.889 159.491 614.391 159.259C614.896 159.026 615.452 158.91 616.059 158.91C617.111 158.91 617.936 159.163 618.533 159.669C619.13 160.17 619.429 160.863 619.429 161.747C619.429 162.203 619.29 162.622 619.012 163.005C618.734 163.388 618.369 163.682 617.918 163.887C618.479 164.087 618.896 164.388 619.169 164.789C619.447 165.19 619.586 165.664 619.586 166.211C619.586 167.095 619.262 167.804 618.615 168.337C617.973 168.87 617.12 169.137 616.059 169.137C615.065 169.137 614.252 168.875 613.618 168.351C612.989 167.826 612.675 167.134 612.675 166.272H614.65C614.65 166.646 614.789 166.951 615.067 167.188C615.35 167.425 615.696 167.544 616.106 167.544C616.576 167.544 616.943 167.421 617.207 167.175C617.476 166.924 617.61 166.594 617.61 166.184C617.61 165.19 617.063 164.693 615.97 164.693H614.924V163.148ZM586.281 195.823H589.392V197H584.816V189.891H586.281V195.823ZM595.764 193.606C595.764 194.306 595.64 194.92 595.393 195.447C595.145 195.975 594.79 196.382 594.328 196.668C593.869 196.954 593.342 197.098 592.746 197.098C592.157 197.098 591.631 196.956 591.169 196.673C590.707 196.39 590.349 195.986 590.095 195.462C589.841 194.935 589.712 194.329 589.709 193.646V193.294C589.709 192.594 589.834 191.979 590.085 191.448C590.339 190.914 590.695 190.506 591.154 190.223C591.617 189.936 592.144 189.793 592.736 189.793C593.329 189.793 593.854 189.936 594.313 190.223C594.776 190.506 595.132 190.914 595.383 191.448C595.637 191.979 595.764 192.592 595.764 193.289V193.606ZM594.279 193.284C594.279 192.539 594.146 191.972 593.879 191.585C593.612 191.198 593.231 191.004 592.736 191.004C592.245 191.004 591.866 191.196 591.599 191.58C591.332 191.961 591.197 192.521 591.193 193.26V193.606C591.193 194.332 591.327 194.896 591.594 195.296C591.861 195.696 592.245 195.896 592.746 195.896C593.238 195.896 593.615 195.704 593.879 195.32C594.143 194.933 594.276 194.37 594.279 193.631V193.284ZM603.332 195.535H600.764L600.275 197H598.718L601.364 189.891H602.722L605.383 197H603.825L603.332 195.535ZM601.159 194.349H602.937L602.043 191.688L601.159 194.349ZM609.733 195.135C609.733 194.858 609.636 194.646 609.44 194.5C609.245 194.35 608.894 194.194 608.386 194.031C607.878 193.865 607.476 193.702 607.18 193.543C606.372 193.107 605.969 192.519 605.969 191.78C605.969 191.396 606.076 191.054 606.291 190.755C606.509 190.452 606.82 190.216 607.224 190.047C607.631 189.878 608.086 189.793 608.591 189.793C609.099 189.793 609.551 189.886 609.948 190.071C610.345 190.254 610.653 190.512 610.871 190.848C611.092 191.183 611.203 191.564 611.203 191.99H609.738C609.738 191.665 609.636 191.412 609.431 191.233C609.226 191.051 608.938 190.96 608.566 190.96C608.208 190.96 607.93 191.036 607.731 191.189C607.533 191.339 607.434 191.538 607.434 191.785C607.434 192.016 607.549 192.21 607.78 192.366C608.015 192.522 608.358 192.669 608.811 192.806C609.644 193.056 610.251 193.367 610.632 193.738C611.013 194.109 611.203 194.572 611.203 195.125C611.203 195.74 610.97 196.224 610.505 196.575C610.039 196.924 609.413 197.098 608.625 197.098C608.078 197.098 607.58 196.998 607.131 196.8C606.682 196.598 606.338 196.323 606.101 195.975C605.866 195.626 605.749 195.223 605.749 194.764H607.219C607.219 195.548 607.688 195.94 608.625 195.94C608.973 195.94 609.245 195.87 609.44 195.73C609.636 195.587 609.733 195.389 609.733 195.135ZM613.757 197H612.292V189.891H613.757V197ZM617.033 189.891L618.859 195.047L620.676 189.891H622.6V197H621.13V195.057L621.276 191.702L619.357 197H618.352L616.438 191.707L616.584 195.057V197H615.119V189.891H617.033ZM625.437 197H623.972V189.891H625.437V197ZM628.264 195.823H631.374V197H626.799V189.891H628.264V195.823ZM636.33 195.535H633.762L633.273 197H631.716L634.362 189.891H635.72L638.381 197H636.823L636.33 195.535ZM634.157 194.349H635.935L635.041 191.688L634.157 194.349ZM639.045 197V189.891H641.232C641.857 189.891 642.416 190.032 642.907 190.315C643.402 190.595 643.788 190.996 644.064 191.517C644.341 192.034 644.479 192.623 644.479 193.284V193.611C644.479 194.272 644.343 194.86 644.069 195.374C643.799 195.888 643.417 196.287 642.922 196.57C642.427 196.854 641.869 196.997 641.247 197H639.045ZM640.51 191.077V195.823H641.218C641.791 195.823 642.229 195.636 642.531 195.262C642.834 194.887 642.989 194.352 642.995 193.655V193.279C642.995 192.557 642.845 192.01 642.546 191.639C642.246 191.264 641.809 191.077 641.232 191.077H640.51ZM651.389 193.606C651.389 194.306 651.265 194.92 651.018 195.447C650.77 195.975 650.415 196.382 649.953 196.668C649.494 196.954 648.967 197.098 648.371 197.098C647.782 197.098 647.256 196.956 646.794 196.673C646.332 196.39 645.974 195.986 645.72 195.462C645.466 194.935 645.337 194.329 645.334 193.646V193.294C645.334 192.594 645.459 191.979 645.71 191.448C645.964 190.914 646.32 190.506 646.779 190.223C647.242 189.936 647.769 189.793 648.361 189.793C648.954 189.793 649.479 189.936 649.938 190.223C650.401 190.506 650.757 190.914 651.008 191.448C651.262 191.979 651.389 192.592 651.389 193.289V193.606ZM649.904 193.284C649.904 192.539 649.771 191.972 649.504 191.585C649.237 191.198 648.856 191.004 648.361 191.004C647.87 191.004 647.491 191.196 647.224 191.58C646.957 191.961 646.822 192.521 646.818 193.26V193.606C646.818 194.332 646.952 194.896 647.219 195.296C647.486 195.696 647.87 195.896 648.371 195.896C648.863 195.896 649.24 195.704 649.504 195.32C649.768 194.933 649.901 194.37 649.904 193.631V193.284Z" fill="#60347B"/>
<path d="M555.671 181.535H553.103L552.614 183H551.057L553.703 175.891H555.061L557.722 183H556.164L555.671 181.535ZM553.498 180.349H555.275L554.382 177.688L553.498 180.349ZM559.851 180.495V183H558.386V175.891H561.159C561.693 175.891 562.162 175.988 562.565 176.184C562.972 176.379 563.285 176.657 563.503 177.019C563.721 177.377 563.83 177.785 563.83 178.244C563.83 178.941 563.591 179.491 563.112 179.895C562.637 180.295 561.978 180.495 561.135 180.495H559.851ZM559.851 179.309H561.159C561.547 179.309 561.841 179.217 562.043 179.035C562.248 178.853 562.351 178.592 562.351 178.254C562.351 177.906 562.248 177.624 562.043 177.409C561.838 177.194 561.555 177.084 561.193 177.077H559.851V179.309ZM566.306 181.823H569.416V183H564.841V175.891H566.306V181.823ZM571.818 183H570.354V175.891H571.818V183ZM578.762 180.632C578.706 181.397 578.423 181.999 577.912 182.438C577.404 182.878 576.734 183.098 575.9 183.098C574.989 183.098 574.271 182.792 573.747 182.18C573.226 181.564 572.966 180.721 572.966 179.65V179.216C572.966 178.532 573.086 177.93 573.327 177.409C573.568 176.888 573.911 176.49 574.357 176.213C574.807 175.933 575.327 175.793 575.92 175.793C576.74 175.793 577.401 176.013 577.902 176.452C578.404 176.892 578.693 177.508 578.771 178.303H577.307C577.271 177.844 577.142 177.512 576.921 177.307C576.703 177.098 576.369 176.994 575.92 176.994C575.432 176.994 575.065 177.17 574.821 177.521C574.58 177.87 574.457 178.412 574.45 179.147V179.685C574.45 180.453 574.566 181.014 574.797 181.369C575.031 181.724 575.399 181.901 575.9 181.901C576.353 181.901 576.69 181.799 576.911 181.594C577.136 181.385 577.264 181.065 577.297 180.632H578.762ZM583.737 181.535H581.169L580.681 183H579.123L581.77 175.891H583.127L585.788 183H584.23L583.737 181.535ZM581.564 180.349H583.342L582.448 177.688L581.564 180.349ZM592.956 181.535H590.388L589.899 183H588.342L590.988 175.891H592.346L595.007 183H593.449L592.956 181.535ZM590.783 180.349H592.561L591.667 177.688L590.783 180.349ZM600.964 175.891V180.573C600.964 181.351 600.72 181.966 600.231 182.419C599.746 182.871 599.082 183.098 598.239 183.098C597.409 183.098 596.75 182.878 596.262 182.438C595.773 181.999 595.524 181.395 595.515 180.627V175.891H596.979V180.583C596.979 181.049 597.09 181.389 597.312 181.604C597.536 181.815 597.845 181.921 598.239 181.921C599.063 181.921 599.481 181.488 599.494 180.622V175.891H600.964ZM607.517 177.077H605.339V183H603.874V177.077H601.726V175.891H607.517V177.077ZM614.06 179.606C614.06 180.306 613.936 180.92 613.688 181.447C613.441 181.975 613.086 182.382 612.624 182.668C612.165 182.954 611.638 183.098 611.042 183.098C610.453 183.098 609.927 182.956 609.465 182.673C609.003 182.39 608.645 181.986 608.391 181.462C608.137 180.935 608.008 180.329 608.005 179.646V179.294C608.005 178.594 608.13 177.979 608.381 177.448C608.635 176.914 608.991 176.506 609.45 176.223C609.912 175.936 610.44 175.793 611.032 175.793C611.625 175.793 612.15 175.936 612.609 176.223C613.072 176.506 613.428 176.914 613.679 177.448C613.933 177.979 614.06 178.592 614.06 179.289V179.606ZM612.575 179.284C612.575 178.539 612.442 177.972 612.175 177.585C611.908 177.198 611.527 177.004 611.032 177.004C610.541 177.004 610.161 177.196 609.895 177.58C609.628 177.961 609.493 178.521 609.489 179.26V179.606C609.489 180.332 609.623 180.896 609.89 181.296C610.157 181.696 610.541 181.896 611.042 181.896C611.534 181.896 611.911 181.704 612.175 181.32C612.438 180.933 612.572 180.37 612.575 179.631V179.284ZM617.038 175.891L618.864 181.047L620.681 175.891H622.604V183H621.135V181.057L621.281 177.702L619.362 183H618.356L616.442 177.707L616.589 181.057V183H615.124V175.891H617.038ZM627.985 181.535H625.417L624.929 183H623.371L626.018 175.891H627.375L630.036 183H628.479L627.985 181.535ZM625.812 180.349H627.59L626.696 177.688L625.812 180.349ZM635.466 177.077H633.288V183H631.823V177.077H629.675V175.891H635.466V177.077ZM637.863 183H636.398V175.891H637.863V183ZM644.807 180.632C644.751 181.397 644.468 181.999 643.957 182.438C643.449 182.878 642.779 183.098 641.945 183.098C641.034 183.098 640.316 182.792 639.792 182.18C639.271 181.564 639.011 180.721 639.011 179.65V179.216C639.011 178.532 639.131 177.93 639.372 177.409C639.613 176.888 639.956 176.49 640.402 176.213C640.852 175.933 641.372 175.793 641.965 175.793C642.785 175.793 643.446 176.013 643.947 176.452C644.449 176.892 644.738 177.508 644.816 178.303H643.352C643.316 177.844 643.187 177.512 642.966 177.307C642.748 177.098 642.414 176.994 641.965 176.994C641.477 176.994 641.11 177.17 640.866 177.521C640.625 177.87 640.502 178.412 640.495 179.147V179.685C640.495 180.453 640.611 181.014 640.842 181.369C641.076 181.724 641.444 181.901 641.945 181.901C642.398 181.901 642.735 181.799 642.956 181.594C643.181 181.385 643.309 181.065 643.342 180.632H644.807ZM649.782 181.535H647.214L646.726 183H645.168L647.814 175.891H649.172L651.833 183H650.275L649.782 181.535ZM647.609 180.349H649.387L648.493 177.688L647.609 180.349ZM654.411 175.891L656.237 181.047L658.054 175.891H659.978V183H658.508V181.057L658.654 177.702L656.735 183H655.729L653.815 177.707L653.962 181.057V183H652.497V175.891H654.411ZM665.534 179.919H662.722V181.823H666.022V183H661.257V175.891H666.013V177.077H662.722V178.771H665.534V179.919ZM672.663 183H671.198L668.347 178.322V183H666.882V175.891H668.347L671.203 180.578V175.891H672.663V183ZM679.147 177.077H676.97V183H675.505V177.077H673.356V175.891H679.147V177.077ZM684.265 179.919H681.452V181.823H684.753V183H679.987V175.891H684.743V177.077H681.452V178.771H684.265V179.919Z" fill="#FF0099"/>
<path d="M10.293 129.734C11.1953 129.84 11.8926 130.174 12.3848 130.736C12.873 131.295 13.1172 132.039 13.1172 132.969C13.1172 133.977 12.7559 134.785 12.0332 135.395C11.3105 136 10.3438 136.303 9.13281 136.303H8.3125C7.51953 136.303 6.82227 136.162 6.2207 135.881C5.61914 135.596 5.1582 135.193 4.83789 134.674C4.51367 134.154 4.35156 133.553 4.35156 132.869C4.35156 131.963 4.60547 131.236 5.11328 130.689C5.61719 130.143 6.31641 129.824 7.21094 129.734L7.21094 130.865C6.53125 130.963 6.03906 131.176 5.73438 131.504C5.42969 131.828 5.27734 132.283 5.27734 132.869C5.27734 133.588 5.54297 134.152 6.07422 134.562C6.60547 134.969 7.36133 135.172 8.3418 135.172H9.16797C10.0938 135.172 10.8301 134.979 11.377 134.592C11.9238 134.205 12.1973 133.664 12.1973 132.969C12.1973 132.344 12.0566 131.865 11.7754 131.533C11.4902 131.197 10.9961 130.975 10.293 130.865V129.734ZM13 126.986V128.111H4.46875V126.986H13ZM10.293 118.648C11.1953 118.754 11.8926 119.088 12.3848 119.65C12.873 120.209 13.1172 120.953 13.1172 121.883C13.1172 122.891 12.7559 123.699 12.0332 124.309C11.3105 124.914 10.3438 125.217 9.13281 125.217H8.3125C7.51953 125.217 6.82227 125.076 6.2207 124.795C5.61914 124.51 5.1582 124.107 4.83789 123.588C4.51367 123.068 4.35156 122.467 4.35156 121.783C4.35156 120.877 4.60547 120.15 5.11328 119.604C5.61719 119.057 6.31641 118.738 7.21094 118.648V119.779C6.53125 119.877 6.03906 120.09 5.73438 120.418C5.42969 120.742 5.27734 121.197 5.27734 121.783C5.27734 122.502 5.54297 123.066 6.07422 123.477C6.60547 123.883 7.36133 124.086 8.3418 124.086H9.16797C10.0938 124.086 10.8301 123.893 11.377 123.506C11.9238 123.119 12.1973 122.578 12.1973 121.883C12.1973 121.258 12.0566 120.779 11.7754 120.447C11.4902 120.111 10.9961 119.889 10.293 119.779V118.648ZM12.0801 115.977V111.934H13V117.107H4.46875V115.977H12.0801ZM9.00977 104.475C9.8457 104.475 10.5762 104.615 11.2012 104.896C11.8223 105.178 12.2969 105.576 12.625 106.092C12.9531 106.607 13.1172 107.209 13.1172 107.896C13.1172 108.568 12.9531 109.164 12.625 109.684C12.293 110.203 11.8223 110.607 11.2129 110.896C10.5996 111.182 9.89063 111.328 9.08594 111.336H8.4707C7.65039 111.336 6.92578 111.193 6.29688 110.908C5.66797 110.623 5.1875 110.221 4.85547 109.701C4.51953 109.178 4.35156 108.58 4.35156 107.908C4.35156 107.225 4.51758 106.623 4.84961 106.104C5.17773 105.58 5.65625 105.178 6.28516 104.896C6.91016 104.615 7.63867 104.475 8.4707 104.475H9.00977ZM8.45898 105.594C7.44727 105.594 6.67188 105.797 6.13281 106.203C5.58984 106.609 5.31836 107.178 5.31836 107.908C5.31836 108.619 5.58984 109.18 6.13281 109.59C6.67188 109.996 7.42188 110.205 8.38281 110.217H9.00977C9.99023 110.217 10.7617 110.012 11.3242 109.602C11.8828 109.188 12.1621 108.619 12.1621 107.896C12.1621 107.17 11.8984 106.607 11.3711 106.209C10.8398 105.811 10.0801 105.605 9.0918 105.594H8.45898ZM13 99.8105H4.46875V97.4023C4.46875 96.6602 4.63281 96.0039 4.96094 95.4336C5.28906 94.8633 5.75586 94.4238 6.36133 94.1152C6.9668 93.8027 7.66211 93.6445 8.44727 93.6406H8.99219C9.79688 93.6406 10.502 93.7969 11.1074 94.1094C11.7129 94.418 12.1777 94.8613 12.502 95.4395C12.8262 96.0137 12.9922 96.6836 13 97.4492V99.8105ZM5.39453 98.6855H12.0801V97.502C12.0801 96.6348 11.8105 95.9609 11.2715 95.4805C10.7324 94.9961 9.96484 94.7539 8.96875 94.7539H8.4707C7.50195 94.7539 6.75 94.9824 6.21484 95.4395C5.67578 95.8926 5.40234 96.5371 5.39453 97.373V98.6855ZM9.05664 87.1133V90.8105H12.0801V86.5156H13V91.9355H4.46875V86.5742H5.39453V90.8105H8.13672V87.1133H9.05664ZM10.293 75.8633C11.1953 75.9688 11.8926 76.3027 12.3848 76.8652C12.873 77.4238 13.1172 78.168 13.1172 79.0977C13.1172 80.1055 12.7559 80.9141 12.0332 81.5234C11.3105 82.1289 10.3438 82.4316 9.13281 82.4316H8.3125C7.51953 82.4316 6.82227 82.291 6.2207 82.0098C5.61914 81.7246 5.1582 81.3223 4.83789 80.8027C4.51367 80.2832 4.35156 79.6816 4.35156 78.998C4.35156 78.0918 4.60547 77.3652 5.11328 76.8184C5.61719 76.2715 6.31641 75.9531 7.21094 75.8633V76.9941C6.53125 77.0918 6.03906 77.3047 5.73438 77.6328C5.42969 77.957 5.27734 78.4121 5.27734 78.998C5.27734 79.7168 5.54297 80.2812 6.07422 80.6914C6.60547 81.0977 7.36133 81.3008 8.3418 81.3008H9.16797C10.0938 81.3008 10.8301 81.1074 11.377 80.7207C11.9238 80.334 12.1973 79.793 12.1973 79.0977C12.1973 78.4727 12.0566 77.9941 11.7754 77.6621C11.4902 77.3262 10.9961 77.1035 10.293 76.9941V75.8633ZM9.05664 69.5V73.1973H12.0801V68.9023H13V74.3223H4.46875L4.46875 68.9609H5.39453L5.39453 73.1973H8.13672V69.5H9.05664ZM9.54883 64.373L9.54883 66.377H13V67.5078H4.46875V64.6836C4.46875 63.7227 4.6875 62.9844 5.125 62.4688C5.5625 61.9492 6.19922 61.6895 7.03516 61.6895C7.56641 61.6895 8.0293 61.834 8.42383 62.123C8.81836 62.4082 9.11328 62.8066 9.30859 63.3184L12.9297 61.3145H13V62.5215L9.54883 64.373ZM8.62891 66.377V64.6484C8.62891 64.0898 8.48438 63.6465 8.19531 63.3184C7.90625 62.9863 7.51953 62.8203 7.03516 62.8203C6.50781 62.8203 6.10352 62.9785 5.82227 63.2949C5.54102 63.6074 5.39844 64.0605 5.39453 64.6543V66.377H8.62891ZM9.05664 55.2852V58.9824H12.0801V54.6875H13V60.1074H4.46875L4.46875 54.7461H5.39453L5.39453 58.9824H8.13672V55.2852H9.05664ZM13 53.2871H4.46875V50.498C4.46875 49.5723 4.66016 48.877 5.04297 48.4121C5.42578 47.9434 5.99219 47.709 6.74219 47.709C7.14063 47.709 7.49414 47.8223 7.80273 48.0488C8.10742 48.2754 8.34375 48.584 8.51172 48.9746C8.64063 48.5137 8.88672 48.1504 9.25 47.8848C9.60938 47.6152 10.0391 47.4805 10.5391 47.4805C11.3047 47.4805 11.9063 47.7285 12.3438 48.2246C12.7813 48.7207 13 49.4219 13 50.3281V53.2871ZM9.00977 52.1621H12.0801V50.3047C12.0801 49.7812 11.9453 49.3691 11.6758 49.0684C11.4023 48.7637 11.0273 48.6113 10.5508 48.6113C9.52344 48.6113 9.00977 49.1699 9.00977 50.2871V52.1621ZM8.10742 52.1621V50.4629C8.10742 49.9707 7.98438 49.5781 7.73828 49.2852C7.49219 48.9883 7.1582 48.8398 6.73633 48.8398C6.26758 48.8398 5.92773 48.9766 5.7168 49.25C5.50195 49.5234 5.39453 49.9395 5.39453 50.498V52.1621H8.10742ZM9.54883 42.6816V44.6855H13V45.8164H4.46875V42.9922C4.46875 42.0312 4.6875 41.293 5.125 40.7773C5.5625 40.2578 6.19922 39.998 7.03516 39.998C7.56641 39.998 8.0293 40.1426 8.42383 40.4316C8.81836 40.7168 9.11328 41.1152 9.30859 41.627L12.9297 39.623H13V40.8301L9.54883 42.6816ZM8.62891 44.6855V42.957C8.62891 42.3984 8.48438 41.9551 8.19531 41.627C7.90625 41.2949 7.51953 41.1289 7.03516 41.1289C6.50781 41.1289 6.10352 41.2871 5.82227 41.6035C5.54102 41.916 5.39844 42.3691 5.39453 42.9629V44.6855H8.62891ZM9.00977 31.8535C9.8457 31.8535 10.5762 31.9941 11.2012 32.2754C11.8223 32.5566 12.2969 32.9551 12.625 33.4707C12.9531 33.9863 13.1172 34.5879 13.1172 35.2754C13.1172 35.9473 12.9531 36.543 12.625 37.0625C12.293 37.582 11.8223 37.9863 11.2129 38.2754C10.5996 38.5605 9.89063 38.707 9.08594 38.7148H8.4707C7.65039 38.7148 6.92578 38.5723 6.29688 38.2871C5.66797 38.002 5.1875 37.5996 4.85547 37.0801C4.51953 36.5566 4.35156 35.959 4.35156 35.2871C4.35156 34.6035 4.51758 34.002 4.84961 33.4824C5.17773 32.959 5.65625 32.5566 6.28516 32.2754C6.91016 31.9941 7.63867 31.8535 8.4707 31.8535H9.00977ZM8.45898 32.9727C7.44727 32.9727 6.67188 33.1758 6.13281 33.582C5.58984 33.9883 5.31836 34.5566 5.31836 35.2871C5.31836 35.998 5.58984 36.5586 6.13281 36.9688C6.67188 37.375 7.42188 37.584 8.38281 37.5957H9.00977C9.99023 37.5957 10.7617 37.3906 11.3242 36.9805C11.8828 36.5664 12.1621 35.998 12.1621 35.2754C12.1621 34.5488 11.8984 33.9863 11.3711 33.5879C10.8398 33.1895 10.0801 32.9844 9.0918 32.9727H8.45898ZM27.293 129.734C28.1953 129.84 28.8926 130.174 29.3848 130.736C29.873 131.295 30.1172 132.039 30.1172 132.969C30.1172 133.977 29.7559 134.785 29.0332 135.395C28.3105 136 27.3438 136.303 26.1328 136.303H25.3125C24.5195 136.303 23.8223 136.162 23.2207 135.881C22.6191 135.596 22.1582 135.193 21.8379 134.674C21.5137 134.154 21.3516 133.553 21.3516 132.869C21.3516 131.963 21.6055 131.236 22.1133 130.689C22.6172 130.143 23.3164 129.824 24.2109 129.734V130.865C23.5312 130.963 23.0391 131.176 22.7344 131.504C22.4297 131.828 22.2773 132.283 22.2773 132.869C22.2773 133.588 22.543 134.152 23.0742 134.562C23.6055 134.969 24.3613 135.172 25.3418 135.172H26.168C27.0938 135.172 27.8301 134.979 28.377 134.592C28.9238 134.205 29.1973 133.664 29.1973 132.969C29.1973 132.344 29.0566 131.865 28.7754 131.533C28.4902 131.197 27.9961 130.975 27.293 130.865V129.734ZM26.0098 121.631C26.8457 121.631 27.5762 121.771 28.2012 122.053C28.8223 122.334 29.2969 122.732 29.625 123.248C29.9531 123.764 30.1172 124.365 30.1172 125.053C30.1172 125.725 29.9531 126.32 29.625 126.84C29.293 127.359 28.8223 127.764 28.2129 128.053C27.5996 128.338 26.8906 128.484 26.0859 128.492H25.4707C24.6504 128.492 23.9258 128.35 23.2969 128.064C22.668 127.779 22.1875 127.377 21.8555 126.857C21.5195 126.334 21.3516 125.736 21.3516 125.064C21.3516 124.381 21.5176 123.779 21.8496 123.26C22.1777 122.736 22.6562 122.334 23.2852 122.053C23.9102 121.771 24.6387 121.631 25.4707 121.631H26.0098ZM25.459 122.75C24.4473 122.75 23.6719 122.953 23.1328 123.359C22.5898 123.766 22.3184 124.334 22.3184 125.064C22.3184 125.775 22.5898 126.336 23.1328 126.746C23.6719 127.152 24.4219 127.361 25.3828 127.373H26.0098C26.9902 127.373 27.7617 127.168 28.3242 126.758C28.8828 126.344 29.1621 125.775 29.1621 125.053C29.1621 124.326 28.8984 123.764 28.3711 123.365C27.8398 122.967 27.0801 122.762 26.0918 122.75H25.459ZM30 113.387V114.518L23.4258 118.812H30V119.943H21.4688V118.812L28.0723 114.506H21.4688V113.387H30ZM26.2324 106.684L26.2324 110.264H30V111.389H21.4688L21.4688 106.104H22.3945L22.3945 110.264H25.3125L25.3125 106.684H26.2324ZM26.0098 98.1934C26.8457 98.1934 27.5762 98.334 28.2012 98.6152C28.8223 98.8965 29.2969 99.2949 29.625 99.8105C29.9531 100.326 30.1172 100.928 30.1172 101.615C30.1172 102.287 29.9531 102.883 29.625 103.402C29.293 103.922 28.8223 104.326 28.2129 104.615C27.5996 104.9 26.8906 105.047 26.0859 105.055H25.4707C24.6504 105.055 23.9258 104.912 23.2969 104.627C22.668 104.342 22.1875 103.939 21.8555 103.42C21.5195 102.896 21.3516 102.299 21.3516 101.627C21.3516 100.943 21.5176 100.342 21.8496 99.8223C22.1777 99.2988 22.6563 98.8965 23.2852 98.6152C23.9102 98.334 24.6387 98.1934 25.4707 98.1934H26.0098ZM25.459 99.3125C24.4473 99.3125 23.6719 99.5156 23.1328 99.9219C22.5898 100.328 22.3184 100.896 22.3184 101.627C22.3184 102.338 22.5898 102.898 23.1328 103.309C23.6719 103.715 24.4219 103.924 25.3828 103.936H26.0098C26.9902 103.936 27.7617 103.73 28.3242 103.32C28.8828 102.906 29.1621 102.338 29.1621 101.615C29.1621 100.889 28.8984 100.326 28.3711 99.9277C27.8398 99.5293 27.0801 99.3242 26.0918 99.3125H25.459ZM26.5488 93.377V95.3809H30V96.5117H21.4688V93.6875C21.4688 92.7266 21.6875 91.9883 22.125 91.4727C22.5625 90.9531 23.1992 90.6934 24.0352 90.6934C24.5664 90.6934 25.0293 90.8379 25.4238 91.127C25.8184 91.4121 26.1133 91.8105 26.3086 92.3223L29.9297 90.3184H30V91.5254L26.5488 93.377ZM25.6289 95.3809V93.6523C25.6289 93.0938 25.4844 92.6504 25.1953 92.3223C24.9063 91.9902 24.5195 91.8242 24.0352 91.8242C23.5078 91.8242 23.1035 91.9824 22.8223 92.2988C22.541 92.6113 22.3984 93.0645 22.3945 93.6582V95.3809H25.6289ZM22.3945 83.6855V86.4277H30V87.5469H22.3945V90.2832H21.4688V83.6855H22.3945ZM27.7734 78.1777V81.752L30 82.5547V83.7148L21.4688 80.457V79.4727L30 76.209V77.3633L27.7734 78.1777ZM26.8477 81.4121V78.5117L22.8574 79.9648L26.8477 81.4121ZM30 75.0605H21.4688V72.2715C21.4688 71.3457 21.6602 70.6504 22.043 70.1855C22.4258 69.7168 22.9922 69.4824 23.7422 69.4824C24.1406 69.4824 24.4941 69.5957 24.8027 69.8223C25.1074 70.0488 25.3438 70.3574 25.5117 70.748C25.6406 70.2871 25.8867 69.9238 26.25 69.6582C26.6094 69.3887 27.0391 69.2539 27.5391 69.2539C28.3047 69.2539 28.9063 69.502 29.3438 69.998C29.7813 70.4941 30 71.1953 30 72.1016V75.0605ZM26.0098 73.9355H29.0801V72.0781C29.0801 71.5547 28.9453 71.1426 28.6758 70.8418C28.4023 70.5371 28.0273 70.3848 27.5508 70.3848C26.5234 70.3848 26.0098 70.9434 26.0098 72.0605V73.9355ZM25.1074 73.9355V72.2363C25.1074 71.7441 24.9844 71.3516 24.7383 71.0586C24.4922 70.7617 24.1582 70.6133 23.7363 70.6133C23.2676 70.6133 22.9277 70.75 22.7168 71.0234C22.502 71.2969 22.3945 71.7129 22.3945 72.2715V73.9355H25.1074ZM29.0801 66.4531V62.4102H30V67.584H21.4688V66.4531H29.0801ZM26.0566 56.3047V60.002H29.0801V55.707H30V61.127H21.4688V55.7656H22.3945V60.002H25.1367V56.3047H26.0566Z" fill="#60347B"/>
<path d="M199.212 21H197.161L193.169 14.4512V21H191.118V11.0469H193.169L197.168 17.6094V11.0469H199.212V21ZM206.991 16.6865H203.054V19.3525H207.675V21H201.003V11.0469H207.661V12.708H203.054V15.0801H206.991V16.6865ZM217.054 16.249C217.054 17.2288 216.881 18.0879 216.534 18.8262C216.188 19.5645 215.691 20.1341 215.044 20.5352C214.401 20.9362 213.663 21.1367 212.829 21.1367C212.004 21.1367 211.268 20.9385 210.621 20.542C209.974 20.1455 209.473 19.5804 209.117 18.8467C208.762 18.1084 208.582 17.2607 208.577 16.3037V15.8115C208.577 14.8317 208.753 13.9704 209.104 13.2275C209.459 12.4801 209.958 11.9082 210.601 11.5117C211.248 11.1107 211.986 10.9102 212.815 10.9102C213.645 10.9102 214.381 11.1107 215.023 11.5117C215.671 11.9082 216.17 12.4801 216.521 13.2275C216.876 13.9704 217.054 14.8294 217.054 15.8047V16.249ZM214.976 15.7979C214.976 14.7542 214.789 13.9613 214.415 13.4189C214.041 12.8766 213.508 12.6055 212.815 12.6055C212.127 12.6055 211.596 12.8743 211.223 13.4121C210.849 13.9453 210.66 14.7292 210.655 15.7637V16.249C210.655 17.2653 210.842 18.0537 211.216 18.6143C211.59 19.1748 212.127 19.4551 212.829 19.4551C213.517 19.4551 214.046 19.1862 214.415 18.6484C214.784 18.1061 214.971 17.3177 214.976 16.2832V15.7979ZM224.013 18.9492H220.417L219.733 21H217.553L221.258 11.0469H223.158L226.884 21H224.703L224.013 18.9492ZM220.971 17.2881H223.459L222.208 13.5625L220.971 17.2881ZM232.975 18.3887C232.975 18.0013 232.838 17.7051 232.564 17.5C232.291 17.2904 231.799 17.0716 231.088 16.8438C230.377 16.6113 229.814 16.3835 229.399 16.1602C228.269 15.5495 227.704 14.7269 227.704 13.6924C227.704 13.1546 227.854 12.6761 228.155 12.2568C228.461 11.833 228.896 11.5026 229.461 11.2656C230.031 11.0286 230.669 10.9102 231.375 10.9102C232.086 10.9102 232.719 11.04 233.275 11.2998C233.831 11.555 234.262 11.9173 234.567 12.3867C234.877 12.8561 235.032 13.3893 235.032 13.9863H232.981C232.981 13.5306 232.838 13.1774 232.551 12.9268C232.264 12.6715 231.86 12.5439 231.341 12.5439C230.84 12.5439 230.45 12.651 230.172 12.8652C229.894 13.0749 229.755 13.3529 229.755 13.6992C229.755 14.0228 229.917 14.2939 230.24 14.5127C230.568 14.7314 231.049 14.9365 231.683 15.1279C232.849 15.4788 233.699 15.9141 234.232 16.4336C234.766 16.9531 235.032 17.6003 235.032 18.375C235.032 19.2363 234.706 19.9131 234.055 20.4053C233.403 20.8929 232.526 21.1367 231.423 21.1367C230.657 21.1367 229.96 20.9977 229.331 20.7197C228.702 20.4372 228.221 20.0521 227.889 19.5645C227.561 19.0768 227.396 18.5117 227.396 17.8691H229.454C229.454 18.9674 230.11 19.5166 231.423 19.5166C231.91 19.5166 232.291 19.4186 232.564 19.2227C232.838 19.0221 232.975 18.7441 232.975 18.3887ZM238.607 21H236.557V11.0469H238.607V21ZM243.194 11.0469L245.751 18.2656L248.294 11.0469H250.987V21H248.93V18.2793L249.135 13.583L246.448 21H245.04L242.36 13.5898L242.565 18.2793V21H240.515V11.0469H243.194ZM254.959 21H252.908V11.0469H254.959V21ZM258.917 19.3525H263.271V21H256.866V11.0469H258.917V19.3525ZM270.21 18.9492H266.614L265.931 21H263.75L267.455 11.0469H269.355L273.081 21H270.9L270.21 18.9492ZM267.168 17.2881H269.656L268.405 13.5625L267.168 17.2881ZM281.674 17.6846C281.596 18.7555 281.2 19.5986 280.484 20.2139C279.773 20.8291 278.835 21.1367 277.668 21.1367C276.392 21.1367 275.387 20.7083 274.653 19.8516C273.924 18.9902 273.56 17.8099 273.56 16.3105V15.7021C273.56 14.7451 273.728 13.902 274.065 13.1729C274.403 12.4437 274.883 11.8854 275.508 11.498C276.137 11.1061 276.866 10.9102 277.695 10.9102C278.844 10.9102 279.769 11.2178 280.471 11.833C281.173 12.4482 281.578 13.3118 281.688 14.4238H279.637C279.587 13.7812 279.407 13.3164 279.097 13.0293C278.791 12.7376 278.324 12.5918 277.695 12.5918C277.012 12.5918 276.499 12.8379 276.157 13.3301C275.82 13.8177 275.647 14.5765 275.638 15.6064V16.3584C275.638 17.4339 275.799 18.2201 276.123 18.7168C276.451 19.2135 276.966 19.4619 277.668 19.4619C278.301 19.4619 278.773 19.3184 279.083 19.0312C279.397 18.7396 279.577 18.2907 279.623 17.6846H281.674ZM285.201 21H283.15V11.0469H285.201V21ZM295.284 16.249C295.284 17.2288 295.111 18.0879 294.765 18.8262C294.418 19.5645 293.922 20.1341 293.274 20.5352C292.632 20.9362 291.894 21.1367 291.06 21.1367C290.235 21.1367 289.499 20.9385 288.852 20.542C288.204 20.1455 287.703 19.5804 287.348 18.8467C286.992 18.1084 286.812 17.2607 286.808 16.3037V15.8115C286.808 14.8317 286.983 13.9704 287.334 13.2275C287.689 12.4801 288.188 11.9082 288.831 11.5117C289.478 11.1107 290.216 10.9102 291.046 10.9102C291.875 10.9102 292.611 11.1107 293.254 11.5117C293.901 11.9082 294.4 12.4801 294.751 13.2275C295.106 13.9704 295.284 14.8294 295.284 15.8047V16.249ZM293.206 15.7979C293.206 14.7542 293.019 13.9613 292.646 13.4189C292.272 12.8766 291.739 12.6055 291.046 12.6055C290.358 12.6055 289.827 12.8743 289.453 13.4121C289.079 13.9453 288.89 14.7292 288.886 15.7637V16.249C288.886 17.2653 289.073 18.0537 289.446 18.6143C289.82 19.1748 290.358 19.4551 291.06 19.4551C291.748 19.4551 292.276 19.1862 292.646 18.6484C293.015 18.1061 293.201 17.3177 293.206 16.2832V15.7979ZM304.868 21H302.817L298.825 14.4512V21H296.774V11.0469H298.825L302.824 17.6094V11.0469H304.868V21Z" fill="#60347B"/>
<path d="M62.832 32.8047L63.3242 28.4688H68.1055V29.8809H64.7129L64.502 31.7148C64.9043 31.5 65.332 31.3926 65.7852 31.3926C66.5977 31.3926 67.2344 31.6445 67.6953 32.1484C68.1562 32.6523 68.3867 33.3574 68.3867 34.2637C68.3867 34.8145 68.2695 35.3086 68.0352 35.7461C67.8047 36.1797 67.4727 36.5176 67.0391 36.7598C66.6055 36.998 66.0938 37.1172 65.5039 37.1172C64.9883 37.1172 64.5098 37.0137 64.0684 36.8066C63.627 36.5957 63.2773 36.3008 63.0195 35.9219C62.7656 35.543 62.6309 35.1113 62.6152 34.627H64.291C64.3262 34.9824 64.4492 35.2598 64.6602 35.459C64.875 35.6543 65.1543 35.752 65.498 35.752C65.8809 35.752 66.1758 35.6152 66.3828 35.3418C66.5898 35.0645 66.6934 34.6738 66.6934 34.1699C66.6934 33.6855 66.5742 33.3145 66.3359 33.0566C66.0977 32.7988 65.7598 32.6699 65.3223 32.6699C64.9199 32.6699 64.5938 32.7754 64.3438 32.9863L64.1797 33.1387L62.832 32.8047ZM67.5898 58.7891H68.5566V60.1543H67.5898V62H65.8965V60.1543H62.3984L62.3223 59.0879L65.8789 53.4688H67.5898V58.7891ZM64.0098 58.7891H65.8965V55.7773L65.7852 55.9707L64.0098 58.7891ZM64.3027 81.9844H65.2051C65.6348 81.9844 65.9531 81.877 66.1602 81.6621C66.3672 81.4473 66.4707 81.1621 66.4707 80.8066C66.4707 80.4629 66.3672 80.1953 66.1602 80.0039C65.957 79.8125 65.6758 79.7168 65.3164 79.7168C64.9922 79.7168 64.7207 79.8066 64.502 79.9863C64.2832 80.1621 64.1738 80.3926 64.1738 80.6777H62.4805C62.4805 80.2324 62.5996 79.834 62.8379 79.4824C63.0801 79.127 63.416 78.8496 63.8457 78.6504C64.2793 78.4512 64.7559 78.3516 65.2754 78.3516C66.1777 78.3516 66.8848 78.5684 67.3965 79.002C67.9082 79.4316 68.1641 80.0254 68.1641 80.7832C68.1641 81.1738 68.0449 81.5332 67.8066 81.8613C67.5684 82.1895 67.2559 82.4414 66.8691 82.6172C67.3496 82.7891 67.707 83.0469 67.9414 83.3906C68.1797 83.7344 68.2988 84.1406 68.2988 84.6094C68.2988 85.3672 68.0215 85.9746 67.4668 86.4316C66.916 86.8887 66.1855 87.1172 65.2754 87.1172C64.4238 87.1172 63.7266 86.8926 63.1836 86.4434C62.6445 85.9941 62.375 85.4004 62.375 84.6621H64.0684C64.0684 84.9824 64.1875 85.2441 64.4258 85.4473C64.668 85.6504 64.9648 85.752 65.3164 85.752C65.7188 85.752 66.0332 85.6465 66.2598 85.4355C66.4902 85.2207 66.6055 84.9375 66.6055 84.5859C66.6055 83.7344 66.1367 83.3086 65.1992 83.3086H64.3027V81.9844ZM68.4277 112H62.5801V110.84L65.3398 107.898C65.7188 107.484 65.998 107.123 66.1777 106.814C66.3613 106.506 66.4531 106.213 66.4531 105.936C66.4531 105.557 66.3574 105.26 66.166 105.045C65.9746 104.826 65.7012 104.717 65.3457 104.717C64.9629 104.717 64.6602 104.85 64.4375 105.115C64.2188 105.377 64.1094 105.723 64.1094 106.152H62.4102C62.4102 105.633 62.5332 105.158 62.7793 104.729C63.0293 104.299 63.3809 103.963 63.834 103.721C64.2871 103.475 64.8008 103.352 65.375 103.352C66.2539 103.352 66.9355 103.562 67.4199 103.984C67.9082 104.406 68.1523 105.002 68.1523 105.771C68.1523 106.193 68.043 106.623 67.8242 107.061C67.6055 107.498 67.2305 108.008 66.6992 108.59L64.7598 110.635H68.4277V112ZM66.6934 137H65V130.473L62.9785 131.1V129.723L66.5117 128.457H66.6934V137Z" fill="#60347B"/>
<path d="M545.6 73.6846C545.522 74.7555 545.126 75.5986 544.41 76.2139C543.699 76.8291 542.76 77.1367 541.594 77.1367C540.318 77.1367 539.313 76.7083 538.579 75.8516C537.85 74.9902 537.485 73.8099 537.485 72.3105V71.7021C537.485 70.7451 537.654 69.902 537.991 69.1729C538.328 68.4437 538.809 67.8854 539.434 67.498C540.062 67.1061 540.792 66.9102 541.621 66.9102C542.77 66.9102 543.695 67.2178 544.396 67.833C545.098 68.4482 545.504 69.3118 545.613 70.4238H543.562C543.512 69.7812 543.332 69.3164 543.022 69.0293C542.717 68.7376 542.25 68.5918 541.621 68.5918C540.938 68.5918 540.425 68.8379 540.083 69.3301C539.746 69.8177 539.573 70.5765 539.563 71.6064V72.3584C539.563 73.4339 539.725 74.2201 540.049 74.7168C540.377 75.2135 540.892 75.4619 541.594 75.4619C542.227 75.4619 542.699 75.3184 543.009 75.0312C543.323 74.7396 543.503 74.2907 543.549 73.6846H545.6ZM552.935 72.6865H548.997V75.3525H553.618V77H546.946V67.0469H553.604V68.708H548.997V71.0801H552.935V72.6865ZM558.506 73.3564H556.872V77H554.821V67.0469H558.52C559.695 67.0469 560.602 67.3089 561.24 67.833C561.878 68.3571 562.197 69.0977 562.197 70.0547C562.197 70.7337 562.049 71.3011 561.753 71.7568C561.461 72.208 561.017 72.568 560.42 72.8369L562.573 76.9043V77H560.372L558.506 73.3564ZM556.872 71.6953H558.526C559.041 71.6953 559.44 71.5654 559.723 71.3057C560.005 71.0413 560.146 70.679 560.146 70.2188C560.146 69.7493 560.012 69.3802 559.743 69.1113C559.479 68.8424 559.071 68.708 558.52 68.708H556.872V71.6953ZM569.751 72.6865H565.813V75.3525H570.435V77H563.763V67.0469H570.421V68.708H565.813V71.0801H569.751V72.6865ZM571.638 77V67.0469H575.124C576.332 67.0469 577.248 67.2793 577.872 67.7441C578.496 68.2044 578.809 68.8812 578.809 69.7744C578.809 70.262 578.683 70.6927 578.433 71.0664C578.182 71.4355 577.833 71.7067 577.387 71.8799C577.897 72.0075 578.298 72.265 578.59 72.6523C578.886 73.0397 579.034 73.5137 579.034 74.0742C579.034 75.0312 578.729 75.7559 578.118 76.248C577.507 76.7402 576.637 76.9909 575.507 77H571.638ZM573.688 72.666V75.3525H575.445C575.928 75.3525 576.304 75.2386 576.573 75.0107C576.847 74.7783 576.983 74.4593 576.983 74.0537C576.983 73.1423 576.512 72.6797 575.568 72.666H573.688ZM573.688 71.2168H575.206C576.241 71.1986 576.758 70.7861 576.758 69.9795C576.758 69.5283 576.626 69.2048 576.361 69.0088C576.102 68.8083 575.689 68.708 575.124 68.708H573.688V71.2168ZM584.264 73.3564H582.63V77H580.579V67.0469H584.277C585.453 67.0469 586.36 67.3089 586.998 67.833C587.636 68.3571 587.955 69.0977 587.955 70.0547C587.955 70.7337 587.807 71.3011 587.511 71.7568C587.219 72.208 586.775 72.568 586.178 72.8369L588.331 76.9043V77H586.13L584.264 73.3564ZM582.63 71.6953H584.284C584.799 71.6953 585.198 71.5654 585.48 71.3057C585.763 71.0413 585.904 70.679 585.904 70.2188C585.904 69.7493 585.77 69.3802 585.501 69.1113C585.237 68.8424 584.829 68.708 584.277 68.708H582.63V71.6953ZM597.696 72.249C597.696 73.2288 597.523 74.0879 597.177 74.8262C596.83 75.5645 596.334 76.1341 595.687 76.5352C595.044 76.9362 594.306 77.1367 593.472 77.1367C592.647 77.1367 591.911 76.9385 591.264 76.542C590.617 76.1455 590.115 75.5804 589.76 74.8467C589.404 74.1084 589.224 73.2607 589.22 72.3037V71.8115C589.22 70.8317 589.395 69.9704 589.746 69.2275C590.102 68.4801 590.601 67.9082 591.243 67.5117C591.89 67.1107 592.629 66.9102 593.458 66.9102C594.287 66.9102 595.023 67.1107 595.666 67.5117C596.313 67.9082 596.812 68.4801 597.163 69.2275C597.519 69.9704 597.696 70.8294 597.696 71.8047V72.249ZM595.618 71.7979C595.618 70.7542 595.431 69.9613 595.058 69.4189C594.684 68.8766 594.151 68.6055 593.458 68.6055C592.77 68.6055 592.239 68.8743 591.865 69.4121C591.492 69.9453 591.302 70.7292 591.298 71.7637V72.249C591.298 73.2653 591.485 74.0537 591.858 74.6143C592.232 75.1748 592.77 75.4551 593.472 75.4551C594.16 75.4551 594.688 75.1862 595.058 74.6484C595.427 74.1061 595.614 73.3177 595.618 72.2832V71.7979ZM610.486 73.6846C610.409 74.7555 610.012 75.5986 609.297 76.2139C608.586 76.8291 607.647 77.1367 606.48 77.1367C605.204 77.1367 604.2 76.7083 603.466 75.8516C602.737 74.9902 602.372 73.8099 602.372 72.3105V71.7021C602.372 70.7451 602.541 69.902 602.878 69.1729C603.215 68.4437 603.696 67.8854 604.32 67.498C604.949 67.1061 605.678 66.9102 606.508 66.9102C607.656 66.9102 608.581 67.2178 609.283 67.833C609.985 68.4482 610.391 69.3118 610.5 70.4238H608.449C608.399 69.7812 608.219 69.3164 607.909 69.0293C607.604 68.7376 607.137 68.5918 606.508 68.5918C605.824 68.5918 605.312 68.8379 604.97 69.3301C604.632 69.8177 604.459 70.5765 604.45 71.6064V72.3584C604.45 73.4339 604.612 74.2201 604.936 74.7168C605.264 75.2135 605.779 75.4619 606.48 75.4619C607.114 75.4619 607.586 75.3184 607.896 75.0312C608.21 74.7396 608.39 74.2907 608.436 73.6846H610.486ZM620.009 72.249C620.009 73.2288 619.836 74.0879 619.489 74.8262C619.143 75.5645 618.646 76.1341 617.999 76.5352C617.356 76.9362 616.618 77.1367 615.784 77.1367C614.959 77.1367 614.223 76.9385 613.576 76.542C612.929 76.1455 612.428 75.5804 612.072 74.8467C611.717 74.1084 611.537 73.2607 611.532 72.3037V71.8115C611.532 70.8317 611.708 69.9704 612.059 69.2275C612.414 68.4801 612.913 67.9082 613.556 67.5117C614.203 67.1107 614.941 66.9102 615.771 66.9102C616.6 66.9102 617.336 67.1107 617.979 67.5117C618.626 67.9082 619.125 68.4801 619.476 69.2275C619.831 69.9704 620.009 70.8294 620.009 71.8047V72.249ZM617.931 71.7979C617.931 70.7542 617.744 69.9613 617.37 69.4189C616.996 68.8766 616.463 68.6055 615.771 68.6055C615.082 68.6055 614.551 68.8743 614.178 69.4121C613.804 69.9453 613.615 70.7292 613.61 71.7637V72.249C613.61 73.2653 613.797 74.0537 614.171 74.6143C614.545 75.1748 615.082 75.4551 615.784 75.4551C616.472 75.4551 617.001 75.1862 617.37 74.6484C617.739 74.1061 617.926 73.3177 617.931 72.2832V71.7979ZM629.593 77H627.542L623.55 70.4512V77H621.499V67.0469H623.55L627.549 73.6094V67.0469H629.593V77ZM637.372 72.9326H633.435V77H631.384V67.0469H637.864V68.708H633.435V71.2783H637.372V72.9326ZM647.229 72.249C647.229 73.2288 647.056 74.0879 646.71 74.8262C646.364 75.5645 645.867 76.1341 645.22 76.5352C644.577 76.9362 643.839 77.1367 643.005 77.1367C642.18 77.1367 641.444 76.9385 640.797 76.542C640.15 76.1455 639.648 75.5804 639.293 74.8467C638.938 74.1084 638.757 73.2607 638.753 72.3037V71.8115C638.753 70.8317 638.928 69.9704 639.279 69.2275C639.635 68.4801 640.134 67.9082 640.776 67.5117C641.424 67.1107 642.162 66.9102 642.991 66.9102C643.821 66.9102 644.557 67.1107 645.199 67.5117C645.846 67.9082 646.345 68.4801 646.696 69.2275C647.052 69.9704 647.229 70.8294 647.229 71.8047V72.249ZM645.151 71.7979C645.151 70.7542 644.965 69.9613 644.591 69.4189C644.217 68.8766 643.684 68.6055 642.991 68.6055C642.303 68.6055 641.772 68.8743 641.398 69.4121C641.025 69.9453 640.836 70.7292 640.831 71.7637V72.249C640.831 73.2653 641.018 74.0537 641.392 74.6143C641.765 75.1748 642.303 75.4551 643.005 75.4551C643.693 75.4551 644.222 75.1862 644.591 74.6484C644.96 74.1061 645.147 73.3177 645.151 72.2832V71.7979ZM652.404 73.3564H650.771V77H648.72V67.0469H652.418C653.594 67.0469 654.501 67.3089 655.139 67.833C655.777 68.3571 656.096 69.0977 656.096 70.0547C656.096 70.7337 655.948 71.3011 655.651 71.7568C655.36 72.208 654.915 72.568 654.318 72.8369L656.472 76.9043V77H654.271L652.404 73.3564ZM650.771 71.6953H652.425C652.94 71.6953 653.339 71.5654 653.621 71.3057C653.904 71.0413 654.045 70.679 654.045 70.2188C654.045 69.7493 653.91 69.3802 653.642 69.1113C653.377 68.8424 652.969 68.708 652.418 68.708H650.771V71.6953ZM664.812 68.708H661.763V77H659.712V68.708H656.704V67.0469H664.812V68.708ZM670.786 74.9492H667.19L666.507 77H664.326L668.031 67.0469H669.932L673.657 77H671.477L670.786 74.9492ZM667.744 73.2881H670.232L668.981 69.5625L667.744 73.2881ZM674.587 77V67.0469H678.073C679.281 67.0469 680.197 67.2793 680.821 67.7441C681.446 68.2044 681.758 68.8812 681.758 69.7744C681.758 70.262 681.632 70.6927 681.382 71.0664C681.131 71.4355 680.783 71.7067 680.336 71.8799C680.846 72.0075 681.247 72.265 681.539 72.6523C681.835 73.0397 681.983 73.5137 681.983 74.0742C681.983 75.0312 681.678 75.7559 681.067 76.248C680.457 76.7402 679.586 76.9909 678.456 77H674.587ZM676.638 72.666V75.3525H678.395C678.878 75.3525 679.254 75.2386 679.522 75.0107C679.796 74.7783 679.933 74.4593 679.933 74.0537C679.933 73.1423 679.461 72.6797 678.518 72.666H676.638ZM676.638 71.2168H678.155C679.19 71.1986 679.707 70.7861 679.707 69.9795C679.707 69.5283 679.575 69.2048 679.311 69.0088C679.051 68.8083 678.638 68.708 678.073 68.708H676.638V71.2168ZM685.579 75.3525H689.934V77H683.528V67.0469H685.579V75.3525ZM697.104 72.6865H693.167V75.3525H697.788V77H691.116V67.0469H697.774V68.708H693.167V71.0801H697.104V72.6865Z" fill="white"/>
<path d="M76.6955 143.738C76.6955 143.738 153.991 65.0744 839 142" stroke="#60347B" stroke-width="2"/>
<path d="M460.608 120.783L459.443 120.719L459.3 123.317L457.837 123.236L458.229 116.138L460.867 116.284C461.705 116.33 462.342 116.553 462.776 116.951C463.211 117.35 463.409 117.891 463.371 118.574C463.344 119.058 463.216 119.457 462.987 119.77C462.761 120.08 462.43 120.32 461.994 120.488L463.369 123.474L463.366 123.542L461.796 123.455L460.608 120.783ZM459.509 119.534L460.688 119.599C461.056 119.619 461.345 119.542 461.557 119.368C461.769 119.191 461.884 118.938 461.902 118.61C461.921 118.275 461.839 118.007 461.658 117.804C461.48 117.602 461.195 117.49 460.801 117.468L459.626 117.403L459.509 119.534ZM468.655 120.748L465.847 120.593L465.741 122.495L469.037 122.677L468.972 123.852L464.214 123.589L464.606 116.49L469.355 116.753L469.289 117.937L466.003 117.756L465.91 119.447L468.718 119.603L468.655 120.748ZM469.83 123.899L470.223 116.801L472.407 116.921C473.031 116.956 473.58 117.128 474.056 117.438C474.534 117.745 474.897 118.166 475.145 118.701C475.393 119.233 475.498 119.829 475.462 120.489L475.444 120.815C475.407 121.475 475.238 122.054 474.937 122.553C474.639 123.051 474.235 123.428 473.725 123.684C473.215 123.939 472.65 124.052 472.029 124.021L469.83 123.899ZM471.62 118.066L471.358 122.805L472.065 122.844C472.637 122.876 473.084 122.713 473.407 122.356C473.73 121.999 473.914 121.473 473.959 120.777L473.98 120.402C474.02 119.68 473.9 119.126 473.622 118.739C473.343 118.349 472.917 118.138 472.341 118.106L471.62 118.066ZM482.089 117.456L481.831 122.132C481.788 122.909 481.51 123.509 480.998 123.934C480.489 124.359 479.813 124.548 478.971 124.502C478.142 124.456 477.496 124.2 477.033 123.735C476.57 123.269 476.354 122.652 476.387 121.885L476.648 117.156L478.111 117.236L477.852 121.922C477.826 122.386 477.918 122.732 478.127 122.959C478.34 123.183 478.643 123.305 479.036 123.327C479.858 123.372 480.3 122.963 480.361 122.099L480.622 117.375L482.089 117.456ZM488.6 122.564C488.502 123.325 488.186 123.911 487.652 124.321C487.12 124.732 486.439 124.915 485.607 124.869C484.697 124.818 483.997 124.473 483.507 123.833C483.021 123.19 482.808 122.334 482.867 121.265L482.891 120.831C482.928 120.148 483.082 119.554 483.351 119.047C483.62 118.54 483.985 118.161 484.446 117.909C484.91 117.654 485.438 117.543 486.029 117.576C486.848 117.621 487.496 117.877 487.972 118.344C488.448 118.81 488.704 119.442 488.738 120.239L487.275 120.159C487.265 119.698 487.155 119.36 486.945 119.143C486.739 118.923 486.411 118.8 485.963 118.775C485.475 118.749 485.1 118.904 484.837 119.241C484.577 119.576 484.424 120.11 484.377 120.844L484.347 121.381C484.305 122.148 484.389 122.715 484.6 123.082C484.815 123.449 485.172 123.646 485.673 123.674C486.124 123.699 486.466 123.615 486.699 123.423C486.935 123.227 487.081 122.914 487.137 122.484L488.6 122.564ZM495.133 122.925C495.035 123.686 494.719 124.272 494.185 124.682C493.653 125.093 492.972 125.276 492.14 125.23C491.23 125.179 490.53 124.834 490.04 124.194C489.554 123.551 489.341 122.695 489.4 121.626L489.424 121.192C489.461 120.509 489.615 119.915 489.884 119.408C490.153 118.901 490.518 118.522 490.979 118.27C491.443 118.015 491.971 117.904 492.562 117.937C493.381 117.982 494.029 118.238 494.505 118.705C494.981 119.171 495.237 119.803 495.271 120.6L493.808 120.52C493.798 120.059 493.688 119.721 493.478 119.504C493.272 119.284 492.944 119.161 492.496 119.136C492.008 119.109 491.633 119.265 491.37 119.602C491.11 119.937 490.957 120.471 490.91 121.205L490.88 121.742C490.838 122.509 490.922 123.076 491.133 123.443C491.348 123.81 491.705 124.007 492.206 124.035C492.657 124.06 492.999 123.976 493.232 123.784C493.468 123.588 493.614 123.275 493.67 122.845L495.133 122.925ZM497.518 125.429L496.055 125.348L496.447 118.25L497.91 118.33L497.518 125.429ZM504.896 122.438C504.857 123.137 504.7 123.743 504.424 124.255C504.148 124.768 503.771 125.155 503.294 125.416C502.82 125.676 502.285 125.79 501.69 125.757C501.102 125.725 500.585 125.554 500.139 125.246C499.693 124.938 499.358 124.515 499.133 123.978C498.909 123.437 498.814 122.826 498.848 122.143L498.868 121.792C498.906 121.093 499.066 120.486 499.345 119.97C499.628 119.451 500.006 119.062 500.48 118.805C500.958 118.544 501.492 118.431 502.084 118.463C502.675 118.496 503.192 118.668 503.635 118.979C504.081 119.288 504.414 119.715 504.635 120.262C504.859 120.806 504.952 121.425 504.914 122.121L504.896 122.438ZM503.432 122.034C503.473 121.29 503.371 120.717 503.126 120.315C502.881 119.914 502.511 119.7 502.017 119.672C501.526 119.645 501.137 119.816 500.849 120.185C500.562 120.55 500.396 121.102 500.352 121.84L500.333 122.186C500.293 122.911 500.395 123.48 500.639 123.895C500.884 124.309 501.256 124.53 501.757 124.558C502.248 124.585 502.635 124.414 502.92 124.045C503.204 123.673 503.369 123.118 503.413 122.38L503.432 122.034ZM511.544 126.204L510.081 126.123L507.492 121.295L507.234 125.966L505.772 125.885L506.164 118.786L507.626 118.867L510.22 123.705L510.479 119.025L511.936 119.105L511.544 126.204ZM515.308 126.412L515.7 119.313L517.884 119.434C518.508 119.469 519.058 119.641 519.533 119.951C520.012 120.257 520.375 120.679 520.622 121.214C520.87 121.746 520.976 122.342 520.939 123.002L520.921 123.328C520.885 123.988 520.716 124.567 520.414 125.066C520.116 125.564 519.712 125.941 519.203 126.197C518.693 126.452 518.128 126.564 517.507 126.533L515.308 126.412ZM517.097 120.579L516.835 125.318L517.542 125.357C518.114 125.388 518.562 125.226 518.885 124.869C519.208 124.512 519.392 123.985 519.437 123.29L519.457 122.915C519.497 122.193 519.378 121.639 519.099 121.252C518.821 120.862 518.394 120.651 517.819 120.619L517.097 120.579ZM526.243 123.93L523.434 123.775L523.329 125.677L526.625 125.859L526.56 127.034L521.802 126.771L522.194 119.672L526.943 119.935L526.877 121.119L523.591 120.938L523.498 122.629L526.306 122.785L526.243 123.93ZM535.608 125.162C535.511 125.923 535.195 126.508 534.66 126.919C534.129 127.33 533.447 127.512 532.615 127.466C531.705 127.416 531.005 127.071 530.516 126.431C530.029 125.788 529.816 124.931 529.875 123.862L529.899 123.428C529.937 122.746 530.09 122.151 530.359 121.644C530.629 121.138 530.994 120.758 531.454 120.507C531.918 120.252 532.446 120.141 533.037 120.174C533.857 120.219 534.504 120.475 534.98 120.941C535.457 121.408 535.712 122.039 535.746 122.837L534.284 122.756C534.273 122.296 534.163 121.957 533.953 121.74C533.747 121.52 533.42 121.398 532.971 121.373C532.484 121.346 532.108 121.501 531.845 121.839C531.585 122.173 531.432 122.708 531.385 123.442L531.355 123.978C531.313 124.745 531.397 125.312 531.608 125.679C531.823 126.046 532.18 126.244 532.681 126.272C533.133 126.297 533.475 126.213 533.707 126.02C533.943 125.825 534.089 125.512 534.145 125.081L535.608 125.162ZM540.526 126.338L537.962 126.197L537.393 127.632L535.838 127.546L538.873 120.594L540.228 120.669L542.493 127.914L540.938 127.828L540.526 126.338ZM538.422 125.034L540.197 125.132L539.451 122.425L538.422 125.034ZM545.927 125.497L544.762 125.433L544.619 128.031L543.156 127.951L543.548 120.852L546.186 120.998C547.024 121.044 547.661 121.267 548.095 121.666C548.53 122.065 548.728 122.605 548.69 123.288C548.664 123.772 548.536 124.171 548.306 124.484C548.08 124.795 547.749 125.034 547.313 125.202L548.688 128.188L548.685 128.256L547.115 128.169L545.927 125.497ZM544.828 124.248L546.008 124.313C546.375 124.334 546.664 124.257 546.876 124.083C547.088 123.905 547.203 123.652 547.221 123.324C547.24 122.989 547.158 122.721 546.977 122.518C546.799 122.316 546.514 122.204 546.12 122.183L544.945 122.118L544.828 124.248ZM555.199 127.716C554.918 128.017 554.533 128.242 554.042 128.391C553.551 128.536 553.014 128.593 552.428 128.561C551.814 128.527 551.282 128.364 550.832 128.072C550.385 127.776 550.049 127.367 549.824 126.842C549.602 126.318 549.507 125.711 549.538 125.022L549.565 124.539C549.604 123.831 549.757 123.225 550.022 122.721C550.292 122.214 550.658 121.837 551.122 121.588C551.589 121.337 552.125 121.228 552.729 121.262C553.571 121.308 554.218 121.546 554.67 121.975C555.123 122.401 555.372 123 555.417 123.772L553.993 123.693C553.951 123.284 553.823 122.978 553.609 122.777C553.398 122.577 553.098 122.465 552.708 122.444C552.211 122.416 551.822 122.582 551.541 122.942C551.26 123.301 551.098 123.85 551.054 124.587L551.029 125.041C550.988 125.785 551.098 126.355 551.36 126.751C551.621 127.147 552.025 127.36 552.571 127.39C553.121 127.421 553.519 127.325 553.766 127.104L553.833 125.88L552.502 125.807L552.562 124.729L555.356 124.884L555.199 127.716ZM560.427 127.438L557.863 127.296L557.295 128.732L555.739 128.646L558.774 121.693L560.129 121.768L562.394 129.014L560.839 128.928L560.427 127.438ZM558.323 126.133L560.098 126.231L559.353 123.525L558.323 126.133ZM571.247 127.131C571.15 127.892 570.834 128.477 570.299 128.888C569.768 129.299 569.086 129.481 568.254 129.435C567.344 129.385 566.644 129.04 566.155 128.4C565.668 127.757 565.455 126.901 565.514 125.831L565.538 125.397C565.576 124.715 565.729 124.12 565.998 123.613C566.268 123.107 566.633 122.728 567.093 122.476C567.557 122.221 568.085 122.11 568.676 122.143C569.496 122.188 570.143 122.444 570.619 122.91C571.096 123.377 571.351 124.009 571.385 124.806L569.923 124.725C569.912 124.265 569.802 123.926 569.592 123.709C569.386 123.489 569.059 123.367 568.61 123.342C568.123 123.315 567.747 123.471 567.484 123.808C567.224 124.143 567.071 124.677 567.024 125.411L566.994 125.947C566.952 126.714 567.036 127.281 567.247 127.649C567.462 128.016 567.819 128.213 568.32 128.241C568.772 128.266 569.114 128.182 569.346 127.989C569.582 127.794 569.728 127.481 569.784 127.05L571.247 127.131ZM576.518 126.708L573.709 126.553L573.604 128.455L576.9 128.637L576.835 129.812L572.077 129.549L572.469 122.45L577.218 122.713L577.152 123.897L573.866 123.716L573.773 125.407L576.581 125.563L576.518 126.708ZM580.465 127.406L579.299 127.341L579.156 129.94L577.693 129.859L578.085 122.76L580.723 122.906C581.562 122.953 582.198 123.175 582.632 123.574C583.067 123.973 583.265 124.514 583.227 125.196C583.201 125.681 583.073 126.079 582.843 126.393C582.618 126.703 582.287 126.942 581.85 127.111L583.226 130.096L583.222 130.165L581.652 130.078L580.465 127.406ZM579.365 126.157L580.545 126.222C580.912 126.242 581.201 126.165 581.413 125.991C581.625 125.814 581.74 125.561 581.758 125.233C581.777 124.898 581.696 124.629 581.514 124.427C581.336 124.225 581.051 124.113 580.658 124.091L579.483 124.026L579.365 126.157ZM588.511 127.371L585.703 127.216L585.598 129.117L588.893 129.299L588.829 130.474L584.07 130.211L584.462 123.113L589.211 123.375L589.146 124.56L585.86 124.378L585.766 126.07L588.574 126.225L588.511 127.371ZM589.687 130.522L590.079 123.423L592.565 123.561C593.427 123.608 594.071 123.81 594.498 124.166C594.925 124.519 595.121 125.014 595.086 125.651C595.066 125.999 594.96 126.301 594.767 126.558C594.573 126.811 594.314 126.991 593.989 127.097C594.348 127.208 594.623 127.407 594.816 127.695C595.012 127.983 595.099 128.327 595.077 128.727C595.039 129.409 594.793 129.914 594.338 130.241C593.883 130.568 593.253 130.712 592.446 130.674L589.687 130.522ZM591.32 127.512L591.214 129.428L592.467 129.497C592.812 129.516 593.084 129.449 593.285 129.297C593.489 129.143 593.599 128.92 593.615 128.631C593.651 127.981 593.333 127.633 592.661 127.586L591.32 127.512ZM591.377 126.478L592.459 126.538C593.198 126.566 593.583 126.292 593.615 125.716C593.633 125.395 593.551 125.159 593.37 125.009C593.193 124.855 592.903 124.768 592.5 124.745L591.476 124.689L591.377 126.478ZM598.835 128.421L597.67 128.356L597.526 130.955L596.064 130.874L596.456 123.776L599.093 123.921C599.932 123.968 600.568 124.19 601.003 124.589C601.437 124.988 601.636 125.529 601.598 126.211C601.571 126.696 601.443 127.094 601.214 127.408C600.988 127.718 600.657 127.957 600.221 128.126L601.596 131.111L601.592 131.18L600.022 131.093L598.835 128.421ZM597.735 127.172L598.915 127.237C599.282 127.257 599.572 127.18 599.784 127.006C599.996 126.829 600.111 126.576 600.129 126.248C600.147 125.913 600.066 125.644 599.885 125.442C599.707 125.24 599.421 125.128 599.028 125.106L597.853 125.041L597.735 127.172ZM606.529 129.985L603.965 129.844L603.396 131.279L601.841 131.193L604.876 124.241L606.231 124.316L608.496 131.561L606.941 131.475L606.529 129.985ZM604.425 128.681L606.2 128.779L605.454 126.072L604.425 128.681ZM610.686 130.504L613.792 130.675L613.727 131.85L609.159 131.598L609.551 124.499L611.014 124.58L610.686 130.504Z" fill="#60347B"/>
<path d="M123.08 119.001L122.187 111.948L124.658 111.635C125.514 111.527 126.184 111.61 126.668 111.883C127.151 112.153 127.433 112.605 127.513 113.238C127.557 113.583 127.507 113.9 127.363 114.187C127.218 114.471 126.996 114.695 126.695 114.857C127.068 114.902 127.375 115.049 127.616 115.297C127.861 115.545 128.009 115.867 128.059 116.265C128.145 116.943 127.993 117.484 127.605 117.887C127.216 118.291 126.622 118.546 125.822 118.654L123.08 119.001ZM124.144 115.746L124.385 117.65L125.63 117.492C125.973 117.449 126.229 117.335 126.399 117.149C126.572 116.96 126.64 116.721 126.604 116.434C126.522 115.788 126.146 115.503 125.477 115.577L124.144 115.746ZM124.014 114.719L125.09 114.583C125.821 114.477 126.151 114.139 126.079 113.567C126.038 113.247 125.915 113.03 125.711 112.915C125.509 112.796 125.207 112.762 124.807 112.813L123.79 112.941L124.014 114.719ZM133.214 116.242L130.666 116.565L130.365 118.079L128.82 118.275L130.553 110.889L131.9 110.719L135.432 117.438L133.887 117.634L133.214 116.242ZM130.909 115.338L132.673 115.115L131.452 112.587L130.909 115.338ZM138.042 109.942L139.496 109.758L140.113 114.641C140.17 115.09 140.12 115.5 139.964 115.871C139.81 116.238 139.564 116.538 139.226 116.771C138.888 117.004 138.492 117.149 138.036 117.207C137.29 117.302 136.685 117.186 136.221 116.861C135.756 116.533 135.48 116.021 135.392 115.327L136.855 115.142C136.898 115.487 137.003 115.733 137.17 115.88C137.336 116.026 137.575 116.079 137.889 116.04C138.166 116.005 138.376 115.881 138.516 115.67C138.657 115.459 138.705 115.177 138.66 114.825L138.042 109.942ZM145.324 114.71L142.776 115.032L142.476 116.547L140.931 116.742L142.664 109.357L144.01 109.187L147.543 115.906L145.998 116.101L145.324 114.71ZM143.02 113.806L144.783 113.582L143.563 111.055L143.02 113.806ZM155.912 112.46C155.953 113.226 155.748 113.859 155.296 114.359C154.847 114.859 154.209 115.161 153.383 115.265C152.479 115.38 151.728 115.166 151.131 114.625C150.537 114.08 150.173 113.276 150.039 112.214L149.984 111.783C149.898 111.104 149.942 110.492 150.116 109.945C150.289 109.398 150.58 108.959 150.988 108.629C151.398 108.295 151.897 108.09 152.485 108.016C153.299 107.913 153.982 108.048 154.535 108.421C155.087 108.794 155.452 109.37 155.629 110.148L154.176 110.332C154.083 109.881 153.914 109.568 153.668 109.392C153.426 109.213 153.082 109.151 152.636 109.208C152.152 109.269 151.81 109.489 151.612 109.869C151.417 110.245 151.362 110.798 151.448 111.528L151.516 112.061C151.612 112.823 151.797 113.366 152.071 113.689C152.348 114.012 152.735 114.141 153.233 114.078C153.681 114.022 154.003 113.878 154.197 113.646C154.393 113.412 154.481 113.077 154.459 112.644L155.912 112.46ZM160.962 112.731L158.413 113.054L158.113 114.568L156.568 114.764L158.301 107.379L159.647 107.208L163.18 113.927L161.635 114.123L160.962 112.731ZM158.657 111.827L160.42 111.604L159.2 109.076L158.657 111.827ZM166.123 110.932L164.965 111.078L165.292 113.66L163.839 113.844L162.946 106.791L165.567 106.459C166.4 106.354 167.066 106.458 167.566 106.772C168.065 107.086 168.357 107.583 168.443 108.261C168.504 108.742 168.45 109.157 168.281 109.507C168.114 109.853 167.832 110.148 167.433 110.392L169.324 113.081L169.332 113.149L167.772 113.346L166.123 110.932ZM164.816 109.901L165.989 109.753C166.354 109.706 166.625 109.579 166.801 109.369C166.978 109.157 167.046 108.887 167.004 108.561C166.962 108.228 166.834 107.979 166.619 107.812C166.408 107.646 166.107 107.587 165.716 107.636L164.549 107.784L164.816 109.901ZM175.643 111.445C175.421 111.791 175.082 112.082 174.626 112.317C174.17 112.548 173.651 112.701 173.07 112.774C172.459 112.852 171.906 112.787 171.411 112.581C170.919 112.371 170.514 112.028 170.198 111.553C169.885 111.077 169.682 110.498 169.589 109.814L169.529 109.334C169.44 108.63 169.48 108.006 169.651 107.463C169.825 106.916 170.117 106.479 170.529 106.151C170.943 105.82 171.45 105.616 172.051 105.54C172.887 105.434 173.567 105.552 174.089 105.893C174.611 106.23 174.963 106.775 175.147 107.526L173.732 107.705C173.617 107.309 173.436 107.032 173.189 106.873C172.946 106.713 172.63 106.658 172.243 106.707C171.749 106.77 171.396 107.003 171.185 107.407C170.973 107.811 170.912 108.38 171.002 109.113L171.059 109.564C171.152 110.303 171.364 110.844 171.692 111.187C172.021 111.529 172.457 111.666 172.999 111.597C173.545 111.528 173.92 111.363 174.123 111.101L173.969 109.885L172.646 110.052L172.511 108.981L175.287 108.63L175.643 111.445ZM180.736 110.229L178.187 110.552L177.887 112.066L176.342 112.262L178.075 104.877L179.421 104.706L182.954 111.425L181.409 111.621L180.736 110.229ZM178.431 109.325L180.194 109.102L178.974 106.574L178.431 109.325ZM191.323 107.979C191.364 108.745 191.159 109.378 190.707 109.878C190.258 110.378 189.621 110.68 188.794 110.785C187.89 110.899 187.139 110.686 186.542 110.144C185.948 109.599 185.584 108.796 185.45 107.733L185.395 107.302C185.309 106.624 185.353 106.011 185.527 105.464C185.7 104.917 185.991 104.479 186.399 104.148C186.809 103.814 187.308 103.61 187.896 103.535C188.71 103.432 189.393 103.567 189.946 103.94C190.498 104.314 190.863 104.889 191.04 105.667L189.587 105.851C189.494 105.4 189.325 105.087 189.079 104.911C188.837 104.732 188.493 104.671 188.047 104.727C187.563 104.788 187.221 105.009 187.023 105.388C186.828 105.764 186.773 106.317 186.859 107.048L186.927 107.581C187.023 108.343 187.208 108.885 187.482 109.208C187.759 109.531 188.146 109.661 188.644 109.598C189.092 109.541 189.414 109.397 189.608 109.166C189.804 108.931 189.892 108.597 189.87 108.163L191.323 107.979ZM196.431 106.614L193.641 106.967L193.88 108.857L197.155 108.442L197.302 109.61L192.575 110.208L191.682 103.155L196.4 102.558L196.549 103.735L193.284 104.148L193.497 105.829L196.287 105.476L196.431 106.614ZM200.439 106.589L199.282 106.736L199.608 109.318L198.155 109.502L197.263 102.449L199.883 102.117C200.716 102.012 201.383 102.116 201.882 102.43C202.381 102.744 202.673 103.241 202.759 103.919C202.82 104.4 202.766 104.815 202.597 105.165C202.431 105.511 202.148 105.806 201.749 106.05L203.64 108.739L203.648 108.807L202.088 109.004L200.439 106.589ZM199.133 105.559L200.305 105.41C200.67 105.364 200.941 105.237 201.118 105.027C201.294 104.814 201.362 104.545 201.321 104.219C201.279 103.886 201.15 103.637 200.935 103.47C200.724 103.303 200.423 103.245 200.032 103.294L198.865 103.442L199.133 105.559ZM208.348 105.106L205.558 105.46L205.797 107.349L209.071 106.934L209.219 108.102L204.491 108.7L203.599 101.647L208.317 101.05L208.466 102.227L205.201 102.64L205.414 104.321L208.204 103.968L208.348 105.106ZM210.072 107.994L209.179 100.941L211.65 100.628C212.506 100.52 213.176 100.603 213.66 100.876C214.143 101.146 214.425 101.598 214.505 102.231C214.549 102.576 214.499 102.893 214.355 103.18C214.21 103.464 213.988 103.687 213.687 103.85C214.06 103.895 214.367 104.041 214.608 104.29C214.853 104.538 215.001 104.86 215.051 105.257C215.137 105.936 214.985 106.477 214.597 106.88C214.208 107.284 213.614 107.539 212.814 107.647L210.072 107.994ZM211.136 104.739L211.377 106.643L212.622 106.485C212.965 106.442 213.221 106.327 213.391 106.142C213.564 105.953 213.632 105.714 213.596 105.427C213.514 104.781 213.138 104.495 212.469 104.57L211.136 104.739ZM211.006 103.712L212.082 103.576C212.813 103.47 213.143 103.132 213.071 102.56C213.03 102.24 212.907 102.023 212.703 101.908C212.5 101.789 212.199 101.755 211.799 101.805L210.781 101.934L211.006 103.712ZM218.692 104.28L217.534 104.426L217.861 107.008L216.408 107.192L215.515 100.139L218.136 99.8075C218.969 99.7021 219.636 99.8065 220.135 100.121C220.634 100.435 220.926 100.931 221.012 101.609C221.073 102.09 221.019 102.506 220.85 102.855C220.684 103.201 220.401 103.496 220.002 103.74L221.893 106.429L221.901 106.497L220.341 106.695L218.692 104.28ZM217.386 103.249L218.558 103.101C218.923 103.055 219.194 102.927 219.371 102.718C219.547 102.505 219.615 102.236 219.574 101.909C219.531 101.577 219.403 101.327 219.188 101.161C218.977 100.994 218.676 100.935 218.285 100.985L217.118 101.132L217.386 103.249ZM226.542 104.433L223.994 104.756L223.694 106.27L222.148 106.466L223.881 99.0806L225.228 98.9102L228.761 105.629L227.215 105.825L226.542 104.433ZM224.238 103.529L226.001 103.306L224.78 100.778L224.238 103.529ZM230.725 104.195L233.811 103.804L233.958 104.972L229.419 105.546L228.527 98.4928L229.98 98.3089L230.725 104.195Z" fill="#60347B"/>
</svg>
