<svg width="620" height="365" viewBox="0 0 620 365" fill="none" xmlns="http://www.w3.org/2000/svg">
<g filter="url(#filter0_d)">
<path d="M59.5 68C59.5 63.8579 62.8579 60.5 67 60.5H450C454.142 60.5 457.5 63.8579 457.5 68V315.5H59.5V68Z" fill="white" stroke="black" stroke-width="15"/>
<path d="M100.388 184.628L103.728 178.203H105.644L101.231 186.228V191H99.5439V186.228L95.1318 178.203H97.0654L100.388 184.628ZM106.03 186.157C106.03 185.226 106.212 184.388 106.575 183.644C106.944 182.899 107.454 182.325 108.104 181.921C108.761 181.517 109.508 181.314 110.346 181.314C111.641 181.314 112.687 181.763 113.483 182.659C114.286 183.556 114.688 184.748 114.688 186.236V186.351C114.688 187.276 114.509 188.108 114.151 188.847C113.8 189.579 113.293 190.15 112.631 190.561C111.975 190.971 111.219 191.176 110.363 191.176C109.074 191.176 108.028 190.728 107.226 189.831C106.429 188.935 106.03 187.748 106.03 186.271V186.157ZM107.665 186.351C107.665 187.405 107.908 188.252 108.395 188.891C108.887 189.529 109.543 189.849 110.363 189.849C111.189 189.849 111.846 189.526 112.332 188.882C112.818 188.231 113.062 187.323 113.062 186.157C113.062 185.114 112.812 184.271 112.314 183.626C111.822 182.976 111.166 182.65 110.346 182.65C109.543 182.65 108.896 182.97 108.403 183.608C107.911 184.247 107.665 185.161 107.665 186.351ZM122.598 190.06C121.965 190.804 121.036 191.176 119.812 191.176C118.798 191.176 118.024 190.883 117.491 190.297C116.964 189.705 116.697 188.832 116.691 187.678V181.49H118.317V187.634C118.317 189.075 118.903 189.796 120.075 189.796C121.317 189.796 122.144 189.333 122.554 188.407V181.49H124.18V191H122.633L122.598 190.06ZM131.255 182.949C131.009 182.908 130.742 182.888 130.455 182.888C129.389 182.888 128.665 183.342 128.284 184.25V191H126.658V181.49H128.24L128.267 182.589C128.8 181.739 129.556 181.314 130.534 181.314C130.851 181.314 131.091 181.355 131.255 181.438V182.949ZM140.237 186.966L140.483 188.653L140.844 187.133L143.375 178.203H144.799L147.269 187.133L147.62 188.68L147.893 186.957L149.879 178.203H151.575L148.473 191H146.935L144.298 181.675L144.096 180.699L143.894 181.675L141.16 191H139.622L136.528 178.203H138.216L140.237 186.966ZM156.866 191.176C155.577 191.176 154.528 190.754 153.72 189.91C152.911 189.061 152.507 187.927 152.507 186.509V186.21C152.507 185.267 152.686 184.426 153.043 183.688C153.406 182.943 153.91 182.363 154.555 181.947C155.205 181.525 155.908 181.314 156.664 181.314C157.9 181.314 158.861 181.722 159.547 182.536C160.232 183.351 160.575 184.517 160.575 186.034V186.711H154.133C154.156 187.648 154.429 188.407 154.95 188.987C155.478 189.562 156.146 189.849 156.954 189.849C157.528 189.849 158.015 189.731 158.413 189.497C158.812 189.263 159.16 188.952 159.459 188.565L160.452 189.339C159.655 190.563 158.46 191.176 156.866 191.176ZM156.664 182.65C156.008 182.65 155.457 182.891 155.012 183.371C154.566 183.846 154.291 184.514 154.186 185.375H158.949V185.252C158.902 184.426 158.68 183.787 158.281 183.336C157.883 182.879 157.344 182.65 156.664 182.65ZM170.516 186.351C170.516 187.804 170.182 188.973 169.514 189.857C168.846 190.736 167.949 191.176 166.824 191.176C165.623 191.176 164.694 190.751 164.038 189.901L163.959 191H162.465V177.5H164.091V182.536C164.747 181.722 165.652 181.314 166.807 181.314C167.961 181.314 168.866 181.751 169.522 182.624C170.185 183.497 170.516 184.692 170.516 186.21V186.351ZM168.89 186.166C168.89 185.059 168.676 184.203 168.248 183.6C167.82 182.996 167.205 182.694 166.402 182.694C165.33 182.694 164.56 183.192 164.091 184.188V188.302C164.589 189.298 165.365 189.796 166.42 189.796C167.199 189.796 167.806 189.494 168.239 188.891C168.673 188.287 168.89 187.379 168.89 186.166ZM178.109 188.478C178.109 188.038 177.942 187.698 177.608 187.458C177.28 187.212 176.703 187.001 175.877 186.825C175.057 186.649 174.403 186.438 173.917 186.192C173.437 185.946 173.079 185.653 172.845 185.313C172.616 184.974 172.502 184.569 172.502 184.101C172.502 183.321 172.83 182.662 173.486 182.123C174.148 181.584 174.992 181.314 176.018 181.314C177.096 181.314 177.969 181.593 178.637 182.149C179.311 182.706 179.647 183.418 179.647 184.285H178.013C178.013 183.84 177.822 183.456 177.441 183.134C177.066 182.812 176.592 182.65 176.018 182.65C175.426 182.65 174.963 182.779 174.629 183.037C174.295 183.295 174.128 183.632 174.128 184.048C174.128 184.44 174.283 184.736 174.594 184.936C174.904 185.135 175.464 185.325 176.272 185.507C177.087 185.688 177.746 185.905 178.25 186.157C178.754 186.409 179.126 186.714 179.366 187.071C179.612 187.423 179.735 187.854 179.735 188.363C179.735 189.213 179.396 189.896 178.716 190.411C178.036 190.921 177.154 191.176 176.07 191.176C175.309 191.176 174.635 191.041 174.049 190.771C173.463 190.502 173.003 190.127 172.669 189.646C172.341 189.16 172.177 188.636 172.177 188.073H173.803C173.832 188.618 174.049 189.052 174.453 189.374C174.863 189.69 175.402 189.849 176.07 189.849C176.686 189.849 177.178 189.726 177.547 189.479C177.922 189.228 178.109 188.894 178.109 188.478ZM183.62 191H181.994V181.49H183.62V191ZM181.862 178.968C181.862 178.704 181.941 178.481 182.1 178.3C182.264 178.118 182.504 178.027 182.82 178.027C183.137 178.027 183.377 178.118 183.541 178.3C183.705 178.481 183.787 178.704 183.787 178.968C183.787 179.231 183.705 179.451 183.541 179.627C183.377 179.803 183.137 179.891 182.82 179.891C182.504 179.891 182.264 179.803 182.1 179.627C181.941 179.451 181.862 179.231 181.862 178.968ZM188.437 179.188V181.49H190.212V182.747H188.437V188.645C188.437 189.025 188.516 189.312 188.674 189.506C188.832 189.693 189.102 189.787 189.482 189.787C189.67 189.787 189.928 189.752 190.256 189.682V191C189.828 191.117 189.412 191.176 189.008 191.176C188.281 191.176 187.733 190.956 187.364 190.517C186.995 190.077 186.811 189.453 186.811 188.645V182.747H185.079V181.49H186.811V179.188H188.437ZM196.065 191.176C194.776 191.176 193.728 190.754 192.919 189.91C192.11 189.061 191.706 187.927 191.706 186.509V186.21C191.706 185.267 191.885 184.426 192.242 183.688C192.605 182.943 193.109 182.363 193.754 181.947C194.404 181.525 195.107 181.314 195.863 181.314C197.1 181.314 198.061 181.722 198.746 182.536C199.432 183.351 199.774 184.517 199.774 186.034V186.711H193.332C193.355 187.648 193.628 188.407 194.149 188.987C194.677 189.562 195.345 189.849 196.153 189.849C196.728 189.849 197.214 189.731 197.612 189.497C198.011 189.263 198.359 188.952 198.658 188.565L199.651 189.339C198.854 190.563 197.659 191.176 196.065 191.176ZM195.863 182.65C195.207 182.65 194.656 182.891 194.211 183.371C193.766 183.846 193.49 184.514 193.385 185.375H198.148V185.252C198.102 184.426 197.879 183.787 197.48 183.336C197.082 182.879 196.543 182.65 195.863 182.65Z" fill="#C4C4C4"/>
<path d="M10 328C10 325.239 12.2386 323 15 323H501C503.761 323 506 325.239 506 328V331H10V328Z" fill="#E5E5E5"/>
<path d="M10 331H506V335C506 340.523 501.523 345 496 345H20C14.4771 345 10 340.523 10 335V331Z" fill="#C4C4C4"/>
<path d="M440.884 74.3661C441.372 74.8543 441.372 75.6457 440.884 76.1339C440.396 76.622 439.604 76.622 439.116 76.1339C438.628 75.6457 438.628 74.8543 439.116 74.3661C439.604 73.878 440.396 73.878 440.884 74.3661Z" fill="#97A3AF"/>
<path d="M440.884 78.1161C441.372 78.6043 441.372 79.3957 440.884 79.8839C440.396 80.372 439.604 80.372 439.116 79.8839C438.628 79.3957 438.628 78.6043 439.116 78.1161C439.604 77.628 440.396 77.628 440.884 78.1161Z" fill="#97A3AF"/>
<path d="M440.884 81.8661C441.372 82.3543 441.372 83.1457 440.884 83.6339C440.396 84.122 439.604 84.122 439.116 83.6339C438.628 83.1457 438.628 82.3543 439.116 81.8661C439.604 81.378 440.396 81.378 440.884 81.8661Z" fill="#97A3AF"/>
<rect x="91" y="74" width="339" height="10" fill="#F5F5F5"/>
<g clip-path="url(#clip0)">
<path d="M85 78.2858H77.8571L80.3572 75.7858L79.2857 74.7144L75 79.0001L79.2857 83.2858L80.3571 82.2143L77.8571 79.7143H85V78.2858Z" fill="#97A3AF"/>
</g>
</g>
<g filter="url(#filter1_d)">
<circle cx="424" cy="287" r="14" fill="#2A94F4"/>
<path d="M411.684 200.2L419.415 284.771L345.94 253.956L411.684 200.2Z" fill="#F5F5F5"/>
<circle cx="363" cy="146" r="140" fill="white"/>
<circle cx="363" cy="146" r="135" stroke="#2A94F4" stroke-opacity="0.3" stroke-width="10"/>
<circle cx="402.848" cy="227.848" r="23.8477" fill="#0F8DFF"/>
<path d="M418.591 238.095L425.287 249.274H411.895L418.591 238.095Z" fill="#0F8DFF"/>
<g clip-path="url(#clip1)">
<path d="M402.251 215.138L399.038 215.704C398.594 215.782 398.294 216.18 398.367 216.593C398.44 217.007 398.858 217.278 399.302 217.199L402.514 216.633C402.958 216.555 403.258 216.157 403.185 215.744C403.113 215.331 402.694 215.059 402.251 215.138Z" fill="white"/>
<path d="M406.27 211.859L394.307 213.969C392.658 214.259 391.553 215.838 391.843 217.487L396.062 241.413C396.353 243.061 397.931 244.167 399.58 243.876L411.543 241.767C413.192 241.476 414.297 239.897 414.006 238.249L409.788 214.323C409.497 212.674 407.918 211.569 406.27 211.859ZM412.511 238.512C412.657 239.338 412.105 240.126 411.279 240.271L399.316 242.381C398.49 242.526 397.703 241.975 397.557 241.149L393.339 217.223C393.193 216.397 393.744 215.61 394.57 215.464L406.533 213.355C407.359 213.209 408.147 213.76 408.292 214.586L412.511 238.512Z" fill="white"/>
<rect x="392.916" y="222.924" width="13.9733" height="8.75659" transform="rotate(43 392.916 222.924)" fill="#0F8DFF"/>
<rect x="403.712" y="224.256" width="13.9733" height="8.75659" transform="rotate(-43 403.712 224.256)" fill="#0F8DFF"/>
</g>
<path d="M415.39 222.728L401.284 236.832C400.239 237.877 398.545 237.877 397.499 236.832L390.218 229.55C389.173 228.506 389.173 226.811 390.218 225.766C391.263 224.721 392.957 224.721 394.002 225.766L399.392 231.156L411.605 218.943C412.65 217.898 414.344 217.899 415.389 218.943C416.434 219.988 416.434 221.682 415.39 222.728Z" fill="white"/>
<path d="M415.39 222.728L401.284 236.832C400.239 237.877 398.545 237.877 397.499 236.832L390.218 229.55C389.173 228.506 389.173 226.811 390.218 225.766C391.263 224.721 392.957 224.721 394.002 225.766L399.392 231.156L411.605 218.943C412.65 217.898 414.344 217.899 415.389 218.943C416.434 219.988 416.434 221.682 415.39 222.728Z" stroke="#0F8DFF"/>
<g filter="url(#filter2_d)">
<path d="M396 221L418.517 201.5H373.483L396 221Z" fill="white"/>
<rect x="277" y="63" width="168" height="139" rx="15" fill="white"/>
</g>
<path d="M304.875 93.3711H302.41V95.3867H305.273V96H301.66V90.3125H305.234V90.9297H302.41V92.7578H304.875V93.3711ZM308.555 94.8789C308.555 94.6836 308.48 94.5326 308.332 94.4258C308.186 94.3164 307.93 94.2227 307.562 94.1445C307.198 94.0664 306.908 93.9727 306.691 93.8633C306.478 93.7539 306.319 93.6237 306.215 93.4727C306.113 93.3216 306.062 93.1419 306.062 92.9336C306.062 92.5872 306.208 92.2943 306.5 92.0547C306.794 91.8151 307.169 91.6953 307.625 91.6953C308.104 91.6953 308.492 91.819 308.789 92.0664C309.089 92.3138 309.238 92.6302 309.238 93.0156H308.512C308.512 92.8177 308.427 92.6471 308.258 92.5039C308.091 92.3607 307.88 92.2891 307.625 92.2891C307.362 92.2891 307.156 92.3464 307.008 92.4609C306.859 92.5755 306.785 92.7253 306.785 92.9102C306.785 93.0846 306.854 93.2161 306.992 93.3047C307.13 93.3932 307.379 93.4779 307.738 93.5586C308.1 93.6393 308.393 93.7357 308.617 93.8477C308.841 93.9596 309.007 94.0951 309.113 94.2539C309.223 94.4102 309.277 94.6016 309.277 94.8281C309.277 95.2057 309.126 95.5091 308.824 95.7383C308.522 95.9648 308.13 96.0781 307.648 96.0781C307.31 96.0781 307.01 96.0182 306.75 95.8984C306.49 95.7786 306.285 95.612 306.137 95.3984C305.991 95.1823 305.918 94.9492 305.918 94.6992H306.641C306.654 94.9414 306.75 95.1341 306.93 95.2773C307.112 95.418 307.352 95.4883 307.648 95.4883C307.922 95.4883 308.141 95.4336 308.305 95.3242C308.471 95.2122 308.555 95.0638 308.555 94.8789ZM311.914 95.4883C312.172 95.4883 312.397 95.4102 312.59 95.2539C312.783 95.0977 312.889 94.9023 312.91 94.668H313.594C313.581 94.9102 313.497 95.1406 313.344 95.3594C313.19 95.5781 312.984 95.7526 312.727 95.8828C312.471 96.013 312.201 96.0781 311.914 96.0781C311.339 96.0781 310.88 95.8867 310.539 95.5039C310.201 95.1185 310.031 94.5924 310.031 93.9258V93.8047C310.031 93.3932 310.107 93.0273 310.258 92.707C310.409 92.3867 310.625 92.138 310.906 91.9609C311.19 91.7839 311.525 91.6953 311.91 91.6953C312.384 91.6953 312.777 91.8372 313.09 92.1211C313.405 92.4049 313.573 92.7734 313.594 93.2266H312.91C312.889 92.9531 312.785 92.7292 312.598 92.5547C312.413 92.3776 312.184 92.2891 311.91 92.2891C311.543 92.2891 311.258 92.4219 311.055 92.6875C310.854 92.9505 310.754 93.332 310.754 93.832V93.9688C310.754 94.4557 310.854 94.8307 311.055 95.0938C311.255 95.3568 311.542 95.4883 311.914 95.4883ZM317.016 96C316.974 95.9167 316.94 95.7682 316.914 95.5547C316.578 95.9036 316.177 96.0781 315.711 96.0781C315.294 96.0781 314.952 95.9609 314.684 95.7266C314.418 95.4896 314.285 95.1901 314.285 94.8281C314.285 94.388 314.452 94.0469 314.785 93.8047C315.121 93.5599 315.592 93.4375 316.199 93.4375H316.902V93.1055C316.902 92.8529 316.827 92.6523 316.676 92.5039C316.525 92.3529 316.302 92.2773 316.008 92.2773C315.75 92.2773 315.534 92.3424 315.359 92.4727C315.185 92.6029 315.098 92.7604 315.098 92.9453H314.371C314.371 92.7344 314.445 92.5312 314.594 92.3359C314.745 92.138 314.948 91.9818 315.203 91.8672C315.461 91.7526 315.743 91.6953 316.051 91.6953C316.538 91.6953 316.919 91.8177 317.195 92.0625C317.471 92.3047 317.615 92.6393 317.625 93.0664V95.0117C317.625 95.3997 317.674 95.7083 317.773 95.9375V96H317.016ZM315.816 95.4492C316.043 95.4492 316.258 95.3906 316.461 95.2734C316.664 95.1562 316.811 95.0039 316.902 94.8164V93.9492H316.336C315.451 93.9492 315.008 94.2083 315.008 94.7266C315.008 94.9531 315.083 95.1302 315.234 95.2578C315.385 95.3854 315.579 95.4492 315.816 95.4492ZM319.441 91.7734L319.465 92.3047C319.788 91.8984 320.21 91.6953 320.73 91.6953C321.624 91.6953 322.074 92.1992 322.082 93.207V96H321.359V93.2031C321.357 92.8984 321.286 92.6732 321.148 92.5273C321.013 92.3815 320.801 92.3086 320.512 92.3086C320.277 92.3086 320.072 92.3711 319.895 92.4961C319.717 92.6211 319.579 92.7852 319.48 92.9883V96H318.758V91.7734H319.441ZM324.926 96.0781C324.353 96.0781 323.887 95.8906 323.527 95.5156C323.168 95.138 322.988 94.6341 322.988 94.0039V93.8711C322.988 93.4518 323.068 93.0781 323.227 92.75C323.388 92.4193 323.612 92.1615 323.898 91.9766C324.188 91.7891 324.5 91.6953 324.836 91.6953C325.385 91.6953 325.812 91.8763 326.117 92.2383C326.422 92.6003 326.574 93.1185 326.574 93.793V94.0938H323.711C323.721 94.5104 323.842 94.8477 324.074 95.1055C324.309 95.3607 324.605 95.4883 324.965 95.4883C325.22 95.4883 325.436 95.4362 325.613 95.332C325.79 95.2279 325.945 95.0898 326.078 94.918L326.52 95.2617C326.165 95.806 325.634 96.0781 324.926 96.0781ZM324.836 92.2891C324.544 92.2891 324.299 92.3958 324.102 92.6094C323.904 92.8203 323.781 93.1172 323.734 93.5H325.852V93.4453C325.831 93.0781 325.732 92.7943 325.555 92.5938C325.378 92.3906 325.138 92.2891 324.836 92.2891ZM330.023 96C329.982 95.9167 329.948 95.7682 329.922 95.5547C329.586 95.9036 329.185 96.0781 328.719 96.0781C328.302 96.0781 327.96 95.9609 327.691 95.7266C327.426 95.4896 327.293 95.1901 327.293 94.8281C327.293 94.388 327.46 94.0469 327.793 93.8047C328.129 93.5599 328.6 93.4375 329.207 93.4375H329.91V93.1055C329.91 92.8529 329.835 92.6523 329.684 92.5039C329.533 92.3529 329.31 92.2773 329.016 92.2773C328.758 92.2773 328.542 92.3424 328.367 92.4727C328.193 92.6029 328.105 92.7604 328.105 92.9453H327.379C327.379 92.7344 327.453 92.5312 327.602 92.3359C327.753 92.138 327.956 91.9818 328.211 91.8672C328.469 91.7526 328.751 91.6953 329.059 91.6953C329.546 91.6953 329.927 91.8177 330.203 92.0625C330.479 92.3047 330.622 92.6393 330.633 93.0664V95.0117C330.633 95.3997 330.682 95.7083 330.781 95.9375V96H330.023ZM328.824 95.4492C329.051 95.4492 329.266 95.3906 329.469 95.2734C329.672 95.1562 329.819 95.0039 329.91 94.8164V93.9492H329.344C328.458 93.9492 328.016 94.2083 328.016 94.7266C328.016 94.9531 328.091 95.1302 328.242 95.2578C328.393 95.3854 328.587 95.4492 328.824 95.4492ZM335.504 96.0781C334.931 96.0781 334.465 95.8906 334.105 95.5156C333.746 95.138 333.566 94.6341 333.566 94.0039V93.8711C333.566 93.4518 333.646 93.0781 333.805 92.75C333.966 92.4193 334.19 92.1615 334.477 91.9766C334.766 91.7891 335.078 91.6953 335.414 91.6953C335.964 91.6953 336.391 91.8763 336.695 92.2383C337 92.6003 337.152 93.1185 337.152 93.793V94.0938H334.289C334.299 94.5104 334.421 94.8477 334.652 95.1055C334.887 95.3607 335.184 95.4883 335.543 95.4883C335.798 95.4883 336.014 95.4362 336.191 95.332C336.368 95.2279 336.523 95.0898 336.656 94.918L337.098 95.2617C336.743 95.806 336.212 96.0781 335.504 96.0781ZM335.414 92.2891C335.122 92.2891 334.878 92.3958 334.68 92.6094C334.482 92.8203 334.359 93.1172 334.312 93.5H336.43V93.4453C336.409 93.0781 336.31 92.7943 336.133 92.5938C335.956 92.3906 335.716 92.2891 335.414 92.2891ZM338.777 96H338.055V90H338.777V96ZM343.617 95.4883C343.875 95.4883 344.1 95.4102 344.293 95.2539C344.486 95.0977 344.592 94.9023 344.613 94.668H345.297C345.284 94.9102 345.201 95.1406 345.047 95.3594C344.893 95.5781 344.688 95.7526 344.43 95.8828C344.174 96.013 343.904 96.0781 343.617 96.0781C343.042 96.0781 342.583 95.8867 342.242 95.5039C341.904 95.1185 341.734 94.5924 341.734 93.9258V93.8047C341.734 93.3932 341.81 93.0273 341.961 92.707C342.112 92.3867 342.328 92.138 342.609 91.9609C342.893 91.7839 343.228 91.6953 343.613 91.6953C344.087 91.6953 344.48 91.8372 344.793 92.1211C345.108 92.4049 345.276 92.7734 345.297 93.2266H344.613C344.592 92.9531 344.488 92.7292 344.301 92.5547C344.116 92.3776 343.887 92.2891 343.613 92.2891C343.246 92.2891 342.961 92.4219 342.758 92.6875C342.557 92.9505 342.457 93.332 342.457 93.832V93.9688C342.457 94.4557 342.557 94.8307 342.758 95.0938C342.958 95.3568 343.245 95.4883 343.617 95.4883ZM345.918 93.8477C345.918 93.4336 345.999 93.0612 346.16 92.7305C346.324 92.3997 346.551 92.1445 346.84 91.9648C347.132 91.7852 347.464 91.6953 347.836 91.6953C348.411 91.6953 348.876 91.8945 349.23 92.293C349.587 92.6914 349.766 93.2214 349.766 93.8828V93.9336C349.766 94.3451 349.686 94.7148 349.527 95.043C349.371 95.3685 349.146 95.6224 348.852 95.8047C348.56 95.987 348.224 96.0781 347.844 96.0781C347.271 96.0781 346.806 95.8789 346.449 95.4805C346.095 95.082 345.918 94.5547 345.918 93.8984V93.8477ZM346.645 93.9336C346.645 94.4023 346.753 94.7786 346.969 95.0625C347.188 95.3464 347.479 95.4883 347.844 95.4883C348.211 95.4883 348.503 95.3451 348.719 95.0586C348.935 94.7695 349.043 94.3659 349.043 93.8477C349.043 93.3841 348.932 93.0091 348.711 92.7227C348.492 92.4336 348.201 92.2891 347.836 92.2891C347.479 92.2891 347.191 92.431 346.973 92.7148C346.754 92.9987 346.645 93.4049 346.645 93.9336ZM350.496 93.8516C350.496 93.2031 350.65 92.6823 350.957 92.2891C351.264 91.8932 351.667 91.6953 352.164 91.6953C352.659 91.6953 353.051 91.8646 353.34 92.2031V90H354.062V96H353.398L353.363 95.5469C353.074 95.901 352.672 96.0781 352.156 96.0781C351.667 96.0781 351.267 95.8776 350.957 95.4766C350.65 95.0755 350.496 94.5521 350.496 93.9062V93.8516ZM351.219 93.9336C351.219 94.4128 351.318 94.7878 351.516 95.0586C351.714 95.3294 351.987 95.4648 352.336 95.4648C352.794 95.4648 353.129 95.2591 353.34 94.8477V92.9062C353.124 92.5078 352.792 92.3086 352.344 92.3086C351.99 92.3086 351.714 92.4453 351.516 92.7188C351.318 92.9922 351.219 93.3971 351.219 93.9336ZM355.973 96H355.25V91.7734H355.973V96ZM355.191 90.6523C355.191 90.5352 355.227 90.4362 355.297 90.3555C355.37 90.2747 355.477 90.2344 355.617 90.2344C355.758 90.2344 355.865 90.2747 355.938 90.3555C356.01 90.4362 356.047 90.5352 356.047 90.6523C356.047 90.7695 356.01 90.8672 355.938 90.9453C355.865 91.0234 355.758 91.0625 355.617 91.0625C355.477 91.0625 355.37 91.0234 355.297 90.9453C355.227 90.8672 355.191 90.7695 355.191 90.6523ZM356.961 93.8516C356.961 93.1927 357.113 92.6693 357.418 92.2812C357.723 91.8906 358.126 91.6953 358.629 91.6953C359.145 91.6953 359.547 91.8776 359.836 92.2422L359.871 91.7734H360.531V95.8984C360.531 96.4453 360.368 96.8763 360.043 97.1914C359.72 97.5065 359.285 97.6641 358.738 97.6641C358.434 97.6641 358.135 97.599 357.844 97.4688C357.552 97.3385 357.329 97.1602 357.176 96.9336L357.551 96.5C357.861 96.8828 358.24 97.0742 358.688 97.0742C359.039 97.0742 359.312 96.9753 359.508 96.7773C359.706 96.5794 359.805 96.3008 359.805 95.9414V95.5781C359.516 95.9115 359.121 96.0781 358.621 96.0781C358.126 96.0781 357.725 95.8789 357.418 95.4805C357.113 95.082 356.961 94.5391 356.961 93.8516ZM357.688 93.9336C357.688 94.4102 357.785 94.7852 357.98 95.0586C358.176 95.3294 358.449 95.4648 358.801 95.4648C359.257 95.4648 359.591 95.2578 359.805 94.8438V92.9141C359.583 92.5104 359.251 92.3086 358.809 92.3086C358.457 92.3086 358.182 92.4453 357.984 92.7188C357.786 92.9922 357.688 93.3971 357.688 93.9336ZM361.434 93.8477C361.434 93.4336 361.514 93.0612 361.676 92.7305C361.84 92.3997 362.066 92.1445 362.355 91.9648C362.647 91.7852 362.979 91.6953 363.352 91.6953C363.927 91.6953 364.392 91.8945 364.746 92.293C365.103 92.6914 365.281 93.2214 365.281 93.8828V93.9336C365.281 94.3451 365.202 94.7148 365.043 95.043C364.887 95.3685 364.661 95.6224 364.367 95.8047C364.076 95.987 363.74 96.0781 363.359 96.0781C362.786 96.0781 362.322 95.8789 361.965 95.4805C361.611 95.082 361.434 94.5547 361.434 93.8984V93.8477ZM362.16 93.9336C362.16 94.4023 362.268 94.7786 362.484 95.0625C362.703 95.3464 362.995 95.4883 363.359 95.4883C363.727 95.4883 364.018 95.3451 364.234 95.0586C364.451 94.7695 364.559 94.3659 364.559 93.8477C364.559 93.3841 364.448 93.0091 364.227 92.7227C364.008 92.4336 363.716 92.2891 363.352 92.2891C362.995 92.2891 362.707 92.431 362.488 92.7148C362.27 92.9987 362.16 93.4049 362.16 93.9336ZM367.996 93.8516C367.996 93.2031 368.15 92.6823 368.457 92.2891C368.764 91.8932 369.167 91.6953 369.664 91.6953C370.159 91.6953 370.551 91.8646 370.84 92.2031V90H371.562V96H370.898L370.863 95.5469C370.574 95.901 370.172 96.0781 369.656 96.0781C369.167 96.0781 368.767 95.8776 368.457 95.4766C368.15 95.0755 367.996 94.5521 367.996 93.9062V93.8516ZM368.719 93.9336C368.719 94.4128 368.818 94.7878 369.016 95.0586C369.214 95.3294 369.487 95.4648 369.836 95.4648C370.294 95.4648 370.629 95.2591 370.84 94.8477V92.9062C370.624 92.5078 370.292 92.3086 369.844 92.3086C369.49 92.3086 369.214 92.4453 369.016 92.7188C368.818 92.9922 368.719 93.3971 368.719 93.9336ZM374.441 96.0781C373.868 96.0781 373.402 95.8906 373.043 95.5156C372.684 95.138 372.504 94.6341 372.504 94.0039V93.8711C372.504 93.4518 372.583 93.0781 372.742 92.75C372.904 92.4193 373.128 92.1615 373.414 91.9766C373.703 91.7891 374.016 91.6953 374.352 91.6953C374.901 91.6953 375.328 91.8763 375.633 92.2383C375.938 92.6003 376.09 93.1185 376.09 93.793V94.0938H373.227C373.237 94.5104 373.358 94.8477 373.59 95.1055C373.824 95.3607 374.121 95.4883 374.48 95.4883C374.736 95.4883 374.952 95.4362 375.129 95.332C375.306 95.2279 375.461 95.0898 375.594 94.918L376.035 95.2617C375.681 95.806 375.15 96.0781 374.441 96.0781ZM374.352 92.2891C374.06 92.2891 373.815 92.3958 373.617 92.6094C373.419 92.8203 373.297 93.1172 373.25 93.5H375.367V93.4453C375.346 93.0781 375.247 92.7943 375.07 92.5938C374.893 92.3906 374.654 92.2891 374.352 92.2891ZM379.391 94.8789C379.391 94.6836 379.316 94.5326 379.168 94.4258C379.022 94.3164 378.766 94.2227 378.398 94.1445C378.034 94.0664 377.743 93.9727 377.527 93.8633C377.314 93.7539 377.155 93.6237 377.051 93.4727C376.949 93.3216 376.898 93.1419 376.898 92.9336C376.898 92.5872 377.044 92.2943 377.336 92.0547C377.63 91.8151 378.005 91.6953 378.461 91.6953C378.94 91.6953 379.328 91.819 379.625 92.0664C379.924 92.3138 380.074 92.6302 380.074 93.0156H379.348C379.348 92.8177 379.263 92.6471 379.094 92.5039C378.927 92.3607 378.716 92.2891 378.461 92.2891C378.198 92.2891 377.992 92.3464 377.844 92.4609C377.695 92.5755 377.621 92.7253 377.621 92.9102C377.621 93.0846 377.69 93.2161 377.828 93.3047C377.966 93.3932 378.215 93.4779 378.574 93.5586C378.936 93.6393 379.229 93.7357 379.453 93.8477C379.677 93.9596 379.842 94.0951 379.949 94.2539C380.059 94.4102 380.113 94.6016 380.113 94.8281C380.113 95.2057 379.962 95.5091 379.66 95.7383C379.358 95.9648 378.966 96.0781 378.484 96.0781C378.146 96.0781 377.846 96.0182 377.586 95.8984C377.326 95.7786 377.121 95.612 376.973 95.3984C376.827 95.1823 376.754 94.9492 376.754 94.6992H377.477C377.49 94.9414 377.586 95.1341 377.766 95.2773C377.948 95.418 378.188 95.4883 378.484 95.4883C378.758 95.4883 378.977 95.4336 379.141 95.3242C379.307 95.2122 379.391 95.0638 379.391 94.8789ZM380.879 93.8516C380.879 93.2031 381.033 92.6823 381.34 92.2891C381.647 91.8932 382.049 91.6953 382.547 91.6953C383.042 91.6953 383.434 91.8646 383.723 92.2031V90H384.445V96H383.781L383.746 95.5469C383.457 95.901 383.055 96.0781 382.539 96.0781C382.049 96.0781 381.65 95.8776 381.34 95.4766C381.033 95.0755 380.879 94.5521 380.879 93.9062V93.8516ZM381.602 93.9336C381.602 94.4128 381.701 94.7878 381.898 95.0586C382.096 95.3294 382.37 95.4648 382.719 95.4648C383.177 95.4648 383.512 95.2591 383.723 94.8477V92.9062C383.507 92.5078 383.174 92.3086 382.727 92.3086C382.372 92.3086 382.096 92.4453 381.898 92.7188C381.701 92.9922 381.602 93.3971 381.602 93.9336ZM387.324 96.0781C386.751 96.0781 386.285 95.8906 385.926 95.5156C385.566 95.138 385.387 94.6341 385.387 94.0039V93.8711C385.387 93.4518 385.466 93.0781 385.625 92.75C385.786 92.4193 386.01 92.1615 386.297 91.9766C386.586 91.7891 386.898 91.6953 387.234 91.6953C387.784 91.6953 388.211 91.8763 388.516 92.2383C388.82 92.6003 388.973 93.1185 388.973 93.793V94.0938H386.109C386.12 94.5104 386.241 94.8477 386.473 95.1055C386.707 95.3607 387.004 95.4883 387.363 95.4883C387.618 95.4883 387.835 95.4362 388.012 95.332C388.189 95.2279 388.344 95.0898 388.477 94.918L388.918 95.2617C388.564 95.806 388.033 96.0781 387.324 96.0781ZM387.234 92.2891C386.943 92.2891 386.698 92.3958 386.5 92.6094C386.302 92.8203 386.18 93.1172 386.133 93.5H388.25V93.4453C388.229 93.0781 388.13 92.7943 387.953 92.5938C387.776 92.3906 387.536 92.2891 387.234 92.2891ZM392.777 90.75V91.7734H393.566V92.332H392.777V94.9531C392.777 95.1224 392.812 95.25 392.883 95.3359C392.953 95.4193 393.073 95.4609 393.242 95.4609C393.326 95.4609 393.44 95.4453 393.586 95.4141V96C393.396 96.0521 393.211 96.0781 393.031 96.0781C392.708 96.0781 392.465 95.9805 392.301 95.7852C392.137 95.5898 392.055 95.3125 392.055 94.9531V92.332H391.285V91.7734H392.055V90.75H392.777ZM397.023 95.582C396.742 95.9128 396.329 96.0781 395.785 96.0781C395.335 96.0781 394.991 95.9479 394.754 95.6875C394.52 95.4245 394.401 95.0365 394.398 94.5234V91.7734H395.121V94.5039C395.121 95.1445 395.382 95.4648 395.902 95.4648C396.454 95.4648 396.822 95.2591 397.004 94.8477V91.7734H397.727V96H397.039L397.023 95.582ZM401.492 91.7734L401.512 92.2422C401.822 91.8776 402.24 91.6953 402.766 91.6953C403.357 91.6953 403.759 91.9219 403.973 92.375C404.113 92.1719 404.296 92.0078 404.52 91.8828C404.746 91.7578 405.013 91.6953 405.32 91.6953C406.247 91.6953 406.719 92.1862 406.734 93.168V96H406.012V93.2109C406.012 92.9089 405.943 92.6836 405.805 92.5352C405.667 92.3841 405.435 92.3086 405.109 92.3086C404.841 92.3086 404.618 92.3893 404.441 92.5508C404.264 92.7096 404.161 92.9245 404.133 93.1953V96H403.406V93.2305C403.406 92.6159 403.105 92.3086 402.504 92.3086C402.03 92.3086 401.706 92.5104 401.531 92.9141V96H400.809V91.7734H401.492ZM407.637 93.8477C407.637 93.4336 407.717 93.0612 407.879 92.7305C408.043 92.3997 408.27 92.1445 408.559 91.9648C408.85 91.7852 409.182 91.6953 409.555 91.6953C410.13 91.6953 410.595 91.8945 410.949 92.293C411.306 92.6914 411.484 93.2214 411.484 93.8828V93.9336C411.484 94.3451 411.405 94.7148 411.246 95.043C411.09 95.3685 410.865 95.6224 410.57 95.8047C410.279 95.987 409.943 96.0781 409.562 96.0781C408.99 96.0781 408.525 95.8789 408.168 95.4805C407.814 95.082 407.637 94.5547 407.637 93.8984V93.8477ZM408.363 93.9336C408.363 94.4023 408.471 94.7786 408.688 95.0625C408.906 95.3464 409.198 95.4883 409.562 95.4883C409.93 95.4883 410.221 95.3451 410.438 95.0586C410.654 94.7695 410.762 94.3659 410.762 93.8477C410.762 93.3841 410.651 93.0091 410.43 92.7227C410.211 92.4336 409.919 92.2891 409.555 92.2891C409.198 92.2891 408.91 92.431 408.691 92.7148C408.473 92.9987 408.363 93.4049 408.363 93.9336ZM413.723 95.0195L414.77 91.7734H415.508L413.992 96H413.441L411.91 91.7734H412.648L413.723 95.0195ZM416.988 96H416.266V91.7734H416.988V96ZM416.207 90.6523C416.207 90.5352 416.242 90.4362 416.312 90.3555C416.385 90.2747 416.492 90.2344 416.633 90.2344C416.773 90.2344 416.88 90.2747 416.953 90.3555C417.026 90.4362 417.062 90.5352 417.062 90.6523C417.062 90.7695 417.026 90.8672 416.953 90.9453C416.88 91.0234 416.773 91.0625 416.633 91.0625C416.492 91.0625 416.385 91.0234 416.312 90.9453C416.242 90.8672 416.207 90.7695 416.207 90.6523ZM418.934 96H418.211V90H418.934V96Z" fill="#C4C4C4"/>
<path d="M330 111V131.586H350.586V111H330ZM345.742 126.742H334.844V115.844H345.742V126.742Z" fill="#30485F"/>
<path d="M342.715 118.871H337.871V123.715H342.715V118.871Z" fill="#30485F"/>
<path d="M371.414 111V131.586H392V111H371.414ZM387.156 126.742H376.258V115.844H387.156V126.742Z" fill="#30485F"/>
<path d="M384.129 118.871H379.285V123.715H384.129V118.871Z" fill="#30485F"/>
<path d="M330 152.414V173H350.586V152.414H330ZM345.742 168.156H334.844V157.258H345.742V168.156Z" fill="#30485F"/>
<path d="M342.715 160.285H337.871V165.129H342.715V160.285Z" fill="#30485F"/>
<path d="M339.688 134.855H334.844V139.699H339.688V134.855Z" fill="#30485F"/>
<path d="M344.531 144.543V139.699H339.688V144.543H344.41V149.387H349.254V144.543H344.531Z" fill="#30485F"/>
<path d="M368.75 120.324H363.906V125.168H368.75V120.324Z" fill="#30485F"/>
<path d="M359.062 115.844H354.219V125.168H359.062V115.844Z" fill="#30485F"/>
<path d="M363.906 111H359.062V115.844H363.906V111Z" fill="#30485F"/>
<path d="M359.062 125.168V130.012H354.219V134.855H363.906V125.168H359.062Z" fill="#30485F"/>
<path d="M363.906 153.988V149.266H359.062V139.699H354.219V149.387H359.062V154.109H363.906V158.832H373.594V153.988H363.906Z" fill="#30485F"/>
<path d="M368.75 134.855H363.906V144.543H368.75V134.855Z" fill="#30485F"/>
<path d="M387.156 139.578V134.855H378.316V139.699H373.594V144.543H378.438V149.266H392V139.578H387.156ZM387.156 144.422H378.438V139.699H387.156V144.422Z" fill="#30485F"/>
<path d="M392 153.988H387.156V163.676H392V153.988Z" fill="#30485F"/>
<path d="M373.594 144.543H368.75V149.387H373.594V144.543Z" fill="#30485F"/>
<path d="M378.438 158.832H373.594V163.676H378.438V158.832Z" fill="#30485F"/>
<path d="M383.281 153.988H378.438V158.832H383.281V153.988Z" fill="#30485F"/>
<path d="M378.438 163.676V173H383.281V168.52H387.156V163.676H378.438Z" fill="#30485F"/>
<path d="M359.062 154.109H354.219V163.312H359.062V154.109Z" fill="#30485F"/>
<path d="M368.75 168.156V163.312H359.062V173H363.906V168.156H368.629V173H373.473V168.156H368.75Z" fill="#30485F"/>
<path d="M354.219 134.855H344.531V139.699H354.219V134.855Z" fill="#30485F"/>
<path d="M334.844 139.699H330V149.387H334.844V139.699Z" fill="#30485F"/>
</g>
<g filter="url(#filter3_d)">
<rect x="447" y="27" width="160.273" height="322" rx="13" fill="white" stroke="black" stroke-width="4"/>
<rect x="492.117" y="336.992" width="70.0391" height="3.82031" rx="1.91016" fill="#C4C4C4"/>
<path d="M488.297 25H567.25V27.7344C567.25 33.2572 562.773 37.7344 557.25 37.7344H498.297C492.774 37.7344 488.297 33.2572 488.297 27.7344V25Z" fill="black"/>
<rect x="456" y="198" width="142" height="30" rx="15" fill="#0F8DFF"/>
<path d="M523.1 214.823H526.21V216H521.635V208.891H523.1V214.823ZM528.451 216H527.035V208.5H528.451V216ZM532.68 216C532.615 215.873 532.567 215.715 532.538 215.526C532.196 215.907 531.752 216.098 531.205 216.098C530.688 216.098 530.258 215.948 529.916 215.648C529.577 215.349 529.408 214.971 529.408 214.516C529.408 213.956 529.615 213.526 530.028 213.227C530.445 212.927 531.046 212.776 531.83 212.772H532.479V212.47C532.479 212.226 532.416 212.03 532.289 211.884C532.165 211.737 531.968 211.664 531.698 211.664C531.461 211.664 531.273 211.721 531.137 211.835C531.003 211.949 530.937 212.105 530.937 212.304H529.525C529.525 211.998 529.62 211.715 529.809 211.454C529.997 211.194 530.264 210.99 530.609 210.844C530.954 210.694 531.342 210.619 531.771 210.619C532.423 210.619 532.938 210.784 533.319 211.112C533.703 211.438 533.896 211.897 533.896 212.489V214.779C533.899 215.281 533.969 215.66 534.105 215.917V216H532.68ZM531.513 215.019C531.721 215.019 531.913 214.973 532.089 214.882C532.265 214.787 532.395 214.662 532.479 214.506V213.598H531.952C531.246 213.598 530.87 213.842 530.824 214.33L530.819 214.413C530.819 214.589 530.881 214.734 531.005 214.848C531.129 214.962 531.298 215.019 531.513 215.019ZM536.303 210.717L536.347 211.308C536.721 210.849 537.227 210.619 537.865 210.619C538.546 210.619 539.013 210.888 539.267 211.425C539.638 210.888 540.167 210.619 540.854 210.619C541.426 210.619 541.853 210.787 542.133 211.122C542.413 211.454 542.553 211.955 542.553 212.626V216H541.137V212.631C541.137 212.331 541.078 212.113 540.961 211.977C540.844 211.837 540.637 211.767 540.341 211.767C539.918 211.767 539.625 211.968 539.462 212.372L539.467 216H538.056V212.636C538.056 212.33 537.995 212.108 537.875 211.972C537.755 211.835 537.549 211.767 537.26 211.767C536.859 211.767 536.57 211.933 536.391 212.265V216H534.979V210.717H536.303ZM546.703 216C546.638 215.873 546.591 215.715 546.562 215.526C546.22 215.907 545.775 216.098 545.229 216.098C544.711 216.098 544.281 215.948 543.939 215.648C543.601 215.349 543.432 214.971 543.432 214.516C543.432 213.956 543.638 213.526 544.052 213.227C544.468 212.927 545.069 212.776 545.854 212.772H546.503V212.47C546.503 212.226 546.439 212.03 546.312 211.884C546.189 211.737 545.992 211.664 545.722 211.664C545.484 211.664 545.297 211.721 545.16 211.835C545.027 211.949 544.96 212.105 544.96 212.304H543.549C543.549 211.998 543.643 211.715 543.832 211.454C544.021 211.194 544.288 210.99 544.633 210.844C544.978 210.694 545.365 210.619 545.795 210.619C546.446 210.619 546.962 210.784 547.343 211.112C547.727 211.438 547.919 211.897 547.919 212.489V214.779C547.922 215.281 547.992 215.66 548.129 215.917V216H546.703ZM545.536 215.019C545.744 215.019 545.937 214.973 546.112 214.882C546.288 214.787 546.418 214.662 546.503 214.506V213.598H545.976C545.269 213.598 544.893 213.842 544.848 214.33L544.843 214.413C544.843 214.589 544.905 214.734 545.028 214.848C545.152 214.962 545.321 215.019 545.536 215.019ZM551.972 212.04C551.78 212.014 551.61 212.001 551.464 212.001C550.93 212.001 550.58 212.182 550.414 212.543V216H549.003V210.717H550.336L550.375 211.347C550.658 210.862 551.05 210.619 551.552 210.619C551.708 210.619 551.854 210.64 551.991 210.683L551.972 212.04Z" fill="white"/>
<g clip-path="url(#clip2)">
<path d="M509.815 214.702C509.48 214.963 509.002 214.941 508.696 214.635L506.204 212.143C505.898 211.837 505.876 211.352 506.137 211.024L502.981 207.86C501.608 209.442 501.682 211.844 503.182 213.344L507.495 217.657C509.024 219.186 511.453 219.201 512.979 217.858L509.815 214.702Z" fill="white"/>
<path d="M506.92 208.643L505.339 207.054C504.921 206.636 504.182 206.636 503.757 207.054L503.496 207.322L506.659 210.486L506.92 210.225C507.137 210.008 507.249 209.732 507.249 209.434C507.249 209.135 507.137 208.852 506.92 208.643Z" fill="white"/>
<path d="M513.785 215.5L512.196 213.919C511.778 213.493 511.039 213.493 510.614 213.919L510.353 214.18L513.516 217.343L513.785 217.082C513.994 216.873 514.106 216.59 514.106 216.291C514.106 215.993 513.994 215.709 513.785 215.5Z" fill="white"/>
<path d="M508.39 206.102C507.899 206.102 507.897 206.843 508.39 206.843C511.476 206.843 513.991 209.358 513.991 212.444C513.991 212.936 514.733 212.938 514.733 212.444C514.733 208.947 511.888 206.102 508.39 206.102Z" fill="white"/>
<path d="M508.39 207.594C507.899 207.594 507.897 208.335 508.39 208.335C510.653 208.335 512.499 210.181 512.499 212.444C512.499 212.936 513.24 212.938 513.24 212.444C513.24 209.77 511.065 207.594 508.39 207.594Z" fill="white"/>
<path d="M508.39 209.086C507.899 209.086 507.897 209.828 508.39 209.828C509.83 209.828 511.007 211.004 511.007 212.444C511.007 212.936 511.748 212.938 511.748 212.444C511.748 210.593 510.242 209.086 508.39 209.086Z" fill="white"/>
<path d="M508.39 210.579C507.899 210.579 507.897 211.325 508.39 211.325C509.008 211.325 509.51 211.827 509.51 212.444C509.51 212.936 510.256 212.938 510.256 212.444C510.256 211.415 509.419 210.579 508.39 210.579Z" fill="white"/>
</g>
<rect x="456" y="156" width="142" height="30" rx="15" fill="#29DA65"/>
<path d="M520.172 171.949L521.129 166.891H522.589L521.012 174H519.537L518.38 169.244L517.223 174H515.748L514.171 166.891H515.631L516.593 171.939L517.765 166.891H519.005L520.172 171.949ZM524.669 169.293C525.043 168.844 525.514 168.619 526.08 168.619C527.226 168.619 527.807 169.285 527.823 170.616V174H526.412V170.655C526.412 170.353 526.347 170.13 526.217 169.986C526.087 169.84 525.87 169.767 525.567 169.767C525.154 169.767 524.854 169.926 524.669 170.245V174H523.258V166.5H524.669V169.293ZM531.949 174C531.884 173.873 531.837 173.715 531.808 173.526C531.466 173.907 531.021 174.098 530.475 174.098C529.957 174.098 529.527 173.948 529.186 173.648C528.847 173.349 528.678 172.971 528.678 172.516C528.678 171.956 528.884 171.526 529.298 171.227C529.715 170.927 530.315 170.776 531.1 170.772H531.749V170.47C531.749 170.226 531.686 170.03 531.559 169.884C531.435 169.737 531.238 169.664 530.968 169.664C530.73 169.664 530.543 169.721 530.406 169.835C530.273 169.949 530.206 170.105 530.206 170.304H528.795C528.795 169.998 528.889 169.715 529.078 169.454C529.267 169.194 529.534 168.99 529.879 168.844C530.224 168.694 530.611 168.619 531.041 168.619C531.692 168.619 532.208 168.784 532.589 169.112C532.973 169.438 533.165 169.897 533.165 170.489V172.779C533.168 173.281 533.238 173.66 533.375 173.917V174H531.949ZM530.782 173.019C530.991 173.019 531.183 172.973 531.358 172.882C531.534 172.787 531.664 172.662 531.749 172.506V171.598H531.222C530.515 171.598 530.139 171.842 530.094 172.33L530.089 172.413C530.089 172.589 530.151 172.734 530.274 172.848C530.398 172.962 530.567 173.019 530.782 173.019ZM535.938 167.418V168.717H536.842V169.752H535.938V172.389C535.938 172.584 535.976 172.724 536.051 172.809C536.126 172.893 536.269 172.936 536.48 172.936C536.637 172.936 536.775 172.924 536.896 172.901V173.971C536.619 174.055 536.334 174.098 536.041 174.098C535.051 174.098 534.547 173.598 534.527 172.599V169.752H533.756V168.717H534.527V167.418H535.938ZM540.489 172.54C540.489 172.368 540.403 172.232 540.23 172.135C540.061 172.034 539.788 171.944 539.41 171.866C538.154 171.603 537.525 171.069 537.525 170.265C537.525 169.796 537.719 169.405 538.106 169.093C538.497 168.777 539.007 168.619 539.635 168.619C540.305 168.619 540.841 168.777 541.241 169.093C541.645 169.409 541.847 169.819 541.847 170.323H540.436C540.436 170.121 540.37 169.955 540.24 169.825C540.11 169.692 539.907 169.625 539.63 169.625C539.392 169.625 539.208 169.679 539.078 169.786C538.948 169.894 538.883 170.03 538.883 170.196C538.883 170.353 538.956 170.479 539.103 170.577C539.252 170.672 539.503 170.755 539.854 170.826C540.206 170.895 540.502 170.973 540.743 171.061C541.489 171.334 541.861 171.808 541.861 172.481C541.861 172.963 541.655 173.354 541.241 173.653C540.828 173.95 540.294 174.098 539.64 174.098C539.197 174.098 538.803 174.02 538.458 173.863C538.116 173.704 537.848 173.487 537.652 173.214C537.457 172.937 537.359 172.639 537.359 172.32H538.697C538.71 172.571 538.803 172.763 538.976 172.896C539.148 173.03 539.379 173.097 539.669 173.097C539.939 173.097 540.143 173.046 540.279 172.945C540.419 172.841 540.489 172.706 540.489 172.54ZM545.836 174C545.771 173.873 545.724 173.715 545.694 173.526C545.353 173.907 544.908 174.098 544.361 174.098C543.844 174.098 543.414 173.948 543.072 173.648C542.734 173.349 542.564 172.971 542.564 172.516C542.564 171.956 542.771 171.526 543.185 171.227C543.601 170.927 544.202 170.776 544.986 170.772H545.636V170.47C545.636 170.226 545.572 170.03 545.445 169.884C545.322 169.737 545.125 169.664 544.854 169.664C544.617 169.664 544.43 169.721 544.293 169.835C544.16 169.949 544.093 170.105 544.093 170.304H542.682C542.682 169.998 542.776 169.715 542.965 169.454C543.154 169.194 543.421 168.99 543.766 168.844C544.111 168.694 544.498 168.619 544.928 168.619C545.579 168.619 546.095 168.784 546.476 169.112C546.86 169.438 547.052 169.897 547.052 170.489V172.779C547.055 173.281 547.125 173.66 547.262 173.917V174H545.836ZM544.669 173.019C544.877 173.019 545.069 172.973 545.245 172.882C545.421 172.787 545.551 172.662 545.636 172.506V171.598H545.108C544.402 171.598 544.026 171.842 543.98 172.33L543.976 172.413C543.976 172.589 544.037 172.734 544.161 172.848C544.285 172.962 544.454 173.019 544.669 173.019ZM552.892 171.407C552.892 172.221 552.706 172.874 552.335 173.365C551.967 173.854 551.469 174.098 550.841 174.098C550.307 174.098 549.876 173.912 549.547 173.541V176.031H548.136V168.717H549.444L549.493 169.234C549.835 168.824 550.281 168.619 550.831 168.619C551.482 168.619 551.988 168.86 552.35 169.342C552.711 169.824 552.892 170.488 552.892 171.334V171.407ZM551.48 171.305C551.48 170.813 551.393 170.434 551.217 170.167C551.044 169.9 550.792 169.767 550.46 169.767C550.017 169.767 549.713 169.936 549.547 170.274V172.438C549.719 172.786 550.027 172.96 550.47 172.96C551.144 172.96 551.48 172.408 551.48 171.305ZM558.526 171.407C558.526 172.221 558.341 172.874 557.97 173.365C557.602 173.854 557.104 174.098 556.476 174.098C555.942 174.098 555.51 173.912 555.182 173.541V176.031H553.771V168.717H555.079L555.128 169.234C555.47 168.824 555.916 168.619 556.466 168.619C557.117 168.619 557.623 168.86 557.984 169.342C558.346 169.824 558.526 170.488 558.526 171.334V171.407ZM557.115 171.305C557.115 170.813 557.027 170.434 556.852 170.167C556.679 169.9 556.427 169.767 556.095 169.767C555.652 169.767 555.348 169.936 555.182 170.274V172.438C555.354 172.786 555.662 172.96 556.104 172.96C556.778 172.96 557.115 172.408 557.115 171.305Z" fill="white"/>
<path d="M501.369 164.078H501.366C497.855 164.078 495 166.934 495 170.445C495 171.838 495.449 173.129 496.212 174.177L495.419 176.543L497.866 175.76C498.873 176.427 500.074 176.812 501.369 176.812C504.879 176.812 507.734 173.956 507.734 170.445C507.734 166.935 504.879 164.078 501.369 164.078ZM505.074 173.069C504.92 173.503 504.31 173.863 503.824 173.968C503.491 174.039 503.057 174.095 501.594 173.489C499.723 172.714 498.518 170.812 498.424 170.689C498.334 170.565 497.668 169.682 497.668 168.768C497.668 167.855 498.132 167.41 498.319 167.219C498.473 167.062 498.726 166.99 498.97 166.99C499.049 166.99 499.12 166.994 499.183 166.997C499.37 167.005 499.464 167.017 499.588 167.312C499.741 167.682 500.115 168.596 500.16 168.69C500.205 168.783 500.251 168.911 500.187 169.034C500.127 169.162 500.075 169.218 499.981 169.326C499.887 169.435 499.798 169.517 499.704 169.633C499.618 169.735 499.521 169.843 499.629 170.03C499.737 170.213 500.111 170.823 500.662 171.314C501.373 171.946 501.949 172.149 502.155 172.234C502.309 172.298 502.492 172.283 502.604 172.164C502.746 172.01 502.922 171.755 503.101 171.505C503.229 171.325 503.39 171.302 503.558 171.366C503.73 171.426 504.64 171.876 504.827 171.969C505.014 172.063 505.137 172.107 505.183 172.186C505.227 172.265 505.227 172.635 505.074 173.069Z" fill="white"/>
<g clip-path="url(#clip3)">
<path d="M597.665 45.8412C598.286 46.4629 598.286 47.4707 597.665 48.0924C597.043 48.714 596.035 48.714 595.413 48.0924C594.792 47.4707 594.792 46.4629 595.413 45.8412C596.035 45.2196 597.043 45.2196 597.665 45.8412Z" fill="#97A3AF"/>
<path d="M597.665 50.6166C598.286 51.2382 598.286 52.2461 597.665 52.8677C597.043 53.4894 596.035 53.4894 595.413 52.8677C594.792 52.2461 594.792 51.2382 595.413 50.6166C596.035 49.995 597.043 49.995 597.665 50.6166Z" fill="#97A3AF"/>
<path d="M597.665 55.392C598.286 56.0136 598.286 57.0215 597.665 57.6431C597.043 58.2648 596.035 58.2648 595.413 57.6431C594.792 57.0215 594.792 56.0136 595.413 55.392C596.035 54.7704 597.043 54.7704 597.665 55.392Z" fill="#97A3AF"/>
</g>
<rect x="476.836" y="45.375" width="109.516" height="12.7344" fill="#F5F5F5"/>
<g clip-path="url(#clip4)">
<path d="M469.195 50.8326H460.099L463.283 47.6491L461.919 46.2847L456.461 51.7422L461.919 57.1998L463.283 55.8354L460.099 52.6518H469.195V50.8326Z" fill="#97A3AF"/>
</g>
</g>
<defs>
<filter id="filter0_d" x="0" y="47" width="516" height="312" filterUnits="userSpaceOnUse" color-interpolation-filters="sRGB">
<feFlood flood-opacity="0" result="BackgroundImageFix"/>
<feColorMatrix in="SourceAlpha" type="matrix" values="0 0 0 0 0 0 0 0 0 0 0 0 0 0 0 0 0 0 127 0"/>
<feOffset dy="4"/>
<feGaussianBlur stdDeviation="5"/>
<feColorMatrix type="matrix" values="0 0 0 0 0 0 0 0 0 0 0 0 0 0 0 0 0 0 0.25 0"/>
<feBlend mode="normal" in2="BackgroundImageFix" result="effect1_dropShadow"/>
<feBlend mode="normal" in="SourceGraphic" in2="effect1_dropShadow" result="shape"/>
</filter>
<filter id="filter1_d" x="213" y="0" width="300" height="315" filterUnits="userSpaceOnUse" color-interpolation-filters="sRGB">
<feFlood flood-opacity="0" result="BackgroundImageFix"/>
<feColorMatrix in="SourceAlpha" type="matrix" values="0 0 0 0 0 0 0 0 0 0 0 0 0 0 0 0 0 0 127 0"/>
<feOffset dy="4"/>
<feGaussianBlur stdDeviation="5"/>
<feColorMatrix type="matrix" values="0 0 0 0 0 0 0 0 0 0 0 0 0 0 0 0 0 0 0.25 0"/>
<feBlend mode="normal" in2="BackgroundImageFix" result="effect1_dropShadow"/>
<feBlend mode="normal" in="SourceGraphic" in2="effect1_dropShadow" result="shape"/>
</filter>
<filter id="filter2_d" x="267" y="57" width="188" height="178" filterUnits="userSpaceOnUse" color-interpolation-filters="sRGB">
<feFlood flood-opacity="0" result="BackgroundImageFix"/>
<feColorMatrix in="SourceAlpha" type="matrix" values="0 0 0 0 0 0 0 0 0 0 0 0 0 0 0 0 0 0 127 0"/>
<feOffset dy="4"/>
<feGaussianBlur stdDeviation="5"/>
<feColorMatrix type="matrix" values="0 0 0 0 0 0 0 0 0 0 0 0 0 0 0 0 0 0 0.25 0"/>
<feBlend mode="normal" in2="BackgroundImageFix" result="effect1_dropShadow"/>
<feBlend mode="normal" in="SourceGraphic" in2="effect1_dropShadow" result="shape"/>
</filter>
<filter id="filter3_d" x="435" y="19" width="184.273" height="346" filterUnits="userSpaceOnUse" color-interpolation-filters="sRGB">
<feFlood flood-opacity="0" result="BackgroundImageFix"/>
<feColorMatrix in="SourceAlpha" type="matrix" values="0 0 0 0 0 0 0 0 0 0 0 0 0 0 0 0 0 0 127 0"/>
<feOffset dy="4"/>
<feGaussianBlur stdDeviation="5"/>
<feColorMatrix type="matrix" values="0 0 0 0 0 0 0 0 0 0 0 0 0 0 0 0 0 0 0.25 0"/>
<feBlend mode="normal" in2="BackgroundImageFix" result="effect1_dropShadow"/>
<feBlend mode="normal" in="SourceGraphic" in2="effect1_dropShadow" result="shape"/>
</filter>
<clipPath id="clip0">
<rect width="10" height="10" fill="white" transform="translate(75 74)"/>
</clipPath>
<clipPath id="clip1">
<rect width="30.3686" height="30.3686" fill="white" transform="translate(385.334 215.551) rotate(-10)"/>
</clipPath>
<clipPath id="clip2">
<rect width="12.7344" height="12.7344" fill="white" transform="translate(502 206.102)"/>
</clipPath>
<clipPath id="clip3">
<rect width="12.7344" height="12.7344" fill="white" transform="translate(590.172 45.375)"/>
</clipPath>
<clipPath id="clip4">
<rect width="12.7344" height="12.7344" fill="white" transform="translate(456.461 45.375)"/>
</clipPath>
</defs>
</svg>
