<svg width="236" height="204" viewBox="0 0 236 204" fill="none" xmlns="http://www.w3.org/2000/svg">
<g clip-path="url(#clip0)">
<path opacity="0.18" d="M202.48 131.439C198.134 136.598 192.854 140.978 189.151 146.626C184.805 153.241 182.889 161.141 179.928 168.502C178.67 171.772 177.037 174.885 175.063 177.779C174.056 179.203 172.937 180.544 171.716 181.79C161.635 192.133 145.589 195.446 130.863 197.051C111.113 199.202 91.2243 199.802 71.3804 198.847C62.6714 198.432 54.7296 197.014 46.4975 199.216C38.4645 201.36 29.855 197.499 23.3731 192.966C14.7346 186.928 7.37339 178.791 3.31749 169.062C-0.738415 159.333 -1.27754 147.953 2.93595 138.286C8.71707 125.015 22.3404 116.505 28.4243 103.371C31.4683 96.7941 32.4221 89.462 33.1769 82.2459C34.3934 70.5482 35.2035 58.8104 35.6071 47.0326C35.8725 39.182 35.997 31.1117 39.041 23.8749C44.0175 11.9892 56.235 4.38337 68.8174 1.60893C81.3998 -1.1655 94.4799 0.182318 107.282 1.65041C129.167 4.15113 151.3 7.07486 171.716 15.3484L172.193 15.5392C173.815 16.2027 175.469 16.9285 176.66 18.2099C178.688 20.3789 178.949 23.6012 179.583 26.5042C179.687 26.9728 179.799 27.4332 179.928 27.8935C183.59 41.2888 196.442 50.1429 204.765 61.448C219.707 81.7027 218.72 112.184 202.48 131.439Z" fill="#A500FF"/>
<path d="M54.6135 175.876H48.6665V198.287H54.6135V175.876Z" fill="#3F3D56"/>
<path d="M94.5175 150.607C94.5175 150.607 106.864 153.693 109.609 157.811C112.354 161.929 98.9757 199.656 98.9757 199.656L80.1104 198.971L85.597 166.719L94.5175 150.607Z" fill="#A500FF"/>
<path d="M94.5175 150.607C94.5175 150.607 106.864 153.693 109.609 157.811C112.354 161.929 98.9757 199.656 98.9757 199.656L80.1104 198.971L85.597 166.719L94.5175 150.607Z" fill="url(#paint0_linear)"/>
<path d="M179.928 27.8606V168.503C178.67 171.772 177.037 174.886 175.063 177.78C174.056 179.203 172.937 180.544 171.716 181.79V15.3486L172.193 15.5394C173.815 16.2029 175.469 16.9287 176.66 18.2102C178.688 20.3791 178.949 23.6014 179.583 26.5044C179.687 26.9606 179.799 27.4002 179.928 27.8606Z" fill="#A500FF"/>
<path d="M179.928 27.8606V168.503C178.67 171.772 177.037 174.886 175.063 177.78C174.056 179.203 172.937 180.544 171.716 181.79V15.3486L172.193 15.5394C173.815 16.2029 175.469 16.9287 176.66 18.2102C178.688 20.3791 178.949 23.6014 179.583 26.5044C179.687 26.9606 179.799 27.4002 179.928 27.8606Z" fill="url(#paint1_linear)"/>
<path d="M22.8922 143.91C20.9887 146.261 20.209 149.368 20.1427 152.395C19.9436 161.867 26.3634 170.51 34.442 175.482C42.5207 180.455 52.0384 182.383 61.3984 183.967C67.5196 185.004 74.1468 185.858 79.6459 183.001C81.7194 181.931 83.5898 180.247 84.2368 178.024C85.4021 174.01 82.3083 170.099 79.2602 167.242C71.0121 159.461 61.5194 153.117 51.1757 148.472C44.4408 145.461 28.748 136.681 22.8922 143.91Z" fill="#3F3D56"/>
<path d="M22.8922 143.91C20.9887 146.261 20.209 149.368 20.1427 152.395C19.9436 161.867 26.3634 170.51 34.442 175.482C42.5207 180.455 52.0384 182.383 61.3984 183.967C67.5196 185.004 74.1468 185.858 79.6459 183.001C81.7194 181.931 83.5898 180.247 84.2368 178.024C85.4021 174.01 82.3083 170.099 79.2602 167.242C71.0121 159.461 61.5194 153.117 51.1757 148.472C44.4408 145.461 28.748 136.681 22.8922 143.91Z" fill="url(#paint2_linear)"/>
<path d="M130.863 197.051L124.248 198.187L113.727 200L86.6292 169.472C86.6292 169.472 43.1755 173.13 36.7765 160.324C33.3924 153.56 33.7117 143.735 34.7609 135.972C35.3234 131.844 36.1546 127.757 37.2492 123.738C37.2492 123.738 52.801 132.426 72.0106 135.628C91.2201 138.829 130.863 197.051 130.863 197.051Z" fill="#60347B"/>
<path d="M124.248 198.188L113.727 200L86.6292 169.473C86.6292 169.473 43.1755 173.131 36.7765 160.324C33.3924 153.56 33.7117 143.736 34.7609 135.972C37.7469 139.29 53.5931 155.878 71.0774 154.609C92.7836 153.034 113.457 180.741 124.248 198.188Z" fill="#60347B"/>
<path d="M104.827 44.0053C104.717 45.358 104.153 46.6338 103.226 47.6258C102.476 48.3904 101.665 49.0923 100.8 49.7242C99.185 51.0132 97.6964 52.4533 96.3545 54.0248C96.3545 52.4033 96.3545 50.7569 96.8024 49.1975C97.0601 48.486 97.2775 47.7605 97.4535 47.0244C97.6857 45.6808 97.3125 44.2832 97.5696 42.9436C97.7543 42.1591 98.0593 41.4079 98.4737 40.7166C98.8303 40.0655 99.2533 39.3854 99.9335 39.091C100.233 38.9762 100.554 38.9251 100.874 38.9408C101.195 38.9565 101.508 39.0387 101.796 39.1822C103.595 40.0116 104.943 42.0188 104.827 44.0053Z" fill="#3F3D56"/>
<path d="M104.827 44.0053C104.717 45.358 104.153 46.6338 103.226 47.6258C102.476 48.3904 101.665 49.0923 100.8 49.7242C99.185 51.0132 97.6964 52.4533 96.3545 54.0248C96.3545 52.4033 96.3545 50.7569 96.8024 49.1975C97.0601 48.486 97.2775 47.7605 97.4535 47.0244C97.6857 45.6808 97.3125 44.2832 97.5696 42.9436C97.7543 42.1591 98.0593 41.4079 98.4737 40.7166C98.8303 40.0655 99.2533 39.3854 99.9335 39.091C100.233 38.9762 100.554 38.9251 100.874 38.9408C101.195 38.9565 101.508 39.0387 101.796 39.1822C103.595 40.0116 104.943 42.0188 104.827 44.0053Z" fill="url(#paint3_linear)"/>
<path d="M103.388 39.9867C103.915 38.9043 104.217 37.6353 103.803 36.5031C103.792 36.444 103.77 36.3876 103.737 36.3374C103.704 36.2872 103.662 36.2442 103.611 36.2112C103.561 36.1782 103.505 36.1558 103.446 36.1453C103.387 36.1349 103.326 36.1367 103.268 36.1506C101.114 36.1946 99.0246 36.8949 97.2793 38.1578C98.272 38.9231 99.0623 39.9198 99.581 41.0608C99.8793 41.7701 100.021 42.5354 99.9957 43.3044C99.9957 43.4662 99.8339 44.0841 99.9708 44.1588C100.108 44.2334 100.58 43.6984 100.68 43.5947C101.766 42.541 102.679 41.3236 103.388 39.9867Z" fill="#2B2A44"/>
<path d="M103.388 39.9867C103.915 38.9043 104.217 37.6353 103.803 36.5031C103.792 36.444 103.77 36.3876 103.737 36.3374C103.704 36.2872 103.662 36.2442 103.611 36.2112C103.561 36.1782 103.505 36.1558 103.446 36.1453C103.387 36.1349 103.326 36.1367 103.268 36.1506C101.114 36.1946 99.0246 36.8949 97.2793 38.1578C98.272 38.9231 99.0623 39.9198 99.581 41.0608C99.8793 41.7701 100.021 42.5354 99.9957 43.3044C99.9957 43.4662 99.8339 44.0841 99.9708 44.1588C100.108 44.2334 100.58 43.6984 100.68 43.5947C101.766 42.541 102.679 41.3236 103.388 39.9867Z" fill="url(#paint4_linear)"/>
<path d="M122.983 102.7L69.2446 145.917L200.278 146.145L174.665 101.783L122.983 102.7Z" fill="#EA13A2"/>
<path d="M132.36 105.748L149.894 105.594L148.977 111.691L130.224 110.932L132.36 105.748Z" fill="#A500FF"/>
<path d="M182.976 77.543L167.121 124.804L114.067 125.716L118.998 118.135L120.317 116.116L135.072 115.858L164.376 115.352L177.941 76.3237L182.976 77.543Z" fill="#A500FF"/>
<path d="M144.221 117.783L138.975 117.488C138.619 117.44 138.257 117.481 137.921 117.609C137.594 117.819 137.312 118.093 137.092 118.413C136.259 119.308 135.146 119.893 133.936 120.072C132.735 120.251 131.517 120.287 130.307 120.18C128.995 120.161 127.69 119.989 126.417 119.67C125.555 119.421 124.738 119.044 123.892 118.749C122.32 118.21 120.656 117.993 118.998 118.111L120.313 116.087L135.072 115.83C135.52 115.921 135.976 116 136.437 116.066C138.27 116.319 140.14 116.261 141.973 116.514C142.869 116.663 143.881 116.953 144.221 117.783Z" fill="url(#paint5_linear)"/>
<path d="M145.664 115.394C145.664 115.394 144.864 117.182 144.1 116.879C143.337 116.576 138.61 114.594 138.61 114.594C138.131 115.212 137.511 115.706 136.802 116.033C136.032 116.414 135.198 116.649 134.342 116.726C131.294 117.028 122.759 115.506 122.759 115.506L87.3883 118.098L79.459 110.936L80.1184 91.4819L80.5829 77.7632L93.3353 106.208C93.3353 106.208 130.726 107.921 136.557 110.667C142.388 113.412 145.664 115.394 145.664 115.394Z" fill="#FDBAAC"/>
<path d="M136.802 116.033C136.032 116.414 135.198 116.648 134.342 116.725C131.294 117.028 122.759 115.506 122.759 115.506L87.3883 118.098L79.459 110.936L80.1184 91.4814L87.8445 108.721C87.8445 108.721 125.235 110.438 131.066 113.179C133.405 114.278 135.329 115.257 136.802 116.033Z" fill="#F7AD7E"/>
<path d="M81.035 78.2231C81.0765 78.5798 81.1221 78.9364 81.1843 79.2889C81.7359 82.4947 84.6181 99.2864 85.2402 103.135C85.8125 106.648 82.2584 113.154 80.9935 115.323C80.6867 115.85 80.4046 116.393 80.1641 116.945L73.5287 131.427C71.539 135.76 67.9683 139.168 63.5475 140.955C59.1268 142.741 54.1904 142.77 49.749 141.036V141.036C45.2138 139.267 41.5476 135.799 39.5301 131.369C37.5126 126.939 37.3029 121.896 38.9457 117.314C45.4111 99.2657 55.244 73.0226 58.8769 69.7256C64.4008 64.6993 79.0651 61.6677 81.035 78.2231Z" fill="#A500FF"/>
<path d="M82.3953 67.2541C82.3953 67.2541 77.4187 69.7715 78.8536 74.972C80.2885 80.1725 69.705 68.3366 69.705 68.3366C69.705 68.3366 68.3323 60.3326 76.5644 61.021C84.7965 61.7094 82.3953 67.2541 82.3953 67.2541Z" fill="#FDBAAC"/>
<path d="M70.3354 69.0828C70.3354 69.0828 71.9362 65.9392 73.2384 65.255C74.5406 64.5707 77.1823 64.4546 77.3523 66.7977C77.5343 68.4643 77.9388 70.099 78.555 71.6581C78.555 71.6581 80.8401 68.0543 82.3828 67.2539C82.3828 67.2539 78.0408 64.2804 76.8381 62.3976C75.6354 60.5148 70.9491 63.9984 70.9491 63.9984C70.9491 63.9984 68.9046 67.6022 70.3354 69.0828Z" fill="#FDBAAC"/>
<path d="M99.249 47.3228C98.486 50.0309 96.9723 52.7472 97.6151 55.4843C97.7909 56.0255 97.9213 56.5804 98.0049 57.1432C98.0408 57.4275 97.9975 57.7163 97.8797 57.9776C97.7618 58.2388 97.5741 58.4624 97.3372 58.6237C97.0594 58.7404 96.766 58.8158 96.4663 58.8477C94.3927 59.2624 93.1486 61.3857 92.3192 63.339C91.4897 65.2923 90.5649 67.4862 88.6199 68.3156C86.9859 69.0413 85.0617 68.5935 83.4443 67.8345C80.716 66.5119 78.3929 64.481 76.7176 61.9539C75.8002 60.6768 75.1525 59.2262 74.8141 57.6906C74.615 56.4289 74.6025 55.1448 74.7768 53.8794C75.1317 50.0723 76.3226 46.3905 78.2645 43.0968C80.2259 39.8011 83.1595 37.1934 86.6625 35.632C87.6248 35.1905 88.6532 34.9103 89.7065 34.8026C91.8049 34.645 93.8826 35.4661 95.6037 36.6812C96.9349 37.6185 99.2947 39.3105 99.7508 40.9569C100.269 42.8439 99.7674 45.498 99.249 47.3228Z" fill="#FDBAAC"/>
<path d="M93.9158 41.0606C90.2035 44.7795 87.0179 48.9892 84.4479 53.5725C83.3448 55.5424 82.3453 57.5994 80.8938 59.3246C79.0648 61.4872 76.6128 63.0326 73.8727 63.7496C73.292 63.8567 72.7321 64.0555 72.2138 64.3385C71.0319 65.0974 70.7914 66.6899 70.0739 67.8926C69.1367 69.4685 67.3534 70.3808 65.566 70.7707C63.7785 71.1605 61.9289 71.1854 60.1083 71.401C53.4065 72.2305 48.8198 93.7127 45.6307 99.668C46.0122 96.6696 36.0259 88.537 45.1786 73.458C46.0081 72.0853 45.5933 70.2067 45.0542 68.6888C44.4238 66.8807 42.7857 65.1803 43.358 63.3514C43.6809 62.5323 44.2637 61.8417 45.0169 61.3857C47.9199 59.3495 51.756 58.7108 54.3106 56.235C54.1572 56.7036 53.3983 56.6497 53.1162 56.264C53.0007 56.0465 52.9318 55.8073 52.914 55.5616C52.8961 55.316 52.9297 55.0693 53.0126 54.8374C53.6554 52.1708 55.5009 49.9437 57.5205 48.1107C59.5402 46.2777 61.846 44.7266 63.8076 42.8107C62.439 42.2798 61.9704 40.4385 62.5178 39.0782C63.0652 37.718 64.326 36.7849 65.6116 36.084C66.8972 35.3831 68.2865 34.8399 69.4104 33.8985C70.6545 32.8534 71.4839 31.4102 72.6203 30.2199C74.3952 28.3537 76.8089 27.2506 79.1727 26.2263C80.6074 25.5438 82.1218 25.0437 83.6807 24.7374C85.447 24.4931 87.2453 24.6346 88.9517 25.1521C93.5135 26.4668 97.246 29.6684 100.717 32.8658C101.522 33.5999 102.318 34.3381 103.114 35.0845C103.529 35.4993 103.998 35.9803 103.906 36.5568C103.815 37.1332 100.083 36.8968 99.3029 37.1871C97.2086 37.9627 95.4586 39.4929 93.9158 41.0606Z" fill="#3F3D56"/>
<path opacity="0.69" d="M164.375 115.352L166.586 124.041L181.905 77.3937L177.941 76.3237L164.375 115.352Z" fill="url(#paint6_linear)"/>
<path opacity="0.69" d="M165.521 112.135L167.412 119.583L180.546 79.6004L177.145 78.688L165.521 112.135Z" fill="url(#paint7_linear)"/>
<path d="M140.517 116.725L138.917 123.431L142.574 123.278L143.109 116.874L140.517 116.725Z" fill="white"/>
<path d="M157.4 116.646L158.943 116.705L159.918 122.652H158.085L157.4 116.646Z" fill="white"/>
<path d="M153.971 116.617H156.343L157.284 122.631L154.464 122.593L153.971 116.617Z" fill="white"/>
<path d="M150.694 116.725H153.133L153.436 122.668H150.541L150.694 116.725Z" fill="white"/>
<path d="M147.302 116.8L149.778 116.762L149.969 122.937H147.033L147.302 116.8Z" fill="white"/>
<path d="M144.1 116.874L146.269 116.915L146.194 123.086H143.528L144.1 116.874Z" fill="white"/>
<path d="M152.158 98.0133C152.158 98.0133 153.759 107.693 154.294 108.228L162.754 108.074C162.754 108.074 164.413 99.5394 164.202 98.3948L161.688 97.4824L152.158 98.0133Z" fill="#A500FF"/>
<path opacity="0.69" d="M153.685 98.8676C153.685 98.8676 154.983 107.481 155.518 108.016L162.754 108.074C162.754 108.074 164.413 99.5394 164.202 98.3948L161.689 97.4824L153.685 98.8676Z" fill="url(#paint8_linear)"/>
<path d="M162.754 108.074C162.754 108.074 164.413 99.5396 164.202 98.395Z" fill="#A500FF"/>
<path d="M151.229 94.9362C151.082 94.8732 150.962 94.7581 150.894 94.6127C150.79 94.2934 151.196 94.0487 151.524 93.9906C152.283 93.8629 153.063 93.9852 153.747 94.339C152.558 93.4524 151.494 92.4105 150.583 91.2411C151.609 91.46 152.58 91.8831 153.44 92.4852C153.695 91.9879 154.046 91.5463 154.473 91.186C154.9 90.8257 155.395 90.554 155.928 90.3867C157.001 90.0572 158.13 89.9499 159.246 90.0716C159.429 90.0598 159.613 90.0912 159.782 90.1632C159.952 90.2352 160.102 90.3459 160.22 90.4863C160.436 90.8471 160.22 91.3157 160.021 91.6682C160.162 91.3272 160.402 91.0368 160.711 90.8353C161.02 90.6339 161.382 90.531 161.751 90.5402C161.328 91.3254 160.867 92.0857 160.37 92.8211C161.025 92.3442 161.892 92.311 162.705 92.2944C162.829 92.2816 162.955 92.3061 163.065 92.3649C163.31 92.5474 163.144 92.9372 162.945 93.1695C162.116 94.1441 160.946 94.903 160.498 96.1057C160.32 96.7407 160.182 97.3861 160.084 98.0382C160.054 98.2156 159.975 98.381 159.856 98.5151C159.696 98.6402 159.502 98.7139 159.3 98.7266C157.969 98.9423 156.214 99.1414 155.182 98.1046C154.019 96.8687 152.689 95.8022 151.229 94.9362V94.9362Z" fill="#A500FF"/>
<path d="M151.229 94.9362C151.082 94.8732 150.962 94.7581 150.894 94.6127C150.79 94.2934 151.196 94.0487 151.524 93.9906C152.283 93.8629 153.063 93.9852 153.747 94.339C152.558 93.4524 151.494 92.4105 150.583 91.2411C151.609 91.46 152.58 91.8831 153.44 92.4852C153.695 91.9879 154.046 91.5463 154.473 91.186C154.9 90.8257 155.395 90.554 155.928 90.3867C157.001 90.0572 158.13 89.9499 159.246 90.0716C159.429 90.0598 159.613 90.0912 159.782 90.1632C159.952 90.2352 160.102 90.3459 160.22 90.4863C160.436 90.8471 160.22 91.3157 160.021 91.6682C160.162 91.3272 160.402 91.0368 160.711 90.8353C161.02 90.6339 161.382 90.531 161.751 90.5402C161.328 91.3254 160.867 92.0857 160.37 92.8211C161.025 92.3442 161.892 92.311 162.705 92.2944C162.829 92.2816 162.955 92.3061 163.065 92.3649C163.31 92.5474 163.144 92.9372 162.945 93.1695C162.116 94.1441 160.946 94.903 160.498 96.1057C160.32 96.7407 160.182 97.3861 160.084 98.0382C160.054 98.2156 159.975 98.381 159.856 98.5151C159.696 98.6402 159.502 98.7139 159.3 98.7266C157.969 98.9423 156.214 99.1414 155.182 98.1046C154.019 96.8687 152.689 95.8022 151.229 94.9362V94.9362Z" fill="url(#paint9_linear)"/>
<path d="M110.865 129.909L160.486 128.769L162.087 141.115L103.778 140.658L110.865 129.909Z" fill="#DEDEE0"/>
<path opacity="0.69" d="M109.949 129.109L159.573 127.968L161.174 140.314L102.861 139.858L109.949 129.109Z" fill="url(#paint10_linear)"/>
<path d="M105.607 91.1497L105.491 81.661L118.981 81.5449L115.896 107.842L107.78 107.958L105.035 99.0376L105.607 91.1497Z" fill="#A500FF"/>
<path d="M105.607 91.1497L105.491 81.661L118.981 81.5449L115.896 107.842L107.78 107.958L105.035 99.0376L105.607 91.1497Z" fill="url(#paint11_linear)"/>
<path d="M110.915 107.087C100.342 115.514 89.4838 123.56 78.339 131.224C73.9389 134.251 69.1946 137.32 63.8614 137.544C62.2025 137.614 60.4856 137.378 59.1295 136.445C56.9812 134.973 56.2555 132.19 55.7371 129.639C52.9212 115.78 51.6273 101.634 51.3287 87.4919C51.2623 84.3028 51.2541 81.0431 52.2908 78.0282C53.3276 75.0132 55.6086 72.2222 58.7065 71.4674C58.7065 71.4674 66.0469 70.4555 68.1827 78.0779C70.3185 85.7004 68.1827 118.782 69.7047 119.089C71.2267 119.396 101.567 103.682 101.567 103.682C102.21 103.682 102.339 102.534 102.434 101.895C102.492 101.255 102.471 100.61 102.372 99.9748C102.033 96.1816 102.978 92.3846 105.055 89.1923C105.694 90.1254 105.665 91.3488 105.611 92.4768L105.503 94.9734C105.45 95.2837 105.513 95.6028 105.681 95.8692C105.863 96.0552 106.106 96.1687 106.365 96.1885C107.564 96.371 108.746 95.8526 109.87 95.3881C112.232 94.4061 114.667 93.6075 117.152 92.9993C117.341 92.9255 117.543 92.8928 117.746 92.9036C117.948 92.9143 118.146 92.9682 118.326 93.0615C118.496 93.2242 118.61 93.4367 118.652 93.6686C118.694 93.9004 118.661 94.1395 118.558 94.3513C118.396 94.7909 118.098 95.1807 117.961 95.6286C117.909 95.762 117.909 95.91 117.961 96.0433C118.069 96.259 118.376 96.288 118.554 96.4249C118.683 96.5557 118.782 96.7136 118.843 96.8871C118.904 97.0607 118.925 97.2455 118.906 97.4285L118.935 98.3574C118.998 100.315 119.022 102.417 117.94 104.056C117.117 105.195 115.943 106.032 114.597 106.44C113.401 106.805 112.164 107.022 110.915 107.087V107.087Z" fill="#FDBAAC"/>
<path d="M104.769 82.2711H119.782V80.5957L118.641 80.3634L118.413 78.688L105.756 78.8414L105.3 80.5169L104.69 80.8238L104.769 82.2711Z" fill="#A500FF"/>
<path opacity="0.69" d="M104.624 82.358H119.641V80.6784L118.496 80.4504L118.268 78.7749L105.615 78.9242L105.159 80.6038L104.549 80.9065L104.624 82.358Z" fill="url(#paint12_linear)"/>
<path d="M105.756 78.8413L106.349 76.6309L111.724 78.7459L105.756 78.8413Z" fill="#A500FF"/>
<path d="M105.756 78.8413L106.349 76.6309L111.724 78.7459L105.756 78.8413Z" fill="url(#paint13_linear)"/>
<path d="M199.817 145.917H69.2446V150.263H199.817V145.917Z" fill="#CC0EA4"/>
<path d="M167.196 124.422L114.096 125.671V126.965L167.196 125.716V124.422Z" fill="#A500FF"/>
<path d="M167.196 124.422L114.096 125.671V126.965L167.196 125.716V124.422Z" fill="url(#paint14_linear)"/>
<path d="M118.185 119.508L99.7759 121.105L104.578 117.447L120.317 116.116L118.185 119.508Z" fill="url(#paint15_linear)"/>
</g>
<g filter="url(#filter0_d)">
<circle cx="193" cy="161" r="40" fill="white"/>
<path d="M188.231 178.384C187.827 178.779 187.275 179 186.701 179C186.128 179 185.576 178.779 185.171 178.384L172.951 166.501C171.683 165.268 171.683 163.269 172.951 162.038L174.481 160.55C175.75 159.317 177.804 159.317 179.072 160.55L186.701 167.968L207.317 147.925C208.585 146.692 210.641 146.692 211.908 147.925L213.438 149.413C214.706 150.646 214.706 152.645 213.438 153.876L188.231 178.384Z" fill="#A500FF"/>
</g>
<defs>
<filter id="filter0_d" x="153" y="121" width="83" height="83" filterUnits="userSpaceOnUse" color-interpolation-filters="sRGB">
<feFlood flood-opacity="0" result="BackgroundImageFix"/>
<feColorMatrix in="SourceAlpha" type="matrix" values="0 0 0 0 0 0 0 0 0 0 0 0 0 0 0 0 0 0 127 0"/>
<feOffset dx="3" dy="3"/>
<feColorMatrix type="matrix" values="0 0 0 0 0 0 0 0 0 0 0 0 0 0 0 0 0 0 0.1 0"/>
<feBlend mode="normal" in2="BackgroundImageFix" result="effect1_dropShadow"/>
<feBlend mode="normal" in="SourceGraphic" in2="effect1_dropShadow" result="shape"/>
</filter>
<linearGradient id="paint0_linear" x1="107.519" y1="186.841" x2="45.7762" y2="144.308" gradientUnits="userSpaceOnUse">
<stop stop-opacity="0"/>
<stop offset="0.99"/>
</linearGradient>
<linearGradient id="paint1_linear" x1="3918.38" y1="29199.2" x2="26852.1" y2="68628.7" gradientUnits="userSpaceOnUse">
<stop stop-opacity="0"/>
<stop offset="0.99"/>
</linearGradient>
<linearGradient id="paint2_linear" x1="5371.49" y1="17455.6" x2="15356" y2="17455.6" gradientUnits="userSpaceOnUse">
<stop stop-opacity="0"/>
<stop offset="0.99"/>
</linearGradient>
<linearGradient id="paint3_linear" x1="2464.11" y1="1641.46" x2="2368.58" y2="1748.84" gradientUnits="userSpaceOnUse">
<stop stop-opacity="0"/>
<stop offset="0.99"/>
</linearGradient>
<linearGradient id="paint4_linear" x1="1936.03" y1="846.485" x2="1968.09" y2="801.781" gradientUnits="userSpaceOnUse">
<stop stop-opacity="0"/>
<stop offset="0.99"/>
</linearGradient>
<linearGradient id="paint5_linear" x1="9760.96" y1="1342.65" x2="7109.26" y2="4527.41" gradientUnits="userSpaceOnUse">
<stop stop-opacity="0"/>
<stop offset="0.99"/>
</linearGradient>
<linearGradient id="paint6_linear" x1="155.372" y1="85.7129" x2="179.919" y2="105.225" gradientUnits="userSpaceOnUse">
<stop offset="0.02" stop-color="white" stop-opacity="0"/>
<stop offset="0.58" stop-color="white" stop-opacity="0.39"/>
<stop offset="0.68" stop-color="white" stop-opacity="0.68"/>
<stop offset="1" stop-color="white"/>
</linearGradient>
<linearGradient id="paint7_linear" x1="5882.72" y1="8631.46" x2="7028.63" y2="8966.15" gradientUnits="userSpaceOnUse">
<stop offset="0.02" stop-color="white" stop-opacity="0"/>
<stop offset="0.58" stop-color="white" stop-opacity="0.39"/>
<stop offset="0.68" stop-color="white" stop-opacity="0.68"/>
<stop offset="1" stop-color="white"/>
</linearGradient>
<linearGradient id="paint8_linear" x1="4625.69" y1="2745.75" x2="4498.8" y2="2766.19" gradientUnits="userSpaceOnUse">
<stop offset="0.02" stop-color="white" stop-opacity="0"/>
<stop offset="0.58" stop-color="white" stop-opacity="0.39"/>
<stop offset="0.68" stop-color="white" stop-opacity="0.68"/>
<stop offset="1" stop-color="white"/>
</linearGradient>
<linearGradient id="paint9_linear" x1="5351.84" y1="2094" x2="5423.73" y2="2391.28" gradientUnits="userSpaceOnUse">
<stop stop-opacity="0"/>
<stop offset="0.99"/>
</linearGradient>
<linearGradient id="paint10_linear" x1="14566.2" y1="4121.29" x2="22765.6" y2="4121.29" gradientUnits="userSpaceOnUse">
<stop offset="0.02" stop-color="white" stop-opacity="0"/>
<stop offset="0.58" stop-color="white" stop-opacity="0.39"/>
<stop offset="0.68" stop-color="white" stop-opacity="0.68"/>
<stop offset="1" stop-color="white"/>
</linearGradient>
<linearGradient id="paint11_linear" x1="3812.8" y1="6096.34" x2="4506.17" y2="6132.99" gradientUnits="userSpaceOnUse">
<stop stop-opacity="0"/>
<stop offset="0.99"/>
</linearGradient>
<linearGradient id="paint12_linear" x1="3909.1" y1="774.87" x2="4458.28" y2="774.87" gradientUnits="userSpaceOnUse">
<stop offset="0.02" stop-color="white" stop-opacity="0"/>
<stop offset="0.58" stop-color="white" stop-opacity="0.39"/>
<stop offset="0.68" stop-color="white" stop-opacity="0.68"/>
<stop offset="1" stop-color="white"/>
</linearGradient>
<linearGradient id="paint13_linear" x1="1669.66" y1="489.317" x2="1670.15" y2="519.318" gradientUnits="userSpaceOnUse">
<stop stop-opacity="0"/>
<stop offset="0.99"/>
</linearGradient>
<linearGradient id="paint14_linear" x1="18074.6" y1="864.1" x2="18074.9" y2="933.629" gradientUnits="userSpaceOnUse">
<stop stop-opacity="0"/>
<stop offset="0.99"/>
</linearGradient>
<linearGradient id="paint15_linear" x1="5560.13" y1="1500.32" x2="5541.71" y2="2848.16" gradientUnits="userSpaceOnUse">
<stop stop-opacity="0"/>
<stop offset="0.99"/>
</linearGradient>
<clipPath id="clip0">
<rect width="215.34" height="200" fill="white"/>
</clipPath>
</defs>
</svg>
