<?xml version="1.0" encoding="utf-8"?>
<!-- Generator: Adobe Illustrator 22.0.1, SVG Export Plug-In . SVG Version: 6.00 Build 0)  -->
<svg version="1.1" id="Layer_1" xmlns="http://www.w3.org/2000/svg" xmlns:xlink="http://www.w3.org/1999/xlink" x="0px" y="0px"
	 viewBox="0 0 524 454.5" style="enable-background:new 0 0 524 454.5;" xml:space="preserve">
<style type="text/css">
	.st0{opacity:0.24;fill:#A500FF;enable-background:new    ;}
	.st1{fill:#C39BDD;}
	.st2{fill:#6B6AA0;}
	.st3{fill:#A500FF;}
	.st4{display:none;fill:url(#SVGID_1_);}
	.st5{fill:none;stroke:#FFFFFF;stroke-width:2;stroke-miterlimit:10;}
	.st6{fill:#AA1398;}
	.st7{fill:#FFFFFF;}
	.st8{fill:#963096;}
	.st9{fill:none;stroke:#FFFFFF;stroke-width:16;stroke-miterlimit:10;}
	.st10{opacity:0.39;fill:#8CD9F4;stroke:#FFFFFF;stroke-width:16;stroke-miterlimit:10;}
</style>
<title>Order Cnnfirmed 3</title>
<path class="st0" d="M248.8,0.4c-29.7-2.3-59.9-4.6-89,1.9c-12.9,2.9-49.2,16-70.1,49.3c-19.8,31.4-4.4,48-24.1,109.6
	c-4.4,13.8-10.7,27.9-23.3,56.1c-29,65-37,68.5-40.8,91.2c-5.5,33,0.8,69.1,22.8,94.8c35.1,41.3,97.2,45.3,152.1,46.2l194.2,2.9
	c25.1,0.4,51.3,0.5,74.1-10c36.3-16.9,54.8-56.5,66.9-93.9c11.3-35.1,19.1-74.5,2.8-107.6c-9.2-18.6-25.4-33.7-32-53.4
	c-8.4-25.4,0.8-53,0-79.7C478.6-13.2,331.3,6.8,248.8,0.4z"/>
<path class="st1" d="M162.5,418.3c38.8,1.7,77.5,2.4,116.3,2.2c-2.9,4.2-0.4,10.4,3.9,13.1s9.7,3,14.8,3.1l74.8,2.1
	c10.3,0.3,21.3,0.4,29.8-5.3c1.8-1,3.2-2.6,4.1-4.4c2.5-5.7-3.3-11.4-8.4-15l-21-14.8c-9.9-6.9-19.8-13.9-31-18.3
	c-15.6-6.1-32.7-7-49.5-7.5c-38.5-1.1-78.1-2.1-116.5,1.6c-12.1,1.1-23.9,4.4-34.7,9.8c-6.8,3.4-33.1,11-34,18.4
	C109.2,418.2,153.8,417.9,162.5,418.3z"/>
<path class="st2" d="M107.1,204.2c-14.4,17.8-18.5,35.5-23,55c-5.4,23.4-9.4,40.7,0,51c7.1,7.8,16.1,5.2,22,15
	c5.3,8.7,0.1,13.9,5,24c6.7,13.8,23.3,17.8,24,18c11,2.5,20.5-1.2,35-7c16.9-6.7,19.4-11.7,29-11c8.2,0.6,9,4.5,21,6
	c6.2,0.8,13.8,1.7,21-2c8-4.1,6.7-9.3,13-12c8.6-3.6,13.9,4.8,30,7c3.6,0.5,18,2.5,30-5c11.8-7.4,17.5-21.6,17-22
	c-0.4-0.3-5.8,6.1-5,7c1,1.2,9.5-9.2,21-9c7.2,0.1,8.3,4.3,18,7c9.2,2.6,17,1.2,24,0c5.8-1,17.2-3.7,29-12c4.5-3.2,9.6-6.7,14-13
	c7.8-11,11.7-27.6,7-42c-4.8-14.8-14.6-14.7-18-31c-1.9-8.9,0.7-10.5-2-19c-3.2-10.2-9.7-16.8-16-23c-10-9.9-13.4-9.1-21-17
	c-9.7-10.1-8.7-13.7-18-18.8c-29-15.9-18-10-59.8-22.1c-19.2-5.6-22.6,1.7-40.2,0.9c-13.3-0.7-19.3,0.2-35-1c-3-0.2-22.6-1.5-38,11
	c-9,7.3-15.7,5.1-25.3,13.9c-11,10.2-10,15.6-24.7,23.1C122.3,185.7,111.1,199.2,107.1,204.2z"/>
<path class="st3" d="M114.5,209.2c-14.4,17.8-18.5,35.5-23,55c-5.4,23.4-9.4,40.7,0,51c7.1,7.8,16.1,5.2,22,15
	c5.3,8.7,0.1,13.9,5,24c6.7,13.8,23.3,17.8,24,18c11,2.5,20.5-1.2,35-7c16.9-6.7,19.4-11.7,29-11c8.2,0.6,9,4.5,21,6
	c6.2,0.8,13.8,1.7,21-2c8-4.1,6.7-9.3,13-12c8.6-3.6,13.9,4.8,30,7c3.6,0.5,18,2.5,30-5c11.8-7.4,17.5-21.6,17-22
	c-0.4-0.3-5.8,6.1-5,7c1,1.2,9.5-9.2,21-9c7.2,0.1,8.3,4.3,18,7c9.2,2.6,17,1.2,24,0c5.8-1,17.2-3.7,29-12c4.5-3.2,9.6-6.7,14-13
	c7.8-11,11.7-27.6,7-42c-4.8-14.8-14.6-14.7-18-31c-1.9-8.9,0.7-10.5-2-19c-3.2-10.2-9.7-16.8-16-23c-10-9.9-13.4-9.1-21-17
	c-9.7-10.1-8.7-13.7-18-18.8c-29-15.9-18-10-59.8-22.1c-19.2-5.6-22.6,1.7-40.2,0.9c-13.3-0.7-19.3,0.2-35-1c-3-0.2-22.6-1.5-38,11
	c-9,7.3-15.7,5.1-25.3,13.9c-11,10.2-10,15.6-24.7,23.1C129.7,190.7,118.6,204.2,114.5,209.2z"/>
<linearGradient id="SVGID_1_" gradientUnits="userSpaceOnUse" x1="84.8072" y1="245.6317" x2="447.4751" y2="245.6317">
	<stop  offset="0" style="stop-color:#FFFFFF;stop-opacity:0"/>
	<stop  offset="1" style="stop-color:#000000;stop-opacity:0.3"/>
</linearGradient>
<path class="st4" d="M113.4,205c-14.4,16.8-18.5,33.6-23,52c-5.4,22.1-9.4,38.5,0,48.3c7.1,7.4,16.1,4.9,22,14.2
	c5.3,8.2,0.1,13.2,5,22.7c6.7,13.1,23.3,16.9,24,17c11,2.4,20.5-1.2,35-6.6c16.9-6.4,19.4-11.1,29-10.4c8.2,0.6,9,4.2,21,5.7
	c6.2,0.7,13.8,1.6,21-1.9c8-3.9,6.7-8.8,13-11.4c8.6-3.4,13.9,4.5,30,6.6c3.6,0.5,18,2.3,30-4.7c11.8-7,17.5-20.4,17-20.8
	c-0.4-0.3-5.8,5.8-5,6.6c1,1.1,9.5-8.7,21-8.5c7.2,0.1,8.3,4.1,18,6.6c9.2,2.4,17,1.2,24,0c5.8-0.9,17.2-3.5,29-11.4
	c4.5-3,9.6-6.4,14-12.3c7.8-10.4,11.7-26.1,7-39.7c-4.8-14-14.6-13.9-18-29.3c-1.9-8.4,0.7-9.9-2-18c-3.2-9.6-9.7-15.8-16-21.8
	c-10-9.4-13.4-8.6-21-16.1c-9.7-9.5-8.7-12.9-18-17.7c-29-15-18-9.5-59.8-20.9c-19.2-5.3-22.6,1.7-40.2,0.8
	c-13.3-0.6-19.3,0.2-35-0.9c-3-0.2-22.6-1.4-38,10.4c-9,6.9-15.7,4.8-25.3,13.2c-11,9.7-10,14.8-24.7,21.8
	C128.7,187.5,117.5,200.3,113.4,205z"/>
<image style="display:none;overflow:visible;" width="360" height="246" xlink:href="../../../../source/brain.png"  transform="matrix(1 0 0 1 80.6411 104.235)">
</image>
<path class="st5" d="M184.7,179.3c1.7-2.1,6.1-7,13.4-9c8.4-2.3,15.2,0.5,18,1.7c3,1.3,9.7,4.3,14.1,12c1,1.7,6.5,11.4,2.6,21.9
	c-2.3,6.1-6.7,9.4-8.6,10.7"/>
<path class="st5" d="M255,260.4c2.9,1.8,20.4,12.1,39,5.2c5.9-2.2,10.3-5.4,13.3-8.3"/>
<path class="st5" d="M290,235.7c0.6-2.1,3-9.4,13-13.7c2.5-1.1,8.4-3.6,15-2.6c1.6,0.2,5.2,1,12,6.5c3.4,2.8,8,7.1,12,13"/>
<path class="st5" d="M290,207.9c-7.6-8.9-13.1-10.5-17-10c-4.6,0.6-7.3,4.4-10,3c-2.2-1.1-1.7-4.4-3-11c-1-5-2-10.7-5-15
	c-4.1-6-7.8-3.7-15-10c-8.1-7.1-6.8-13-13-16c-3.1-1.5-8.6-2.5-18,2"/>
<path class="st5" d="M375.1,265.9c1.9-10.2,0-16.8-2-21c-5.9-12.4-17.8-12.6-20-24c-1.1-5.6,1.2-8.3-1-17c-0.7-2.9-1.7-6.8-4-10
	c-4.2-5.9-10.7-6.4-29-10c-24.7-4.9-28.6-7.2-31-11c-2.9-4.6-1.5-8.2-6-13c-3.1-3.2-5.7-3.7-12-7c-3.5-1.8-8.4-4.7-14-9"/>
<path class="st5" d="M407.5,276.4c-2.4-5.5-5.7-14.1-7-25c-1.7-13.6,0.9-19.5-2-29c-1.9-6.1-6.3-14.6-18-23"/>
<path class="st5" d="M313,286.9c7.8,7.7,14.5,9.6,19,10c7.6,0.7,12.1-2.6,26-6c7.3-1.7,13.3-2.6,17-3"/>
<path class="st5" d="M252,303.9c-5.5-0.8-13.6-1.3-22,2c-9.8,3.8-10.4,8.7-20,12c-1.1,0.4-16.2,5.3-28-2c-5-3-4.8-5.4-11-10
	c-6.6-4.8-13.3-7-18-8"/>
<path class="st5" d="M236,281.9c-15.4,5.3-23.5,3-28,0c-5.8-3.8-5.4-8.6-12-12c-6.9-3.6-14.4-1.9-23,0c-5.3,1.2-13.2,3.6-22,9"/>
<path class="st5" d="M120,237.9c3.5,5.9,7.3,14.8,5,24c-2.2,8.7-8.3,11.2-11,20c-1.7,5.5-2.4,14.1,4,27"/>
<path class="st5" d="M191,192.9c-11.9,2.7-17.3,7.7-20,12c-4.6,7.5-2.3,14.7-8,20c-4.2,3.9-10.3,4.3-15,4"/>
<g>
	<g>
		<path class="st6" d="M288.8,34.8l-54.2-7.8c-3.1-0.4-6,1.6-6.4,4.5l-4.8,33.3c-0.4,3,1.8,5.7,4.9,6.2l18.6,2.7l5.7,9.8
			c0.3,0.5,0.8,0.8,1.4,0.9c0.6,0.1,1.2-0.1,1.6-0.5l8.3-7.8l18.6,2.7c3.1,0.4,6-1.6,6.4-4.5l4.8-33.3
			C294.2,38.1,292,35.3,288.8,34.8z M270.7,58.3l-12.9,9.1c-0.4,0.3-0.9,0.4-1.4,0.3c-0.5-0.1-1-0.3-1.3-0.7l-9.8-12.3
			c-1.6-2-2.3-4.5-2-7c0.4-2.5,1.7-4.7,3.8-6.2c3.9-2.8,9.3-2.3,12.8,0.8c4.2-2,9.5-0.9,12.5,2.9c1.6,2,2.3,4.5,2,7
			C274.2,54.6,272.9,56.8,270.7,58.3z"/>
	</g>
</g>
<g>
	<g>
		<path class="st7" d="M268.9,46.5c-1.1-1.2-2.6-1.9-4.3-2s-3.2,0.4-4.5,1.4c-0.8,0.7-2,0.6-2.7-0.2c-1.1-1.2-2.7-1.9-4.3-2
			c-1.6-0.1-3.2,0.4-4.5,1.4c-2.6,2.1-2.8,5.8-0.5,8.2l9.5,10.2l10.7-8.9c1.2-1,2-2.4,2.1-4S270,47.7,268.9,46.5z"/>
	</g>
</g>
<path class="st7" d="M165.2,221.6c-0.4,1.2-0.8,2.3-1.4,3.3l3.5,6.7c-1.2,1.5-2.6,2.9-4.1,4l-6.8-3.5c-1,0.6-2.2,1-3.3,1.4l-2.3,7.3
	c-0.9,0.1-1.9,0.2-2.9,0.2s-1.9-0.1-2.9-0.2l-2.3-7.3c-1.2-0.3-2.3-0.8-3.3-1.4l-6.8,3.5c-1.5-1.2-2.9-2.5-4.1-4l3.5-6.7
	c-0.6-1-1-2.1-1.4-3.3l-7.3-2.3c-0.1-0.9-0.2-1.9-0.2-2.9c0-1,0.1-1.9,0.2-2.9l7.3-2.3c0.3-1.2,0.8-2.3,1.4-3.3l-3.5-6.7
	c1.2-1.5,2.6-2.9,4.1-4l6.8,3.5c1-0.6,2.2-1,3.3-1.4l2.3-7.3c0.9-0.1,1.9-0.2,2.9-0.2s1.9,0.1,2.9,0.2l2.3,7.3
	c1.2,0.3,2.3,0.8,3.3,1.4l6.8-3.5c1.5,1.2,2.9,2.5,4.1,4l-3.5,6.7c0.6,1,1,2.1,1.4,3.3l7.3,2.3c0.1,0.9,0.2,1.9,0.2,2.9
	c0,1-0.1,1.9-0.2,2.9L165.2,221.6z M148,207.6c-5,0-9,4-9,8.9s4,8.9,9,8.9s9-4,9-8.9S153,207.6,148,207.6z"/>
<path class="st7" d="M266.3,160.5c-0.3,1.2-0.8,2.4-1.5,3.5l2.2,4.7c-1,1.3-2.2,2.4-3.5,3.4l-4.7-2.2c-1.1,0.6-2.3,1.1-3.5,1.4
	l-1.7,4.9c-0.8,0.1-1.6,0.2-2.5,0.2s-1.6-0.1-2.5-0.2l-1.7-4.9c-1.2-0.3-2.4-0.8-3.5-1.4l-4.7,2.2c-1.3-1-2.5-2.2-3.5-3.4l2.2-4.7
	c-0.6-1.1-1.1-2.3-1.5-3.5l-4.9-1.7c-0.1-0.8-0.2-1.6-0.2-2.4c0-0.8,0.1-1.6,0.2-2.4l4.9-1.7c0.3-1.2,0.8-2.4,1.5-3.5l-2.2-4.7
	c1-1.3,2.2-2.4,3.5-3.4l4.7,2.2c1.1-0.6,2.3-1.1,3.5-1.4l1.7-4.9c0.8-0.1,1.6-0.2,2.5-0.2s1.6,0.1,2.5,0.2l1.7,4.9
	c1.2,0.3,2.4,0.8,3.5,1.4l4.7-2.2c1.3,1,2.5,2.2,3.5,3.4l-2.2,4.7c0.6,1.1,1.1,2.3,1.5,3.5l4.9,1.7c0.1,0.8,0.2,1.6,0.2,2.4
	c0,0.8-0.1,1.6-0.2,2.4L266.3,160.5z M251.2,149.7c-3.7,0-6.7,3-6.7,6.7c0,3.7,3,6.7,6.7,6.7s6.7-3,6.7-6.7
	C257.9,152.7,254.9,149.7,251.2,149.7z"/>
<g>
	<path class="st7" d="M389.2,242.7c-0.5,3.1-1.3,6.1-2.4,9l9.6,8.8c-1.4,2.9-2.9,5.6-4.7,8.2l-12.4-4c-2,2.4-4.1,4.6-6.5,6.6l4,12.5
		c-2.6,1.8-5.3,3.3-8.2,4.7l-8.7-9.7c-2.8,1.1-5.8,1.9-8.9,2.4l-2.8,12.8c-1.6,0.1-3.1,0.2-4.7,0.2s-3.2-0.1-4.7-0.2l-2.8-12.8
		c-3.1-0.5-6-1.3-8.9-2.4l-8.7,9.7c-2.8-1.4-5.6-2.9-8.2-4.7l4-12.5c-2.4-2-4.6-4.2-6.5-6.6l-12.4,4c-1.8-2.6-3.3-5.3-4.7-8.2
		l9.6-8.8c-1.1-2.9-1.9-5.9-2.4-9l-12.7-2.8c-0.1-1.6-0.2-3.1-0.2-4.7s0.1-3.2,0.2-4.7l12.7-2.8c0.5-3.1,1.3-6.1,2.4-9l-9.6-8.8
		c1.4-2.9,2.9-5.6,4.7-8.2l12.4,4c2-2.4,4.1-4.6,6.5-6.6l-4-12.5c2.6-1.8,5.3-3.3,8.2-4.7l8.7,9.7c2.8-1.1,5.8-1.9,8.9-2.4l2.8-12.8
		c1.6-0.1,3.1-0.2,4.7-0.2s3.2,0.1,4.7,0.2l2.8,12.8c3.1,0.5,6,1.3,8.9,2.4l8.7-9.7c2.8,1.4,5.6,2.9,8.2,4.7l-4,12.5
		c2.4,2,4.6,4.2,6.5,6.6l12.4-4c1.8,2.6,3.3,5.3,4.7,8.2l-9.6,8.8c1.1,2.9,1.9,5.9,2.4,9l12.7,2.8c0.1,1.6,0.2,3.1,0.2,4.7
		s-0.1,3.2-0.2,4.7L389.2,242.7z M343.7,204.1c-17,0-30.8,13.9-30.8,31.1s13.8,31.1,30.8,31.1s30.8-13.9,30.8-31.1
		S360.7,204.1,343.7,204.1z"/>
	<g>
		<path class="st6" d="M408.9,171.2l30.8-20.5c1.2-0.8,1.3-2.7,0.1-3.4l-10.1-5.5l21.8-13.4c1.3-0.8,1.4-2.7,0.2-3.4l-17.4-9.5
			c-0.7-0.4-1.6-0.2-2.2,0.5l-21.8,23.4c-0.9,1-0.8,2.5,0.2,3l13.7,7.4l-16.4,19.9C407.1,170.7,407.9,171.9,408.9,171.2z"/>
	</g>
</g>
<path class="st6" d="M104.1,123.8c-1,0.3-2.1-0.2-2.4-1.3l-1.7-4.9c-0.4-1,0.1-2.2,1.1-2.5s2.1,0.2,2.4,1.3l1.7,4.9
	C105.6,122.3,105.1,123.5,104.1,123.8z"/>
<path class="st6" d="M122.2,125.1c-0.5,0.2-1,0.1-1.5-0.1c-1-0.5-1.4-1.7-0.9-2.7l2.1-4.6c0.4-1,1.6-1.4,2.5-0.9
	c1,0.5,1.4,1.7,0.9,2.7l-2.1,4.6C123,124.6,122.6,125,122.2,125.1z"/>
<path class="st6" d="M139.1,137.7l-4.7,1.6c-1,0.3-2.1-0.2-2.4-1.3c-0.4-1,0.1-2.2,1.1-2.5l4.7-1.6c1-0.3,2.1,0.2,2.4,1.3
	C140.6,136.2,140,137.3,139.1,137.7z"/>
<path class="st6" d="M138.2,160.4c-0.5,0.2-1,0.1-1.5-0.1l-4.5-2.3c-1-0.5-1.4-1.7-0.9-2.7c0.4-1,1.6-1.4,2.5-0.9l4.5,2.3
	c1,0.5,1.4,1.7,0.9,2.7C139.1,159.8,138.7,160.2,138.2,160.4z"/>
<path class="st6" d="M100.3,173.6c-0.5,0.2-1,0.1-1.5-0.1c-1-0.5-1.4-1.7-0.9-2.7l2.1-4.6c0.4-1,1.6-1.4,2.5-0.9
	c1,0.5,1.4,1.7,0.9,2.7l-2.1,4.6C101.2,173.1,100.8,173.5,100.3,173.6z"/>
<path class="st6" d="M90.2,154.8l-4.7,1.6c-1,0.3-2.1-0.2-2.4-1.3c-0.4-1,0.1-2.2,1.1-2.5l4.7-1.6c1-0.3,2.1,0.2,2.4,1.3
	C91.7,153.4,91.2,154.5,90.2,154.8z"/>
<path class="st6" d="M90.9,136.1c-0.5,0.2-1,0.1-1.5-0.1l-4.5-2.3c-1-0.5-1.4-1.7-0.9-2.7s1.6-1.4,2.5-0.9l4.5,2.3
	c1,0.5,1.4,1.7,0.9,2.7C91.7,135.6,91.3,135.9,90.9,136.1z"/>
<path class="st6" d="M126.7,165.2l1.1,3.1c0.8,2.4-0.3,5-2.6,5.8l-6,2.1c-2,0.7-4.7-0.1-6-3.6l-0.8-2.4L126.7,165.2z"/>
<path class="st6" d="M117.3,127.9c-5.1-2-10.7-1.5-15.3,1.4c-5.8,3.6-9,10.8-8,17.9c1.1,7.3,5.9,13.2,12.5,15.5
	c1.8,0.6,3.4,2,4.4,3.8l0,0c0,0,0.1-0.1,0.2-0.1l14.3-5c0,0,0.1,0,0.1,0l0,0c-0.3-2,0.1-4.1,1.3-6.1c2.8-4.8,3.4-10.6,1.5-16
	C126.4,134,122.5,129.9,117.3,127.9z M121,143.3c-1,0.3-2.1-0.2-2.4-1.3c-1.3-3.8-5.3-5.9-9-4.6c-1,0.3-2.1-0.2-2.4-1.3
	c-0.4-1,0.2-2.2,1.1-2.5c5.6-2,11.8,1.2,13.8,7.1C122.5,141.8,122,143,121,143.3z"/>
<path class="st6" d="M110.9,166.5l0.2-0.1C111,166.5,111,166.5,110.9,166.5L110.9,166.5z"/>
<path class="st6" d="M125.5,161.4L125.5,161.4c0,0-0.1,0-0.1,0L125.5,161.4z"/>
<path class="st3" d="M-85,72"/>
<polygon class="st8" points="196,349.3 119.2,430.7 100,410.3 176.8,328.9 "/>
<path class="st9" d="M222.3,356.3c-32.5,0-59-27.1-59-60.3s26.4-60.3,59-60.3s59,27.1,59,60.3S254.8,356.3,222.3,356.3z"/>
<path class="st10" d="M222.3,356.3c-32.5,0-59-27.1-59-60.3s26.4-60.3,59-60.3s59,27.1,59,60.3S254.8,356.3,222.3,356.3z"/>
</svg>
