<svg width="1189" height="263" viewBox="0 0 1189 263" fill="none" xmlns="http://www.w3.org/2000/svg">
<path d="M324.482 197.202C321.519 197.202 319.028 196.259 317.008 194.374C315.123 192.354 314.18 189.863 314.18 186.9V96.808C314.18 93.7107 315.123 91.2193 317.008 89.334C319.028 87.4487 321.519 86.506 324.482 86.506C327.579 86.506 330.071 87.4487 331.956 89.334C333.841 91.2193 334.784 93.7107 334.784 96.808V99.03C338.959 94.8553 344.009 91.556 349.934 89.132C355.859 86.708 362.256 85.496 369.124 85.496C378.416 85.496 386.698 87.516 393.97 91.556C401.377 95.4613 407.167 101.252 411.342 108.928C415.651 116.604 417.806 126.031 417.806 137.208V186.9C417.806 189.863 416.796 192.354 414.776 194.374C412.891 196.259 410.467 197.202 407.504 197.202C404.541 197.202 402.05 196.259 400.03 194.374C398.145 192.354 397.202 189.863 397.202 186.9V137.208C397.202 125.761 394.105 117.412 387.91 112.16C381.85 106.773 374.241 104.08 365.084 104.08C359.428 104.08 354.311 105.225 349.732 107.514C345.153 109.803 341.517 112.901 338.824 116.806C336.131 120.577 334.784 124.953 334.784 129.936V186.9C334.784 189.863 333.841 192.354 331.956 194.374C330.071 196.259 327.579 197.202 324.482 197.202ZM503.785 197.808C492.608 197.808 482.643 195.451 473.889 190.738C465.271 185.89 458.47 179.291 453.487 170.942C448.639 162.458 446.215 152.762 446.215 141.854C446.215 130.811 448.505 121.115 453.083 112.766C457.797 104.282 464.261 97.6833 472.475 92.97C480.69 88.122 490.117 85.698 500.755 85.698C511.259 85.698 520.282 88.0547 527.823 92.768C535.365 97.3467 541.088 103.743 544.993 111.958C549.033 120.038 551.053 129.397 551.053 140.036C551.053 142.595 550.178 144.749 548.427 146.5C546.677 148.116 544.455 148.924 541.761 148.924H465.001C466.483 158.216 470.725 165.825 477.727 171.75C484.865 177.541 493.551 180.436 503.785 180.436C507.96 180.436 512.202 179.695 516.511 178.214C520.955 176.598 524.524 174.78 527.217 172.76C529.237 171.279 531.392 170.538 533.681 170.538C536.105 170.403 538.193 171.077 539.943 172.558C542.233 174.578 543.445 176.8 543.579 179.224C543.714 181.648 542.637 183.735 540.347 185.486C535.769 189.122 530.045 192.085 523.177 194.374C516.444 196.663 509.98 197.808 503.785 197.808ZM500.755 103.07C490.79 103.07 482.777 105.831 476.717 111.352C470.657 116.873 466.819 124.011 465.203 132.764H532.469C531.257 124.145 527.958 117.075 522.571 111.554C517.185 105.898 509.913 103.07 500.755 103.07ZM571.621 197C568.928 197 566.773 196.192 565.157 194.576C563.676 192.825 562.935 190.738 562.935 188.314C562.935 185.89 563.878 183.466 565.763 181.042L597.073 141.854L563.743 102.464C561.992 100.309 561.05 98.02 560.915 95.596C560.78 93.0373 561.454 90.8827 562.935 89.132C564.416 87.3813 566.638 86.506 569.601 86.506C572.833 86.506 575.392 87.6507 577.277 89.94L610.405 129.532L640.099 89.94C641.176 88.5933 642.321 87.718 643.533 87.314C644.745 86.7753 646.092 86.506 647.573 86.506C650.536 86.506 652.758 87.4487 654.239 89.334C655.72 91.0847 656.394 93.2393 656.259 95.798C656.259 98.3567 655.316 100.848 653.431 103.272L622.929 143.066L655.047 181.446C657.067 183.87 658.01 186.294 657.875 188.718C657.875 191.007 657 192.96 655.249 194.576C653.633 196.192 651.478 197 648.785 197C647.438 197 646.159 196.798 644.947 196.394C643.735 195.99 642.59 195.115 641.513 193.768L609.395 155.388L578.893 193.768C576.873 195.923 574.449 197 571.621 197ZM723.857 197C717.123 197 711.063 195.317 705.677 191.95C700.29 188.449 696.048 183.735 692.951 177.81C689.853 171.885 688.305 165.219 688.305 157.812V107.918H679.013C676.185 107.918 673.895 107.11 672.145 105.494C670.394 103.878 669.519 101.858 669.519 99.434C669.519 96.7407 670.394 94.586 672.145 92.97C673.895 91.354 676.185 90.546 679.013 90.546H688.305V61.458C688.305 58.4953 689.247 56.0713 691.133 54.186C693.018 52.3007 695.442 51.358 698.405 51.358C701.367 51.358 703.791 52.3007 705.677 54.186C707.562 56.0713 708.505 58.4953 708.505 61.458V90.546H725.675C728.503 90.546 730.792 91.354 732.543 92.97C734.293 94.586 735.169 96.7407 735.169 99.434C735.169 101.858 734.293 103.878 732.543 105.494C730.792 107.11 728.503 107.918 725.675 107.918H708.505V157.812C708.505 163.199 709.986 167.71 712.949 171.346C715.911 174.982 719.547 176.8 723.857 176.8H730.725C733.149 176.8 735.169 177.743 736.785 179.628C738.535 181.513 739.411 183.937 739.411 186.9C739.411 189.863 738.266 192.287 735.977 194.172C733.822 196.057 730.994 197 727.493 197H723.857Z" fill="white"/>
<path d="M775.037 244.268C772.074 244.268 769.583 243.258 767.563 241.238C765.677 239.353 764.735 236.929 764.735 233.966V141.854C764.869 131.215 767.361 121.654 772.209 113.17C777.057 104.686 783.655 98.02 792.005 93.172C800.354 88.1893 809.781 85.698 820.285 85.698C830.923 85.698 840.417 88.1893 848.767 93.172C857.116 98.02 863.715 104.686 868.563 113.17C873.545 121.654 876.037 131.215 876.037 141.854C876.037 152.493 873.747 162.054 869.169 170.538C864.725 178.887 858.597 185.553 850.787 190.536C842.976 195.384 834.155 197.808 824.325 197.808C816.379 197.808 809.04 196.192 802.307 192.96C795.708 189.593 790.052 185.082 785.339 179.426V233.966C785.339 236.929 784.396 239.353 782.511 241.238C780.625 243.258 778.134 244.268 775.037 244.268ZM820.285 179.628C827.153 179.628 833.28 178.012 838.667 174.78C844.053 171.413 848.295 166.902 851.393 161.246C854.625 155.455 856.241 148.991 856.241 141.854C856.241 134.582 854.625 128.118 851.393 122.462C848.295 116.671 844.053 112.16 838.667 108.928C833.28 105.561 827.153 103.878 820.285 103.878C813.551 103.878 807.424 105.561 801.903 108.928C796.516 112.16 792.274 116.671 789.177 122.462C786.079 128.118 784.531 134.582 784.531 141.854C784.531 148.991 786.079 155.455 789.177 161.246C792.274 166.902 796.516 171.413 801.903 174.78C807.424 178.012 813.551 179.628 820.285 179.628ZM933.026 197C927.101 197 921.849 195.384 917.27 192.152C912.691 188.92 909.123 184.543 906.564 179.022C904.005 173.366 902.726 166.902 902.726 159.63V49.338C902.726 46.3753 903.669 43.9513 905.554 42.066C907.439 40.1807 909.863 39.238 912.826 39.238C915.789 39.238 918.213 40.1807 920.098 42.066C921.983 43.9513 922.926 46.3753 922.926 49.338V159.63C922.926 164.613 923.869 168.72 925.754 171.952C927.639 175.184 930.063 176.8 933.026 176.8H938.076C940.769 176.8 942.924 177.743 944.54 179.628C946.291 181.513 947.166 183.937 947.166 186.9C947.166 189.863 945.887 192.287 943.328 194.172C940.769 196.057 937.47 197 933.43 197H933.026ZM1007.27 197.808C997.437 197.808 988.616 195.384 980.805 190.536C972.995 185.553 966.8 178.887 962.221 170.538C957.777 162.054 955.555 152.493 955.555 141.854C955.555 131.215 957.979 121.654 962.827 113.17C967.81 104.686 974.476 98.02 982.825 93.172C991.309 88.1893 1000.8 85.698 1011.31 85.698C1021.81 85.698 1031.24 88.1893 1039.59 93.172C1047.94 98.02 1054.54 104.686 1059.38 113.17C1064.37 121.654 1066.86 131.215 1066.86 141.854V186.9C1066.86 189.863 1065.85 192.354 1063.83 194.374C1061.94 196.259 1059.52 197.202 1056.56 197.202C1053.59 197.202 1051.1 196.259 1049.08 194.374C1047.2 192.354 1046.25 189.863 1046.25 186.9V179.426C1041.54 185.082 1035.82 189.593 1029.08 192.96C1022.48 196.192 1015.21 197.808 1007.27 197.808ZM1011.31 179.628C1018.18 179.628 1024.3 178.012 1029.69 174.78C1035.08 171.413 1039.32 166.902 1042.42 161.246C1045.51 155.455 1047.06 148.991 1047.06 141.854C1047.06 134.582 1045.51 128.118 1042.42 122.462C1039.32 116.671 1035.08 112.16 1029.69 108.928C1024.3 105.561 1018.18 103.878 1011.31 103.878C1004.57 103.878 998.447 105.561 992.925 108.928C987.539 112.16 983.229 116.671 979.997 122.462C976.9 128.118 975.351 134.582 975.351 141.854C975.351 148.991 976.9 155.455 979.997 161.246C983.229 166.902 987.539 171.413 992.925 174.78C998.447 178.012 1004.57 179.628 1011.31 179.628ZM1117.32 245.48C1115.97 245.48 1114.36 245.076 1112.47 244.268C1106.54 241.575 1104.93 237.333 1107.62 231.542L1127.82 186.092L1082.37 99.838C1081.03 97.2793 1080.82 94.8553 1081.77 92.566C1082.84 90.142 1084.66 88.3913 1087.22 87.314C1089.78 86.2367 1092.2 86.1693 1094.49 87.112C1096.78 87.92 1098.53 89.6033 1099.74 92.162L1136.71 165.69L1169.23 92.364C1171.93 86.708 1176.17 85.092 1181.96 87.516C1188.02 90.0747 1189.7 94.3167 1187.01 100.242L1125.2 239.218C1123.58 243.393 1120.95 245.48 1117.32 245.48Z" fill="#0F8DFF"/>
<circle cx="128" cy="128" r="128" fill="#0F8DFF"/>
<path d="M212.5 183L248.44 243H176.56L212.5 183Z" fill="#0F8DFF"/>
<g clip-path="url(#clip0)">
<path d="M157.54 60.4168L157.539 60.4149C156.514 55.7471 153.68 51.6763 149.658 49.0952C145.636 46.5141 140.755 45.6333 136.084 46.646L136.083 46.6465L86.7663 57.4074L86.7644 57.4078C82.0967 58.4327 78.0259 61.2668 75.4447 65.2888C72.8636 69.3107 71.9828 74.1921 72.9956 78.8625L72.996 78.8644L98.4631 195.578L98.4635 195.58C99.4884 200.247 102.323 204.318 106.345 206.899C110.366 209.48 115.248 210.361 119.918 209.348L119.92 209.348L169.234 198.588L169.235 198.587C173.904 197.563 177.975 194.729 180.557 190.707C183.139 186.685 184.02 181.803 183.007 177.132L181.541 177.45L183.007 177.13L157.54 60.4168ZM167.808 191.014L167.594 191.061L118.28 201.821C115.604 202.402 112.808 201.897 110.504 200.419C108.2 198.94 106.576 196.608 105.989 193.935L80.5222 77.223C79.9422 74.5477 80.4468 71.7516 81.9253 69.4478C83.4039 67.1439 85.7358 65.5203 88.4096 64.9332L137.721 54.1733C140.396 53.5932 143.193 54.0978 145.497 55.5764C147.801 57.0551 149.424 59.3873 150.011 62.0614L175.478 178.771C176.059 181.447 175.555 184.244 174.076 186.549C172.638 188.791 170.391 190.389 167.808 191.014Z" fill="white" stroke="white" stroke-width="3"/>
<path d="M109.758 79.0634L124.199 75.9123C124.809 75.7793 125.34 75.4097 125.677 74.8848C126.014 74.36 126.129 73.7228 125.996 73.1134C125.863 72.5041 125.493 71.9725 124.968 71.6357C124.443 71.2988 123.806 71.1843 123.197 71.3172L108.755 74.4684C108.146 74.6014 107.614 74.9709 107.278 75.4958C106.941 76.0207 106.826 76.6579 106.959 77.2672C107.092 77.8766 107.462 78.4081 107.987 78.745C108.511 79.0818 109.149 79.1964 109.758 79.0634Z" fill="white"/>
<path d="M205.197 109.419L205.199 109.417C212.627 101.981 212.628 89.9303 205.195 82.4957L205.194 82.4946C197.762 75.0658 185.709 75.0586 178.272 82.4953L120.377 140.39L96.9975 117.011C96.9975 117.011 96.9974 117.01 96.9974 117.01C89.5639 109.577 77.5101 109.578 70.0755 117.012C62.6416 124.446 62.6409 136.502 70.0753 143.935C70.0755 143.935 70.0757 143.936 70.0759 143.936L106.912 180.775L106.914 180.776C114.35 188.206 126.403 188.209 133.836 180.775C133.836 180.775 133.836 180.775 133.837 180.774L205.197 109.419Z" fill="white" stroke="#0F8DFF" stroke-width="11"/>
</g>
<defs>
<clipPath id="clip0">
<rect width="172" height="172" fill="white" transform="translate(42 42)"/>
</clipPath>
</defs>
</svg>
