<svg width="172" height="42" viewBox="0 0 172 42" fill="none" xmlns="http://www.w3.org/2000/svg">
<path d="M51.948 30.028C51.5373 30.028 51.192 29.8973 50.912 29.636C50.6507 29.356 50.52 29.0107 50.52 28.6V16.112C50.52 15.6827 50.6507 15.3373 50.912 15.076C51.192 14.8147 51.5373 14.684 51.948 14.684C52.3773 14.684 52.7227 14.8147 52.984 15.076C53.2453 15.3373 53.376 15.6827 53.376 16.112V16.42C53.9547 15.8413 54.6547 15.384 55.476 15.048C56.2973 14.712 57.184 14.544 58.136 14.544C59.424 14.544 60.572 14.824 61.58 15.384C62.6067 15.9253 63.4093 16.728 63.988 17.792C64.5853 18.856 64.884 20.1627 64.884 21.712V28.6C64.884 29.0107 64.744 29.356 64.464 29.636C64.2027 29.8973 63.8667 30.028 63.456 30.028C63.0453 30.028 62.7 29.8973 62.42 29.636C62.1587 29.356 62.028 29.0107 62.028 28.6V21.712C62.028 20.1253 61.5987 18.968 60.74 18.24C59.9 17.4933 58.8453 17.12 57.576 17.12C56.792 17.12 56.0827 17.2787 55.448 17.596C54.8133 17.9133 54.3093 18.3427 53.936 18.884C53.5627 19.4067 53.376 20.0133 53.376 20.704V28.6C53.376 29.0107 53.2453 29.356 52.984 29.636C52.7227 29.8973 52.3773 30.028 51.948 30.028ZM76.8019 30.112C75.2526 30.112 73.8713 29.7853 72.6579 29.132C71.4633 28.46 70.5206 27.5453 69.8299 26.388C69.1579 25.212 68.8219 23.868 68.8219 22.356C68.8219 20.8253 69.1393 19.4813 69.7739 18.324C70.4273 17.148 71.3233 16.2333 72.4619 15.58C73.6006 14.908 74.9073 14.572 76.3819 14.572C77.8379 14.572 79.0886 14.8987 80.1339 15.552C81.1793 16.1867 81.9726 17.0733 82.5139 18.212C83.0739 19.332 83.3539 20.6293 83.3539 22.104C83.3539 22.4587 83.2326 22.7573 82.9899 23C82.7473 23.224 82.4393 23.336 82.0659 23.336H71.4259C71.6313 24.624 72.2193 25.6787 73.1899 26.5C74.1793 27.3027 75.3833 27.704 76.8019 27.704C77.3806 27.704 77.9686 27.6013 78.5659 27.396C79.1819 27.172 79.6766 26.92 80.0499 26.64C80.3299 26.4347 80.6286 26.332 80.9459 26.332C81.2819 26.3133 81.5713 26.4067 81.8139 26.612C82.1313 26.892 82.2993 27.2 82.3179 27.536C82.3366 27.872 82.1873 28.1613 81.8699 28.404C81.2353 28.908 80.4419 29.3187 79.4899 29.636C78.5566 29.9533 77.6606 30.112 76.8019 30.112ZM76.3819 16.98C75.0006 16.98 73.8899 17.3627 73.0499 18.128C72.2099 18.8933 71.6779 19.8827 71.4539 21.096H80.7779C80.6099 19.9013 80.1526 18.9213 79.4059 18.156C78.6593 17.372 77.6513 16.98 76.3819 16.98ZM86.2049 30C85.8316 30 85.5329 29.888 85.3089 29.664C85.1036 29.4213 85.0009 29.132 85.0009 28.796C85.0009 28.46 85.1316 28.124 85.3929 27.788L89.7329 22.356L85.1129 16.896C84.8702 16.5973 84.7396 16.28 84.7209 15.944C84.7022 15.5893 84.7956 15.2907 85.0009 15.048C85.2062 14.8053 85.5142 14.684 85.9249 14.684C86.3729 14.684 86.7276 14.8427 86.9889 15.16L91.5809 20.648L95.6969 15.16C95.8462 14.9733 96.0049 14.852 96.1729 14.796C96.3409 14.7213 96.5276 14.684 96.7329 14.684C97.1436 14.684 97.4516 14.8147 97.6569 15.076C97.8622 15.3187 97.9556 15.6173 97.9369 15.972C97.9369 16.3267 97.8062 16.672 97.5449 17.008L93.3169 22.524L97.7689 27.844C98.0489 28.18 98.1796 28.516 98.1609 28.852C98.1609 29.1693 98.0396 29.44 97.7969 29.664C97.5729 29.888 97.2742 30 96.9009 30C96.7142 30 96.5369 29.972 96.3689 29.916C96.2009 29.86 96.0422 29.7387 95.8929 29.552L91.4409 24.232L87.2129 29.552C86.9329 29.8507 86.5969 30 86.2049 30ZM107.307 30C106.374 30 105.534 29.7667 104.787 29.3C104.04 28.8147 103.452 28.1613 103.023 27.34C102.594 26.5187 102.379 25.5947 102.379 24.568V17.652H101.091C100.699 17.652 100.382 17.54 100.139 17.316C99.8962 17.092 99.7748 16.812 99.7748 16.476C99.7748 16.1027 99.8962 15.804 100.139 15.58C100.382 15.356 100.699 15.244 101.091 15.244H102.379V11.212C102.379 10.8013 102.51 10.4653 102.771 10.204C103.032 9.94267 103.368 9.812 103.779 9.812C104.19 9.812 104.526 9.94267 104.787 10.204C105.048 10.4653 105.179 10.8013 105.179 11.212V15.244H107.559C107.951 15.244 108.268 15.356 108.511 15.58C108.754 15.804 108.875 16.1027 108.875 16.476C108.875 16.812 108.754 17.092 108.511 17.316C108.268 17.54 107.951 17.652 107.559 17.652H105.179V24.568C105.179 25.3147 105.384 25.94 105.795 26.444C106.206 26.948 106.71 27.2 107.307 27.2H108.259C108.595 27.2 108.875 27.3307 109.099 27.592C109.342 27.8533 109.463 28.1893 109.463 28.6C109.463 29.0107 109.304 29.3467 108.987 29.608C108.688 29.8693 108.296 30 107.811 30H107.307Z" fill="#342F2F"/>
<path d="M114.401 36.552C113.99 36.552 113.645 36.412 113.365 36.132C113.104 35.8707 112.973 35.5347 112.973 35.124V22.356C112.992 20.8813 113.337 19.556 114.009 18.38C114.681 17.204 115.596 16.28 116.753 15.608C117.91 14.9173 119.217 14.572 120.673 14.572C122.148 14.572 123.464 14.9173 124.621 15.608C125.778 16.28 126.693 17.204 127.365 18.38C128.056 19.556 128.401 20.8813 128.401 22.356C128.401 23.8307 128.084 25.156 127.449 26.332C126.833 27.4893 125.984 28.4133 124.901 29.104C123.818 29.776 122.596 30.112 121.233 30.112C120.132 30.112 119.114 29.888 118.181 29.44C117.266 28.9733 116.482 28.348 115.829 27.564V35.124C115.829 35.5347 115.698 35.8707 115.437 36.132C115.176 36.412 114.83 36.552 114.401 36.552ZM120.673 27.592C121.625 27.592 122.474 27.368 123.221 26.92C123.968 26.4533 124.556 25.828 124.985 25.044C125.433 24.2413 125.657 23.3453 125.657 22.356C125.657 21.348 125.433 20.452 124.985 19.668C124.556 18.8653 123.968 18.24 123.221 17.792C122.474 17.3253 121.625 17.092 120.673 17.092C119.74 17.092 118.89 17.3253 118.125 17.792C117.378 18.24 116.79 18.8653 116.361 19.668C115.932 20.452 115.717 21.348 115.717 22.356C115.717 23.3453 115.932 24.2413 116.361 25.044C116.79 25.828 117.378 26.4533 118.125 26.92C118.89 27.368 119.74 27.592 120.673 27.592ZM136.301 30C135.479 30 134.751 29.776 134.117 29.328C133.482 28.88 132.987 28.2733 132.633 27.508C132.278 26.724 132.101 25.828 132.101 24.82V9.532C132.101 9.12133 132.231 8.78533 132.493 8.524C132.754 8.26267 133.09 8.132 133.501 8.132C133.911 8.132 134.247 8.26267 134.509 8.524C134.77 8.78533 134.901 9.12133 134.901 9.532V24.82C134.901 25.5107 135.031 26.08 135.293 26.528C135.554 26.976 135.89 27.2 136.301 27.2H137.001C137.374 27.2 137.673 27.3307 137.897 27.592C138.139 27.8533 138.261 28.1893 138.261 28.6C138.261 29.0107 138.083 29.3467 137.729 29.608C137.374 29.8693 136.917 30 136.357 30H136.301ZM146.592 30.112C145.229 30.112 144.006 29.776 142.924 29.104C141.841 28.4133 140.982 27.4893 140.348 26.332C139.732 25.156 139.424 23.8307 139.424 22.356C139.424 20.8813 139.76 19.556 140.432 18.38C141.122 17.204 142.046 16.28 143.204 15.608C144.38 14.9173 145.696 14.572 147.152 14.572C148.608 14.572 149.914 14.9173 151.072 15.608C152.229 16.28 153.144 17.204 153.816 18.38C154.506 19.556 154.852 20.8813 154.852 22.356V28.6C154.852 29.0107 154.712 29.356 154.432 29.636C154.17 29.8973 153.834 30.028 153.424 30.028C153.013 30.028 152.668 29.8973 152.388 29.636C152.126 29.356 151.996 29.0107 151.996 28.6V27.564C151.342 28.348 150.549 28.9733 149.616 29.44C148.701 29.888 147.693 30.112 146.592 30.112ZM147.152 27.592C148.104 27.592 148.953 27.368 149.7 26.92C150.446 26.4533 151.034 25.828 151.464 25.044C151.893 24.2413 152.108 23.3453 152.108 22.356C152.108 21.348 151.893 20.452 151.464 19.668C151.034 18.8653 150.446 18.24 149.7 17.792C148.953 17.3253 148.104 17.092 147.152 17.092C146.218 17.092 145.369 17.3253 144.604 17.792C143.857 18.24 143.26 18.8653 142.812 19.668C142.382 20.452 142.168 21.348 142.168 22.356C142.168 23.3453 142.382 24.2413 142.812 25.044C143.26 25.828 143.857 26.4533 144.604 26.92C145.369 27.368 146.218 27.592 147.152 27.592ZM161.846 36.72C161.659 36.72 161.435 36.664 161.174 36.552C160.353 36.1787 160.129 35.5907 160.502 34.788L163.302 28.488L157.002 16.532C156.815 16.1773 156.787 15.8413 156.918 15.524C157.067 15.188 157.319 14.9453 157.674 14.796C158.029 14.6467 158.365 14.6373 158.682 14.768C158.999 14.88 159.242 15.1133 159.41 15.468L164.534 25.66L169.042 15.496C169.415 14.712 170.003 14.488 170.806 14.824C171.646 15.1787 171.879 15.7667 171.506 16.588L162.938 35.852C162.714 36.4307 162.35 36.72 161.846 36.72Z" fill="#2A94F4"/>
<rect x="1.28735" y="25.7487" width="24.1395" height="7.40277" rx="3.70138" transform="rotate(-90 1.28735 25.7487)" fill="#5C86F1"/>
<rect x="4.24622" width="34.5953" height="7.40277" rx="3.70138" transform="rotate(35 4.24622 0)" fill="#0F8DFF"/>
<rect y="35.936" width="34.5953" height="7.40277" rx="3.70138" transform="rotate(-35 0 35.936)" fill="#30485F"/>
<path d="M4.98802 40.4832C2.95182 40.4832 1.30115 38.8326 1.30115 36.7964L1.30115 22.1212H8.67489L8.67489 36.7964C8.67489 38.8326 7.02422 40.4832 4.98802 40.4832Z" fill="#5C86F1"/>
</svg>
