<svg width="232" height="48" viewBox="0 0 232 48" fill="none" xmlns="http://www.w3.org/2000/svg">
<path d="M72.7598 21H68.207L63.5137 11.9473H63.4346C63.5459 13.3711 63.6016 14.458 63.6016 15.208V21H60.5254V8.15039H65.0605L69.7363 17.0801H69.7891C69.707 15.7852 69.666 14.7451 69.666 13.96V8.15039H72.7598V21ZM83.166 21H75.5371V8.15039H83.166V10.9365H79.0088V12.958H82.8584V15.7441H79.0088V18.1699H83.166V21ZM97.4395 14.5576C97.4395 16.7197 96.9092 18.3633 95.8486 19.4883C94.7881 20.6133 93.2354 21.1758 91.1904 21.1758C89.1748 21.1758 87.6279 20.6104 86.5498 19.4795C85.4775 18.3486 84.9414 16.7021 84.9414 14.54C84.9414 12.4014 85.4746 10.7695 86.541 9.64453C87.6133 8.51367 89.1689 7.94824 91.208 7.94824C93.2529 7.94824 94.8027 8.50781 95.8574 9.62695C96.9121 10.7461 97.4395 12.3896 97.4395 14.5576ZM88.5977 14.5576C88.5977 17.042 89.4619 18.2842 91.1904 18.2842C92.0693 18.2842 92.7197 17.9824 93.1416 17.3789C93.5693 16.7754 93.7832 15.835 93.7832 14.5576C93.7832 13.2744 93.5664 12.3281 93.1328 11.7188C92.7051 11.1035 92.0635 10.7959 91.208 10.7959C89.4678 10.7959 88.5977 12.0498 88.5977 14.5576ZM107.644 21L107.011 18.5918H102.836L102.186 21H98.3711L102.563 8.09766H107.195L111.44 21H107.644ZM106.29 15.7441L105.736 13.6348C105.607 13.166 105.449 12.5596 105.262 11.8154C105.08 11.0713 104.96 10.5381 104.901 10.2158C104.849 10.5146 104.743 11.0068 104.585 11.6924C104.433 12.3779 104.09 13.7285 103.557 15.7441H106.29ZM121.24 17.0977C121.24 17.8945 121.038 18.6035 120.634 19.2246C120.229 19.8398 119.646 20.3203 118.885 20.666C118.123 21.0059 117.229 21.1758 116.204 21.1758C115.349 21.1758 114.631 21.1172 114.051 21C113.471 20.877 112.867 20.666 112.24 20.3672V17.2734C112.902 17.6133 113.591 17.8799 114.306 18.0732C115.021 18.2607 115.677 18.3545 116.274 18.3545C116.79 18.3545 117.168 18.2666 117.408 18.0908C117.648 17.9092 117.769 17.6777 117.769 17.3965C117.769 17.2207 117.719 17.0684 117.619 16.9395C117.525 16.8047 117.37 16.6699 117.153 16.5352C116.942 16.4004 116.374 16.125 115.448 15.709C114.61 15.3281 113.98 14.959 113.559 14.6016C113.143 14.2441 112.832 13.834 112.627 13.3711C112.428 12.9082 112.328 12.3604 112.328 11.7275C112.328 10.5439 112.759 9.62109 113.62 8.95898C114.481 8.29688 115.665 7.96582 117.171 7.96582C118.501 7.96582 119.857 8.27344 121.24 8.88867L120.177 11.5693C118.976 11.0186 117.938 10.7432 117.065 10.7432C116.614 10.7432 116.286 10.8223 116.081 10.9805C115.876 11.1387 115.773 11.335 115.773 11.5693C115.773 11.8213 115.902 12.0469 116.16 12.2461C116.424 12.4453 117.133 12.8086 118.287 13.3359C119.395 13.834 120.162 14.3701 120.59 14.9443C121.023 15.5127 121.24 16.2305 121.24 17.0977ZM131.629 17.0977C131.629 17.8945 131.427 18.6035 131.022 19.2246C130.618 19.8398 130.035 20.3203 129.273 20.666C128.512 21.0059 127.618 21.1758 126.593 21.1758C125.737 21.1758 125.02 21.1172 124.439 21C123.859 20.877 123.256 20.666 122.629 20.3672V17.2734C123.291 17.6133 123.979 17.8799 124.694 18.0732C125.409 18.2607 126.065 18.3545 126.663 18.3545C127.179 18.3545 127.557 18.2666 127.797 18.0908C128.037 17.9092 128.157 17.6777 128.157 17.3965C128.157 17.2207 128.107 17.0684 128.008 16.9395C127.914 16.8047 127.759 16.6699 127.542 16.5352C127.331 16.4004 126.763 16.125 125.837 15.709C124.999 15.3281 124.369 14.959 123.947 14.6016C123.531 14.2441 123.221 13.834 123.016 13.3711C122.816 12.9082 122.717 12.3604 122.717 11.7275C122.717 10.5439 123.147 9.62109 124.009 8.95898C124.87 8.29688 126.054 7.96582 127.56 7.96582C128.89 7.96582 130.246 8.27344 131.629 8.88867L130.565 11.5693C129.364 11.0186 128.327 10.7432 127.454 10.7432C127.003 10.7432 126.675 10.8223 126.47 10.9805C126.265 11.1387 126.162 11.335 126.162 11.5693C126.162 11.8213 126.291 12.0469 126.549 12.2461C126.812 12.4453 127.521 12.8086 128.676 13.3359C129.783 13.834 130.551 14.3701 130.979 14.9443C131.412 15.5127 131.629 16.2305 131.629 17.0977ZM133.615 21V8.15039H137.104V21H133.615ZM145.489 21L142.861 11.7451H142.782C142.905 13.3213 142.967 14.5459 142.967 15.4189V21H139.891V8.15039H144.514L147.194 17.2734H147.265L149.893 8.15039H154.524V21H151.334V15.3662C151.334 15.0732 151.337 14.748 151.343 14.3906C151.354 14.0332 151.396 13.1572 151.466 11.7627H151.387L148.794 21H145.489ZM157.293 21V8.15039H160.782V21H157.293ZM163.568 21V8.15039H167.04V18.1963H171.988V21H163.568ZM181.929 21L181.296 18.5918H177.121L176.471 21H172.656L176.849 8.09766H181.48L185.726 21H181.929ZM180.575 15.7441L180.021 13.6348C179.893 13.166 179.734 12.5596 179.547 11.8154C179.365 11.0713 179.245 10.5381 179.187 10.2158C179.134 10.5146 179.028 11.0068 178.87 11.6924C178.718 12.3779 178.375 13.7285 177.842 15.7441H180.575ZM192.792 21H189.32V10.9893H186.183V8.15039H195.921V10.9893H192.792V21ZM197.758 21V8.15039H201.247V21H197.758ZM216.057 14.5576C216.057 16.7197 215.526 18.3633 214.466 19.4883C213.405 20.6133 211.853 21.1758 209.808 21.1758C207.792 21.1758 206.245 20.6104 205.167 19.4795C204.095 18.3486 203.559 16.7021 203.559 14.54C203.559 12.4014 204.092 10.7695 205.158 9.64453C206.23 8.51367 207.786 7.94824 209.825 7.94824C211.87 7.94824 213.42 8.50781 214.475 9.62695C215.529 10.7461 216.057 12.3896 216.057 14.5576ZM207.215 14.5576C207.215 17.042 208.079 18.2842 209.808 18.2842C210.687 18.2842 211.337 17.9824 211.759 17.3789C212.187 16.7754 212.4 15.835 212.4 14.5576C212.4 13.2744 212.184 12.3281 211.75 11.7188C211.322 11.1035 210.681 10.7959 209.825 10.7959C208.085 10.7959 207.215 12.0498 207.215 14.5576ZM230.611 21H226.059L221.365 11.9473H221.286C221.397 13.3711 221.453 14.458 221.453 15.208V21H218.377V8.15039H222.912L227.588 17.0801H227.641C227.559 15.7852 227.518 14.7451 227.518 13.96V8.15039H230.611V21Z" fill="#60347B"/>
<path d="M147.077 30.4912C145.824 30.4912 144.837 30.8923 144.117 31.6943C143.397 32.4964 143.037 33.5947 143.037 34.9893C143.037 36.4157 143.377 37.5231 144.056 38.3115C144.735 39.0999 145.705 39.4941 146.968 39.4941C147.806 39.4941 148.576 39.387 149.278 39.1729V39.7881C148.618 40.0205 147.793 40.1367 146.804 40.1367C145.4 40.1367 144.295 39.6833 143.488 38.7764C142.682 37.8695 142.278 36.6025 142.278 34.9756C142.278 33.9593 142.47 33.0638 142.853 32.2891C143.24 31.5143 143.794 30.9173 144.514 30.498C145.238 30.0742 146.079 29.8623 147.036 29.8623C148.011 29.8623 148.884 30.0446 149.654 30.4092L149.374 31.0381C148.645 30.6735 147.879 30.4912 147.077 30.4912ZM157.481 36.2744C157.481 37.4867 157.188 38.4346 156.6 39.1182C156.012 39.7972 155.201 40.1367 154.166 40.1367C153.514 40.1367 152.94 39.9795 152.443 39.665C151.947 39.3506 151.566 38.8994 151.302 38.3115C151.037 37.7236 150.905 37.0446 150.905 36.2744C150.905 35.0622 151.199 34.1188 151.787 33.4443C152.375 32.7653 153.182 32.4258 154.207 32.4258C155.228 32.4258 156.028 32.7699 156.606 33.458C157.19 34.1416 157.481 35.0804 157.481 36.2744ZM151.616 36.2744C151.616 37.2952 151.84 38.0928 152.286 38.667C152.737 39.2367 153.373 39.5215 154.193 39.5215C155.014 39.5215 155.647 39.2367 156.094 38.667C156.545 38.0928 156.771 37.2952 156.771 36.2744C156.771 35.249 156.543 34.4538 156.087 33.8887C155.636 33.3236 155 33.041 154.18 33.041C153.359 33.041 152.726 33.3236 152.279 33.8887C151.837 34.4492 151.616 35.2445 151.616 36.2744ZM165.336 32.5693V33.041L163.798 33.1367C164.208 33.6471 164.413 34.2077 164.413 34.8184C164.413 35.5339 164.174 36.1149 163.695 36.5615C163.221 37.0036 162.583 37.2246 161.781 37.2246C161.444 37.2246 161.207 37.2109 161.07 37.1836C160.801 37.3249 160.596 37.4912 160.455 37.6826C160.314 37.874 160.243 38.0768 160.243 38.291C160.243 38.528 160.332 38.7012 160.51 38.8105C160.692 38.9199 160.995 38.9746 161.419 38.9746H162.718C163.524 38.9746 164.142 39.1387 164.57 39.4668C164.999 39.7904 165.213 40.2712 165.213 40.9092C165.213 41.693 164.894 42.2969 164.256 42.7207C163.622 43.1491 162.718 43.3633 161.542 43.3633C160.608 43.3633 159.883 43.1833 159.368 42.8232C158.858 42.4632 158.603 41.9619 158.603 41.3193C158.603 40.8089 158.76 40.3851 159.074 40.0479C159.393 39.7106 159.824 39.4805 160.366 39.3574C160.143 39.2617 159.963 39.1273 159.826 38.9541C159.694 38.7764 159.628 38.5736 159.628 38.3457C159.628 37.849 159.945 37.4115 160.578 37.0332C160.145 36.8555 159.808 36.5775 159.566 36.1992C159.325 35.8164 159.204 35.3789 159.204 34.8867C159.204 34.1439 159.439 33.5492 159.908 33.1025C160.382 32.6514 161.02 32.4258 161.822 32.4258C162.31 32.4258 162.688 32.4736 162.957 32.5693H165.336ZM159.32 41.2578C159.32 42.2786 160.079 42.7891 161.597 42.7891C163.547 42.7891 164.522 42.167 164.522 40.9229C164.522 40.4762 164.37 40.1527 164.064 39.9521C163.759 39.7516 163.265 39.6514 162.581 39.6514H161.364C160.002 39.6514 159.32 40.1868 159.32 41.2578ZM159.888 34.8867C159.888 35.4609 160.061 35.9076 160.407 36.2266C160.758 36.541 161.225 36.6982 161.809 36.6982C162.428 36.6982 162.902 36.541 163.23 36.2266C163.563 35.9121 163.729 35.4564 163.729 34.8594C163.729 34.2259 163.559 33.752 163.217 33.4375C162.88 33.1185 162.406 32.959 161.795 32.959C161.202 32.959 160.735 33.1299 160.394 33.4717C160.056 33.8089 159.888 34.2806 159.888 34.8867ZM172.049 40V35.1807C172.049 34.4333 171.892 33.891 171.577 33.5537C171.263 33.2119 170.775 33.041 170.114 33.041C169.226 33.041 168.574 33.2666 168.159 33.7178C167.749 34.1644 167.544 34.8913 167.544 35.8984V40H166.867V32.5693H167.441L167.571 33.5879H167.612C168.095 32.8132 168.954 32.4258 170.189 32.4258C171.876 32.4258 172.719 33.3304 172.719 35.1396V40H172.049ZM175.802 40H175.125V32.5693H175.802V40ZM175.029 30.5049C175.029 30.0674 175.173 29.8486 175.46 29.8486C175.601 29.8486 175.711 29.9056 175.788 30.0195C175.87 30.1335 175.911 30.2952 175.911 30.5049C175.911 30.71 175.87 30.8717 175.788 30.9902C175.711 31.1087 175.601 31.168 175.46 31.168C175.173 31.168 175.029 30.9469 175.029 30.5049ZM180.259 39.5352C180.687 39.5352 181.061 39.4987 181.38 39.4258V39.9727C181.052 40.082 180.674 40.1367 180.245 40.1367C179.589 40.1367 179.104 39.9613 178.789 39.6104C178.479 39.2594 178.324 38.708 178.324 37.9561V33.1572H177.224V32.7607L178.324 32.4531L178.666 30.7715H179.015V32.5693H181.195V33.1572H179.015V37.8604C179.015 38.43 179.115 38.8516 179.315 39.125C179.516 39.3984 179.83 39.5352 180.259 39.5352ZM183.663 40H182.986V32.5693H183.663V40ZM182.891 30.5049C182.891 30.0674 183.034 29.8486 183.321 29.8486C183.463 29.8486 183.572 29.9056 183.649 30.0195C183.731 30.1335 183.772 30.2952 183.772 30.5049C183.772 30.71 183.731 30.8717 183.649 30.9902C183.572 31.1087 183.463 31.168 183.321 31.168C183.034 31.168 182.891 30.9469 182.891 30.5049ZM187.785 40L184.914 32.5693H185.611L187.532 37.6211C187.787 38.2682 187.979 38.8333 188.106 39.3164H188.147C188.334 38.6966 188.526 38.127 188.722 37.6074L190.643 32.5693H191.34L188.469 40H187.785ZM195.585 40.1367C194.505 40.1367 193.662 39.804 193.056 39.1387C192.454 38.4733 192.153 37.5413 192.153 36.3428C192.153 35.1579 192.445 34.21 193.028 33.499C193.612 32.7835 194.398 32.4258 195.387 32.4258C196.262 32.4258 196.952 32.7311 197.458 33.3418C197.964 33.9525 198.217 34.7819 198.217 35.8301V36.377H192.864C192.873 37.3978 193.11 38.1771 193.575 38.7148C194.045 39.2526 194.715 39.5215 195.585 39.5215C196.009 39.5215 196.38 39.4919 196.699 39.4326C197.023 39.3734 197.431 39.2458 197.923 39.0498V39.665C197.504 39.8473 197.116 39.9704 196.761 40.0342C196.405 40.1025 196.013 40.1367 195.585 40.1367ZM195.387 33.0273C194.671 33.0273 194.097 33.2643 193.664 33.7383C193.231 34.2077 192.978 34.8867 192.905 35.7754H197.499C197.499 34.9141 197.312 34.2419 196.938 33.7588C196.565 33.2712 196.048 33.0273 195.387 33.0273ZM208.512 38.0654C208.512 38.7308 208.259 39.2435 207.753 39.6035C207.247 39.959 206.529 40.1367 205.6 40.1367C204.606 40.1367 203.818 39.984 203.234 39.6787V38.9473C203.982 39.321 204.77 39.5078 205.6 39.5078C206.333 39.5078 206.889 39.387 207.268 39.1455C207.65 38.8994 207.842 38.5736 207.842 38.168C207.842 37.7943 207.689 37.4798 207.384 37.2246C207.083 36.9694 206.586 36.7188 205.894 36.4727C205.151 36.2038 204.629 35.9736 204.328 35.7822C204.027 35.5863 203.799 35.3675 203.645 35.126C203.494 34.8799 203.419 34.5814 203.419 34.2305C203.419 33.6745 203.651 33.2347 204.116 32.9111C204.586 32.5876 205.24 32.4258 206.078 32.4258C206.88 32.4258 207.641 32.5762 208.361 32.877L208.108 33.4922C207.379 33.1914 206.702 33.041 206.078 33.041C205.472 33.041 204.991 33.1413 204.636 33.3418C204.28 33.5423 204.103 33.8203 204.103 34.1758C204.103 34.5632 204.239 34.873 204.513 35.1055C204.791 35.3379 205.331 35.5977 206.133 35.8848C206.803 36.1263 207.29 36.3451 207.596 36.541C207.901 36.7324 208.129 36.9512 208.279 37.1973C208.434 37.4434 208.512 37.7327 208.512 38.0654ZM211.089 36.7393L214.883 32.5693H215.703L212.777 35.7412L215.956 40H215.143L212.319 36.2471L211.103 37.3545V40H210.426V29.3633H211.103V34.6953L211.055 36.7393H211.089ZM217.884 40H217.207V32.5693H217.884V40ZM217.111 30.5049C217.111 30.0674 217.255 29.8486 217.542 29.8486C217.683 29.8486 217.793 29.9056 217.87 30.0195C217.952 30.1335 217.993 30.2952 217.993 30.5049C217.993 30.71 217.952 30.8717 217.87 30.9902C217.793 31.1087 217.683 31.168 217.542 31.168C217.255 31.168 217.111 30.9469 217.111 30.5049ZM221.056 40H220.379V29.3633H221.056V40ZM224.228 40H223.551V29.3633H224.228V40ZM231.33 38.0654C231.33 38.7308 231.077 39.2435 230.571 39.6035C230.065 39.959 229.348 40.1367 228.418 40.1367C227.424 40.1367 226.636 39.984 226.053 39.6787V38.9473C226.8 39.321 227.589 39.5078 228.418 39.5078C229.152 39.5078 229.708 39.387 230.086 39.1455C230.469 38.8994 230.66 38.5736 230.66 38.168C230.66 37.7943 230.507 37.4798 230.202 37.2246C229.901 36.9694 229.405 36.7188 228.712 36.4727C227.969 36.2038 227.447 35.9736 227.146 35.7822C226.846 35.5863 226.618 35.3675 226.463 35.126C226.312 34.8799 226.237 34.5814 226.237 34.2305C226.237 33.6745 226.47 33.2347 226.935 32.9111C227.404 32.5876 228.058 32.4258 228.896 32.4258C229.699 32.4258 230.46 32.5762 231.18 32.877L230.927 33.4922C230.198 33.1914 229.521 33.041 228.896 33.041C228.29 33.041 227.81 33.1413 227.454 33.3418C227.099 33.5423 226.921 33.8203 226.921 34.1758C226.921 34.5632 227.058 34.873 227.331 35.1055C227.609 35.3379 228.149 35.5977 228.951 35.8848C229.621 36.1263 230.109 36.3451 230.414 36.541C230.719 36.7324 230.947 36.9512 231.098 37.1973C231.253 37.4434 231.33 37.7327 231.33 38.0654Z" fill="#494949"/>
<path d="M48 24.0938C48 21.4827 46.7812 19.1375 44.8762 17.5894C46.0779 12.1432 42.2144 6.63787 36.5325 5.89594C35.9072 2.58844 32.9972 0 29.625 0C28.0434 0 26.5828 0.525 25.4062 1.41V13.5928C26.4938 12.615 27.84 11.9119 29.3456 11.6063C30.1059 11.4516 30.8484 11.9438 31.0031 12.705C31.1578 13.4663 30.6656 14.2078 29.9044 14.3625C27.2981 14.8912 25.4062 17.2097 25.4062 19.875V30.4678C26.4938 29.49 27.84 28.7869 29.3456 28.4812C30.1059 28.3266 30.8484 28.8187 31.0031 29.58C31.1578 30.3412 30.6656 31.0828 29.9044 31.2375C27.2981 31.7663 25.4062 34.0847 25.4062 36.75V46.59C26.5828 47.475 28.0434 48 29.625 48C33.0497 48 35.9109 45.5391 36.5316 42.2916C42.1147 41.5626 46.0577 36.2087 44.8931 30.5419C46.8553 28.92 48 26.5772 48 24.0938V24.0938Z" fill="#A500FF"/>
<path d="M11.4675 5.89594C5.79309 6.63694 1.92056 12.1366 3.12375 17.5894C1.17591 19.1723 0 21.5397 0 24.0938C0 26.5772 1.14469 28.92 3.10687 30.5419C1.94128 36.2135 5.88966 41.563 11.4684 42.2916C12.0891 45.5391 14.9503 48 18.375 48C19.9566 48 21.4172 47.475 22.5938 46.59C22.5938 44.5824 22.5938 38.7531 22.5938 36.75C22.5938 34.0847 20.7019 31.7663 18.0956 31.2375C17.3344 31.0828 16.8422 30.3412 16.9969 29.58C17.1516 28.8187 17.8931 28.3266 18.6544 28.4812C20.16 28.7869 21.5062 29.49 22.5938 30.4678V19.875C22.5938 17.2097 20.7019 14.8912 18.0956 14.3625C17.3344 14.2078 16.8422 13.4662 16.9969 12.705C17.1516 11.9437 17.8931 11.4516 18.6544 11.6063C20.16 11.9119 21.5062 12.615 22.5938 13.5928C22.5938 11.1856 22.5938 3.88031 22.5938 1.41C21.4172 0.525 19.9566 0 18.375 0C15.0028 0 12.0928 2.58844 11.4675 5.89594Z" fill="#E0DBDB"/>
<circle cx="24" cy="24" r="16" fill="white"/>
<path d="M30.7125 17.8971L21.0816 27.528L17.2875 23.7338L16 25.0213L21.0816 30.1029L32 19.1845L30.7125 17.8971Z" fill="black"/>
</svg>
