<svg width="401" height="800" viewBox="0 0 401 800" fill="none" xmlns="http://www.w3.org/2000/svg">
<rect x="14.2856" width="369.643" height="800" rx="50" fill="white"/>
<g filter="url(#filter0_d)">
<rect x="20" y="18" width="364" height="92" fill="white"/>
</g>
<path fill-rule="evenodd" clip-rule="evenodd" d="M399.209 183.713V72.8456C399.209 58.5772 398.311 47.355 394.041 36.4026C391.261 28.9573 386.805 22.2446 381.015 16.7792C374.051 10.0965 365.449 5.34804 356.067 3.00717C347.128 0.621499 339.318 0 327.56 0H72.957C61.1993 0 53.3892 0.621499 44.4457 3.00717C35.065 5.34888 26.4648 10.0973 19.5023 16.7792C13.712 22.2449 9.25615 28.9581 6.47634 36.4039C2.20677 47.3564 1.30888 58.5772 1.30888 72.8456V108.143H0V139.414H1.30888V165.472H0V224.104H1.30888V238.436H0V297.068H1.30888V727.154C1.30888 741.424 2.20677 752.645 6.47634 763.597C9.25641 771.043 13.7123 777.755 19.5023 783.221C26.4666 789.903 35.0686 794.651 44.4509 796.993C53.3892 799.378 61.1993 800 72.957 800H327.56C339.318 800 347.128 799.378 356.072 796.993C365.454 794.651 374.056 789.903 381.02 783.221C386.809 777.754 391.263 771.041 394.041 763.596C398.311 752.645 399.209 741.423 399.209 727.153V277.524H400.517V183.713H399.209ZM374.34 732.448C374.34 741.085 373.799 747.878 371.227 754.506C369.556 759.008 366.873 763.072 363.383 766.384C359.194 770.427 354.012 773.302 348.355 774.723C342.734 776.134 336.94 776.748 331.147 776.547H69.3707C63.5771 776.748 57.7839 776.134 52.1628 774.723C46.5059 773.302 41.3233 770.427 37.1343 766.384C33.6444 763.072 30.9613 759.008 29.2901 754.506C26.7182 747.883 26.1776 741.085 26.1776 732.448V67.5518C26.1776 58.9147 26.7182 52.1225 29.2901 45.4945C30.9613 40.9916 33.6444 36.9285 37.1343 33.6156C41.3233 29.5733 46.5059 26.6977 52.1628 25.2769C57.7839 23.8656 63.5771 23.2515 69.3707 23.4528L96.7708 23.4463C97.6235 23.4164 98.4762 23.5067 99.3035 23.7147C100.138 23.9236 100.902 24.3474 101.519 24.9433C102.034 25.4316 102.43 26.0306 102.676 26.6945C103.02 27.6863 103.174 28.733 103.132 29.7811C103.154 29.8412 103.169 29.9037 103.176 29.9674C103.07 33.0476 103.661 36.1123 104.905 38.9342C105.957 41.3445 107.486 43.5193 109.4 45.329C111.739 47.5555 114.61 49.1507 117.742 49.9635C120.732 50.6838 123.811 50.9703 126.883 50.8143H273.354C276.427 50.97 279.507 50.683 282.497 49.9622C285.627 49.1492 288.496 47.5544 290.833 45.329C292.748 43.5194 294.276 41.3446 295.328 38.9342C296.659 36.131 297.347 33.0681 297.342 29.9674C297.349 29.9037 297.364 29.8412 297.387 29.7811C297.345 28.733 297.499 27.6863 297.842 26.6945C298.089 26.0306 298.485 25.4316 298.999 24.9433C299.617 24.3474 300.381 23.9236 301.215 23.7147C302.013 23.5089 302.837 23.4207 303.66 23.4528H331.147C336.94 23.2515 342.734 23.8656 348.355 25.2769C354.012 26.6977 359.194 29.5733 363.383 33.6156C366.873 36.9285 369.556 40.9916 371.227 45.4945C373.799 52.1173 374.34 58.9147 374.34 67.5518V732.448Z" fill="#333333"/>
<path fill-rule="evenodd" clip-rule="evenodd" d="M177.254 28.6644H220.646C221.46 28.6384 222.251 28.9349 222.846 29.4889C223.441 30.0429 223.79 30.8091 223.818 31.6195V32.2227C223.791 33.0333 223.441 33.7999 222.846 34.3541C222.252 34.9084 221.46 35.2051 220.646 35.1791H177.254C176.44 35.2051 175.648 34.9086 175.054 34.3546C174.459 33.8006 174.109 33.0344 174.081 32.224V31.6208C174.109 30.8102 174.458 30.0436 175.053 29.4894C175.648 28.9351 176.439 28.6384 177.254 28.6644V28.6644Z" fill="#666666"/>
<path d="M243.576 26.0586H243.327C240.143 26.0586 237.562 28.6282 237.562 31.798V32.0456C237.562 35.2154 240.143 37.785 243.327 37.785H243.576C246.76 37.785 249.342 35.2154 249.342 32.0456V31.798C249.342 28.6282 246.76 26.0586 243.576 26.0586Z" fill="#666666"/>
<path d="M261.122 764.821H140.705C139.62 764.821 138.741 765.696 138.741 766.775C138.741 767.855 139.62 768.73 140.705 768.73H261.122C262.206 768.73 263.085 767.855 263.085 766.775C263.085 765.696 262.206 764.821 261.122 764.821Z" fill="#333333"/>
<rect x="50" y="66" width="299" height="28" rx="10" fill="#E5E5E5"/>
<defs>
<filter id="filter0_d" x="10" y="12" width="384" height="112" filterUnits="userSpaceOnUse" color-interpolation-filters="sRGB">
<feFlood flood-opacity="0" result="BackgroundImageFix"/>
<feColorMatrix in="SourceAlpha" type="matrix" values="0 0 0 0 0 0 0 0 0 0 0 0 0 0 0 0 0 0 127 0"/>
<feOffset dy="4"/>
<feGaussianBlur stdDeviation="5"/>
<feColorMatrix type="matrix" values="0 0 0 0 0 0 0 0 0 0 0 0 0 0 0 0 0 0 0.1 0"/>
<feBlend mode="normal" in2="BackgroundImageFix" result="effect1_dropShadow"/>
<feBlend mode="normal" in="SourceGraphic" in2="effect1_dropShadow" result="shape"/>
</filter>
</defs>
</svg>
