<svg width="54" height="54" viewBox="0 0 54 54" fill="none" xmlns="http://www.w3.org/2000/svg">
<circle cx="27" cy="27" r="27" fill="#2A94F4"/>
<g clip-path="url(#clip0)">
<path d="M40.1875 11H28.9375C27.3866 11 26.125 12.2616 26.125 13.8125V21.3125C26.125 22.8634 27.3866 24.125 28.9375 24.125H29.875V26.9375C29.875 27.7735 30.889 28.1867 31.4753 27.6003L34.9507 24.125H40.1875C41.7384 24.125 43 22.8634 43 21.3125V13.8125C43 12.2616 41.7384 11 40.1875 11ZM38.0378 16.3503L34.2878 20.1003C33.9216 20.4666 33.3284 20.4666 32.9621 20.1003L31.0871 18.2253C30.7209 17.8591 30.7209 17.2658 31.0871 16.8996C31.4533 16.5334 32.0466 16.5334 32.4128 16.8996L33.625 18.1118L36.7122 15.0246C37.0784 14.6584 37.6717 14.6584 38.0379 15.0246C38.4041 15.3908 38.4041 15.9841 38.0378 16.3503Z" fill="white"/>
<path d="M29.3594 33.6599C29.0554 33.7309 28.7227 33.6572 28.484 33.4179L20.529 25.4629C20.2921 25.2261 20.2183 24.8938 20.2891 24.5888L12.468 16.7681C10.1107 20.6675 10.5843 25.8124 13.9472 29.1754L24.8017 40.0299C28.0445 43.2742 33.099 44.0029 37.2072 41.5076L29.3594 33.6599Z" fill="white"/>
<path d="M22.5101 19.0643C22.4744 19.0249 22.0478 18.5607 18.1366 14.6423C17.0433 13.549 15.3252 13.4546 13.9471 14.8327C13.8164 14.9634 13.7261 15.117 13.604 15.253L21.8174 23.4659L22.1658 23.273C23.563 22.2329 23.6578 20.2081 22.5101 19.0643Z" fill="white"/>
<path d="M39.322 35.8706L35.3697 31.9229C33.8656 30.4172 31.8414 30.1943 30.6044 31.8918L30.4763 32.1253L38.7233 40.3723C38.8681 40.2419 39.0326 40.141 39.171 40.0015C40.5381 38.6265 40.3685 36.9171 39.322 35.8706Z" fill="white"/>
</g>
<defs>
<clipPath id="clip0">
<rect width="32" height="32" fill="white" transform="translate(11 11)"/>
</clipPath>
</defs>
</svg>
