<svg width="32" height="32" viewBox="0 0 32 32" fill="none" xmlns="http://www.w3.org/2000/svg">
<path d="M25.0318 20.6786C23.7646 22.4192 21.7118 23.5528 19.3989 23.5528H16.1536C15.0325 23.5528 14.0777 22.841 13.7162 21.8448C13.27 21.7117 12.8324 21.5389 12.4054 21.3268C11.5011 20.8774 10.68 20.2688 9.95717 19.5146C5.26857 20.5446 1.75946 24.7225 1.75946 29.7205V30.3737C1.75946 31.2718 2.4875 31.9998 3.38554 31.9998H28.6144C29.5124 31.9998 30.2405 31.2718 30.2405 30.3737V29.7205C30.2404 25.8594 28.1461 22.4878 25.0318 20.6786Z" fill="white"/>
<path d="M8.22888 16.1632C8.92775 16.1632 9.53605 15.7759 9.8512 15.2043C9.85948 15.2268 9.86791 15.2493 9.8764 15.2719C9.87891 15.2785 9.88141 15.2853 9.88392 15.2921C10.6232 17.2381 12.0618 18.8695 13.9586 19.5823C14.4174 18.8533 15.2286 18.3685 16.1536 18.3685H19.3989C19.7226 18.3685 20.024 18.2772 20.2881 18.1296C20.7317 17.8815 21.1306 17.2523 21.3366 16.9187C21.6662 16.3849 21.9216 15.8196 22.1481 15.2032C22.2753 15.4344 22.4504 15.6355 22.66 15.7929V16.5888C22.66 18.3869 21.1972 19.8499 19.3989 19.8499H16.1536C15.5401 19.8499 15.0426 20.3473 15.0426 20.9608C15.0426 21.5744 15.5401 22.0717 16.1536 22.0717H19.3989C22.4222 22.0717 24.8818 19.612 24.8818 16.5888V15.7929C25.3316 15.4551 25.6225 14.9175 25.6225 14.3117V10.9619V9.67732C25.6225 9.05913 25.3193 8.51216 24.8538 8.17585C24.4928 3.6072 20.6597 0 16 0C11.34 0 7.50704 3.6072 7.14601 8.17577C6.68049 8.51209 6.37732 9.05913 6.37732 9.67724V14.3116C6.37732 15.3371 7.21041 16.1632 8.22888 16.1632ZM16 2.22192C19.4496 2.22192 22.2948 4.85812 22.6273 8.22172C22.409 8.39347 22.2301 8.61296 22.1069 8.86483C21.0586 6.12992 18.7186 4.2258 15.9998 4.2258C13.2225 4.2258 10.9199 6.19536 9.89687 8.85391C9.89548 8.85752 9.89415 8.86121 9.89276 8.86491C9.76955 8.61303 9.59069 8.39353 9.37239 8.2218C9.70515 4.85812 12.5503 2.22192 16 2.22192Z" fill="white"/>
</svg>
