<svg width="60" height="44" viewBox="0 0 60 44" fill="none" xmlns="http://www.w3.org/2000/svg">
<rect x="50.9995" y="27.4375" width="0.999795" height="1.99962" fill="#C4C4C4"/>
<rect x="50.9995" y="30.438" width="0.999795" height="1.99962" fill="#C4C4C4"/>
<rect x="52" y="30.438" width="0.999809" height="1.99959" transform="rotate(-90 52 30.438)" fill="#C4C4C4"/>
<rect x="49" y="30.438" width="0.999809" height="1.99959" transform="rotate(-90 49 30.438)" fill="#C4C4C4"/>
<rect x="58.1145" y="38.25" width="0.628571" height="1.25" fill="#C4C4C4"/>
<rect x="58.1145" y="40.1255" width="0.628571" height="1.25" fill="#C4C4C4"/>
<rect x="58.7429" y="40.1255" width="0.625" height="1.25714" transform="rotate(-90 58.7429 40.1255)" fill="#C4C4C4"/>
<rect x="56.8572" y="40.1255" width="0.625" height="1.25714" transform="rotate(-90 56.8572 40.1255)" fill="#C4C4C4"/>
<rect x="9.85718" y="15.5" width="0.999991" height="2" fill="#C4C4C4"/>
<rect x="9.85718" y="18.5" width="0.999991" height="2" fill="#C4C4C4"/>
<rect x="10.8572" y="18.5" width="1" height="1.99998" transform="rotate(-90 10.8572 18.5)" fill="#C4C4C4"/>
<rect x="7.85718" y="18.5" width="1" height="1.99998" transform="rotate(-90 7.85718 18.5)" fill="#C4C4C4"/>
<rect x="9.54297" y="40.1875" width="0.628571" height="1.25" fill="#C4C4C4"/>
<rect x="9.54297" y="42.063" width="0.628571" height="1.25" fill="#C4C4C4"/>
<rect x="10.1714" y="42.063" width="0.625" height="1.25714" transform="rotate(-90 10.1714 42.063)" fill="#C4C4C4"/>
<rect x="8.28564" y="42.063" width="0.625" height="1.25714" transform="rotate(-90 8.28564 42.063)" fill="#C4C4C4"/>
<rect x="16.0286" y="1.4375" width="0.942857" height="1.875" fill="#C4C4C4"/>
<rect x="16.0286" y="4.24951" width="0.942857" height="1.875" fill="#C4C4C4"/>
<rect x="16.9714" y="4.24951" width="0.9375" height="1.88571" transform="rotate(-90 16.9714 4.24951)" fill="#C4C4C4"/>
<rect x="14.1428" y="4.24951" width="0.9375" height="1.88571" transform="rotate(-90 14.1428 4.24951)" fill="#C4C4C4"/>
<rect x="1.25732" y="26.4375" width="0.628571" height="1.25" fill="#C4C4C4"/>
<rect x="1.25732" y="28.313" width="0.628571" height="1.25" fill="#C4C4C4"/>
<rect x="1.88574" y="28.313" width="0.625" height="1.25714" transform="rotate(-90 1.88574 28.313)" fill="#C4C4C4"/>
<rect y="28.313" width="0.625" height="1.25714" transform="rotate(-90 0 28.313)" fill="#C4C4C4"/>
<rect x="38.9714" width="0.628571" height="1.25" fill="#C4C4C4"/>
<rect x="38.9714" y="1.87549" width="0.628571" height="1.25" fill="#C4C4C4"/>
<rect x="39.5999" y="1.87549" width="0.625" height="1.25714" transform="rotate(-90 39.5999 1.87549)" fill="#C4C4C4"/>
<rect x="37.7144" y="1.87549" width="0.625" height="1.25714" transform="rotate(-90 37.7144 1.87549)" fill="#C4C4C4"/>
<rect x="52.2573" y="6.4375" width="0.628571" height="1.25" fill="#C4C4C4"/>
<rect x="52.2573" y="8.31299" width="0.628571" height="1.25" fill="#C4C4C4"/>
<rect x="52.8857" y="8.31299" width="0.625" height="1.25714" transform="rotate(-90 52.8857 8.31299)" fill="#C4C4C4"/>
<rect x="51" y="8.31299" width="0.625" height="1.25714" transform="rotate(-90 51 8.31299)" fill="#C4C4C4"/>
<rect x="57.2573" y="18.4375" width="0.628571" height="1.25" fill="#C4C4C4"/>
<rect x="57.2573" y="20.313" width="0.628571" height="1.25" fill="#C4C4C4"/>
<rect x="57.8857" y="20.313" width="0.625" height="1.25714" transform="rotate(-90 57.8857 20.313)" fill="#C4C4C4"/>
<rect x="56" y="20.313" width="0.625" height="1.25714" transform="rotate(-90 56 20.313)" fill="#C4C4C4"/>
<rect x="13.8857" y="29.4375" width="0.942857" height="1.875" fill="#C4C4C4"/>
<rect x="13.8857" y="32.2495" width="0.942857" height="1.875" fill="#C4C4C4"/>
<rect x="14.8286" y="32.2495" width="0.9375" height="1.88571" transform="rotate(-90 14.8286 32.2495)" fill="#C4C4C4"/>
<rect x="12" y="32.2495" width="0.9375" height="1.88571" transform="rotate(-90 12 32.2495)" fill="#C4C4C4"/>
<g clip-path="url(#clip0)">
<path d="M44.8153 35.1894H39.4144V30.2355C39.4144 29.9765 39.2046 29.7667 38.9457 29.7667C38.6868 29.7667 38.4769 29.9765 38.4769 30.2355V35.1894H37.4429C37.4999 35.035 37.5311 34.8684 37.5311 34.6945V26.6515C37.5311 25.8616 36.8886 25.219 36.0987 25.219H23.6676C22.8778 25.219 22.2352 25.8616 22.2352 26.6515V34.6945C22.2352 34.8684 22.2664 35.035 22.3234 35.1894H21.2894V26.7736C21.2894 25.5141 22.1145 24.4144 23.2974 24.0947L28.1242 23.1091C28.1686 23.1574 28.2133 23.2057 28.2587 23.2539C28.7222 23.7475 29.3146 24.0192 29.9248 24.0192H29.9358C30.5478 24.0192 31.1395 23.748 31.6015 23.2561C31.6416 23.2136 31.6811 23.1709 31.7206 23.1282L36.4684 24.095C37.6516 24.4146 38.4769 25.5144 38.4769 26.7741V28.0589C38.4769 28.3178 38.6867 28.5276 38.9456 28.5276C39.2046 28.5276 39.4144 28.3178 39.4144 28.0589V26.7741C39.4144 25.085 38.2964 23.6092 36.6958 23.1854C36.687 23.1831 36.6782 23.181 36.6694 23.1792L31.9602 22.2201C31.9052 21.8478 31.8901 21.4792 31.9134 21.0929C31.9886 21.0412 32.062 20.9867 32.1331 20.9289C34.1977 19.2584 35.2014 17.8085 35.2014 16.4965C35.2014 16.3576 35.1957 16.222 35.1842 16.0878C35.1614 15.854 35.1448 15.0239 35.1401 13.8672H35.1397V9.88642L37.0549 9.24586C37.2461 9.18198 37.3749 9.00292 37.3749 8.80136C37.3749 8.59979 37.246 8.42073 37.0549 8.35686L30.0799 6.02379C29.9834 5.99142 29.8789 5.99142 29.7825 6.02379L22.8074 8.35679C22.6162 8.42067 22.4873 8.59973 22.4873 8.80129C22.4873 9.00286 22.6163 9.18192 22.8074 9.24579L24.7222 9.88623V13.8671C24.7176 15.0248 24.701 15.856 24.6775 16.0956C24.6665 16.2218 24.6609 16.3566 24.6609 16.4963C24.6609 17.8082 25.6641 19.2578 27.7269 20.9267C27.7949 20.982 27.865 21.034 27.9366 21.0838C27.9583 21.4595 27.9415 21.8251 27.8852 22.2009L23.0961 23.1789C23.0872 23.1807 23.0785 23.1827 23.0698 23.185C21.4696 23.6092 20.352 25.0848 20.352 26.7735V35.1892H15.1847C14.5314 35.1894 14 35.7204 14 36.3732C14 37.27 14.7303 37.9995 15.6278 37.9995H44.3722C45.2698 37.9995 46 37.27 46 36.3732C46 35.7204 45.4685 35.1894 44.8153 35.1894ZM30.9191 22.6134C30.6353 22.9155 30.2862 23.0817 29.9333 23.0817C29.9314 23.0817 29.9293 23.0817 29.9274 23.0817C29.5764 23.0817 29.2266 22.915 28.9415 22.6113C28.8919 22.5588 28.8431 22.5063 28.7952 22.4541C28.8467 22.1477 28.8756 21.8484 28.8827 21.5477C29.2181 21.6531 29.5694 21.7084 29.9239 21.7084H29.9379C30.2879 21.7084 30.6345 21.655 30.9655 21.5526C30.971 21.8614 30.9988 22.165 31.0501 22.4728C31.0071 22.5196 30.9633 22.5665 30.9191 22.6134ZM24.4339 8.80136L29.9312 6.96261L35.4284 8.80136L29.9312 10.64L28.6968 10.2272L30.0813 9.75892C30.3266 9.67598 30.4581 9.40998 30.3752 9.16473C30.2922 8.91942 30.026 8.78786 29.781 8.87086L27.2256 9.73511L24.4339 8.80136ZM26.7576 10.5671V13.4004H25.6597V10.1999L26.7576 10.5671ZM25.5984 16.4964C25.5984 16.3838 25.6027 16.2764 25.6109 16.1823C25.6396 15.8897 25.6519 15.0308 25.6571 14.3379H26.7576V15.3539C26.7576 15.6128 26.9674 15.8226 27.2264 15.8226C27.4853 15.8226 27.6951 15.6128 27.6951 15.3539V14.3379H30.4607C30.7196 14.3379 30.9294 14.128 30.9294 13.8691C30.9294 13.6102 30.7196 13.4004 30.4607 13.4004H27.6951V10.8807L29.7824 11.5788C29.8306 11.595 29.8809 11.603 29.9311 11.603C29.9814 11.603 30.0316 11.595 30.0798 11.5788L34.2022 10.2V13.4004H32.6041C32.3452 13.4004 32.1354 13.6102 32.1354 13.8691C32.1354 14.128 32.3452 14.3379 32.6041 14.3379H34.2053C34.2104 15.0299 34.2226 15.8865 34.2507 16.1737C34.2595 16.2757 34.2639 16.3843 34.2639 16.4965C34.2639 17.4795 33.3232 18.7602 31.5426 20.2009C31.0904 20.5686 30.5207 20.7709 29.936 20.7709C29.9327 20.7709 29.9292 20.7709 29.9258 20.7709C29.3421 20.7709 28.7714 20.5682 28.3177 20.1989C26.5387 18.7595 25.5984 17.4792 25.5984 16.4964ZM44.3722 37.062H15.6278C15.2471 37.062 14.9375 36.753 14.9375 36.3732C14.9375 36.2374 15.0484 36.1269 15.1847 36.1269H25.2745C25.5334 36.1269 25.7432 35.917 25.7432 35.6581C25.7432 35.3992 25.5334 35.1894 25.2745 35.1894H23.6676C23.3948 35.1894 23.1727 34.9674 23.1727 34.6945V26.6515C23.1727 26.3786 23.3948 26.1565 23.6676 26.1565H36.0987C36.3716 26.1565 36.5936 26.3786 36.5936 26.6515V34.6945C36.5936 34.9674 36.3716 35.1894 36.0987 35.1894H27.4306C27.1717 35.1894 26.9619 35.3992 26.9619 35.6581C26.9619 35.917 27.1717 36.1269 27.4306 36.1269H44.8153C44.9516 36.1269 45.0625 36.2374 45.0625 36.3732C45.0625 36.753 44.7528 37.062 44.3722 37.062Z" fill="white"/>
<path d="M29.8832 32.2469C30.7515 32.2469 31.4578 31.5409 31.4578 30.6732C31.4578 29.8055 30.7514 29.0996 29.8832 29.0996C29.0149 29.0996 28.3086 29.8055 28.3086 30.6732C28.3086 31.5409 29.015 32.2469 29.8832 32.2469ZM29.8832 30.0371C30.2345 30.0371 30.5203 30.3224 30.5203 30.6732C30.5203 31.024 30.2345 31.3094 29.8832 31.3094C29.5319 31.3094 29.2461 31.024 29.2461 30.6732C29.2461 30.3224 29.5319 30.0371 29.8832 30.0371Z" fill="white"/>
</g>
<defs>
<clipPath id="clip0">
<rect width="32" height="32" fill="white" transform="translate(14 6)"/>
</clipPath>
</defs>
</svg>
