<svg width="32" height="32" viewBox="0 0 32 32" fill="none" xmlns="http://www.w3.org/2000/svg">
<g clip-path="url(#clip0)">
<path d="M29.1919 13.2862L16.7113 0.803899C15.9753 0.0696482 14.7847 0.0783357 14.0581 0.802962C13.3276 1.5354 13.3276 2.72465 14.0581 3.45616L26.5405 15.9376C27.2717 16.6688 28.4605 16.6688 29.1919 15.9376C29.9252 15.2043 29.9252 14.0194 29.1919 13.2862Z" fill="white"/>
<path d="M13.1322 5.18164L13.0383 5.65252C12.3766 8.9624 10.7685 12.1068 8.59338 14.6554L15.3838 21.4458C17.932 19.2712 21.0332 17.62 24.3432 16.9574L24.815 16.8634L13.1322 5.18164Z" fill="white"/>
<path d="M7.34845 16.062L2.70762 20.7019C1.61106 21.7984 1.60649 23.5787 2.70762 24.6799L5.35899 27.3312C6.45557 28.4277 8.23582 28.4323 9.33694 27.3312L13.9774 22.6908L7.34845 16.062ZM8.01131 23.3541C7.64513 23.7204 7.05182 23.7204 6.68563 23.3541C6.31943 22.988 6.31943 22.3947 6.68563 22.0285L8.01131 20.7028C8.3775 20.3367 8.97082 20.3367 9.33701 20.7028C9.70319 21.0689 9.70319 21.6623 9.33701 22.0285L8.01131 23.3541Z" fill="white"/>
<path d="M17.8917 27.8302L19.1671 26.5548C20.2681 25.4538 20.2645 23.6735 19.1671 22.5779L18.2198 21.6299C17.6962 21.9816 17.1962 22.3638 16.7101 22.7715L17.8413 23.9044C18.2066 24.2679 18.2092 24.8594 17.8413 25.2291L16.5449 26.5255L14.6398 24.6798L11.9883 27.3312L16.2418 31.453C16.9678 32.1807 18.1596 32.1848 18.8924 31.452C19.6238 30.7204 19.6238 29.5312 18.8924 28.7996L17.8917 27.8302Z" fill="white"/>
<path d="M21.679 0C21.1608 0 20.7416 0.419313 20.7416 0.937501V2.81251C20.7416 3.33069 21.1608 3.75001 21.679 3.75001C22.1972 3.75001 22.6165 3.33069 22.6165 2.81251V0.937501C22.6165 0.419313 22.1972 0 21.679 0Z" fill="white"/>
<path d="M29.1791 7.5H27.304C26.7859 7.5 26.3666 7.91932 26.3666 8.43751C26.3666 8.95569 26.7859 9.375 27.304 9.375H29.1791C29.6972 9.375 30.1166 8.95569 30.1166 8.43751C30.1166 7.91932 29.6972 7.5 29.1791 7.5Z" fill="white"/>
<path d="M27.9668 2.14965C27.6006 1.78345 27.0074 1.78345 26.6411 2.14965L24.7662 4.02465C24.3999 4.39084 24.3999 4.98414 24.7662 5.35034C25.1323 5.71653 25.7256 5.71658 26.0918 5.35034L27.9668 3.47533C28.333 3.10914 28.333 2.51584 27.9668 2.14965Z" fill="white"/>
</g>
<defs>
<clipPath id="clip0">
<rect width="32" height="32" fill="white"/>
</clipPath>
</defs>
</svg>
