<svg width="100" height="100" viewBox="0 0 100 100" fill="none" xmlns="http://www.w3.org/2000/svg">
<path d="M90.0536 22.6631C89.2335 22.6631 88.569 23.3276 88.569 24.1478V92.0097C88.569 94.7776 86.316 97.0298 83.5473 97.0298H37.3353C36.5151 97.0298 35.8499 97.6944 35.8499 98.5145C35.8499 99.3347 36.5151 100 37.3353 100H83.5465C87.954 100 91.5391 96.4157 91.5391 92.0097V24.1478C91.5391 23.3276 90.8738 22.6631 90.0536 22.6631V22.6631Z" fill="#30485F"/>
<path d="M83.5464 0H22.9683C18.5631 0 14.9788 3.58429 14.9788 7.99026V10.2585H13.7543C10.8009 10.2585 8.39844 12.6617 8.39844 15.6143C8.39844 18.5677 10.8009 20.9702 13.7543 20.9702H14.9788V24.0128H13.7543C10.8009 24.0128 8.39844 26.4153 8.39844 29.3686C8.39844 32.3219 10.8009 34.7244 13.7543 34.7244H14.9788V37.767H13.7543C10.8009 37.767 8.39844 40.1695 8.39844 43.1229C8.39844 46.0762 10.8009 48.4787 13.7543 48.4787H14.9788V51.5213H13.7543C10.8009 51.5213 8.39844 53.9238 8.39844 56.8771C8.39844 59.8305 10.8009 62.233 13.7543 62.233H14.9788V65.2756H13.7543C10.8009 65.2756 8.39844 67.6781 8.39844 70.6314C8.39844 73.584 10.8009 75.9872 13.7543 75.9872H14.9788V79.0298H13.7543C10.8009 79.0298 8.39844 81.4323 8.39844 84.3857C8.39844 87.3383 10.8009 89.7415 13.7543 89.7415H14.9788V92.0097C14.9788 96.4149 18.5631 99.9992 22.9691 99.9992H31.3942C32.2151 99.9992 32.8796 99.3347 32.8796 98.5146C32.8796 97.6944 32.2151 97.0291 31.3942 97.0291H22.9683C20.2003 97.0291 17.9489 94.7777 17.9489 92.0097V89.7415H19.9478C22.9012 89.7415 25.3036 87.3383 25.3036 84.3857C25.3036 81.4323 22.9012 79.0298 19.9478 79.0298H17.9489V75.9872H19.9478C22.9012 75.9872 25.3036 73.584 25.3036 70.6314C25.3036 67.6781 22.9012 65.2756 19.9478 65.2756H17.9489V62.233H19.9478C22.9012 62.233 25.3036 59.8305 25.3036 56.8771C25.3036 53.9238 22.9012 51.5213 19.9478 51.5213H17.9489V48.4787H19.9478C22.9012 48.4787 25.3036 46.0762 25.3036 43.1229C25.3036 40.1695 22.9012 37.767 19.9478 37.767H17.9489V34.7244H19.9478C22.9012 34.7244 25.3036 32.3219 25.3036 29.3686C25.3036 26.416 22.9012 24.0128 19.9478 24.0128H17.9489V20.9709H19.9478C22.9012 20.9709 25.3036 18.5684 25.3036 15.6151C25.3036 12.6617 22.9012 10.2592 19.9478 10.2592H17.9489V7.99026C17.9489 5.22232 20.2011 2.97012 22.9691 2.97012H83.5472C86.3159 2.97012 88.5689 5.22232 88.5689 7.99026V18.2068C88.5689 19.0269 89.2334 19.6922 90.0536 19.6922C90.8745 19.6922 91.539 19.0269 91.539 18.2068V7.99026C91.539 3.58429 87.9539 0 83.5464 0V0ZM22.3335 84.3857C22.3335 85.701 21.2631 86.7714 19.9478 86.7714H13.7543C12.439 86.7714 11.3686 85.701 11.3686 84.3857C11.3686 83.0704 12.439 82 13.7543 82H19.9478C21.2631 82 22.3335 83.0704 22.3335 84.3857V84.3857ZM22.3335 70.6314C22.3335 71.9467 21.2631 73.0171 19.9478 73.0171H13.7543C12.439 73.0171 11.3686 71.9467 11.3686 70.6314C11.3686 69.3161 12.439 68.2457 13.7543 68.2457H19.9478C21.2631 68.2457 22.3335 69.3161 22.3335 70.6314V70.6314ZM22.3335 56.8771C22.3335 58.1924 21.2631 59.2628 19.9478 59.2628H13.7543C12.439 59.2628 11.3686 58.1924 11.3686 56.8771C11.3686 55.5618 12.439 54.4914 13.7543 54.4914H19.9478C21.2631 54.4914 22.3335 55.5618 22.3335 56.8771V56.8771ZM22.3335 43.1229C22.3335 44.4389 21.2631 45.5086 19.9478 45.5086H13.7543C12.439 45.5086 11.3686 44.4389 11.3686 43.1229C11.3686 41.8076 12.439 40.7372 13.7543 40.7372H19.9478C21.2631 40.7372 22.3335 41.8076 22.3335 43.1229ZM22.3335 29.3686C22.3335 30.6847 21.2631 31.7543 19.9478 31.7543H16.4658C16.465 31.7543 16.4642 31.7543 16.4635 31.7543C16.4627 31.7543 16.4627 31.7543 16.4619 31.7543H13.7543C12.439 31.7543 11.3686 30.6847 11.3686 29.3686C11.3686 28.0533 12.439 26.9836 13.7543 26.9836H16.4467C16.452 26.9836 16.4581 26.9844 16.4635 26.9844C16.4696 26.9844 16.4749 26.9836 16.481 26.9836H19.9478C21.2631 26.9836 22.3335 28.0533 22.3335 29.3686ZM22.3335 15.6143C22.3335 16.9304 21.2631 18 19.9478 18H16.4711C16.4688 18 16.4665 18 16.4635 18C16.4612 18 16.4581 18 16.4558 18H13.7543C12.439 18 11.3686 16.9304 11.3686 15.6143C11.3686 14.299 12.439 13.2294 13.7543 13.2294H16.452H16.4635H16.4749H19.9478C21.2631 13.2294 22.3335 14.299 22.3335 15.6143Z" fill="#30485F"/>
<path d="M52.4368 38.6681C54.2022 36.7485 54.1404 33.7998 52.2964 31.955L45.3346 24.9932C44.3214 23.9808 42.9237 23.4688 41.4955 23.5894C40.0688 23.7107 38.7756 24.45 37.9478 25.618L33.448 31.9672C30.2703 36.4518 30.4618 42.5751 33.9141 46.859C41.336 56.0677 49.7688 64.5005 58.9782 71.9223C61.2266 73.7336 63.9808 74.6476 66.7396 74.6476C69.2375 74.6476 71.7384 73.8984 73.87 72.3893L80.2192 67.8894C81.3873 67.0617 82.1266 65.7685 82.2479 64.341C82.3684 62.9143 81.8565 61.5151 80.8441 60.5027L73.8823 53.5408C72.0375 51.6961 69.0887 51.6343 67.1691 53.4005L62.9325 57.2968C62.59 57.6119 62.0735 57.6424 61.7027 57.3708C56.6299 53.6599 52.1766 49.2066 48.4657 44.1346C48.1941 43.7638 48.2254 43.2465 48.5397 42.9047L52.4368 38.6681ZM41.7465 26.5496C41.7999 26.545 41.8525 26.5427 41.9059 26.5427C42.4026 26.5427 42.8794 26.7388 43.2342 27.0935L50.196 34.0554C50.9109 34.7702 50.9346 35.9131 50.2502 36.6578L48.9891 38.0288L39.5103 28.55L40.3709 27.3354C40.6921 26.883 41.1933 26.5961 41.7465 26.5496ZM71.7811 55.6412L78.7437 62.603C79.1359 62.996 79.3342 63.5384 79.2877 64.0908C79.2411 64.6439 78.9543 65.1452 78.5011 65.4663L77.2873 66.3269L67.8077 56.8482L69.1795 55.5863C69.9241 54.9019 71.067 54.9263 71.7811 55.6412ZM59.9487 59.7687C61.4601 60.875 63.5604 60.7552 64.9429 59.4834L65.6204 58.8608L74.8291 68.0695L72.1527 69.9654C68.7469 72.3786 64.096 72.2321 60.8429 69.6099C51.7974 62.3208 43.5157 54.039 36.2274 44.9952C33.6044 41.7405 33.4587 37.0903 35.8718 33.6846L37.7677 31.009L46.9764 40.2169L46.3531 40.8944C45.082 42.2768 44.9623 44.3772 46.0685 45.8886C49.9595 51.207 54.6295 55.877 59.9487 59.7687Z" fill="#30485F"/>
</svg>
