<svg width="100" height="100" viewBox="0 0 100 100" fill="none" xmlns="http://www.w3.org/2000/svg">
<g clip-path="url(#clip0)">
<path d="M52.5179 54.9885H12.4164C11.6074 54.9885 10.9515 55.6442 10.9515 56.4534C10.9515 57.2625 11.6074 57.9182 12.4164 57.9182H52.5177C53.3269 57.9182 53.9826 57.2624 53.9826 56.4534C53.9828 55.6442 53.3269 54.9885 52.5179 54.9885V54.9885Z" fill="#30485F"/>
<path d="M52.5179 64.2324H12.4164C11.6074 64.2324 10.9515 64.8881 10.9515 65.6973C10.9515 66.5064 11.6074 67.1621 12.4164 67.1621H52.5177C53.3269 67.1621 53.9826 66.5064 53.9826 65.6973C53.9828 64.8881 53.3269 64.2324 52.5179 64.2324V64.2324Z" fill="#30485F"/>
<path d="M32.4672 73.4768H12.4164C11.6074 73.4768 10.9515 74.1327 10.9515 74.9417C10.9515 75.7508 11.6074 76.4065 12.4164 76.4065H32.4672C33.2761 76.4065 33.932 75.7508 33.932 74.9417C33.932 74.1325 33.2761 73.4768 32.4672 73.4768Z" fill="#30485F"/>
<path d="M91.0564 36.5H50.9548C50.1458 36.5 49.49 37.1557 49.49 37.9648C49.49 38.774 50.1458 39.4297 50.9548 39.4297H91.0564C91.8656 39.4297 92.5212 38.774 92.5212 37.9648C92.5212 37.1557 91.8656 36.5 91.0564 36.5Z" fill="#30485F"/>
<path d="M91.0564 45.7441H71.0056C70.1964 45.7441 69.5408 46.3998 69.5408 47.209C69.5408 48.0182 70.1964 48.6738 71.0056 48.6738H91.0564C91.8656 48.6738 92.5212 48.0182 92.5212 47.209C92.5212 46.3998 91.8656 45.7441 91.0564 45.7441V45.7441Z" fill="#30485F"/>
<path d="M9.07227 11.1853H38.3697C39.1787 11.1853 39.8346 10.5296 39.8346 9.72046C39.8346 8.91128 39.1787 8.25562 38.3697 8.25562H9.07227C8.26328 8.25562 7.60742 8.91128 7.60742 9.72046C7.60742 10.5296 8.26328 11.1853 9.07227 11.1853V11.1853Z" fill="#30485F"/>
<path d="M9.07227 18.509H23.7209C24.5299 18.509 25.1857 17.8534 25.1857 17.0442C25.1857 16.235 24.5299 15.5793 23.7209 15.5793H9.07227C8.26328 15.5793 7.60742 16.235 7.60742 17.0442C7.60742 17.8534 8.26328 18.509 9.07227 18.509V18.509Z" fill="#30485F"/>
<path d="M55.4768 44.0671H9.45742C4.24434 44.0671 0.00292969 48.3084 0.00292969 53.5216V77.2908C0.00292969 82.5041 4.24414 86.7453 9.45742 86.7453H9.7877L7.89453 97.2568C7.71563 98.2503 8.19238 99.2402 9.08086 99.7195C9.98027 100.205 11.0676 100.045 11.7904 99.3587L24.7527 87.0543C24.9627 86.8548 25.2375 86.7453 25.527 86.7453H55.4766C60.6898 86.7453 64.9311 82.5041 64.9311 77.2908V53.5216C64.9314 48.3084 60.69 44.0671 55.4768 44.0671V44.0671ZM62.0016 77.2908C62.0016 80.8884 59.0744 83.8156 55.4768 83.8156H25.5272C24.4838 83.8156 23.4926 84.2111 22.7357 84.9294L11.1027 95.972L12.7465 86.8457C13.0311 85.2658 11.816 83.8154 10.2133 83.8154H9.45742C5.85977 83.8154 2.93281 80.8882 2.93281 77.2906V53.5216C2.93281 49.924 5.85977 46.9968 9.45742 46.9968H55.4768C59.0744 46.9968 62.0016 49.924 62.0016 53.5216V77.2908Z" fill="#30485F"/>
<path d="M5.74919 26.0566H16.675C16.6974 26.0566 16.7183 26.0688 16.7295 26.0879L21.3961 34.1445C21.882 34.9838 22.7513 35.4848 23.7211 35.4848C24.691 35.4848 25.5601 34.9838 26.0463 34.1445L30.7127 26.0881C30.724 26.0686 30.7449 26.0566 30.7674 26.0566H41.6929C44.8199 26.0566 47.3637 23.5127 47.3637 20.3857V5.6707C47.3635 2.54395 44.8197 0 41.6928 0H5.74919C2.62244 0 0.0784912 2.54395 0.0784912 5.6707V6.28965C0.0784912 7.09883 0.734351 7.75449 1.54334 7.75449C2.35232 7.75449 3.00818 7.09883 3.00818 6.28965V5.6707C3.00837 4.15918 4.23787 2.92969 5.74919 2.92969H41.6928C43.2041 2.92969 44.4338 4.15918 44.4338 5.67051V20.3855C44.4338 21.8969 43.2041 23.1266 41.6928 23.1266H30.7672C29.7031 23.1266 28.7107 23.6986 28.1773 24.6193L23.7209 32.3131L19.2646 24.6193C18.7312 23.6986 17.739 23.1266 16.6748 23.1266H5.749C4.23767 23.1266 3.00818 21.8969 3.00818 20.3855V13.1373C3.00818 12.3281 2.35232 11.6725 1.54334 11.6725C0.734351 11.6725 0.0784912 12.3281 0.0784912 13.1373V20.3857C0.0784912 23.5127 2.62244 26.0566 5.74919 26.0566V26.0566Z" fill="#30485F"/>
<path d="M91.4375 27.4912H50.5737C45.8539 27.4912 42.0143 31.3311 42.0143 36.0506V38.6846C42.0143 39.4937 42.6701 40.1494 43.4791 40.1494C44.2881 40.1494 44.944 39.4937 44.944 38.6846V36.0506C44.944 32.9463 47.4694 30.4209 50.5735 30.4209H91.4375C94.5418 30.4209 97.0672 32.9463 97.0672 36.0506V56.8805C97.0672 59.9848 94.5418 62.5101 91.4375 62.5101H90.7662C89.2381 62.5101 88.085 63.8928 88.3553 65.3939L89.726 73.0051L79.7598 63.5445C79.0574 62.8775 78.1369 62.5101 77.168 62.5101H70.3143C69.5051 62.5101 68.8494 63.1658 68.8494 63.975C68.8494 64.7842 69.5051 65.4398 70.3143 65.4398H77.168C77.3828 65.4398 77.5869 65.5213 77.7426 65.6691L89.2526 76.5953C89.9526 77.2596 90.9965 77.4017 91.8498 76.9408C92.7014 76.4812 93.158 75.5326 92.9864 74.5806L91.3403 65.44H91.4373C96.1571 65.44 99.9967 61.6002 99.9967 56.8807V36.0506C99.9969 31.3309 96.1573 27.4912 91.4375 27.4912V27.4912Z" fill="#30485F"/>
</g>
<defs>
<clipPath id="clip0">
<rect width="100" height="100" fill="white"/>
</clipPath>
</defs>
</svg>
