<svg width="100" height="100" viewBox="0 0 100 100" fill="none" xmlns="http://www.w3.org/2000/svg">
<g clip-path="url(#clip0)">
<path d="M75.7298 10.281H75.7186C74.6401 10.281 73.771 11.1554 73.771 12.2341C73.771 13.3128 74.6511 14.1873 75.7296 14.1873C76.8081 14.1873 77.6827 13.3128 77.6827 12.2341C77.6827 11.1554 76.8085 10.281 75.7298 10.281V10.281Z" fill="#30485F"/>
<path d="M86.271 10.281H86.2599C85.1814 10.281 84.3123 11.1554 84.3123 12.2341C84.3123 13.3128 85.1923 14.1873 86.2709 14.1873C87.3494 14.1873 88.224 13.3128 88.224 12.2341C88.224 11.1554 87.3496 10.281 86.271 10.281V10.281Z" fill="#30485F"/>
<path d="M65.1888 10.281H65.1776C64.0991 10.281 63.23 11.1554 63.23 12.2341C63.23 13.3128 64.1101 14.1873 65.1886 14.1873C66.2671 14.1873 67.1417 13.3128 67.1417 12.2341C67.1417 11.1554 66.2673 10.281 65.1888 10.281V10.281Z" fill="#30485F"/>
<path d="M43.0714 10.281H13.7234C12.6447 10.281 11.7703 11.1554 11.7703 12.2341C11.7703 13.3128 12.6447 14.1873 13.7234 14.1873H43.0714C44.1501 14.1873 45.0246 13.3128 45.0246 12.2341C45.0246 11.1554 44.1501 10.281 43.0714 10.281V10.281Z" fill="#30485F"/>
<path d="M93.7342 0H6.26602C2.81094 0 0 2.81094 0 6.26602V78.5869C0 82.042 2.81094 84.8529 6.26602 84.8529H16.7252V92.7213C16.7252 96.735 19.9906 100 24.0043 100H75.9959C80.0096 100 83.275 96.735 83.275 92.7213V84.8529H93.7344C97.1893 84.8529 100 82.042 100 78.5869V6.26602C100 2.81094 97.1891 0 93.7342 0V0ZM96.0938 78.5867C96.0938 79.8879 95.0352 80.9465 93.7342 80.9465H83.2748V40.7295C83.2748 36.7158 80.0094 33.4504 75.9957 33.4504H58.7611C57.6826 33.4504 56.808 34.3248 56.808 35.4035C56.808 36.4822 57.6826 37.3566 58.7611 37.3566H75.9957C77.8553 37.3566 79.3686 38.8697 79.3686 40.7295V92.7211C79.3686 94.5809 77.8555 96.0939 75.9957 96.0939H24.0043C22.1445 96.0939 20.6314 94.5809 20.6314 92.7211V40.7295C20.6314 38.8697 22.1445 37.3566 24.0043 37.3566H41.2166C42.2953 37.3566 43.1697 36.4822 43.1697 35.4035C43.1697 34.3248 42.2953 33.4504 41.2166 33.4504H24.0043C19.9906 33.4504 16.7252 36.7158 16.7252 40.7295V80.9465H6.26602C4.96484 80.9465 3.90625 79.8879 3.90625 78.5867V24.4736H96.0938V78.5867ZM96.0938 20.5674H3.90625V6.26602C3.90625 4.96484 4.96484 3.90625 6.26602 3.90625H93.7342C95.0352 3.90625 96.0938 4.96484 96.0938 6.26602V20.5674Z" fill="#30485F"/>
<path d="M27.1545 54.5248C28.2333 54.5248 29.1077 53.6503 29.1077 52.5716V45.8328H35.8465C36.9252 45.8328 37.7997 44.9583 37.7997 43.8796C37.7997 42.8009 36.9252 41.9265 35.8465 41.9265H27.1545C26.0758 41.9265 25.2014 42.8009 25.2014 43.8796V52.5716C25.2014 53.6501 26.0758 54.5248 27.1545 54.5248Z" fill="#30485F"/>
<path d="M64.1479 45.8328H70.8925V52.5716C70.8925 53.6503 71.7671 54.5248 72.8456 54.5248C73.9241 54.5248 74.7987 53.6503 74.7987 52.5716V43.8796C74.7987 42.8009 73.9241 41.9265 72.8456 41.9265H64.1479C63.0694 41.9265 62.1948 42.8009 62.1948 43.8796C62.1948 44.9583 63.0692 45.8328 64.1479 45.8328Z" fill="#30485F"/>
<path d="M35.8465 87.6178H29.1077V80.8733C29.1077 79.7946 28.2333 78.9202 27.1545 78.9202C26.0758 78.9202 25.2014 79.7946 25.2014 80.8733V89.5709C25.2014 90.6497 26.0758 91.5241 27.1545 91.5241H35.8465C36.9252 91.5241 37.7997 90.6497 37.7997 89.5709C37.7997 88.4922 36.9252 87.6178 35.8465 87.6178Z" fill="#30485F"/>
<path d="M72.8456 78.9202C71.7671 78.9202 70.8925 79.7946 70.8925 80.8733V87.6178H64.1479C63.0694 87.6178 62.1948 88.4922 62.1948 89.5709C62.1948 90.6497 63.0694 91.5241 64.1479 91.5241H72.8456C73.9241 91.5241 74.7987 90.6497 74.7987 89.5709V80.8733C74.7987 79.7946 73.9241 78.9202 72.8456 78.9202Z" fill="#30485F"/>
<path d="M43.0503 66.7225C43.0503 70.5561 46.1667 73.675 49.9972 73.675C53.8306 73.675 56.9495 70.5561 56.9495 66.7225C56.9495 62.892 53.8306 59.7756 49.9972 59.7756C46.1667 59.7756 43.0503 62.8918 43.0503 66.7225ZM53.0433 66.7225C53.0433 68.4022 51.6769 69.7688 49.9972 69.7688C48.3206 69.7688 46.9565 68.4022 46.9565 66.7225C46.9565 65.0459 48.3206 63.6819 49.9972 63.6819C51.6769 63.6819 53.0433 65.0459 53.0433 66.7225Z" fill="#30485F"/>
<path d="M32.7354 57.3916C29.26 59.7888 25.2014 63.671 25.2014 66.7224C25.2014 69.7763 29.26 73.6587 32.7356 76.0556C35.7909 78.1626 42.0959 81.697 49.9973 81.697C57.8987 81.697 64.2055 78.1626 67.2616 76.0558C70.7385 73.6589 74.7989 69.7763 74.7989 66.7224C74.7989 63.671 70.7387 59.7888 67.2618 57.3914C64.2051 55.2837 57.8977 51.7478 49.9973 51.7478C42.0969 51.7478 35.7911 55.2837 32.7354 57.3916V57.3916ZM29.1098 66.7226C29.2057 66.1201 30.6215 63.7589 34.2819 61.0841C33.6401 62.8728 33.3008 64.7771 33.3008 66.7224C33.3008 68.6681 33.6405 70.5738 34.2832 72.3638C30.6198 69.6874 29.2049 67.3251 29.1098 66.7226ZM65.7122 61.0814C69.3764 63.7574 70.794 66.1195 70.8903 66.7226C70.7948 67.3255 69.3782 69.6892 65.7106 72.3666C66.3538 70.5753 66.6934 68.6687 66.6934 66.7222C66.6936 64.7763 66.3541 62.871 65.7122 61.0814V61.0814ZM62.7874 66.7224C62.7874 70.3312 61.2623 73.7599 58.5979 76.1894C56.1317 77.1029 53.2098 77.7906 49.9973 77.7906C46.7879 77.7906 43.869 77.1041 41.4047 76.1919C38.735 73.7638 37.2073 70.3339 37.2073 66.7222C37.2073 63.1048 38.7381 59.6738 41.4127 57.2505C43.8754 56.3394 46.7916 55.6539 49.9975 55.6539C53.2063 55.6539 56.1254 56.3406 58.5901 57.2531C61.2594 59.6781 62.7874 63.108 62.7874 66.7224V66.7224Z" fill="#30485F"/>
<path d="M49.9917 37.3564H49.9972C51.0759 37.3564 51.9476 36.482 51.9476 35.4033C51.9476 34.3246 51.0704 33.4502 49.9917 33.4502C48.913 33.4502 48.0386 34.3246 48.0386 35.4033C48.0386 36.482 48.913 37.3564 49.9917 37.3564V37.3564Z" fill="#30485F"/>
</g>
<defs>
<clipPath id="clip0">
<rect width="100" height="100" fill="white"/>
</clipPath>
</defs>
</svg>
