<svg width="32" height="32" viewBox="0 0 32 32" fill="none" xmlns="http://www.w3.org/2000/svg">
<path d="M23.377 15.1093C22.96 11.7075 20.2751 9.02936 16.8722 8.62104C16.5792 8.58761 16.2846 8.57085 15.9896 8.5708C12.9823 8.57541 10.2744 10.3929 9.13079 13.1744C7.98716 15.9558 8.63347 19.1524 10.7678 21.2712C11.9028 22.3581 12.5528 23.856 12.5714 25.4273V26.2857H19.4286V25.4229C19.4338 23.8812 20.0608 22.4069 21.1679 21.334C22.84 19.7206 23.6579 17.4161 23.3768 15.1096V15.1093H23.377Z" fill="white"/>
<path d="M16 31.9999C16.7263 31.9991 17.3735 31.5415 17.6164 30.8569H14.3837C14.6265 31.5415 15.2737 31.9991 16 31.9999Z" fill="white"/>
<path d="M13.1429 29.1431C13.1433 29.4584 13.3988 29.714 13.7143 29.7144H18.2858C18.6012 29.714 18.8567 29.4584 18.8572 29.1431V27.4287H13.1429V29.1431Z" fill="white"/>
<path d="M16 5.14288C16.6312 5.14288 17.1429 4.63119 17.1429 4V1.14287C17.1429 0.511688 16.6312 0 16 0C15.3688 0 14.8572 0.511688 14.8572 1.14287V4C14.8572 4.63119 15.3688 5.14288 16 5.14288Z" fill="white"/>
<path d="M6.35493 7.97125C6.80719 8.40319 7.51907 8.40319 7.97131 7.97125C8.18569 7.75693 8.30612 7.46619 8.30612 7.16307C8.30612 6.85993 8.18569 6.56919 7.97131 6.35488L5.95088 4.33481C5.73663 4.12044 5.44593 4 5.14288 4C4.83981 4 4.54912 4.12044 4.33481 4.33481C4.12044 4.54907 4 4.83975 4 5.14288C4 5.446 4.12044 5.73663 4.33481 5.95093L6.35493 7.97125Z" fill="white"/>
<path d="M5.14288 15.9999C5.14288 15.3687 4.63119 14.8569 4 14.8569H1.14287C0.511937 14.8576 0.000625 15.3689 0 15.9999C0.000625 16.6308 0.511937 17.1421 1.14287 17.1428H4C4.63119 17.1428 5.14288 16.6311 5.14288 15.9999Z" fill="white"/>
<path d="M7.45975 23.7312C7.06475 23.6256 6.6435 23.739 6.35494 24.0288L4.33487 26.049C4.1205 26.2633 4.00006 26.5541 4.00006 26.8572C4.00006 27.1602 4.1205 27.4509 4.33487 27.6652C4.78701 28.0972 5.49882 28.0972 5.95094 27.6652L7.97133 25.6452C8.26094 25.3566 8.37445 24.9353 8.26889 24.5404C8.16333 24.1453 7.85475 23.8368 7.45975 23.7312Z" fill="white"/>
<path d="M25.6451 24.0288C25.3565 23.7392 24.9352 23.6256 24.5402 23.7312C24.1452 23.8368 23.8367 24.1452 23.7312 24.5402C23.6256 24.9352 23.739 25.3565 24.0286 25.645L26.0491 27.665C26.5012 28.097 27.213 28.097 27.6652 27.665C27.8796 27.4509 28 27.1601 28 26.857C28 26.554 27.8796 26.2633 27.6652 26.049L25.6451 24.0288Z" fill="white"/>
<path d="M30.8572 14.8569H28C27.3688 14.8569 26.8572 15.3687 26.8572 15.9999C26.8572 16.6311 27.3688 17.1428 28 17.1428H30.8572C31.4882 17.1428 32 16.6311 32 15.9999C32 15.3687 31.4882 14.8569 30.8572 14.8569Z" fill="white"/>
<path d="M25.6451 7.97122L27.6651 5.95085C27.9539 5.66217 28.0666 5.24141 27.961 4.84703C27.8552 4.45266 27.5472 4.14466 27.1528 4.03898C26.7584 3.93329 26.3378 4.04603 26.049 4.33473L24.0287 6.35479C23.8143 6.5691 23.6939 6.85985 23.6939 7.16298C23.6939 7.4661 23.8143 7.75685 24.0287 7.97117C24.481 8.40317 25.193 8.40316 25.6451 7.97122Z" fill="white"/>
</svg>
