<svg width="198" height="32" viewBox="0 0 198 32" fill="none" xmlns="http://www.w3.org/2000/svg">
<path d="M32 16.0625C32 14.3218 31.1875 12.7583 29.9175 11.7263C30.7186 8.09547 28.143 4.42525 24.355 3.93063C23.9382 1.72563 21.9982 0 19.75 0C18.6956 0 17.7219 0.35 16.9375 0.94V9.06187C17.6626 8.41 18.56 7.94127 19.5638 7.73753C20.0706 7.6344 20.5656 7.96253 20.6688 8.47C20.7719 8.97753 20.4438 9.47187 19.9363 9.575C18.1988 9.92747 16.9375 11.4731 16.9375 13.25V20.3119C17.6626 19.66 18.56 19.1913 19.5638 18.9875C20.0706 18.8844 20.5656 19.2125 20.6688 19.72C20.7719 20.2275 20.4438 20.7219 19.9363 20.825C18.1988 21.1775 16.9375 22.7231 16.9375 24.5V31.06C17.7219 31.65 18.6956 32 19.75 32C22.0332 32 23.9406 30.3594 24.3544 28.1944C28.0765 27.7084 30.7052 24.1391 29.9288 20.3613C31.2369 19.28 32 17.7181 32 16.0625Z" fill="#97A3AF"/>
<path d="M7.645 3.93063C3.86206 4.42463 1.28037 8.09107 2.0825 11.7263C0.78394 12.7815 0 14.3598 0 16.0625C0 17.7181 0.763127 19.28 2.07125 20.3613C1.29419 24.1423 3.92644 27.7087 7.6456 28.1944C8.0594 30.3594 9.96687 32 12.25 32C13.3044 32 14.2781 31.65 15.0625 31.06C15.0625 29.7216 15.0625 25.8354 15.0625 24.5C15.0625 22.7231 13.8013 21.1775 12.0637 20.825C11.5563 20.7219 11.2281 20.2275 11.3313 19.72C11.4344 19.2125 11.9287 18.8844 12.4363 18.9875C13.44 19.1913 14.3375 19.66 15.0625 20.3119V13.25C15.0625 11.4731 13.8013 9.92747 12.0637 9.575C11.5563 9.47187 11.2281 8.97747 11.3313 8.47C11.4344 7.96247 11.9287 7.6344 12.4363 7.73753C13.44 7.94127 14.3375 8.41 15.0625 9.06187C15.0625 7.45707 15.0625 2.58687 15.0625 0.94C14.2781 0.35 13.3044 0 12.25 0C10.0019 0 8.06187 1.72563 7.645 3.93063Z" fill="#97A3AF"/>
<path d="M16 26.6668C21.891 26.6668 26.6666 21.8912 26.6666 16.0002C26.6666 10.1091 21.891 5.3335 16 5.3335C10.1089 5.3335 5.33331 10.1091 5.33331 16.0002C5.33331 21.8912 10.1089 26.6668 16 26.6668Z" fill="#C4C4C4"/>
<path d="M20.475 11.9316L14.0544 18.3522L11.525 15.8228L10.6667 16.6811L14.0544 20.0688L21.3334 12.7899L20.475 11.9316Z" fill="#97A3AF"/>
<path d="M55.6585 21.6322H51.5767L47.3689 13.516H47.298C47.3978 14.7925 47.4477 15.767 47.4477 16.4394V21.6322H44.6898V10.1119H48.7557L52.9478 18.1178H52.9951C52.9215 16.9569 52.8848 16.0244 52.8848 15.3205V10.1119H55.6585V21.6322ZM64.9882 21.6322H58.1485V10.1119H64.9882V12.6098H61.2611V14.4222H64.7125V16.9201H61.2611V19.0949H64.9882V21.6322ZM77.7852 15.8563C77.7852 17.7947 77.3097 19.2683 76.3588 20.2769C75.4081 21.2855 74.016 21.7899 72.1825 21.7899C70.3754 21.7899 68.9886 21.2829 68.022 20.269C67.0606 19.2551 66.58 17.779 66.58 15.8405C66.58 13.9232 67.058 12.4601 68.0141 11.4515C68.9755 10.4376 70.3701 9.93066 72.1983 9.93066C74.0317 9.93066 75.4211 10.4323 76.3667 11.4357C77.3123 12.4391 77.7852 13.9126 77.7852 15.8563ZM69.858 15.8563C69.858 18.0837 70.6328 19.1974 72.1825 19.1974C72.9705 19.1974 73.5536 18.9268 73.9319 18.3857C74.3153 17.8447 74.5071 17.0016 74.5071 15.8563C74.5071 14.7058 74.3127 13.8574 73.924 13.3112C73.5405 12.7595 72.9653 12.4837 72.1983 12.4837C70.6381 12.4837 69.858 13.6079 69.858 15.8563ZM86.934 21.6322L86.3665 19.4732H82.6234L82.0407 21.6322H78.6204L82.3787 10.0646H86.5315L90.3373 21.6322H86.934ZM85.7201 16.9201L85.2234 15.029C85.1078 14.6087 84.9661 14.065 84.7984 13.3978C84.6353 12.7306 84.5277 12.2526 84.4748 11.9636C84.4282 12.2315 84.3331 12.6728 84.1915 13.2875C84.0552 13.9021 83.7477 15.113 83.2698 16.9201H85.7201ZM99.1236 18.1336C99.1236 18.848 98.9425 19.4837 98.5802 20.0405C98.2171 20.5921 97.6945 21.0229 97.0122 21.3328C96.329 21.6375 95.5275 21.7899 94.6085 21.7899C93.842 21.7899 93.1982 21.7373 92.6782 21.6322C92.1582 21.522 91.6167 21.3328 91.0546 21.0649V18.2912C91.6481 18.5959 92.2658 18.8349 92.9069 19.0082C93.5479 19.1763 94.136 19.2604 94.6713 19.2604C95.1339 19.2604 95.4728 19.1816 95.688 19.024C95.9031 18.8612 96.0116 18.6536 96.0116 18.4015C96.0116 18.2439 95.9668 18.1074 95.8771 17.9918C95.7929 17.8709 95.6539 17.7501 95.4593 17.6293C95.2702 17.5085 94.7609 17.2616 93.9307 16.8886C93.1794 16.5471 92.6146 16.2162 92.2371 15.8957C91.8642 15.5752 91.5853 15.2076 91.4016 14.7925C91.2231 14.3775 91.1335 13.8864 91.1335 13.319C91.1335 12.2578 91.5199 11.4305 92.2918 10.8368C93.0638 10.2432 94.1253 9.94643 95.4755 9.94643C96.6679 9.94643 97.8836 10.2222 99.1236 10.7738L98.1705 13.1771C97.0938 12.6834 96.1631 12.4365 95.3805 12.4365C94.9761 12.4365 94.682 12.5074 94.4982 12.6492C94.3145 12.7911 94.2221 12.9671 94.2221 13.1771C94.2221 13.4031 94.3378 13.6053 94.5691 13.7839C94.8058 13.9625 95.4414 14.2882 96.476 14.761C97.4694 15.2076 98.1571 15.6882 98.5408 16.203C98.929 16.7126 99.1236 17.3561 99.1236 18.1336ZM108.438 18.1336C108.438 18.848 108.257 19.4837 107.894 20.0405C107.531 20.5921 107.009 21.0229 106.326 21.3328C105.643 21.6375 104.842 21.7899 103.923 21.7899C103.155 21.7899 102.513 21.7373 101.992 21.6322C101.472 21.522 100.931 21.3328 100.369 21.0649V18.2912C100.962 18.5959 101.579 18.8349 102.22 19.0082C102.861 19.1763 103.449 19.2604 103.986 19.2604C104.448 19.2604 104.787 19.1816 105.002 19.024C105.217 18.8612 105.325 18.6536 105.325 18.4015C105.325 18.2439 105.28 18.1074 105.191 17.9918C105.107 17.8709 104.968 17.7501 104.774 17.6293C104.584 17.5085 104.075 17.2616 103.245 16.8886C102.494 16.5471 101.929 16.2162 101.551 15.8957C101.178 15.5752 100.9 15.2076 100.716 14.7925C100.537 14.3775 100.448 13.8864 100.448 13.319C100.448 12.2578 100.833 11.4305 101.606 10.8368C102.378 10.2432 103.44 9.94643 104.79 9.94643C105.982 9.94643 107.198 10.2222 108.438 10.7738L107.484 13.1771C106.407 12.6834 105.477 12.4365 104.695 12.4365C104.29 12.4365 103.996 12.5074 103.813 12.6492C103.629 12.7911 103.536 12.9671 103.536 13.1771C103.536 13.4031 103.652 13.6053 103.883 13.7839C104.119 13.9625 104.755 14.2882 105.79 14.761C106.783 15.2076 107.471 15.6882 107.855 16.203C108.243 16.7126 108.438 17.3561 108.438 18.1336ZM110.218 21.6322V10.1119H113.346V21.6322H110.218ZM120.864 21.6322L118.508 13.3347H118.437C118.547 14.7479 118.603 15.8458 118.603 16.6285V21.6322H115.845V10.1119H119.99L122.393 18.2912H122.456L124.812 10.1119H128.964V21.6322H126.104V16.5812C126.104 16.3186 126.107 16.027 126.112 15.7066C126.122 15.3861 126.16 14.6008 126.223 13.3505H126.152L123.827 21.6322H120.864ZM131.447 21.6322V10.1119H134.575V21.6322H131.447ZM137.073 21.6322V10.1119H140.186V19.1186H144.622V21.6322H137.073ZM153.534 21.6322L152.967 19.4732H149.224L148.641 21.6322H145.221L148.98 10.0646H153.132L156.939 21.6322H153.534ZM152.32 16.9201L151.824 15.029C151.709 14.6087 151.566 14.065 151.399 13.3978C151.236 12.7306 151.128 12.2526 151.076 11.9636C151.029 12.2315 150.933 12.6728 150.792 13.2875C150.656 13.9021 150.348 15.113 149.87 16.9201H152.32ZM163.274 21.6322H160.161V12.6571H157.348V10.1119H166.079V12.6571H163.274V21.6322ZM167.726 21.6322V10.1119H170.854V21.6322H167.726ZM184.132 15.8563C184.132 17.7947 183.656 19.2683 182.706 20.2769C181.754 21.2855 180.363 21.7899 178.529 21.7899C176.722 21.7899 175.335 21.2829 174.368 20.269C173.407 19.2551 172.927 17.779 172.927 15.8405C172.927 13.9232 173.405 12.4601 174.36 11.4515C175.322 10.4376 176.717 9.93066 178.545 9.93066C180.378 9.93066 181.768 10.4323 182.714 11.4357C183.659 12.4391 184.132 13.9126 184.132 15.8563ZM176.205 15.8563C176.205 18.0837 176.979 19.1974 178.529 19.1974C179.317 19.1974 179.9 18.9268 180.279 18.3857C180.662 17.8447 180.853 17.0016 180.853 15.8563C180.853 14.7058 180.66 13.8574 180.27 13.3112C179.887 12.7595 179.312 12.4837 178.545 12.4837C176.985 12.4837 176.205 13.6079 176.205 15.8563ZM197.18 21.6322H193.099L188.891 13.516H188.82C188.919 14.7925 188.97 15.767 188.97 16.4394V21.6322H186.212V10.1119H190.278L194.47 18.1178H194.518C194.444 16.9569 194.407 16.0244 194.407 15.3205V10.1119H197.18V21.6322Z" fill="#97A3AF"/>
</svg>
