<svg width="477" height="346" viewBox="0 0 477 346" fill="none" xmlns="http://www.w3.org/2000/svg">
<g filter="url(#filter0_d)">
<rect x="95" y="8" width="160.273" height="322" rx="13" fill="white" stroke="black" stroke-width="4"/>
<path d="M131.97 101.86C131.97 102.293 131.919 102.643 131.818 102.91C131.717 103.177 131.537 103.431 131.276 103.672C131.019 103.913 130.843 104.092 130.749 104.209C130.658 104.326 130.588 104.445 130.539 104.565C130.493 104.686 130.471 104.818 130.471 104.961C130.471 105.472 130.721 105.728 131.223 105.728C131.473 105.728 131.672 105.654 131.818 105.508C131.968 105.361 132.046 105.156 132.053 104.893H133.464C133.457 105.518 133.257 106.004 132.863 106.353C132.469 106.704 131.931 106.88 131.247 106.88C130.554 106.88 130.015 106.714 129.631 106.382C129.247 106.053 129.055 105.583 129.055 104.971C129.055 104.453 129.304 103.945 129.802 103.447L130.275 102.993C130.438 102.847 130.55 102.694 130.612 102.534C130.677 102.375 130.713 102.15 130.72 101.86H131.97ZM132.146 100.366C132.146 100.584 132.071 100.763 131.921 100.903C131.771 101.043 131.582 101.113 131.354 101.113C131.127 101.113 130.938 101.043 130.788 100.903C130.638 100.763 130.563 100.584 130.563 100.366C130.563 100.148 130.635 99.9691 130.778 99.8291C130.925 99.6891 131.117 99.6191 131.354 99.6191C131.592 99.6191 131.783 99.6891 131.926 99.8291C132.072 99.9691 132.146 100.148 132.146 100.366ZM139.914 102.632C139.859 103.397 139.576 103.999 139.064 104.438C138.557 104.878 137.886 105.098 137.053 105.098C136.141 105.098 135.424 104.792 134.899 104.18C134.379 103.564 134.118 102.721 134.118 101.65V101.216C134.118 100.532 134.239 99.93 134.479 99.4092C134.72 98.8883 135.064 98.4896 135.51 98.2129C135.959 97.9329 136.48 97.793 137.072 97.793C137.893 97.793 138.553 98.0127 139.055 98.4521C139.556 98.8916 139.846 99.5085 139.924 100.303H138.459C138.423 99.8438 138.295 99.5117 138.073 99.3066C137.855 99.0983 137.521 98.9941 137.072 98.9941C136.584 98.9941 136.218 99.1699 135.974 99.5215C135.733 99.8698 135.609 100.412 135.603 101.147V101.685C135.603 102.453 135.718 103.014 135.949 103.369C136.184 103.724 136.551 103.901 137.053 103.901C137.505 103.901 137.842 103.799 138.063 103.594C138.288 103.385 138.417 103.065 138.449 102.632H139.914ZM140.563 102.31C140.563 101.785 140.664 101.318 140.866 100.908C141.068 100.498 141.358 100.181 141.735 99.9561C142.116 99.7314 142.557 99.6191 143.059 99.6191C143.771 99.6191 144.353 99.8372 144.802 100.273C145.254 100.71 145.507 101.302 145.559 102.051L145.568 102.412C145.568 103.223 145.342 103.874 144.89 104.365C144.437 104.854 143.83 105.098 143.068 105.098C142.307 105.098 141.698 104.854 141.242 104.365C140.79 103.877 140.563 103.213 140.563 102.373V102.31ZM141.975 102.412C141.975 102.913 142.069 103.298 142.258 103.564C142.447 103.828 142.717 103.96 143.068 103.96C143.41 103.96 143.677 103.83 143.869 103.569C144.061 103.306 144.157 102.886 144.157 102.31C144.157 101.818 144.061 101.437 143.869 101.167C143.677 100.897 143.407 100.762 143.059 100.762C142.714 100.762 142.447 100.897 142.258 101.167C142.069 101.434 141.975 101.849 141.975 102.412ZM147.736 99.7168L147.78 100.327C148.158 99.8551 148.664 99.6191 149.299 99.6191C149.859 99.6191 150.275 99.7835 150.549 100.112C150.822 100.441 150.962 100.933 150.969 101.587V105H149.558V101.621C149.558 101.322 149.493 101.105 149.362 100.972C149.232 100.835 149.016 100.767 148.713 100.767C148.316 100.767 148.018 100.936 147.819 101.274V105H146.408V99.7168H147.736ZM154.313 102.31C154.313 101.479 154.497 100.824 154.865 100.342C155.236 99.86 155.744 99.6191 156.389 99.6191C156.955 99.6191 157.406 99.8356 157.741 100.269L157.834 99.7168H159.074V107.031H157.658V104.546C157.333 104.914 156.906 105.098 156.379 105.098C155.751 105.098 155.249 104.854 154.875 104.365C154.501 103.877 154.313 103.192 154.313 102.31ZM155.725 102.412C155.725 102.917 155.812 103.301 155.988 103.564C156.167 103.828 156.418 103.96 156.74 103.96C157.173 103.96 157.479 103.787 157.658 103.442V101.26C157.482 100.928 157.18 100.762 156.75 100.762C156.424 100.762 156.172 100.894 155.993 101.157C155.814 101.421 155.725 101.839 155.725 102.412ZM163.352 104.463C163.003 104.886 162.521 105.098 161.906 105.098C161.34 105.098 160.907 104.935 160.607 104.609C160.311 104.284 160.16 103.807 160.153 103.179V99.7168H161.564V103.13C161.564 103.68 161.815 103.955 162.316 103.955C162.795 103.955 163.124 103.789 163.303 103.457V99.7168H164.719V105H163.391L163.352 104.463ZM168.215 105.098C167.44 105.098 166.809 104.86 166.32 104.385C165.835 103.91 165.593 103.276 165.593 102.485V102.349C165.593 101.818 165.695 101.344 165.9 100.928C166.105 100.508 166.395 100.186 166.77 99.9609C167.147 99.7331 167.577 99.6191 168.059 99.6191C168.781 99.6191 169.349 99.847 169.763 100.303C170.179 100.758 170.388 101.405 170.388 102.241V102.817H167.023C167.069 103.162 167.206 103.439 167.434 103.647C167.665 103.856 167.956 103.96 168.308 103.96C168.851 103.96 169.276 103.763 169.582 103.369L170.275 104.146C170.064 104.445 169.777 104.679 169.416 104.849C169.055 105.015 168.654 105.098 168.215 105.098ZM168.054 100.762C167.774 100.762 167.546 100.856 167.37 101.045C167.198 101.234 167.087 101.504 167.038 101.855H169.001V101.743C168.994 101.431 168.91 101.19 168.747 101.021C168.584 100.848 168.353 100.762 168.054 100.762ZM176.745 105C176.68 104.873 176.633 104.715 176.604 104.526C176.262 104.907 175.817 105.098 175.271 105.098C174.753 105.098 174.323 104.948 173.981 104.648C173.643 104.349 173.474 103.971 173.474 103.516C173.474 102.956 173.68 102.526 174.094 102.227C174.51 101.927 175.111 101.776 175.896 101.772H176.545V101.47C176.545 101.226 176.481 101.03 176.354 100.884C176.231 100.737 176.034 100.664 175.764 100.664C175.526 100.664 175.339 100.721 175.202 100.835C175.069 100.949 175.002 101.105 175.002 101.304H173.591C173.591 100.998 173.685 100.715 173.874 100.454C174.063 100.194 174.33 99.9902 174.675 99.8438C175.02 99.694 175.407 99.6191 175.837 99.6191C176.488 99.6191 177.004 99.7835 177.385 100.112C177.769 100.438 177.961 100.897 177.961 101.489V103.779C177.964 104.281 178.034 104.66 178.171 104.917V105H176.745ZM175.578 104.019C175.786 104.019 175.979 103.973 176.154 103.882C176.33 103.787 176.46 103.662 176.545 103.506V102.598H176.018C175.311 102.598 174.935 102.842 174.89 103.33L174.885 103.413C174.885 103.589 174.947 103.734 175.07 103.848C175.194 103.962 175.363 104.019 175.578 104.019ZM176.115 97.5H177.653L176.301 99.0137H175.153L176.115 97.5ZM182.014 101.04C181.822 101.014 181.652 101.001 181.506 101.001C180.972 101.001 180.622 101.182 180.456 101.543V105H179.045V99.7168H180.378L180.417 100.347C180.7 99.8617 181.092 99.6191 181.594 99.6191C181.75 99.6191 181.896 99.6403 182.033 99.6826L182.014 101.04ZM185.031 105.098C184.257 105.098 183.625 104.86 183.137 104.385C182.652 103.91 182.409 103.276 182.409 102.485V102.349C182.409 101.818 182.512 101.344 182.717 100.928C182.922 100.508 183.212 100.186 183.586 99.9609C183.964 99.7331 184.393 99.6191 184.875 99.6191C185.598 99.6191 186.166 99.847 186.579 100.303C186.996 100.758 187.204 101.405 187.204 102.241V102.817H183.84C183.885 103.162 184.022 103.439 184.25 103.647C184.481 103.856 184.772 103.96 185.124 103.96C185.668 103.96 186.092 103.763 186.398 103.369L187.092 104.146C186.88 104.445 186.594 104.679 186.232 104.849C185.871 105.015 185.471 105.098 185.031 105.098ZM184.87 100.762C184.59 100.762 184.362 100.856 184.187 101.045C184.014 101.234 183.903 101.504 183.854 101.855H185.817V101.743C185.811 101.431 185.726 101.19 185.563 101.021C185.401 100.848 185.17 100.762 184.87 100.762ZM191.071 105C191.006 104.873 190.959 104.715 190.93 104.526C190.588 104.907 190.144 105.098 189.597 105.098C189.079 105.098 188.649 104.948 188.308 104.648C187.969 104.349 187.8 103.971 187.8 103.516C187.8 102.956 188.007 102.526 188.42 102.227C188.837 101.927 189.437 101.776 190.222 101.772H190.871V101.47C190.871 101.226 190.808 101.03 190.681 100.884C190.557 100.737 190.36 100.664 190.09 100.664C189.852 100.664 189.665 100.721 189.528 100.835C189.395 100.949 189.328 101.105 189.328 101.304H187.917C187.917 100.998 188.011 100.715 188.2 100.454C188.389 100.194 188.656 99.9902 189.001 99.8438C189.346 99.694 189.733 99.6191 190.163 99.6191C190.814 99.6191 191.33 99.7835 191.711 100.112C192.095 100.438 192.287 100.897 192.287 101.489V103.779C192.29 104.281 192.36 104.66 192.497 104.917V105H191.071ZM189.904 104.019C190.113 104.019 190.305 103.973 190.48 103.882C190.656 103.787 190.786 103.662 190.871 103.506V102.598H190.344C189.637 102.598 189.261 102.842 189.216 103.33L189.211 103.413C189.211 103.589 189.273 103.734 189.396 103.848C189.52 103.962 189.689 104.019 189.904 104.019ZM195.642 102.319C195.642 101.496 195.826 100.84 196.193 100.352C196.564 99.8633 197.071 99.6191 197.712 99.6191C198.226 99.6191 198.651 99.8112 198.986 100.195V97.5H200.402V105H199.128L199.06 104.438C198.708 104.878 198.256 105.098 197.702 105.098C197.08 105.098 196.581 104.854 196.203 104.365C195.829 103.874 195.642 103.192 195.642 102.319ZM197.053 102.422C197.053 102.917 197.139 103.296 197.312 103.56C197.484 103.823 197.735 103.955 198.063 103.955C198.5 103.955 198.807 103.771 198.986 103.403V101.318C198.811 100.951 198.506 100.767 198.073 100.767C197.393 100.767 197.053 101.318 197.053 102.422ZM203.928 105.098C203.153 105.098 202.521 104.86 202.033 104.385C201.548 103.91 201.306 103.276 201.306 102.485V102.349C201.306 101.818 201.408 101.344 201.613 100.928C201.818 100.508 202.108 100.186 202.482 99.9609C202.86 99.7331 203.29 99.6191 203.771 99.6191C204.494 99.6191 205.062 99.847 205.476 100.303C205.892 100.758 206.101 101.405 206.101 102.241V102.817H202.736C202.782 103.162 202.919 103.439 203.146 103.647C203.378 103.856 203.669 103.96 204.021 103.96C204.564 103.96 204.989 103.763 205.295 103.369L205.988 104.146C205.777 104.445 205.49 104.679 205.129 104.849C204.768 105.015 204.367 105.098 203.928 105.098ZM203.767 100.762C203.487 100.762 203.259 100.856 203.083 101.045C202.91 101.234 202.8 101.504 202.751 101.855H204.714V101.743C204.707 101.431 204.623 101.19 204.46 101.021C204.297 100.848 204.066 100.762 203.767 100.762ZM209.768 103.54C209.768 103.368 209.681 103.232 209.509 103.135C209.34 103.034 209.066 102.944 208.688 102.866C207.432 102.603 206.804 102.069 206.804 101.265C206.804 100.796 206.997 100.405 207.385 100.093C207.775 99.777 208.285 99.6191 208.913 99.6191C209.584 99.6191 210.119 99.777 210.52 100.093C210.923 100.409 211.125 100.819 211.125 101.323H209.714C209.714 101.121 209.649 100.955 209.519 100.825C209.388 100.692 209.185 100.625 208.908 100.625C208.671 100.625 208.487 100.679 208.356 100.786C208.226 100.894 208.161 101.03 208.161 101.196C208.161 101.353 208.234 101.479 208.381 101.577C208.531 101.672 208.781 101.755 209.133 101.826C209.484 101.895 209.781 101.973 210.021 102.061C210.767 102.334 211.14 102.808 211.14 103.481C211.14 103.963 210.933 104.354 210.52 104.653C210.106 104.95 209.572 105.098 208.918 105.098C208.475 105.098 208.081 105.02 207.736 104.863C207.395 104.704 207.126 104.487 206.931 104.214C206.735 103.937 206.638 103.639 206.638 103.32H207.976C207.989 103.571 208.081 103.763 208.254 103.896C208.426 104.03 208.658 104.097 208.947 104.097C209.217 104.097 209.421 104.046 209.558 103.945C209.698 103.841 209.768 103.706 209.768 103.54ZM214.484 105.098C213.71 105.098 213.078 104.86 212.59 104.385C212.105 103.91 211.862 103.276 211.862 102.485V102.349C211.862 101.818 211.965 101.344 212.17 100.928C212.375 100.508 212.665 100.186 213.039 99.9609C213.417 99.7331 213.846 99.6191 214.328 99.6191C215.051 99.6191 215.619 99.847 216.032 100.303C216.449 100.758 216.657 101.405 216.657 102.241V102.817H213.293C213.339 103.162 213.475 103.439 213.703 103.647C213.934 103.856 214.226 103.96 214.577 103.96C215.121 103.96 215.546 103.763 215.852 103.369L216.545 104.146C216.333 104.445 216.047 104.679 215.686 104.849C215.324 105.015 214.924 105.098 214.484 105.098ZM214.323 100.762C214.043 100.762 213.815 100.856 213.64 101.045C213.467 101.234 213.356 101.504 213.308 101.855H215.271V101.743C215.264 101.431 215.179 101.19 215.017 101.021C214.854 100.848 214.623 100.762 214.323 100.762ZM220.524 105C220.459 104.873 220.412 104.715 220.383 104.526C220.041 104.907 219.597 105.098 219.05 105.098C218.532 105.098 218.103 104.948 217.761 104.648C217.422 104.349 217.253 103.971 217.253 103.516C217.253 102.956 217.46 102.526 217.873 102.227C218.29 101.927 218.89 101.776 219.675 101.772H220.324V101.47C220.324 101.226 220.261 101.03 220.134 100.884C220.01 100.737 219.813 100.664 219.543 100.664C219.305 100.664 219.118 100.721 218.981 100.835C218.848 100.949 218.781 101.105 218.781 101.304H217.37C217.37 100.998 217.465 100.715 217.653 100.454C217.842 100.194 218.109 99.9902 218.454 99.8438C218.799 99.694 219.187 99.6191 219.616 99.6191C220.267 99.6191 220.783 99.7835 221.164 100.112C221.548 100.438 221.74 100.897 221.74 101.489V103.779C221.743 104.281 221.813 104.66 221.95 104.917V105H220.524ZM219.357 104.019C219.566 104.019 219.758 103.973 219.934 103.882C220.109 103.787 220.24 103.662 220.324 103.506V102.598H219.797C219.09 102.598 218.715 102.842 218.669 103.33L218.664 103.413C218.664 103.589 218.726 103.734 218.85 103.848C218.973 103.962 219.143 104.019 219.357 104.019ZM146.662 117.96C146.923 117.96 147.134 117.888 147.297 117.745C147.46 117.602 147.544 117.411 147.551 117.174H148.874C148.871 117.532 148.773 117.861 148.581 118.16C148.389 118.456 148.125 118.688 147.79 118.854C147.458 119.016 147.09 119.098 146.687 119.098C145.931 119.098 145.336 118.858 144.899 118.38C144.463 117.898 144.245 117.234 144.245 116.388V116.295C144.245 115.481 144.462 114.832 144.895 114.347C145.327 113.862 145.922 113.619 146.677 113.619C147.338 113.619 147.867 113.808 148.264 114.186C148.664 114.56 148.868 115.06 148.874 115.685H147.551C147.544 115.411 147.46 115.19 147.297 115.021C147.134 114.848 146.919 114.762 146.652 114.762C146.324 114.762 146.075 114.882 145.905 115.123C145.739 115.361 145.656 115.748 145.656 116.285V116.432C145.656 116.975 145.739 117.366 145.905 117.604C146.071 117.841 146.324 117.96 146.662 117.96ZM149.46 116.31C149.46 115.785 149.561 115.318 149.763 114.908C149.965 114.498 150.254 114.181 150.632 113.956C151.013 113.731 151.454 113.619 151.955 113.619C152.668 113.619 153.249 113.837 153.698 114.273C154.151 114.71 154.403 115.302 154.455 116.051L154.465 116.412C154.465 117.223 154.239 117.874 153.786 118.365C153.334 118.854 152.727 119.098 151.965 119.098C151.203 119.098 150.594 118.854 150.139 118.365C149.686 117.877 149.46 117.213 149.46 116.373V116.31ZM150.871 116.412C150.871 116.913 150.965 117.298 151.154 117.564C151.343 117.828 151.613 117.96 151.965 117.96C152.307 117.96 152.574 117.83 152.766 117.569C152.958 117.306 153.054 116.886 153.054 116.31C153.054 115.818 152.958 115.437 152.766 115.167C152.574 114.897 152.303 114.762 151.955 114.762C151.61 114.762 151.343 114.897 151.154 115.167C150.965 115.434 150.871 115.849 150.871 116.412ZM156.657 113.717L156.701 114.308C157.076 113.849 157.582 113.619 158.22 113.619C158.9 113.619 159.367 113.888 159.621 114.425C159.992 113.888 160.521 113.619 161.208 113.619C161.781 113.619 162.207 113.787 162.487 114.122C162.767 114.454 162.907 114.955 162.907 115.626V119H161.491V115.631C161.491 115.331 161.433 115.113 161.315 114.977C161.198 114.837 160.992 114.767 160.695 114.767C160.272 114.767 159.979 114.968 159.816 115.372L159.821 119H158.41V115.636C158.41 115.33 158.35 115.108 158.229 114.972C158.109 114.835 157.904 114.767 157.614 114.767C157.214 114.767 156.924 114.933 156.745 115.265V119H155.334V113.717H156.657ZM167.16 118.463C166.812 118.886 166.33 119.098 165.715 119.098C165.148 119.098 164.715 118.935 164.416 118.609C164.12 118.284 163.968 117.807 163.962 117.179V113.717H165.373V117.13C165.373 117.68 165.624 117.955 166.125 117.955C166.604 117.955 166.932 117.789 167.111 117.457V113.717H168.527V119H167.199L167.16 118.463ZM170.891 113.717L170.935 114.327C171.312 113.855 171.818 113.619 172.453 113.619C173.013 113.619 173.43 113.784 173.703 114.112C173.977 114.441 174.117 114.933 174.123 115.587V119H172.712V115.621C172.712 115.322 172.647 115.105 172.517 114.972C172.386 114.835 172.17 114.767 171.867 114.767C171.47 114.767 171.172 114.936 170.974 115.274V119H169.562V113.717H170.891ZM176.687 119H175.271V113.717H176.687V119ZM175.188 112.35C175.188 112.138 175.257 111.964 175.397 111.827C175.541 111.69 175.734 111.622 175.979 111.622C176.219 111.622 176.411 111.69 176.555 111.827C176.698 111.964 176.77 112.138 176.77 112.35C176.77 112.564 176.696 112.74 176.55 112.877C176.407 113.014 176.216 113.082 175.979 113.082C175.741 113.082 175.549 113.014 175.402 112.877C175.259 112.74 175.188 112.564 175.188 112.35ZM180.051 117.96C180.311 117.96 180.523 117.888 180.686 117.745C180.848 117.602 180.933 117.411 180.939 117.174H182.263C182.259 117.532 182.162 117.861 181.97 118.16C181.778 118.456 181.514 118.688 181.179 118.854C180.847 119.016 180.479 119.098 180.075 119.098C179.32 119.098 178.724 118.858 178.288 118.38C177.852 117.898 177.634 117.234 177.634 116.388V116.295C177.634 115.481 177.85 114.832 178.283 114.347C178.716 113.862 179.31 113.619 180.065 113.619C180.726 113.619 181.255 113.808 181.652 114.186C182.053 114.56 182.256 115.06 182.263 115.685H180.939C180.933 115.411 180.848 115.19 180.686 115.021C180.523 114.848 180.308 114.762 180.041 114.762C179.712 114.762 179.463 114.882 179.294 115.123C179.128 115.361 179.045 115.748 179.045 116.285V116.432C179.045 116.975 179.128 117.366 179.294 117.604C179.46 117.841 179.712 117.96 180.051 117.96ZM186.13 119C186.065 118.873 186.018 118.715 185.988 118.526C185.646 118.907 185.202 119.098 184.655 119.098C184.138 119.098 183.708 118.948 183.366 118.648C183.028 118.349 182.858 117.971 182.858 117.516C182.858 116.956 183.065 116.526 183.479 116.227C183.895 115.927 184.496 115.776 185.28 115.772H185.93V115.47C185.93 115.226 185.866 115.03 185.739 114.884C185.616 114.737 185.419 114.664 185.148 114.664C184.911 114.664 184.724 114.721 184.587 114.835C184.453 114.949 184.387 115.105 184.387 115.304H182.976C182.976 114.998 183.07 114.715 183.259 114.454C183.448 114.194 183.715 113.99 184.06 113.844C184.405 113.694 184.792 113.619 185.222 113.619C185.873 113.619 186.389 113.784 186.77 114.112C187.154 114.438 187.346 114.897 187.346 115.489V117.779C187.349 118.281 187.419 118.66 187.556 118.917V119H186.13ZM184.963 118.019C185.171 118.019 185.363 117.973 185.539 117.882C185.715 117.787 185.845 117.662 185.93 117.506V116.598H185.402C184.696 116.598 184.32 116.842 184.274 117.33L184.27 117.413C184.27 117.589 184.331 117.734 184.455 117.848C184.579 117.962 184.748 118.019 184.963 118.019ZM191.398 115.04C191.206 115.014 191.037 115.001 190.891 115.001C190.357 115.001 190.007 115.182 189.841 115.543V119H188.43V113.717H189.763L189.802 114.347C190.085 113.862 190.477 113.619 190.979 113.619C191.135 113.619 191.281 113.64 191.418 113.683L191.398 115.04ZM194.943 117.54C194.943 117.368 194.857 117.232 194.685 117.135C194.515 117.034 194.242 116.944 193.864 116.866C192.608 116.603 191.979 116.069 191.979 115.265C191.979 114.796 192.173 114.405 192.561 114.093C192.951 113.777 193.461 113.619 194.089 113.619C194.759 113.619 195.295 113.777 195.695 114.093C196.099 114.409 196.301 114.819 196.301 115.323H194.89C194.89 115.121 194.825 114.955 194.694 114.825C194.564 114.692 194.361 114.625 194.084 114.625C193.846 114.625 193.662 114.679 193.532 114.786C193.402 114.894 193.337 115.03 193.337 115.196C193.337 115.353 193.41 115.479 193.557 115.577C193.706 115.672 193.957 115.755 194.309 115.826C194.66 115.895 194.956 115.973 195.197 116.061C195.943 116.334 196.315 116.808 196.315 117.481C196.315 117.963 196.109 118.354 195.695 118.653C195.282 118.95 194.748 119.098 194.094 119.098C193.651 119.098 193.257 119.02 192.912 118.863C192.57 118.704 192.302 118.487 192.106 118.214C191.911 117.937 191.813 117.639 191.813 117.32H193.151C193.164 117.571 193.257 117.763 193.43 117.896C193.602 118.03 193.833 118.097 194.123 118.097C194.393 118.097 194.597 118.046 194.733 117.945C194.873 117.841 194.943 117.706 194.943 117.54ZM199.66 119.098C198.885 119.098 198.254 118.86 197.766 118.385C197.281 117.91 197.038 117.276 197.038 116.485V116.349C197.038 115.818 197.141 115.344 197.346 114.928C197.551 114.508 197.84 114.186 198.215 113.961C198.592 113.733 199.022 113.619 199.504 113.619C200.227 113.619 200.795 113.847 201.208 114.303C201.625 114.758 201.833 115.405 201.833 116.241V116.817H198.469C198.514 117.162 198.651 117.439 198.879 117.647C199.11 117.856 199.401 117.96 199.753 117.96C200.297 117.96 200.721 117.763 201.027 117.369L201.721 118.146C201.509 118.445 201.223 118.679 200.861 118.849C200.5 119.015 200.1 119.098 199.66 119.098ZM199.499 114.762C199.219 114.762 198.991 114.856 198.815 115.045C198.643 115.234 198.532 115.504 198.483 115.855H200.446V115.743C200.44 115.431 200.355 115.19 200.192 115.021C200.03 114.848 199.799 114.762 199.499 114.762ZM203.791 116.817C203.791 116.362 203.846 115.999 203.957 115.729C204.068 115.458 204.27 115.193 204.562 114.933C204.859 114.669 205.056 114.456 205.153 114.293C205.251 114.127 205.3 113.953 205.3 113.771C205.3 113.22 205.046 112.945 204.538 112.945C204.297 112.945 204.104 113.02 203.957 113.17C203.814 113.316 203.739 113.52 203.732 113.78H202.316C202.323 113.159 202.523 112.672 202.917 112.32C203.314 111.969 203.854 111.793 204.538 111.793C205.228 111.793 205.764 111.961 206.145 112.296C206.525 112.628 206.716 113.098 206.716 113.707C206.716 113.984 206.654 114.246 206.53 114.493C206.407 114.737 206.19 115.009 205.881 115.309L205.485 115.685C205.238 115.922 205.096 116.201 205.061 116.52L205.041 116.817H203.791ZM203.649 118.316C203.649 118.098 203.723 117.919 203.869 117.779C204.019 117.636 204.209 117.564 204.44 117.564C204.672 117.564 204.86 117.636 205.007 117.779C205.157 117.919 205.231 118.098 205.231 118.316C205.231 118.531 205.158 118.709 205.012 118.849C204.868 118.989 204.678 119.059 204.44 119.059C204.203 119.059 204.011 118.989 203.864 118.849C203.721 118.709 203.649 118.531 203.649 118.316Z" fill="black"/>
<rect x="140.117" y="317.992" width="70.0391" height="3.82031" rx="1.91016" fill="#C4C4C4"/>
<path d="M136.297 6H215.25V8.73438C215.25 14.2572 210.773 18.7344 205.25 18.7344H146.297C140.774 18.7344 136.297 14.2572 136.297 8.73438V6Z" fill="black"/>
<rect x="104" y="221" width="142" height="30" rx="15" fill="#30485F"/>
<path d="M125.648 237.535H123.08L122.592 239H121.034L123.681 231.891H125.038L127.699 239H126.142L125.648 237.535ZM123.476 236.349H125.253L124.359 233.688L123.476 236.349ZM128.051 236.319C128.051 235.496 128.235 234.84 128.603 234.352C128.974 233.863 129.48 233.619 130.121 233.619C130.635 233.619 131.06 233.811 131.396 234.195V231.5H132.812V239H131.537L131.469 238.438C131.117 238.878 130.665 239.098 130.111 239.098C129.49 239.098 128.99 238.854 128.612 238.365C128.238 237.874 128.051 237.192 128.051 236.319ZM129.462 236.422C129.462 236.917 129.548 237.296 129.721 237.56C129.893 237.823 130.144 237.955 130.473 237.955C130.909 237.955 131.216 237.771 131.396 237.403V235.318C131.22 234.951 130.915 234.767 130.482 234.767C129.802 234.767 129.462 235.318 129.462 236.422ZM135.229 233.717L135.272 234.308C135.647 233.849 136.153 233.619 136.791 233.619C137.471 233.619 137.938 233.888 138.192 234.425C138.563 233.888 139.092 233.619 139.779 233.619C140.352 233.619 140.779 233.787 141.059 234.122C141.339 234.454 141.479 234.955 141.479 235.626V239H140.062V235.631C140.062 235.331 140.004 235.113 139.887 234.977C139.77 234.837 139.563 234.767 139.267 234.767C138.843 234.767 138.55 234.968 138.388 235.372L138.393 239H136.981V235.636C136.981 235.33 136.921 235.108 136.801 234.972C136.68 234.835 136.475 234.767 136.186 234.767C135.785 234.767 135.495 234.933 135.316 235.265V239H133.905V233.717H135.229ZM144.057 239H142.641V233.717H144.057V239ZM142.558 232.35C142.558 232.138 142.628 231.964 142.768 231.827C142.911 231.69 143.104 231.622 143.349 231.622C143.59 231.622 143.782 231.69 143.925 231.827C144.068 231.964 144.14 232.138 144.14 232.35C144.14 232.564 144.066 232.74 143.92 232.877C143.777 233.014 143.586 233.082 143.349 233.082C143.111 233.082 142.919 233.014 142.772 232.877C142.629 232.74 142.558 232.564 142.558 232.35ZM146.522 233.717L146.566 234.327C146.944 233.855 147.45 233.619 148.085 233.619C148.645 233.619 149.062 233.784 149.335 234.112C149.608 234.441 149.748 234.933 149.755 235.587V239H148.344V235.621C148.344 235.322 148.279 235.105 148.148 234.972C148.018 234.835 147.802 234.767 147.499 234.767C147.102 234.767 146.804 234.936 146.605 235.274V239H145.194V233.717H146.522ZM152.318 239H150.902V233.717H152.318V239ZM150.819 232.35C150.819 232.138 150.889 231.964 151.029 231.827C151.173 231.69 151.366 231.622 151.61 231.622C151.851 231.622 152.043 231.69 152.187 231.827C152.33 231.964 152.401 232.138 152.401 232.35C152.401 232.564 152.328 232.74 152.182 232.877C152.038 233.014 151.848 233.082 151.61 233.082C151.373 233.082 151.181 233.014 151.034 232.877C150.891 232.74 150.819 232.564 150.819 232.35ZM156.347 237.54C156.347 237.368 156.26 237.232 156.088 237.135C155.919 237.034 155.645 236.944 155.268 236.866C154.011 236.603 153.383 236.069 153.383 235.265C153.383 234.796 153.576 234.405 153.964 234.093C154.354 233.777 154.864 233.619 155.492 233.619C156.163 233.619 156.698 233.777 157.099 234.093C157.502 234.409 157.704 234.819 157.704 235.323H156.293C156.293 235.121 156.228 234.955 156.098 234.825C155.967 234.692 155.764 234.625 155.487 234.625C155.25 234.625 155.066 234.679 154.936 234.786C154.805 234.894 154.74 235.03 154.74 235.196C154.74 235.353 154.813 235.479 154.96 235.577C155.11 235.672 155.36 235.755 155.712 235.826C156.063 235.895 156.36 235.973 156.601 236.061C157.346 236.334 157.719 236.808 157.719 237.481C157.719 237.963 157.512 238.354 157.099 238.653C156.685 238.95 156.151 239.098 155.497 239.098C155.054 239.098 154.66 239.02 154.315 238.863C153.974 238.704 153.705 238.487 153.51 238.214C153.314 237.937 153.217 237.639 153.217 237.32H154.555C154.568 237.571 154.66 237.763 154.833 237.896C155.006 238.03 155.237 238.097 155.526 238.097C155.797 238.097 156 238.046 156.137 237.945C156.277 237.841 156.347 237.706 156.347 237.54ZM160.321 232.418V233.717H161.225V234.752H160.321V237.389C160.321 237.584 160.359 237.724 160.434 237.809C160.508 237.893 160.652 237.936 160.863 237.936C161.02 237.936 161.158 237.924 161.278 237.901V238.971C161.002 239.055 160.717 239.098 160.424 239.098C159.434 239.098 158.93 238.598 158.91 237.599V234.752H158.139V233.717H158.91V232.418H160.321ZM164.979 235.04C164.787 235.014 164.618 235.001 164.472 235.001C163.938 235.001 163.588 235.182 163.422 235.543V239H162.011V233.717H163.344L163.383 234.347C163.666 233.862 164.058 233.619 164.56 233.619C164.716 233.619 164.862 233.64 164.999 233.683L164.979 235.04ZM168.578 239C168.513 238.873 168.466 238.715 168.437 238.526C168.095 238.907 167.65 239.098 167.104 239.098C166.586 239.098 166.156 238.948 165.814 238.648C165.476 238.349 165.307 237.971 165.307 237.516C165.307 236.956 165.513 236.526 165.927 236.227C166.343 235.927 166.944 235.776 167.729 235.772H168.378V235.47C168.378 235.226 168.314 235.03 168.188 234.884C168.064 234.737 167.867 234.664 167.597 234.664C167.359 234.664 167.172 234.721 167.035 234.835C166.902 234.949 166.835 235.105 166.835 235.304H165.424C165.424 234.998 165.518 234.715 165.707 234.454C165.896 234.194 166.163 233.99 166.508 233.844C166.853 233.694 167.24 233.619 167.67 233.619C168.321 233.619 168.837 233.784 169.218 234.112C169.602 234.438 169.794 234.897 169.794 235.489V237.779C169.797 238.281 169.867 238.66 170.004 238.917V239H168.578ZM167.411 238.019C167.619 238.019 167.812 237.973 167.987 237.882C168.163 237.787 168.293 237.662 168.378 237.506V236.598H167.851C167.144 236.598 166.768 236.842 166.723 237.33L166.718 237.413C166.718 237.589 166.78 237.734 166.903 237.848C167.027 237.962 167.196 238.019 167.411 238.019ZM173.075 237.96C173.336 237.96 173.547 237.888 173.71 237.745C173.873 237.602 173.957 237.411 173.964 237.174H175.287C175.284 237.532 175.186 237.861 174.994 238.16C174.802 238.456 174.538 238.688 174.203 238.854C173.871 239.016 173.503 239.098 173.1 239.098C172.344 239.098 171.749 238.858 171.312 238.38C170.876 237.898 170.658 237.234 170.658 236.388V236.295C170.658 235.481 170.875 234.832 171.308 234.347C171.741 233.862 172.335 233.619 173.09 233.619C173.751 233.619 174.28 233.808 174.677 234.186C175.077 234.56 175.281 235.06 175.287 235.685H173.964C173.957 235.411 173.873 235.19 173.71 235.021C173.547 234.848 173.332 234.762 173.065 234.762C172.737 234.762 172.488 234.882 172.318 235.123C172.152 235.361 172.069 235.748 172.069 236.285V236.432C172.069 236.975 172.152 237.366 172.318 237.604C172.484 237.841 172.737 237.96 173.075 237.96ZM177.582 239H176.166V233.717H177.582V239ZM176.083 232.35C176.083 232.138 176.153 231.964 176.293 231.827C176.436 231.69 176.63 231.622 176.874 231.622C177.115 231.622 177.307 231.69 177.45 231.827C177.593 231.964 177.665 232.138 177.665 232.35C177.665 232.564 177.592 232.74 177.445 232.877C177.302 233.014 177.112 233.082 176.874 233.082C176.636 233.082 176.444 233.014 176.298 232.877C176.155 232.74 176.083 232.564 176.083 232.35ZM178.529 236.31C178.529 235.785 178.63 235.318 178.832 234.908C179.034 234.498 179.324 234.181 179.701 233.956C180.082 233.731 180.523 233.619 181.024 233.619C181.737 233.619 182.318 233.837 182.768 234.273C183.22 234.71 183.472 235.302 183.524 236.051L183.534 236.412C183.534 237.223 183.308 237.874 182.855 238.365C182.403 238.854 181.796 239.098 181.034 239.098C180.272 239.098 179.664 238.854 179.208 238.365C178.756 237.877 178.529 237.213 178.529 236.373V236.31ZM179.94 236.412C179.94 236.913 180.035 237.298 180.224 237.564C180.412 237.828 180.683 237.96 181.034 237.96C181.376 237.96 181.643 237.83 181.835 237.569C182.027 237.306 182.123 236.886 182.123 236.31C182.123 235.818 182.027 235.437 181.835 235.167C181.643 234.897 181.373 234.762 181.024 234.762C180.679 234.762 180.412 234.897 180.224 235.167C180.035 235.434 179.94 235.849 179.94 236.412ZM181.303 231.5H182.841L181.488 233.014H180.341L181.303 231.5ZM185.702 233.717L185.746 234.327C186.124 233.855 186.63 233.619 187.265 233.619C187.825 233.619 188.241 233.784 188.515 234.112C188.788 234.441 188.928 234.933 188.935 235.587V239H187.523V235.621C187.523 235.322 187.458 235.105 187.328 234.972C187.198 234.835 186.981 234.767 186.679 234.767C186.282 234.767 185.984 234.936 185.785 235.274V239H184.374V233.717H185.702Z" fill="white"/>
<rect x="104" y="179" width="142" height="30" rx="15" fill="#30485F"/>
<path d="M125.321 195.135C125.321 194.858 125.224 194.646 125.028 194.5C124.833 194.35 124.481 194.194 123.974 194.031C123.466 193.865 123.064 193.702 122.768 193.543C121.96 193.107 121.557 192.519 121.557 191.78C121.557 191.396 121.664 191.054 121.879 190.755C122.097 190.452 122.408 190.216 122.812 190.047C123.218 189.878 123.674 189.793 124.179 189.793C124.687 189.793 125.139 189.886 125.536 190.071C125.933 190.254 126.241 190.512 126.459 190.848C126.68 191.183 126.791 191.564 126.791 191.99H125.326C125.326 191.665 125.224 191.412 125.019 191.233C124.813 191.051 124.525 190.96 124.154 190.96C123.796 190.96 123.518 191.036 123.319 191.189C123.121 191.339 123.021 191.538 123.021 191.785C123.021 192.016 123.137 192.21 123.368 192.366C123.603 192.522 123.946 192.669 124.398 192.806C125.232 193.056 125.839 193.367 126.22 193.738C126.601 194.109 126.791 194.572 126.791 195.125C126.791 195.74 126.558 196.224 126.093 196.575C125.627 196.924 125.001 197.098 124.213 197.098C123.666 197.098 123.168 196.998 122.719 196.8C122.27 196.598 121.926 196.323 121.688 195.975C121.454 195.626 121.337 195.223 121.337 194.764H122.807C122.807 195.548 123.275 195.94 124.213 195.94C124.561 195.94 124.833 195.87 125.028 195.73C125.224 195.587 125.321 195.389 125.321 195.135ZM127.475 194.31C127.475 193.785 127.576 193.318 127.777 192.908C127.979 192.498 128.269 192.181 128.646 191.956C129.027 191.731 129.468 191.619 129.97 191.619C130.683 191.619 131.264 191.837 131.713 192.273C132.165 192.71 132.418 193.302 132.47 194.051L132.479 194.412C132.479 195.223 132.253 195.874 131.801 196.365C131.348 196.854 130.741 197.098 129.979 197.098C129.218 197.098 128.609 196.854 128.153 196.365C127.701 195.877 127.475 195.213 127.475 194.373V194.31ZM128.886 194.412C128.886 194.913 128.98 195.298 129.169 195.564C129.358 195.828 129.628 195.96 129.979 195.96C130.321 195.96 130.588 195.83 130.78 195.569C130.972 195.306 131.068 194.886 131.068 194.31C131.068 193.818 130.972 193.437 130.78 193.167C130.588 192.897 130.318 192.762 129.97 192.762C129.625 192.762 129.358 192.897 129.169 193.167C128.98 193.434 128.886 193.849 128.886 194.412ZM138.104 194.407C138.104 195.221 137.919 195.874 137.548 196.365C137.18 196.854 136.682 197.098 136.054 197.098C135.52 197.098 135.089 196.912 134.76 196.541V199.031H133.349V191.717H134.657L134.706 192.234C135.048 191.824 135.494 191.619 136.044 191.619C136.695 191.619 137.201 191.86 137.562 192.342C137.924 192.824 138.104 193.488 138.104 194.334V194.407ZM136.693 194.305C136.693 193.813 136.605 193.434 136.43 193.167C136.257 192.9 136.005 192.767 135.673 192.767C135.23 192.767 134.926 192.936 134.76 193.274V195.438C134.932 195.786 135.24 195.96 135.683 195.96C136.356 195.96 136.693 195.408 136.693 194.305ZM138.764 194.31C138.764 193.785 138.865 193.318 139.066 192.908C139.268 192.498 139.558 192.181 139.936 191.956C140.316 191.731 140.757 191.619 141.259 191.619C141.972 191.619 142.553 191.837 143.002 192.273C143.454 192.71 143.707 193.302 143.759 194.051L143.769 194.412C143.769 195.223 143.542 195.874 143.09 196.365C142.637 196.854 142.03 197.098 141.269 197.098C140.507 197.098 139.898 196.854 139.442 196.365C138.99 195.877 138.764 195.213 138.764 194.373V194.31ZM140.175 194.412C140.175 194.913 140.269 195.298 140.458 195.564C140.647 195.828 140.917 195.96 141.269 195.96C141.61 195.96 141.877 195.83 142.069 195.569C142.261 195.306 142.357 194.886 142.357 194.31C142.357 193.818 142.261 193.437 142.069 193.167C141.877 192.897 141.607 192.762 141.259 192.762C140.914 192.762 140.647 192.897 140.458 193.167C140.269 193.434 140.175 193.849 140.175 194.412ZM147.606 193.04C147.414 193.014 147.245 193.001 147.099 193.001C146.565 193.001 146.215 193.182 146.049 193.543V197H144.638V191.717H145.971L146.01 192.347C146.293 191.862 146.685 191.619 147.187 191.619C147.343 191.619 147.489 191.64 147.626 191.683L147.606 193.04ZM150.224 190.418V191.717H151.127V192.752H150.224V195.389C150.224 195.584 150.261 195.724 150.336 195.809C150.411 195.893 150.554 195.936 150.766 195.936C150.922 195.936 151.06 195.924 151.181 195.901V196.971C150.904 197.055 150.619 197.098 150.326 197.098C149.337 197.098 148.832 196.598 148.812 195.599V192.752H148.041V191.717H148.812V190.418H150.224ZM154.345 197.098C153.57 197.098 152.938 196.86 152.45 196.385C151.965 195.91 151.723 195.276 151.723 194.485V194.349C151.723 193.818 151.825 193.344 152.03 192.928C152.235 192.508 152.525 192.186 152.899 191.961C153.277 191.733 153.707 191.619 154.188 191.619C154.911 191.619 155.479 191.847 155.893 192.303C156.309 192.758 156.518 193.405 156.518 194.241V194.817H153.153C153.199 195.162 153.336 195.439 153.563 195.647C153.795 195.856 154.086 195.96 154.438 195.96C154.981 195.96 155.406 195.763 155.712 195.369L156.405 196.146C156.194 196.445 155.907 196.679 155.546 196.849C155.185 197.015 154.784 197.098 154.345 197.098ZM154.184 192.762C153.904 192.762 153.676 192.856 153.5 193.045C153.327 193.234 153.217 193.504 153.168 193.855H155.131V193.743C155.124 193.431 155.04 193.19 154.877 193.021C154.714 192.848 154.483 192.762 154.184 192.762ZM164.965 191.077H162.787V197H161.322V191.077H159.174V189.891H164.965V191.077ZM167.704 197.098C166.929 197.098 166.298 196.86 165.81 196.385C165.325 195.91 165.082 195.276 165.082 194.485V194.349C165.082 193.818 165.185 193.344 165.39 192.928C165.595 192.508 165.884 192.186 166.259 191.961C166.636 191.733 167.066 191.619 167.548 191.619C168.271 191.619 168.839 191.847 169.252 192.303C169.669 192.758 169.877 193.405 169.877 194.241V194.817H166.513C166.558 195.162 166.695 195.439 166.923 195.647C167.154 195.856 167.445 195.96 167.797 195.96C168.34 195.96 168.765 195.763 169.071 195.369L169.765 196.146C169.553 196.445 169.267 196.679 168.905 196.849C168.544 197.015 168.144 197.098 167.704 197.098ZM167.543 192.762C167.263 192.762 167.035 192.856 166.859 193.045C166.687 193.234 166.576 193.504 166.527 193.855H168.49V193.743C168.484 193.431 168.399 193.19 168.236 193.021C168.074 192.848 167.842 192.762 167.543 192.762ZM167.67 189.5H169.208L167.855 191.014H166.708L167.67 189.5ZM172.88 195.96C173.14 195.96 173.352 195.888 173.515 195.745C173.677 195.602 173.762 195.411 173.769 195.174H175.092C175.089 195.532 174.991 195.861 174.799 196.16C174.607 196.456 174.343 196.688 174.008 196.854C173.676 197.016 173.308 197.098 172.904 197.098C172.149 197.098 171.553 196.858 171.117 196.38C170.681 195.898 170.463 195.234 170.463 194.388V194.295C170.463 193.481 170.679 192.832 171.112 192.347C171.545 191.862 172.139 191.619 172.895 191.619C173.555 191.619 174.084 191.808 174.481 192.186C174.882 192.56 175.085 193.06 175.092 193.685H173.769C173.762 193.411 173.677 193.19 173.515 193.021C173.352 192.848 173.137 192.762 172.87 192.762C172.541 192.762 172.292 192.882 172.123 193.123C171.957 193.361 171.874 193.748 171.874 194.285V194.432C171.874 194.975 171.957 195.366 172.123 195.604C172.289 195.841 172.541 195.96 172.88 195.96ZM177.196 191.717L177.24 192.327C177.618 191.855 178.124 191.619 178.759 191.619C179.319 191.619 179.735 191.784 180.009 192.112C180.282 192.441 180.422 192.933 180.429 193.587V197H179.018V193.621C179.018 193.322 178.952 193.105 178.822 192.972C178.692 192.835 178.476 192.767 178.173 192.767C177.776 192.767 177.478 192.936 177.279 193.274V197H175.868V191.717H177.196ZM182.992 197H181.576V191.717H182.992V197ZM181.493 190.35C181.493 190.138 181.563 189.964 181.703 189.827C181.846 189.69 182.04 189.622 182.284 189.622C182.525 189.622 182.717 189.69 182.86 189.827C183.004 189.964 183.075 190.138 183.075 190.35C183.075 190.564 183.002 190.74 182.855 190.877C182.712 191.014 182.522 191.082 182.284 191.082C182.047 191.082 181.854 191.014 181.708 190.877C181.565 190.74 181.493 190.564 181.493 190.35ZM186.356 195.96C186.617 195.96 186.828 195.888 186.991 195.745C187.154 195.602 187.239 195.411 187.245 195.174H188.568C188.565 195.532 188.467 195.861 188.275 196.16C188.083 196.456 187.82 196.688 187.484 196.854C187.152 197.016 186.785 197.098 186.381 197.098C185.626 197.098 185.03 196.858 184.594 196.38C184.158 195.898 183.939 195.234 183.939 194.388V194.295C183.939 193.481 184.156 192.832 184.589 192.347C185.022 191.862 185.616 191.619 186.371 191.619C187.032 191.619 187.561 191.808 187.958 192.186C188.358 192.56 188.562 193.06 188.568 193.685H187.245C187.239 193.411 187.154 193.19 186.991 193.021C186.828 192.848 186.614 192.762 186.347 192.762C186.018 192.762 185.769 192.882 185.6 193.123C185.434 193.361 185.351 193.748 185.351 194.285V194.432C185.351 194.975 185.434 195.366 185.6 195.604C185.766 195.841 186.018 195.96 186.356 195.96ZM189.154 194.31C189.154 193.785 189.255 193.318 189.457 192.908C189.659 192.498 189.949 192.181 190.326 191.956C190.707 191.731 191.148 191.619 191.649 191.619C192.362 191.619 192.943 191.837 193.393 192.273C193.845 192.71 194.097 193.302 194.149 194.051L194.159 194.412C194.159 195.223 193.933 195.874 193.48 196.365C193.028 196.854 192.421 197.098 191.659 197.098C190.897 197.098 190.289 196.854 189.833 196.365C189.381 195.877 189.154 195.213 189.154 194.373V194.31ZM190.565 194.412C190.565 194.913 190.66 195.298 190.849 195.564C191.037 195.828 191.308 195.96 191.659 195.96C192.001 195.96 192.268 195.83 192.46 195.569C192.652 195.306 192.748 194.886 192.748 194.31C192.748 193.818 192.652 193.437 192.46 193.167C192.268 192.897 191.998 192.762 191.649 192.762C191.304 192.762 191.037 192.897 190.849 193.167C190.66 193.434 190.565 193.849 190.565 194.412Z" fill="white"/>
<rect x="104" y="137" width="142" height="30" rx="15" fill="#30485F"/>
<path d="M125.648 153.535H123.08L122.592 155H121.034L123.681 147.891H125.038L127.699 155H126.142L125.648 153.535ZM123.476 152.349H125.253L124.359 149.688L123.476 152.349ZM129.872 148.418V149.717H130.775V150.752H129.872V153.389C129.872 153.584 129.91 153.724 129.984 153.809C130.059 153.893 130.202 153.936 130.414 153.936C130.57 153.936 130.709 153.924 130.829 153.901V154.971C130.552 155.055 130.268 155.098 129.975 155.098C128.985 155.098 128.48 154.598 128.461 153.599V150.752H127.689V149.717H128.461V148.418H129.872ZM133.993 155.098C133.218 155.098 132.587 154.86 132.099 154.385C131.614 153.91 131.371 153.276 131.371 152.485V152.349C131.371 151.818 131.474 151.344 131.679 150.928C131.884 150.508 132.174 150.186 132.548 149.961C132.925 149.733 133.355 149.619 133.837 149.619C134.56 149.619 135.128 149.847 135.541 150.303C135.958 150.758 136.166 151.405 136.166 152.241V152.817H132.802C132.847 153.162 132.984 153.439 133.212 153.647C133.443 153.856 133.734 153.96 134.086 153.96C134.63 153.96 135.054 153.763 135.36 153.369L136.054 154.146C135.842 154.445 135.556 154.679 135.194 154.849C134.833 155.015 134.433 155.098 133.993 155.098ZM133.832 150.762C133.552 150.762 133.324 150.856 133.148 151.045C132.976 151.234 132.865 151.504 132.816 151.855H134.779V151.743C134.773 151.431 134.688 151.19 134.525 151.021C134.363 150.848 134.132 150.762 133.832 150.762ZM138.271 149.717L138.314 150.327C138.692 149.855 139.198 149.619 139.833 149.619C140.393 149.619 140.81 149.784 141.083 150.112C141.356 150.441 141.496 150.933 141.503 151.587V155H140.092V151.621C140.092 151.322 140.027 151.105 139.896 150.972C139.766 150.835 139.55 150.767 139.247 150.767C138.85 150.767 138.552 150.936 138.354 151.274V155H136.942V149.717H138.271ZM144.774 153.96C145.035 153.96 145.246 153.888 145.409 153.745C145.572 153.602 145.657 153.411 145.663 153.174H146.986C146.983 153.532 146.885 153.861 146.693 154.16C146.501 154.456 146.238 154.688 145.902 154.854C145.57 155.016 145.202 155.098 144.799 155.098C144.044 155.098 143.448 154.858 143.012 154.38C142.576 153.898 142.357 153.234 142.357 152.388V152.295C142.357 151.481 142.574 150.832 143.007 150.347C143.44 149.862 144.034 149.619 144.789 149.619C145.45 149.619 145.979 149.808 146.376 150.186C146.776 150.56 146.98 151.06 146.986 151.685H145.663C145.657 151.411 145.572 151.19 145.409 151.021C145.246 150.848 145.032 150.762 144.765 150.762C144.436 150.762 144.187 150.882 144.018 151.123C143.852 151.361 143.769 151.748 143.769 152.285V152.432C143.769 152.975 143.852 153.366 144.018 153.604C144.184 153.841 144.436 153.96 144.774 153.96ZM149.281 155H147.865V149.717H149.281V155ZM147.782 148.35C147.782 148.138 147.852 147.964 147.992 147.827C148.135 147.69 148.329 147.622 148.573 147.622C148.814 147.622 149.006 147.69 149.149 147.827C149.293 147.964 149.364 148.138 149.364 148.35C149.364 148.564 149.291 148.74 149.145 148.877C149.001 149.014 148.811 149.082 148.573 149.082C148.336 149.082 148.144 149.014 147.997 148.877C147.854 148.74 147.782 148.564 147.782 148.35ZM150.229 152.31C150.229 151.785 150.329 151.318 150.531 150.908C150.733 150.498 151.023 150.181 151.4 149.956C151.781 149.731 152.222 149.619 152.724 149.619C153.437 149.619 154.018 149.837 154.467 150.273C154.919 150.71 155.172 151.302 155.224 152.051L155.233 152.412C155.233 153.223 155.007 153.874 154.555 154.365C154.102 154.854 153.495 155.098 152.733 155.098C151.972 155.098 151.363 154.854 150.907 154.365C150.455 153.877 150.229 153.213 150.229 152.373V152.31ZM151.64 152.412C151.64 152.913 151.734 153.298 151.923 153.564C152.112 153.828 152.382 153.96 152.733 153.96C153.075 153.96 153.342 153.83 153.534 153.569C153.726 153.306 153.822 152.886 153.822 152.31C153.822 151.818 153.726 151.437 153.534 151.167C153.342 150.897 153.072 150.762 152.724 150.762C152.379 150.762 152.112 150.897 151.923 151.167C151.734 151.434 151.64 151.849 151.64 152.412ZM153.002 147.5H154.54L153.188 149.014H152.04L153.002 147.5ZM157.401 149.717L157.445 150.327C157.823 149.855 158.329 149.619 158.964 149.619C159.524 149.619 159.94 149.784 160.214 150.112C160.487 150.441 160.627 150.933 160.634 151.587V155H159.223V151.621C159.223 151.322 159.158 151.105 159.027 150.972C158.897 150.835 158.681 150.767 158.378 150.767C157.981 150.767 157.683 150.936 157.484 151.274V155H156.073V149.717H157.401ZM167.26 155C167.195 154.873 167.147 154.715 167.118 154.526C166.776 154.907 166.332 155.098 165.785 155.098C165.268 155.098 164.838 154.948 164.496 154.648C164.158 154.349 163.988 153.971 163.988 153.516C163.988 152.956 164.195 152.526 164.608 152.227C165.025 151.927 165.626 151.776 166.41 151.772H167.06V151.47C167.06 151.226 166.996 151.03 166.869 150.884C166.745 150.737 166.549 150.664 166.278 150.664C166.041 150.664 165.854 150.721 165.717 150.835C165.583 150.949 165.517 151.105 165.517 151.304H164.105C164.105 150.998 164.2 150.715 164.389 150.454C164.577 150.194 164.844 149.99 165.189 149.844C165.535 149.694 165.922 149.619 166.352 149.619C167.003 149.619 167.519 149.784 167.899 150.112C168.284 150.438 168.476 150.897 168.476 151.489V153.779C168.479 154.281 168.549 154.66 168.686 154.917V155H167.26ZM166.093 154.019C166.301 154.019 166.493 153.973 166.669 153.882C166.845 153.787 166.975 153.662 167.06 153.506V152.598H166.532C165.826 152.598 165.45 152.842 165.404 153.33L165.399 153.413C165.399 153.589 165.461 153.734 165.585 153.848C165.709 153.962 165.878 154.019 166.093 154.019ZM171.049 155H169.633V147.5H171.049V155ZM180.38 152.632C180.325 153.397 180.041 153.999 179.53 154.438C179.022 154.878 178.352 155.098 177.519 155.098C176.607 155.098 175.889 154.792 175.365 154.18C174.844 153.564 174.584 152.721 174.584 151.65V151.216C174.584 150.532 174.704 149.93 174.945 149.409C175.186 148.888 175.53 148.49 175.976 148.213C176.425 147.933 176.946 147.793 177.538 147.793C178.358 147.793 179.019 148.013 179.521 148.452C180.022 148.892 180.312 149.508 180.39 150.303H178.925C178.889 149.844 178.76 149.512 178.539 149.307C178.321 149.098 177.987 148.994 177.538 148.994C177.05 148.994 176.684 149.17 176.439 149.521C176.199 149.87 176.075 150.412 176.068 151.147V151.685C176.068 152.453 176.184 153.014 176.415 153.369C176.649 153.724 177.017 153.901 177.519 153.901C177.971 153.901 178.308 153.799 178.529 153.594C178.754 153.385 178.882 153.065 178.915 152.632H180.38ZM182.738 155H181.322V147.5H182.738V155ZM185.395 155H183.979V149.717H185.395V155ZM183.896 148.35C183.896 148.138 183.965 147.964 184.105 147.827C184.249 147.69 184.442 147.622 184.687 147.622C184.927 147.622 185.119 147.69 185.263 147.827C185.406 147.964 185.478 148.138 185.478 148.35C185.478 148.564 185.404 148.74 185.258 148.877C185.115 149.014 184.924 149.082 184.687 149.082C184.449 149.082 184.257 149.014 184.11 148.877C183.967 148.74 183.896 148.564 183.896 148.35ZM188.993 155.098C188.218 155.098 187.587 154.86 187.099 154.385C186.614 153.91 186.371 153.276 186.371 152.485V152.349C186.371 151.818 186.474 151.344 186.679 150.928C186.884 150.508 187.174 150.186 187.548 149.961C187.925 149.733 188.355 149.619 188.837 149.619C189.56 149.619 190.128 149.847 190.541 150.303C190.958 150.758 191.166 151.405 191.166 152.241V152.817H187.802C187.847 153.162 187.984 153.439 188.212 153.647C188.443 153.856 188.734 153.96 189.086 153.96C189.63 153.96 190.054 153.763 190.36 153.369L191.054 154.146C190.842 154.445 190.556 154.679 190.194 154.849C189.833 155.015 189.433 155.098 188.993 155.098ZM188.832 150.762C188.552 150.762 188.324 150.856 188.148 151.045C187.976 151.234 187.865 151.504 187.816 151.855H189.779V151.743C189.773 151.431 189.688 151.19 189.525 151.021C189.363 150.848 189.132 150.762 188.832 150.762ZM193.271 149.717L193.314 150.327C193.692 149.855 194.198 149.619 194.833 149.619C195.393 149.619 195.81 149.784 196.083 150.112C196.356 150.441 196.496 150.933 196.503 151.587V155H195.092V151.621C195.092 151.322 195.027 151.105 194.896 150.972C194.766 150.835 194.55 150.767 194.247 150.767C193.85 150.767 193.552 150.936 193.354 151.274V155H191.942V149.717H193.271ZM199.267 148.418V149.717H200.17V150.752H199.267V153.389C199.267 153.584 199.304 153.724 199.379 153.809C199.454 153.893 199.597 153.936 199.809 153.936C199.965 153.936 200.103 153.924 200.224 153.901V154.971C199.947 155.055 199.662 155.098 199.369 155.098C198.38 155.098 197.875 154.598 197.855 153.599V150.752H197.084V149.717H197.855V148.418H199.267ZM203.388 155.098C202.613 155.098 201.981 154.86 201.493 154.385C201.008 153.91 200.766 153.276 200.766 152.485V152.349C200.766 151.818 200.868 151.344 201.073 150.928C201.278 150.508 201.568 150.186 201.942 149.961C202.32 149.733 202.75 149.619 203.231 149.619C203.954 149.619 204.522 149.847 204.936 150.303C205.352 150.758 205.561 151.405 205.561 152.241V152.817H202.196C202.242 153.162 202.379 153.439 202.606 153.647C202.838 153.856 203.129 153.96 203.48 153.96C204.024 153.96 204.449 153.763 204.755 153.369L205.448 154.146C205.237 154.445 204.95 154.679 204.589 154.849C204.228 155.015 203.827 155.098 203.388 155.098ZM203.227 150.762C202.947 150.762 202.719 150.856 202.543 151.045C202.37 151.234 202.26 151.504 202.211 151.855H204.174V151.743C204.167 151.431 204.083 151.19 203.92 151.021C203.757 150.848 203.526 150.762 203.227 150.762Z" fill="white"/>
<g clip-path="url(#clip0)">
<path d="M245.665 26.8412C246.286 27.4629 246.286 28.4707 245.665 29.0924C245.043 29.714 244.035 29.714 243.413 29.0924C242.792 28.4707 242.792 27.4629 243.413 26.8412C244.035 26.2196 245.043 26.2196 245.665 26.8412Z" fill="#97A3AF"/>
<path d="M245.665 31.6166C246.286 32.2382 246.286 33.2461 245.665 33.8677C245.043 34.4894 244.035 34.4894 243.413 33.8677C242.792 33.2461 242.792 32.2382 243.413 31.6166C244.035 30.995 245.043 30.995 245.665 31.6166Z" fill="#97A3AF"/>
<path d="M245.665 36.392C246.286 37.0136 246.286 38.0215 245.665 38.6431C245.043 39.2648 244.035 39.2648 243.413 38.6431C242.792 38.0215 242.792 37.0136 243.413 36.392C244.035 35.7704 245.043 35.7704 245.665 36.392Z" fill="#97A3AF"/>
</g>
<rect x="124.836" y="26.375" width="109.516" height="12.7344" fill="#F5F5F5"/>
<g clip-path="url(#clip1)">
<path d="M117.195 31.8326H108.099L111.283 28.6491L109.919 27.2847L104.461 32.7422L109.919 38.1998L111.283 36.8354L108.099 33.6518H117.195V31.8326Z" fill="#97A3AF"/>
</g>
</g>
<path d="M42.6412 84.1582H5.36548V108.737H42.6414V84.1582H42.6412ZM39.8478 105.946H8.15795V86.9497H39.8478V105.946Z" fill="black"/>
<path d="M42.6355 109.879H24.5313H23.4696H5.36448L0 110.148V113.842H48.0002V110.148L42.6355 109.879ZM29.2718 112.312H18.1007V111.573H29.2718V112.312Z" fill="black"/>
<path d="M24.4855 137.744L27.964 133.374C28.3141 132.922 27.9978 132.244 27.4219 132.244H26.2586C25.8859 132.244 25.5584 131.996 25.5584 131.623V124.678C25.5584 124.305 25.2874 124 24.9034 124H23.0738C22.7124 124 22.3962 124.305 22.3962 124.678V131.623C22.3962 131.996 22.1025 132.244 21.7299 132.244H20.5666C20.002 132.244 19.6857 132.922 20.0358 133.362L23.4239 137.722C23.6837 138.083 24.2145 138.094 24.4855 137.744Z" fill="black"/>
<path d="M32.302 234H16.698C15.398 234 14.334 235.063 14.334 236.364V266.635C14.334 267.936 15.398 269 16.698 269H32.302C33.602 269 34.666 267.938 34.666 266.636V236.364C34.666 235.063 33.602 234 32.302 234ZM22.004 235.704H26.996C27.154 235.704 27.282 235.832 27.282 235.991C27.282 236.149 27.154 236.277 26.996 236.277H22.004C21.846 236.277 21.718 236.149 21.718 235.991C21.718 235.832 21.846 235.704 22.004 235.704ZM24.5 267.818C23.847 267.818 23.318 267.289 23.318 266.635C23.318 265.981 23.847 265.453 24.5 265.453C25.153 265.453 25.682 265.981 25.682 266.635C25.682 267.289 25.153 267.818 24.5 267.818ZM33.021 264.625H15.979V237.749H33.021V264.625Z" fill="black"/>
<circle cx="23.8477" cy="172.848" r="23.8477" fill="#0F8DFF"/>
<path d="M39.5915 183.095L46.2875 194.274H32.8955L39.5915 183.095Z" fill="#0F8DFF"/>
<g clip-path="url(#clip2)">
<path d="M23.2507 160.138L20.0384 160.704C19.5946 160.782 19.2943 161.18 19.3672 161.593C19.44 162.007 19.8583 162.278 20.3021 162.199L23.5144 161.633C23.9582 161.555 24.2584 161.157 24.1856 160.744C24.1127 160.331 23.6945 160.059 23.2507 160.138Z" fill="white"/>
<path d="M27.2695 156.859L15.3066 158.969C13.6578 159.259 12.5525 160.838 12.8433 162.487L17.062 186.413C17.3528 188.061 18.9312 189.167 20.5801 188.876L32.543 186.767C34.1918 186.476 35.2971 184.897 35.0063 183.249L30.7876 159.323C30.4968 157.674 28.9184 156.569 27.2695 156.859ZM33.511 183.512C33.6566 184.338 33.1052 185.126 32.2793 185.271L20.3164 187.381C19.4905 187.526 18.703 186.975 18.5574 186.149L14.3386 162.223C14.193 161.397 14.7444 160.61 15.5703 160.464L27.5332 158.355C28.3591 158.209 29.1466 158.76 29.2922 159.586L33.511 183.512Z" fill="white"/>
<rect x="13.916" y="167.924" width="13.9733" height="8.75659" transform="rotate(43 13.916 167.924)" fill="#0F8DFF"/>
<rect x="24.7119" y="169.256" width="13.9733" height="8.75659" transform="rotate(-43 24.7119 169.256)" fill="#0F8DFF"/>
</g>
<path d="M36.3897 167.728L22.284 181.832C21.2395 182.877 19.545 182.877 18.4995 181.832L11.218 174.55C10.1731 173.506 10.1731 171.811 11.218 170.766C12.2632 169.721 13.9575 169.721 15.0021 170.766L20.3923 176.156L32.605 163.943C33.6502 162.898 35.3446 162.899 36.3894 163.943C37.4341 164.988 37.4341 166.682 36.3897 167.728Z" fill="white"/>
<path d="M36.3897 167.728L22.284 181.832C21.2395 182.877 19.545 182.877 18.4995 181.832L11.218 174.55C10.1731 173.506 10.1731 171.811 11.218 170.766C12.2632 169.721 13.9575 169.721 15.0021 170.766L20.3923 176.156L32.605 163.943C33.6502 162.898 35.3446 162.899 36.3894 163.943C37.4341 164.988 37.4341 166.682 36.3897 167.728Z" stroke="#0F8DFF"/>
<path d="M75.7443 172.514L71.3737 169.036C70.9219 168.686 70.2443 169.002 70.2443 169.578V170.741C70.2443 171.114 69.9959 171.442 69.6232 171.442H62.6776C62.3049 171.442 62 171.713 62 172.097V173.926C62 174.288 62.3049 174.604 62.6776 174.604H69.6232C69.9959 174.604 70.2443 174.898 70.2443 175.27V176.433C70.2443 176.998 70.9219 177.314 71.3624 176.964L75.7217 173.576C76.0831 173.316 76.0944 172.786 75.7443 172.514Z" fill="black"/>
<g filter="url(#filter1_d)">
<rect x="304" y="8" width="160.273" height="322" rx="13" fill="white" stroke="black" stroke-width="4"/>
<path d="M352.078 110.135C352.078 109.858 351.98 109.646 351.785 109.5C351.59 109.35 351.238 109.194 350.73 109.031C350.223 108.865 349.821 108.702 349.524 108.543C348.717 108.107 348.313 107.519 348.313 106.78C348.313 106.396 348.421 106.054 348.636 105.755C348.854 105.452 349.165 105.216 349.568 105.047C349.975 104.878 350.431 104.793 350.936 104.793C351.443 104.793 351.896 104.886 352.293 105.071C352.69 105.254 352.998 105.512 353.216 105.848C353.437 106.183 353.548 106.564 353.548 106.99H352.083C352.083 106.665 351.98 106.412 351.775 106.233C351.57 106.051 351.282 105.96 350.911 105.96C350.553 105.96 350.275 106.036 350.076 106.189C349.878 106.339 349.778 106.538 349.778 106.785C349.778 107.016 349.894 107.21 350.125 107.366C350.359 107.522 350.703 107.669 351.155 107.806C351.989 108.056 352.596 108.367 352.977 108.738C353.357 109.109 353.548 109.572 353.548 110.125C353.548 110.74 353.315 111.224 352.85 111.575C352.384 111.924 351.757 112.098 350.97 112.098C350.423 112.098 349.925 111.998 349.476 111.8C349.026 111.598 348.683 111.323 348.445 110.975C348.211 110.626 348.094 110.223 348.094 109.764H349.563C349.563 110.548 350.032 110.94 350.97 110.94C351.318 110.94 351.59 110.87 351.785 110.73C351.98 110.587 352.078 110.389 352.078 110.135ZM354.231 109.31C354.231 108.785 354.332 108.318 354.534 107.908C354.736 107.498 355.026 107.181 355.403 106.956C355.784 106.731 356.225 106.619 356.727 106.619C357.439 106.619 358.021 106.837 358.47 107.273C358.922 107.71 359.174 108.302 359.227 109.051L359.236 109.412C359.236 110.223 359.01 110.874 358.558 111.365C358.105 111.854 357.498 112.098 356.736 112.098C355.975 112.098 355.366 111.854 354.91 111.365C354.458 110.877 354.231 110.213 354.231 109.373V109.31ZM355.643 109.412C355.643 109.913 355.737 110.298 355.926 110.564C356.115 110.828 356.385 110.96 356.736 110.96C357.078 110.96 357.345 110.83 357.537 110.569C357.729 110.306 357.825 109.886 357.825 109.31C357.825 108.818 357.729 108.437 357.537 108.167C357.345 107.897 357.075 107.762 356.727 107.762C356.382 107.762 356.115 107.897 355.926 108.167C355.737 108.434 355.643 108.849 355.643 109.412ZM364.861 109.407C364.861 110.221 364.676 110.874 364.305 111.365C363.937 111.854 363.439 112.098 362.811 112.098C362.277 112.098 361.845 111.912 361.517 111.541V114.031H360.105V106.717H361.414L361.463 107.234C361.805 106.824 362.251 106.619 362.801 106.619C363.452 106.619 363.958 106.86 364.319 107.342C364.681 107.824 364.861 108.488 364.861 109.334V109.407ZM363.45 109.305C363.45 108.813 363.362 108.434 363.187 108.167C363.014 107.9 362.762 107.767 362.43 107.767C361.987 107.767 361.683 107.936 361.517 108.274V110.438C361.689 110.786 361.997 110.96 362.439 110.96C363.113 110.96 363.45 110.408 363.45 109.305ZM365.521 109.31C365.521 108.785 365.621 108.318 365.823 107.908C366.025 107.498 366.315 107.181 366.692 106.956C367.073 106.731 367.514 106.619 368.016 106.619C368.729 106.619 369.31 106.837 369.759 107.273C370.211 107.71 370.464 108.302 370.516 109.051L370.525 109.412C370.525 110.223 370.299 110.874 369.847 111.365C369.394 111.854 368.787 112.098 368.025 112.098C367.264 112.098 366.655 111.854 366.199 111.365C365.747 110.877 365.521 110.213 365.521 109.373V109.31ZM366.932 109.412C366.932 109.913 367.026 110.298 367.215 110.564C367.404 110.828 367.674 110.96 368.025 110.96C368.367 110.96 368.634 110.83 368.826 110.569C369.018 110.306 369.114 109.886 369.114 109.31C369.114 108.818 369.018 108.437 368.826 108.167C368.634 107.897 368.364 107.762 368.016 107.762C367.671 107.762 367.404 107.897 367.215 108.167C367.026 108.434 366.932 108.849 366.932 109.412ZM374.363 108.04C374.171 108.014 374.002 108.001 373.855 108.001C373.322 108.001 372.972 108.182 372.806 108.543V112H371.395V106.717H372.728L372.767 107.347C373.05 106.862 373.442 106.619 373.943 106.619C374.1 106.619 374.246 106.64 374.383 106.683L374.363 108.04ZM376.98 105.418V106.717H377.884V107.752H376.98V110.389C376.98 110.584 377.018 110.724 377.093 110.809C377.168 110.893 377.311 110.936 377.522 110.936C377.679 110.936 377.817 110.924 377.938 110.901V111.971C377.661 112.055 377.376 112.098 377.083 112.098C376.093 112.098 375.589 111.598 375.569 110.599V107.752H374.798V106.717H375.569V105.418H376.98ZM381.102 112.098C380.327 112.098 379.695 111.86 379.207 111.385C378.722 110.91 378.479 110.276 378.479 109.485V109.349C378.479 108.818 378.582 108.344 378.787 107.928C378.992 107.508 379.282 107.186 379.656 106.961C380.034 106.733 380.464 106.619 380.945 106.619C381.668 106.619 382.236 106.847 382.649 107.303C383.066 107.758 383.274 108.405 383.274 109.241V109.817H379.91C379.956 110.162 380.092 110.439 380.32 110.647C380.551 110.856 380.843 110.96 381.194 110.96C381.738 110.96 382.163 110.763 382.469 110.369L383.162 111.146C382.951 111.445 382.664 111.679 382.303 111.849C381.941 112.015 381.541 112.098 381.102 112.098ZM380.94 107.762C380.66 107.762 380.433 107.856 380.257 108.045C380.084 108.234 379.974 108.504 379.925 108.855H381.888V108.743C381.881 108.431 381.797 108.19 381.634 108.021C381.471 107.848 381.24 107.762 380.94 107.762ZM391.722 106.077H389.544V112H388.079V106.077H385.931V104.891H391.722V106.077ZM394.461 112.098C393.686 112.098 393.055 111.86 392.566 111.385C392.081 110.91 391.839 110.276 391.839 109.485V109.349C391.839 108.818 391.941 108.344 392.146 107.928C392.352 107.508 392.641 107.186 393.016 106.961C393.393 106.733 393.823 106.619 394.305 106.619C395.027 106.619 395.595 106.847 396.009 107.303C396.425 107.758 396.634 108.405 396.634 109.241V109.817H393.27C393.315 110.162 393.452 110.439 393.68 110.647C393.911 110.856 394.202 110.96 394.554 110.96C395.097 110.96 395.522 110.763 395.828 110.369L396.521 111.146C396.31 111.445 396.023 111.679 395.662 111.849C395.301 112.015 394.9 112.098 394.461 112.098ZM394.3 107.762C394.02 107.762 393.792 107.856 393.616 108.045C393.444 108.234 393.333 108.504 393.284 108.855H395.247V108.743C395.241 108.431 395.156 108.19 394.993 108.021C394.83 107.848 394.599 107.762 394.3 107.762ZM394.427 104.5H395.965L394.612 106.014H393.465L394.427 104.5ZM399.637 110.96C399.897 110.96 400.109 110.888 400.271 110.745C400.434 110.602 400.519 110.411 400.525 110.174H401.849C401.845 110.532 401.748 110.861 401.556 111.16C401.364 111.456 401.1 111.688 400.765 111.854C400.433 112.016 400.065 112.098 399.661 112.098C398.906 112.098 398.31 111.858 397.874 111.38C397.438 110.898 397.22 110.234 397.22 109.388V109.295C397.22 108.481 397.436 107.832 397.869 107.347C398.302 106.862 398.896 106.619 399.651 106.619C400.312 106.619 400.841 106.808 401.238 107.186C401.639 107.56 401.842 108.06 401.849 108.685H400.525C400.519 108.411 400.434 108.19 400.271 108.021C400.109 107.848 399.894 107.762 399.627 107.762C399.298 107.762 399.049 107.882 398.88 108.123C398.714 108.361 398.631 108.748 398.631 109.285V109.432C398.631 109.975 398.714 110.366 398.88 110.604C399.046 110.841 399.298 110.96 399.637 110.96ZM403.953 106.717L403.997 107.327C404.375 106.855 404.881 106.619 405.516 106.619C406.076 106.619 406.492 106.784 406.766 107.112C407.039 107.441 407.179 107.933 407.186 108.587V112H405.774V108.621C405.774 108.322 405.709 108.105 405.579 107.972C405.449 107.835 405.232 107.767 404.93 107.767C404.533 107.767 404.235 107.936 404.036 108.274V112H402.625V106.717H403.953ZM409.749 112H408.333V106.717H409.749V112ZM408.25 105.35C408.25 105.138 408.32 104.964 408.46 104.827C408.603 104.69 408.797 104.622 409.041 104.622C409.282 104.622 409.474 104.69 409.617 104.827C409.76 104.964 409.832 105.138 409.832 105.35C409.832 105.564 409.759 105.74 409.612 105.877C409.469 106.014 409.279 106.082 409.041 106.082C408.803 106.082 408.611 106.014 408.465 105.877C408.322 105.74 408.25 105.564 408.25 105.35ZM413.113 110.96C413.374 110.96 413.585 110.888 413.748 110.745C413.911 110.602 413.995 110.411 414.002 110.174H415.325C415.322 110.532 415.224 110.861 415.032 111.16C414.84 111.456 414.576 111.688 414.241 111.854C413.909 112.016 413.541 112.098 413.138 112.098C412.382 112.098 411.787 111.858 411.351 111.38C410.914 110.898 410.696 110.234 410.696 109.388V109.295C410.696 108.481 410.913 107.832 411.346 107.347C411.779 106.862 412.373 106.619 413.128 106.619C413.789 106.619 414.318 106.808 414.715 107.186C415.115 107.56 415.319 108.06 415.325 108.685H414.002C413.995 108.411 413.911 108.19 413.748 108.021C413.585 107.848 413.37 107.762 413.104 107.762C412.775 107.762 412.526 107.882 412.356 108.123C412.19 108.361 412.107 108.748 412.107 109.285V109.432C412.107 109.975 412.19 110.366 412.356 110.604C412.522 110.841 412.775 110.96 413.113 110.96ZM415.911 109.31C415.911 108.785 416.012 108.318 416.214 107.908C416.416 107.498 416.705 107.181 417.083 106.956C417.464 106.731 417.905 106.619 418.406 106.619C419.119 106.619 419.7 106.837 420.149 107.273C420.602 107.71 420.854 108.302 420.906 109.051L420.916 109.412C420.916 110.223 420.69 110.874 420.237 111.365C419.785 111.854 419.178 112.098 418.416 112.098C417.654 112.098 417.046 111.854 416.59 111.365C416.137 110.877 415.911 110.213 415.911 109.373V109.31ZM417.322 109.412C417.322 109.913 417.417 110.298 417.605 110.564C417.794 110.828 418.064 110.96 418.416 110.96C418.758 110.96 419.025 110.83 419.217 110.569C419.409 110.306 419.505 109.886 419.505 109.31C419.505 108.818 419.409 108.437 419.217 108.167C419.025 107.897 418.755 107.762 418.406 107.762C418.061 107.762 417.794 107.897 417.605 108.167C417.417 108.434 417.322 108.849 417.322 109.412Z" fill="black"/>
<rect x="349.117" y="317.992" width="70.0391" height="3.82031" rx="1.91016" fill="#C4C4C4"/>
<path d="M345.297 6H424.25V8.73438C424.25 14.2572 419.773 18.7344 414.25 18.7344H355.297C349.774 18.7344 345.297 14.2572 345.297 8.73438V6Z" fill="black"/>
<rect x="313" y="210" width="142" height="30" rx="15" fill="#30485F"/>
<path d="M354.172 225.949L355.129 220.891H356.589L355.012 228H353.537L352.38 223.244L351.223 228H349.748L348.171 220.891H349.631L350.593 225.939L351.765 220.891H353.005L354.172 225.949ZM358.669 223.293C359.043 222.844 359.514 222.619 360.08 222.619C361.226 222.619 361.807 223.285 361.823 224.616V228H360.412V224.655C360.412 224.353 360.347 224.13 360.217 223.986C360.087 223.84 359.87 223.767 359.567 223.767C359.154 223.767 358.854 223.926 358.669 224.245V228H357.258V220.5H358.669V223.293ZM365.949 228C365.884 227.873 365.837 227.715 365.808 227.526C365.466 227.907 365.021 228.098 364.475 228.098C363.957 228.098 363.527 227.948 363.186 227.648C362.847 227.349 362.678 226.971 362.678 226.516C362.678 225.956 362.884 225.526 363.298 225.227C363.715 224.927 364.315 224.776 365.1 224.772H365.749V224.47C365.749 224.226 365.686 224.03 365.559 223.884C365.435 223.737 365.238 223.664 364.968 223.664C364.73 223.664 364.543 223.721 364.406 223.835C364.273 223.949 364.206 224.105 364.206 224.304H362.795C362.795 223.998 362.889 223.715 363.078 223.454C363.267 223.194 363.534 222.99 363.879 222.844C364.224 222.694 364.611 222.619 365.041 222.619C365.692 222.619 366.208 222.784 366.589 223.112C366.973 223.438 367.165 223.897 367.165 224.489V226.779C367.168 227.281 367.238 227.66 367.375 227.917V228H365.949ZM364.782 227.019C364.991 227.019 365.183 226.973 365.358 226.882C365.534 226.787 365.664 226.662 365.749 226.506V225.598H365.222C364.515 225.598 364.139 225.842 364.094 226.33L364.089 226.413C364.089 226.589 364.151 226.734 364.274 226.848C364.398 226.962 364.567 227.019 364.782 227.019ZM369.938 221.418V222.717H370.842V223.752H369.938V226.389C369.938 226.584 369.976 226.724 370.051 226.809C370.126 226.893 370.269 226.936 370.48 226.936C370.637 226.936 370.775 226.924 370.896 226.901V227.971C370.619 228.055 370.334 228.098 370.041 228.098C369.051 228.098 368.547 227.598 368.527 226.599V223.752H367.756V222.717H368.527V221.418H369.938ZM374.489 226.54C374.489 226.368 374.403 226.232 374.23 226.135C374.061 226.034 373.788 225.944 373.41 225.866C372.154 225.603 371.525 225.069 371.525 224.265C371.525 223.796 371.719 223.405 372.106 223.093C372.497 222.777 373.007 222.619 373.635 222.619C374.305 222.619 374.841 222.777 375.241 223.093C375.645 223.409 375.847 223.819 375.847 224.323H374.436C374.436 224.121 374.37 223.955 374.24 223.825C374.11 223.692 373.907 223.625 373.63 223.625C373.392 223.625 373.208 223.679 373.078 223.786C372.948 223.894 372.883 224.03 372.883 224.196C372.883 224.353 372.956 224.479 373.103 224.577C373.252 224.672 373.503 224.755 373.854 224.826C374.206 224.895 374.502 224.973 374.743 225.061C375.489 225.334 375.861 225.808 375.861 226.481C375.861 226.963 375.655 227.354 375.241 227.653C374.828 227.95 374.294 228.098 373.64 228.098C373.197 228.098 372.803 228.02 372.458 227.863C372.116 227.704 371.848 227.487 371.652 227.214C371.457 226.937 371.359 226.639 371.359 226.32H372.697C372.71 226.571 372.803 226.763 372.976 226.896C373.148 227.03 373.379 227.097 373.669 227.097C373.939 227.097 374.143 227.046 374.279 226.945C374.419 226.841 374.489 226.706 374.489 226.54ZM379.836 228C379.771 227.873 379.724 227.715 379.694 227.526C379.353 227.907 378.908 228.098 378.361 228.098C377.844 228.098 377.414 227.948 377.072 227.648C376.734 227.349 376.564 226.971 376.564 226.516C376.564 225.956 376.771 225.526 377.185 225.227C377.601 224.927 378.202 224.776 378.986 224.772H379.636V224.47C379.636 224.226 379.572 224.03 379.445 223.884C379.322 223.737 379.125 223.664 378.854 223.664C378.617 223.664 378.43 223.721 378.293 223.835C378.16 223.949 378.093 224.105 378.093 224.304H376.682C376.682 223.998 376.776 223.715 376.965 223.454C377.154 223.194 377.421 222.99 377.766 222.844C378.111 222.694 378.498 222.619 378.928 222.619C379.579 222.619 380.095 222.784 380.476 223.112C380.86 223.438 381.052 223.897 381.052 224.489V226.779C381.055 227.281 381.125 227.66 381.262 227.917V228H379.836ZM378.669 227.019C378.877 227.019 379.069 226.973 379.245 226.882C379.421 226.787 379.551 226.662 379.636 226.506V225.598H379.108C378.402 225.598 378.026 225.842 377.98 226.33L377.976 226.413C377.976 226.589 378.037 226.734 378.161 226.848C378.285 226.962 378.454 227.019 378.669 227.019ZM386.892 225.407C386.892 226.221 386.706 226.874 386.335 227.365C385.967 227.854 385.469 228.098 384.841 228.098C384.307 228.098 383.876 227.912 383.547 227.541V230.031H382.136V222.717H383.444L383.493 223.234C383.835 222.824 384.281 222.619 384.831 222.619C385.482 222.619 385.988 222.86 386.35 223.342C386.711 223.824 386.892 224.488 386.892 225.334V225.407ZM385.48 225.305C385.48 224.813 385.393 224.434 385.217 224.167C385.044 223.9 384.792 223.767 384.46 223.767C384.017 223.767 383.713 223.936 383.547 224.274V226.438C383.719 226.786 384.027 226.96 384.47 226.96C385.144 226.96 385.48 226.408 385.48 225.305ZM392.526 225.407C392.526 226.221 392.341 226.874 391.97 227.365C391.602 227.854 391.104 228.098 390.476 228.098C389.942 228.098 389.51 227.912 389.182 227.541V230.031H387.771V222.717H389.079L389.128 223.234C389.47 222.824 389.916 222.619 390.466 222.619C391.117 222.619 391.623 222.86 391.984 223.342C392.346 223.824 392.526 224.488 392.526 225.334V225.407ZM391.115 225.305C391.115 224.813 391.027 224.434 390.852 224.167C390.679 223.9 390.427 223.767 390.095 223.767C389.652 223.767 389.348 223.936 389.182 224.274V226.438C389.354 226.786 389.662 226.96 390.104 226.96C390.778 226.96 391.115 226.408 391.115 225.305Z" fill="white"/>
<path d="M332.854 218H332.851C329.543 218 326.853 220.691 326.853 224C326.853 225.312 327.276 226.529 327.995 227.517L327.247 229.746L329.554 229.009C330.502 229.637 331.634 230 332.854 230C336.163 230 338.853 227.308 338.853 224C338.853 220.692 336.163 218 332.854 218ZM336.346 226.473C336.201 226.881 335.626 227.22 335.168 227.319C334.855 227.386 334.445 227.44 333.067 226.868C331.303 226.138 330.168 224.346 330.079 224.229C329.995 224.113 329.367 223.281 329.367 222.42C329.367 221.559 329.804 221.14 329.98 220.96C330.125 220.812 330.364 220.744 330.594 220.744C330.668 220.744 330.735 220.748 330.795 220.751C330.971 220.758 331.06 220.769 331.176 221.047C331.321 221.396 331.673 222.257 331.715 222.346C331.758 222.434 331.801 222.554 331.741 222.67C331.684 222.79 331.635 222.843 331.546 222.945C331.458 223.047 331.374 223.126 331.285 223.235C331.204 223.33 331.113 223.432 331.215 223.609C331.317 223.781 331.669 224.356 332.188 224.818C332.858 225.414 333.401 225.605 333.595 225.686C333.74 225.746 333.913 225.732 334.018 225.619C334.153 225.475 334.318 225.235 334.487 224.998C334.607 224.829 334.759 224.808 334.918 224.868C335.08 224.924 335.937 225.348 336.113 225.435C336.289 225.524 336.406 225.566 336.448 225.64C336.49 225.715 336.49 226.063 336.346 226.473Z" fill="white"/>
<rect x="313" y="251" width="142" height="30" rx="15" fill="#30485F"/>
<path d="M352.912 265.919H350.1V267.823H353.4V269H348.635V261.891H353.391V263.077H350.1V264.771H352.912V265.919ZM355.49 263.717L355.534 264.308C355.909 263.849 356.415 263.619 357.053 263.619C357.733 263.619 358.2 263.888 358.454 264.425C358.825 263.888 359.354 263.619 360.041 263.619C360.614 263.619 361.04 263.787 361.32 264.122C361.6 264.454 361.74 264.955 361.74 265.626V269H360.324V265.631C360.324 265.331 360.266 265.113 360.148 264.977C360.031 264.837 359.825 264.767 359.528 264.767C359.105 264.767 358.812 264.968 358.649 265.372L358.654 269H357.243V265.636C357.243 265.33 357.183 265.108 357.062 264.972C356.942 264.835 356.737 264.767 356.447 264.767C356.047 264.767 355.757 264.933 355.578 265.265V269H354.167V263.717H355.49ZM365.891 269C365.826 268.873 365.778 268.715 365.749 268.526C365.407 268.907 364.963 269.098 364.416 269.098C363.898 269.098 363.469 268.948 363.127 268.648C362.788 268.349 362.619 267.971 362.619 267.516C362.619 266.956 362.826 266.526 363.239 266.227C363.656 265.927 364.257 265.776 365.041 265.772H365.69V265.47C365.69 265.226 365.627 265.03 365.5 264.884C365.376 264.737 365.179 264.664 364.909 264.664C364.672 264.664 364.484 264.721 364.348 264.835C364.214 264.949 364.147 265.105 364.147 265.304H362.736C362.736 264.998 362.831 264.715 363.02 264.454C363.208 264.194 363.475 263.99 363.82 263.844C364.165 263.694 364.553 263.619 364.982 263.619C365.633 263.619 366.149 263.784 366.53 264.112C366.914 264.438 367.106 264.897 367.106 265.489V267.779C367.11 268.281 367.18 268.66 367.316 268.917V269H365.891ZM364.724 268.019C364.932 268.019 365.124 267.973 365.3 267.882C365.476 267.787 365.606 267.662 365.69 267.506V266.598H365.163C364.457 266.598 364.081 266.842 364.035 267.33L364.03 267.413C364.03 267.589 364.092 267.734 364.216 267.848C364.34 267.962 364.509 268.019 364.724 268.019ZM369.68 269H368.264V263.717H369.68V269ZM368.181 262.35C368.181 262.138 368.251 261.964 368.391 261.827C368.534 261.69 368.728 261.622 368.972 261.622C369.213 261.622 369.405 261.69 369.548 261.827C369.691 261.964 369.763 262.138 369.763 262.35C369.763 262.564 369.689 262.74 369.543 262.877C369.4 263.014 369.209 263.082 368.972 263.082C368.734 263.082 368.542 263.014 368.396 262.877C368.252 262.74 368.181 262.564 368.181 262.35ZM372.336 269H370.92V261.5H372.336V269Z" fill="white"/>
<path d="M334.707 270.379C333.673 270.845 332.776 271 331.552 271C328.69 271 326.172 268.948 326.172 265.569C326.172 262.052 328.724 259 332.621 259C335.655 259 337.828 261.086 337.828 263.983C337.828 266.5 336.414 268.086 334.552 268.086C333.742 268.086 333.155 267.672 333.069 266.759H333.035C332.5 267.638 331.724 268.086 330.811 268.086C329.69 268.086 328.879 267.259 328.879 265.845C328.879 263.741 330.431 261.827 332.914 261.827C333.673 261.827 334.534 262.017 334.966 262.259L334.449 265.448C334.276 266.465 334.397 266.931 334.88 266.948C335.621 266.965 336.552 266.017 336.552 264.034C336.552 261.793 335.104 260.051 332.431 260.051C329.793 260.051 327.483 262.121 327.483 265.414C327.483 268.293 329.328 269.931 331.897 269.931C332.776 269.931 333.707 269.741 334.397 269.379L334.707 270.379ZM333.172 263.259C333.034 263.224 332.862 263.19 332.638 263.19C331.5 263.19 330.603 264.31 330.603 265.638C330.603 266.293 330.897 266.707 331.465 266.707C332.103 266.707 332.776 265.896 332.931 264.896L333.172 263.259Z" fill="white"/>
<rect x="313" y="168" width="142" height="30" rx="15" fill="#30485F"/>
<path d="M350.1 184.823H353.21V186H348.635V178.891H350.1V184.823ZM355.451 186H354.035V178.5H355.451V186ZM359.68 186C359.615 185.873 359.567 185.715 359.538 185.526C359.196 185.907 358.752 186.098 358.205 186.098C357.688 186.098 357.258 185.948 356.916 185.648C356.577 185.349 356.408 184.971 356.408 184.516C356.408 183.956 356.615 183.526 357.028 183.227C357.445 182.927 358.046 182.776 358.83 182.772H359.479V182.47C359.479 182.226 359.416 182.03 359.289 181.884C359.165 181.737 358.968 181.664 358.698 181.664C358.461 181.664 358.273 181.721 358.137 181.835C358.003 181.949 357.937 182.105 357.937 182.304H356.525C356.525 181.998 356.62 181.715 356.809 181.454C356.997 181.194 357.264 180.99 357.609 180.844C357.954 180.694 358.342 180.619 358.771 180.619C359.423 180.619 359.938 180.784 360.319 181.112C360.703 181.438 360.896 181.897 360.896 182.489V184.779C360.899 185.281 360.969 185.66 361.105 185.917V186H359.68ZM358.513 185.019C358.721 185.019 358.913 184.973 359.089 184.882C359.265 184.787 359.395 184.662 359.479 184.506V183.598H358.952C358.246 183.598 357.87 183.842 357.824 184.33L357.819 184.413C357.819 184.589 357.881 184.734 358.005 184.848C358.129 184.962 358.298 185.019 358.513 185.019ZM363.303 180.717L363.347 181.308C363.721 180.849 364.227 180.619 364.865 180.619C365.546 180.619 366.013 180.888 366.267 181.425C366.638 180.888 367.167 180.619 367.854 180.619C368.426 180.619 368.853 180.787 369.133 181.122C369.413 181.454 369.553 181.955 369.553 182.626V186H368.137V182.631C368.137 182.331 368.078 182.113 367.961 181.977C367.844 181.837 367.637 181.767 367.341 181.767C366.918 181.767 366.625 181.968 366.462 182.372L366.467 186H365.056V182.636C365.056 182.33 364.995 182.108 364.875 181.972C364.755 181.835 364.549 181.767 364.26 181.767C363.859 181.767 363.57 181.933 363.391 182.265V186H361.979V180.717H363.303ZM373.703 186C373.638 185.873 373.591 185.715 373.562 185.526C373.22 185.907 372.775 186.098 372.229 186.098C371.711 186.098 371.281 185.948 370.939 185.648C370.601 185.349 370.432 184.971 370.432 184.516C370.432 183.956 370.638 183.526 371.052 183.227C371.468 182.927 372.069 182.776 372.854 182.772H373.503V182.47C373.503 182.226 373.439 182.03 373.312 181.884C373.189 181.737 372.992 181.664 372.722 181.664C372.484 181.664 372.297 181.721 372.16 181.835C372.027 181.949 371.96 182.105 371.96 182.304H370.549C370.549 181.998 370.643 181.715 370.832 181.454C371.021 181.194 371.288 180.99 371.633 180.844C371.978 180.694 372.365 180.619 372.795 180.619C373.446 180.619 373.962 180.784 374.343 181.112C374.727 181.438 374.919 181.897 374.919 182.489V184.779C374.922 185.281 374.992 185.66 375.129 185.917V186H373.703ZM372.536 185.019C372.744 185.019 372.937 184.973 373.112 184.882C373.288 184.787 373.418 184.662 373.503 184.506V183.598H372.976C372.269 183.598 371.893 183.842 371.848 184.33L371.843 184.413C371.843 184.589 371.905 184.734 372.028 184.848C372.152 184.962 372.321 185.019 372.536 185.019ZM378.972 182.04C378.78 182.014 378.61 182.001 378.464 182.001C377.93 182.001 377.58 182.182 377.414 182.543V186H376.003V180.717H377.336L377.375 181.347C377.658 180.862 378.05 180.619 378.552 180.619C378.708 180.619 378.854 180.64 378.991 180.683L378.972 182.04Z" fill="white"/>
<g clip-path="url(#clip3)">
<path d="M334.156 185.096C333.84 185.342 333.39 185.321 333.102 185.032L330.753 182.684C330.465 182.396 330.444 181.939 330.69 181.629L327.716 178.648C326.422 180.139 326.492 182.403 327.906 183.816L331.97 187.88C333.411 189.321 335.7 189.335 337.138 188.07L334.156 185.096Z" fill="white"/>
<path d="M331.428 179.386L329.938 177.889C329.544 177.495 328.848 177.495 328.447 177.889L328.201 178.142L331.182 181.123L331.428 180.877C331.632 180.673 331.738 180.413 331.738 180.132C331.738 179.85 331.632 179.583 331.428 179.386Z" fill="white"/>
<path d="M337.897 185.848L336.399 184.358C336.006 183.957 335.309 183.957 334.909 184.358L334.663 184.604L337.644 187.585L337.897 187.339C338.094 187.142 338.199 186.875 338.199 186.594C338.199 186.312 338.094 186.045 337.897 185.848Z" fill="white"/>
<path d="M332.813 176.991C332.35 176.991 332.348 177.69 332.813 177.69C335.721 177.69 338.091 180.06 338.091 182.968C338.091 183.431 338.79 183.433 338.79 182.968C338.79 179.672 336.109 176.991 332.813 176.991Z" fill="white"/>
<path d="M332.813 178.397C332.35 178.397 332.348 179.096 332.813 179.096C334.946 179.096 336.685 180.835 336.685 182.968C336.685 183.431 337.384 183.433 337.384 182.968C337.384 180.448 335.333 178.397 332.813 178.397Z" fill="white"/>
<path d="M332.813 179.804C332.35 179.804 332.348 180.502 332.813 180.502C334.17 180.502 335.279 181.611 335.279 182.968C335.279 183.431 335.977 183.433 335.977 182.968C335.977 181.223 334.558 179.804 332.813 179.804Z" fill="white"/>
<path d="M332.813 181.21C332.35 181.21 332.348 181.913 332.813 181.913C333.395 181.913 333.868 182.386 333.868 182.968C333.868 183.431 334.571 183.433 334.571 182.968C334.571 181.999 333.783 181.21 332.813 181.21Z" fill="white"/>
</g>
<rect x="313" y="126" width="142" height="30" rx="15" fill="#30485F"/>
<g clip-path="url(#clip4)">
<path d="M337.648 138.359C337.648 136.504 336.145 135 334.291 135C332.521 135 331.07 136.371 330.943 138.11C332.968 138.315 334.627 139.775 335.116 141.719H337.648L336.802 140.589C337.328 139.996 337.648 139.215 337.648 138.359Z" fill="white"/>
<path d="M330.823 138.805C328.408 138.592 326.352 140.491 326.352 142.895C326.352 143.941 326.743 144.895 327.386 145.62L326.352 147H330.455C332.721 147 334.559 145.162 334.559 142.895C334.559 140.76 332.926 138.992 330.823 138.805V138.805ZM328.217 141.775H330.455V142.522H328.217V141.775ZM332.693 144.016H328.217V143.269H332.693V144.016Z" fill="white"/>
</g>
<path d="M354.216 141.632C354.16 142.397 353.877 142.999 353.366 143.438C352.858 143.878 352.188 144.098 351.354 144.098C350.443 144.098 349.725 143.792 349.201 143.18C348.68 142.564 348.42 141.721 348.42 140.65V140.216C348.42 139.532 348.54 138.93 348.781 138.409C349.022 137.888 349.366 137.49 349.812 137.213C350.261 136.933 350.782 136.793 351.374 136.793C352.194 136.793 352.855 137.013 353.356 137.452C353.858 137.892 354.147 138.508 354.226 139.303H352.761C352.725 138.844 352.596 138.512 352.375 138.307C352.157 138.098 351.823 137.994 351.374 137.994C350.886 137.994 350.52 138.17 350.275 138.521C350.035 138.87 349.911 139.412 349.904 140.147V140.685C349.904 141.453 350.02 142.014 350.251 142.369C350.485 142.724 350.853 142.901 351.354 142.901C351.807 142.901 352.144 142.799 352.365 142.594C352.59 142.385 352.718 142.065 352.751 141.632H354.216ZM356.462 139.293C356.836 138.844 357.307 138.619 357.873 138.619C359.019 138.619 359.6 139.285 359.616 140.616V144H358.205V140.655C358.205 140.353 358.14 140.13 358.01 139.986C357.88 139.84 357.663 139.767 357.36 139.767C356.947 139.767 356.647 139.926 356.462 140.245V144H355.051V136.5H356.462V139.293ZM363.742 144C363.677 143.873 363.63 143.715 363.601 143.526C363.259 143.907 362.814 144.098 362.268 144.098C361.75 144.098 361.32 143.948 360.979 143.648C360.64 143.349 360.471 142.971 360.471 142.516C360.471 141.956 360.677 141.526 361.091 141.227C361.507 140.927 362.108 140.776 362.893 140.772H363.542V140.47C363.542 140.226 363.479 140.03 363.352 139.884C363.228 139.737 363.031 139.664 362.761 139.664C362.523 139.664 362.336 139.721 362.199 139.835C362.066 139.949 361.999 140.105 361.999 140.304H360.588C360.588 139.998 360.682 139.715 360.871 139.454C361.06 139.194 361.327 138.99 361.672 138.844C362.017 138.694 362.404 138.619 362.834 138.619C363.485 138.619 364.001 138.784 364.382 139.112C364.766 139.438 364.958 139.897 364.958 140.489V142.779C364.961 143.281 365.031 143.66 365.168 143.917V144H363.742ZM362.575 143.019C362.784 143.019 362.976 142.973 363.151 142.882C363.327 142.787 363.457 142.662 363.542 142.506V141.598H363.015C362.308 141.598 361.932 141.842 361.887 142.33L361.882 142.413C361.882 142.589 361.944 142.734 362.067 142.848C362.191 142.962 362.36 143.019 362.575 143.019ZM367.731 137.418V138.717H368.635V139.752H367.731V142.389C367.731 142.584 367.769 142.724 367.844 142.809C367.919 142.893 368.062 142.936 368.273 142.936C368.43 142.936 368.568 142.924 368.688 142.901V143.971C368.412 144.055 368.127 144.098 367.834 144.098C366.844 144.098 366.34 143.598 366.32 142.599V139.752H365.549V138.717H366.32V137.418H367.731ZM371.853 144.098C371.078 144.098 370.446 143.86 369.958 143.385C369.473 142.91 369.23 142.276 369.23 141.485V141.349C369.23 140.818 369.333 140.344 369.538 139.928C369.743 139.508 370.033 139.186 370.407 138.961C370.785 138.733 371.215 138.619 371.696 138.619C372.419 138.619 372.987 138.847 373.4 139.303C373.817 139.758 374.025 140.405 374.025 141.241V141.817H370.661C370.707 142.162 370.843 142.439 371.071 142.647C371.302 142.856 371.594 142.96 371.945 142.96C372.489 142.96 372.914 142.763 373.22 142.369L373.913 143.146C373.701 143.445 373.415 143.679 373.054 143.849C372.692 144.015 372.292 144.098 371.853 144.098ZM371.691 139.762C371.411 139.762 371.184 139.856 371.008 140.045C370.835 140.234 370.725 140.504 370.676 140.855H372.639V140.743C372.632 140.431 372.548 140.19 372.385 140.021C372.222 139.848 371.991 139.762 371.691 139.762ZM377.893 144C377.827 143.873 377.78 143.715 377.751 143.526C377.409 143.907 376.965 144.098 376.418 144.098C375.9 144.098 375.471 143.948 375.129 143.648C374.79 143.349 374.621 142.971 374.621 142.516C374.621 141.956 374.828 141.526 375.241 141.227C375.658 140.927 376.258 140.776 377.043 140.772H377.692V140.47C377.692 140.226 377.629 140.03 377.502 139.884C377.378 139.737 377.181 139.664 376.911 139.664C376.674 139.664 376.486 139.721 376.35 139.835C376.216 139.949 376.149 140.105 376.149 140.304H374.738C374.738 139.998 374.833 139.715 375.021 139.454C375.21 139.194 375.477 138.99 375.822 138.844C376.167 138.694 376.555 138.619 376.984 138.619C377.635 138.619 378.151 138.784 378.532 139.112C378.916 139.438 379.108 139.897 379.108 140.489V142.779C379.112 143.281 379.182 143.66 379.318 143.917V144H377.893ZM376.726 143.019C376.934 143.019 377.126 142.973 377.302 142.882C377.478 142.787 377.608 142.662 377.692 142.506V141.598H377.165C376.459 141.598 376.083 141.842 376.037 142.33L376.032 142.413C376.032 142.589 376.094 142.734 376.218 142.848C376.341 142.962 376.511 143.019 376.726 143.019ZM383.161 140.04C382.969 140.014 382.8 140.001 382.653 140.001C382.119 140.001 381.77 140.182 381.604 140.543V144H380.192V138.717H381.525L381.564 139.347C381.848 138.862 382.24 138.619 382.741 138.619C382.897 138.619 383.044 138.64 383.181 138.683L383.161 140.04Z" fill="white"/>
<g clip-path="url(#clip5)">
<path d="M454.665 26.8412C455.286 27.4629 455.286 28.4707 454.665 29.0924C454.043 29.714 453.035 29.714 452.413 29.0924C451.792 28.4707 451.792 27.4629 452.413 26.8412C453.035 26.2196 454.043 26.2196 454.665 26.8412Z" fill="#97A3AF"/>
<path d="M454.665 31.6166C455.286 32.2382 455.286 33.2461 454.665 33.8677C454.043 34.4894 453.035 34.4894 452.413 33.8677C451.792 33.2461 451.792 32.2382 452.413 31.6166C453.035 30.995 454.043 30.995 454.665 31.6166" fill="#97A3AF"/>
<path d="M454.665 36.392C455.286 37.0136 455.286 38.0215 454.665 38.6431C454.043 39.2648 453.035 39.2648 452.413 38.6431C451.792 38.0215 451.792 37.0136 452.413 36.392C453.035 35.7704 454.043 35.7704 454.665 36.392" fill="#97A3AF"/>
</g>
<rect x="333.836" y="26.375" width="109.516" height="12.7344" fill="#F5F5F5"/>
<g clip-path="url(#clip6)">
<path d="M326.195 31.8326H317.099L320.283 28.6491L318.919 27.2847L313.461 32.7422L318.919 38.1998L320.283 36.8354L317.099 33.6518H326.195V31.8326Z" fill="#97A3AF"/>
</g>
</g>
<path d="M285.744 172.514L281.374 169.036C280.922 168.686 280.244 169.002 280.244 169.578V170.741C280.244 171.114 279.996 171.442 279.623 171.442H272.678C272.305 171.442 272 171.713 272 172.097V173.926C272 174.288 272.305 174.604 272.678 174.604H279.623C279.996 174.604 280.244 174.898 280.244 175.27V176.433C280.244 176.998 280.922 177.314 281.362 176.964L285.722 173.576C286.083 173.316 286.094 172.786 285.744 172.514Z" fill="black"/>
<path d="M23.5145 208.256L20.036 212.626C19.6859 213.078 20.0022 213.756 20.5781 213.756H21.7414C22.1141 213.756 22.4416 214.004 22.4416 214.377V221.322C22.4416 221.695 22.7126 222 23.0966 222H24.9262C25.2876 222 25.6038 221.695 25.6038 221.322V214.377C25.6038 214.004 25.8975 213.756 26.2701 213.756H27.4334C27.998 213.756 28.3143 213.078 27.9642 212.638L24.5761 208.278C24.3163 207.917 23.7855 207.906 23.5145 208.256Z" fill="black"/>
<defs>
<filter id="filter0_d" x="83" y="0" width="184.273" height="346" filterUnits="userSpaceOnUse" color-interpolation-filters="sRGB">
<feFlood flood-opacity="0" result="BackgroundImageFix"/>
<feColorMatrix in="SourceAlpha" type="matrix" values="0 0 0 0 0 0 0 0 0 0 0 0 0 0 0 0 0 0 127 0"/>
<feOffset dy="4"/>
<feGaussianBlur stdDeviation="5"/>
<feColorMatrix type="matrix" values="0 0 0 0 0 0 0 0 0 0 0 0 0 0 0 0 0 0 0.25 0"/>
<feBlend mode="normal" in2="BackgroundImageFix" result="effect1_dropShadow"/>
<feBlend mode="normal" in="SourceGraphic" in2="effect1_dropShadow" result="shape"/>
</filter>
<filter id="filter1_d" x="292" y="0" width="184.273" height="346" filterUnits="userSpaceOnUse" color-interpolation-filters="sRGB">
<feFlood flood-opacity="0" result="BackgroundImageFix"/>
<feColorMatrix in="SourceAlpha" type="matrix" values="0 0 0 0 0 0 0 0 0 0 0 0 0 0 0 0 0 0 127 0"/>
<feOffset dy="4"/>
<feGaussianBlur stdDeviation="5"/>
<feColorMatrix type="matrix" values="0 0 0 0 0 0 0 0 0 0 0 0 0 0 0 0 0 0 0.25 0"/>
<feBlend mode="normal" in2="BackgroundImageFix" result="effect1_dropShadow"/>
<feBlend mode="normal" in="SourceGraphic" in2="effect1_dropShadow" result="shape"/>
</filter>
<clipPath id="clip0">
<rect width="12.7344" height="12.7344" fill="white" transform="translate(238.172 26.375)"/>
</clipPath>
<clipPath id="clip1">
<rect width="12.7344" height="12.7344" fill="white" transform="translate(104.461 26.375)"/>
</clipPath>
<clipPath id="clip2">
<rect width="30.3686" height="30.3686" fill="white" transform="translate(6.33447 160.551) rotate(-10)"/>
</clipPath>
<clipPath id="clip3">
<rect width="12" height="12" fill="white" transform="translate(326.792 176.991)"/>
</clipPath>
<clipPath id="clip4">
<rect width="12" height="12" fill="white" transform="translate(326 135)"/>
</clipPath>
<clipPath id="clip5">
<rect width="12.7344" height="12.7344" fill="white" transform="translate(447.172 26.375)"/>
</clipPath>
<clipPath id="clip6">
<rect width="12.7344" height="12.7344" fill="white" transform="translate(313.461 26.375)"/>
</clipPath>
</defs>
</svg>
