<svg width="60" height="56" viewBox="0 0 60 56" fill="none" xmlns="http://www.w3.org/2000/svg">
<g clip-path="url(#clip0)">
<path d="M34.2624 43.1981C34.5658 42.9159 34.8198 42.6055 35.0426 42.282L58.2985 20.5765C60.5661 18.4581 60.5682 15.0238 58.2985 12.9044C56.0288 10.788 52.3503 10.786 50.0784 12.9044L30.0522 18.5L9.91947 12.81C7.64973 10.6926 3.97124 10.6916 1.70042 12.81C0.567171 13.8707 -0.00214635 15.2579 6.08035e-06 16.645C-0.00214635 18.0332 0.567171 19.4214 1.70258 20.4781L25.0596 42.281C25.2824 42.6055 25.5386 42.9149 25.8442 43.1981C27.0044 44.2809 28.5304 44.8022 30.0522 44.7771C31.5718 44.8033 33.1022 44.2809 34.2624 43.1981Z" fill="#F0F0F0"/>
</g>
<defs>
<clipPath id="clip0">
<rect width="60" height="56" fill="white"/>
</clipPath>
</defs>
</svg>
