<svg width="570" height="326" viewBox="0 0 570 326" fill="none" xmlns="http://www.w3.org/2000/svg">
<rect x="407" y="2" width="160.273" height="322" rx="13" fill="white" stroke="black" stroke-width="4"/>
<path d="M448.327 153.592H444.214V165H442.535V153.592H438.431V152.203H448.327V153.592ZM454.998 164.06C454.365 164.804 453.437 165.176 452.212 165.176C451.198 165.176 450.425 164.883 449.892 164.297C449.364 163.705 449.098 162.832 449.092 161.678V155.49H450.718V161.634C450.718 163.075 451.304 163.796 452.476 163.796C453.718 163.796 454.544 163.333 454.954 162.407V155.49H456.58V165H455.033L454.998 164.06ZM469.061 162.478C469.061 162.038 468.894 161.698 468.56 161.458C468.231 161.212 467.654 161.001 466.828 160.825C466.008 160.649 465.354 160.438 464.868 160.192C464.388 159.946 464.03 159.653 463.796 159.313C463.567 158.974 463.453 158.569 463.453 158.101C463.453 157.321 463.781 156.662 464.438 156.123C465.1 155.584 465.943 155.314 466.969 155.314C468.047 155.314 468.92 155.593 469.588 156.149C470.262 156.706 470.599 157.418 470.599 158.285H468.964C468.964 157.84 468.773 157.456 468.393 157.134C468.018 156.812 467.543 156.65 466.969 156.65C466.377 156.65 465.914 156.779 465.58 157.037C465.246 157.295 465.079 157.632 465.079 158.048C465.079 158.44 465.234 158.736 465.545 158.936C465.855 159.135 466.415 159.325 467.224 159.507C468.038 159.688 468.697 159.905 469.201 160.157C469.705 160.409 470.077 160.714 470.317 161.071C470.563 161.423 470.687 161.854 470.687 162.363C470.687 163.213 470.347 163.896 469.667 164.411C468.987 164.921 468.105 165.176 467.021 165.176C466.26 165.176 465.586 165.041 465 164.771C464.414 164.502 463.954 164.127 463.62 163.646C463.292 163.16 463.128 162.636 463.128 162.073H464.754C464.783 162.618 465 163.052 465.404 163.374C465.814 163.69 466.354 163.849 467.021 163.849C467.637 163.849 468.129 163.726 468.498 163.479C468.873 163.228 469.061 162.894 469.061 162.478ZM474.571 165H472.945V155.49H474.571V165ZM472.813 152.968C472.813 152.704 472.893 152.481 473.051 152.3C473.215 152.118 473.455 152.027 473.771 152.027C474.088 152.027 474.328 152.118 474.492 152.3C474.656 152.481 474.738 152.704 474.738 152.968C474.738 153.231 474.656 153.451 474.492 153.627C474.328 153.803 474.088 153.891 473.771 153.891C473.455 153.891 473.215 153.803 473.051 153.627C472.893 153.451 472.813 153.231 472.813 152.968ZM479.388 153.188V155.49H481.163V156.747H479.388V162.645C479.388 163.025 479.467 163.312 479.625 163.506C479.783 163.693 480.053 163.787 480.434 163.787C480.621 163.787 480.879 163.752 481.207 163.682V165C480.779 165.117 480.363 165.176 479.959 165.176C479.232 165.176 478.685 164.956 478.315 164.517C477.946 164.077 477.762 163.453 477.762 162.645V156.747H476.03V155.49H477.762V153.188H479.388ZM484.837 165H483.211V155.49H484.837V165ZM483.079 152.968C483.079 152.704 483.158 152.481 483.316 152.3C483.48 152.118 483.721 152.027 484.037 152.027C484.354 152.027 484.594 152.118 484.758 152.3C484.922 152.481 485.004 152.704 485.004 152.968C485.004 153.231 484.922 153.451 484.758 153.627C484.594 153.803 484.354 153.891 484.037 153.891C483.721 153.891 483.48 153.803 483.316 153.627C483.158 153.451 483.079 153.231 483.079 152.968ZM487.017 160.157C487.017 159.226 487.198 158.388 487.562 157.644C487.931 156.899 488.44 156.325 489.091 155.921C489.747 155.517 490.494 155.314 491.332 155.314C492.627 155.314 493.673 155.763 494.47 156.659C495.272 157.556 495.674 158.748 495.674 160.236V160.351C495.674 161.276 495.495 162.108 495.138 162.847C494.786 163.579 494.279 164.15 493.617 164.561C492.961 164.971 492.205 165.176 491.35 165.176C490.061 165.176 489.015 164.728 488.212 163.831C487.415 162.935 487.017 161.748 487.017 160.271V160.157ZM488.651 160.351C488.651 161.405 488.895 162.252 489.381 162.891C489.873 163.529 490.529 163.849 491.35 163.849C492.176 163.849 492.832 163.526 493.318 162.882C493.805 162.231 494.048 161.323 494.048 160.157C494.048 159.114 493.799 158.271 493.301 157.626C492.809 156.976 492.152 156.65 491.332 156.65C490.529 156.65 489.882 156.97 489.39 157.608C488.897 158.247 488.651 159.161 488.651 160.351ZM510.598 162.759L512.426 155.49H514.052L511.283 165H509.965L507.653 157.793L505.403 165H504.085L501.325 155.49H502.942L504.814 162.609L507.029 155.49H508.339L510.598 162.759ZM519.659 165.176C518.37 165.176 517.321 164.754 516.513 163.91C515.704 163.061 515.3 161.927 515.3 160.509V160.21C515.3 159.267 515.479 158.426 515.836 157.688C516.199 156.943 516.703 156.363 517.348 155.947C517.998 155.525 518.701 155.314 519.457 155.314C520.693 155.314 521.654 155.722 522.34 156.536C523.025 157.351 523.368 158.517 523.368 160.034V160.711H516.926C516.949 161.648 517.222 162.407 517.743 162.987C518.271 163.562 518.938 163.849 519.747 163.849C520.321 163.849 520.808 163.731 521.206 163.497C521.604 163.263 521.953 162.952 522.252 162.565L523.245 163.339C522.448 164.563 521.253 165.176 519.659 165.176ZM519.457 156.65C518.801 156.65 518.25 156.891 517.805 157.371C517.359 157.846 517.084 158.514 516.979 159.375H521.742V159.252C521.695 158.426 521.473 157.787 521.074 157.336C520.676 156.879 520.137 156.65 519.457 156.65ZM533.309 160.351C533.309 161.804 532.975 162.973 532.307 163.857C531.639 164.736 530.742 165.176 529.617 165.176C528.416 165.176 527.487 164.751 526.831 163.901L526.752 165H525.258V151.5H526.884V156.536C527.54 155.722 528.445 155.314 529.6 155.314C530.754 155.314 531.659 155.751 532.315 156.624C532.978 157.497 533.309 158.692 533.309 160.21V160.351ZM531.683 160.166C531.683 159.059 531.469 158.203 531.041 157.6C530.613 156.996 529.998 156.694 529.195 156.694C528.123 156.694 527.353 157.192 526.884 158.188V162.302C527.382 163.298 528.158 163.796 529.213 163.796C529.992 163.796 530.599 163.494 531.032 162.891C531.466 162.287 531.683 161.379 531.683 160.166Z" fill="#C4C4C4"/>
<rect x="452.117" y="311.992" width="70.0391" height="3.82031" rx="1.91016" fill="#C4C4C4"/>
<path d="M448.297 0H527.25V2.73438C527.25 8.25722 522.773 12.7344 517.25 12.7344H458.297C452.774 12.7344 448.297 8.25722 448.297 2.73438V0Z" fill="black"/>
<g clip-path="url(#clip0)">
<path d="M557.665 20.8415C558.286 21.4631 558.286 22.471 557.665 23.0926C557.043 23.7142 556.035 23.7142 555.413 23.0926C554.792 22.471 554.792 21.4631 555.413 20.8415C556.035 20.2198 557.043 20.2198 557.665 20.8415Z" fill="#97A3AF"/>
<path d="M557.665 25.6167C558.286 26.2384 558.286 27.2462 557.665 27.8679C557.043 28.4895 556.035 28.4895 555.413 27.8679C554.792 27.2462 554.792 26.2384 555.413 25.6167C556.035 24.9951 557.043 24.9951 557.665 25.6167" fill="#97A3AF"/>
<path d="M557.665 30.392C558.286 31.0136 558.286 32.0215 557.665 32.6431C557.043 33.2648 556.035 33.2648 555.413 32.6431C554.792 32.0215 554.792 31.0136 555.413 30.392C556.035 29.7704 557.043 29.7704 557.665 30.392" fill="#97A3AF"/>
</g>
<rect x="436.836" y="20.375" width="109.516" height="12.7344" fill="#F5F5F5"/>
<g clip-path="url(#clip1)">
<path d="M429.195 25.8326H420.099L423.283 22.6491L421.919 21.2847L416.461 26.7422L421.919 32.1998L423.283 30.8354L420.099 27.6518H429.195V25.8326Z" fill="#97A3AF"/>
</g>
<g filter="url(#filter0_d)">
<circle cx="529.848" cy="280.848" r="23.8477" fill="#0F8DFF"/>
<path d="M545.591 291.095L552.287 302.274H538.895L545.591 291.095Z" fill="#0F8DFF"/>
<g clip-path="url(#clip2)">
<path d="M529.251 268.138L526.038 268.704C525.594 268.782 525.294 269.18 525.367 269.594C525.44 270.007 525.858 270.278 526.302 270.2L529.514 269.633C529.958 269.555 530.258 269.157 530.185 268.744C530.113 268.331 529.694 268.06 529.251 268.138Z" fill="white"/>
<path d="M533.27 264.859L521.307 266.969C519.658 267.259 518.553 268.838 518.843 270.487L523.062 294.413C523.353 296.061 524.931 297.167 526.58 296.876L538.543 294.767C540.192 294.476 541.297 292.897 541.006 291.249L536.788 267.323C536.497 265.674 534.918 264.569 533.27 264.859ZM539.511 291.512C539.657 292.338 539.105 293.126 538.279 293.271L526.316 295.381C525.49 295.526 524.703 294.975 524.557 294.149L520.339 270.223C520.193 269.397 520.744 268.61 521.57 268.464L533.533 266.355C534.359 266.209 535.147 266.76 535.292 267.586L539.511 291.512Z" fill="white"/>
<rect x="519.916" y="275.924" width="13.9733" height="8.75659" transform="rotate(43 519.916 275.924)" fill="#0F8DFF"/>
<rect x="530.712" y="277.256" width="13.9733" height="8.75659" transform="rotate(-43 530.712 277.256)" fill="#0F8DFF"/>
</g>
<path d="M542.39 275.728L528.284 289.832C527.239 290.877 525.545 290.877 524.499 289.832L517.218 282.55C516.173 281.506 516.173 279.811 517.218 278.766C518.263 277.721 519.957 277.721 521.002 278.766L526.392 284.156L538.605 271.943C539.65 270.898 541.344 270.899 542.389 271.943C543.434 272.988 543.434 274.682 542.39 275.728Z" fill="white"/>
<path d="M542.39 275.728L528.284 289.832C527.239 290.877 525.545 290.877 524.499 289.832L517.218 282.55C516.173 281.506 516.173 279.811 517.218 278.766C518.263 277.721 519.957 277.721 521.002 278.766L526.392 284.156L538.605 271.943C539.65 270.898 541.344 270.899 542.389 271.943C543.434 272.988 543.434 274.682 542.39 275.728Z" stroke="#0F8DFF"/>
<path d="M294.121 140.863L508 273.5L193.245 239.339L294.121 140.863Z" fill="#F5F5F5"/>
<circle cx="150" cy="152" r="150" fill="white"/>
<circle cx="150" cy="152" r="145" stroke="#2A94F4" stroke-opacity="0.3" stroke-width="10"/>
<circle cx="201.848" cy="228.848" r="23.8477" fill="#0F8DFF"/>
<path d="M217.591 239.095L224.287 250.274H210.895L217.591 239.095Z" fill="#0F8DFF"/>
<g clip-path="url(#clip3)">
<path d="M201.251 216.138L198.038 216.704C197.594 216.782 197.294 217.18 197.367 217.594C197.44 218.007 197.858 218.278 198.302 218.2L201.514 217.633C201.958 217.555 202.258 217.157 202.185 216.744C202.113 216.331 201.694 216.06 201.251 216.138Z" fill="white"/>
<path d="M205.27 212.859L193.307 214.969C191.658 215.259 190.553 216.838 190.843 218.487L195.062 242.413C195.353 244.061 196.931 245.167 198.58 244.876L210.543 242.767C212.192 242.476 213.297 240.897 213.006 239.249L208.788 215.323C208.497 213.674 206.918 212.569 205.27 212.859ZM211.511 239.512C211.657 240.338 211.105 241.126 210.279 241.271L198.316 243.381C197.49 243.526 196.703 242.975 196.557 242.149L192.339 218.223C192.193 217.397 192.744 216.61 193.57 216.464L205.533 214.355C206.359 214.209 207.147 214.76 207.292 215.586L211.511 239.512Z" fill="white"/>
<rect x="191.916" y="223.924" width="13.9733" height="8.75659" transform="rotate(43 191.916 223.924)" fill="#0F8DFF"/>
<rect x="202.712" y="225.256" width="13.9733" height="8.75659" transform="rotate(-43 202.712 225.256)" fill="#0F8DFF"/>
</g>
<path d="M214.39 223.728L200.284 237.832C199.239 238.877 197.545 238.877 196.499 237.832L189.218 230.55C188.173 229.506 188.173 227.811 189.218 226.766C190.263 225.721 191.957 225.721 193.002 226.766L198.392 232.156L210.605 219.943C211.65 218.898 213.344 218.899 214.389 219.943C215.434 220.988 215.434 222.682 214.39 223.728Z" fill="white"/>
<path d="M214.39 223.728L200.284 237.832C199.239 238.877 197.545 238.877 196.499 237.832L189.218 230.55C188.173 229.506 188.173 227.811 189.218 226.766C190.263 225.721 191.957 225.721 193.002 226.766L198.392 232.156L210.605 219.943C211.65 218.898 213.344 218.899 214.389 219.943C215.434 220.988 215.434 222.682 214.39 223.728Z" stroke="#0F8DFF"/>
<g filter="url(#filter1_d)">
<path d="M194.432 220.695L202.735 198.785L177.412 204.592L194.432 220.695Z" fill="white"/>
<rect x="66" y="66" width="168" height="139" rx="15" fill="white"/>
<path d="M94.2656 94.293C94.1602 95.1953 93.8262 95.8926 93.2637 96.3848C92.7051 96.873 91.9609 97.1172 91.0312 97.1172C90.0234 97.1172 89.2148 96.7559 88.6055 96.0332C88 95.3105 87.6973 94.3438 87.6973 93.1328V92.3125C87.6973 91.5195 87.8379 90.8223 88.1191 90.2207C88.4043 89.6191 88.8066 89.1582 89.3262 88.8379C89.8457 88.5137 90.4473 88.3516 91.1309 88.3516C92.0371 88.3516 92.7637 88.6055 93.3105 89.1133C93.8574 89.6172 94.1758 90.3164 94.2656 91.2109H93.1348C93.0371 90.5312 92.8242 90.0391 92.4961 89.7344C92.1719 89.4297 91.7168 89.2773 91.1309 89.2773C90.4121 89.2773 89.8477 89.543 89.4375 90.0742C89.0312 90.6055 88.8281 91.3613 88.8281 92.3418V93.168C88.8281 94.0938 89.0215 94.8301 89.4082 95.377C89.7949 95.9238 90.3359 96.1973 91.0312 96.1973C91.6562 96.1973 92.1348 96.0566 92.4668 95.7754C92.8027 95.4902 93.0254 94.9961 93.1348 94.293H94.2656ZM95.3496 93.7715C95.3496 93.1504 95.4707 92.5918 95.7129 92.0957C95.959 91.5996 96.2988 91.2168 96.7324 90.9473C97.1699 90.6777 97.668 90.543 98.2266 90.543C99.0898 90.543 99.7871 90.8418 100.318 91.4395C100.854 92.0371 101.121 92.832 101.121 93.8242V93.9004C101.121 94.5176 101.002 95.0723 100.764 95.5645C100.529 96.0527 100.191 96.4336 99.75 96.707C99.3125 96.9805 98.8086 97.1172 98.2383 97.1172C97.3789 97.1172 96.6816 96.8184 96.1465 96.2207C95.6152 95.623 95.3496 94.832 95.3496 93.8477V93.7715ZM96.4395 93.9004C96.4395 94.6035 96.6016 95.168 96.9258 95.5938C97.2539 96.0195 97.6914 96.2324 98.2383 96.2324C98.7891 96.2324 99.2266 96.0176 99.5508 95.5879C99.875 95.1543 100.037 94.5488 100.037 93.7715C100.037 93.0762 99.8711 92.5137 99.5391 92.084C99.2109 91.6504 98.7734 91.4336 98.2266 91.4336C97.6914 91.4336 97.2598 91.6465 96.9316 92.0723C96.6035 92.498 96.4395 93.1074 96.4395 93.9004ZM103.506 90.6602L103.541 91.457C104.025 90.8477 104.658 90.543 105.439 90.543C106.779 90.543 107.455 91.2988 107.467 92.8105V97H106.383V92.8047C106.379 92.3477 106.273 92.0098 106.066 91.791C105.863 91.5723 105.545 91.4629 105.111 91.4629C104.76 91.4629 104.451 91.5566 104.186 91.7441C103.92 91.9316 103.713 92.1777 103.564 92.4824V97H102.48V90.6602H103.506ZM110.572 89.125V90.6602H111.756V91.498H110.572V95.4297C110.572 95.6836 110.625 95.875 110.73 96.0039C110.836 96.1289 111.016 96.1914 111.27 96.1914C111.395 96.1914 111.566 96.168 111.785 96.1211V97C111.5 97.0781 111.223 97.1172 110.953 97.1172C110.469 97.1172 110.104 96.9707 109.857 96.6777C109.611 96.3848 109.488 95.9688 109.488 95.4297V91.498H108.334V90.6602H109.488V89.125H110.572ZM116.941 97C116.879 96.875 116.828 96.6523 116.789 96.332C116.285 96.8555 115.684 97.1172 114.984 97.1172C114.359 97.1172 113.846 96.9414 113.443 96.5898C113.045 96.2344 112.846 95.7852 112.846 95.2422C112.846 94.582 113.096 94.0703 113.596 93.707C114.1 93.3398 114.807 93.1562 115.717 93.1562H116.771V92.6582C116.771 92.2793 116.658 91.9785 116.432 91.7559C116.205 91.5293 115.871 91.416 115.43 91.416C115.043 91.416 114.719 91.5137 114.457 91.709C114.195 91.9043 114.064 92.1406 114.064 92.418H112.975C112.975 92.1016 113.086 91.7969 113.309 91.5039C113.535 91.207 113.84 90.9727 114.223 90.8008C114.609 90.6289 115.033 90.543 115.494 90.543C116.225 90.543 116.797 90.7266 117.211 91.0938C117.625 91.457 117.84 91.959 117.855 92.5996V95.5176C117.855 96.0996 117.93 96.5625 118.078 96.9062V97H116.941ZM115.143 96.1738C115.482 96.1738 115.805 96.0859 116.109 95.9102C116.414 95.7344 116.635 95.5059 116.771 95.2246V93.9238H115.922C114.594 93.9238 113.93 94.3125 113.93 95.0898C113.93 95.4297 114.043 95.6953 114.27 95.8867C114.496 96.0781 114.787 96.1738 115.143 96.1738ZM116.145 88H117.457L115.887 89.7227H115.014L116.145 88ZM122.098 96.2324C122.484 96.2324 122.822 96.1152 123.111 95.8809C123.4 95.6465 123.561 95.3535 123.592 95.002H124.617C124.598 95.3652 124.473 95.7109 124.242 96.0391C124.012 96.3672 123.703 96.6289 123.316 96.8242C122.934 97.0195 122.527 97.1172 122.098 97.1172C121.234 97.1172 120.547 96.8301 120.035 96.2559C119.527 95.6777 119.273 94.8887 119.273 93.8887V93.707C119.273 93.0898 119.387 92.541 119.613 92.0605C119.84 91.5801 120.164 91.207 120.586 90.9414C121.012 90.6758 121.514 90.543 122.092 90.543C122.803 90.543 123.393 90.7559 123.861 91.1816C124.334 91.6074 124.586 92.1602 124.617 92.8398H123.592C123.561 92.4297 123.404 92.0938 123.123 91.832C122.846 91.5664 122.502 91.4336 122.092 91.4336C121.541 91.4336 121.113 91.6328 120.809 92.0312C120.508 92.4258 120.357 92.998 120.357 93.748V93.9531C120.357 94.6836 120.508 95.2461 120.809 95.6406C121.109 96.0352 121.539 96.2324 122.098 96.2324ZM127.307 89.125V90.6602H128.49V91.498H127.307V95.4297C127.307 95.6836 127.359 95.875 127.465 96.0039C127.57 96.1289 127.75 96.1914 128.004 96.1914C128.129 96.1914 128.301 96.168 128.52 96.1211V97C128.234 97.0781 127.957 97.1172 127.688 97.1172C127.203 97.1172 126.838 96.9707 126.592 96.6777C126.346 96.3848 126.223 95.9688 126.223 95.4297V91.498H125.068V90.6602H126.223V89.125H127.307ZM132.393 97.1172C131.533 97.1172 130.834 96.8359 130.295 96.2734C129.756 95.707 129.486 94.9512 129.486 94.0059V93.8066C129.486 93.1777 129.605 92.6172 129.844 92.125C130.086 91.6289 130.422 91.2422 130.852 90.9648C131.285 90.6836 131.754 90.543 132.258 90.543C133.082 90.543 133.723 90.8145 134.18 91.3574C134.637 91.9004 134.865 92.6777 134.865 93.6895V94.1406H130.57C130.586 94.7656 130.768 95.2715 131.115 95.6582C131.467 96.041 131.912 96.2324 132.451 96.2324C132.834 96.2324 133.158 96.1543 133.424 95.998C133.689 95.8418 133.922 95.6348 134.121 95.377L134.783 95.8926C134.252 96.709 133.455 97.1172 132.393 97.1172ZM132.258 91.4336C131.82 91.4336 131.453 91.5938 131.156 91.9141C130.859 92.2305 130.676 92.6758 130.605 93.25H133.781V93.168C133.75 92.6172 133.602 92.1914 133.336 91.8906C133.07 91.5859 132.711 91.4336 132.258 91.4336ZM137.15 90.6602L137.186 91.457C137.67 90.8477 138.303 90.543 139.084 90.543C140.424 90.543 141.1 91.2988 141.111 92.8105V97H140.027V92.8047C140.023 92.3477 139.918 92.0098 139.711 91.791C139.508 91.5723 139.189 91.4629 138.756 91.4629C138.404 91.4629 138.096 91.5566 137.83 91.7441C137.564 91.9316 137.357 92.1777 137.209 92.4824V97H136.125V90.6602H137.15ZM142.459 93.7715C142.459 93.1504 142.58 92.5918 142.822 92.0957C143.068 91.5996 143.408 91.2168 143.842 90.9473C144.279 90.6777 144.777 90.543 145.336 90.543C146.199 90.543 146.896 90.8418 147.428 91.4395C147.963 92.0371 148.23 92.832 148.23 93.8242V93.9004C148.23 94.5176 148.111 95.0723 147.873 95.5645C147.639 96.0527 147.301 96.4336 146.859 96.707C146.422 96.9805 145.918 97.1172 145.348 97.1172C144.488 97.1172 143.791 96.8184 143.256 96.2207C142.725 95.623 142.459 94.832 142.459 93.8477V93.7715ZM143.549 93.9004C143.549 94.6035 143.711 95.168 144.035 95.5938C144.363 96.0195 144.801 96.2324 145.348 96.2324C145.898 96.2324 146.336 96.0176 146.66 95.5879C146.984 95.1543 147.146 94.5488 147.146 93.7715C147.146 93.0762 146.98 92.5137 146.648 92.084C146.32 91.6504 145.883 91.4336 145.336 91.4336C144.801 91.4336 144.369 91.6465 144.041 92.0723C143.713 92.498 143.549 93.1074 143.549 93.9004ZM153.281 95.3184C153.281 95.0254 153.17 94.7988 152.947 94.6387C152.729 94.4746 152.344 94.334 151.793 94.2168C151.246 94.0996 150.811 93.959 150.486 93.7949C150.166 93.6309 149.928 93.4355 149.771 93.209C149.619 92.9824 149.543 92.7129 149.543 92.4004C149.543 91.8809 149.762 91.4414 150.199 91.082C150.641 90.7227 151.203 90.543 151.887 90.543C152.605 90.543 153.188 90.7285 153.633 91.0996C154.082 91.4707 154.307 91.9453 154.307 92.5234H153.217C153.217 92.2266 153.09 91.9707 152.836 91.7559C152.586 91.541 152.27 91.4336 151.887 91.4336C151.492 91.4336 151.184 91.5195 150.961 91.6914C150.738 91.8633 150.627 92.0879 150.627 92.3652C150.627 92.627 150.73 92.8242 150.938 92.957C151.145 93.0898 151.518 93.2168 152.057 93.3379C152.6 93.459 153.039 93.6035 153.375 93.7715C153.711 93.9395 153.959 94.1426 154.119 94.3809C154.283 94.6152 154.365 94.9023 154.365 95.2422C154.365 95.8086 154.139 96.2637 153.686 96.6074C153.232 96.9473 152.645 97.1172 151.922 97.1172C151.414 97.1172 150.965 97.0273 150.574 96.8477C150.184 96.668 149.877 96.418 149.654 96.0977C149.436 95.7734 149.326 95.4238 149.326 95.0488H150.41C150.43 95.4121 150.574 95.7012 150.844 95.916C151.117 96.127 151.477 96.2324 151.922 96.2324C152.332 96.2324 152.66 96.1504 152.906 95.9863C153.156 95.8184 153.281 95.5957 153.281 95.3184Z" fill="#97A3AF"/>
<g filter="url(#filter2_d)">
<rect x="87" y="152" width="126" height="30" rx="5" fill="#2A94F4"/>
<path d="M124.1 169.823H127.21V171H122.635V163.891H124.1V169.823ZM129.451 171H128.035V163.5H129.451V171ZM133.68 171C133.615 170.873 133.567 170.715 133.538 170.526C133.196 170.907 132.752 171.098 132.205 171.098C131.688 171.098 131.258 170.948 130.916 170.648C130.577 170.349 130.408 169.971 130.408 169.516C130.408 168.956 130.615 168.526 131.028 168.227C131.445 167.927 132.046 167.776 132.83 167.772H133.479V167.47C133.479 167.226 133.416 167.03 133.289 166.884C133.165 166.737 132.968 166.664 132.698 166.664C132.461 166.664 132.273 166.721 132.137 166.835C132.003 166.949 131.937 167.105 131.937 167.304H130.525C130.525 166.998 130.62 166.715 130.809 166.454C130.997 166.194 131.264 165.99 131.609 165.844C131.954 165.694 132.342 165.619 132.771 165.619C133.423 165.619 133.938 165.784 134.319 166.112C134.703 166.438 134.896 166.897 134.896 167.489V169.779C134.899 170.281 134.969 170.66 135.105 170.917V171H133.68ZM132.513 170.019C132.721 170.019 132.913 169.973 133.089 169.882C133.265 169.787 133.395 169.662 133.479 169.506V168.598H132.952C132.246 168.598 131.87 168.842 131.824 169.33L131.819 169.413C131.819 169.589 131.881 169.734 132.005 169.848C132.129 169.962 132.298 170.019 132.513 170.019ZM137.303 165.717L137.347 166.308C137.721 165.849 138.227 165.619 138.865 165.619C139.546 165.619 140.013 165.888 140.267 166.425C140.638 165.888 141.167 165.619 141.854 165.619C142.426 165.619 142.853 165.787 143.133 166.122C143.413 166.454 143.553 166.955 143.553 167.626V171H142.137V167.631C142.137 167.331 142.078 167.113 141.961 166.977C141.844 166.837 141.637 166.767 141.341 166.767C140.918 166.767 140.625 166.968 140.462 167.372L140.467 171H139.056V167.636C139.056 167.33 138.995 167.108 138.875 166.972C138.755 166.835 138.549 166.767 138.26 166.767C137.859 166.767 137.57 166.933 137.391 167.265V171H135.979V165.717H137.303ZM147.703 171C147.638 170.873 147.591 170.715 147.562 170.526C147.22 170.907 146.775 171.098 146.229 171.098C145.711 171.098 145.281 170.948 144.939 170.648C144.601 170.349 144.432 169.971 144.432 169.516C144.432 168.956 144.638 168.526 145.052 168.227C145.468 167.927 146.069 167.776 146.854 167.772H147.503V167.47C147.503 167.226 147.439 167.03 147.312 166.884C147.189 166.737 146.992 166.664 146.722 166.664C146.484 166.664 146.297 166.721 146.16 166.835C146.027 166.949 145.96 167.105 145.96 167.304H144.549C144.549 166.998 144.643 166.715 144.832 166.454C145.021 166.194 145.288 165.99 145.633 165.844C145.978 165.694 146.365 165.619 146.795 165.619C147.446 165.619 147.962 165.784 148.343 166.112C148.727 166.438 148.919 166.897 148.919 167.489V169.779C148.922 170.281 148.992 170.66 149.129 170.917V171H147.703ZM146.536 170.019C146.744 170.019 146.937 169.973 147.112 169.882C147.288 169.787 147.418 169.662 147.503 169.506V168.598H146.976C146.269 168.598 145.893 168.842 145.848 169.33L145.843 169.413C145.843 169.589 145.905 169.734 146.028 169.848C146.152 169.962 146.321 170.019 146.536 170.019ZM152.972 167.04C152.78 167.014 152.61 167.001 152.464 167.001C151.93 167.001 151.58 167.182 151.414 167.543V171H150.003V165.717H151.336L151.375 166.347C151.658 165.862 152.05 165.619 152.552 165.619C152.708 165.619 152.854 165.64 152.991 165.683L152.972 167.04ZM160.252 169.535H157.684L157.195 171H155.638L158.284 163.891H159.642L162.303 171H160.745L160.252 169.535ZM158.079 168.349H159.856L158.963 165.688L158.079 168.349ZM164.251 166.293C164.625 165.844 165.096 165.619 165.662 165.619C166.808 165.619 167.389 166.285 167.405 167.616V171H165.994V167.655C165.994 167.353 165.929 167.13 165.799 166.986C165.669 166.84 165.452 166.767 165.149 166.767C164.736 166.767 164.437 166.926 164.251 167.245V171H162.84V163.5H164.251V166.293ZM168.25 168.31C168.25 167.785 168.351 167.318 168.553 166.908C168.755 166.498 169.044 166.181 169.422 165.956C169.803 165.731 170.244 165.619 170.745 165.619C171.458 165.619 172.039 165.837 172.488 166.273C172.941 166.71 173.193 167.302 173.245 168.051L173.255 168.412C173.255 169.223 173.029 169.874 172.576 170.365C172.124 170.854 171.517 171.098 170.755 171.098C169.993 171.098 169.384 170.854 168.929 170.365C168.476 169.877 168.25 169.213 168.25 168.373V168.31ZM169.661 168.412C169.661 168.913 169.756 169.298 169.944 169.564C170.133 169.828 170.403 169.96 170.755 169.96C171.097 169.96 171.364 169.83 171.556 169.569C171.748 169.306 171.844 168.886 171.844 168.31C171.844 167.818 171.748 167.437 171.556 167.167C171.364 166.897 171.093 166.762 170.745 166.762C170.4 166.762 170.133 166.897 169.944 167.167C169.756 167.434 169.661 167.849 169.661 168.412ZM177.093 167.04C176.901 167.014 176.731 167.001 176.585 167.001C176.051 167.001 175.701 167.182 175.535 167.543V171H174.124V165.717H175.457L175.496 166.347C175.779 165.862 176.172 165.619 176.673 165.619C176.829 165.619 176.976 165.64 177.112 165.683L177.093 167.04ZM180.691 171C180.626 170.873 180.579 170.715 180.55 170.526C180.208 170.907 179.764 171.098 179.217 171.098C178.699 171.098 178.27 170.948 177.928 170.648C177.589 170.349 177.42 169.971 177.42 169.516C177.42 168.956 177.627 168.526 178.04 168.227C178.457 167.927 179.057 167.776 179.842 167.772H180.491V167.47C180.491 167.226 180.428 167.03 180.301 166.884C180.177 166.737 179.98 166.664 179.71 166.664C179.472 166.664 179.285 166.721 179.148 166.835C179.015 166.949 178.948 167.105 178.948 167.304H177.537C177.537 166.998 177.632 166.715 177.82 166.454C178.009 166.194 178.276 165.99 178.621 165.844C178.966 165.694 179.354 165.619 179.783 165.619C180.434 165.619 180.95 165.784 181.331 166.112C181.715 166.438 181.907 166.897 181.907 167.489V169.779C181.91 170.281 181.98 170.66 182.117 170.917V171H180.691ZM179.524 170.019C179.733 170.019 179.925 169.973 180.101 169.882C180.276 169.787 180.407 169.662 180.491 169.506V168.598H179.964C179.257 168.598 178.882 168.842 178.836 169.33L178.831 169.413C178.831 169.589 178.893 169.734 179.017 169.848C179.14 169.962 179.31 170.019 179.524 170.019Z" fill="white"/>
<g clip-path="url(#clip4)">
<path d="M110.815 169.601C110.48 169.862 110.002 169.839 109.696 169.533L107.204 167.041C106.898 166.735 106.876 166.25 107.137 165.922L103.981 162.758C102.608 164.34 102.682 166.743 104.182 168.243L108.495 172.555C110.024 174.084 112.453 174.1 113.979 172.757L110.815 169.601Z" fill="white"/>
<path d="M107.92 163.541L106.338 161.952C105.921 161.534 105.182 161.534 104.757 161.952L104.495 162.221L107.659 165.384L107.92 165.123C108.137 164.907 108.249 164.631 108.249 164.332C108.249 164.034 108.137 163.75 107.92 163.541Z" fill="white"/>
<path d="M114.785 170.399L113.196 168.817C112.778 168.392 112.039 168.392 111.614 168.817L111.353 169.078L114.516 172.242L114.785 171.981C114.994 171.772 115.106 171.488 115.106 171.19C115.106 170.891 114.994 170.608 114.785 170.399Z" fill="white"/>
<path d="M109.39 161C108.899 161 108.897 161.741 109.39 161.741C112.476 161.741 114.991 164.256 114.991 167.342C114.991 167.834 115.733 167.836 115.733 167.342C115.733 163.845 112.888 161 109.39 161Z" fill="white"/>
<path d="M109.39 162.492C108.899 162.492 108.897 163.233 109.39 163.233C111.653 163.233 113.499 165.079 113.499 167.342C113.499 167.834 114.24 167.836 114.24 167.342C114.24 164.668 112.065 162.492 109.39 162.492Z" fill="white"/>
<path d="M109.39 163.985C108.899 163.985 108.897 164.726 109.39 164.726C110.83 164.726 112.007 165.902 112.007 167.342C112.007 167.834 112.748 167.836 112.748 167.342C112.748 165.491 111.242 163.985 109.39 163.985Z" fill="white"/>
<path d="M109.39 165.477C108.899 165.477 108.897 166.223 109.39 166.223C110.008 166.223 110.51 166.725 110.51 167.342C110.51 167.834 111.256 167.836 111.256 167.342C111.256 166.314 110.419 165.477 109.39 165.477Z" fill="white"/>
</g>
</g>
<g filter="url(#filter3_d)">
<rect x="87" y="110" width="126" height="30" rx="5" fill="#29DA65"/>
<path d="M125.912 124.919H123.1V126.823H126.4V128H121.635V120.891H126.391V122.077H123.1V123.771H125.912V124.919ZM128.466 122.717L128.51 123.327C128.887 122.855 129.394 122.619 130.028 122.619C130.588 122.619 131.005 122.784 131.278 123.112C131.552 123.441 131.692 123.933 131.698 124.587V128H130.287V124.621C130.287 124.322 130.222 124.105 130.092 123.972C129.962 123.835 129.745 123.767 129.442 123.767C129.045 123.767 128.747 123.936 128.549 124.274V128H127.138V122.717H128.466ZM134.75 126.276L135.731 122.717H137.206L135.424 128H134.076L132.294 122.717H133.769L134.75 126.276ZM139.32 128H137.904V122.717H139.32V128ZM137.821 121.35C137.821 121.138 137.891 120.964 138.031 120.827C138.174 120.69 138.368 120.622 138.612 120.622C138.853 120.622 139.045 120.69 139.188 120.827C139.332 120.964 139.403 121.138 139.403 121.35C139.403 121.564 139.33 121.74 139.184 121.877C139.04 122.014 138.85 122.082 138.612 122.082C138.375 122.082 138.183 122.014 138.036 121.877C137.893 121.74 137.821 121.564 137.821 121.35ZM143.549 128C143.484 127.873 143.437 127.715 143.407 127.526C143.065 127.907 142.621 128.098 142.074 128.098C141.557 128.098 141.127 127.948 140.785 127.648C140.447 127.349 140.277 126.971 140.277 126.516C140.277 125.956 140.484 125.526 140.897 125.227C141.314 124.927 141.915 124.776 142.699 124.772H143.349V124.47C143.349 124.226 143.285 124.03 143.158 123.884C143.035 123.737 142.838 123.664 142.567 123.664C142.33 123.664 142.143 123.721 142.006 123.835C141.872 123.949 141.806 124.105 141.806 124.304H140.395C140.395 123.998 140.489 123.715 140.678 123.454C140.867 123.194 141.133 122.99 141.479 122.844C141.824 122.694 142.211 122.619 142.641 122.619C143.292 122.619 143.808 122.784 144.188 123.112C144.573 123.438 144.765 123.897 144.765 124.489V126.779C144.768 127.281 144.838 127.66 144.975 127.917V128H143.549ZM142.382 127.019C142.59 127.019 142.782 126.973 142.958 126.882C143.134 126.787 143.264 126.662 143.349 126.506V125.598H142.821C142.115 125.598 141.739 125.842 141.693 126.33L141.688 126.413C141.688 126.589 141.75 126.734 141.874 126.848C141.998 126.962 142.167 127.019 142.382 127.019ZM148.817 124.04C148.625 124.014 148.456 124.001 148.31 124.001C147.776 124.001 147.426 124.182 147.26 124.543V128H145.849V122.717H147.182L147.221 123.347C147.504 122.862 147.896 122.619 148.397 122.619C148.554 122.619 148.7 122.64 148.837 122.683L148.817 124.04ZM157.621 125.949L158.578 120.891H160.038L158.461 128H156.986L155.829 123.244L154.672 128H153.197L151.62 120.891H153.08L154.042 125.939L155.214 120.891H156.454L157.621 125.949ZM162.118 123.293C162.493 122.844 162.963 122.619 163.529 122.619C164.675 122.619 165.256 123.285 165.272 124.616V128H163.861V124.655C163.861 124.353 163.796 124.13 163.666 123.986C163.536 123.84 163.319 123.767 163.017 123.767C162.603 123.767 162.304 123.926 162.118 124.245V128H160.707V120.5H162.118V123.293ZM169.398 128C169.333 127.873 169.286 127.715 169.257 127.526C168.915 127.907 168.471 128.098 167.924 128.098C167.406 128.098 166.977 127.948 166.635 127.648C166.296 127.349 166.127 126.971 166.127 126.516C166.127 125.956 166.334 125.526 166.747 125.227C167.164 124.927 167.764 124.776 168.549 124.772H169.198V124.47C169.198 124.226 169.135 124.03 169.008 123.884C168.884 123.737 168.687 123.664 168.417 123.664C168.179 123.664 167.992 123.721 167.855 123.835C167.722 123.949 167.655 124.105 167.655 124.304H166.244C166.244 123.998 166.339 123.715 166.527 123.454C166.716 123.194 166.983 122.99 167.328 122.844C167.673 122.694 168.061 122.619 168.49 122.619C169.141 122.619 169.657 122.784 170.038 123.112C170.422 123.438 170.614 123.897 170.614 124.489V126.779C170.618 127.281 170.688 127.66 170.824 127.917V128H169.398ZM168.231 127.019C168.44 127.019 168.632 126.973 168.808 126.882C168.983 126.787 169.114 126.662 169.198 126.506V125.598H168.671C167.965 125.598 167.589 125.842 167.543 126.33L167.538 126.413C167.538 126.589 167.6 126.734 167.724 126.848C167.847 126.962 168.017 127.019 168.231 127.019ZM173.388 121.418V122.717H174.291V123.752H173.388V126.389C173.388 126.584 173.425 126.724 173.5 126.809C173.575 126.893 173.718 126.936 173.93 126.936C174.086 126.936 174.224 126.924 174.345 126.901V127.971C174.068 128.055 173.783 128.098 173.49 128.098C172.501 128.098 171.996 127.598 171.977 126.599V123.752H171.205V122.717H171.977V121.418H173.388ZM177.938 126.54C177.938 126.368 177.852 126.232 177.68 126.135C177.51 126.034 177.237 125.944 176.859 125.866C175.603 125.603 174.975 125.069 174.975 124.265C174.975 123.796 175.168 123.405 175.556 123.093C175.946 122.777 176.456 122.619 177.084 122.619C177.755 122.619 178.29 122.777 178.69 123.093C179.094 123.409 179.296 123.819 179.296 124.323H177.885C177.885 124.121 177.82 123.955 177.689 123.825C177.559 123.692 177.356 123.625 177.079 123.625C176.841 123.625 176.658 123.679 176.527 123.786C176.397 123.894 176.332 124.03 176.332 124.196C176.332 124.353 176.405 124.479 176.552 124.577C176.701 124.672 176.952 124.755 177.304 124.826C177.655 124.895 177.951 124.973 178.192 125.061C178.938 125.334 179.311 125.808 179.311 126.481C179.311 126.963 179.104 127.354 178.69 127.653C178.277 127.95 177.743 128.098 177.089 128.098C176.646 128.098 176.252 128.02 175.907 127.863C175.565 127.704 175.297 127.487 175.102 127.214C174.906 126.937 174.809 126.639 174.809 126.32H176.146C176.16 126.571 176.252 126.763 176.425 126.896C176.597 127.03 176.828 127.097 177.118 127.097C177.388 127.097 177.592 127.046 177.729 126.945C177.868 126.841 177.938 126.706 177.938 126.54ZM183.285 128C183.22 127.873 183.173 127.715 183.144 127.526C182.802 127.907 182.357 128.098 181.811 128.098C181.293 128.098 180.863 127.948 180.521 127.648C180.183 127.349 180.014 126.971 180.014 126.516C180.014 125.956 180.22 125.526 180.634 125.227C181.05 124.927 181.651 124.776 182.436 124.772H183.085V124.47C183.085 124.226 183.021 124.03 182.895 123.884C182.771 123.737 182.574 123.664 182.304 123.664C182.066 123.664 181.879 123.721 181.742 123.835C181.609 123.949 181.542 124.105 181.542 124.304H180.131C180.131 123.998 180.225 123.715 180.414 123.454C180.603 123.194 180.87 122.99 181.215 122.844C181.56 122.694 181.947 122.619 182.377 122.619C183.028 122.619 183.544 122.784 183.925 123.112C184.309 123.438 184.501 123.897 184.501 124.489V126.779C184.504 127.281 184.574 127.66 184.711 127.917V128H183.285ZM182.118 127.019C182.326 127.019 182.519 126.973 182.694 126.882C182.87 126.787 183 126.662 183.085 126.506V125.598H182.558C181.851 125.598 181.475 125.842 181.43 126.33L181.425 126.413C181.425 126.589 181.487 126.734 181.61 126.848C181.734 126.962 181.903 127.019 182.118 127.019ZM190.341 125.407C190.341 126.221 190.155 126.874 189.784 127.365C189.416 127.854 188.918 128.098 188.29 128.098C187.756 128.098 187.325 127.912 186.996 127.541V130.031H185.585V122.717H186.894L186.942 123.234C187.284 122.824 187.73 122.619 188.28 122.619C188.931 122.619 189.438 122.86 189.799 123.342C190.16 123.824 190.341 124.488 190.341 125.334V125.407ZM188.93 125.305C188.93 124.813 188.842 124.434 188.666 124.167C188.493 123.9 188.241 123.767 187.909 123.767C187.466 123.767 187.162 123.936 186.996 124.274V126.438C187.169 126.786 187.476 126.96 187.919 126.96C188.593 126.96 188.93 126.408 188.93 125.305ZM195.976 125.407C195.976 126.221 195.79 126.874 195.419 127.365C195.051 127.854 194.553 128.098 193.925 128.098C193.391 128.098 192.96 127.912 192.631 127.541V130.031H191.22V122.717H192.528L192.577 123.234C192.919 122.824 193.365 122.619 193.915 122.619C194.566 122.619 195.072 122.86 195.434 123.342C195.795 123.824 195.976 124.488 195.976 125.334V125.407ZM194.564 125.305C194.564 124.813 194.477 124.434 194.301 124.167C194.128 123.9 193.876 123.767 193.544 123.767C193.101 123.767 192.797 123.936 192.631 124.274V126.438C192.803 126.786 193.111 126.96 193.554 126.96C194.228 126.96 194.564 126.408 194.564 125.305Z" fill="white"/>
<path d="M109.369 118H109.366C105.855 118 103 120.856 103 124.367C103 125.76 103.449 127.051 104.212 128.099L103.419 130.465L105.866 129.682C106.873 130.349 108.074 130.734 109.369 130.734C112.879 130.734 115.734 127.878 115.734 124.367C115.734 120.856 112.879 118 109.369 118ZM113.074 126.991C112.92 127.425 112.31 127.785 111.824 127.89C111.491 127.961 111.057 128.017 109.594 127.411C107.723 126.635 106.518 124.734 106.424 124.611C106.334 124.487 105.668 123.604 105.668 122.69C105.668 121.777 106.132 121.332 106.319 121.141C106.473 120.984 106.726 120.912 106.97 120.912C107.049 120.912 107.12 120.916 107.183 120.919C107.37 120.927 107.464 120.938 107.588 121.234C107.741 121.604 108.115 122.518 108.16 122.611C108.205 122.705 108.251 122.833 108.187 122.956C108.127 123.083 108.075 123.14 107.981 123.248C107.887 123.356 107.798 123.439 107.704 123.555C107.618 123.656 107.521 123.765 107.629 123.952C107.737 124.135 108.111 124.745 108.662 125.236C109.373 125.868 109.949 126.07 110.155 126.156C110.309 126.22 110.492 126.205 110.604 126.086C110.746 125.932 110.922 125.677 111.101 125.427C111.229 125.247 111.39 125.224 111.558 125.288C111.73 125.348 112.64 125.797 112.827 125.891C113.014 125.984 113.137 126.029 113.183 126.108C113.227 126.187 113.227 126.557 113.074 126.991Z" fill="white"/>
</g>
</g>
</g>
<defs>
<filter id="filter0_d" x="0" y="2" width="553.695" height="306.695" filterUnits="userSpaceOnUse" color-interpolation-filters="sRGB">
<feFlood flood-opacity="0" result="BackgroundImageFix"/>
<feColorMatrix in="SourceAlpha" type="matrix" values="0 0 0 0 0 0 0 0 0 0 0 0 0 0 0 0 0 0 127 0"/>
<feOffset dy="4"/>
<feColorMatrix type="matrix" values="0 0 0 0 0 0 0 0 0 0 0 0 0 0 0 0 0 0 0.15 0"/>
<feBlend mode="normal" in2="BackgroundImageFix" result="effect1_dropShadow"/>
<feBlend mode="normal" in="SourceGraphic" in2="effect1_dropShadow" result="shape"/>
</filter>
<filter id="filter1_d" x="56" y="60" width="188" height="177.599" filterUnits="userSpaceOnUse" color-interpolation-filters="sRGB">
<feFlood flood-opacity="0" result="BackgroundImageFix"/>
<feColorMatrix in="SourceAlpha" type="matrix" values="0 0 0 0 0 0 0 0 0 0 0 0 0 0 0 0 0 0 127 0"/>
<feOffset dy="4"/>
<feGaussianBlur stdDeviation="5"/>
<feColorMatrix type="matrix" values="0 0 0 0 0 0 0 0 0 0 0 0 0 0 0 0 0 0 0.25 0"/>
<feBlend mode="normal" in2="BackgroundImageFix" result="effect1_dropShadow"/>
<feBlend mode="normal" in="SourceGraphic" in2="effect1_dropShadow" result="shape"/>
</filter>
<filter id="filter2_d" x="85" y="151" width="130" height="34" filterUnits="userSpaceOnUse" color-interpolation-filters="sRGB">
<feFlood flood-opacity="0" result="BackgroundImageFix"/>
<feColorMatrix in="SourceAlpha" type="matrix" values="0 0 0 0 0 0 0 0 0 0 0 0 0 0 0 0 0 0 127 0"/>
<feOffset dy="1"/>
<feGaussianBlur stdDeviation="1"/>
<feColorMatrix type="matrix" values="0 0 0 0 0 0 0 0 0 0 0 0 0 0 0 0 0 0 0.25 0"/>
<feBlend mode="normal" in2="BackgroundImageFix" result="effect1_dropShadow"/>
<feBlend mode="normal" in="SourceGraphic" in2="effect1_dropShadow" result="shape"/>
</filter>
<filter id="filter3_d" x="85" y="109" width="130" height="34" filterUnits="userSpaceOnUse" color-interpolation-filters="sRGB">
<feFlood flood-opacity="0" result="BackgroundImageFix"/>
<feColorMatrix in="SourceAlpha" type="matrix" values="0 0 0 0 0 0 0 0 0 0 0 0 0 0 0 0 0 0 127 0"/>
<feOffset dy="1"/>
<feGaussianBlur stdDeviation="1"/>
<feColorMatrix type="matrix" values="0 0 0 0 0 0 0 0 0 0 0 0 0 0 0 0 0 0 0.25 0"/>
<feBlend mode="normal" in2="BackgroundImageFix" result="effect1_dropShadow"/>
<feBlend mode="normal" in="SourceGraphic" in2="effect1_dropShadow" result="shape"/>
</filter>
<clipPath id="clip0">
<rect width="12.7344" height="12.7344" fill="white" transform="translate(550.172 20.375)"/>
</clipPath>
<clipPath id="clip1">
<rect width="12.7344" height="12.7344" fill="white" transform="translate(416.461 20.375)"/>
</clipPath>
<clipPath id="clip2">
<rect width="30.3686" height="30.3686" fill="white" transform="translate(512.334 268.551) rotate(-10)"/>
</clipPath>
<clipPath id="clip3">
<rect width="30.3686" height="30.3686" fill="white" transform="translate(184.334 216.551) rotate(-10)"/>
</clipPath>
<clipPath id="clip4">
<rect width="12.7344" height="12.7344" fill="white" transform="translate(103 161)"/>
</clipPath>
</defs>
</svg>
