<svg width="1178" height="263" viewBox="0 0 1178 263" fill="none" xmlns="http://www.w3.org/2000/svg">
<path d="M313.482 197.202C310.519 197.202 308.028 196.259 306.008 194.374C304.123 192.354 303.18 189.863 303.18 186.9V96.808C303.18 93.7107 304.123 91.2193 306.008 89.334C308.028 87.4487 310.519 86.506 313.482 86.506C316.579 86.506 319.071 87.4487 320.956 89.334C322.841 91.2193 323.784 93.7107 323.784 96.808V99.03C327.959 94.8553 333.009 91.556 338.934 89.132C344.859 86.708 351.256 85.496 358.124 85.496C367.416 85.496 375.698 87.516 382.97 91.556C390.377 95.4613 396.167 101.252 400.342 108.928C404.651 116.604 406.806 126.031 406.806 137.208V186.9C406.806 189.863 405.796 192.354 403.776 194.374C401.891 196.259 399.467 197.202 396.504 197.202C393.541 197.202 391.05 196.259 389.03 194.374C387.145 192.354 386.202 189.863 386.202 186.9V137.208C386.202 125.761 383.105 117.412 376.91 112.16C370.85 106.773 363.241 104.08 354.084 104.08C348.428 104.08 343.311 105.225 338.732 107.514C334.153 109.803 330.517 112.901 327.824 116.806C325.131 120.577 323.784 124.953 323.784 129.936V186.9C323.784 189.863 322.841 192.354 320.956 194.374C319.071 196.259 316.579 197.202 313.482 197.202ZM492.785 197.808C481.608 197.808 471.643 195.451 462.889 190.738C454.271 185.89 447.47 179.291 442.487 170.942C437.639 162.458 435.215 152.762 435.215 141.854C435.215 130.811 437.505 121.115 442.083 112.766C446.797 104.282 453.261 97.6833 461.475 92.97C469.69 88.122 479.117 85.698 489.755 85.698C500.259 85.698 509.282 88.0547 516.823 92.768C524.365 97.3467 530.088 103.743 533.993 111.958C538.033 120.038 540.053 129.397 540.053 140.036C540.053 142.595 539.178 144.749 537.427 146.5C535.677 148.116 533.455 148.924 530.761 148.924H454.001C455.483 158.216 459.725 165.825 466.727 171.75C473.865 177.541 482.551 180.436 492.785 180.436C496.96 180.436 501.202 179.695 505.511 178.214C509.955 176.598 513.524 174.78 516.217 172.76C518.237 171.279 520.392 170.538 522.681 170.538C525.105 170.403 527.193 171.077 528.943 172.558C531.233 174.578 532.445 176.8 532.579 179.224C532.714 181.648 531.637 183.735 529.347 185.486C524.769 189.122 519.045 192.085 512.177 194.374C505.444 196.663 498.98 197.808 492.785 197.808ZM489.755 103.07C479.79 103.07 471.777 105.831 465.717 111.352C459.657 116.873 455.819 124.011 454.203 132.764H521.469C520.257 124.145 516.958 117.075 511.571 111.554C506.185 105.898 498.913 103.07 489.755 103.07ZM560.621 197C557.928 197 555.773 196.192 554.157 194.576C552.676 192.825 551.935 190.738 551.935 188.314C551.935 185.89 552.878 183.466 554.763 181.042L586.073 141.854L552.743 102.464C550.992 100.309 550.05 98.02 549.915 95.596C549.78 93.0373 550.454 90.8827 551.935 89.132C553.416 87.3813 555.638 86.506 558.601 86.506C561.833 86.506 564.392 87.6507 566.277 89.94L599.405 129.532L629.099 89.94C630.176 88.5933 631.321 87.718 632.533 87.314C633.745 86.7753 635.092 86.506 636.573 86.506C639.536 86.506 641.758 87.4487 643.239 89.334C644.72 91.0847 645.394 93.2393 645.259 95.798C645.259 98.3567 644.316 100.848 642.431 103.272L611.929 143.066L644.047 181.446C646.067 183.87 647.01 186.294 646.875 188.718C646.875 191.007 646 192.96 644.249 194.576C642.633 196.192 640.478 197 637.785 197C636.438 197 635.159 196.798 633.947 196.394C632.735 195.99 631.59 195.115 630.513 193.768L598.395 155.388L567.893 193.768C565.873 195.923 563.449 197 560.621 197ZM712.857 197C706.123 197 700.063 195.317 694.677 191.95C689.29 188.449 685.048 183.735 681.951 177.81C678.853 171.885 677.305 165.219 677.305 157.812V107.918H668.013C665.185 107.918 662.895 107.11 661.145 105.494C659.394 103.878 658.519 101.858 658.519 99.434C658.519 96.7407 659.394 94.586 661.145 92.97C662.895 91.354 665.185 90.546 668.013 90.546H677.305V61.458C677.305 58.4953 678.247 56.0713 680.133 54.186C682.018 52.3007 684.442 51.358 687.405 51.358C690.367 51.358 692.791 52.3007 694.677 54.186C696.562 56.0713 697.505 58.4953 697.505 61.458V90.546H714.675C717.503 90.546 719.792 91.354 721.543 92.97C723.293 94.586 724.169 96.7407 724.169 99.434C724.169 101.858 723.293 103.878 721.543 105.494C719.792 107.11 717.503 107.918 714.675 107.918H697.505V157.812C697.505 163.199 698.986 167.71 701.949 171.346C704.911 174.982 708.547 176.8 712.857 176.8H719.725C722.149 176.8 724.169 177.743 725.785 179.628C727.535 181.513 728.411 183.937 728.411 186.9C728.411 189.863 727.266 192.287 724.977 194.172C722.822 196.057 719.994 197 716.493 197H712.857Z" fill="#342F2F"/>
<path d="M764.037 244.268C761.074 244.268 758.583 243.258 756.563 241.238C754.677 239.353 753.735 236.929 753.735 233.966V141.854C753.869 131.215 756.361 121.654 761.209 113.17C766.057 104.686 772.655 98.02 781.005 93.172C789.354 88.1893 798.781 85.698 809.285 85.698C819.923 85.698 829.417 88.1893 837.767 93.172C846.116 98.02 852.715 104.686 857.563 113.17C862.545 121.654 865.037 131.215 865.037 141.854C865.037 152.493 862.747 162.054 858.169 170.538C853.725 178.887 847.597 185.553 839.787 190.536C831.976 195.384 823.155 197.808 813.325 197.808C805.379 197.808 798.04 196.192 791.307 192.96C784.708 189.593 779.052 185.082 774.339 179.426V233.966C774.339 236.929 773.396 239.353 771.511 241.238C769.625 243.258 767.134 244.268 764.037 244.268ZM809.285 179.628C816.153 179.628 822.28 178.012 827.667 174.78C833.053 171.413 837.295 166.902 840.393 161.246C843.625 155.455 845.241 148.991 845.241 141.854C845.241 134.582 843.625 128.118 840.393 122.462C837.295 116.671 833.053 112.16 827.667 108.928C822.28 105.561 816.153 103.878 809.285 103.878C802.551 103.878 796.424 105.561 790.903 108.928C785.516 112.16 781.274 116.671 778.177 122.462C775.079 128.118 773.531 134.582 773.531 141.854C773.531 148.991 775.079 155.455 778.177 161.246C781.274 166.902 785.516 171.413 790.903 174.78C796.424 178.012 802.551 179.628 809.285 179.628ZM922.026 197C916.101 197 910.849 195.384 906.27 192.152C901.691 188.92 898.123 184.543 895.564 179.022C893.005 173.366 891.726 166.902 891.726 159.63V49.338C891.726 46.3753 892.669 43.9513 894.554 42.066C896.439 40.1807 898.863 39.238 901.826 39.238C904.789 39.238 907.213 40.1807 909.098 42.066C910.983 43.9513 911.926 46.3753 911.926 49.338V159.63C911.926 164.613 912.869 168.72 914.754 171.952C916.639 175.184 919.063 176.8 922.026 176.8H927.076C929.769 176.8 931.924 177.743 933.54 179.628C935.291 181.513 936.166 183.937 936.166 186.9C936.166 189.863 934.887 192.287 932.328 194.172C929.769 196.057 926.47 197 922.43 197H922.026ZM996.267 197.808C986.437 197.808 977.616 195.384 969.805 190.536C961.995 185.553 955.8 178.887 951.221 170.538C946.777 162.054 944.555 152.493 944.555 141.854C944.555 131.215 946.979 121.654 951.827 113.17C956.81 104.686 963.476 98.02 971.825 93.172C980.309 88.1893 989.803 85.698 1000.31 85.698C1010.81 85.698 1020.24 88.1893 1028.59 93.172C1036.94 98.02 1043.54 104.686 1048.38 113.17C1053.37 121.654 1055.86 131.215 1055.86 141.854V186.9C1055.86 189.863 1054.85 192.354 1052.83 194.374C1050.94 196.259 1048.52 197.202 1045.56 197.202C1042.59 197.202 1040.1 196.259 1038.08 194.374C1036.2 192.354 1035.25 189.863 1035.25 186.9V179.426C1030.54 185.082 1024.82 189.593 1018.08 192.96C1011.48 196.192 1004.21 197.808 996.267 197.808ZM1000.31 179.628C1007.18 179.628 1013.3 178.012 1018.69 174.78C1024.08 171.413 1028.32 166.902 1031.42 161.246C1034.51 155.455 1036.06 148.991 1036.06 141.854C1036.06 134.582 1034.51 128.118 1031.42 122.462C1028.32 116.671 1024.08 112.16 1018.69 108.928C1013.3 105.561 1007.18 103.878 1000.31 103.878C993.574 103.878 987.447 105.561 981.925 108.928C976.539 112.16 972.229 116.671 968.997 122.462C965.9 128.118 964.351 134.582 964.351 141.854C964.351 148.991 965.9 155.455 968.997 161.246C972.229 166.902 976.539 171.413 981.925 174.78C987.447 178.012 993.574 179.628 1000.31 179.628ZM1106.32 245.48C1104.97 245.48 1103.36 245.076 1101.47 244.268C1095.54 241.575 1093.93 237.333 1096.62 231.542L1116.82 186.092L1071.37 99.838C1070.03 97.2793 1069.82 94.8553 1070.77 92.566C1071.84 90.142 1073.66 88.3913 1076.22 87.314C1078.78 86.2367 1081.2 86.1693 1083.49 87.112C1085.78 87.92 1087.53 89.6033 1088.74 92.162L1125.71 165.69L1158.23 92.364C1160.93 86.708 1165.17 85.092 1170.96 87.516C1177.02 90.0747 1178.7 94.3167 1176.01 100.242L1114.2 239.218C1112.58 243.393 1109.95 245.48 1106.32 245.48Z" fill="#0F8DFF"/>
<circle cx="128" cy="128" r="128" fill="#0F8DFF"/>
<path d="M212.5 183L248.44 243H176.56L212.5 183Z" fill="#0F8DFF"/>
<g clip-path="url(#clip0)">
<path d="M157.54 60.4168L157.539 60.4149C156.514 55.7471 153.68 51.6763 149.658 49.0952C145.636 46.5141 140.755 45.6333 136.085 46.646L136.083 46.6465L86.7664 57.4074L86.7645 57.4078C82.0967 58.4327 78.0259 61.2668 75.4448 65.2888C72.8637 69.3107 71.9829 74.1921 72.9956 78.8625L72.996 78.8644L98.4632 195.578L98.4636 195.58C99.4884 200.247 102.323 204.318 106.345 206.899C110.366 209.48 115.248 210.361 119.918 209.348L119.92 209.348L169.234 198.588L169.235 198.587C173.904 197.563 177.976 194.729 180.557 190.707C183.139 186.685 184.02 181.803 183.007 177.132L181.541 177.45L183.007 177.13L157.54 60.4168ZM167.808 191.014L167.594 191.061L118.28 201.821C115.604 202.402 112.808 201.897 110.504 200.419C108.2 198.94 106.576 196.608 105.989 193.935L80.5222 77.223C79.9423 74.5477 80.4469 71.7516 81.9254 69.4478C83.404 67.1439 85.7358 65.5203 88.4097 64.9332L137.721 54.1733C140.396 53.5932 143.193 54.0978 145.497 55.5764C147.801 57.0551 149.424 59.3873 150.011 62.0614L175.478 178.771C176.059 181.447 175.555 184.244 174.076 186.549C172.638 188.791 170.391 190.389 167.808 191.014Z" fill="white" stroke="white" stroke-width="3"/>
<path d="M109.758 79.0634L124.199 75.9123C124.809 75.7793 125.34 75.4097 125.677 74.8848C126.014 74.36 126.129 73.7228 125.996 73.1134C125.863 72.5041 125.493 71.9725 124.968 71.6357C124.443 71.2988 123.806 71.1843 123.197 71.3172L108.755 74.4684C108.146 74.6014 107.614 74.9709 107.278 75.4958C106.941 76.0207 106.826 76.6579 106.959 77.2672C107.092 77.8766 107.462 78.4081 107.987 78.745C108.511 79.0818 109.149 79.1964 109.758 79.0634Z" fill="white"/>
<path d="M205.197 109.419L205.199 109.417C212.627 101.981 212.628 89.9303 205.195 82.4957L205.194 82.4946C197.762 75.0658 185.709 75.0586 178.272 82.4953L120.377 140.39L96.9974 117.011C96.9974 117.011 96.9974 117.01 96.9973 117.01C89.5638 109.577 77.51 109.578 70.0754 117.012C62.6416 124.446 62.6409 136.502 70.0753 143.935C70.0755 143.935 70.0756 143.936 70.0758 143.936L106.912 180.775L106.914 180.776C114.349 188.206 126.403 188.209 133.836 180.775C133.836 180.775 133.836 180.775 133.837 180.774L205.197 109.419Z" fill="white" stroke="#0F8DFF" stroke-width="11"/>
</g>
<defs>
<clipPath id="clip0">
<rect width="172" height="172" fill="white" transform="translate(42 42)"/>
</clipPath>
</defs>
</svg>
